%
M48
M72
T01C0.0120
T02C0.0140
T03C0.0157
T04C0.0160
T05C0.0180
T06C0.0236
T07C0.0256
T08C0.0315
T09C0.0350
T10C0.0472
T11C0.0800
T12C0.1181
%
T01
X13363Y3522
X13363Y3822
X13363Y4122
X13363Y4422
X16627Y4577
X16977Y4577
X16977Y3827
X16627Y3727
X19263Y4622
X19263Y4922
X19263Y5222
X19263Y5522
X20645Y5473
X22063Y5572
X22363Y5572
X22663Y5572
X22963Y5572
X20463Y6622
X20463Y6922
X20463Y7222
X20463Y7522
X21305Y10377
X21977Y10827
X22836Y10962
X23136Y10962
X23436Y10962
X23736Y10962
X20189Y11777
X19016Y12825
X19016Y13095
X18716Y13095
X18716Y12825
X18716Y13365
X18716Y13635
X19016Y13635
X19016Y13365
X17846Y13538
X16455Y14327
X15539Y14412
X15239Y14412
X14939Y14412
X14639Y14412
X14339Y14412
X14039Y14412
X13739Y14412
X12442Y14412
X12442Y14762
X12442Y15062
X11842Y15062
X11842Y14762
X11842Y14462
X9642Y14512
X9642Y14812
X9642Y14212
X9642Y13912
X9642Y11662
X9642Y11362
X9642Y11062
X9642Y10762
X8363Y8572
X8363Y8272
X8363Y7972
X8363Y7672
X17635Y12047
X18239Y10712
X18539Y10712
X18839Y10712
X19139Y10712
X19565Y10627
X21592Y13212
X21592Y13512
X21592Y13812
X21592Y14112
X25586Y14162
X25586Y13862
X25586Y13562
X25586Y13262
X29690Y11862
X29690Y11562
X29690Y11262
X29690Y10962
X32177Y8427
X32177Y8098
X30325Y7482
X30162Y7842
X28976Y8051
X28976Y8351
X24677Y3527
X24963Y3522
X25263Y3522
X24377Y3527
T02
X17724Y6422
X15558Y6722
X15195Y5922
X15558Y8177
T03
X15020Y4852
X15020Y3206
X18420Y3206
X18420Y4852
T04
X21027Y7827
X21027Y8127
X13077Y7577
X12777Y7577
X7827Y3727
X7527Y3727
X7227Y3327
X6927Y3327
X12705Y12254
X13005Y12254
X26632Y13557
X26632Y13867
T05
X27252Y11388
T06
X12033Y5863
X12347Y4997
X10615Y3855
X8725Y5273
X9395Y6257
X8883Y7044
X9985Y7044
X11245Y7044
T07
X15582Y4643
X17857Y4643
T08
X23509Y4377
X23509Y5164
X23509Y5951
X28319Y14167
X29106Y14167
X29894Y14167
T09
X24759Y6926
X23759Y6926
X22759Y6926
X21759Y6926
X8936Y10696
X7936Y10696
X6936Y10696
X5936Y10696
T10
X9237Y4288
X11796Y4288
T11
X13887Y5080
X7582Y5080
T12
X2031Y2959
X2031Y15215
X33278Y15215
X33278Y2959
M30
