G75*
G70*
%OFA0B0*%
%FSLAX24Y24*%
%IPPOS*%
%LPD*%
%AMOC8*
5,1,8,0,0,1.08239X$1,22.5*
%
%ADD10C,0.0050*%
%ADD11C,0.0000*%
%ADD12C,0.1181*%
%ADD13R,0.0550X0.1400*%
%ADD14R,0.6150X0.1600*%
%ADD15R,0.1550X0.1000*%
%ADD16R,0.1350X0.1800*%
%ADD17R,0.1500X0.1000*%
%ADD18R,0.0197X0.0220*%
%ADD19R,0.0220X0.0197*%
%ADD20C,0.0450*%
%ADD21R,0.0236X0.0600*%
%ADD22R,0.0350X0.1450*%
%ADD23R,0.0394X0.0433*%
%ADD24C,0.0512*%
%ADD25R,0.0250X0.0197*%
%ADD26R,0.0472X0.0217*%
%ADD27R,0.0358X0.0480*%
%ADD28R,0.0551X0.0906*%
%ADD29R,0.0157X0.0551*%
%ADD30R,0.0354X0.0250*%
%ADD31R,0.0433X0.0394*%
%ADD32R,0.0315X0.0354*%
%ADD33R,0.0250X0.0354*%
%ADD34R,0.0551X0.0236*%
%ADD35R,0.0551X0.1181*%
%ADD36R,0.0906X0.0551*%
%ADD37C,0.0800*%
%ADD38C,0.0472*%
%ADD39C,0.0400*%
%ADD40R,0.0600X0.0236*%
%ADD41R,0.1450X0.0350*%
%ADD42OC8,0.0800*%
%ADD43R,0.0118X0.0472*%
%ADD44R,0.0236X0.0472*%
%ADD45C,0.0256*%
%ADD46C,0.0004*%
%ADD47C,0.0550*%
%ADD48OC8,0.0550*%
D10*
X001677Y000927D02*
X013545Y000927D01*
X013545Y000955D01*
X013549Y000983D01*
X013556Y001010D01*
X013567Y001036D01*
X013581Y001060D01*
X013598Y001082D01*
X013618Y001102D01*
X013640Y001119D01*
X013664Y001133D01*
X013690Y001144D01*
X013717Y001151D01*
X013745Y001155D01*
X013895Y001155D01*
X013923Y001151D01*
X013950Y001144D01*
X013976Y001133D01*
X014000Y001119D01*
X014022Y001102D01*
X014042Y001082D01*
X014059Y001060D01*
X014073Y001036D01*
X014084Y001010D01*
X014091Y000983D01*
X014095Y000955D01*
X014095Y000927D01*
X019282Y000927D01*
X019282Y000955D01*
X019286Y000983D01*
X019293Y001010D01*
X019304Y001036D01*
X019318Y001060D01*
X019335Y001082D01*
X019355Y001102D01*
X019377Y001119D01*
X019401Y001133D01*
X019427Y001144D01*
X019454Y001151D01*
X019482Y001155D01*
X019632Y001155D01*
X019632Y001156D02*
X019661Y001152D01*
X019688Y001145D01*
X019714Y001135D01*
X019739Y001121D01*
X019762Y001104D01*
X019782Y001084D01*
X019800Y001062D01*
X019814Y001037D01*
X019826Y001011D01*
X019833Y000984D01*
X019837Y000956D01*
X019838Y000928D01*
X019837Y000927D02*
X033631Y000927D01*
X033630Y000927D02*
X033684Y000929D01*
X033738Y000934D01*
X033791Y000943D01*
X033844Y000956D01*
X033895Y000973D01*
X033945Y000993D01*
X033993Y001017D01*
X034040Y001044D01*
X034085Y001075D01*
X034127Y001108D01*
X034167Y001145D01*
X034204Y001184D01*
X034238Y001226D01*
X034269Y001270D01*
X034297Y001316D01*
X034321Y001364D01*
X034342Y001414D01*
X034360Y001465D01*
X034374Y001517D01*
X034384Y001570D01*
X034390Y001624D01*
X034392Y001677D01*
X034392Y017896D01*
X034392Y017895D02*
X034390Y017949D01*
X034383Y018003D01*
X034373Y018056D01*
X034360Y018108D01*
X034342Y018159D01*
X034321Y018209D01*
X034297Y018257D01*
X034269Y018303D01*
X034237Y018347D01*
X034203Y018388D01*
X034166Y018427D01*
X034126Y018464D01*
X034084Y018497D01*
X034040Y018528D01*
X033993Y018555D01*
X033945Y018578D01*
X033895Y018599D01*
X033843Y018615D01*
X033791Y018628D01*
X033738Y018637D01*
X033684Y018643D01*
X033631Y018644D01*
X001677Y018644D01*
X001624Y018642D01*
X001570Y018637D01*
X001518Y018627D01*
X001466Y018614D01*
X001415Y018597D01*
X001366Y018577D01*
X001318Y018553D01*
X001272Y018526D01*
X001228Y018495D01*
X001186Y018462D01*
X001147Y018425D01*
X001111Y018386D01*
X001077Y018345D01*
X001046Y018301D01*
X001019Y018255D01*
X000995Y018207D01*
X000975Y018158D01*
X000958Y018107D01*
X000944Y018055D01*
X000935Y018003D01*
X000929Y017949D01*
X000927Y017896D01*
X000927Y001677D01*
X000929Y001623D01*
X000935Y001570D01*
X000944Y001518D01*
X000957Y001466D01*
X000974Y001415D01*
X000995Y001365D01*
X001019Y001318D01*
X001046Y001272D01*
X001077Y001228D01*
X001110Y001186D01*
X001147Y001147D01*
X001186Y001110D01*
X001228Y001077D01*
X001272Y001046D01*
X001318Y001019D01*
X001365Y000995D01*
X001415Y000974D01*
X001466Y000957D01*
X001518Y000944D01*
X001570Y000935D01*
X001623Y000929D01*
X001677Y000927D01*
X003677Y002305D02*
X013545Y002305D01*
X013545Y002277D01*
X013549Y002249D01*
X013556Y002222D01*
X013567Y002196D01*
X013581Y002172D01*
X013598Y002150D01*
X013618Y002130D01*
X013640Y002113D01*
X013664Y002099D01*
X013690Y002088D01*
X013717Y002081D01*
X013745Y002077D01*
X013895Y002077D01*
X013923Y002081D01*
X013950Y002088D01*
X013976Y002099D01*
X014000Y002113D01*
X014022Y002130D01*
X014042Y002150D01*
X014059Y002172D01*
X014073Y002196D01*
X014084Y002222D01*
X014091Y002249D01*
X014095Y002277D01*
X014095Y002305D01*
X019282Y002305D01*
X019282Y002277D01*
X019286Y002249D01*
X019293Y002222D01*
X019304Y002196D01*
X019318Y002172D01*
X019335Y002150D01*
X019355Y002130D01*
X019377Y002113D01*
X019401Y002099D01*
X019427Y002088D01*
X019454Y002081D01*
X019482Y002077D01*
X019632Y002077D01*
X019661Y002081D01*
X019688Y002088D01*
X019714Y002098D01*
X019739Y002112D01*
X019762Y002129D01*
X019782Y002149D01*
X019800Y002171D01*
X019814Y002196D01*
X019826Y002222D01*
X019833Y002249D01*
X019837Y002277D01*
X019838Y002305D01*
X019837Y002305D02*
X031642Y002305D01*
X031672Y002307D01*
X031702Y002312D01*
X031731Y002321D01*
X031758Y002334D01*
X031784Y002349D01*
X031808Y002368D01*
X031829Y002389D01*
X031848Y002413D01*
X031863Y002439D01*
X031876Y002466D01*
X031885Y002495D01*
X031890Y002525D01*
X031892Y002555D01*
X031892Y004570D01*
X025710Y004570D01*
X025710Y003477D01*
X025708Y003438D01*
X025702Y003399D01*
X025693Y003361D01*
X025680Y003324D01*
X025663Y003288D01*
X025643Y003255D01*
X025619Y003223D01*
X025593Y003194D01*
X025564Y003168D01*
X025532Y003144D01*
X025499Y003124D01*
X025463Y003107D01*
X025426Y003094D01*
X025388Y003085D01*
X025349Y003079D01*
X025310Y003077D01*
X018790Y003077D01*
X018770Y003043D01*
X018747Y003011D01*
X018721Y002981D01*
X018692Y002954D01*
X018661Y002930D01*
X018628Y002908D01*
X018593Y002890D01*
X018556Y002876D01*
X018518Y002865D01*
X018479Y002857D01*
X018440Y002853D01*
X018400Y002853D01*
X018361Y002857D01*
X018322Y002865D01*
X018284Y002876D01*
X018247Y002890D01*
X018212Y002908D01*
X018179Y002930D01*
X018148Y002954D01*
X018119Y002981D01*
X018093Y003011D01*
X018070Y003043D01*
X018050Y003077D01*
X015390Y003077D01*
X015370Y003043D01*
X015347Y003011D01*
X015321Y002981D01*
X015292Y002954D01*
X015261Y002930D01*
X015228Y002908D01*
X015193Y002890D01*
X015156Y002876D01*
X015118Y002865D01*
X015079Y002857D01*
X015040Y002853D01*
X015000Y002853D01*
X014961Y002857D01*
X014922Y002865D01*
X014884Y002876D01*
X014847Y002890D01*
X014812Y002908D01*
X014779Y002930D01*
X014748Y002954D01*
X014719Y002981D01*
X014693Y003011D01*
X014670Y003043D01*
X014650Y003077D01*
X005110Y003077D01*
X005085Y003082D01*
X005062Y003091D01*
X005039Y003103D01*
X005019Y003118D01*
X005001Y003136D01*
X004986Y003156D01*
X004974Y003178D01*
X004965Y003202D01*
X004960Y003227D01*
X004958Y003252D01*
X004960Y003277D01*
X004960Y003683D01*
X003427Y003683D01*
X003427Y002527D01*
X003431Y002499D01*
X003438Y002471D01*
X003448Y002444D01*
X003461Y002419D01*
X003477Y002396D01*
X003496Y002374D01*
X003517Y002355D01*
X003541Y002339D01*
X003566Y002326D01*
X003593Y002316D01*
X003620Y002309D01*
X003648Y002305D01*
X003677Y002305D01*
X003427Y004671D02*
X004960Y004671D01*
X004960Y005127D01*
X003427Y004671D02*
X003427Y011245D01*
X004994Y011245D01*
X004994Y010564D01*
X004996Y010525D01*
X005002Y010486D01*
X005011Y010448D01*
X005024Y010411D01*
X005041Y010375D01*
X005061Y010342D01*
X005085Y010310D01*
X005111Y010281D01*
X005140Y010255D01*
X005172Y010231D01*
X005205Y010211D01*
X005241Y010194D01*
X005278Y010181D01*
X005316Y010172D01*
X005355Y010166D01*
X005394Y010164D01*
X030138Y010164D01*
X030177Y010166D01*
X030216Y010172D01*
X030254Y010181D01*
X030291Y010194D01*
X030327Y010211D01*
X030360Y010231D01*
X030392Y010255D01*
X030421Y010281D01*
X030447Y010310D01*
X030471Y010342D01*
X030491Y010375D01*
X030508Y010411D01*
X030521Y010448D01*
X030530Y010486D01*
X030536Y010525D01*
X030538Y010564D01*
X030538Y012220D01*
X031892Y012220D01*
X031892Y008560D01*
X031192Y008560D01*
X031169Y008564D01*
X031147Y008571D01*
X031126Y008581D01*
X031107Y008594D01*
X031090Y008610D01*
X031076Y008628D01*
X031064Y008648D01*
X031055Y008669D01*
X031049Y008691D01*
X031046Y008714D01*
X031047Y008737D01*
X031046Y008738D02*
X031046Y008800D01*
X031046Y008823D01*
X031042Y008846D01*
X031036Y008868D01*
X031026Y008889D01*
X031014Y008908D01*
X030999Y008925D01*
X030981Y008940D01*
X030962Y008953D01*
X030941Y008962D01*
X030919Y008968D01*
X030896Y008972D01*
X029019Y008972D01*
X028969Y008934D01*
X028921Y008893D01*
X028876Y008849D01*
X028834Y008803D01*
X028794Y008754D01*
X028758Y008702D01*
X028725Y008649D01*
X028695Y008594D01*
X028668Y008537D01*
X028645Y008478D01*
X028626Y008418D01*
X028610Y008357D01*
X028598Y008296D01*
X028589Y008233D01*
X028585Y008170D01*
X028584Y008108D01*
X028587Y008045D01*
X028594Y007982D01*
X028605Y007920D01*
X028619Y007859D01*
X028637Y007799D01*
X028659Y007740D01*
X028684Y007682D01*
X028713Y007626D01*
X028745Y007572D01*
X028780Y007520D01*
X028818Y007470D01*
X028859Y007422D01*
X028904Y007377D01*
X028950Y007335D01*
X028999Y007296D01*
X029051Y007260D01*
X029104Y007227D01*
X029160Y007197D01*
X029217Y007171D01*
X029275Y007148D01*
X029335Y007129D01*
X029396Y007113D01*
X029458Y007101D01*
X029520Y007093D01*
X029583Y007089D01*
X029646Y007088D01*
X029709Y007092D01*
X029771Y007099D01*
X029833Y007110D01*
X029895Y007124D01*
X029955Y007142D01*
X030014Y007164D01*
X030071Y007190D01*
X030731Y007190D01*
X030764Y007192D01*
X030797Y007198D01*
X030829Y007207D01*
X030860Y007219D01*
X030890Y007234D01*
X030918Y007253D01*
X030943Y007274D01*
X030966Y007298D01*
X030987Y007324D01*
X031005Y007352D01*
X031020Y007382D01*
X031031Y007413D01*
X031040Y007445D01*
X031045Y007478D01*
X031046Y007511D01*
X031047Y007511D02*
X031050Y007534D01*
X031057Y007556D01*
X031067Y007577D01*
X031080Y007597D01*
X031095Y007614D01*
X031113Y007629D01*
X031133Y007641D01*
X031154Y007651D01*
X031177Y007657D01*
X031200Y007660D01*
X031223Y007659D01*
X031223Y007660D02*
X031892Y007660D01*
X031892Y006158D01*
X025710Y006158D01*
X025710Y008677D01*
X025708Y008716D01*
X025702Y008755D01*
X025693Y008793D01*
X025680Y008830D01*
X025663Y008866D01*
X025643Y008899D01*
X025619Y008931D01*
X025593Y008960D01*
X025564Y008986D01*
X025532Y009010D01*
X025499Y009030D01*
X025463Y009047D01*
X025426Y009060D01*
X025388Y009069D01*
X025349Y009075D01*
X025310Y009077D01*
X006960Y009077D01*
X006921Y009075D01*
X006882Y009069D01*
X006844Y009060D01*
X006807Y009047D01*
X006771Y009030D01*
X006738Y009010D01*
X006706Y008986D01*
X006677Y008960D01*
X006651Y008931D01*
X006627Y008899D01*
X006607Y008866D01*
X006590Y008830D01*
X006577Y008793D01*
X006568Y008755D01*
X006562Y008716D01*
X006560Y008677D01*
X006534Y008413D01*
X006496Y008151D01*
X006446Y007891D01*
X006384Y007633D01*
X006310Y007379D01*
X006224Y007129D01*
X006126Y006882D01*
X006017Y006641D01*
X005897Y006404D01*
X005767Y006174D01*
X005625Y005950D01*
X005473Y005733D01*
X005312Y005523D01*
X005141Y005321D01*
X004960Y005127D01*
X004994Y012233D02*
X003427Y012233D01*
X003427Y016586D01*
X003429Y016616D01*
X003434Y016646D01*
X003443Y016675D01*
X003456Y016702D01*
X003471Y016728D01*
X003490Y016752D01*
X003511Y016773D01*
X003535Y016792D01*
X003561Y016807D01*
X003588Y016820D01*
X003617Y016829D01*
X003647Y016834D01*
X003677Y016836D01*
X031642Y016836D01*
X031672Y016834D01*
X031702Y016829D01*
X031731Y016820D01*
X031758Y016807D01*
X031784Y016792D01*
X031808Y016773D01*
X031829Y016752D01*
X031848Y016728D01*
X031863Y016702D01*
X031876Y016675D01*
X031885Y016646D01*
X031890Y016616D01*
X031892Y016586D01*
X031892Y014008D01*
X030538Y014008D01*
X030538Y015914D01*
X030536Y015937D01*
X030531Y015960D01*
X030522Y015982D01*
X030509Y016002D01*
X030494Y016020D01*
X030476Y016035D01*
X030456Y016048D01*
X030434Y016057D01*
X030411Y016062D01*
X030388Y016064D01*
X008410Y016064D01*
X008371Y016062D01*
X008332Y016056D01*
X008294Y016047D01*
X008257Y016034D01*
X008221Y016017D01*
X008188Y015997D01*
X008156Y015973D01*
X008127Y015947D01*
X008101Y015918D01*
X008077Y015886D01*
X008057Y015853D01*
X008040Y015817D01*
X008027Y015780D01*
X008018Y015742D01*
X008012Y015703D01*
X008010Y015664D01*
X008010Y013714D01*
X008008Y013675D01*
X008002Y013636D01*
X007993Y013598D01*
X007980Y013561D01*
X007963Y013525D01*
X007943Y013492D01*
X007919Y013460D01*
X007893Y013431D01*
X007864Y013405D01*
X007832Y013381D01*
X007799Y013361D01*
X007763Y013344D01*
X007726Y013331D01*
X007688Y013322D01*
X007649Y013316D01*
X007610Y013314D01*
X005394Y013314D01*
X005355Y013312D01*
X005316Y013306D01*
X005278Y013297D01*
X005241Y013284D01*
X005205Y013267D01*
X005172Y013247D01*
X005140Y013223D01*
X005111Y013197D01*
X005085Y013168D01*
X005061Y013136D01*
X005041Y013103D01*
X005024Y013067D01*
X005011Y013030D01*
X005002Y012992D01*
X004996Y012953D01*
X004994Y012914D01*
X004994Y012233D01*
X029534Y015153D02*
X029529Y015207D01*
X029534Y015260D01*
X029550Y015312D01*
X029575Y015359D01*
X029609Y015401D01*
X029650Y015435D01*
X029698Y015460D01*
X029749Y015476D01*
X029803Y015481D01*
X029856Y015476D01*
X029907Y015460D01*
X029955Y015435D01*
X029996Y015401D01*
X030030Y015359D01*
X030056Y015312D01*
X030071Y015260D01*
X030077Y015207D01*
X030071Y015153D01*
X030056Y015102D01*
X030030Y015055D01*
X029996Y015013D01*
X029955Y014979D01*
X029907Y014954D01*
X029856Y014938D01*
X029803Y014933D01*
X029749Y014938D01*
X029698Y014954D01*
X029650Y014979D01*
X029609Y015013D01*
X029575Y015055D01*
X029550Y015102D01*
X029534Y015153D01*
X029539Y015138D02*
X030067Y015138D01*
X030075Y015186D02*
X029531Y015186D01*
X029531Y015235D02*
X030074Y015235D01*
X030064Y015283D02*
X029541Y015283D01*
X029560Y015332D02*
X030045Y015332D01*
X030013Y015380D02*
X029592Y015380D01*
X029643Y015429D02*
X029962Y015429D01*
X029837Y015477D02*
X029768Y015477D01*
X029556Y015089D02*
X030049Y015089D01*
X030019Y015041D02*
X029586Y015041D01*
X029634Y014992D02*
X029971Y014992D01*
X029875Y014944D02*
X029730Y014944D01*
D11*
X032687Y015215D02*
X032689Y015263D01*
X032695Y015311D01*
X032705Y015358D01*
X032718Y015404D01*
X032736Y015449D01*
X032756Y015493D01*
X032781Y015535D01*
X032809Y015574D01*
X032839Y015611D01*
X032873Y015645D01*
X032910Y015677D01*
X032948Y015706D01*
X032989Y015731D01*
X033032Y015753D01*
X033077Y015771D01*
X033123Y015785D01*
X033170Y015796D01*
X033218Y015803D01*
X033266Y015806D01*
X033314Y015805D01*
X033362Y015800D01*
X033410Y015791D01*
X033456Y015779D01*
X033501Y015762D01*
X033545Y015742D01*
X033587Y015719D01*
X033627Y015692D01*
X033665Y015662D01*
X033700Y015629D01*
X033732Y015593D01*
X033762Y015555D01*
X033788Y015514D01*
X033810Y015471D01*
X033830Y015427D01*
X033845Y015382D01*
X033857Y015335D01*
X033865Y015287D01*
X033869Y015239D01*
X033869Y015191D01*
X033865Y015143D01*
X033857Y015095D01*
X033845Y015048D01*
X033830Y015003D01*
X033810Y014959D01*
X033788Y014916D01*
X033762Y014875D01*
X033732Y014837D01*
X033700Y014801D01*
X033665Y014768D01*
X033627Y014738D01*
X033587Y014711D01*
X033545Y014688D01*
X033501Y014668D01*
X033456Y014651D01*
X033410Y014639D01*
X033362Y014630D01*
X033314Y014625D01*
X033266Y014624D01*
X033218Y014627D01*
X033170Y014634D01*
X033123Y014645D01*
X033077Y014659D01*
X033032Y014677D01*
X032989Y014699D01*
X032948Y014724D01*
X032910Y014753D01*
X032873Y014785D01*
X032839Y014819D01*
X032809Y014856D01*
X032781Y014895D01*
X032756Y014937D01*
X032736Y014981D01*
X032718Y015026D01*
X032705Y015072D01*
X032695Y015119D01*
X032689Y015167D01*
X032687Y015215D01*
X013487Y005080D02*
X013489Y005120D01*
X013495Y005159D01*
X013505Y005198D01*
X013518Y005235D01*
X013536Y005271D01*
X013557Y005305D01*
X013581Y005337D01*
X013608Y005366D01*
X013638Y005393D01*
X013670Y005416D01*
X013705Y005436D01*
X013741Y005452D01*
X013779Y005465D01*
X013818Y005474D01*
X013857Y005479D01*
X013897Y005480D01*
X013937Y005477D01*
X013976Y005470D01*
X014014Y005459D01*
X014052Y005445D01*
X014087Y005426D01*
X014120Y005405D01*
X014152Y005380D01*
X014180Y005352D01*
X014206Y005322D01*
X014228Y005289D01*
X014247Y005254D01*
X014263Y005217D01*
X014275Y005179D01*
X014283Y005140D01*
X014287Y005100D01*
X014287Y005060D01*
X014283Y005020D01*
X014275Y004981D01*
X014263Y004943D01*
X014247Y004906D01*
X014228Y004871D01*
X014206Y004838D01*
X014180Y004808D01*
X014152Y004780D01*
X014120Y004755D01*
X014087Y004734D01*
X014052Y004715D01*
X014014Y004701D01*
X013976Y004690D01*
X013937Y004683D01*
X013897Y004680D01*
X013857Y004681D01*
X013818Y004686D01*
X013779Y004695D01*
X013741Y004708D01*
X013705Y004724D01*
X013670Y004744D01*
X013638Y004767D01*
X013608Y004794D01*
X013581Y004823D01*
X013557Y004855D01*
X013536Y004889D01*
X013518Y004925D01*
X013505Y004962D01*
X013495Y005001D01*
X013489Y005040D01*
X013487Y005080D01*
X011560Y004288D02*
X011562Y004318D01*
X011568Y004348D01*
X011577Y004377D01*
X011590Y004404D01*
X011607Y004429D01*
X011626Y004452D01*
X011649Y004473D01*
X011674Y004490D01*
X011700Y004504D01*
X011729Y004514D01*
X011758Y004521D01*
X011788Y004524D01*
X011819Y004523D01*
X011849Y004518D01*
X011878Y004509D01*
X011905Y004497D01*
X011931Y004482D01*
X011955Y004463D01*
X011976Y004441D01*
X011994Y004417D01*
X012009Y004390D01*
X012020Y004362D01*
X012028Y004333D01*
X012032Y004303D01*
X012032Y004273D01*
X012028Y004243D01*
X012020Y004214D01*
X012009Y004186D01*
X011994Y004159D01*
X011976Y004135D01*
X011955Y004113D01*
X011931Y004094D01*
X011905Y004079D01*
X011878Y004067D01*
X011849Y004058D01*
X011819Y004053D01*
X011788Y004052D01*
X011758Y004055D01*
X011729Y004062D01*
X011700Y004072D01*
X011674Y004086D01*
X011649Y004103D01*
X011626Y004124D01*
X011607Y004147D01*
X011590Y004172D01*
X011577Y004199D01*
X011568Y004228D01*
X011562Y004258D01*
X011560Y004288D01*
X009001Y004288D02*
X009003Y004318D01*
X009009Y004348D01*
X009018Y004377D01*
X009031Y004404D01*
X009048Y004429D01*
X009067Y004452D01*
X009090Y004473D01*
X009115Y004490D01*
X009141Y004504D01*
X009170Y004514D01*
X009199Y004521D01*
X009229Y004524D01*
X009260Y004523D01*
X009290Y004518D01*
X009319Y004509D01*
X009346Y004497D01*
X009372Y004482D01*
X009396Y004463D01*
X009417Y004441D01*
X009435Y004417D01*
X009450Y004390D01*
X009461Y004362D01*
X009469Y004333D01*
X009473Y004303D01*
X009473Y004273D01*
X009469Y004243D01*
X009461Y004214D01*
X009450Y004186D01*
X009435Y004159D01*
X009417Y004135D01*
X009396Y004113D01*
X009372Y004094D01*
X009346Y004079D01*
X009319Y004067D01*
X009290Y004058D01*
X009260Y004053D01*
X009229Y004052D01*
X009199Y004055D01*
X009170Y004062D01*
X009141Y004072D01*
X009115Y004086D01*
X009090Y004103D01*
X009067Y004124D01*
X009048Y004147D01*
X009031Y004172D01*
X009018Y004199D01*
X009009Y004228D01*
X009003Y004258D01*
X009001Y004288D01*
X007182Y005080D02*
X007184Y005120D01*
X007190Y005159D01*
X007200Y005198D01*
X007213Y005235D01*
X007231Y005271D01*
X007252Y005305D01*
X007276Y005337D01*
X007303Y005366D01*
X007333Y005393D01*
X007365Y005416D01*
X007400Y005436D01*
X007436Y005452D01*
X007474Y005465D01*
X007513Y005474D01*
X007552Y005479D01*
X007592Y005480D01*
X007632Y005477D01*
X007671Y005470D01*
X007709Y005459D01*
X007747Y005445D01*
X007782Y005426D01*
X007815Y005405D01*
X007847Y005380D01*
X007875Y005352D01*
X007901Y005322D01*
X007923Y005289D01*
X007942Y005254D01*
X007958Y005217D01*
X007970Y005179D01*
X007978Y005140D01*
X007982Y005100D01*
X007982Y005060D01*
X007978Y005020D01*
X007970Y004981D01*
X007958Y004943D01*
X007942Y004906D01*
X007923Y004871D01*
X007901Y004838D01*
X007875Y004808D01*
X007847Y004780D01*
X007815Y004755D01*
X007782Y004734D01*
X007747Y004715D01*
X007709Y004701D01*
X007671Y004690D01*
X007632Y004683D01*
X007592Y004680D01*
X007552Y004681D01*
X007513Y004686D01*
X007474Y004695D01*
X007436Y004708D01*
X007400Y004724D01*
X007365Y004744D01*
X007333Y004767D01*
X007303Y004794D01*
X007276Y004823D01*
X007252Y004855D01*
X007231Y004889D01*
X007213Y004925D01*
X007200Y004962D01*
X007190Y005001D01*
X007184Y005040D01*
X007182Y005080D01*
X001440Y002959D02*
X001442Y003007D01*
X001448Y003055D01*
X001458Y003102D01*
X001471Y003148D01*
X001489Y003193D01*
X001509Y003237D01*
X001534Y003279D01*
X001562Y003318D01*
X001592Y003355D01*
X001626Y003389D01*
X001663Y003421D01*
X001701Y003450D01*
X001742Y003475D01*
X001785Y003497D01*
X001830Y003515D01*
X001876Y003529D01*
X001923Y003540D01*
X001971Y003547D01*
X002019Y003550D01*
X002067Y003549D01*
X002115Y003544D01*
X002163Y003535D01*
X002209Y003523D01*
X002254Y003506D01*
X002298Y003486D01*
X002340Y003463D01*
X002380Y003436D01*
X002418Y003406D01*
X002453Y003373D01*
X002485Y003337D01*
X002515Y003299D01*
X002541Y003258D01*
X002563Y003215D01*
X002583Y003171D01*
X002598Y003126D01*
X002610Y003079D01*
X002618Y003031D01*
X002622Y002983D01*
X002622Y002935D01*
X002618Y002887D01*
X002610Y002839D01*
X002598Y002792D01*
X002583Y002747D01*
X002563Y002703D01*
X002541Y002660D01*
X002515Y002619D01*
X002485Y002581D01*
X002453Y002545D01*
X002418Y002512D01*
X002380Y002482D01*
X002340Y002455D01*
X002298Y002432D01*
X002254Y002412D01*
X002209Y002395D01*
X002163Y002383D01*
X002115Y002374D01*
X002067Y002369D01*
X002019Y002368D01*
X001971Y002371D01*
X001923Y002378D01*
X001876Y002389D01*
X001830Y002403D01*
X001785Y002421D01*
X001742Y002443D01*
X001701Y002468D01*
X001663Y002497D01*
X001626Y002529D01*
X001592Y002563D01*
X001562Y002600D01*
X001534Y002639D01*
X001509Y002681D01*
X001489Y002725D01*
X001471Y002770D01*
X001458Y002816D01*
X001448Y002863D01*
X001442Y002911D01*
X001440Y002959D01*
X015454Y004643D02*
X015456Y004665D01*
X015462Y004687D01*
X015471Y004707D01*
X015484Y004725D01*
X015500Y004741D01*
X015518Y004754D01*
X015538Y004763D01*
X015560Y004769D01*
X015582Y004771D01*
X015604Y004769D01*
X015626Y004763D01*
X015646Y004754D01*
X015664Y004741D01*
X015680Y004725D01*
X015693Y004707D01*
X015702Y004687D01*
X015708Y004665D01*
X015710Y004643D01*
X015708Y004621D01*
X015702Y004599D01*
X015693Y004579D01*
X015680Y004561D01*
X015664Y004545D01*
X015646Y004532D01*
X015626Y004523D01*
X015604Y004517D01*
X015582Y004515D01*
X015560Y004517D01*
X015538Y004523D01*
X015518Y004532D01*
X015500Y004545D01*
X015484Y004561D01*
X015471Y004579D01*
X015462Y004599D01*
X015456Y004621D01*
X015454Y004643D01*
X017729Y004643D02*
X017731Y004665D01*
X017737Y004687D01*
X017746Y004707D01*
X017759Y004725D01*
X017775Y004741D01*
X017793Y004754D01*
X017813Y004763D01*
X017835Y004769D01*
X017857Y004771D01*
X017879Y004769D01*
X017901Y004763D01*
X017921Y004754D01*
X017939Y004741D01*
X017955Y004725D01*
X017968Y004707D01*
X017977Y004687D01*
X017983Y004665D01*
X017985Y004643D01*
X017983Y004621D01*
X017977Y004599D01*
X017968Y004579D01*
X017955Y004561D01*
X017939Y004545D01*
X017921Y004532D01*
X017901Y004523D01*
X017879Y004517D01*
X017857Y004515D01*
X017835Y004517D01*
X017813Y004523D01*
X017793Y004532D01*
X017775Y004545D01*
X017759Y004561D01*
X017746Y004579D01*
X017737Y004599D01*
X017731Y004621D01*
X017729Y004643D01*
X032687Y002959D02*
X032689Y003007D01*
X032695Y003055D01*
X032705Y003102D01*
X032718Y003148D01*
X032736Y003193D01*
X032756Y003237D01*
X032781Y003279D01*
X032809Y003318D01*
X032839Y003355D01*
X032873Y003389D01*
X032910Y003421D01*
X032948Y003450D01*
X032989Y003475D01*
X033032Y003497D01*
X033077Y003515D01*
X033123Y003529D01*
X033170Y003540D01*
X033218Y003547D01*
X033266Y003550D01*
X033314Y003549D01*
X033362Y003544D01*
X033410Y003535D01*
X033456Y003523D01*
X033501Y003506D01*
X033545Y003486D01*
X033587Y003463D01*
X033627Y003436D01*
X033665Y003406D01*
X033700Y003373D01*
X033732Y003337D01*
X033762Y003299D01*
X033788Y003258D01*
X033810Y003215D01*
X033830Y003171D01*
X033845Y003126D01*
X033857Y003079D01*
X033865Y003031D01*
X033869Y002983D01*
X033869Y002935D01*
X033865Y002887D01*
X033857Y002839D01*
X033845Y002792D01*
X033830Y002747D01*
X033810Y002703D01*
X033788Y002660D01*
X033762Y002619D01*
X033732Y002581D01*
X033700Y002545D01*
X033665Y002512D01*
X033627Y002482D01*
X033587Y002455D01*
X033545Y002432D01*
X033501Y002412D01*
X033456Y002395D01*
X033410Y002383D01*
X033362Y002374D01*
X033314Y002369D01*
X033266Y002368D01*
X033218Y002371D01*
X033170Y002378D01*
X033123Y002389D01*
X033077Y002403D01*
X033032Y002421D01*
X032989Y002443D01*
X032948Y002468D01*
X032910Y002497D01*
X032873Y002529D01*
X032839Y002563D01*
X032809Y002600D01*
X032781Y002639D01*
X032756Y002681D01*
X032736Y002725D01*
X032718Y002770D01*
X032705Y002816D01*
X032695Y002863D01*
X032689Y002911D01*
X032687Y002959D01*
X001440Y015215D02*
X001442Y015263D01*
X001448Y015311D01*
X001458Y015358D01*
X001471Y015404D01*
X001489Y015449D01*
X001509Y015493D01*
X001534Y015535D01*
X001562Y015574D01*
X001592Y015611D01*
X001626Y015645D01*
X001663Y015677D01*
X001701Y015706D01*
X001742Y015731D01*
X001785Y015753D01*
X001830Y015771D01*
X001876Y015785D01*
X001923Y015796D01*
X001971Y015803D01*
X002019Y015806D01*
X002067Y015805D01*
X002115Y015800D01*
X002163Y015791D01*
X002209Y015779D01*
X002254Y015762D01*
X002298Y015742D01*
X002340Y015719D01*
X002380Y015692D01*
X002418Y015662D01*
X002453Y015629D01*
X002485Y015593D01*
X002515Y015555D01*
X002541Y015514D01*
X002563Y015471D01*
X002583Y015427D01*
X002598Y015382D01*
X002610Y015335D01*
X002618Y015287D01*
X002622Y015239D01*
X002622Y015191D01*
X002618Y015143D01*
X002610Y015095D01*
X002598Y015048D01*
X002583Y015003D01*
X002563Y014959D01*
X002541Y014916D01*
X002515Y014875D01*
X002485Y014837D01*
X002453Y014801D01*
X002418Y014768D01*
X002380Y014738D01*
X002340Y014711D01*
X002298Y014688D01*
X002254Y014668D01*
X002209Y014651D01*
X002163Y014639D01*
X002115Y014630D01*
X002067Y014625D01*
X002019Y014624D01*
X001971Y014627D01*
X001923Y014634D01*
X001876Y014645D01*
X001830Y014659D01*
X001785Y014677D01*
X001742Y014699D01*
X001701Y014724D01*
X001663Y014753D01*
X001626Y014785D01*
X001592Y014819D01*
X001562Y014856D01*
X001534Y014895D01*
X001509Y014937D01*
X001489Y014981D01*
X001471Y015026D01*
X001458Y015072D01*
X001448Y015119D01*
X001442Y015167D01*
X001440Y015215D01*
D12*
X002031Y015215D03*
X002031Y002959D03*
X033278Y002959D03*
X033278Y015215D03*
D13*
X019557Y001627D03*
X013820Y001627D03*
D14*
X028802Y005377D03*
D15*
X004202Y011727D03*
D16*
X031202Y013127D03*
D17*
X004177Y004177D03*
D18*
X014944Y012305D03*
X014944Y012752D03*
X019884Y011038D03*
X020284Y011038D03*
X020684Y011038D03*
X021084Y011038D03*
X021084Y010592D03*
X020684Y010592D03*
X020284Y010592D03*
X019884Y010592D03*
X019358Y008195D03*
X019358Y007749D03*
X019358Y007295D03*
X019358Y006849D03*
X019358Y006405D03*
X019358Y005958D03*
D19*
X019974Y005249D03*
X020421Y005249D03*
X020421Y004823D03*
X019974Y004823D03*
X020868Y004823D03*
X021315Y004823D03*
X021315Y005249D03*
X020868Y005249D03*
X019624Y003789D03*
X019178Y003789D03*
X019178Y003379D03*
X019624Y003379D03*
X029323Y007432D03*
X029770Y007432D03*
X029770Y007792D03*
X029323Y007792D03*
X029323Y008152D03*
X029770Y008152D03*
X029770Y008512D03*
X029323Y008512D03*
X024859Y010477D03*
X024412Y010477D03*
X024412Y010888D03*
X024859Y010888D03*
X020189Y012047D03*
X019742Y012047D03*
X019289Y012047D03*
X018842Y012047D03*
X018389Y012047D03*
X018389Y011616D03*
X018842Y011616D03*
X019289Y011616D03*
X018389Y011190D03*
X017942Y011190D03*
X017942Y011616D03*
X017942Y012047D03*
X012628Y010927D03*
X012182Y010927D03*
X011728Y010927D03*
X011282Y010927D03*
D20*
X030746Y008502D03*
X030746Y007702D03*
D21*
X012353Y013747D03*
X011959Y013747D03*
D22*
X011347Y014792D03*
X012964Y014792D03*
D23*
X023509Y012627D03*
X024219Y012627D03*
X025493Y012477D03*
X026203Y012477D03*
D24*
X022609Y014813D03*
X021709Y014813D03*
D25*
X015645Y010512D03*
X015205Y010512D03*
D26*
X025610Y010988D03*
X025610Y011362D03*
X025610Y011736D03*
X026634Y011736D03*
X026634Y011362D03*
X026634Y010988D03*
D27*
X024859Y011827D03*
X023569Y011827D03*
X012600Y011577D03*
X011310Y011577D03*
D28*
X024887Y013712D03*
X026284Y013712D03*
D29*
X018742Y008080D03*
X018486Y008080D03*
X018230Y008080D03*
X017974Y008080D03*
X017974Y006347D03*
X018230Y006347D03*
X018486Y006347D03*
X018742Y006347D03*
D30*
X019970Y006301D03*
X019970Y005754D03*
X019972Y006854D03*
X019972Y007401D03*
X019972Y007954D03*
X019972Y008501D03*
X014341Y012255D03*
X014341Y012802D03*
D31*
X016308Y008177D03*
X017158Y008177D03*
X017158Y007467D03*
X016308Y007467D03*
X016308Y006777D03*
X017158Y006777D03*
X017158Y006067D03*
X016308Y006067D03*
D32*
X015232Y006746D03*
X014484Y006746D03*
X014858Y005889D03*
X012329Y012254D03*
X011581Y012254D03*
X011955Y013110D03*
D33*
X014369Y013355D03*
X014915Y013355D03*
X016872Y011289D03*
X017418Y011289D03*
X023441Y013612D03*
X023988Y013612D03*
D34*
X019909Y013538D03*
X019909Y014038D03*
X019909Y013038D03*
X019909Y012538D03*
X017822Y012538D03*
X017822Y013038D03*
X017822Y013538D03*
X017822Y014038D03*
D35*
X018866Y013288D03*
D36*
X016292Y013660D03*
X016292Y012262D03*
D37*
X007936Y010696D03*
X006936Y010696D03*
X005936Y010696D03*
X007582Y005080D03*
X013887Y005080D03*
X021759Y006926D03*
X022759Y006926D03*
X023759Y006926D03*
D38*
X011796Y004288D03*
X009237Y004288D03*
D39*
X010415Y003855D02*
X010815Y003855D01*
X012347Y004797D02*
X012347Y005197D01*
X012033Y005663D02*
X012033Y006063D01*
X011245Y006844D02*
X011245Y007244D01*
X009985Y007244D02*
X009985Y006844D01*
X009395Y006457D02*
X009395Y006057D01*
X008725Y005473D02*
X008725Y005073D01*
X008883Y006844D02*
X008883Y007244D01*
D40*
X006804Y004374D03*
X006804Y003981D03*
D41*
X005760Y003369D03*
X005760Y004986D03*
D42*
X008936Y010696D03*
X024759Y006926D03*
D43*
X017409Y005143D03*
X017212Y005143D03*
X017015Y005143D03*
X016818Y005143D03*
X016621Y005143D03*
X016424Y005143D03*
X016228Y005143D03*
X016031Y005143D03*
D44*
X015755Y005143D03*
X015450Y005143D03*
X017684Y005143D03*
X017989Y005143D03*
D45*
X017857Y004643D03*
X015582Y004643D03*
D46*
X015255Y004644D02*
X014783Y004644D01*
X014783Y004642D02*
X015255Y004642D01*
X015255Y004639D02*
X014783Y004639D01*
X014783Y004637D02*
X015255Y004637D01*
X015255Y004634D02*
X014783Y004634D01*
X014783Y004632D02*
X015255Y004632D01*
X015255Y004630D02*
X014783Y004630D01*
X014783Y004627D02*
X015255Y004627D01*
X015255Y004625D02*
X014783Y004625D01*
X014783Y004622D02*
X015255Y004622D01*
X015255Y004620D02*
X014783Y004620D01*
X014783Y004617D02*
X015255Y004617D01*
X015255Y004615D02*
X014783Y004615D01*
X014783Y004614D02*
X014791Y004564D01*
X015247Y004564D01*
X015228Y004517D01*
X015199Y004475D01*
X015162Y004441D01*
X015118Y004417D01*
X015069Y004402D01*
X015019Y004399D01*
X014968Y004402D01*
X014920Y004417D01*
X014876Y004441D01*
X014839Y004475D01*
X014810Y004517D01*
X014791Y004564D01*
X014790Y004566D02*
X015247Y004566D01*
X015247Y004564D02*
X015255Y004614D01*
X015255Y005086D01*
X015247Y005136D01*
X015229Y005184D01*
X015200Y005226D01*
X015163Y005260D01*
X015118Y005286D01*
X015070Y005301D01*
X015019Y005305D01*
X014974Y005302D01*
X014931Y005291D01*
X014891Y005271D01*
X014856Y005244D01*
X014826Y005211D01*
X014803Y005172D01*
X014789Y005130D01*
X014783Y005086D01*
X014783Y004614D01*
X014783Y004613D02*
X015255Y004613D01*
X015255Y004610D02*
X014783Y004610D01*
X014784Y004608D02*
X015254Y004608D01*
X015254Y004605D02*
X014784Y004605D01*
X014784Y004603D02*
X015253Y004603D01*
X015253Y004600D02*
X014785Y004600D01*
X014785Y004598D02*
X015253Y004598D01*
X015252Y004595D02*
X014786Y004595D01*
X014786Y004593D02*
X015252Y004593D01*
X015251Y004591D02*
X014786Y004591D01*
X014787Y004588D02*
X015251Y004588D01*
X015251Y004586D02*
X014787Y004586D01*
X014788Y004583D02*
X015250Y004583D01*
X015250Y004581D02*
X014788Y004581D01*
X014788Y004578D02*
X015249Y004578D01*
X015249Y004576D02*
X014789Y004576D01*
X014789Y004574D02*
X015249Y004574D01*
X015248Y004571D02*
X014790Y004571D01*
X014790Y004569D02*
X015248Y004569D01*
X015246Y004561D02*
X014792Y004561D01*
X014793Y004559D02*
X015245Y004559D01*
X015244Y004556D02*
X014794Y004556D01*
X014795Y004554D02*
X015243Y004554D01*
X015242Y004552D02*
X014796Y004552D01*
X014797Y004549D02*
X015241Y004549D01*
X015240Y004547D02*
X014798Y004547D01*
X014799Y004544D02*
X015239Y004544D01*
X015238Y004542D02*
X014800Y004542D01*
X014801Y004539D02*
X015237Y004539D01*
X015236Y004537D02*
X014802Y004537D01*
X014803Y004535D02*
X015235Y004535D01*
X015234Y004532D02*
X014804Y004532D01*
X014805Y004530D02*
X015233Y004530D01*
X015232Y004527D02*
X014806Y004527D01*
X014807Y004525D02*
X015231Y004525D01*
X015230Y004522D02*
X014807Y004522D01*
X014808Y004520D02*
X015229Y004520D01*
X015228Y004517D02*
X014809Y004517D01*
X014811Y004515D02*
X015227Y004515D01*
X015225Y004513D02*
X014813Y004513D01*
X014814Y004510D02*
X015223Y004510D01*
X015222Y004508D02*
X014816Y004508D01*
X014818Y004505D02*
X015220Y004505D01*
X015218Y004503D02*
X014819Y004503D01*
X014821Y004500D02*
X015217Y004500D01*
X015215Y004498D02*
X014823Y004498D01*
X014825Y004496D02*
X015213Y004496D01*
X015212Y004493D02*
X014826Y004493D01*
X014828Y004491D02*
X015210Y004491D01*
X015208Y004488D02*
X014830Y004488D01*
X014831Y004486D02*
X015206Y004486D01*
X015205Y004483D02*
X014833Y004483D01*
X014835Y004481D02*
X015203Y004481D01*
X015201Y004478D02*
X014836Y004478D01*
X014838Y004476D02*
X015200Y004476D01*
X015197Y004474D02*
X014841Y004474D01*
X014843Y004471D02*
X015194Y004471D01*
X015192Y004469D02*
X014846Y004469D01*
X014849Y004466D02*
X015189Y004466D01*
X015186Y004464D02*
X014851Y004464D01*
X014854Y004461D02*
X015184Y004461D01*
X015181Y004459D02*
X014857Y004459D01*
X014859Y004457D02*
X015178Y004457D01*
X015176Y004454D02*
X014862Y004454D01*
X014865Y004452D02*
X015173Y004452D01*
X015170Y004449D02*
X014867Y004449D01*
X014870Y004447D02*
X015168Y004447D01*
X015165Y004444D02*
X014873Y004444D01*
X014876Y004442D02*
X015162Y004442D01*
X015158Y004439D02*
X014880Y004439D01*
X014884Y004437D02*
X015154Y004437D01*
X015150Y004435D02*
X014888Y004435D01*
X014893Y004432D02*
X015145Y004432D01*
X015141Y004430D02*
X014897Y004430D01*
X014901Y004427D02*
X015137Y004427D01*
X015132Y004425D02*
X014906Y004425D01*
X014910Y004422D02*
X015128Y004422D01*
X015124Y004420D02*
X014914Y004420D01*
X014918Y004418D02*
X015119Y004418D01*
X015112Y004415D02*
X014925Y004415D01*
X014934Y004413D02*
X015104Y004413D01*
X015096Y004410D02*
X014942Y004410D01*
X014950Y004408D02*
X015088Y004408D01*
X015080Y004405D02*
X014958Y004405D01*
X014966Y004403D02*
X015071Y004403D01*
X015041Y004400D02*
X014997Y004400D01*
X014783Y004647D02*
X015255Y004647D01*
X015255Y004649D02*
X014783Y004649D01*
X014783Y004652D02*
X015255Y004652D01*
X015255Y004654D02*
X014783Y004654D01*
X014783Y004656D02*
X015255Y004656D01*
X015255Y004659D02*
X014783Y004659D01*
X014783Y004661D02*
X015255Y004661D01*
X015255Y004664D02*
X014783Y004664D01*
X014783Y004666D02*
X015255Y004666D01*
X015255Y004669D02*
X014783Y004669D01*
X014783Y004671D02*
X015255Y004671D01*
X015255Y004673D02*
X014783Y004673D01*
X014783Y004676D02*
X015255Y004676D01*
X015255Y004678D02*
X014783Y004678D01*
X014783Y004681D02*
X015255Y004681D01*
X015255Y004683D02*
X014783Y004683D01*
X014783Y004686D02*
X015255Y004686D01*
X015255Y004688D02*
X014783Y004688D01*
X014783Y004691D02*
X015255Y004691D01*
X015255Y004693D02*
X014783Y004693D01*
X014783Y004695D02*
X015255Y004695D01*
X015255Y004698D02*
X014783Y004698D01*
X014783Y004700D02*
X015255Y004700D01*
X015255Y004703D02*
X014783Y004703D01*
X014783Y004705D02*
X015255Y004705D01*
X015255Y004708D02*
X014783Y004708D01*
X014783Y004710D02*
X015255Y004710D01*
X015255Y004712D02*
X014783Y004712D01*
X014783Y004715D02*
X015255Y004715D01*
X015255Y004717D02*
X014783Y004717D01*
X014783Y004720D02*
X015255Y004720D01*
X015255Y004722D02*
X014783Y004722D01*
X014783Y004725D02*
X015255Y004725D01*
X015255Y004727D02*
X014783Y004727D01*
X014783Y004730D02*
X015255Y004730D01*
X015255Y004732D02*
X014783Y004732D01*
X014783Y004734D02*
X015255Y004734D01*
X015255Y004737D02*
X014783Y004737D01*
X014783Y004739D02*
X015255Y004739D01*
X015255Y004742D02*
X014783Y004742D01*
X014783Y004744D02*
X015255Y004744D01*
X015255Y004747D02*
X014783Y004747D01*
X014783Y004749D02*
X015255Y004749D01*
X015255Y004751D02*
X014783Y004751D01*
X014783Y004754D02*
X015255Y004754D01*
X015255Y004756D02*
X014783Y004756D01*
X014783Y004759D02*
X015255Y004759D01*
X015255Y004761D02*
X014783Y004761D01*
X014783Y004764D02*
X015255Y004764D01*
X015255Y004766D02*
X014783Y004766D01*
X014783Y004769D02*
X015255Y004769D01*
X015255Y004771D02*
X014783Y004771D01*
X014783Y004773D02*
X015255Y004773D01*
X015255Y004776D02*
X014783Y004776D01*
X014783Y004778D02*
X015255Y004778D01*
X015255Y004781D02*
X014783Y004781D01*
X014783Y004783D02*
X015255Y004783D01*
X015255Y004786D02*
X014783Y004786D01*
X014783Y004788D02*
X015255Y004788D01*
X015255Y004790D02*
X014783Y004790D01*
X014783Y004793D02*
X015255Y004793D01*
X015255Y004795D02*
X014783Y004795D01*
X014783Y004798D02*
X015255Y004798D01*
X015255Y004800D02*
X014783Y004800D01*
X014783Y004803D02*
X015255Y004803D01*
X015255Y004805D02*
X014783Y004805D01*
X014783Y004808D02*
X015255Y004808D01*
X015255Y004810D02*
X014783Y004810D01*
X014783Y004812D02*
X015255Y004812D01*
X015255Y004815D02*
X014783Y004815D01*
X014783Y004817D02*
X015255Y004817D01*
X015255Y004820D02*
X014783Y004820D01*
X014783Y004822D02*
X015255Y004822D01*
X015255Y004825D02*
X014783Y004825D01*
X014783Y004827D02*
X015255Y004827D01*
X015255Y004829D02*
X014783Y004829D01*
X014783Y004832D02*
X015255Y004832D01*
X015255Y004834D02*
X014783Y004834D01*
X014783Y004837D02*
X015255Y004837D01*
X015255Y004839D02*
X014783Y004839D01*
X014783Y004842D02*
X015255Y004842D01*
X015255Y004844D02*
X014783Y004844D01*
X014783Y004847D02*
X015255Y004847D01*
X015255Y004849D02*
X014783Y004849D01*
X014783Y004851D02*
X015255Y004851D01*
X015255Y004854D02*
X014783Y004854D01*
X014783Y004856D02*
X015255Y004856D01*
X015255Y004859D02*
X014783Y004859D01*
X014783Y004861D02*
X015255Y004861D01*
X015255Y004864D02*
X014783Y004864D01*
X014783Y004866D02*
X015255Y004866D01*
X015255Y004868D02*
X014783Y004868D01*
X014783Y004871D02*
X015255Y004871D01*
X015255Y004873D02*
X014783Y004873D01*
X014783Y004876D02*
X015255Y004876D01*
X015255Y004878D02*
X014783Y004878D01*
X014783Y004881D02*
X015255Y004881D01*
X015255Y004883D02*
X014783Y004883D01*
X014783Y004886D02*
X015255Y004886D01*
X015255Y004888D02*
X014783Y004888D01*
X014783Y004890D02*
X015255Y004890D01*
X015255Y004893D02*
X014783Y004893D01*
X014783Y004895D02*
X015255Y004895D01*
X015255Y004898D02*
X014783Y004898D01*
X014783Y004900D02*
X015255Y004900D01*
X015255Y004903D02*
X014783Y004903D01*
X014783Y004905D02*
X015255Y004905D01*
X015255Y004907D02*
X014783Y004907D01*
X014783Y004910D02*
X015255Y004910D01*
X015255Y004912D02*
X014783Y004912D01*
X014783Y004915D02*
X015255Y004915D01*
X015255Y004917D02*
X014783Y004917D01*
X014783Y004920D02*
X015255Y004920D01*
X015255Y004922D02*
X014783Y004922D01*
X014783Y004924D02*
X015255Y004924D01*
X015255Y004927D02*
X014783Y004927D01*
X014783Y004929D02*
X015255Y004929D01*
X015255Y004932D02*
X014783Y004932D01*
X014783Y004934D02*
X015255Y004934D01*
X015255Y004937D02*
X014783Y004937D01*
X014783Y004939D02*
X015255Y004939D01*
X015255Y004942D02*
X014783Y004942D01*
X014783Y004944D02*
X015255Y004944D01*
X015255Y004946D02*
X014783Y004946D01*
X014783Y004949D02*
X015255Y004949D01*
X015255Y004951D02*
X014783Y004951D01*
X014783Y004954D02*
X015255Y004954D01*
X015255Y004956D02*
X014783Y004956D01*
X014783Y004959D02*
X015255Y004959D01*
X015255Y004961D02*
X014783Y004961D01*
X014783Y004963D02*
X015255Y004963D01*
X015255Y004966D02*
X014783Y004966D01*
X014783Y004968D02*
X015255Y004968D01*
X015255Y004971D02*
X014783Y004971D01*
X014783Y004973D02*
X015255Y004973D01*
X015255Y004976D02*
X014783Y004976D01*
X014783Y004978D02*
X015255Y004978D01*
X015255Y004981D02*
X014783Y004981D01*
X014783Y004983D02*
X015255Y004983D01*
X015255Y004985D02*
X014783Y004985D01*
X014783Y004988D02*
X015255Y004988D01*
X015255Y004990D02*
X014783Y004990D01*
X014783Y004993D02*
X015255Y004993D01*
X015255Y004995D02*
X014783Y004995D01*
X014783Y004998D02*
X015255Y004998D01*
X015255Y005000D02*
X014783Y005000D01*
X014783Y005002D02*
X015255Y005002D01*
X015255Y005005D02*
X014783Y005005D01*
X014783Y005007D02*
X015255Y005007D01*
X015255Y005010D02*
X014783Y005010D01*
X014783Y005012D02*
X015255Y005012D01*
X015255Y005015D02*
X014783Y005015D01*
X014783Y005017D02*
X015255Y005017D01*
X015255Y005020D02*
X014783Y005020D01*
X014783Y005022D02*
X015255Y005022D01*
X015255Y005024D02*
X014783Y005024D01*
X014783Y005027D02*
X015255Y005027D01*
X015255Y005029D02*
X014783Y005029D01*
X014783Y005032D02*
X015255Y005032D01*
X015255Y005034D02*
X014783Y005034D01*
X014783Y005037D02*
X015255Y005037D01*
X015255Y005039D02*
X014783Y005039D01*
X014783Y005041D02*
X015255Y005041D01*
X015255Y005044D02*
X014783Y005044D01*
X014783Y005046D02*
X015255Y005046D01*
X015255Y005049D02*
X014783Y005049D01*
X014783Y005051D02*
X015255Y005051D01*
X015255Y005054D02*
X014783Y005054D01*
X014783Y005056D02*
X015255Y005056D01*
X015255Y005059D02*
X014783Y005059D01*
X014783Y005061D02*
X015255Y005061D01*
X015255Y005063D02*
X014783Y005063D01*
X014783Y005066D02*
X015255Y005066D01*
X015255Y005068D02*
X014783Y005068D01*
X014783Y005071D02*
X015255Y005071D01*
X015255Y005073D02*
X014783Y005073D01*
X014783Y005076D02*
X015255Y005076D01*
X015255Y005078D02*
X014783Y005078D01*
X014783Y005080D02*
X015255Y005080D01*
X015255Y005083D02*
X014783Y005083D01*
X014783Y005085D02*
X015255Y005085D01*
X015255Y005088D02*
X014783Y005088D01*
X014783Y005090D02*
X015254Y005090D01*
X015254Y005093D02*
X014784Y005093D01*
X014784Y005095D02*
X015254Y005095D01*
X015253Y005098D02*
X014784Y005098D01*
X014785Y005100D02*
X015253Y005100D01*
X015253Y005102D02*
X014785Y005102D01*
X014785Y005105D02*
X015252Y005105D01*
X015252Y005107D02*
X014786Y005107D01*
X014786Y005110D02*
X015252Y005110D01*
X015251Y005112D02*
X014786Y005112D01*
X014787Y005115D02*
X015251Y005115D01*
X015250Y005117D02*
X014787Y005117D01*
X014787Y005119D02*
X015250Y005119D01*
X015250Y005122D02*
X014788Y005122D01*
X014788Y005124D02*
X015249Y005124D01*
X015249Y005127D02*
X014788Y005127D01*
X014789Y005129D02*
X015249Y005129D01*
X015248Y005132D02*
X014789Y005132D01*
X014790Y005134D02*
X015248Y005134D01*
X015247Y005137D02*
X014791Y005137D01*
X014792Y005139D02*
X015246Y005139D01*
X015245Y005141D02*
X014793Y005141D01*
X014793Y005144D02*
X015245Y005144D01*
X015244Y005146D02*
X014794Y005146D01*
X014795Y005149D02*
X015243Y005149D01*
X015242Y005151D02*
X014796Y005151D01*
X014797Y005154D02*
X015241Y005154D01*
X015240Y005156D02*
X014798Y005156D01*
X014799Y005158D02*
X015239Y005158D01*
X015238Y005161D02*
X014799Y005161D01*
X014800Y005163D02*
X015237Y005163D01*
X015236Y005166D02*
X014801Y005166D01*
X014802Y005168D02*
X015235Y005168D01*
X015234Y005171D02*
X014803Y005171D01*
X014804Y005173D02*
X015233Y005173D01*
X015232Y005176D02*
X014805Y005176D01*
X014807Y005178D02*
X015231Y005178D01*
X015230Y005180D02*
X014808Y005180D01*
X014809Y005183D02*
X015229Y005183D01*
X015228Y005185D02*
X014811Y005185D01*
X014812Y005188D02*
X015226Y005188D01*
X015224Y005190D02*
X014814Y005190D01*
X014815Y005193D02*
X015223Y005193D01*
X015221Y005195D02*
X014817Y005195D01*
X014818Y005197D02*
X015219Y005197D01*
X015218Y005200D02*
X014819Y005200D01*
X014821Y005202D02*
X015216Y005202D01*
X015214Y005205D02*
X014822Y005205D01*
X014824Y005207D02*
X015213Y005207D01*
X015211Y005210D02*
X014825Y005210D01*
X014827Y005212D02*
X015209Y005212D01*
X015208Y005215D02*
X014829Y005215D01*
X014831Y005217D02*
X015206Y005217D01*
X015204Y005219D02*
X014833Y005219D01*
X014836Y005222D02*
X015203Y005222D01*
X015201Y005224D02*
X014838Y005224D01*
X014840Y005227D02*
X015199Y005227D01*
X015196Y005229D02*
X014842Y005229D01*
X014844Y005232D02*
X015194Y005232D01*
X015191Y005234D02*
X014846Y005234D01*
X014849Y005236D02*
X015189Y005236D01*
X015186Y005239D02*
X014851Y005239D01*
X014853Y005241D02*
X015183Y005241D01*
X015181Y005244D02*
X014855Y005244D01*
X014858Y005246D02*
X015178Y005246D01*
X015175Y005249D02*
X014861Y005249D01*
X014865Y005251D02*
X015173Y005251D01*
X015170Y005254D02*
X014868Y005254D01*
X014871Y005256D02*
X015167Y005256D01*
X015165Y005258D02*
X014874Y005258D01*
X014877Y005261D02*
X015162Y005261D01*
X015158Y005263D02*
X014881Y005263D01*
X014884Y005266D02*
X015154Y005266D01*
X015149Y005268D02*
X014887Y005268D01*
X014890Y005271D02*
X015145Y005271D01*
X015141Y005273D02*
X014895Y005273D01*
X014900Y005275D02*
X015137Y005275D01*
X015132Y005278D02*
X014905Y005278D01*
X014910Y005280D02*
X015128Y005280D01*
X015124Y005283D02*
X014915Y005283D01*
X014920Y005285D02*
X015120Y005285D01*
X015113Y005288D02*
X014925Y005288D01*
X014930Y005290D02*
X015105Y005290D01*
X015097Y005293D02*
X014938Y005293D01*
X014948Y005295D02*
X015089Y005295D01*
X015081Y005297D02*
X014957Y005297D01*
X014966Y005300D02*
X015073Y005300D01*
X015050Y005302D02*
X014980Y005302D01*
X015019Y003560D02*
X015065Y003556D01*
X015110Y003542D01*
X015151Y003520D01*
X015186Y003490D01*
X015216Y003454D01*
X015237Y003413D01*
X015251Y003369D01*
X015255Y003322D01*
X015255Y003086D01*
X015250Y003040D01*
X015237Y002996D01*
X015215Y002956D01*
X015186Y002920D01*
X015150Y002891D01*
X015109Y002869D01*
X015065Y002856D01*
X015019Y002852D01*
X014967Y002857D01*
X014917Y002875D01*
X014872Y002903D01*
X014835Y002940D01*
X014806Y002984D01*
X014789Y003034D01*
X014783Y003086D01*
X014783Y003322D01*
X014788Y003375D01*
X014806Y003425D01*
X014834Y003470D01*
X014871Y003508D01*
X014916Y003537D01*
X014966Y003554D01*
X015019Y003560D01*
X015012Y003560D02*
X015027Y003560D01*
X015051Y003557D02*
X014991Y003557D01*
X014970Y003555D02*
X015068Y003555D01*
X015076Y003552D02*
X014961Y003552D01*
X014954Y003550D02*
X015084Y003550D01*
X015092Y003547D02*
X014947Y003547D01*
X014940Y003545D02*
X015100Y003545D01*
X015108Y003543D02*
X014933Y003543D01*
X014926Y003540D02*
X015113Y003540D01*
X015118Y003538D02*
X014919Y003538D01*
X014914Y003535D02*
X015122Y003535D01*
X015127Y003533D02*
X014910Y003533D01*
X014906Y003530D02*
X015131Y003530D01*
X015136Y003528D02*
X014903Y003528D01*
X014899Y003526D02*
X015140Y003526D01*
X015145Y003523D02*
X014895Y003523D01*
X014891Y003521D02*
X015149Y003521D01*
X015153Y003518D02*
X014887Y003518D01*
X014883Y003516D02*
X015156Y003516D01*
X015159Y003513D02*
X014879Y003513D01*
X014876Y003511D02*
X015161Y003511D01*
X015164Y003508D02*
X014872Y003508D01*
X014869Y003506D02*
X015167Y003506D01*
X015170Y003504D02*
X014867Y003504D01*
X014864Y003501D02*
X015173Y003501D01*
X015176Y003499D02*
X014862Y003499D01*
X014859Y003496D02*
X015179Y003496D01*
X015182Y003494D02*
X014857Y003494D01*
X014855Y003491D02*
X015185Y003491D01*
X015187Y003489D02*
X014852Y003489D01*
X014850Y003487D02*
X015189Y003487D01*
X015191Y003484D02*
X014847Y003484D01*
X014845Y003482D02*
X015193Y003482D01*
X015195Y003479D02*
X014843Y003479D01*
X014840Y003477D02*
X015197Y003477D01*
X015199Y003474D02*
X014838Y003474D01*
X014835Y003472D02*
X015201Y003472D01*
X015203Y003469D02*
X014833Y003469D01*
X014832Y003467D02*
X015205Y003467D01*
X015207Y003465D02*
X014830Y003465D01*
X014829Y003462D02*
X015209Y003462D01*
X015211Y003460D02*
X014827Y003460D01*
X014826Y003457D02*
X015213Y003457D01*
X015215Y003455D02*
X014824Y003455D01*
X014823Y003452D02*
X015217Y003452D01*
X015218Y003450D02*
X014821Y003450D01*
X014820Y003448D02*
X015219Y003448D01*
X015221Y003445D02*
X014818Y003445D01*
X014817Y003443D02*
X015222Y003443D01*
X015223Y003440D02*
X014815Y003440D01*
X014814Y003438D02*
X015224Y003438D01*
X015226Y003435D02*
X014812Y003435D01*
X014810Y003433D02*
X015227Y003433D01*
X015228Y003430D02*
X014809Y003430D01*
X014807Y003428D02*
X015230Y003428D01*
X015231Y003426D02*
X014806Y003426D01*
X014805Y003423D02*
X015232Y003423D01*
X015233Y003421D02*
X014804Y003421D01*
X014803Y003418D02*
X015235Y003418D01*
X015236Y003416D02*
X014802Y003416D01*
X014802Y003413D02*
X015237Y003413D01*
X015238Y003411D02*
X014801Y003411D01*
X014800Y003409D02*
X015239Y003409D01*
X015240Y003406D02*
X014799Y003406D01*
X014798Y003404D02*
X015240Y003404D01*
X015241Y003401D02*
X014797Y003401D01*
X014797Y003399D02*
X015242Y003399D01*
X015242Y003396D02*
X014796Y003396D01*
X014795Y003394D02*
X015243Y003394D01*
X015244Y003391D02*
X014794Y003391D01*
X014793Y003389D02*
X015245Y003389D01*
X015245Y003387D02*
X014792Y003387D01*
X014792Y003384D02*
X015246Y003384D01*
X015247Y003382D02*
X014791Y003382D01*
X014790Y003379D02*
X015248Y003379D01*
X015248Y003377D02*
X014789Y003377D01*
X014788Y003374D02*
X015249Y003374D01*
X015250Y003372D02*
X014788Y003372D01*
X014788Y003370D02*
X015250Y003370D01*
X015251Y003367D02*
X014788Y003367D01*
X014787Y003365D02*
X015251Y003365D01*
X015251Y003362D02*
X014787Y003362D01*
X014787Y003360D02*
X015252Y003360D01*
X015252Y003357D02*
X014786Y003357D01*
X014786Y003355D02*
X015252Y003355D01*
X015252Y003352D02*
X014786Y003352D01*
X014786Y003350D02*
X015253Y003350D01*
X015253Y003348D02*
X014785Y003348D01*
X014785Y003345D02*
X015253Y003345D01*
X015253Y003343D02*
X014785Y003343D01*
X014785Y003340D02*
X015253Y003340D01*
X015254Y003338D02*
X014784Y003338D01*
X014784Y003335D02*
X015254Y003335D01*
X015254Y003333D02*
X014784Y003333D01*
X014784Y003331D02*
X015254Y003331D01*
X015255Y003328D02*
X014783Y003328D01*
X014783Y003326D02*
X015255Y003326D01*
X015255Y003323D02*
X014783Y003323D01*
X014783Y003321D02*
X015255Y003321D01*
X015255Y003318D02*
X014783Y003318D01*
X014783Y003316D02*
X015255Y003316D01*
X015255Y003313D02*
X014783Y003313D01*
X014783Y003311D02*
X015255Y003311D01*
X015255Y003309D02*
X014783Y003309D01*
X014783Y003306D02*
X015255Y003306D01*
X015255Y003304D02*
X014783Y003304D01*
X014783Y003301D02*
X015255Y003301D01*
X015255Y003299D02*
X014783Y003299D01*
X014783Y003296D02*
X015255Y003296D01*
X015255Y003294D02*
X014783Y003294D01*
X014783Y003292D02*
X015255Y003292D01*
X015255Y003289D02*
X014783Y003289D01*
X014783Y003287D02*
X015255Y003287D01*
X015255Y003284D02*
X014783Y003284D01*
X014783Y003282D02*
X015255Y003282D01*
X015255Y003279D02*
X014783Y003279D01*
X014783Y003277D02*
X015255Y003277D01*
X015255Y003274D02*
X014783Y003274D01*
X014783Y003272D02*
X015255Y003272D01*
X015255Y003270D02*
X014783Y003270D01*
X014783Y003267D02*
X015255Y003267D01*
X015255Y003265D02*
X014783Y003265D01*
X014783Y003262D02*
X015255Y003262D01*
X015255Y003260D02*
X014783Y003260D01*
X014783Y003257D02*
X015255Y003257D01*
X015255Y003255D02*
X014783Y003255D01*
X014783Y003253D02*
X015255Y003253D01*
X015255Y003250D02*
X014783Y003250D01*
X014783Y003248D02*
X015255Y003248D01*
X015255Y003245D02*
X014783Y003245D01*
X014783Y003243D02*
X015255Y003243D01*
X015255Y003240D02*
X014783Y003240D01*
X014783Y003238D02*
X015255Y003238D01*
X015255Y003235D02*
X014783Y003235D01*
X014783Y003233D02*
X015255Y003233D01*
X015255Y003231D02*
X014783Y003231D01*
X014783Y003228D02*
X015255Y003228D01*
X015255Y003226D02*
X014783Y003226D01*
X014783Y003223D02*
X015255Y003223D01*
X015255Y003221D02*
X014783Y003221D01*
X014783Y003218D02*
X015255Y003218D01*
X015255Y003216D02*
X014783Y003216D01*
X014783Y003214D02*
X015255Y003214D01*
X015255Y003211D02*
X014783Y003211D01*
X014783Y003209D02*
X015255Y003209D01*
X015255Y003206D02*
X014783Y003206D01*
X014783Y003204D02*
X015255Y003204D01*
X015255Y003201D02*
X014783Y003201D01*
X014783Y003199D02*
X015255Y003199D01*
X015255Y003196D02*
X014783Y003196D01*
X014783Y003194D02*
X015255Y003194D01*
X015255Y003192D02*
X014783Y003192D01*
X014783Y003189D02*
X015255Y003189D01*
X015255Y003187D02*
X014783Y003187D01*
X014783Y003184D02*
X015255Y003184D01*
X015255Y003182D02*
X014783Y003182D01*
X014783Y003179D02*
X015255Y003179D01*
X015255Y003177D02*
X014783Y003177D01*
X014783Y003175D02*
X015255Y003175D01*
X015255Y003172D02*
X014783Y003172D01*
X014783Y003170D02*
X015255Y003170D01*
X015255Y003167D02*
X014783Y003167D01*
X014783Y003165D02*
X015255Y003165D01*
X015255Y003162D02*
X014783Y003162D01*
X014783Y003160D02*
X015255Y003160D01*
X015255Y003157D02*
X014783Y003157D01*
X014783Y003155D02*
X015255Y003155D01*
X015255Y003153D02*
X014783Y003153D01*
X014783Y003150D02*
X015255Y003150D01*
X015255Y003148D02*
X014783Y003148D01*
X014783Y003145D02*
X015255Y003145D01*
X015255Y003143D02*
X014783Y003143D01*
X014783Y003140D02*
X015255Y003140D01*
X015255Y003138D02*
X014783Y003138D01*
X014783Y003136D02*
X015255Y003136D01*
X015255Y003133D02*
X014783Y003133D01*
X014783Y003131D02*
X015255Y003131D01*
X015255Y003128D02*
X014783Y003128D01*
X014783Y003126D02*
X015255Y003126D01*
X015255Y003123D02*
X014783Y003123D01*
X014783Y003121D02*
X015255Y003121D01*
X015255Y003118D02*
X014783Y003118D01*
X014783Y003116D02*
X015255Y003116D01*
X015255Y003114D02*
X014783Y003114D01*
X014783Y003111D02*
X015255Y003111D01*
X015255Y003109D02*
X014783Y003109D01*
X014783Y003106D02*
X015255Y003106D01*
X015255Y003104D02*
X014783Y003104D01*
X014783Y003101D02*
X015255Y003101D01*
X015255Y003099D02*
X014783Y003099D01*
X014783Y003097D02*
X015255Y003097D01*
X015255Y003094D02*
X014783Y003094D01*
X014783Y003092D02*
X015255Y003092D01*
X015255Y003089D02*
X014783Y003089D01*
X014783Y003087D02*
X015255Y003087D01*
X015255Y003084D02*
X014783Y003084D01*
X014783Y003082D02*
X015255Y003082D01*
X015254Y003079D02*
X014783Y003079D01*
X014784Y003077D02*
X015254Y003077D01*
X015254Y003075D02*
X014784Y003075D01*
X014784Y003072D02*
X015254Y003072D01*
X015253Y003070D02*
X014785Y003070D01*
X014785Y003067D02*
X015253Y003067D01*
X015253Y003065D02*
X014785Y003065D01*
X014785Y003062D02*
X015253Y003062D01*
X015252Y003060D02*
X014786Y003060D01*
X014786Y003058D02*
X015252Y003058D01*
X015252Y003055D02*
X014786Y003055D01*
X014787Y003053D02*
X015252Y003053D01*
X015251Y003050D02*
X014787Y003050D01*
X014787Y003048D02*
X015251Y003048D01*
X015251Y003045D02*
X014787Y003045D01*
X014788Y003043D02*
X015251Y003043D01*
X015250Y003041D02*
X014788Y003041D01*
X014788Y003038D02*
X015250Y003038D01*
X015249Y003036D02*
X014789Y003036D01*
X014789Y003033D02*
X015248Y003033D01*
X015248Y003031D02*
X014790Y003031D01*
X014791Y003028D02*
X015247Y003028D01*
X015246Y003026D02*
X014792Y003026D01*
X014792Y003023D02*
X015245Y003023D01*
X015244Y003021D02*
X014793Y003021D01*
X014794Y003019D02*
X015244Y003019D01*
X015243Y003016D02*
X014795Y003016D01*
X014796Y003014D02*
X015242Y003014D01*
X015241Y003011D02*
X014797Y003011D01*
X014798Y003009D02*
X015241Y003009D01*
X015240Y003006D02*
X014798Y003006D01*
X014799Y003004D02*
X015239Y003004D01*
X015238Y003002D02*
X014800Y003002D01*
X014801Y002999D02*
X015238Y002999D01*
X015237Y002997D02*
X014802Y002997D01*
X014803Y002994D02*
X015236Y002994D01*
X015234Y002992D02*
X014804Y002992D01*
X014805Y002989D02*
X015233Y002989D01*
X015232Y002987D02*
X014805Y002987D01*
X014806Y002984D02*
X015231Y002984D01*
X015229Y002982D02*
X014808Y002982D01*
X014809Y002980D02*
X015228Y002980D01*
X015227Y002977D02*
X014811Y002977D01*
X014812Y002975D02*
X015225Y002975D01*
X015224Y002972D02*
X014814Y002972D01*
X014815Y002970D02*
X015223Y002970D01*
X015221Y002967D02*
X014817Y002967D01*
X014819Y002965D02*
X015220Y002965D01*
X015219Y002963D02*
X014820Y002963D01*
X014822Y002960D02*
X015217Y002960D01*
X015216Y002958D02*
X014823Y002958D01*
X014825Y002955D02*
X015215Y002955D01*
X015213Y002953D02*
X014826Y002953D01*
X014828Y002950D02*
X015211Y002950D01*
X015209Y002948D02*
X014829Y002948D01*
X014831Y002945D02*
X015207Y002945D01*
X015205Y002943D02*
X014832Y002943D01*
X014834Y002941D02*
X015203Y002941D01*
X015201Y002938D02*
X014836Y002938D01*
X014839Y002936D02*
X015199Y002936D01*
X015196Y002933D02*
X014841Y002933D01*
X014843Y002931D02*
X015194Y002931D01*
X015192Y002928D02*
X014846Y002928D01*
X014848Y002926D02*
X015190Y002926D01*
X015188Y002924D02*
X014851Y002924D01*
X014853Y002921D02*
X015186Y002921D01*
X015184Y002919D02*
X014856Y002919D01*
X014858Y002916D02*
X015181Y002916D01*
X015178Y002914D02*
X014861Y002914D01*
X014863Y002911D02*
X015175Y002911D01*
X015172Y002909D02*
X014866Y002909D01*
X014868Y002906D02*
X015169Y002906D01*
X015166Y002904D02*
X014871Y002904D01*
X014874Y002902D02*
X015163Y002902D01*
X015160Y002899D02*
X014877Y002899D01*
X014881Y002897D02*
X015157Y002897D01*
X015154Y002894D02*
X014885Y002894D01*
X014889Y002892D02*
X015151Y002892D01*
X015147Y002889D02*
X014893Y002889D01*
X014897Y002887D02*
X015142Y002887D01*
X015138Y002885D02*
X014901Y002885D01*
X014905Y002882D02*
X015133Y002882D01*
X015128Y002880D02*
X014909Y002880D01*
X014913Y002877D02*
X015124Y002877D01*
X015119Y002875D02*
X014917Y002875D01*
X014924Y002872D02*
X015115Y002872D01*
X015110Y002870D02*
X014931Y002870D01*
X014938Y002867D02*
X015103Y002867D01*
X015095Y002865D02*
X014945Y002865D01*
X014952Y002863D02*
X015086Y002863D01*
X015078Y002860D02*
X014959Y002860D01*
X014966Y002858D02*
X015070Y002858D01*
X015056Y002855D02*
X014987Y002855D01*
X015009Y002853D02*
X015030Y002853D01*
X018184Y003086D02*
X018190Y003034D01*
X018208Y002984D01*
X018236Y002940D01*
X018274Y002903D01*
X018318Y002875D01*
X018521Y002875D01*
X018525Y002877D02*
X018314Y002877D01*
X018310Y002880D02*
X018530Y002880D01*
X018535Y002882D02*
X018306Y002882D01*
X018303Y002885D02*
X018539Y002885D01*
X018544Y002887D02*
X018299Y002887D01*
X018295Y002889D02*
X018548Y002889D01*
X018551Y002891D02*
X018511Y002869D01*
X018466Y002856D01*
X018420Y002852D01*
X018368Y002857D01*
X018318Y002875D01*
X018325Y002872D02*
X018516Y002872D01*
X018512Y002870D02*
X018332Y002870D01*
X018339Y002867D02*
X018504Y002867D01*
X018496Y002865D02*
X018346Y002865D01*
X018353Y002863D02*
X018488Y002863D01*
X018480Y002860D02*
X018360Y002860D01*
X018367Y002858D02*
X018472Y002858D01*
X018457Y002855D02*
X018389Y002855D01*
X018411Y002853D02*
X018431Y002853D01*
X018551Y002891D02*
X018587Y002920D01*
X018617Y002956D01*
X018638Y002996D01*
X018652Y003040D01*
X018657Y003086D01*
X018657Y003322D01*
X018652Y003369D01*
X018652Y003370D02*
X018189Y003370D01*
X018190Y003372D02*
X018651Y003372D01*
X018651Y003374D02*
X018190Y003374D01*
X018190Y003375D02*
X018207Y003425D01*
X018235Y003470D01*
X018273Y003508D01*
X018318Y003537D01*
X018368Y003554D01*
X018420Y003560D01*
X018467Y003556D01*
X018511Y003542D01*
X018552Y003520D01*
X018588Y003490D01*
X018617Y003454D01*
X018639Y003413D01*
X018652Y003369D01*
X018652Y003367D02*
X018189Y003367D01*
X018189Y003365D02*
X018653Y003365D01*
X018653Y003362D02*
X018189Y003362D01*
X018188Y003360D02*
X018653Y003360D01*
X018653Y003357D02*
X018188Y003357D01*
X018188Y003355D02*
X018654Y003355D01*
X018654Y003352D02*
X018188Y003352D01*
X018187Y003350D02*
X018654Y003350D01*
X018654Y003348D02*
X018187Y003348D01*
X018187Y003345D02*
X018655Y003345D01*
X018655Y003343D02*
X018186Y003343D01*
X018186Y003340D02*
X018655Y003340D01*
X018655Y003338D02*
X018186Y003338D01*
X018186Y003335D02*
X018655Y003335D01*
X018656Y003333D02*
X018185Y003333D01*
X018185Y003331D02*
X018656Y003331D01*
X018656Y003328D02*
X018185Y003328D01*
X018185Y003326D02*
X018656Y003326D01*
X018657Y003323D02*
X018184Y003323D01*
X018184Y003322D02*
X018190Y003375D01*
X018191Y003377D02*
X018650Y003377D01*
X018649Y003379D02*
X018191Y003379D01*
X018192Y003382D02*
X018648Y003382D01*
X018648Y003384D02*
X018193Y003384D01*
X018194Y003387D02*
X018647Y003387D01*
X018646Y003389D02*
X018195Y003389D01*
X018196Y003391D02*
X018645Y003391D01*
X018645Y003394D02*
X018196Y003394D01*
X018197Y003396D02*
X018644Y003396D01*
X018643Y003399D02*
X018198Y003399D01*
X018199Y003401D02*
X018643Y003401D01*
X018642Y003404D02*
X018200Y003404D01*
X018201Y003406D02*
X018641Y003406D01*
X018640Y003409D02*
X018202Y003409D01*
X018202Y003411D02*
X018640Y003411D01*
X018639Y003413D02*
X018203Y003413D01*
X018204Y003416D02*
X018638Y003416D01*
X018636Y003418D02*
X018205Y003418D01*
X018206Y003421D02*
X018635Y003421D01*
X018634Y003423D02*
X018207Y003423D01*
X018207Y003426D02*
X018632Y003426D01*
X018631Y003428D02*
X018209Y003428D01*
X018211Y003430D02*
X018630Y003430D01*
X018629Y003433D02*
X018212Y003433D01*
X018214Y003435D02*
X018627Y003435D01*
X018626Y003438D02*
X018215Y003438D01*
X018217Y003440D02*
X018625Y003440D01*
X018623Y003443D02*
X018218Y003443D01*
X018220Y003445D02*
X018622Y003445D01*
X018621Y003448D02*
X018221Y003448D01*
X018223Y003450D02*
X018620Y003450D01*
X018618Y003452D02*
X018224Y003452D01*
X018226Y003455D02*
X018617Y003455D01*
X018615Y003457D02*
X018227Y003457D01*
X018229Y003460D02*
X018613Y003460D01*
X018611Y003462D02*
X018230Y003462D01*
X018232Y003465D02*
X018609Y003465D01*
X018607Y003467D02*
X018233Y003467D01*
X018235Y003469D02*
X018605Y003469D01*
X018603Y003472D02*
X018237Y003472D01*
X018239Y003474D02*
X018601Y003474D01*
X018599Y003477D02*
X018242Y003477D01*
X018244Y003479D02*
X018597Y003479D01*
X018595Y003482D02*
X018247Y003482D01*
X018249Y003484D02*
X018593Y003484D01*
X018591Y003487D02*
X018251Y003487D01*
X018254Y003489D02*
X018589Y003489D01*
X018587Y003491D02*
X018256Y003491D01*
X018259Y003494D02*
X018584Y003494D01*
X018581Y003496D02*
X018261Y003496D01*
X018263Y003499D02*
X018578Y003499D01*
X018575Y003501D02*
X018266Y003501D01*
X018268Y003504D02*
X018572Y003504D01*
X018569Y003506D02*
X018271Y003506D01*
X018273Y003508D02*
X018566Y003508D01*
X018563Y003511D02*
X018277Y003511D01*
X018281Y003513D02*
X018560Y003513D01*
X018557Y003516D02*
X018285Y003516D01*
X018289Y003518D02*
X018554Y003518D01*
X018551Y003521D02*
X018293Y003521D01*
X018296Y003523D02*
X018546Y003523D01*
X018542Y003526D02*
X018300Y003526D01*
X018304Y003528D02*
X018537Y003528D01*
X018533Y003530D02*
X018308Y003530D01*
X018312Y003533D02*
X018528Y003533D01*
X018524Y003535D02*
X018316Y003535D01*
X018321Y003538D02*
X018519Y003538D01*
X018515Y003540D02*
X018328Y003540D01*
X018335Y003543D02*
X018509Y003543D01*
X018502Y003545D02*
X018342Y003545D01*
X018348Y003547D02*
X018494Y003547D01*
X018486Y003550D02*
X018355Y003550D01*
X018362Y003552D02*
X018478Y003552D01*
X018470Y003555D02*
X018372Y003555D01*
X018392Y003557D02*
X018452Y003557D01*
X018429Y003560D02*
X018413Y003560D01*
X018184Y003322D02*
X018184Y003086D01*
X018184Y003087D02*
X018657Y003087D01*
X018657Y003089D02*
X018184Y003089D01*
X018184Y003092D02*
X018657Y003092D01*
X018657Y003094D02*
X018184Y003094D01*
X018184Y003097D02*
X018657Y003097D01*
X018657Y003099D02*
X018184Y003099D01*
X018184Y003101D02*
X018657Y003101D01*
X018657Y003104D02*
X018184Y003104D01*
X018184Y003106D02*
X018657Y003106D01*
X018657Y003109D02*
X018184Y003109D01*
X018184Y003111D02*
X018657Y003111D01*
X018657Y003114D02*
X018184Y003114D01*
X018184Y003116D02*
X018657Y003116D01*
X018657Y003118D02*
X018184Y003118D01*
X018184Y003121D02*
X018657Y003121D01*
X018657Y003123D02*
X018184Y003123D01*
X018184Y003126D02*
X018657Y003126D01*
X018657Y003128D02*
X018184Y003128D01*
X018184Y003131D02*
X018657Y003131D01*
X018657Y003133D02*
X018184Y003133D01*
X018184Y003136D02*
X018657Y003136D01*
X018657Y003138D02*
X018184Y003138D01*
X018184Y003140D02*
X018657Y003140D01*
X018657Y003143D02*
X018184Y003143D01*
X018184Y003145D02*
X018657Y003145D01*
X018657Y003148D02*
X018184Y003148D01*
X018184Y003150D02*
X018657Y003150D01*
X018657Y003153D02*
X018184Y003153D01*
X018184Y003155D02*
X018657Y003155D01*
X018657Y003157D02*
X018184Y003157D01*
X018184Y003160D02*
X018657Y003160D01*
X018657Y003162D02*
X018184Y003162D01*
X018184Y003165D02*
X018657Y003165D01*
X018657Y003167D02*
X018184Y003167D01*
X018184Y003170D02*
X018657Y003170D01*
X018657Y003172D02*
X018184Y003172D01*
X018184Y003175D02*
X018657Y003175D01*
X018657Y003177D02*
X018184Y003177D01*
X018184Y003179D02*
X018657Y003179D01*
X018657Y003182D02*
X018184Y003182D01*
X018184Y003184D02*
X018657Y003184D01*
X018657Y003187D02*
X018184Y003187D01*
X018184Y003189D02*
X018657Y003189D01*
X018657Y003192D02*
X018184Y003192D01*
X018184Y003194D02*
X018657Y003194D01*
X018657Y003196D02*
X018184Y003196D01*
X018184Y003199D02*
X018657Y003199D01*
X018657Y003201D02*
X018184Y003201D01*
X018184Y003204D02*
X018657Y003204D01*
X018657Y003206D02*
X018184Y003206D01*
X018184Y003209D02*
X018657Y003209D01*
X018657Y003211D02*
X018184Y003211D01*
X018184Y003214D02*
X018657Y003214D01*
X018657Y003216D02*
X018184Y003216D01*
X018184Y003218D02*
X018657Y003218D01*
X018657Y003221D02*
X018184Y003221D01*
X018184Y003223D02*
X018657Y003223D01*
X018657Y003226D02*
X018184Y003226D01*
X018184Y003228D02*
X018657Y003228D01*
X018657Y003231D02*
X018184Y003231D01*
X018184Y003233D02*
X018657Y003233D01*
X018657Y003235D02*
X018184Y003235D01*
X018184Y003238D02*
X018657Y003238D01*
X018657Y003240D02*
X018184Y003240D01*
X018184Y003243D02*
X018657Y003243D01*
X018657Y003245D02*
X018184Y003245D01*
X018184Y003248D02*
X018657Y003248D01*
X018657Y003250D02*
X018184Y003250D01*
X018184Y003253D02*
X018657Y003253D01*
X018657Y003255D02*
X018184Y003255D01*
X018184Y003257D02*
X018657Y003257D01*
X018657Y003260D02*
X018184Y003260D01*
X018184Y003262D02*
X018657Y003262D01*
X018657Y003265D02*
X018184Y003265D01*
X018184Y003267D02*
X018657Y003267D01*
X018657Y003270D02*
X018184Y003270D01*
X018184Y003272D02*
X018657Y003272D01*
X018657Y003274D02*
X018184Y003274D01*
X018184Y003277D02*
X018657Y003277D01*
X018657Y003279D02*
X018184Y003279D01*
X018184Y003282D02*
X018657Y003282D01*
X018657Y003284D02*
X018184Y003284D01*
X018184Y003287D02*
X018657Y003287D01*
X018657Y003289D02*
X018184Y003289D01*
X018184Y003292D02*
X018657Y003292D01*
X018657Y003294D02*
X018184Y003294D01*
X018184Y003296D02*
X018657Y003296D01*
X018657Y003299D02*
X018184Y003299D01*
X018184Y003301D02*
X018657Y003301D01*
X018657Y003304D02*
X018184Y003304D01*
X018184Y003306D02*
X018657Y003306D01*
X018657Y003309D02*
X018184Y003309D01*
X018184Y003311D02*
X018657Y003311D01*
X018657Y003313D02*
X018184Y003313D01*
X018184Y003316D02*
X018657Y003316D01*
X018657Y003318D02*
X018184Y003318D01*
X018184Y003321D02*
X018657Y003321D01*
X018657Y003084D02*
X018184Y003084D01*
X018185Y003082D02*
X018656Y003082D01*
X018656Y003079D02*
X018185Y003079D01*
X018185Y003077D02*
X018656Y003077D01*
X018656Y003075D02*
X018186Y003075D01*
X018186Y003072D02*
X018655Y003072D01*
X018655Y003070D02*
X018186Y003070D01*
X018186Y003067D02*
X018655Y003067D01*
X018655Y003065D02*
X018187Y003065D01*
X018187Y003062D02*
X018654Y003062D01*
X018654Y003060D02*
X018187Y003060D01*
X018188Y003058D02*
X018654Y003058D01*
X018654Y003055D02*
X018188Y003055D01*
X018188Y003053D02*
X018653Y003053D01*
X018653Y003050D02*
X018188Y003050D01*
X018189Y003048D02*
X018653Y003048D01*
X018653Y003045D02*
X018189Y003045D01*
X018189Y003043D02*
X018652Y003043D01*
X018652Y003041D02*
X018190Y003041D01*
X018190Y003038D02*
X018651Y003038D01*
X018651Y003036D02*
X018190Y003036D01*
X018191Y003033D02*
X018650Y003033D01*
X018649Y003031D02*
X018191Y003031D01*
X018192Y003028D02*
X018648Y003028D01*
X018648Y003026D02*
X018193Y003026D01*
X018194Y003023D02*
X018647Y003023D01*
X018646Y003021D02*
X018195Y003021D01*
X018196Y003019D02*
X018645Y003019D01*
X018645Y003016D02*
X018197Y003016D01*
X018197Y003014D02*
X018644Y003014D01*
X018643Y003011D02*
X018198Y003011D01*
X018199Y003009D02*
X018642Y003009D01*
X018642Y003006D02*
X018200Y003006D01*
X018201Y003004D02*
X018641Y003004D01*
X018640Y003002D02*
X018202Y003002D01*
X018203Y002999D02*
X018639Y002999D01*
X018639Y002997D02*
X018204Y002997D01*
X018204Y002994D02*
X018637Y002994D01*
X018636Y002992D02*
X018205Y002992D01*
X018206Y002989D02*
X018635Y002989D01*
X018633Y002987D02*
X018207Y002987D01*
X018208Y002984D02*
X018632Y002984D01*
X018631Y002982D02*
X018209Y002982D01*
X018211Y002980D02*
X018629Y002980D01*
X018628Y002977D02*
X018212Y002977D01*
X018214Y002975D02*
X018627Y002975D01*
X018626Y002972D02*
X018215Y002972D01*
X018217Y002970D02*
X018624Y002970D01*
X018623Y002967D02*
X018219Y002967D01*
X018220Y002965D02*
X018622Y002965D01*
X018620Y002963D02*
X018222Y002963D01*
X018223Y002960D02*
X018619Y002960D01*
X018618Y002958D02*
X018225Y002958D01*
X018226Y002955D02*
X018616Y002955D01*
X018614Y002953D02*
X018228Y002953D01*
X018229Y002950D02*
X018612Y002950D01*
X018610Y002948D02*
X018231Y002948D01*
X018232Y002945D02*
X018608Y002945D01*
X018606Y002943D02*
X018234Y002943D01*
X018236Y002941D02*
X018604Y002941D01*
X018602Y002938D02*
X018238Y002938D01*
X018240Y002936D02*
X018600Y002936D01*
X018598Y002933D02*
X018243Y002933D01*
X018245Y002931D02*
X018596Y002931D01*
X018594Y002928D02*
X018248Y002928D01*
X018250Y002926D02*
X018592Y002926D01*
X018590Y002924D02*
X018252Y002924D01*
X018255Y002921D02*
X018588Y002921D01*
X018585Y002919D02*
X018257Y002919D01*
X018260Y002916D02*
X018582Y002916D01*
X018579Y002914D02*
X018262Y002914D01*
X018265Y002911D02*
X018576Y002911D01*
X018573Y002909D02*
X018267Y002909D01*
X018270Y002906D02*
X018570Y002906D01*
X018567Y002904D02*
X018272Y002904D01*
X018275Y002902D02*
X018564Y002902D01*
X018561Y002899D02*
X018279Y002899D01*
X018283Y002897D02*
X018558Y002897D01*
X018555Y002894D02*
X018287Y002894D01*
X018291Y002892D02*
X018552Y002892D01*
X018443Y004400D02*
X018398Y004400D01*
X018420Y004399D02*
X018370Y004402D01*
X018322Y004417D01*
X018278Y004441D01*
X018240Y004475D01*
X018211Y004517D01*
X018192Y004564D01*
X018649Y004564D01*
X018630Y004517D01*
X018601Y004475D01*
X018563Y004441D01*
X018519Y004417D01*
X018471Y004402D01*
X018420Y004399D01*
X018368Y004403D02*
X018473Y004403D01*
X018481Y004405D02*
X018360Y004405D01*
X018352Y004408D02*
X018489Y004408D01*
X018498Y004410D02*
X018343Y004410D01*
X018335Y004413D02*
X018506Y004413D01*
X018514Y004415D02*
X018327Y004415D01*
X018320Y004418D02*
X018521Y004418D01*
X018525Y004420D02*
X018316Y004420D01*
X018311Y004422D02*
X018530Y004422D01*
X018534Y004425D02*
X018307Y004425D01*
X018303Y004427D02*
X018538Y004427D01*
X018543Y004430D02*
X018298Y004430D01*
X018294Y004432D02*
X018547Y004432D01*
X018551Y004435D02*
X018290Y004435D01*
X018285Y004437D02*
X018555Y004437D01*
X018560Y004439D02*
X018281Y004439D01*
X018277Y004442D02*
X018564Y004442D01*
X018567Y004444D02*
X018274Y004444D01*
X018272Y004447D02*
X018569Y004447D01*
X018572Y004449D02*
X018269Y004449D01*
X018266Y004452D02*
X018575Y004452D01*
X018577Y004454D02*
X018264Y004454D01*
X018261Y004457D02*
X018580Y004457D01*
X018583Y004459D02*
X018258Y004459D01*
X018256Y004461D02*
X018585Y004461D01*
X018588Y004464D02*
X018253Y004464D01*
X018250Y004466D02*
X018591Y004466D01*
X018593Y004469D02*
X018248Y004469D01*
X018245Y004471D02*
X018596Y004471D01*
X018599Y004474D02*
X018242Y004474D01*
X018240Y004476D02*
X018601Y004476D01*
X018603Y004478D02*
X018238Y004478D01*
X018236Y004481D02*
X018605Y004481D01*
X018606Y004483D02*
X018235Y004483D01*
X018233Y004486D02*
X018608Y004486D01*
X018610Y004488D02*
X018231Y004488D01*
X018230Y004491D02*
X018611Y004491D01*
X018613Y004493D02*
X018228Y004493D01*
X018226Y004496D02*
X018615Y004496D01*
X018616Y004498D02*
X018224Y004498D01*
X018223Y004500D02*
X018618Y004500D01*
X018620Y004503D02*
X018221Y004503D01*
X018219Y004505D02*
X018622Y004505D01*
X018623Y004508D02*
X018218Y004508D01*
X018216Y004510D02*
X018625Y004510D01*
X018627Y004513D02*
X018214Y004513D01*
X018213Y004515D02*
X018628Y004515D01*
X018630Y004517D02*
X018211Y004517D01*
X018210Y004520D02*
X018631Y004520D01*
X018632Y004522D02*
X018209Y004522D01*
X018208Y004525D02*
X018633Y004525D01*
X018634Y004527D02*
X018207Y004527D01*
X018206Y004530D02*
X018635Y004530D01*
X018636Y004532D02*
X018205Y004532D01*
X018204Y004535D02*
X018637Y004535D01*
X018638Y004537D02*
X018203Y004537D01*
X018202Y004539D02*
X018639Y004539D01*
X018640Y004542D02*
X018201Y004542D01*
X018200Y004544D02*
X018641Y004544D01*
X018642Y004547D02*
X018199Y004547D01*
X018198Y004549D02*
X018643Y004549D01*
X018644Y004552D02*
X018197Y004552D01*
X018196Y004554D02*
X018645Y004554D01*
X018646Y004556D02*
X018195Y004556D01*
X018194Y004559D02*
X018647Y004559D01*
X018648Y004561D02*
X018193Y004561D01*
X018192Y004564D02*
X018184Y004614D01*
X018184Y005086D01*
X018190Y005130D01*
X018205Y005172D01*
X018227Y005211D01*
X018257Y005244D01*
X018293Y005271D01*
X018333Y005291D01*
X018376Y005302D01*
X018420Y005305D01*
X018471Y005301D01*
X018520Y005286D01*
X018564Y005260D01*
X018602Y005226D01*
X018630Y005184D01*
X018649Y005136D01*
X018657Y005086D01*
X018657Y004614D01*
X018649Y004564D01*
X018649Y004566D02*
X018192Y004566D01*
X018192Y004569D02*
X018649Y004569D01*
X018650Y004571D02*
X018191Y004571D01*
X018191Y004574D02*
X018650Y004574D01*
X018651Y004576D02*
X018190Y004576D01*
X018190Y004578D02*
X018651Y004578D01*
X018651Y004581D02*
X018190Y004581D01*
X018189Y004583D02*
X018652Y004583D01*
X018652Y004586D02*
X018189Y004586D01*
X018188Y004588D02*
X018653Y004588D01*
X018653Y004591D02*
X018188Y004591D01*
X018188Y004593D02*
X018653Y004593D01*
X018654Y004595D02*
X018187Y004595D01*
X018187Y004598D02*
X018654Y004598D01*
X018655Y004600D02*
X018186Y004600D01*
X018186Y004603D02*
X018655Y004603D01*
X018655Y004605D02*
X018186Y004605D01*
X018185Y004608D02*
X018656Y004608D01*
X018656Y004610D02*
X018185Y004610D01*
X018184Y004613D02*
X018657Y004613D01*
X018657Y004615D02*
X018184Y004615D01*
X018184Y004617D02*
X018657Y004617D01*
X018657Y004620D02*
X018184Y004620D01*
X018184Y004622D02*
X018657Y004622D01*
X018657Y004625D02*
X018184Y004625D01*
X018184Y004627D02*
X018657Y004627D01*
X018657Y004630D02*
X018184Y004630D01*
X018184Y004632D02*
X018657Y004632D01*
X018657Y004634D02*
X018184Y004634D01*
X018184Y004637D02*
X018657Y004637D01*
X018657Y004639D02*
X018184Y004639D01*
X018184Y004642D02*
X018657Y004642D01*
X018657Y004644D02*
X018184Y004644D01*
X018184Y004647D02*
X018657Y004647D01*
X018657Y004649D02*
X018184Y004649D01*
X018184Y004652D02*
X018657Y004652D01*
X018657Y004654D02*
X018184Y004654D01*
X018184Y004656D02*
X018657Y004656D01*
X018657Y004659D02*
X018184Y004659D01*
X018184Y004661D02*
X018657Y004661D01*
X018657Y004664D02*
X018184Y004664D01*
X018184Y004666D02*
X018657Y004666D01*
X018657Y004669D02*
X018184Y004669D01*
X018184Y004671D02*
X018657Y004671D01*
X018657Y004673D02*
X018184Y004673D01*
X018184Y004676D02*
X018657Y004676D01*
X018657Y004678D02*
X018184Y004678D01*
X018184Y004681D02*
X018657Y004681D01*
X018657Y004683D02*
X018184Y004683D01*
X018184Y004686D02*
X018657Y004686D01*
X018657Y004688D02*
X018184Y004688D01*
X018184Y004691D02*
X018657Y004691D01*
X018657Y004693D02*
X018184Y004693D01*
X018184Y004695D02*
X018657Y004695D01*
X018657Y004698D02*
X018184Y004698D01*
X018184Y004700D02*
X018657Y004700D01*
X018657Y004703D02*
X018184Y004703D01*
X018184Y004705D02*
X018657Y004705D01*
X018657Y004708D02*
X018184Y004708D01*
X018184Y004710D02*
X018657Y004710D01*
X018657Y004712D02*
X018184Y004712D01*
X018184Y004715D02*
X018657Y004715D01*
X018657Y004717D02*
X018184Y004717D01*
X018184Y004720D02*
X018657Y004720D01*
X018657Y004722D02*
X018184Y004722D01*
X018184Y004725D02*
X018657Y004725D01*
X018657Y004727D02*
X018184Y004727D01*
X018184Y004730D02*
X018657Y004730D01*
X018657Y004732D02*
X018184Y004732D01*
X018184Y004734D02*
X018657Y004734D01*
X018657Y004737D02*
X018184Y004737D01*
X018184Y004739D02*
X018657Y004739D01*
X018657Y004742D02*
X018184Y004742D01*
X018184Y004744D02*
X018657Y004744D01*
X018657Y004747D02*
X018184Y004747D01*
X018184Y004749D02*
X018657Y004749D01*
X018657Y004751D02*
X018184Y004751D01*
X018184Y004754D02*
X018657Y004754D01*
X018657Y004756D02*
X018184Y004756D01*
X018184Y004759D02*
X018657Y004759D01*
X018657Y004761D02*
X018184Y004761D01*
X018184Y004764D02*
X018657Y004764D01*
X018657Y004766D02*
X018184Y004766D01*
X018184Y004769D02*
X018657Y004769D01*
X018657Y004771D02*
X018184Y004771D01*
X018184Y004773D02*
X018657Y004773D01*
X018657Y004776D02*
X018184Y004776D01*
X018184Y004778D02*
X018657Y004778D01*
X018657Y004781D02*
X018184Y004781D01*
X018184Y004783D02*
X018657Y004783D01*
X018657Y004786D02*
X018184Y004786D01*
X018184Y004788D02*
X018657Y004788D01*
X018657Y004790D02*
X018184Y004790D01*
X018184Y004793D02*
X018657Y004793D01*
X018657Y004795D02*
X018184Y004795D01*
X018184Y004798D02*
X018657Y004798D01*
X018657Y004800D02*
X018184Y004800D01*
X018184Y004803D02*
X018657Y004803D01*
X018657Y004805D02*
X018184Y004805D01*
X018184Y004808D02*
X018657Y004808D01*
X018657Y004810D02*
X018184Y004810D01*
X018184Y004812D02*
X018657Y004812D01*
X018657Y004815D02*
X018184Y004815D01*
X018184Y004817D02*
X018657Y004817D01*
X018657Y004820D02*
X018184Y004820D01*
X018184Y004822D02*
X018657Y004822D01*
X018657Y004825D02*
X018184Y004825D01*
X018184Y004827D02*
X018657Y004827D01*
X018657Y004829D02*
X018184Y004829D01*
X018184Y004832D02*
X018657Y004832D01*
X018657Y004834D02*
X018184Y004834D01*
X018184Y004837D02*
X018657Y004837D01*
X018657Y004839D02*
X018184Y004839D01*
X018184Y004842D02*
X018657Y004842D01*
X018657Y004844D02*
X018184Y004844D01*
X018184Y004847D02*
X018657Y004847D01*
X018657Y004849D02*
X018184Y004849D01*
X018184Y004851D02*
X018657Y004851D01*
X018657Y004854D02*
X018184Y004854D01*
X018184Y004856D02*
X018657Y004856D01*
X018657Y004859D02*
X018184Y004859D01*
X018184Y004861D02*
X018657Y004861D01*
X018657Y004864D02*
X018184Y004864D01*
X018184Y004866D02*
X018657Y004866D01*
X018657Y004868D02*
X018184Y004868D01*
X018184Y004871D02*
X018657Y004871D01*
X018657Y004873D02*
X018184Y004873D01*
X018184Y004876D02*
X018657Y004876D01*
X018657Y004878D02*
X018184Y004878D01*
X018184Y004881D02*
X018657Y004881D01*
X018657Y004883D02*
X018184Y004883D01*
X018184Y004886D02*
X018657Y004886D01*
X018657Y004888D02*
X018184Y004888D01*
X018184Y004890D02*
X018657Y004890D01*
X018657Y004893D02*
X018184Y004893D01*
X018184Y004895D02*
X018657Y004895D01*
X018657Y004898D02*
X018184Y004898D01*
X018184Y004900D02*
X018657Y004900D01*
X018657Y004903D02*
X018184Y004903D01*
X018184Y004905D02*
X018657Y004905D01*
X018657Y004907D02*
X018184Y004907D01*
X018184Y004910D02*
X018657Y004910D01*
X018657Y004912D02*
X018184Y004912D01*
X018184Y004915D02*
X018657Y004915D01*
X018657Y004917D02*
X018184Y004917D01*
X018184Y004920D02*
X018657Y004920D01*
X018657Y004922D02*
X018184Y004922D01*
X018184Y004924D02*
X018657Y004924D01*
X018657Y004927D02*
X018184Y004927D01*
X018184Y004929D02*
X018657Y004929D01*
X018657Y004932D02*
X018184Y004932D01*
X018184Y004934D02*
X018657Y004934D01*
X018657Y004937D02*
X018184Y004937D01*
X018184Y004939D02*
X018657Y004939D01*
X018657Y004942D02*
X018184Y004942D01*
X018184Y004944D02*
X018657Y004944D01*
X018657Y004946D02*
X018184Y004946D01*
X018184Y004949D02*
X018657Y004949D01*
X018657Y004951D02*
X018184Y004951D01*
X018184Y004954D02*
X018657Y004954D01*
X018657Y004956D02*
X018184Y004956D01*
X018184Y004959D02*
X018657Y004959D01*
X018657Y004961D02*
X018184Y004961D01*
X018184Y004963D02*
X018657Y004963D01*
X018657Y004966D02*
X018184Y004966D01*
X018184Y004968D02*
X018657Y004968D01*
X018657Y004971D02*
X018184Y004971D01*
X018184Y004973D02*
X018657Y004973D01*
X018657Y004976D02*
X018184Y004976D01*
X018184Y004978D02*
X018657Y004978D01*
X018657Y004981D02*
X018184Y004981D01*
X018184Y004983D02*
X018657Y004983D01*
X018657Y004985D02*
X018184Y004985D01*
X018184Y004988D02*
X018657Y004988D01*
X018657Y004990D02*
X018184Y004990D01*
X018184Y004993D02*
X018657Y004993D01*
X018657Y004995D02*
X018184Y004995D01*
X018184Y004998D02*
X018657Y004998D01*
X018657Y005000D02*
X018184Y005000D01*
X018184Y005002D02*
X018657Y005002D01*
X018657Y005005D02*
X018184Y005005D01*
X018184Y005007D02*
X018657Y005007D01*
X018657Y005010D02*
X018184Y005010D01*
X018184Y005012D02*
X018657Y005012D01*
X018657Y005015D02*
X018184Y005015D01*
X018184Y005017D02*
X018657Y005017D01*
X018657Y005020D02*
X018184Y005020D01*
X018184Y005022D02*
X018657Y005022D01*
X018657Y005024D02*
X018184Y005024D01*
X018184Y005027D02*
X018657Y005027D01*
X018657Y005029D02*
X018184Y005029D01*
X018184Y005032D02*
X018657Y005032D01*
X018657Y005034D02*
X018184Y005034D01*
X018184Y005037D02*
X018657Y005037D01*
X018657Y005039D02*
X018184Y005039D01*
X018184Y005041D02*
X018657Y005041D01*
X018657Y005044D02*
X018184Y005044D01*
X018184Y005046D02*
X018657Y005046D01*
X018657Y005049D02*
X018184Y005049D01*
X018184Y005051D02*
X018657Y005051D01*
X018657Y005054D02*
X018184Y005054D01*
X018184Y005056D02*
X018657Y005056D01*
X018657Y005059D02*
X018184Y005059D01*
X018184Y005061D02*
X018657Y005061D01*
X018657Y005063D02*
X018184Y005063D01*
X018184Y005066D02*
X018657Y005066D01*
X018657Y005068D02*
X018184Y005068D01*
X018184Y005071D02*
X018657Y005071D01*
X018657Y005073D02*
X018184Y005073D01*
X018184Y005076D02*
X018657Y005076D01*
X018657Y005078D02*
X018184Y005078D01*
X018184Y005080D02*
X018657Y005080D01*
X018657Y005083D02*
X018184Y005083D01*
X018184Y005085D02*
X018657Y005085D01*
X018656Y005088D02*
X018184Y005088D01*
X018185Y005090D02*
X018656Y005090D01*
X018656Y005093D02*
X018185Y005093D01*
X018185Y005095D02*
X018655Y005095D01*
X018655Y005098D02*
X018186Y005098D01*
X018186Y005100D02*
X018655Y005100D01*
X018654Y005102D02*
X018187Y005102D01*
X018187Y005105D02*
X018654Y005105D01*
X018653Y005107D02*
X018187Y005107D01*
X018188Y005110D02*
X018653Y005110D01*
X018653Y005112D02*
X018188Y005112D01*
X018188Y005115D02*
X018652Y005115D01*
X018652Y005117D02*
X018189Y005117D01*
X018189Y005119D02*
X018652Y005119D01*
X018651Y005122D02*
X018189Y005122D01*
X018190Y005124D02*
X018651Y005124D01*
X018650Y005127D02*
X018190Y005127D01*
X018190Y005129D02*
X018650Y005129D01*
X018650Y005132D02*
X018191Y005132D01*
X018192Y005134D02*
X018649Y005134D01*
X018649Y005137D02*
X018193Y005137D01*
X018193Y005139D02*
X018648Y005139D01*
X018647Y005141D02*
X018194Y005141D01*
X018195Y005144D02*
X018646Y005144D01*
X018645Y005146D02*
X018196Y005146D01*
X018197Y005149D02*
X018644Y005149D01*
X018643Y005151D02*
X018198Y005151D01*
X018198Y005154D02*
X018642Y005154D01*
X018641Y005156D02*
X018199Y005156D01*
X018200Y005158D02*
X018640Y005158D01*
X018639Y005161D02*
X018201Y005161D01*
X018202Y005163D02*
X018638Y005163D01*
X018637Y005166D02*
X018203Y005166D01*
X018204Y005168D02*
X018636Y005168D01*
X018636Y005171D02*
X018204Y005171D01*
X018205Y005173D02*
X018635Y005173D01*
X018634Y005176D02*
X018207Y005176D01*
X018208Y005178D02*
X018633Y005178D01*
X018632Y005180D02*
X018210Y005180D01*
X018211Y005183D02*
X018631Y005183D01*
X018629Y005185D02*
X018212Y005185D01*
X018214Y005188D02*
X018628Y005188D01*
X018626Y005190D02*
X018215Y005190D01*
X018217Y005193D02*
X018624Y005193D01*
X018623Y005195D02*
X018218Y005195D01*
X018220Y005197D02*
X018621Y005197D01*
X018619Y005200D02*
X018221Y005200D01*
X018222Y005202D02*
X018618Y005202D01*
X018616Y005205D02*
X018224Y005205D01*
X018225Y005207D02*
X018614Y005207D01*
X018613Y005210D02*
X018227Y005210D01*
X018229Y005212D02*
X018611Y005212D01*
X018609Y005215D02*
X018231Y005215D01*
X018233Y005217D02*
X018608Y005217D01*
X018606Y005219D02*
X018235Y005219D01*
X018237Y005222D02*
X018604Y005222D01*
X018603Y005224D02*
X018239Y005224D01*
X018242Y005227D02*
X018601Y005227D01*
X018598Y005229D02*
X018244Y005229D01*
X018246Y005232D02*
X018595Y005232D01*
X018593Y005234D02*
X018248Y005234D01*
X018250Y005236D02*
X018590Y005236D01*
X018587Y005239D02*
X018252Y005239D01*
X018255Y005241D02*
X018585Y005241D01*
X018582Y005244D02*
X018257Y005244D01*
X018260Y005246D02*
X018580Y005246D01*
X018577Y005249D02*
X018263Y005249D01*
X018266Y005251D02*
X018574Y005251D01*
X018572Y005254D02*
X018269Y005254D01*
X018273Y005256D02*
X018569Y005256D01*
X018566Y005258D02*
X018276Y005258D01*
X018279Y005261D02*
X018564Y005261D01*
X018559Y005263D02*
X018282Y005263D01*
X018285Y005266D02*
X018555Y005266D01*
X018551Y005268D02*
X018289Y005268D01*
X018292Y005271D02*
X018547Y005271D01*
X018542Y005273D02*
X018296Y005273D01*
X018302Y005275D02*
X018538Y005275D01*
X018534Y005278D02*
X018307Y005278D01*
X018312Y005280D02*
X018530Y005280D01*
X018525Y005283D02*
X018317Y005283D01*
X018322Y005285D02*
X018521Y005285D01*
X018514Y005288D02*
X018327Y005288D01*
X018332Y005290D02*
X018506Y005290D01*
X018498Y005293D02*
X018340Y005293D01*
X018349Y005295D02*
X018490Y005295D01*
X018483Y005297D02*
X018359Y005297D01*
X018368Y005300D02*
X018475Y005300D01*
X018452Y005302D02*
X018382Y005302D01*
D47*
X023509Y005164D03*
X023509Y005951D03*
X028319Y014167D03*
X029106Y014167D03*
D48*
X029894Y014167D03*
X023509Y004377D03*
M02*
