G75*
G70*
%OFA0B0*%
%FSLAX24Y24*%
%IPPOS*%
%LPD*%
%AMOC8*
5,1,8,0,0,1.08239X$1,22.5*
%
%ADD10C,0.0050*%
%ADD11C,0.0000*%
%ADD12R,0.0197X0.0220*%
%ADD13R,0.0220X0.0197*%
%ADD14C,0.0450*%
%ADD15R,0.0236X0.0600*%
%ADD16R,0.0350X0.1450*%
%ADD17R,0.0394X0.0433*%
%ADD18R,0.0250X0.0197*%
%ADD19R,0.0472X0.0217*%
%ADD20R,0.0358X0.0480*%
%ADD21R,0.0551X0.0906*%
%ADD22R,0.0157X0.0551*%
%ADD23R,0.0354X0.0250*%
%ADD24R,0.0250X0.0354*%
%ADD25R,0.0315X0.0354*%
%ADD26R,0.0551X0.0236*%
%ADD27R,0.0551X0.1181*%
%ADD28R,0.0906X0.0551*%
%ADD29R,0.0118X0.0450*%
%ADD30R,0.0236X0.0450*%
%ADD31C,0.0004*%
D10*
X001677Y000927D02*
X033631Y000927D01*
X033630Y000927D02*
X033684Y000929D01*
X033738Y000934D01*
X033791Y000943D01*
X033844Y000956D01*
X033895Y000973D01*
X033945Y000993D01*
X033993Y001017D01*
X034040Y001044D01*
X034085Y001075D01*
X034127Y001108D01*
X034167Y001145D01*
X034204Y001184D01*
X034238Y001226D01*
X034269Y001270D01*
X034297Y001316D01*
X034321Y001364D01*
X034342Y001414D01*
X034360Y001465D01*
X034374Y001517D01*
X034384Y001570D01*
X034390Y001624D01*
X034392Y001677D01*
X034392Y017896D01*
X034392Y017895D02*
X034390Y017949D01*
X034383Y018003D01*
X034373Y018056D01*
X034360Y018108D01*
X034342Y018159D01*
X034321Y018209D01*
X034297Y018257D01*
X034269Y018303D01*
X034237Y018347D01*
X034203Y018388D01*
X034166Y018427D01*
X034126Y018464D01*
X034084Y018497D01*
X034040Y018528D01*
X033993Y018555D01*
X033945Y018578D01*
X033895Y018599D01*
X033843Y018615D01*
X033791Y018628D01*
X033738Y018637D01*
X033684Y018643D01*
X033631Y018644D01*
X001677Y018644D01*
X001624Y018642D01*
X001570Y018637D01*
X001518Y018627D01*
X001466Y018614D01*
X001415Y018597D01*
X001366Y018577D01*
X001318Y018553D01*
X001272Y018526D01*
X001228Y018495D01*
X001186Y018462D01*
X001147Y018425D01*
X001111Y018386D01*
X001077Y018345D01*
X001046Y018301D01*
X001019Y018255D01*
X000995Y018207D01*
X000975Y018158D01*
X000958Y018107D01*
X000944Y018055D01*
X000935Y018003D01*
X000929Y017949D01*
X000927Y017896D01*
X000927Y001677D01*
X000929Y001623D01*
X000935Y001570D01*
X000944Y001518D01*
X000957Y001466D01*
X000974Y001415D01*
X000995Y001365D01*
X001019Y001318D01*
X001046Y001272D01*
X001077Y001228D01*
X001110Y001186D01*
X001147Y001147D01*
X001186Y001110D01*
X001228Y001077D01*
X001272Y001046D01*
X001318Y001019D01*
X001365Y000995D01*
X001415Y000974D01*
X001466Y000957D01*
X001518Y000944D01*
X001570Y000935D01*
X001623Y000929D01*
X001677Y000927D01*
X003677Y002305D02*
X031642Y002305D01*
X031672Y002307D01*
X031702Y002312D01*
X031731Y002321D01*
X031758Y002334D01*
X031784Y002349D01*
X031808Y002368D01*
X031829Y002389D01*
X031848Y002413D01*
X031863Y002439D01*
X031876Y002466D01*
X031885Y002495D01*
X031890Y002525D01*
X031892Y002555D01*
X031892Y004570D01*
X025710Y004570D01*
X025710Y003477D01*
X025708Y003438D01*
X025702Y003399D01*
X025693Y003361D01*
X025680Y003324D01*
X025663Y003288D01*
X025643Y003255D01*
X025619Y003223D01*
X025593Y003194D01*
X025564Y003168D01*
X025532Y003144D01*
X025499Y003124D01*
X025463Y003107D01*
X025426Y003094D01*
X025388Y003085D01*
X025349Y003079D01*
X025310Y003077D01*
X018928Y003077D01*
X018928Y003078D02*
X018923Y003039D01*
X018914Y003001D01*
X018901Y002964D01*
X018885Y002929D01*
X018865Y002895D01*
X018842Y002863D01*
X018816Y002834D01*
X018787Y002808D01*
X018756Y002785D01*
X018722Y002764D01*
X018687Y002748D01*
X018650Y002734D01*
X018613Y002725D01*
X018574Y002719D01*
X018535Y002717D01*
X018496Y002719D01*
X018457Y002725D01*
X018420Y002734D01*
X018383Y002748D01*
X018348Y002764D01*
X018314Y002785D01*
X018283Y002808D01*
X018254Y002834D01*
X018228Y002863D01*
X018205Y002895D01*
X018185Y002929D01*
X018169Y002964D01*
X018156Y003001D01*
X018147Y003039D01*
X018142Y003078D01*
X018141Y003077D02*
X015298Y003077D01*
X015298Y003078D02*
X015293Y003039D01*
X015284Y003001D01*
X015271Y002964D01*
X015255Y002929D01*
X015235Y002895D01*
X015212Y002863D01*
X015186Y002834D01*
X015157Y002808D01*
X015126Y002785D01*
X015092Y002764D01*
X015057Y002748D01*
X015020Y002734D01*
X014983Y002725D01*
X014944Y002719D01*
X014905Y002717D01*
X014866Y002719D01*
X014827Y002725D01*
X014790Y002734D01*
X014753Y002748D01*
X014718Y002764D01*
X014684Y002785D01*
X014653Y002808D01*
X014624Y002834D01*
X014598Y002863D01*
X014575Y002895D01*
X014555Y002929D01*
X014539Y002964D01*
X014526Y003001D01*
X014517Y003039D01*
X014512Y003078D01*
X014511Y003077D02*
X005110Y003077D01*
X005085Y003082D01*
X005062Y003091D01*
X005039Y003103D01*
X005019Y003118D01*
X005001Y003136D01*
X004986Y003156D01*
X004974Y003178D01*
X004965Y003202D01*
X004960Y003227D01*
X004958Y003252D01*
X004960Y003277D01*
X004960Y003683D01*
X003427Y003683D01*
X003427Y002527D01*
X003431Y002499D01*
X003438Y002471D01*
X003448Y002444D01*
X003461Y002419D01*
X003477Y002396D01*
X003496Y002374D01*
X003517Y002355D01*
X003541Y002339D01*
X003566Y002326D01*
X003593Y002316D01*
X003620Y002309D01*
X003648Y002305D01*
X003677Y002305D01*
X003427Y004671D02*
X004960Y004671D01*
X004960Y005127D01*
X003427Y004671D02*
X003427Y011245D01*
X004994Y011245D01*
X004994Y010564D01*
X004996Y010525D01*
X005002Y010486D01*
X005011Y010448D01*
X005024Y010411D01*
X005041Y010375D01*
X005061Y010342D01*
X005085Y010310D01*
X005111Y010281D01*
X005140Y010255D01*
X005172Y010231D01*
X005205Y010211D01*
X005241Y010194D01*
X005278Y010181D01*
X005316Y010172D01*
X005355Y010166D01*
X005394Y010164D01*
X030138Y010164D01*
X030177Y010166D01*
X030216Y010172D01*
X030254Y010181D01*
X030291Y010194D01*
X030327Y010211D01*
X030360Y010231D01*
X030392Y010255D01*
X030421Y010281D01*
X030447Y010310D01*
X030471Y010342D01*
X030491Y010375D01*
X030508Y010411D01*
X030521Y010448D01*
X030530Y010486D01*
X030536Y010525D01*
X030538Y010564D01*
X030538Y012220D01*
X031892Y012220D01*
X031892Y008810D01*
X031192Y008810D01*
X031169Y008814D01*
X031147Y008821D01*
X031126Y008831D01*
X031107Y008844D01*
X031090Y008860D01*
X031076Y008878D01*
X031064Y008898D01*
X031055Y008919D01*
X031049Y008941D01*
X031046Y008964D01*
X031047Y008987D01*
X031046Y008988D02*
X031046Y009050D01*
X031046Y009073D01*
X031042Y009096D01*
X031036Y009118D01*
X031026Y009139D01*
X031014Y009158D01*
X030999Y009175D01*
X030981Y009190D01*
X030962Y009203D01*
X030941Y009212D01*
X030919Y009218D01*
X030896Y009222D01*
X029019Y009222D01*
X028969Y009184D01*
X028921Y009143D01*
X028876Y009099D01*
X028834Y009053D01*
X028794Y009004D01*
X028758Y008952D01*
X028725Y008899D01*
X028695Y008844D01*
X028668Y008787D01*
X028645Y008728D01*
X028626Y008668D01*
X028610Y008607D01*
X028598Y008546D01*
X028589Y008483D01*
X028585Y008420D01*
X028584Y008358D01*
X028587Y008295D01*
X028594Y008232D01*
X028605Y008170D01*
X028619Y008109D01*
X028637Y008049D01*
X028659Y007990D01*
X028684Y007932D01*
X028713Y007876D01*
X028745Y007822D01*
X028780Y007770D01*
X028818Y007720D01*
X028859Y007672D01*
X028904Y007627D01*
X028950Y007585D01*
X028999Y007546D01*
X029051Y007510D01*
X029104Y007477D01*
X029160Y007447D01*
X029217Y007421D01*
X029275Y007398D01*
X029335Y007379D01*
X029396Y007363D01*
X029458Y007351D01*
X029520Y007343D01*
X029583Y007339D01*
X029646Y007338D01*
X029709Y007342D01*
X029771Y007349D01*
X029833Y007360D01*
X029895Y007374D01*
X029955Y007392D01*
X030014Y007414D01*
X030071Y007440D01*
X030267Y007440D01*
X030293Y007438D01*
X030318Y007433D01*
X030342Y007424D01*
X030364Y007411D01*
X030385Y007396D01*
X030403Y007378D01*
X030418Y007357D01*
X030431Y007335D01*
X030440Y007311D01*
X030445Y007286D01*
X030447Y007260D01*
X030447Y007147D01*
X030448Y007147D02*
X030450Y007114D01*
X030455Y007080D01*
X030465Y007048D01*
X030478Y007017D01*
X030494Y006988D01*
X030513Y006961D01*
X030536Y006936D01*
X030561Y006913D01*
X030588Y006894D01*
X030617Y006878D01*
X030648Y006865D01*
X030680Y006855D01*
X030714Y006850D01*
X030747Y006848D01*
X030780Y006850D01*
X030814Y006855D01*
X030846Y006865D01*
X030877Y006878D01*
X030906Y006894D01*
X030933Y006913D01*
X030958Y006936D01*
X030981Y006961D01*
X031000Y006988D01*
X031016Y007017D01*
X031029Y007048D01*
X031039Y007080D01*
X031044Y007114D01*
X031046Y007147D01*
X031046Y007761D01*
X031047Y007761D02*
X031050Y007784D01*
X031057Y007806D01*
X031067Y007827D01*
X031080Y007847D01*
X031095Y007864D01*
X031113Y007879D01*
X031133Y007891D01*
X031154Y007901D01*
X031177Y007907D01*
X031200Y007910D01*
X031223Y007909D01*
X031223Y007910D02*
X031892Y007910D01*
X031892Y006158D01*
X025710Y006158D01*
X025710Y008677D01*
X025708Y008716D01*
X025702Y008755D01*
X025693Y008793D01*
X025680Y008830D01*
X025663Y008866D01*
X025643Y008899D01*
X025619Y008931D01*
X025593Y008960D01*
X025564Y008986D01*
X025532Y009010D01*
X025499Y009030D01*
X025463Y009047D01*
X025426Y009060D01*
X025388Y009069D01*
X025349Y009075D01*
X025310Y009077D01*
X006960Y009077D01*
X006921Y009075D01*
X006882Y009069D01*
X006844Y009060D01*
X006807Y009047D01*
X006771Y009030D01*
X006738Y009010D01*
X006706Y008986D01*
X006677Y008960D01*
X006651Y008931D01*
X006627Y008899D01*
X006607Y008866D01*
X006590Y008830D01*
X006577Y008793D01*
X006568Y008755D01*
X006562Y008716D01*
X006560Y008677D01*
X006534Y008413D01*
X006496Y008151D01*
X006446Y007891D01*
X006384Y007633D01*
X006310Y007379D01*
X006224Y007129D01*
X006126Y006882D01*
X006017Y006641D01*
X005897Y006404D01*
X005767Y006174D01*
X005625Y005950D01*
X005473Y005733D01*
X005312Y005523D01*
X005141Y005321D01*
X004960Y005127D01*
X004994Y012233D02*
X003427Y012233D01*
X003427Y016586D01*
X003429Y016616D01*
X003434Y016646D01*
X003443Y016675D01*
X003456Y016702D01*
X003471Y016728D01*
X003490Y016752D01*
X003511Y016773D01*
X003535Y016792D01*
X003561Y016807D01*
X003588Y016820D01*
X003617Y016829D01*
X003647Y016834D01*
X003677Y016836D01*
X031642Y016836D01*
X031672Y016834D01*
X031702Y016829D01*
X031731Y016820D01*
X031758Y016807D01*
X031784Y016792D01*
X031808Y016773D01*
X031829Y016752D01*
X031848Y016728D01*
X031863Y016702D01*
X031876Y016675D01*
X031885Y016646D01*
X031890Y016616D01*
X031892Y016586D01*
X031892Y014008D01*
X030538Y014008D01*
X030538Y015914D01*
X030536Y015937D01*
X030531Y015960D01*
X030522Y015982D01*
X030509Y016002D01*
X030494Y016020D01*
X030476Y016035D01*
X030456Y016048D01*
X030434Y016057D01*
X030411Y016062D01*
X030388Y016064D01*
X008410Y016064D01*
X008371Y016062D01*
X008332Y016056D01*
X008294Y016047D01*
X008257Y016034D01*
X008221Y016017D01*
X008188Y015997D01*
X008156Y015973D01*
X008127Y015947D01*
X008101Y015918D01*
X008077Y015886D01*
X008057Y015853D01*
X008040Y015817D01*
X008027Y015780D01*
X008018Y015742D01*
X008012Y015703D01*
X008010Y015664D01*
X008010Y013714D01*
X008008Y013675D01*
X008002Y013636D01*
X007993Y013598D01*
X007980Y013561D01*
X007963Y013525D01*
X007943Y013492D01*
X007919Y013460D01*
X007893Y013431D01*
X007864Y013405D01*
X007832Y013381D01*
X007799Y013361D01*
X007763Y013344D01*
X007726Y013331D01*
X007688Y013322D01*
X007649Y013316D01*
X007610Y013314D01*
X005394Y013314D01*
X005355Y013312D01*
X005316Y013306D01*
X005278Y013297D01*
X005241Y013284D01*
X005205Y013267D01*
X005172Y013247D01*
X005140Y013223D01*
X005111Y013197D01*
X005085Y013168D01*
X005061Y013136D01*
X005041Y013103D01*
X005024Y013067D01*
X005011Y013030D01*
X005002Y012992D01*
X004996Y012953D01*
X004994Y012914D01*
X004994Y012233D01*
D11*
X001440Y015215D02*
X001442Y015263D01*
X001448Y015311D01*
X001458Y015358D01*
X001471Y015404D01*
X001489Y015449D01*
X001509Y015493D01*
X001534Y015535D01*
X001562Y015574D01*
X001592Y015611D01*
X001626Y015645D01*
X001663Y015677D01*
X001701Y015706D01*
X001742Y015731D01*
X001785Y015753D01*
X001830Y015771D01*
X001876Y015785D01*
X001923Y015796D01*
X001971Y015803D01*
X002019Y015806D01*
X002067Y015805D01*
X002115Y015800D01*
X002163Y015791D01*
X002209Y015779D01*
X002254Y015762D01*
X002298Y015742D01*
X002340Y015719D01*
X002380Y015692D01*
X002418Y015662D01*
X002453Y015629D01*
X002485Y015593D01*
X002515Y015555D01*
X002541Y015514D01*
X002563Y015471D01*
X002583Y015427D01*
X002598Y015382D01*
X002610Y015335D01*
X002618Y015287D01*
X002622Y015239D01*
X002622Y015191D01*
X002618Y015143D01*
X002610Y015095D01*
X002598Y015048D01*
X002583Y015003D01*
X002563Y014959D01*
X002541Y014916D01*
X002515Y014875D01*
X002485Y014837D01*
X002453Y014801D01*
X002418Y014768D01*
X002380Y014738D01*
X002340Y014711D01*
X002298Y014688D01*
X002254Y014668D01*
X002209Y014651D01*
X002163Y014639D01*
X002115Y014630D01*
X002067Y014625D01*
X002019Y014624D01*
X001971Y014627D01*
X001923Y014634D01*
X001876Y014645D01*
X001830Y014659D01*
X001785Y014677D01*
X001742Y014699D01*
X001701Y014724D01*
X001663Y014753D01*
X001626Y014785D01*
X001592Y014819D01*
X001562Y014856D01*
X001534Y014895D01*
X001509Y014937D01*
X001489Y014981D01*
X001471Y015026D01*
X001458Y015072D01*
X001448Y015119D01*
X001442Y015167D01*
X001440Y015215D01*
X007182Y005080D02*
X007184Y005120D01*
X007190Y005159D01*
X007200Y005198D01*
X007213Y005235D01*
X007231Y005271D01*
X007252Y005305D01*
X007276Y005337D01*
X007303Y005366D01*
X007333Y005393D01*
X007365Y005416D01*
X007400Y005436D01*
X007436Y005452D01*
X007474Y005465D01*
X007513Y005474D01*
X007552Y005479D01*
X007592Y005480D01*
X007632Y005477D01*
X007671Y005470D01*
X007709Y005459D01*
X007747Y005445D01*
X007782Y005426D01*
X007815Y005405D01*
X007847Y005380D01*
X007875Y005352D01*
X007901Y005322D01*
X007923Y005289D01*
X007942Y005254D01*
X007958Y005217D01*
X007970Y005179D01*
X007978Y005140D01*
X007982Y005100D01*
X007982Y005060D01*
X007978Y005020D01*
X007970Y004981D01*
X007958Y004943D01*
X007942Y004906D01*
X007923Y004871D01*
X007901Y004838D01*
X007875Y004808D01*
X007847Y004780D01*
X007815Y004755D01*
X007782Y004734D01*
X007747Y004715D01*
X007709Y004701D01*
X007671Y004690D01*
X007632Y004683D01*
X007592Y004680D01*
X007552Y004681D01*
X007513Y004686D01*
X007474Y004695D01*
X007436Y004708D01*
X007400Y004724D01*
X007365Y004744D01*
X007333Y004767D01*
X007303Y004794D01*
X007276Y004823D01*
X007252Y004855D01*
X007231Y004889D01*
X007213Y004925D01*
X007200Y004962D01*
X007190Y005001D01*
X007184Y005040D01*
X007182Y005080D01*
X009001Y004288D02*
X009003Y004318D01*
X009009Y004348D01*
X009018Y004377D01*
X009031Y004404D01*
X009048Y004429D01*
X009067Y004452D01*
X009090Y004473D01*
X009115Y004490D01*
X009141Y004504D01*
X009170Y004514D01*
X009199Y004521D01*
X009229Y004524D01*
X009260Y004523D01*
X009290Y004518D01*
X009319Y004509D01*
X009346Y004497D01*
X009372Y004482D01*
X009396Y004463D01*
X009417Y004441D01*
X009435Y004417D01*
X009450Y004390D01*
X009461Y004362D01*
X009469Y004333D01*
X009473Y004303D01*
X009473Y004273D01*
X009469Y004243D01*
X009461Y004214D01*
X009450Y004186D01*
X009435Y004159D01*
X009417Y004135D01*
X009396Y004113D01*
X009372Y004094D01*
X009346Y004079D01*
X009319Y004067D01*
X009290Y004058D01*
X009260Y004053D01*
X009229Y004052D01*
X009199Y004055D01*
X009170Y004062D01*
X009141Y004072D01*
X009115Y004086D01*
X009090Y004103D01*
X009067Y004124D01*
X009048Y004147D01*
X009031Y004172D01*
X009018Y004199D01*
X009009Y004228D01*
X009003Y004258D01*
X009001Y004288D01*
X011560Y004288D02*
X011562Y004318D01*
X011568Y004348D01*
X011577Y004377D01*
X011590Y004404D01*
X011607Y004429D01*
X011626Y004452D01*
X011649Y004473D01*
X011674Y004490D01*
X011700Y004504D01*
X011729Y004514D01*
X011758Y004521D01*
X011788Y004524D01*
X011819Y004523D01*
X011849Y004518D01*
X011878Y004509D01*
X011905Y004497D01*
X011931Y004482D01*
X011955Y004463D01*
X011976Y004441D01*
X011994Y004417D01*
X012009Y004390D01*
X012020Y004362D01*
X012028Y004333D01*
X012032Y004303D01*
X012032Y004273D01*
X012028Y004243D01*
X012020Y004214D01*
X012009Y004186D01*
X011994Y004159D01*
X011976Y004135D01*
X011955Y004113D01*
X011931Y004094D01*
X011905Y004079D01*
X011878Y004067D01*
X011849Y004058D01*
X011819Y004053D01*
X011788Y004052D01*
X011758Y004055D01*
X011729Y004062D01*
X011700Y004072D01*
X011674Y004086D01*
X011649Y004103D01*
X011626Y004124D01*
X011607Y004147D01*
X011590Y004172D01*
X011577Y004199D01*
X011568Y004228D01*
X011562Y004258D01*
X011560Y004288D01*
X013487Y005080D02*
X013489Y005120D01*
X013495Y005159D01*
X013505Y005198D01*
X013518Y005235D01*
X013536Y005271D01*
X013557Y005305D01*
X013581Y005337D01*
X013608Y005366D01*
X013638Y005393D01*
X013670Y005416D01*
X013705Y005436D01*
X013741Y005452D01*
X013779Y005465D01*
X013818Y005474D01*
X013857Y005479D01*
X013897Y005480D01*
X013937Y005477D01*
X013976Y005470D01*
X014014Y005459D01*
X014052Y005445D01*
X014087Y005426D01*
X014120Y005405D01*
X014152Y005380D01*
X014180Y005352D01*
X014206Y005322D01*
X014228Y005289D01*
X014247Y005254D01*
X014263Y005217D01*
X014275Y005179D01*
X014283Y005140D01*
X014287Y005100D01*
X014287Y005060D01*
X014283Y005020D01*
X014275Y004981D01*
X014263Y004943D01*
X014247Y004906D01*
X014228Y004871D01*
X014206Y004838D01*
X014180Y004808D01*
X014152Y004780D01*
X014120Y004755D01*
X014087Y004734D01*
X014052Y004715D01*
X014014Y004701D01*
X013976Y004690D01*
X013937Y004683D01*
X013897Y004680D01*
X013857Y004681D01*
X013818Y004686D01*
X013779Y004695D01*
X013741Y004708D01*
X013705Y004724D01*
X013670Y004744D01*
X013638Y004767D01*
X013608Y004794D01*
X013581Y004823D01*
X013557Y004855D01*
X013536Y004889D01*
X013518Y004925D01*
X013505Y004962D01*
X013495Y005001D01*
X013489Y005040D01*
X013487Y005080D01*
X015196Y004757D02*
X015198Y004782D01*
X015204Y004807D01*
X015213Y004830D01*
X015226Y004852D01*
X015242Y004871D01*
X015261Y004888D01*
X015282Y004902D01*
X015305Y004912D01*
X015330Y004919D01*
X015355Y004922D01*
X015380Y004921D01*
X015405Y004916D01*
X015428Y004908D01*
X015451Y004895D01*
X015471Y004880D01*
X015488Y004862D01*
X015503Y004841D01*
X015514Y004819D01*
X015522Y004795D01*
X015526Y004770D01*
X015526Y004744D01*
X015522Y004719D01*
X015514Y004695D01*
X015503Y004673D01*
X015488Y004652D01*
X015471Y004634D01*
X015451Y004619D01*
X015428Y004606D01*
X015405Y004598D01*
X015380Y004593D01*
X015355Y004592D01*
X015330Y004595D01*
X015305Y004602D01*
X015282Y004612D01*
X015261Y004626D01*
X015242Y004643D01*
X015226Y004662D01*
X015213Y004684D01*
X015204Y004707D01*
X015198Y004732D01*
X015196Y004757D01*
X017913Y004757D02*
X017915Y004782D01*
X017921Y004807D01*
X017930Y004830D01*
X017943Y004852D01*
X017959Y004871D01*
X017978Y004888D01*
X017999Y004902D01*
X018022Y004912D01*
X018047Y004919D01*
X018072Y004922D01*
X018097Y004921D01*
X018122Y004916D01*
X018145Y004908D01*
X018168Y004895D01*
X018188Y004880D01*
X018205Y004862D01*
X018220Y004841D01*
X018231Y004819D01*
X018239Y004795D01*
X018243Y004770D01*
X018243Y004744D01*
X018239Y004719D01*
X018231Y004695D01*
X018220Y004673D01*
X018205Y004652D01*
X018188Y004634D01*
X018168Y004619D01*
X018145Y004606D01*
X018122Y004598D01*
X018097Y004593D01*
X018072Y004592D01*
X018047Y004595D01*
X018022Y004602D01*
X017999Y004612D01*
X017978Y004626D01*
X017959Y004643D01*
X017943Y004662D01*
X017930Y004684D01*
X017921Y004707D01*
X017915Y004732D01*
X017913Y004757D01*
X032687Y002959D02*
X032689Y003007D01*
X032695Y003055D01*
X032705Y003102D01*
X032718Y003148D01*
X032736Y003193D01*
X032756Y003237D01*
X032781Y003279D01*
X032809Y003318D01*
X032839Y003355D01*
X032873Y003389D01*
X032910Y003421D01*
X032948Y003450D01*
X032989Y003475D01*
X033032Y003497D01*
X033077Y003515D01*
X033123Y003529D01*
X033170Y003540D01*
X033218Y003547D01*
X033266Y003550D01*
X033314Y003549D01*
X033362Y003544D01*
X033410Y003535D01*
X033456Y003523D01*
X033501Y003506D01*
X033545Y003486D01*
X033587Y003463D01*
X033627Y003436D01*
X033665Y003406D01*
X033700Y003373D01*
X033732Y003337D01*
X033762Y003299D01*
X033788Y003258D01*
X033810Y003215D01*
X033830Y003171D01*
X033845Y003126D01*
X033857Y003079D01*
X033865Y003031D01*
X033869Y002983D01*
X033869Y002935D01*
X033865Y002887D01*
X033857Y002839D01*
X033845Y002792D01*
X033830Y002747D01*
X033810Y002703D01*
X033788Y002660D01*
X033762Y002619D01*
X033732Y002581D01*
X033700Y002545D01*
X033665Y002512D01*
X033627Y002482D01*
X033587Y002455D01*
X033545Y002432D01*
X033501Y002412D01*
X033456Y002395D01*
X033410Y002383D01*
X033362Y002374D01*
X033314Y002369D01*
X033266Y002368D01*
X033218Y002371D01*
X033170Y002378D01*
X033123Y002389D01*
X033077Y002403D01*
X033032Y002421D01*
X032989Y002443D01*
X032948Y002468D01*
X032910Y002497D01*
X032873Y002529D01*
X032839Y002563D01*
X032809Y002600D01*
X032781Y002639D01*
X032756Y002681D01*
X032736Y002725D01*
X032718Y002770D01*
X032705Y002816D01*
X032695Y002863D01*
X032689Y002911D01*
X032687Y002959D01*
X032687Y015215D02*
X032689Y015263D01*
X032695Y015311D01*
X032705Y015358D01*
X032718Y015404D01*
X032736Y015449D01*
X032756Y015493D01*
X032781Y015535D01*
X032809Y015574D01*
X032839Y015611D01*
X032873Y015645D01*
X032910Y015677D01*
X032948Y015706D01*
X032989Y015731D01*
X033032Y015753D01*
X033077Y015771D01*
X033123Y015785D01*
X033170Y015796D01*
X033218Y015803D01*
X033266Y015806D01*
X033314Y015805D01*
X033362Y015800D01*
X033410Y015791D01*
X033456Y015779D01*
X033501Y015762D01*
X033545Y015742D01*
X033587Y015719D01*
X033627Y015692D01*
X033665Y015662D01*
X033700Y015629D01*
X033732Y015593D01*
X033762Y015555D01*
X033788Y015514D01*
X033810Y015471D01*
X033830Y015427D01*
X033845Y015382D01*
X033857Y015335D01*
X033865Y015287D01*
X033869Y015239D01*
X033869Y015191D01*
X033865Y015143D01*
X033857Y015095D01*
X033845Y015048D01*
X033830Y015003D01*
X033810Y014959D01*
X033788Y014916D01*
X033762Y014875D01*
X033732Y014837D01*
X033700Y014801D01*
X033665Y014768D01*
X033627Y014738D01*
X033587Y014711D01*
X033545Y014688D01*
X033501Y014668D01*
X033456Y014651D01*
X033410Y014639D01*
X033362Y014630D01*
X033314Y014625D01*
X033266Y014624D01*
X033218Y014627D01*
X033170Y014634D01*
X033123Y014645D01*
X033077Y014659D01*
X033032Y014677D01*
X032989Y014699D01*
X032948Y014724D01*
X032910Y014753D01*
X032873Y014785D01*
X032839Y014819D01*
X032809Y014856D01*
X032781Y014895D01*
X032756Y014937D01*
X032736Y014981D01*
X032718Y015026D01*
X032705Y015072D01*
X032695Y015119D01*
X032689Y015167D01*
X032687Y015215D01*
X001440Y002959D02*
X001442Y003007D01*
X001448Y003055D01*
X001458Y003102D01*
X001471Y003148D01*
X001489Y003193D01*
X001509Y003237D01*
X001534Y003279D01*
X001562Y003318D01*
X001592Y003355D01*
X001626Y003389D01*
X001663Y003421D01*
X001701Y003450D01*
X001742Y003475D01*
X001785Y003497D01*
X001830Y003515D01*
X001876Y003529D01*
X001923Y003540D01*
X001971Y003547D01*
X002019Y003550D01*
X002067Y003549D01*
X002115Y003544D01*
X002163Y003535D01*
X002209Y003523D01*
X002254Y003506D01*
X002298Y003486D01*
X002340Y003463D01*
X002380Y003436D01*
X002418Y003406D01*
X002453Y003373D01*
X002485Y003337D01*
X002515Y003299D01*
X002541Y003258D01*
X002563Y003215D01*
X002583Y003171D01*
X002598Y003126D01*
X002610Y003079D01*
X002618Y003031D01*
X002622Y002983D01*
X002622Y002935D01*
X002618Y002887D01*
X002610Y002839D01*
X002598Y002792D01*
X002583Y002747D01*
X002563Y002703D01*
X002541Y002660D01*
X002515Y002619D01*
X002485Y002581D01*
X002453Y002545D01*
X002418Y002512D01*
X002380Y002482D01*
X002340Y002455D01*
X002298Y002432D01*
X002254Y002412D01*
X002209Y002395D01*
X002163Y002383D01*
X002115Y002374D01*
X002067Y002369D01*
X002019Y002368D01*
X001971Y002371D01*
X001923Y002378D01*
X001876Y002389D01*
X001830Y002403D01*
X001785Y002421D01*
X001742Y002443D01*
X001701Y002468D01*
X001663Y002497D01*
X001626Y002529D01*
X001592Y002563D01*
X001562Y002600D01*
X001534Y002639D01*
X001509Y002681D01*
X001489Y002725D01*
X001471Y002770D01*
X001458Y002816D01*
X001448Y002863D01*
X001442Y002911D01*
X001440Y002959D01*
D12*
X014944Y012305D03*
X014944Y012752D03*
X019884Y011038D03*
X020284Y011038D03*
X020684Y011038D03*
X021084Y011038D03*
X021084Y010592D03*
X020684Y010592D03*
X020284Y010592D03*
X019884Y010592D03*
X019358Y008195D03*
X019358Y007749D03*
X019358Y007295D03*
X019358Y006849D03*
X019358Y006405D03*
X019358Y005958D03*
D13*
X019974Y005249D03*
X020421Y005249D03*
X020421Y004823D03*
X019974Y004823D03*
X020868Y004823D03*
X021315Y004823D03*
X021315Y005249D03*
X020868Y005249D03*
X019724Y003789D03*
X019278Y003789D03*
X019278Y003379D03*
X019724Y003379D03*
X029323Y007682D03*
X029770Y007682D03*
X029770Y008042D03*
X029770Y008402D03*
X029323Y008402D03*
X029323Y008042D03*
X029323Y008762D03*
X029770Y008762D03*
X024859Y010477D03*
X024412Y010477D03*
X024412Y010888D03*
X024859Y010888D03*
X020189Y012047D03*
X019742Y012047D03*
X019289Y012047D03*
X018842Y012047D03*
X018389Y012047D03*
X018389Y011616D03*
X018842Y011616D03*
X019289Y011616D03*
X018389Y011190D03*
X017942Y011190D03*
X017942Y011616D03*
X017942Y012047D03*
X012628Y010827D03*
X012182Y010827D03*
X011728Y010827D03*
X011282Y010827D03*
D14*
X030746Y008752D03*
X030746Y007952D03*
X030746Y007152D03*
D15*
X012353Y013647D03*
X011959Y013647D03*
D16*
X011347Y014692D03*
X012964Y014692D03*
D17*
X023509Y012627D03*
X024219Y012627D03*
X025493Y012477D03*
X026203Y012477D03*
X017262Y007780D03*
X016553Y007780D03*
X015762Y007781D03*
X015053Y007781D03*
X015053Y007130D03*
X015762Y007130D03*
X016553Y007130D03*
X017262Y007130D03*
D18*
X015645Y010512D03*
X015205Y010512D03*
D19*
X025610Y010988D03*
X025610Y011362D03*
X025610Y011736D03*
X026634Y011736D03*
X026634Y011362D03*
X026634Y010988D03*
D20*
X024859Y011827D03*
X023569Y011827D03*
X012600Y011477D03*
X011310Y011477D03*
D21*
X024887Y013712D03*
X026284Y013712D03*
D22*
X018742Y008080D03*
X018486Y008080D03*
X018230Y008080D03*
X017974Y008080D03*
X017974Y006347D03*
X018230Y006347D03*
X018486Y006347D03*
X018742Y006347D03*
D23*
X019970Y006301D03*
X019970Y005754D03*
X019972Y006854D03*
X019972Y007401D03*
X019972Y007954D03*
X019972Y008501D03*
X014341Y012255D03*
X014341Y012802D03*
D24*
X014369Y013355D03*
X014915Y013355D03*
X016872Y011289D03*
X017418Y011289D03*
X023441Y013612D03*
X023988Y013612D03*
D25*
X012329Y012154D03*
X011581Y012154D03*
X011955Y013010D03*
D26*
X017822Y013038D03*
X017822Y012538D03*
X017822Y013538D03*
X017822Y014038D03*
X019909Y014038D03*
X019909Y013538D03*
X019909Y013038D03*
X019909Y012538D03*
D27*
X018866Y013288D03*
D28*
X016292Y013660D03*
X016292Y012262D03*
D29*
X016228Y005203D03*
X016424Y005203D03*
X016621Y005203D03*
X016818Y005203D03*
X017015Y005203D03*
X017212Y005203D03*
X017409Y005203D03*
X016031Y005203D03*
D30*
X015755Y005203D03*
X015450Y005203D03*
X017684Y005203D03*
X017989Y005203D03*
D31*
X018339Y005192D02*
X018342Y005236D01*
X018355Y005279D01*
X018377Y005317D01*
X018694Y005317D01*
X018696Y005314D02*
X018375Y005314D01*
X018374Y005312D02*
X018697Y005312D01*
X018699Y005310D02*
X018372Y005310D01*
X018371Y005307D02*
X018701Y005307D01*
X018702Y005305D02*
X018370Y005305D01*
X018368Y005302D02*
X018704Y005302D01*
X018706Y005300D02*
X018367Y005300D01*
X018365Y005297D02*
X018707Y005297D01*
X018709Y005296D02*
X018725Y005255D01*
X018732Y005212D01*
X018732Y004740D01*
X018724Y004698D01*
X018706Y004660D01*
X018680Y004627D01*
X018648Y004600D01*
X018610Y004581D01*
X018570Y004571D01*
X018485Y004571D01*
X018489Y004570D02*
X018452Y004579D01*
X018418Y004595D01*
X018388Y004619D01*
X018364Y004648D01*
X018347Y004683D01*
X018717Y004683D01*
X018716Y004681D02*
X018348Y004681D01*
X018347Y004683D02*
X018339Y004720D01*
X018339Y005192D01*
X018339Y005193D02*
X018732Y005193D01*
X018732Y005195D02*
X018339Y005195D01*
X018339Y005197D02*
X018732Y005197D01*
X018732Y005200D02*
X018339Y005200D01*
X018339Y005202D02*
X018732Y005202D01*
X018732Y005205D02*
X018339Y005205D01*
X018340Y005207D02*
X018732Y005207D01*
X018732Y005210D02*
X018340Y005210D01*
X018340Y005212D02*
X018732Y005212D01*
X018732Y005215D02*
X018340Y005215D01*
X018340Y005217D02*
X018731Y005217D01*
X018731Y005219D02*
X018341Y005219D01*
X018341Y005222D02*
X018731Y005222D01*
X018730Y005224D02*
X018341Y005224D01*
X018341Y005227D02*
X018730Y005227D01*
X018729Y005229D02*
X018341Y005229D01*
X018341Y005232D02*
X018729Y005232D01*
X018729Y005234D02*
X018342Y005234D01*
X018342Y005236D02*
X018728Y005236D01*
X018728Y005239D02*
X018343Y005239D01*
X018343Y005241D02*
X018727Y005241D01*
X018727Y005244D02*
X018344Y005244D01*
X018345Y005246D02*
X018727Y005246D01*
X018726Y005249D02*
X018346Y005249D01*
X018346Y005251D02*
X018726Y005251D01*
X018725Y005254D02*
X018347Y005254D01*
X018348Y005256D02*
X018725Y005256D01*
X018724Y005258D02*
X018349Y005258D01*
X018349Y005261D02*
X018723Y005261D01*
X018722Y005263D02*
X018350Y005263D01*
X018351Y005266D02*
X018721Y005266D01*
X018720Y005268D02*
X018351Y005268D01*
X018352Y005271D02*
X018719Y005271D01*
X018718Y005273D02*
X018353Y005273D01*
X018354Y005275D02*
X018717Y005275D01*
X018716Y005278D02*
X018354Y005278D01*
X018356Y005280D02*
X018715Y005280D01*
X018714Y005283D02*
X018357Y005283D01*
X018358Y005285D02*
X018713Y005285D01*
X018712Y005288D02*
X018360Y005288D01*
X018361Y005290D02*
X018711Y005290D01*
X018710Y005293D02*
X018363Y005293D01*
X018364Y005295D02*
X018709Y005295D01*
X018709Y005296D02*
X018684Y005331D01*
X018651Y005361D01*
X018423Y005361D01*
X018420Y005358D02*
X018654Y005358D01*
X018657Y005356D02*
X018416Y005356D01*
X018413Y005353D02*
X018659Y005353D01*
X018662Y005351D02*
X018409Y005351D01*
X018407Y005349D02*
X018443Y005374D01*
X018484Y005390D01*
X018528Y005397D01*
X018571Y005394D01*
X018613Y005382D01*
X018651Y005361D01*
X018647Y005363D02*
X018427Y005363D01*
X018430Y005366D02*
X018642Y005366D01*
X018638Y005368D02*
X018434Y005368D01*
X018438Y005371D02*
X018634Y005371D01*
X018629Y005373D02*
X018441Y005373D01*
X018446Y005375D02*
X018625Y005375D01*
X018621Y005378D02*
X018452Y005378D01*
X018458Y005380D02*
X018616Y005380D01*
X018611Y005383D02*
X018464Y005383D01*
X018471Y005385D02*
X018603Y005385D01*
X018594Y005388D02*
X018477Y005388D01*
X018483Y005390D02*
X018586Y005390D01*
X018578Y005392D02*
X018497Y005392D01*
X018513Y005395D02*
X018563Y005395D01*
X018665Y005349D02*
X018406Y005349D01*
X018407Y005349D02*
X018377Y005317D01*
X018379Y005319D02*
X018692Y005319D01*
X018690Y005322D02*
X018381Y005322D01*
X018383Y005324D02*
X018689Y005324D01*
X018687Y005327D02*
X018386Y005327D01*
X018388Y005329D02*
X018685Y005329D01*
X018684Y005332D02*
X018390Y005332D01*
X018392Y005334D02*
X018681Y005334D01*
X018678Y005336D02*
X018395Y005336D01*
X018397Y005339D02*
X018675Y005339D01*
X018673Y005341D02*
X018399Y005341D01*
X018401Y005344D02*
X018670Y005344D01*
X018667Y005346D02*
X018404Y005346D01*
X018339Y005190D02*
X018732Y005190D01*
X018732Y005188D02*
X018339Y005188D01*
X018339Y005185D02*
X018732Y005185D01*
X018732Y005183D02*
X018339Y005183D01*
X018339Y005180D02*
X018732Y005180D01*
X018732Y005178D02*
X018339Y005178D01*
X018339Y005176D02*
X018732Y005176D01*
X018732Y005173D02*
X018339Y005173D01*
X018339Y005171D02*
X018732Y005171D01*
X018732Y005168D02*
X018339Y005168D01*
X018339Y005166D02*
X018732Y005166D01*
X018732Y005163D02*
X018339Y005163D01*
X018339Y005161D02*
X018732Y005161D01*
X018732Y005158D02*
X018339Y005158D01*
X018339Y005156D02*
X018732Y005156D01*
X018732Y005154D02*
X018339Y005154D01*
X018339Y005151D02*
X018732Y005151D01*
X018732Y005149D02*
X018339Y005149D01*
X018339Y005146D02*
X018732Y005146D01*
X018732Y005144D02*
X018339Y005144D01*
X018339Y005141D02*
X018732Y005141D01*
X018732Y005139D02*
X018339Y005139D01*
X018339Y005137D02*
X018732Y005137D01*
X018732Y005134D02*
X018339Y005134D01*
X018339Y005132D02*
X018732Y005132D01*
X018732Y005129D02*
X018339Y005129D01*
X018339Y005127D02*
X018732Y005127D01*
X018732Y005124D02*
X018339Y005124D01*
X018339Y005122D02*
X018732Y005122D01*
X018732Y005119D02*
X018339Y005119D01*
X018339Y005117D02*
X018732Y005117D01*
X018732Y005115D02*
X018339Y005115D01*
X018339Y005112D02*
X018732Y005112D01*
X018732Y005110D02*
X018339Y005110D01*
X018339Y005107D02*
X018732Y005107D01*
X018732Y005105D02*
X018339Y005105D01*
X018339Y005102D02*
X018732Y005102D01*
X018732Y005100D02*
X018339Y005100D01*
X018339Y005098D02*
X018732Y005098D01*
X018732Y005095D02*
X018339Y005095D01*
X018339Y005093D02*
X018732Y005093D01*
X018732Y005090D02*
X018339Y005090D01*
X018339Y005088D02*
X018732Y005088D01*
X018732Y005085D02*
X018339Y005085D01*
X018339Y005083D02*
X018732Y005083D01*
X018732Y005080D02*
X018339Y005080D01*
X018339Y005078D02*
X018732Y005078D01*
X018732Y005076D02*
X018339Y005076D01*
X018339Y005073D02*
X018732Y005073D01*
X018732Y005071D02*
X018339Y005071D01*
X018339Y005068D02*
X018732Y005068D01*
X018732Y005066D02*
X018339Y005066D01*
X018339Y005063D02*
X018732Y005063D01*
X018732Y005061D02*
X018339Y005061D01*
X018339Y005059D02*
X018732Y005059D01*
X018732Y005056D02*
X018339Y005056D01*
X018339Y005054D02*
X018732Y005054D01*
X018732Y005051D02*
X018339Y005051D01*
X018339Y005049D02*
X018732Y005049D01*
X018732Y005046D02*
X018339Y005046D01*
X018339Y005044D02*
X018732Y005044D01*
X018732Y005041D02*
X018339Y005041D01*
X018339Y005039D02*
X018732Y005039D01*
X018732Y005037D02*
X018339Y005037D01*
X018339Y005034D02*
X018732Y005034D01*
X018732Y005032D02*
X018339Y005032D01*
X018339Y005029D02*
X018732Y005029D01*
X018732Y005027D02*
X018339Y005027D01*
X018339Y005024D02*
X018732Y005024D01*
X018732Y005022D02*
X018339Y005022D01*
X018339Y005020D02*
X018732Y005020D01*
X018732Y005017D02*
X018339Y005017D01*
X018339Y005015D02*
X018732Y005015D01*
X018732Y005012D02*
X018339Y005012D01*
X018339Y005010D02*
X018732Y005010D01*
X018732Y005007D02*
X018339Y005007D01*
X018339Y005005D02*
X018732Y005005D01*
X018732Y005002D02*
X018339Y005002D01*
X018339Y005000D02*
X018732Y005000D01*
X018732Y004998D02*
X018339Y004998D01*
X018339Y004995D02*
X018732Y004995D01*
X018732Y004993D02*
X018339Y004993D01*
X018339Y004990D02*
X018732Y004990D01*
X018732Y004988D02*
X018339Y004988D01*
X018339Y004985D02*
X018732Y004985D01*
X018732Y004983D02*
X018339Y004983D01*
X018339Y004981D02*
X018732Y004981D01*
X018732Y004978D02*
X018339Y004978D01*
X018339Y004976D02*
X018732Y004976D01*
X018732Y004973D02*
X018339Y004973D01*
X018339Y004971D02*
X018732Y004971D01*
X018732Y004968D02*
X018339Y004968D01*
X018339Y004966D02*
X018732Y004966D01*
X018732Y004963D02*
X018339Y004963D01*
X018339Y004961D02*
X018732Y004961D01*
X018732Y004959D02*
X018339Y004959D01*
X018339Y004956D02*
X018732Y004956D01*
X018732Y004954D02*
X018339Y004954D01*
X018339Y004951D02*
X018732Y004951D01*
X018732Y004949D02*
X018339Y004949D01*
X018339Y004946D02*
X018732Y004946D01*
X018732Y004944D02*
X018339Y004944D01*
X018339Y004942D02*
X018732Y004942D01*
X018732Y004939D02*
X018339Y004939D01*
X018339Y004937D02*
X018732Y004937D01*
X018732Y004934D02*
X018339Y004934D01*
X018339Y004932D02*
X018732Y004932D01*
X018732Y004929D02*
X018339Y004929D01*
X018339Y004927D02*
X018732Y004927D01*
X018732Y004924D02*
X018339Y004924D01*
X018339Y004922D02*
X018732Y004922D01*
X018732Y004920D02*
X018339Y004920D01*
X018339Y004917D02*
X018732Y004917D01*
X018732Y004915D02*
X018339Y004915D01*
X018339Y004912D02*
X018732Y004912D01*
X018732Y004910D02*
X018339Y004910D01*
X018339Y004907D02*
X018732Y004907D01*
X018732Y004905D02*
X018339Y004905D01*
X018339Y004903D02*
X018732Y004903D01*
X018732Y004900D02*
X018339Y004900D01*
X018339Y004898D02*
X018732Y004898D01*
X018732Y004895D02*
X018339Y004895D01*
X018339Y004893D02*
X018732Y004893D01*
X018732Y004890D02*
X018339Y004890D01*
X018339Y004888D02*
X018732Y004888D01*
X018732Y004886D02*
X018339Y004886D01*
X018339Y004883D02*
X018732Y004883D01*
X018732Y004881D02*
X018339Y004881D01*
X018339Y004878D02*
X018732Y004878D01*
X018732Y004876D02*
X018339Y004876D01*
X018339Y004873D02*
X018732Y004873D01*
X018732Y004871D02*
X018339Y004871D01*
X018339Y004868D02*
X018732Y004868D01*
X018732Y004866D02*
X018339Y004866D01*
X018339Y004864D02*
X018732Y004864D01*
X018732Y004861D02*
X018339Y004861D01*
X018339Y004859D02*
X018732Y004859D01*
X018732Y004856D02*
X018339Y004856D01*
X018339Y004854D02*
X018732Y004854D01*
X018732Y004851D02*
X018339Y004851D01*
X018339Y004849D02*
X018732Y004849D01*
X018732Y004847D02*
X018339Y004847D01*
X018339Y004844D02*
X018732Y004844D01*
X018732Y004842D02*
X018339Y004842D01*
X018339Y004839D02*
X018732Y004839D01*
X018732Y004837D02*
X018339Y004837D01*
X018339Y004834D02*
X018732Y004834D01*
X018732Y004832D02*
X018339Y004832D01*
X018339Y004829D02*
X018732Y004829D01*
X018732Y004827D02*
X018339Y004827D01*
X018339Y004825D02*
X018732Y004825D01*
X018732Y004822D02*
X018339Y004822D01*
X018339Y004820D02*
X018732Y004820D01*
X018732Y004817D02*
X018339Y004817D01*
X018339Y004815D02*
X018732Y004815D01*
X018732Y004812D02*
X018339Y004812D01*
X018339Y004810D02*
X018732Y004810D01*
X018732Y004808D02*
X018339Y004808D01*
X018339Y004805D02*
X018732Y004805D01*
X018732Y004803D02*
X018339Y004803D01*
X018339Y004800D02*
X018732Y004800D01*
X018732Y004798D02*
X018339Y004798D01*
X018339Y004795D02*
X018732Y004795D01*
X018732Y004793D02*
X018339Y004793D01*
X018339Y004790D02*
X018732Y004790D01*
X018732Y004788D02*
X018339Y004788D01*
X018339Y004786D02*
X018732Y004786D01*
X018732Y004783D02*
X018339Y004783D01*
X018339Y004781D02*
X018732Y004781D01*
X018732Y004778D02*
X018339Y004778D01*
X018339Y004776D02*
X018732Y004776D01*
X018732Y004773D02*
X018339Y004773D01*
X018339Y004771D02*
X018732Y004771D01*
X018732Y004769D02*
X018339Y004769D01*
X018339Y004766D02*
X018732Y004766D01*
X018732Y004764D02*
X018339Y004764D01*
X018339Y004761D02*
X018732Y004761D01*
X018732Y004759D02*
X018339Y004759D01*
X018339Y004756D02*
X018732Y004756D01*
X018732Y004754D02*
X018339Y004754D01*
X018339Y004751D02*
X018732Y004751D01*
X018732Y004749D02*
X018339Y004749D01*
X018339Y004747D02*
X018732Y004747D01*
X018732Y004744D02*
X018339Y004744D01*
X018339Y004742D02*
X018732Y004742D01*
X018732Y004739D02*
X018339Y004739D01*
X018339Y004737D02*
X018732Y004737D01*
X018731Y004734D02*
X018339Y004734D01*
X018339Y004732D02*
X018731Y004732D01*
X018730Y004730D02*
X018339Y004730D01*
X018339Y004727D02*
X018730Y004727D01*
X018729Y004725D02*
X018339Y004725D01*
X018339Y004722D02*
X018729Y004722D01*
X018728Y004720D02*
X018339Y004720D01*
X018339Y004717D02*
X018728Y004717D01*
X018727Y004715D02*
X018340Y004715D01*
X018340Y004712D02*
X018727Y004712D01*
X018726Y004710D02*
X018341Y004710D01*
X018341Y004708D02*
X018726Y004708D01*
X018725Y004705D02*
X018342Y004705D01*
X018343Y004703D02*
X018725Y004703D01*
X018724Y004700D02*
X018343Y004700D01*
X018344Y004698D02*
X018723Y004698D01*
X018722Y004695D02*
X018344Y004695D01*
X018345Y004693D02*
X018721Y004693D01*
X018720Y004691D02*
X018345Y004691D01*
X018346Y004688D02*
X018719Y004688D01*
X018718Y004686D02*
X018347Y004686D01*
X018349Y004678D02*
X018714Y004678D01*
X018713Y004676D02*
X018351Y004676D01*
X018352Y004673D02*
X018712Y004673D01*
X018711Y004671D02*
X018353Y004671D01*
X018354Y004669D02*
X018710Y004669D01*
X018709Y004666D02*
X018355Y004666D01*
X018356Y004664D02*
X018708Y004664D01*
X018707Y004661D02*
X018358Y004661D01*
X018359Y004659D02*
X018705Y004659D01*
X018703Y004656D02*
X018360Y004656D01*
X018361Y004654D02*
X018701Y004654D01*
X018699Y004652D02*
X018362Y004652D01*
X018364Y004649D02*
X018698Y004649D01*
X018696Y004647D02*
X018365Y004647D01*
X018367Y004644D02*
X018694Y004644D01*
X018692Y004642D02*
X018369Y004642D01*
X018371Y004639D02*
X018690Y004639D01*
X018688Y004637D02*
X018373Y004637D01*
X018375Y004634D02*
X018686Y004634D01*
X018684Y004632D02*
X018377Y004632D01*
X018379Y004630D02*
X018683Y004630D01*
X018681Y004627D02*
X018381Y004627D01*
X018383Y004625D02*
X018678Y004625D01*
X018675Y004622D02*
X018385Y004622D01*
X018387Y004620D02*
X018672Y004620D01*
X018669Y004617D02*
X018389Y004617D01*
X018392Y004615D02*
X018666Y004615D01*
X018663Y004613D02*
X018396Y004613D01*
X018399Y004610D02*
X018660Y004610D01*
X018657Y004608D02*
X018402Y004608D01*
X018405Y004605D02*
X018654Y004605D01*
X018651Y004603D02*
X018408Y004603D01*
X018411Y004600D02*
X018648Y004600D01*
X018644Y004598D02*
X018414Y004598D01*
X018417Y004595D02*
X018639Y004595D01*
X018634Y004593D02*
X018422Y004593D01*
X018427Y004591D02*
X018629Y004591D01*
X018624Y004588D02*
X018432Y004588D01*
X018437Y004586D02*
X018620Y004586D01*
X018615Y004583D02*
X018442Y004583D01*
X018447Y004581D02*
X018609Y004581D01*
X018599Y004578D02*
X018453Y004578D01*
X018464Y004576D02*
X018589Y004576D01*
X018580Y004574D02*
X018474Y004574D01*
X018489Y004570D02*
X018528Y004570D01*
X018570Y004571D01*
X018528Y003625D02*
X018571Y003623D01*
X018613Y003610D01*
X018651Y003589D01*
X018684Y003560D01*
X018709Y003524D01*
X018725Y003484D01*
X018348Y003484D01*
X018348Y003487D02*
X018724Y003487D01*
X018723Y003489D02*
X018349Y003489D01*
X018350Y003491D02*
X018722Y003491D01*
X018721Y003494D02*
X018351Y003494D01*
X018351Y003496D02*
X018720Y003496D01*
X018719Y003499D02*
X018352Y003499D01*
X018353Y003501D02*
X018718Y003501D01*
X018717Y003504D02*
X018354Y003504D01*
X018354Y003506D02*
X018716Y003506D01*
X018715Y003508D02*
X018356Y003508D01*
X018355Y003507D02*
X018377Y003545D01*
X018407Y003578D01*
X018443Y003603D01*
X018484Y003619D01*
X018528Y003625D01*
X018512Y003623D02*
X018567Y003623D01*
X018579Y003621D02*
X018496Y003621D01*
X018482Y003618D02*
X018587Y003618D01*
X018595Y003616D02*
X018476Y003616D01*
X018470Y003613D02*
X018603Y003613D01*
X018612Y003611D02*
X018464Y003611D01*
X018458Y003608D02*
X018617Y003608D01*
X018621Y003606D02*
X018452Y003606D01*
X018445Y003604D02*
X018625Y003604D01*
X018630Y003601D02*
X018441Y003601D01*
X018437Y003599D02*
X018634Y003599D01*
X018638Y003596D02*
X018434Y003596D01*
X018430Y003594D02*
X018643Y003594D01*
X018647Y003591D02*
X018427Y003591D01*
X018423Y003589D02*
X018651Y003589D01*
X018654Y003586D02*
X018419Y003586D01*
X018416Y003584D02*
X018657Y003584D01*
X018659Y003582D02*
X018412Y003582D01*
X018409Y003579D02*
X018662Y003579D01*
X018665Y003577D02*
X018406Y003577D01*
X018403Y003574D02*
X018668Y003574D01*
X018670Y003572D02*
X018401Y003572D01*
X018399Y003569D02*
X018673Y003569D01*
X018676Y003567D02*
X018397Y003567D01*
X018394Y003565D02*
X018678Y003565D01*
X018681Y003562D02*
X018392Y003562D01*
X018390Y003560D02*
X018684Y003560D01*
X018685Y003557D02*
X018388Y003557D01*
X018385Y003555D02*
X018687Y003555D01*
X018689Y003552D02*
X018383Y003552D01*
X018381Y003550D02*
X018691Y003550D01*
X018692Y003547D02*
X018379Y003547D01*
X018377Y003545D02*
X018694Y003545D01*
X018696Y003543D02*
X018375Y003543D01*
X018374Y003540D02*
X018697Y003540D01*
X018699Y003538D02*
X018372Y003538D01*
X018371Y003535D02*
X018701Y003535D01*
X018703Y003533D02*
X018370Y003533D01*
X018368Y003530D02*
X018704Y003530D01*
X018706Y003528D02*
X018367Y003528D01*
X018365Y003526D02*
X018708Y003526D01*
X018709Y003523D02*
X018364Y003523D01*
X018363Y003521D02*
X018710Y003521D01*
X018711Y003518D02*
X018361Y003518D01*
X018360Y003516D02*
X018712Y003516D01*
X018713Y003513D02*
X018358Y003513D01*
X018357Y003511D02*
X018714Y003511D01*
X018725Y003484D02*
X018732Y003440D01*
X018340Y003440D01*
X018340Y003438D02*
X018732Y003438D01*
X018732Y003440D02*
X018732Y002968D01*
X018724Y002927D01*
X018706Y002889D01*
X018680Y002855D01*
X018648Y002828D01*
X018610Y002809D01*
X018570Y002799D01*
X018528Y002799D01*
X018489Y002799D01*
X018452Y002807D01*
X018418Y002823D01*
X018388Y002847D01*
X018364Y002877D01*
X018347Y002911D01*
X018339Y002948D01*
X018728Y002948D01*
X018729Y002950D02*
X018339Y002950D01*
X018339Y002948D02*
X018339Y003421D01*
X018732Y003421D01*
X018732Y003423D02*
X018339Y003423D01*
X018339Y003421D02*
X018342Y003465D01*
X018355Y003507D01*
X018347Y003482D02*
X018726Y003482D01*
X018726Y003479D02*
X018346Y003479D01*
X018345Y003477D02*
X018726Y003477D01*
X018727Y003474D02*
X018345Y003474D01*
X018344Y003472D02*
X018727Y003472D01*
X018728Y003469D02*
X018343Y003469D01*
X018342Y003467D02*
X018728Y003467D01*
X018728Y003465D02*
X018342Y003465D01*
X018342Y003462D02*
X018729Y003462D01*
X018729Y003460D02*
X018341Y003460D01*
X018341Y003457D02*
X018730Y003457D01*
X018730Y003455D02*
X018341Y003455D01*
X018341Y003452D02*
X018730Y003452D01*
X018731Y003450D02*
X018341Y003450D01*
X018341Y003448D02*
X018731Y003448D01*
X018732Y003445D02*
X018340Y003445D01*
X018340Y003443D02*
X018732Y003443D01*
X018732Y003435D02*
X018340Y003435D01*
X018339Y003433D02*
X018732Y003433D01*
X018732Y003430D02*
X018339Y003430D01*
X018339Y003428D02*
X018732Y003428D01*
X018732Y003426D02*
X018339Y003426D01*
X018339Y003418D02*
X018732Y003418D01*
X018732Y003416D02*
X018339Y003416D01*
X018339Y003413D02*
X018732Y003413D01*
X018732Y003411D02*
X018339Y003411D01*
X018339Y003409D02*
X018732Y003409D01*
X018732Y003406D02*
X018339Y003406D01*
X018339Y003404D02*
X018732Y003404D01*
X018732Y003401D02*
X018339Y003401D01*
X018339Y003399D02*
X018732Y003399D01*
X018732Y003396D02*
X018339Y003396D01*
X018339Y003394D02*
X018732Y003394D01*
X018732Y003391D02*
X018339Y003391D01*
X018339Y003389D02*
X018732Y003389D01*
X018732Y003387D02*
X018339Y003387D01*
X018339Y003384D02*
X018732Y003384D01*
X018732Y003382D02*
X018339Y003382D01*
X018339Y003379D02*
X018732Y003379D01*
X018732Y003377D02*
X018339Y003377D01*
X018339Y003374D02*
X018732Y003374D01*
X018732Y003372D02*
X018339Y003372D01*
X018339Y003370D02*
X018732Y003370D01*
X018732Y003367D02*
X018339Y003367D01*
X018339Y003365D02*
X018732Y003365D01*
X018732Y003362D02*
X018339Y003362D01*
X018339Y003360D02*
X018732Y003360D01*
X018732Y003357D02*
X018339Y003357D01*
X018339Y003355D02*
X018732Y003355D01*
X018732Y003352D02*
X018339Y003352D01*
X018339Y003350D02*
X018732Y003350D01*
X018732Y003348D02*
X018339Y003348D01*
X018339Y003345D02*
X018732Y003345D01*
X018732Y003343D02*
X018339Y003343D01*
X018339Y003340D02*
X018732Y003340D01*
X018732Y003338D02*
X018339Y003338D01*
X018339Y003335D02*
X018732Y003335D01*
X018732Y003333D02*
X018339Y003333D01*
X018339Y003331D02*
X018732Y003331D01*
X018732Y003328D02*
X018339Y003328D01*
X018339Y003326D02*
X018732Y003326D01*
X018732Y003323D02*
X018339Y003323D01*
X018339Y003321D02*
X018732Y003321D01*
X018732Y003318D02*
X018339Y003318D01*
X018339Y003316D02*
X018732Y003316D01*
X018732Y003313D02*
X018339Y003313D01*
X018339Y003311D02*
X018732Y003311D01*
X018732Y003309D02*
X018339Y003309D01*
X018339Y003306D02*
X018732Y003306D01*
X018732Y003304D02*
X018339Y003304D01*
X018339Y003301D02*
X018732Y003301D01*
X018732Y003299D02*
X018339Y003299D01*
X018339Y003296D02*
X018732Y003296D01*
X018732Y003294D02*
X018339Y003294D01*
X018339Y003292D02*
X018732Y003292D01*
X018732Y003289D02*
X018339Y003289D01*
X018339Y003287D02*
X018732Y003287D01*
X018732Y003284D02*
X018339Y003284D01*
X018339Y003282D02*
X018732Y003282D01*
X018732Y003279D02*
X018339Y003279D01*
X018339Y003277D02*
X018732Y003277D01*
X018732Y003274D02*
X018339Y003274D01*
X018339Y003272D02*
X018732Y003272D01*
X018732Y003270D02*
X018339Y003270D01*
X018339Y003267D02*
X018732Y003267D01*
X018732Y003265D02*
X018339Y003265D01*
X018339Y003262D02*
X018732Y003262D01*
X018732Y003260D02*
X018339Y003260D01*
X018339Y003257D02*
X018732Y003257D01*
X018732Y003255D02*
X018339Y003255D01*
X018339Y003253D02*
X018732Y003253D01*
X018732Y003250D02*
X018339Y003250D01*
X018339Y003248D02*
X018732Y003248D01*
X018732Y003245D02*
X018339Y003245D01*
X018339Y003243D02*
X018732Y003243D01*
X018732Y003240D02*
X018339Y003240D01*
X018339Y003238D02*
X018732Y003238D01*
X018732Y003235D02*
X018339Y003235D01*
X018339Y003233D02*
X018732Y003233D01*
X018732Y003231D02*
X018339Y003231D01*
X018339Y003228D02*
X018732Y003228D01*
X018732Y003226D02*
X018339Y003226D01*
X018339Y003223D02*
X018732Y003223D01*
X018732Y003221D02*
X018339Y003221D01*
X018339Y003218D02*
X018732Y003218D01*
X018732Y003216D02*
X018339Y003216D01*
X018339Y003214D02*
X018732Y003214D01*
X018732Y003211D02*
X018339Y003211D01*
X018339Y003209D02*
X018732Y003209D01*
X018732Y003206D02*
X018339Y003206D01*
X018339Y003204D02*
X018732Y003204D01*
X018732Y003201D02*
X018339Y003201D01*
X018339Y003199D02*
X018732Y003199D01*
X018732Y003196D02*
X018339Y003196D01*
X018339Y003194D02*
X018732Y003194D01*
X018732Y003192D02*
X018339Y003192D01*
X018339Y003189D02*
X018732Y003189D01*
X018732Y003187D02*
X018339Y003187D01*
X018339Y003184D02*
X018732Y003184D01*
X018732Y003182D02*
X018339Y003182D01*
X018339Y003179D02*
X018732Y003179D01*
X018732Y003177D02*
X018339Y003177D01*
X018339Y003175D02*
X018732Y003175D01*
X018732Y003172D02*
X018339Y003172D01*
X018339Y003170D02*
X018732Y003170D01*
X018732Y003167D02*
X018339Y003167D01*
X018339Y003165D02*
X018732Y003165D01*
X018732Y003162D02*
X018339Y003162D01*
X018339Y003160D02*
X018732Y003160D01*
X018732Y003157D02*
X018339Y003157D01*
X018339Y003155D02*
X018732Y003155D01*
X018732Y003153D02*
X018339Y003153D01*
X018339Y003150D02*
X018732Y003150D01*
X018732Y003148D02*
X018339Y003148D01*
X018339Y003145D02*
X018732Y003145D01*
X018732Y003143D02*
X018339Y003143D01*
X018339Y003140D02*
X018732Y003140D01*
X018732Y003138D02*
X018339Y003138D01*
X018339Y003136D02*
X018732Y003136D01*
X018732Y003133D02*
X018339Y003133D01*
X018339Y003131D02*
X018732Y003131D01*
X018732Y003128D02*
X018339Y003128D01*
X018339Y003126D02*
X018732Y003126D01*
X018732Y003123D02*
X018339Y003123D01*
X018339Y003121D02*
X018732Y003121D01*
X018732Y003118D02*
X018339Y003118D01*
X018339Y003116D02*
X018732Y003116D01*
X018732Y003114D02*
X018339Y003114D01*
X018339Y003111D02*
X018732Y003111D01*
X018732Y003109D02*
X018339Y003109D01*
X018339Y003106D02*
X018732Y003106D01*
X018732Y003104D02*
X018339Y003104D01*
X018339Y003101D02*
X018732Y003101D01*
X018732Y003099D02*
X018339Y003099D01*
X018339Y003097D02*
X018732Y003097D01*
X018732Y003094D02*
X018339Y003094D01*
X018339Y003092D02*
X018732Y003092D01*
X018732Y003089D02*
X018339Y003089D01*
X018339Y003087D02*
X018732Y003087D01*
X018732Y003084D02*
X018339Y003084D01*
X018339Y003082D02*
X018732Y003082D01*
X018732Y003079D02*
X018339Y003079D01*
X018339Y003077D02*
X018732Y003077D01*
X018732Y003075D02*
X018339Y003075D01*
X018339Y003072D02*
X018732Y003072D01*
X018732Y003070D02*
X018339Y003070D01*
X018339Y003067D02*
X018732Y003067D01*
X018732Y003065D02*
X018339Y003065D01*
X018339Y003062D02*
X018732Y003062D01*
X018732Y003060D02*
X018339Y003060D01*
X018339Y003058D02*
X018732Y003058D01*
X018732Y003055D02*
X018339Y003055D01*
X018339Y003053D02*
X018732Y003053D01*
X018732Y003050D02*
X018339Y003050D01*
X018339Y003048D02*
X018732Y003048D01*
X018732Y003045D02*
X018339Y003045D01*
X018339Y003043D02*
X018732Y003043D01*
X018732Y003041D02*
X018339Y003041D01*
X018339Y003038D02*
X018732Y003038D01*
X018732Y003036D02*
X018339Y003036D01*
X018339Y003033D02*
X018732Y003033D01*
X018732Y003031D02*
X018339Y003031D01*
X018339Y003028D02*
X018732Y003028D01*
X018732Y003026D02*
X018339Y003026D01*
X018339Y003023D02*
X018732Y003023D01*
X018732Y003021D02*
X018339Y003021D01*
X018339Y003019D02*
X018732Y003019D01*
X018732Y003016D02*
X018339Y003016D01*
X018339Y003014D02*
X018732Y003014D01*
X018732Y003011D02*
X018339Y003011D01*
X018339Y003009D02*
X018732Y003009D01*
X018732Y003006D02*
X018339Y003006D01*
X018339Y003004D02*
X018732Y003004D01*
X018732Y003002D02*
X018339Y003002D01*
X018339Y002999D02*
X018732Y002999D01*
X018732Y002997D02*
X018339Y002997D01*
X018339Y002994D02*
X018732Y002994D01*
X018732Y002992D02*
X018339Y002992D01*
X018339Y002989D02*
X018732Y002989D01*
X018732Y002987D02*
X018339Y002987D01*
X018339Y002984D02*
X018732Y002984D01*
X018732Y002982D02*
X018339Y002982D01*
X018339Y002980D02*
X018732Y002980D01*
X018732Y002977D02*
X018339Y002977D01*
X018339Y002975D02*
X018732Y002975D01*
X018732Y002972D02*
X018339Y002972D01*
X018339Y002970D02*
X018732Y002970D01*
X018732Y002967D02*
X018339Y002967D01*
X018339Y002965D02*
X018732Y002965D01*
X018731Y002963D02*
X018339Y002963D01*
X018339Y002960D02*
X018731Y002960D01*
X018730Y002958D02*
X018339Y002958D01*
X018339Y002955D02*
X018730Y002955D01*
X018729Y002953D02*
X018339Y002953D01*
X018339Y002945D02*
X018728Y002945D01*
X018727Y002943D02*
X018340Y002943D01*
X018340Y002941D02*
X018727Y002941D01*
X018726Y002938D02*
X018341Y002938D01*
X018341Y002936D02*
X018726Y002936D01*
X018725Y002933D02*
X018342Y002933D01*
X018343Y002931D02*
X018725Y002931D01*
X018724Y002928D02*
X018343Y002928D01*
X018344Y002926D02*
X018723Y002926D01*
X018722Y002924D02*
X018344Y002924D01*
X018345Y002921D02*
X018721Y002921D01*
X018720Y002919D02*
X018345Y002919D01*
X018346Y002916D02*
X018719Y002916D01*
X018718Y002914D02*
X018347Y002914D01*
X018347Y002911D02*
X018717Y002911D01*
X018715Y002909D02*
X018348Y002909D01*
X018349Y002906D02*
X018714Y002906D01*
X018713Y002904D02*
X018351Y002904D01*
X018352Y002902D02*
X018712Y002902D01*
X018711Y002899D02*
X018353Y002899D01*
X018354Y002897D02*
X018710Y002897D01*
X018709Y002894D02*
X018355Y002894D01*
X018357Y002892D02*
X018708Y002892D01*
X018706Y002889D02*
X018358Y002889D01*
X018359Y002887D02*
X018705Y002887D01*
X018703Y002885D02*
X018360Y002885D01*
X018361Y002882D02*
X018701Y002882D01*
X018699Y002880D02*
X018362Y002880D01*
X018364Y002877D02*
X018697Y002877D01*
X018695Y002875D02*
X018365Y002875D01*
X018367Y002872D02*
X018694Y002872D01*
X018692Y002870D02*
X018369Y002870D01*
X018371Y002867D02*
X018690Y002867D01*
X018688Y002865D02*
X018373Y002865D01*
X018375Y002863D02*
X018686Y002863D01*
X018684Y002860D02*
X018377Y002860D01*
X018379Y002858D02*
X018682Y002858D01*
X018680Y002855D02*
X018381Y002855D01*
X018383Y002853D02*
X018678Y002853D01*
X018675Y002850D02*
X018385Y002850D01*
X018387Y002848D02*
X018672Y002848D01*
X018669Y002846D02*
X018390Y002846D01*
X018393Y002843D02*
X018666Y002843D01*
X018663Y002841D02*
X018396Y002841D01*
X018399Y002838D02*
X018660Y002838D01*
X018657Y002836D02*
X018402Y002836D01*
X018405Y002833D02*
X018654Y002833D01*
X018651Y002831D02*
X018408Y002831D01*
X018411Y002828D02*
X018648Y002828D01*
X018643Y002826D02*
X018414Y002826D01*
X018417Y002824D02*
X018638Y002824D01*
X018634Y002821D02*
X018422Y002821D01*
X018427Y002819D02*
X018629Y002819D01*
X018624Y002816D02*
X018432Y002816D01*
X018438Y002814D02*
X018619Y002814D01*
X018614Y002811D02*
X018443Y002811D01*
X018448Y002809D02*
X018608Y002809D01*
X018598Y002807D02*
X018454Y002807D01*
X018465Y002804D02*
X018589Y002804D01*
X018579Y002802D02*
X018475Y002802D01*
X018486Y002799D02*
X018559Y002799D01*
X015102Y002968D02*
X015094Y002927D01*
X015076Y002889D01*
X015051Y002855D01*
X014751Y002855D01*
X014753Y002853D02*
X015048Y002853D01*
X015051Y002855D02*
X015018Y002828D01*
X014981Y002809D01*
X014940Y002799D01*
X014898Y002799D01*
X014859Y002799D01*
X014822Y002807D01*
X014788Y002823D01*
X014758Y002847D01*
X014734Y002877D01*
X014717Y002911D01*
X014709Y002948D01*
X015098Y002948D01*
X015099Y002950D02*
X014709Y002950D01*
X014709Y002948D02*
X014709Y003421D01*
X015102Y003421D01*
X015102Y003423D02*
X014709Y003423D01*
X014709Y003421D02*
X014712Y003465D01*
X014725Y003507D01*
X014747Y003545D01*
X014777Y003578D01*
X014813Y003603D01*
X014854Y003619D01*
X014898Y003625D01*
X014941Y003623D01*
X014983Y003610D01*
X015021Y003589D01*
X015054Y003560D01*
X015079Y003524D01*
X015095Y003484D01*
X014718Y003484D01*
X014717Y003482D02*
X015096Y003482D01*
X015095Y003484D02*
X015102Y003440D01*
X014710Y003440D01*
X014710Y003438D02*
X015102Y003438D01*
X015102Y003440D02*
X015102Y002968D01*
X015102Y002967D02*
X014709Y002967D01*
X014709Y002965D02*
X015102Y002965D01*
X015101Y002963D02*
X014709Y002963D01*
X014709Y002960D02*
X015101Y002960D01*
X015100Y002958D02*
X014709Y002958D01*
X014709Y002955D02*
X015100Y002955D01*
X015099Y002953D02*
X014709Y002953D01*
X014709Y002945D02*
X015098Y002945D01*
X015097Y002943D02*
X014710Y002943D01*
X014710Y002941D02*
X015097Y002941D01*
X015096Y002938D02*
X014711Y002938D01*
X014712Y002936D02*
X015096Y002936D01*
X015095Y002933D02*
X014712Y002933D01*
X014713Y002931D02*
X015095Y002931D01*
X015094Y002928D02*
X014713Y002928D01*
X014714Y002926D02*
X015093Y002926D01*
X015092Y002924D02*
X014714Y002924D01*
X014715Y002921D02*
X015091Y002921D01*
X015090Y002919D02*
X014716Y002919D01*
X014716Y002916D02*
X015089Y002916D01*
X015088Y002914D02*
X014717Y002914D01*
X014717Y002911D02*
X015087Y002911D01*
X015086Y002909D02*
X014718Y002909D01*
X014720Y002906D02*
X015084Y002906D01*
X015083Y002904D02*
X014721Y002904D01*
X014722Y002902D02*
X015082Y002902D01*
X015081Y002899D02*
X014723Y002899D01*
X014724Y002897D02*
X015080Y002897D01*
X015079Y002894D02*
X014725Y002894D01*
X014727Y002892D02*
X015078Y002892D01*
X015077Y002889D02*
X014728Y002889D01*
X014729Y002887D02*
X015075Y002887D01*
X015073Y002885D02*
X014730Y002885D01*
X014731Y002882D02*
X015071Y002882D01*
X015069Y002880D02*
X014733Y002880D01*
X014734Y002877D02*
X015067Y002877D01*
X015066Y002875D02*
X014736Y002875D01*
X014738Y002872D02*
X015064Y002872D01*
X015062Y002870D02*
X014739Y002870D01*
X014741Y002867D02*
X015060Y002867D01*
X015058Y002865D02*
X014743Y002865D01*
X014745Y002863D02*
X015056Y002863D01*
X015054Y002860D02*
X014747Y002860D01*
X014749Y002858D02*
X015052Y002858D01*
X015045Y002850D02*
X014755Y002850D01*
X014757Y002848D02*
X015042Y002848D01*
X015039Y002846D02*
X014760Y002846D01*
X014763Y002843D02*
X015036Y002843D01*
X015033Y002841D02*
X014766Y002841D01*
X014769Y002838D02*
X015030Y002838D01*
X015027Y002836D02*
X014772Y002836D01*
X014775Y002833D02*
X015024Y002833D01*
X015021Y002831D02*
X014778Y002831D01*
X014781Y002828D02*
X015018Y002828D01*
X015013Y002826D02*
X014784Y002826D01*
X014787Y002824D02*
X015009Y002824D01*
X015004Y002821D02*
X014792Y002821D01*
X014797Y002819D02*
X014999Y002819D01*
X014994Y002816D02*
X014803Y002816D01*
X014808Y002814D02*
X014989Y002814D01*
X014984Y002811D02*
X014813Y002811D01*
X014818Y002809D02*
X014978Y002809D01*
X014969Y002807D02*
X014824Y002807D01*
X014835Y002804D02*
X014959Y002804D01*
X014949Y002802D02*
X014846Y002802D01*
X014856Y002799D02*
X014929Y002799D01*
X015102Y002970D02*
X014709Y002970D01*
X014709Y002972D02*
X015102Y002972D01*
X015102Y002975D02*
X014709Y002975D01*
X014709Y002977D02*
X015102Y002977D01*
X015102Y002980D02*
X014709Y002980D01*
X014709Y002982D02*
X015102Y002982D01*
X015102Y002984D02*
X014709Y002984D01*
X014709Y002987D02*
X015102Y002987D01*
X015102Y002989D02*
X014709Y002989D01*
X014709Y002992D02*
X015102Y002992D01*
X015102Y002994D02*
X014709Y002994D01*
X014709Y002997D02*
X015102Y002997D01*
X015102Y002999D02*
X014709Y002999D01*
X014709Y003002D02*
X015102Y003002D01*
X015102Y003004D02*
X014709Y003004D01*
X014709Y003006D02*
X015102Y003006D01*
X015102Y003009D02*
X014709Y003009D01*
X014709Y003011D02*
X015102Y003011D01*
X015102Y003014D02*
X014709Y003014D01*
X014709Y003016D02*
X015102Y003016D01*
X015102Y003019D02*
X014709Y003019D01*
X014709Y003021D02*
X015102Y003021D01*
X015102Y003023D02*
X014709Y003023D01*
X014709Y003026D02*
X015102Y003026D01*
X015102Y003028D02*
X014709Y003028D01*
X014709Y003031D02*
X015102Y003031D01*
X015102Y003033D02*
X014709Y003033D01*
X014709Y003036D02*
X015102Y003036D01*
X015102Y003038D02*
X014709Y003038D01*
X014709Y003041D02*
X015102Y003041D01*
X015102Y003043D02*
X014709Y003043D01*
X014709Y003045D02*
X015102Y003045D01*
X015102Y003048D02*
X014709Y003048D01*
X014709Y003050D02*
X015102Y003050D01*
X015102Y003053D02*
X014709Y003053D01*
X014709Y003055D02*
X015102Y003055D01*
X015102Y003058D02*
X014709Y003058D01*
X014709Y003060D02*
X015102Y003060D01*
X015102Y003062D02*
X014709Y003062D01*
X014709Y003065D02*
X015102Y003065D01*
X015102Y003067D02*
X014709Y003067D01*
X014709Y003070D02*
X015102Y003070D01*
X015102Y003072D02*
X014709Y003072D01*
X014709Y003075D02*
X015102Y003075D01*
X015102Y003077D02*
X014709Y003077D01*
X014709Y003079D02*
X015102Y003079D01*
X015102Y003082D02*
X014709Y003082D01*
X014709Y003084D02*
X015102Y003084D01*
X015102Y003087D02*
X014709Y003087D01*
X014709Y003089D02*
X015102Y003089D01*
X015102Y003092D02*
X014709Y003092D01*
X014709Y003094D02*
X015102Y003094D01*
X015102Y003097D02*
X014709Y003097D01*
X014709Y003099D02*
X015102Y003099D01*
X015102Y003101D02*
X014709Y003101D01*
X014709Y003104D02*
X015102Y003104D01*
X015102Y003106D02*
X014709Y003106D01*
X014709Y003109D02*
X015102Y003109D01*
X015102Y003111D02*
X014709Y003111D01*
X014709Y003114D02*
X015102Y003114D01*
X015102Y003116D02*
X014709Y003116D01*
X014709Y003118D02*
X015102Y003118D01*
X015102Y003121D02*
X014709Y003121D01*
X014709Y003123D02*
X015102Y003123D01*
X015102Y003126D02*
X014709Y003126D01*
X014709Y003128D02*
X015102Y003128D01*
X015102Y003131D02*
X014709Y003131D01*
X014709Y003133D02*
X015102Y003133D01*
X015102Y003136D02*
X014709Y003136D01*
X014709Y003138D02*
X015102Y003138D01*
X015102Y003140D02*
X014709Y003140D01*
X014709Y003143D02*
X015102Y003143D01*
X015102Y003145D02*
X014709Y003145D01*
X014709Y003148D02*
X015102Y003148D01*
X015102Y003150D02*
X014709Y003150D01*
X014709Y003153D02*
X015102Y003153D01*
X015102Y003155D02*
X014709Y003155D01*
X014709Y003157D02*
X015102Y003157D01*
X015102Y003160D02*
X014709Y003160D01*
X014709Y003162D02*
X015102Y003162D01*
X015102Y003165D02*
X014709Y003165D01*
X014709Y003167D02*
X015102Y003167D01*
X015102Y003170D02*
X014709Y003170D01*
X014709Y003172D02*
X015102Y003172D01*
X015102Y003175D02*
X014709Y003175D01*
X014709Y003177D02*
X015102Y003177D01*
X015102Y003179D02*
X014709Y003179D01*
X014709Y003182D02*
X015102Y003182D01*
X015102Y003184D02*
X014709Y003184D01*
X014709Y003187D02*
X015102Y003187D01*
X015102Y003189D02*
X014709Y003189D01*
X014709Y003192D02*
X015102Y003192D01*
X015102Y003194D02*
X014709Y003194D01*
X014709Y003196D02*
X015102Y003196D01*
X015102Y003199D02*
X014709Y003199D01*
X014709Y003201D02*
X015102Y003201D01*
X015102Y003204D02*
X014709Y003204D01*
X014709Y003206D02*
X015102Y003206D01*
X015102Y003209D02*
X014709Y003209D01*
X014709Y003211D02*
X015102Y003211D01*
X015102Y003214D02*
X014709Y003214D01*
X014709Y003216D02*
X015102Y003216D01*
X015102Y003218D02*
X014709Y003218D01*
X014709Y003221D02*
X015102Y003221D01*
X015102Y003223D02*
X014709Y003223D01*
X014709Y003226D02*
X015102Y003226D01*
X015102Y003228D02*
X014709Y003228D01*
X014709Y003231D02*
X015102Y003231D01*
X015102Y003233D02*
X014709Y003233D01*
X014709Y003235D02*
X015102Y003235D01*
X015102Y003238D02*
X014709Y003238D01*
X014709Y003240D02*
X015102Y003240D01*
X015102Y003243D02*
X014709Y003243D01*
X014709Y003245D02*
X015102Y003245D01*
X015102Y003248D02*
X014709Y003248D01*
X014709Y003250D02*
X015102Y003250D01*
X015102Y003253D02*
X014709Y003253D01*
X014709Y003255D02*
X015102Y003255D01*
X015102Y003257D02*
X014709Y003257D01*
X014709Y003260D02*
X015102Y003260D01*
X015102Y003262D02*
X014709Y003262D01*
X014709Y003265D02*
X015102Y003265D01*
X015102Y003267D02*
X014709Y003267D01*
X014709Y003270D02*
X015102Y003270D01*
X015102Y003272D02*
X014709Y003272D01*
X014709Y003274D02*
X015102Y003274D01*
X015102Y003277D02*
X014709Y003277D01*
X014709Y003279D02*
X015102Y003279D01*
X015102Y003282D02*
X014709Y003282D01*
X014709Y003284D02*
X015102Y003284D01*
X015102Y003287D02*
X014709Y003287D01*
X014709Y003289D02*
X015102Y003289D01*
X015102Y003292D02*
X014709Y003292D01*
X014709Y003294D02*
X015102Y003294D01*
X015102Y003296D02*
X014709Y003296D01*
X014709Y003299D02*
X015102Y003299D01*
X015102Y003301D02*
X014709Y003301D01*
X014709Y003304D02*
X015102Y003304D01*
X015102Y003306D02*
X014709Y003306D01*
X014709Y003309D02*
X015102Y003309D01*
X015102Y003311D02*
X014709Y003311D01*
X014709Y003313D02*
X015102Y003313D01*
X015102Y003316D02*
X014709Y003316D01*
X014709Y003318D02*
X015102Y003318D01*
X015102Y003321D02*
X014709Y003321D01*
X014709Y003323D02*
X015102Y003323D01*
X015102Y003326D02*
X014709Y003326D01*
X014709Y003328D02*
X015102Y003328D01*
X015102Y003331D02*
X014709Y003331D01*
X014709Y003333D02*
X015102Y003333D01*
X015102Y003335D02*
X014709Y003335D01*
X014709Y003338D02*
X015102Y003338D01*
X015102Y003340D02*
X014709Y003340D01*
X014709Y003343D02*
X015102Y003343D01*
X015102Y003345D02*
X014709Y003345D01*
X014709Y003348D02*
X015102Y003348D01*
X015102Y003350D02*
X014709Y003350D01*
X014709Y003352D02*
X015102Y003352D01*
X015102Y003355D02*
X014709Y003355D01*
X014709Y003357D02*
X015102Y003357D01*
X015102Y003360D02*
X014709Y003360D01*
X014709Y003362D02*
X015102Y003362D01*
X015102Y003365D02*
X014709Y003365D01*
X014709Y003367D02*
X015102Y003367D01*
X015102Y003370D02*
X014709Y003370D01*
X014709Y003372D02*
X015102Y003372D01*
X015102Y003374D02*
X014709Y003374D01*
X014709Y003377D02*
X015102Y003377D01*
X015102Y003379D02*
X014709Y003379D01*
X014709Y003382D02*
X015102Y003382D01*
X015102Y003384D02*
X014709Y003384D01*
X014709Y003387D02*
X015102Y003387D01*
X015102Y003389D02*
X014709Y003389D01*
X014709Y003391D02*
X015102Y003391D01*
X015102Y003394D02*
X014709Y003394D01*
X014709Y003396D02*
X015102Y003396D01*
X015102Y003399D02*
X014709Y003399D01*
X014709Y003401D02*
X015102Y003401D01*
X015102Y003404D02*
X014709Y003404D01*
X014709Y003406D02*
X015102Y003406D01*
X015102Y003409D02*
X014709Y003409D01*
X014709Y003411D02*
X015102Y003411D01*
X015102Y003413D02*
X014709Y003413D01*
X014709Y003416D02*
X015102Y003416D01*
X015102Y003418D02*
X014709Y003418D01*
X014709Y003426D02*
X015102Y003426D01*
X015102Y003428D02*
X014709Y003428D01*
X014709Y003430D02*
X015102Y003430D01*
X015102Y003433D02*
X014710Y003433D01*
X014710Y003435D02*
X015102Y003435D01*
X015102Y003443D02*
X014710Y003443D01*
X014710Y003445D02*
X015102Y003445D01*
X015101Y003448D02*
X014711Y003448D01*
X014711Y003450D02*
X015101Y003450D01*
X015100Y003452D02*
X014711Y003452D01*
X014711Y003455D02*
X015100Y003455D01*
X015100Y003457D02*
X014711Y003457D01*
X014711Y003460D02*
X015099Y003460D01*
X015099Y003462D02*
X014712Y003462D01*
X014712Y003465D02*
X015098Y003465D01*
X015098Y003467D02*
X014713Y003467D01*
X014713Y003469D02*
X015098Y003469D01*
X015097Y003472D02*
X014714Y003472D01*
X014715Y003474D02*
X015097Y003474D01*
X015096Y003477D02*
X014716Y003477D01*
X014716Y003479D02*
X015096Y003479D01*
X015094Y003487D02*
X014719Y003487D01*
X014719Y003489D02*
X015093Y003489D01*
X015092Y003491D02*
X014720Y003491D01*
X014721Y003494D02*
X015091Y003494D01*
X015090Y003496D02*
X014721Y003496D01*
X014722Y003499D02*
X015089Y003499D01*
X015088Y003501D02*
X014723Y003501D01*
X014724Y003504D02*
X015087Y003504D01*
X015086Y003506D02*
X014724Y003506D01*
X014726Y003508D02*
X015085Y003508D01*
X015084Y003511D02*
X014727Y003511D01*
X014728Y003513D02*
X015083Y003513D01*
X015082Y003516D02*
X014730Y003516D01*
X014731Y003518D02*
X015081Y003518D01*
X015080Y003521D02*
X014733Y003521D01*
X014734Y003523D02*
X015079Y003523D01*
X015078Y003526D02*
X014735Y003526D01*
X014737Y003528D02*
X015076Y003528D01*
X015074Y003530D02*
X014738Y003530D01*
X014740Y003533D02*
X015073Y003533D01*
X015071Y003535D02*
X014741Y003535D01*
X014742Y003538D02*
X015069Y003538D01*
X015067Y003540D02*
X014744Y003540D01*
X014745Y003543D02*
X015066Y003543D01*
X015064Y003545D02*
X014747Y003545D01*
X014749Y003547D02*
X015062Y003547D01*
X015061Y003550D02*
X014751Y003550D01*
X014753Y003552D02*
X015059Y003552D01*
X015057Y003555D02*
X014756Y003555D01*
X014758Y003557D02*
X015055Y003557D01*
X015054Y003560D02*
X014760Y003560D01*
X014762Y003562D02*
X015051Y003562D01*
X015048Y003565D02*
X014765Y003565D01*
X014767Y003567D02*
X015046Y003567D01*
X015043Y003569D02*
X014769Y003569D01*
X014771Y003572D02*
X015040Y003572D01*
X015038Y003574D02*
X014774Y003574D01*
X014776Y003577D02*
X015035Y003577D01*
X015032Y003579D02*
X014779Y003579D01*
X014782Y003582D02*
X015030Y003582D01*
X015027Y003584D02*
X014786Y003584D01*
X014790Y003586D02*
X015024Y003586D01*
X015021Y003589D02*
X014793Y003589D01*
X014797Y003591D02*
X015017Y003591D01*
X015013Y003594D02*
X014800Y003594D01*
X014804Y003596D02*
X015009Y003596D01*
X015004Y003599D02*
X014807Y003599D01*
X014811Y003601D02*
X015000Y003601D01*
X014995Y003604D02*
X014815Y003604D01*
X014822Y003606D02*
X014991Y003606D01*
X014987Y003608D02*
X014828Y003608D01*
X014834Y003611D02*
X014982Y003611D01*
X014973Y003613D02*
X014840Y003613D01*
X014846Y003616D02*
X014965Y003616D01*
X014957Y003618D02*
X014852Y003618D01*
X014866Y003621D02*
X014949Y003621D01*
X014937Y003623D02*
X014882Y003623D01*
X014898Y004570D02*
X014859Y004570D01*
X014822Y004579D01*
X014788Y004595D01*
X014758Y004619D01*
X014734Y004648D01*
X014717Y004683D01*
X015087Y004683D01*
X015086Y004681D02*
X014718Y004681D01*
X014717Y004683D02*
X014709Y004720D01*
X014709Y005192D01*
X014712Y005236D01*
X014725Y005279D01*
X014747Y005317D01*
X015064Y005317D01*
X015062Y005319D02*
X014749Y005319D01*
X014747Y005317D02*
X014777Y005349D01*
X014813Y005374D01*
X014854Y005390D01*
X014898Y005397D01*
X014941Y005394D01*
X014983Y005382D01*
X015021Y005361D01*
X014793Y005361D01*
X014790Y005358D02*
X015024Y005358D01*
X015027Y005356D02*
X014786Y005356D01*
X014783Y005353D02*
X015029Y005353D01*
X015032Y005351D02*
X014779Y005351D01*
X014776Y005349D02*
X015035Y005349D01*
X015037Y005346D02*
X014774Y005346D01*
X014772Y005344D02*
X015040Y005344D01*
X015043Y005341D02*
X014769Y005341D01*
X014767Y005339D02*
X015045Y005339D01*
X015048Y005336D02*
X014765Y005336D01*
X014763Y005334D02*
X015051Y005334D01*
X015054Y005332D02*
X014760Y005332D01*
X014758Y005329D02*
X015055Y005329D01*
X015054Y005331D02*
X015079Y005296D01*
X015095Y005255D01*
X015102Y005212D01*
X014710Y005212D01*
X014710Y005210D02*
X015102Y005210D01*
X015102Y005212D02*
X015102Y004740D01*
X015094Y004698D01*
X015076Y004660D01*
X015051Y004627D01*
X014751Y004627D01*
X014753Y004625D02*
X015048Y004625D01*
X015051Y004627D02*
X015018Y004600D01*
X014981Y004581D01*
X014940Y004571D01*
X014855Y004571D01*
X014845Y004574D02*
X014950Y004574D01*
X014960Y004576D02*
X014834Y004576D01*
X014823Y004578D02*
X014969Y004578D01*
X014979Y004581D02*
X014817Y004581D01*
X014812Y004583D02*
X014985Y004583D01*
X014990Y004586D02*
X014807Y004586D01*
X014802Y004588D02*
X014994Y004588D01*
X014999Y004591D02*
X014797Y004591D01*
X014792Y004593D02*
X015004Y004593D01*
X015009Y004595D02*
X014787Y004595D01*
X014784Y004598D02*
X015014Y004598D01*
X015018Y004600D02*
X014781Y004600D01*
X014778Y004603D02*
X015021Y004603D01*
X015024Y004605D02*
X014775Y004605D01*
X014772Y004608D02*
X015027Y004608D01*
X015030Y004610D02*
X014769Y004610D01*
X014766Y004613D02*
X015033Y004613D01*
X015036Y004615D02*
X014763Y004615D01*
X014759Y004617D02*
X015039Y004617D01*
X015042Y004620D02*
X014757Y004620D01*
X014755Y004622D02*
X015045Y004622D01*
X015053Y004630D02*
X014749Y004630D01*
X014747Y004632D02*
X015054Y004632D01*
X015056Y004634D02*
X014745Y004634D01*
X014743Y004637D02*
X015058Y004637D01*
X015060Y004639D02*
X014741Y004639D01*
X014739Y004642D02*
X015062Y004642D01*
X015064Y004644D02*
X014737Y004644D01*
X014735Y004647D02*
X015066Y004647D01*
X015068Y004649D02*
X014734Y004649D01*
X014732Y004652D02*
X015069Y004652D01*
X015071Y004654D02*
X014731Y004654D01*
X014730Y004656D02*
X015073Y004656D01*
X015075Y004659D02*
X014729Y004659D01*
X014728Y004661D02*
X015077Y004661D01*
X015078Y004664D02*
X014727Y004664D01*
X014725Y004666D02*
X015079Y004666D01*
X015080Y004669D02*
X014724Y004669D01*
X014723Y004671D02*
X015081Y004671D01*
X015082Y004673D02*
X014722Y004673D01*
X014721Y004676D02*
X015083Y004676D01*
X015084Y004678D02*
X014719Y004678D01*
X014717Y004686D02*
X015088Y004686D01*
X015089Y004688D02*
X014716Y004688D01*
X014715Y004691D02*
X015090Y004691D01*
X015091Y004693D02*
X014715Y004693D01*
X014714Y004695D02*
X015092Y004695D01*
X015093Y004698D02*
X014714Y004698D01*
X014713Y004700D02*
X015094Y004700D01*
X015095Y004703D02*
X014713Y004703D01*
X014712Y004705D02*
X015095Y004705D01*
X015096Y004708D02*
X014712Y004708D01*
X014711Y004710D02*
X015096Y004710D01*
X015097Y004712D02*
X014710Y004712D01*
X014710Y004715D02*
X015097Y004715D01*
X015098Y004717D02*
X014709Y004717D01*
X014709Y004720D02*
X015098Y004720D01*
X015099Y004722D02*
X014709Y004722D01*
X014709Y004725D02*
X015099Y004725D01*
X015100Y004727D02*
X014709Y004727D01*
X014709Y004730D02*
X015100Y004730D01*
X015101Y004732D02*
X014709Y004732D01*
X014709Y004734D02*
X015101Y004734D01*
X015102Y004737D02*
X014709Y004737D01*
X014709Y004739D02*
X015102Y004739D01*
X015102Y004742D02*
X014709Y004742D01*
X014709Y004744D02*
X015102Y004744D01*
X015102Y004747D02*
X014709Y004747D01*
X014709Y004749D02*
X015102Y004749D01*
X015102Y004751D02*
X014709Y004751D01*
X014709Y004754D02*
X015102Y004754D01*
X015102Y004756D02*
X014709Y004756D01*
X014709Y004759D02*
X015102Y004759D01*
X015102Y004761D02*
X014709Y004761D01*
X014709Y004764D02*
X015102Y004764D01*
X015102Y004766D02*
X014709Y004766D01*
X014709Y004769D02*
X015102Y004769D01*
X015102Y004771D02*
X014709Y004771D01*
X014709Y004773D02*
X015102Y004773D01*
X015102Y004776D02*
X014709Y004776D01*
X014709Y004778D02*
X015102Y004778D01*
X015102Y004781D02*
X014709Y004781D01*
X014709Y004783D02*
X015102Y004783D01*
X015102Y004786D02*
X014709Y004786D01*
X014709Y004788D02*
X015102Y004788D01*
X015102Y004790D02*
X014709Y004790D01*
X014709Y004793D02*
X015102Y004793D01*
X015102Y004795D02*
X014709Y004795D01*
X014709Y004798D02*
X015102Y004798D01*
X015102Y004800D02*
X014709Y004800D01*
X014709Y004803D02*
X015102Y004803D01*
X015102Y004805D02*
X014709Y004805D01*
X014709Y004808D02*
X015102Y004808D01*
X015102Y004810D02*
X014709Y004810D01*
X014709Y004812D02*
X015102Y004812D01*
X015102Y004815D02*
X014709Y004815D01*
X014709Y004817D02*
X015102Y004817D01*
X015102Y004820D02*
X014709Y004820D01*
X014709Y004822D02*
X015102Y004822D01*
X015102Y004825D02*
X014709Y004825D01*
X014709Y004827D02*
X015102Y004827D01*
X015102Y004829D02*
X014709Y004829D01*
X014709Y004832D02*
X015102Y004832D01*
X015102Y004834D02*
X014709Y004834D01*
X014709Y004837D02*
X015102Y004837D01*
X015102Y004839D02*
X014709Y004839D01*
X014709Y004842D02*
X015102Y004842D01*
X015102Y004844D02*
X014709Y004844D01*
X014709Y004847D02*
X015102Y004847D01*
X015102Y004849D02*
X014709Y004849D01*
X014709Y004851D02*
X015102Y004851D01*
X015102Y004854D02*
X014709Y004854D01*
X014709Y004856D02*
X015102Y004856D01*
X015102Y004859D02*
X014709Y004859D01*
X014709Y004861D02*
X015102Y004861D01*
X015102Y004864D02*
X014709Y004864D01*
X014709Y004866D02*
X015102Y004866D01*
X015102Y004868D02*
X014709Y004868D01*
X014709Y004871D02*
X015102Y004871D01*
X015102Y004873D02*
X014709Y004873D01*
X014709Y004876D02*
X015102Y004876D01*
X015102Y004878D02*
X014709Y004878D01*
X014709Y004881D02*
X015102Y004881D01*
X015102Y004883D02*
X014709Y004883D01*
X014709Y004886D02*
X015102Y004886D01*
X015102Y004888D02*
X014709Y004888D01*
X014709Y004890D02*
X015102Y004890D01*
X015102Y004893D02*
X014709Y004893D01*
X014709Y004895D02*
X015102Y004895D01*
X015102Y004898D02*
X014709Y004898D01*
X014709Y004900D02*
X015102Y004900D01*
X015102Y004903D02*
X014709Y004903D01*
X014709Y004905D02*
X015102Y004905D01*
X015102Y004907D02*
X014709Y004907D01*
X014709Y004910D02*
X015102Y004910D01*
X015102Y004912D02*
X014709Y004912D01*
X014709Y004915D02*
X015102Y004915D01*
X015102Y004917D02*
X014709Y004917D01*
X014709Y004920D02*
X015102Y004920D01*
X015102Y004922D02*
X014709Y004922D01*
X014709Y004924D02*
X015102Y004924D01*
X015102Y004927D02*
X014709Y004927D01*
X014709Y004929D02*
X015102Y004929D01*
X015102Y004932D02*
X014709Y004932D01*
X014709Y004934D02*
X015102Y004934D01*
X015102Y004937D02*
X014709Y004937D01*
X014709Y004939D02*
X015102Y004939D01*
X015102Y004942D02*
X014709Y004942D01*
X014709Y004944D02*
X015102Y004944D01*
X015102Y004946D02*
X014709Y004946D01*
X014709Y004949D02*
X015102Y004949D01*
X015102Y004951D02*
X014709Y004951D01*
X014709Y004954D02*
X015102Y004954D01*
X015102Y004956D02*
X014709Y004956D01*
X014709Y004959D02*
X015102Y004959D01*
X015102Y004961D02*
X014709Y004961D01*
X014709Y004963D02*
X015102Y004963D01*
X015102Y004966D02*
X014709Y004966D01*
X014709Y004968D02*
X015102Y004968D01*
X015102Y004971D02*
X014709Y004971D01*
X014709Y004973D02*
X015102Y004973D01*
X015102Y004976D02*
X014709Y004976D01*
X014709Y004978D02*
X015102Y004978D01*
X015102Y004981D02*
X014709Y004981D01*
X014709Y004983D02*
X015102Y004983D01*
X015102Y004985D02*
X014709Y004985D01*
X014709Y004988D02*
X015102Y004988D01*
X015102Y004990D02*
X014709Y004990D01*
X014709Y004993D02*
X015102Y004993D01*
X015102Y004995D02*
X014709Y004995D01*
X014709Y004998D02*
X015102Y004998D01*
X015102Y005000D02*
X014709Y005000D01*
X014709Y005002D02*
X015102Y005002D01*
X015102Y005005D02*
X014709Y005005D01*
X014709Y005007D02*
X015102Y005007D01*
X015102Y005010D02*
X014709Y005010D01*
X014709Y005012D02*
X015102Y005012D01*
X015102Y005015D02*
X014709Y005015D01*
X014709Y005017D02*
X015102Y005017D01*
X015102Y005020D02*
X014709Y005020D01*
X014709Y005022D02*
X015102Y005022D01*
X015102Y005024D02*
X014709Y005024D01*
X014709Y005027D02*
X015102Y005027D01*
X015102Y005029D02*
X014709Y005029D01*
X014709Y005032D02*
X015102Y005032D01*
X015102Y005034D02*
X014709Y005034D01*
X014709Y005037D02*
X015102Y005037D01*
X015102Y005039D02*
X014709Y005039D01*
X014709Y005041D02*
X015102Y005041D01*
X015102Y005044D02*
X014709Y005044D01*
X014709Y005046D02*
X015102Y005046D01*
X015102Y005049D02*
X014709Y005049D01*
X014709Y005051D02*
X015102Y005051D01*
X015102Y005054D02*
X014709Y005054D01*
X014709Y005056D02*
X015102Y005056D01*
X015102Y005059D02*
X014709Y005059D01*
X014709Y005061D02*
X015102Y005061D01*
X015102Y005063D02*
X014709Y005063D01*
X014709Y005066D02*
X015102Y005066D01*
X015102Y005068D02*
X014709Y005068D01*
X014709Y005071D02*
X015102Y005071D01*
X015102Y005073D02*
X014709Y005073D01*
X014709Y005076D02*
X015102Y005076D01*
X015102Y005078D02*
X014709Y005078D01*
X014709Y005080D02*
X015102Y005080D01*
X015102Y005083D02*
X014709Y005083D01*
X014709Y005085D02*
X015102Y005085D01*
X015102Y005088D02*
X014709Y005088D01*
X014709Y005090D02*
X015102Y005090D01*
X015102Y005093D02*
X014709Y005093D01*
X014709Y005095D02*
X015102Y005095D01*
X015102Y005098D02*
X014709Y005098D01*
X014709Y005100D02*
X015102Y005100D01*
X015102Y005102D02*
X014709Y005102D01*
X014709Y005105D02*
X015102Y005105D01*
X015102Y005107D02*
X014709Y005107D01*
X014709Y005110D02*
X015102Y005110D01*
X015102Y005112D02*
X014709Y005112D01*
X014709Y005115D02*
X015102Y005115D01*
X015102Y005117D02*
X014709Y005117D01*
X014709Y005119D02*
X015102Y005119D01*
X015102Y005122D02*
X014709Y005122D01*
X014709Y005124D02*
X015102Y005124D01*
X015102Y005127D02*
X014709Y005127D01*
X014709Y005129D02*
X015102Y005129D01*
X015102Y005132D02*
X014709Y005132D01*
X014709Y005134D02*
X015102Y005134D01*
X015102Y005137D02*
X014709Y005137D01*
X014709Y005139D02*
X015102Y005139D01*
X015102Y005141D02*
X014709Y005141D01*
X014709Y005144D02*
X015102Y005144D01*
X015102Y005146D02*
X014709Y005146D01*
X014709Y005149D02*
X015102Y005149D01*
X015102Y005151D02*
X014709Y005151D01*
X014709Y005154D02*
X015102Y005154D01*
X015102Y005156D02*
X014709Y005156D01*
X014709Y005158D02*
X015102Y005158D01*
X015102Y005161D02*
X014709Y005161D01*
X014709Y005163D02*
X015102Y005163D01*
X015102Y005166D02*
X014709Y005166D01*
X014709Y005168D02*
X015102Y005168D01*
X015102Y005171D02*
X014709Y005171D01*
X014709Y005173D02*
X015102Y005173D01*
X015102Y005176D02*
X014709Y005176D01*
X014709Y005178D02*
X015102Y005178D01*
X015102Y005180D02*
X014709Y005180D01*
X014709Y005183D02*
X015102Y005183D01*
X015102Y005185D02*
X014709Y005185D01*
X014709Y005188D02*
X015102Y005188D01*
X015102Y005190D02*
X014709Y005190D01*
X014709Y005193D02*
X015102Y005193D01*
X015102Y005195D02*
X014709Y005195D01*
X014709Y005197D02*
X015102Y005197D01*
X015102Y005200D02*
X014709Y005200D01*
X014709Y005202D02*
X015102Y005202D01*
X015102Y005205D02*
X014710Y005205D01*
X014710Y005207D02*
X015102Y005207D01*
X015102Y005215D02*
X014710Y005215D01*
X014710Y005217D02*
X015102Y005217D01*
X015101Y005219D02*
X014711Y005219D01*
X014711Y005222D02*
X015101Y005222D01*
X015100Y005224D02*
X014711Y005224D01*
X014711Y005227D02*
X015100Y005227D01*
X015100Y005229D02*
X014711Y005229D01*
X014711Y005232D02*
X015099Y005232D01*
X015099Y005234D02*
X014712Y005234D01*
X014712Y005236D02*
X015098Y005236D01*
X015098Y005239D02*
X014713Y005239D01*
X014713Y005241D02*
X015098Y005241D01*
X015097Y005244D02*
X014714Y005244D01*
X014715Y005246D02*
X015097Y005246D01*
X015096Y005249D02*
X014716Y005249D01*
X014716Y005251D02*
X015096Y005251D01*
X015096Y005254D02*
X014717Y005254D01*
X014718Y005256D02*
X015095Y005256D01*
X015094Y005258D02*
X014719Y005258D01*
X014719Y005261D02*
X015093Y005261D01*
X015092Y005263D02*
X014720Y005263D01*
X014721Y005266D02*
X015091Y005266D01*
X015090Y005268D02*
X014722Y005268D01*
X014722Y005271D02*
X015089Y005271D01*
X015088Y005273D02*
X014723Y005273D01*
X014724Y005275D02*
X015087Y005275D01*
X015086Y005278D02*
X014725Y005278D01*
X014726Y005280D02*
X015085Y005280D01*
X015084Y005283D02*
X014727Y005283D01*
X014729Y005285D02*
X015083Y005285D01*
X015082Y005288D02*
X014730Y005288D01*
X014731Y005290D02*
X015081Y005290D01*
X015080Y005293D02*
X014733Y005293D01*
X014734Y005295D02*
X015079Y005295D01*
X015078Y005297D02*
X014736Y005297D01*
X014737Y005300D02*
X015076Y005300D01*
X015074Y005302D02*
X014738Y005302D01*
X014740Y005305D02*
X015072Y005305D01*
X015071Y005307D02*
X014741Y005307D01*
X014743Y005310D02*
X015069Y005310D01*
X015067Y005312D02*
X014744Y005312D01*
X014745Y005314D02*
X015066Y005314D01*
X015060Y005322D02*
X014751Y005322D01*
X014754Y005324D02*
X015059Y005324D01*
X015057Y005327D02*
X014756Y005327D01*
X014797Y005363D02*
X015017Y005363D01*
X015021Y005361D02*
X015054Y005331D01*
X015012Y005366D02*
X014801Y005366D01*
X014804Y005368D02*
X015008Y005368D01*
X015004Y005371D02*
X014808Y005371D01*
X014811Y005373D02*
X014999Y005373D01*
X014995Y005375D02*
X014816Y005375D01*
X014822Y005378D02*
X014991Y005378D01*
X014986Y005380D02*
X014828Y005380D01*
X014835Y005383D02*
X014981Y005383D01*
X014973Y005385D02*
X014841Y005385D01*
X014847Y005388D02*
X014964Y005388D01*
X014956Y005390D02*
X014853Y005390D01*
X014867Y005392D02*
X014948Y005392D01*
X014933Y005395D02*
X014883Y005395D01*
X014940Y004571D02*
X014898Y004570D01*
M02*
