G75*
G70*
%OFA0B0*%
%FSLAX24Y24*%
%IPPOS*%
%LPD*%
%AMOC8*
5,1,8,0,0,1.08239X$1,22.5*
%
%ADD10C,0.0050*%
%ADD11C,0.0000*%
%ADD12C,0.1181*%
%ADD13R,0.6150X0.1600*%
%ADD14R,0.1550X0.1000*%
%ADD15R,0.1350X0.1800*%
%ADD16R,0.1500X0.1000*%
%ADD17R,0.0197X0.0220*%
%ADD18R,0.0220X0.0197*%
%ADD19C,0.0450*%
%ADD20R,0.0236X0.0600*%
%ADD21R,0.0350X0.1450*%
%ADD22R,0.0394X0.0433*%
%ADD23R,0.0250X0.0197*%
%ADD24R,0.0472X0.0217*%
%ADD25R,0.0358X0.0480*%
%ADD26R,0.0551X0.0906*%
%ADD27R,0.0157X0.0551*%
%ADD28R,0.0354X0.0250*%
%ADD29R,0.0250X0.0354*%
%ADD30R,0.0315X0.0354*%
%ADD31R,0.0551X0.0236*%
%ADD32R,0.0551X0.1181*%
%ADD33R,0.0906X0.0551*%
%ADD34C,0.0800*%
%ADD35C,0.0472*%
%ADD36C,0.0400*%
%ADD37R,0.0118X0.0450*%
%ADD38R,0.0236X0.0450*%
%ADD39C,0.0330*%
%ADD40C,0.0004*%
%ADD41C,0.0550*%
%ADD42OC8,0.0550*%
%ADD43C,0.0317*%
D10*
X001677Y000927D02*
X033631Y000927D01*
X033630Y000927D02*
X033684Y000929D01*
X033738Y000934D01*
X033791Y000943D01*
X033844Y000956D01*
X033895Y000973D01*
X033945Y000993D01*
X033993Y001017D01*
X034040Y001044D01*
X034085Y001075D01*
X034127Y001108D01*
X034167Y001145D01*
X034204Y001184D01*
X034238Y001226D01*
X034269Y001270D01*
X034297Y001316D01*
X034321Y001364D01*
X034342Y001414D01*
X034360Y001465D01*
X034374Y001517D01*
X034384Y001570D01*
X034390Y001624D01*
X034392Y001677D01*
X034392Y017896D01*
X034392Y017895D02*
X034390Y017949D01*
X034383Y018003D01*
X034373Y018056D01*
X034360Y018108D01*
X034342Y018159D01*
X034321Y018209D01*
X034297Y018257D01*
X034269Y018303D01*
X034237Y018347D01*
X034203Y018388D01*
X034166Y018427D01*
X034126Y018464D01*
X034084Y018497D01*
X034040Y018528D01*
X033993Y018555D01*
X033945Y018578D01*
X033895Y018599D01*
X033843Y018615D01*
X033791Y018628D01*
X033738Y018637D01*
X033684Y018643D01*
X033631Y018644D01*
X001677Y018644D01*
X001624Y018642D01*
X001570Y018637D01*
X001518Y018627D01*
X001466Y018614D01*
X001415Y018597D01*
X001366Y018577D01*
X001318Y018553D01*
X001272Y018526D01*
X001228Y018495D01*
X001186Y018462D01*
X001147Y018425D01*
X001111Y018386D01*
X001077Y018345D01*
X001046Y018301D01*
X001019Y018255D01*
X000995Y018207D01*
X000975Y018158D01*
X000958Y018107D01*
X000944Y018055D01*
X000935Y018003D01*
X000929Y017949D01*
X000927Y017896D01*
X000927Y001677D01*
X000929Y001623D01*
X000935Y001570D01*
X000944Y001518D01*
X000957Y001466D01*
X000974Y001415D01*
X000995Y001365D01*
X001019Y001318D01*
X001046Y001272D01*
X001077Y001228D01*
X001110Y001186D01*
X001147Y001147D01*
X001186Y001110D01*
X001228Y001077D01*
X001272Y001046D01*
X001318Y001019D01*
X001365Y000995D01*
X001415Y000974D01*
X001466Y000957D01*
X001518Y000944D01*
X001570Y000935D01*
X001623Y000929D01*
X001677Y000927D01*
X003677Y002305D02*
X031642Y002305D01*
X031672Y002307D01*
X031702Y002312D01*
X031731Y002321D01*
X031758Y002334D01*
X031784Y002349D01*
X031808Y002368D01*
X031829Y002389D01*
X031848Y002413D01*
X031863Y002439D01*
X031876Y002466D01*
X031885Y002495D01*
X031890Y002525D01*
X031892Y002555D01*
X031892Y004570D01*
X025710Y004570D01*
X025710Y003477D01*
X025708Y003438D01*
X025702Y003399D01*
X025693Y003361D01*
X025680Y003324D01*
X025663Y003288D01*
X025643Y003255D01*
X025619Y003223D01*
X025593Y003194D01*
X025564Y003168D01*
X025532Y003144D01*
X025499Y003124D01*
X025463Y003107D01*
X025426Y003094D01*
X025388Y003085D01*
X025349Y003079D01*
X025310Y003077D01*
X018928Y003077D01*
X018928Y003078D02*
X018923Y003039D01*
X018914Y003001D01*
X018901Y002964D01*
X018885Y002929D01*
X018865Y002895D01*
X018842Y002863D01*
X018816Y002834D01*
X018787Y002808D01*
X018756Y002785D01*
X018722Y002764D01*
X018687Y002748D01*
X018650Y002734D01*
X018613Y002725D01*
X018574Y002719D01*
X018535Y002717D01*
X018496Y002719D01*
X018457Y002725D01*
X018420Y002734D01*
X018383Y002748D01*
X018348Y002764D01*
X018314Y002785D01*
X018283Y002808D01*
X018254Y002834D01*
X018228Y002863D01*
X018205Y002895D01*
X018185Y002929D01*
X018169Y002964D01*
X018156Y003001D01*
X018147Y003039D01*
X018142Y003078D01*
X018141Y003077D02*
X015298Y003077D01*
X015298Y003078D02*
X015293Y003039D01*
X015284Y003001D01*
X015271Y002964D01*
X015255Y002929D01*
X015235Y002895D01*
X015212Y002863D01*
X015186Y002834D01*
X015157Y002808D01*
X015126Y002785D01*
X015092Y002764D01*
X015057Y002748D01*
X015020Y002734D01*
X014983Y002725D01*
X014944Y002719D01*
X014905Y002717D01*
X014866Y002719D01*
X014827Y002725D01*
X014790Y002734D01*
X014753Y002748D01*
X014718Y002764D01*
X014684Y002785D01*
X014653Y002808D01*
X014624Y002834D01*
X014598Y002863D01*
X014575Y002895D01*
X014555Y002929D01*
X014539Y002964D01*
X014526Y003001D01*
X014517Y003039D01*
X014512Y003078D01*
X014511Y003077D02*
X005110Y003077D01*
X005085Y003082D01*
X005062Y003091D01*
X005039Y003103D01*
X005019Y003118D01*
X005001Y003136D01*
X004986Y003156D01*
X004974Y003178D01*
X004965Y003202D01*
X004960Y003227D01*
X004958Y003252D01*
X004960Y003277D01*
X004960Y003683D01*
X003427Y003683D01*
X003427Y002527D01*
X003431Y002499D01*
X003438Y002471D01*
X003448Y002444D01*
X003461Y002419D01*
X003477Y002396D01*
X003496Y002374D01*
X003517Y002355D01*
X003541Y002339D01*
X003566Y002326D01*
X003593Y002316D01*
X003620Y002309D01*
X003648Y002305D01*
X003677Y002305D01*
X003427Y004671D02*
X004960Y004671D01*
X004960Y005127D01*
X003427Y004671D02*
X003427Y011245D01*
X004994Y011245D01*
X004994Y010564D01*
X004996Y010525D01*
X005002Y010486D01*
X005011Y010448D01*
X005024Y010411D01*
X005041Y010375D01*
X005061Y010342D01*
X005085Y010310D01*
X005111Y010281D01*
X005140Y010255D01*
X005172Y010231D01*
X005205Y010211D01*
X005241Y010194D01*
X005278Y010181D01*
X005316Y010172D01*
X005355Y010166D01*
X005394Y010164D01*
X030138Y010164D01*
X030177Y010166D01*
X030216Y010172D01*
X030254Y010181D01*
X030291Y010194D01*
X030327Y010211D01*
X030360Y010231D01*
X030392Y010255D01*
X030421Y010281D01*
X030447Y010310D01*
X030471Y010342D01*
X030491Y010375D01*
X030508Y010411D01*
X030521Y010448D01*
X030530Y010486D01*
X030536Y010525D01*
X030538Y010564D01*
X030538Y012220D01*
X031892Y012220D01*
X031892Y008810D01*
X031192Y008810D01*
X031169Y008814D01*
X031147Y008821D01*
X031126Y008831D01*
X031107Y008844D01*
X031090Y008860D01*
X031076Y008878D01*
X031064Y008898D01*
X031055Y008919D01*
X031049Y008941D01*
X031046Y008964D01*
X031047Y008987D01*
X031046Y008988D02*
X031046Y009050D01*
X031046Y009073D01*
X031042Y009096D01*
X031036Y009118D01*
X031026Y009139D01*
X031014Y009158D01*
X030999Y009175D01*
X030981Y009190D01*
X030962Y009203D01*
X030941Y009212D01*
X030919Y009218D01*
X030896Y009222D01*
X029019Y009222D01*
X028969Y009184D01*
X028921Y009143D01*
X028876Y009099D01*
X028834Y009053D01*
X028794Y009004D01*
X028758Y008952D01*
X028725Y008899D01*
X028695Y008844D01*
X028668Y008787D01*
X028645Y008728D01*
X028626Y008668D01*
X028610Y008607D01*
X028598Y008546D01*
X028589Y008483D01*
X028585Y008420D01*
X028584Y008358D01*
X028587Y008295D01*
X028594Y008232D01*
X028605Y008170D01*
X028619Y008109D01*
X028637Y008049D01*
X028659Y007990D01*
X028684Y007932D01*
X028713Y007876D01*
X028745Y007822D01*
X028780Y007770D01*
X028818Y007720D01*
X028859Y007672D01*
X028904Y007627D01*
X028950Y007585D01*
X028999Y007546D01*
X029051Y007510D01*
X029104Y007477D01*
X029160Y007447D01*
X029217Y007421D01*
X029275Y007398D01*
X029335Y007379D01*
X029396Y007363D01*
X029458Y007351D01*
X029520Y007343D01*
X029583Y007339D01*
X029646Y007338D01*
X029709Y007342D01*
X029771Y007349D01*
X029833Y007360D01*
X029895Y007374D01*
X029955Y007392D01*
X030014Y007414D01*
X030071Y007440D01*
X030267Y007440D01*
X030293Y007438D01*
X030318Y007433D01*
X030342Y007424D01*
X030364Y007411D01*
X030385Y007396D01*
X030403Y007378D01*
X030418Y007357D01*
X030431Y007335D01*
X030440Y007311D01*
X030445Y007286D01*
X030447Y007260D01*
X030447Y007147D01*
X030448Y007147D02*
X030450Y007114D01*
X030455Y007080D01*
X030465Y007048D01*
X030478Y007017D01*
X030494Y006988D01*
X030513Y006961D01*
X030536Y006936D01*
X030561Y006913D01*
X030588Y006894D01*
X030617Y006878D01*
X030648Y006865D01*
X030680Y006855D01*
X030714Y006850D01*
X030747Y006848D01*
X030780Y006850D01*
X030814Y006855D01*
X030846Y006865D01*
X030877Y006878D01*
X030906Y006894D01*
X030933Y006913D01*
X030958Y006936D01*
X030981Y006961D01*
X031000Y006988D01*
X031016Y007017D01*
X031029Y007048D01*
X031039Y007080D01*
X031044Y007114D01*
X031046Y007147D01*
X031046Y007761D01*
X031047Y007761D02*
X031050Y007784D01*
X031057Y007806D01*
X031067Y007827D01*
X031080Y007847D01*
X031095Y007864D01*
X031113Y007879D01*
X031133Y007891D01*
X031154Y007901D01*
X031177Y007907D01*
X031200Y007910D01*
X031223Y007909D01*
X031223Y007910D02*
X031892Y007910D01*
X031892Y006158D01*
X025710Y006158D01*
X025710Y008677D01*
X025708Y008716D01*
X025702Y008755D01*
X025693Y008793D01*
X025680Y008830D01*
X025663Y008866D01*
X025643Y008899D01*
X025619Y008931D01*
X025593Y008960D01*
X025564Y008986D01*
X025532Y009010D01*
X025499Y009030D01*
X025463Y009047D01*
X025426Y009060D01*
X025388Y009069D01*
X025349Y009075D01*
X025310Y009077D01*
X006960Y009077D01*
X006921Y009075D01*
X006882Y009069D01*
X006844Y009060D01*
X006807Y009047D01*
X006771Y009030D01*
X006738Y009010D01*
X006706Y008986D01*
X006677Y008960D01*
X006651Y008931D01*
X006627Y008899D01*
X006607Y008866D01*
X006590Y008830D01*
X006577Y008793D01*
X006568Y008755D01*
X006562Y008716D01*
X006560Y008677D01*
X006534Y008413D01*
X006496Y008151D01*
X006446Y007891D01*
X006384Y007633D01*
X006310Y007379D01*
X006224Y007129D01*
X006126Y006882D01*
X006017Y006641D01*
X005897Y006404D01*
X005767Y006174D01*
X005625Y005950D01*
X005473Y005733D01*
X005312Y005523D01*
X005141Y005321D01*
X004960Y005127D01*
X004994Y012233D02*
X003427Y012233D01*
X003427Y016586D01*
X003429Y016616D01*
X003434Y016646D01*
X003443Y016675D01*
X003456Y016702D01*
X003471Y016728D01*
X003490Y016752D01*
X003511Y016773D01*
X003535Y016792D01*
X003561Y016807D01*
X003588Y016820D01*
X003617Y016829D01*
X003647Y016834D01*
X003677Y016836D01*
X031642Y016836D01*
X031672Y016834D01*
X031702Y016829D01*
X031731Y016820D01*
X031758Y016807D01*
X031784Y016792D01*
X031808Y016773D01*
X031829Y016752D01*
X031848Y016728D01*
X031863Y016702D01*
X031876Y016675D01*
X031885Y016646D01*
X031890Y016616D01*
X031892Y016586D01*
X031892Y014008D01*
X030538Y014008D01*
X030538Y015914D01*
X030536Y015937D01*
X030531Y015960D01*
X030522Y015982D01*
X030509Y016002D01*
X030494Y016020D01*
X030476Y016035D01*
X030456Y016048D01*
X030434Y016057D01*
X030411Y016062D01*
X030388Y016064D01*
X008410Y016064D01*
X008371Y016062D01*
X008332Y016056D01*
X008294Y016047D01*
X008257Y016034D01*
X008221Y016017D01*
X008188Y015997D01*
X008156Y015973D01*
X008127Y015947D01*
X008101Y015918D01*
X008077Y015886D01*
X008057Y015853D01*
X008040Y015817D01*
X008027Y015780D01*
X008018Y015742D01*
X008012Y015703D01*
X008010Y015664D01*
X008010Y013714D01*
X008008Y013675D01*
X008002Y013636D01*
X007993Y013598D01*
X007980Y013561D01*
X007963Y013525D01*
X007943Y013492D01*
X007919Y013460D01*
X007893Y013431D01*
X007864Y013405D01*
X007832Y013381D01*
X007799Y013361D01*
X007763Y013344D01*
X007726Y013331D01*
X007688Y013322D01*
X007649Y013316D01*
X007610Y013314D01*
X005394Y013314D01*
X005355Y013312D01*
X005316Y013306D01*
X005278Y013297D01*
X005241Y013284D01*
X005205Y013267D01*
X005172Y013247D01*
X005140Y013223D01*
X005111Y013197D01*
X005085Y013168D01*
X005061Y013136D01*
X005041Y013103D01*
X005024Y013067D01*
X005011Y013030D01*
X005002Y012992D01*
X004996Y012953D01*
X004994Y012914D01*
X004994Y012233D01*
D11*
X001440Y015215D02*
X001442Y015263D01*
X001448Y015311D01*
X001458Y015358D01*
X001471Y015404D01*
X001489Y015449D01*
X001509Y015493D01*
X001534Y015535D01*
X001562Y015574D01*
X001592Y015611D01*
X001626Y015645D01*
X001663Y015677D01*
X001701Y015706D01*
X001742Y015731D01*
X001785Y015753D01*
X001830Y015771D01*
X001876Y015785D01*
X001923Y015796D01*
X001971Y015803D01*
X002019Y015806D01*
X002067Y015805D01*
X002115Y015800D01*
X002163Y015791D01*
X002209Y015779D01*
X002254Y015762D01*
X002298Y015742D01*
X002340Y015719D01*
X002380Y015692D01*
X002418Y015662D01*
X002453Y015629D01*
X002485Y015593D01*
X002515Y015555D01*
X002541Y015514D01*
X002563Y015471D01*
X002583Y015427D01*
X002598Y015382D01*
X002610Y015335D01*
X002618Y015287D01*
X002622Y015239D01*
X002622Y015191D01*
X002618Y015143D01*
X002610Y015095D01*
X002598Y015048D01*
X002583Y015003D01*
X002563Y014959D01*
X002541Y014916D01*
X002515Y014875D01*
X002485Y014837D01*
X002453Y014801D01*
X002418Y014768D01*
X002380Y014738D01*
X002340Y014711D01*
X002298Y014688D01*
X002254Y014668D01*
X002209Y014651D01*
X002163Y014639D01*
X002115Y014630D01*
X002067Y014625D01*
X002019Y014624D01*
X001971Y014627D01*
X001923Y014634D01*
X001876Y014645D01*
X001830Y014659D01*
X001785Y014677D01*
X001742Y014699D01*
X001701Y014724D01*
X001663Y014753D01*
X001626Y014785D01*
X001592Y014819D01*
X001562Y014856D01*
X001534Y014895D01*
X001509Y014937D01*
X001489Y014981D01*
X001471Y015026D01*
X001458Y015072D01*
X001448Y015119D01*
X001442Y015167D01*
X001440Y015215D01*
X007182Y005080D02*
X007184Y005120D01*
X007190Y005159D01*
X007200Y005198D01*
X007213Y005235D01*
X007231Y005271D01*
X007252Y005305D01*
X007276Y005337D01*
X007303Y005366D01*
X007333Y005393D01*
X007365Y005416D01*
X007400Y005436D01*
X007436Y005452D01*
X007474Y005465D01*
X007513Y005474D01*
X007552Y005479D01*
X007592Y005480D01*
X007632Y005477D01*
X007671Y005470D01*
X007709Y005459D01*
X007747Y005445D01*
X007782Y005426D01*
X007815Y005405D01*
X007847Y005380D01*
X007875Y005352D01*
X007901Y005322D01*
X007923Y005289D01*
X007942Y005254D01*
X007958Y005217D01*
X007970Y005179D01*
X007978Y005140D01*
X007982Y005100D01*
X007982Y005060D01*
X007978Y005020D01*
X007970Y004981D01*
X007958Y004943D01*
X007942Y004906D01*
X007923Y004871D01*
X007901Y004838D01*
X007875Y004808D01*
X007847Y004780D01*
X007815Y004755D01*
X007782Y004734D01*
X007747Y004715D01*
X007709Y004701D01*
X007671Y004690D01*
X007632Y004683D01*
X007592Y004680D01*
X007552Y004681D01*
X007513Y004686D01*
X007474Y004695D01*
X007436Y004708D01*
X007400Y004724D01*
X007365Y004744D01*
X007333Y004767D01*
X007303Y004794D01*
X007276Y004823D01*
X007252Y004855D01*
X007231Y004889D01*
X007213Y004925D01*
X007200Y004962D01*
X007190Y005001D01*
X007184Y005040D01*
X007182Y005080D01*
X009001Y004288D02*
X009003Y004318D01*
X009009Y004348D01*
X009018Y004377D01*
X009031Y004404D01*
X009048Y004429D01*
X009067Y004452D01*
X009090Y004473D01*
X009115Y004490D01*
X009141Y004504D01*
X009170Y004514D01*
X009199Y004521D01*
X009229Y004524D01*
X009260Y004523D01*
X009290Y004518D01*
X009319Y004509D01*
X009346Y004497D01*
X009372Y004482D01*
X009396Y004463D01*
X009417Y004441D01*
X009435Y004417D01*
X009450Y004390D01*
X009461Y004362D01*
X009469Y004333D01*
X009473Y004303D01*
X009473Y004273D01*
X009469Y004243D01*
X009461Y004214D01*
X009450Y004186D01*
X009435Y004159D01*
X009417Y004135D01*
X009396Y004113D01*
X009372Y004094D01*
X009346Y004079D01*
X009319Y004067D01*
X009290Y004058D01*
X009260Y004053D01*
X009229Y004052D01*
X009199Y004055D01*
X009170Y004062D01*
X009141Y004072D01*
X009115Y004086D01*
X009090Y004103D01*
X009067Y004124D01*
X009048Y004147D01*
X009031Y004172D01*
X009018Y004199D01*
X009009Y004228D01*
X009003Y004258D01*
X009001Y004288D01*
X011560Y004288D02*
X011562Y004318D01*
X011568Y004348D01*
X011577Y004377D01*
X011590Y004404D01*
X011607Y004429D01*
X011626Y004452D01*
X011649Y004473D01*
X011674Y004490D01*
X011700Y004504D01*
X011729Y004514D01*
X011758Y004521D01*
X011788Y004524D01*
X011819Y004523D01*
X011849Y004518D01*
X011878Y004509D01*
X011905Y004497D01*
X011931Y004482D01*
X011955Y004463D01*
X011976Y004441D01*
X011994Y004417D01*
X012009Y004390D01*
X012020Y004362D01*
X012028Y004333D01*
X012032Y004303D01*
X012032Y004273D01*
X012028Y004243D01*
X012020Y004214D01*
X012009Y004186D01*
X011994Y004159D01*
X011976Y004135D01*
X011955Y004113D01*
X011931Y004094D01*
X011905Y004079D01*
X011878Y004067D01*
X011849Y004058D01*
X011819Y004053D01*
X011788Y004052D01*
X011758Y004055D01*
X011729Y004062D01*
X011700Y004072D01*
X011674Y004086D01*
X011649Y004103D01*
X011626Y004124D01*
X011607Y004147D01*
X011590Y004172D01*
X011577Y004199D01*
X011568Y004228D01*
X011562Y004258D01*
X011560Y004288D01*
X013487Y005080D02*
X013489Y005120D01*
X013495Y005159D01*
X013505Y005198D01*
X013518Y005235D01*
X013536Y005271D01*
X013557Y005305D01*
X013581Y005337D01*
X013608Y005366D01*
X013638Y005393D01*
X013670Y005416D01*
X013705Y005436D01*
X013741Y005452D01*
X013779Y005465D01*
X013818Y005474D01*
X013857Y005479D01*
X013897Y005480D01*
X013937Y005477D01*
X013976Y005470D01*
X014014Y005459D01*
X014052Y005445D01*
X014087Y005426D01*
X014120Y005405D01*
X014152Y005380D01*
X014180Y005352D01*
X014206Y005322D01*
X014228Y005289D01*
X014247Y005254D01*
X014263Y005217D01*
X014275Y005179D01*
X014283Y005140D01*
X014287Y005100D01*
X014287Y005060D01*
X014283Y005020D01*
X014275Y004981D01*
X014263Y004943D01*
X014247Y004906D01*
X014228Y004871D01*
X014206Y004838D01*
X014180Y004808D01*
X014152Y004780D01*
X014120Y004755D01*
X014087Y004734D01*
X014052Y004715D01*
X014014Y004701D01*
X013976Y004690D01*
X013937Y004683D01*
X013897Y004680D01*
X013857Y004681D01*
X013818Y004686D01*
X013779Y004695D01*
X013741Y004708D01*
X013705Y004724D01*
X013670Y004744D01*
X013638Y004767D01*
X013608Y004794D01*
X013581Y004823D01*
X013557Y004855D01*
X013536Y004889D01*
X013518Y004925D01*
X013505Y004962D01*
X013495Y005001D01*
X013489Y005040D01*
X013487Y005080D01*
X015196Y004757D02*
X015198Y004782D01*
X015204Y004807D01*
X015213Y004830D01*
X015226Y004852D01*
X015242Y004871D01*
X015261Y004888D01*
X015282Y004902D01*
X015305Y004912D01*
X015330Y004919D01*
X015355Y004922D01*
X015380Y004921D01*
X015405Y004916D01*
X015428Y004908D01*
X015451Y004895D01*
X015471Y004880D01*
X015488Y004862D01*
X015503Y004841D01*
X015514Y004819D01*
X015522Y004795D01*
X015526Y004770D01*
X015526Y004744D01*
X015522Y004719D01*
X015514Y004695D01*
X015503Y004673D01*
X015488Y004652D01*
X015471Y004634D01*
X015451Y004619D01*
X015428Y004606D01*
X015405Y004598D01*
X015380Y004593D01*
X015355Y004592D01*
X015330Y004595D01*
X015305Y004602D01*
X015282Y004612D01*
X015261Y004626D01*
X015242Y004643D01*
X015226Y004662D01*
X015213Y004684D01*
X015204Y004707D01*
X015198Y004732D01*
X015196Y004757D01*
X017913Y004757D02*
X017915Y004782D01*
X017921Y004807D01*
X017930Y004830D01*
X017943Y004852D01*
X017959Y004871D01*
X017978Y004888D01*
X017999Y004902D01*
X018022Y004912D01*
X018047Y004919D01*
X018072Y004922D01*
X018097Y004921D01*
X018122Y004916D01*
X018145Y004908D01*
X018168Y004895D01*
X018188Y004880D01*
X018205Y004862D01*
X018220Y004841D01*
X018231Y004819D01*
X018239Y004795D01*
X018243Y004770D01*
X018243Y004744D01*
X018239Y004719D01*
X018231Y004695D01*
X018220Y004673D01*
X018205Y004652D01*
X018188Y004634D01*
X018168Y004619D01*
X018145Y004606D01*
X018122Y004598D01*
X018097Y004593D01*
X018072Y004592D01*
X018047Y004595D01*
X018022Y004602D01*
X017999Y004612D01*
X017978Y004626D01*
X017959Y004643D01*
X017943Y004662D01*
X017930Y004684D01*
X017921Y004707D01*
X017915Y004732D01*
X017913Y004757D01*
X032687Y002959D02*
X032689Y003007D01*
X032695Y003055D01*
X032705Y003102D01*
X032718Y003148D01*
X032736Y003193D01*
X032756Y003237D01*
X032781Y003279D01*
X032809Y003318D01*
X032839Y003355D01*
X032873Y003389D01*
X032910Y003421D01*
X032948Y003450D01*
X032989Y003475D01*
X033032Y003497D01*
X033077Y003515D01*
X033123Y003529D01*
X033170Y003540D01*
X033218Y003547D01*
X033266Y003550D01*
X033314Y003549D01*
X033362Y003544D01*
X033410Y003535D01*
X033456Y003523D01*
X033501Y003506D01*
X033545Y003486D01*
X033587Y003463D01*
X033627Y003436D01*
X033665Y003406D01*
X033700Y003373D01*
X033732Y003337D01*
X033762Y003299D01*
X033788Y003258D01*
X033810Y003215D01*
X033830Y003171D01*
X033845Y003126D01*
X033857Y003079D01*
X033865Y003031D01*
X033869Y002983D01*
X033869Y002935D01*
X033865Y002887D01*
X033857Y002839D01*
X033845Y002792D01*
X033830Y002747D01*
X033810Y002703D01*
X033788Y002660D01*
X033762Y002619D01*
X033732Y002581D01*
X033700Y002545D01*
X033665Y002512D01*
X033627Y002482D01*
X033587Y002455D01*
X033545Y002432D01*
X033501Y002412D01*
X033456Y002395D01*
X033410Y002383D01*
X033362Y002374D01*
X033314Y002369D01*
X033266Y002368D01*
X033218Y002371D01*
X033170Y002378D01*
X033123Y002389D01*
X033077Y002403D01*
X033032Y002421D01*
X032989Y002443D01*
X032948Y002468D01*
X032910Y002497D01*
X032873Y002529D01*
X032839Y002563D01*
X032809Y002600D01*
X032781Y002639D01*
X032756Y002681D01*
X032736Y002725D01*
X032718Y002770D01*
X032705Y002816D01*
X032695Y002863D01*
X032689Y002911D01*
X032687Y002959D01*
X032687Y015215D02*
X032689Y015263D01*
X032695Y015311D01*
X032705Y015358D01*
X032718Y015404D01*
X032736Y015449D01*
X032756Y015493D01*
X032781Y015535D01*
X032809Y015574D01*
X032839Y015611D01*
X032873Y015645D01*
X032910Y015677D01*
X032948Y015706D01*
X032989Y015731D01*
X033032Y015753D01*
X033077Y015771D01*
X033123Y015785D01*
X033170Y015796D01*
X033218Y015803D01*
X033266Y015806D01*
X033314Y015805D01*
X033362Y015800D01*
X033410Y015791D01*
X033456Y015779D01*
X033501Y015762D01*
X033545Y015742D01*
X033587Y015719D01*
X033627Y015692D01*
X033665Y015662D01*
X033700Y015629D01*
X033732Y015593D01*
X033762Y015555D01*
X033788Y015514D01*
X033810Y015471D01*
X033830Y015427D01*
X033845Y015382D01*
X033857Y015335D01*
X033865Y015287D01*
X033869Y015239D01*
X033869Y015191D01*
X033865Y015143D01*
X033857Y015095D01*
X033845Y015048D01*
X033830Y015003D01*
X033810Y014959D01*
X033788Y014916D01*
X033762Y014875D01*
X033732Y014837D01*
X033700Y014801D01*
X033665Y014768D01*
X033627Y014738D01*
X033587Y014711D01*
X033545Y014688D01*
X033501Y014668D01*
X033456Y014651D01*
X033410Y014639D01*
X033362Y014630D01*
X033314Y014625D01*
X033266Y014624D01*
X033218Y014627D01*
X033170Y014634D01*
X033123Y014645D01*
X033077Y014659D01*
X033032Y014677D01*
X032989Y014699D01*
X032948Y014724D01*
X032910Y014753D01*
X032873Y014785D01*
X032839Y014819D01*
X032809Y014856D01*
X032781Y014895D01*
X032756Y014937D01*
X032736Y014981D01*
X032718Y015026D01*
X032705Y015072D01*
X032695Y015119D01*
X032689Y015167D01*
X032687Y015215D01*
X001440Y002959D02*
X001442Y003007D01*
X001448Y003055D01*
X001458Y003102D01*
X001471Y003148D01*
X001489Y003193D01*
X001509Y003237D01*
X001534Y003279D01*
X001562Y003318D01*
X001592Y003355D01*
X001626Y003389D01*
X001663Y003421D01*
X001701Y003450D01*
X001742Y003475D01*
X001785Y003497D01*
X001830Y003515D01*
X001876Y003529D01*
X001923Y003540D01*
X001971Y003547D01*
X002019Y003550D01*
X002067Y003549D01*
X002115Y003544D01*
X002163Y003535D01*
X002209Y003523D01*
X002254Y003506D01*
X002298Y003486D01*
X002340Y003463D01*
X002380Y003436D01*
X002418Y003406D01*
X002453Y003373D01*
X002485Y003337D01*
X002515Y003299D01*
X002541Y003258D01*
X002563Y003215D01*
X002583Y003171D01*
X002598Y003126D01*
X002610Y003079D01*
X002618Y003031D01*
X002622Y002983D01*
X002622Y002935D01*
X002618Y002887D01*
X002610Y002839D01*
X002598Y002792D01*
X002583Y002747D01*
X002563Y002703D01*
X002541Y002660D01*
X002515Y002619D01*
X002485Y002581D01*
X002453Y002545D01*
X002418Y002512D01*
X002380Y002482D01*
X002340Y002455D01*
X002298Y002432D01*
X002254Y002412D01*
X002209Y002395D01*
X002163Y002383D01*
X002115Y002374D01*
X002067Y002369D01*
X002019Y002368D01*
X001971Y002371D01*
X001923Y002378D01*
X001876Y002389D01*
X001830Y002403D01*
X001785Y002421D01*
X001742Y002443D01*
X001701Y002468D01*
X001663Y002497D01*
X001626Y002529D01*
X001592Y002563D01*
X001562Y002600D01*
X001534Y002639D01*
X001509Y002681D01*
X001489Y002725D01*
X001471Y002770D01*
X001458Y002816D01*
X001448Y002863D01*
X001442Y002911D01*
X001440Y002959D01*
D12*
X002031Y002959D03*
X002031Y015215D03*
X033278Y015215D03*
X033278Y002959D03*
D13*
X028802Y005377D03*
D14*
X004202Y011727D03*
D15*
X031202Y013127D03*
D16*
X004177Y004177D03*
D17*
X014944Y012305D03*
X014944Y012752D03*
X019884Y011038D03*
X020284Y011038D03*
X020684Y011038D03*
X021084Y011038D03*
X021084Y010592D03*
X020684Y010592D03*
X020284Y010592D03*
X019884Y010592D03*
X019358Y008195D03*
X019358Y007749D03*
X019358Y007295D03*
X019358Y006849D03*
X019358Y006405D03*
X019358Y005958D03*
D18*
X019974Y005249D03*
X020421Y005249D03*
X020421Y004823D03*
X019974Y004823D03*
X020868Y004823D03*
X021315Y004823D03*
X021315Y005249D03*
X020868Y005249D03*
X019724Y003789D03*
X019278Y003789D03*
X019278Y003379D03*
X019724Y003379D03*
X029323Y007682D03*
X029770Y007682D03*
X029770Y008042D03*
X029770Y008402D03*
X029323Y008402D03*
X029323Y008042D03*
X029323Y008762D03*
X029770Y008762D03*
X024859Y010477D03*
X024412Y010477D03*
X024412Y010888D03*
X024859Y010888D03*
X020189Y012047D03*
X019742Y012047D03*
X019289Y012047D03*
X018842Y012047D03*
X018389Y012047D03*
X018389Y011616D03*
X018842Y011616D03*
X019289Y011616D03*
X018389Y011190D03*
X017942Y011190D03*
X017942Y011616D03*
X017942Y012047D03*
X012628Y010827D03*
X012182Y010827D03*
X011728Y010827D03*
X011282Y010827D03*
D19*
X030746Y008752D03*
X030746Y007952D03*
X030746Y007152D03*
D20*
X012353Y013647D03*
X011959Y013647D03*
D21*
X011347Y014692D03*
X012964Y014692D03*
D22*
X023509Y012627D03*
X024219Y012627D03*
X025493Y012477D03*
X026203Y012477D03*
X017262Y007780D03*
X016553Y007780D03*
X015762Y007781D03*
X015053Y007781D03*
X015053Y007130D03*
X015762Y007130D03*
X016553Y007130D03*
X017262Y007130D03*
D23*
X015645Y010512D03*
X015205Y010512D03*
D24*
X025610Y010988D03*
X025610Y011362D03*
X025610Y011736D03*
X026634Y011736D03*
X026634Y011362D03*
X026634Y010988D03*
D25*
X024859Y011827D03*
X023569Y011827D03*
X012600Y011477D03*
X011310Y011477D03*
D26*
X024887Y013712D03*
X026284Y013712D03*
D27*
X018742Y008080D03*
X018486Y008080D03*
X018230Y008080D03*
X017974Y008080D03*
X017974Y006347D03*
X018230Y006347D03*
X018486Y006347D03*
X018742Y006347D03*
D28*
X019970Y006301D03*
X019970Y005754D03*
X019972Y006854D03*
X019972Y007401D03*
X019972Y007954D03*
X019972Y008501D03*
X014341Y012255D03*
X014341Y012802D03*
D29*
X014369Y013355D03*
X014915Y013355D03*
X016872Y011289D03*
X017418Y011289D03*
X023441Y013612D03*
X023988Y013612D03*
D30*
X012329Y012154D03*
X011581Y012154D03*
X011955Y013010D03*
D31*
X017822Y013038D03*
X017822Y012538D03*
X017822Y013538D03*
X017822Y014038D03*
X019909Y014038D03*
X019909Y013538D03*
X019909Y013038D03*
X019909Y012538D03*
D32*
X018866Y013288D03*
D33*
X016292Y013660D03*
X016292Y012262D03*
D34*
X013887Y005080D03*
X007582Y005080D03*
D35*
X009237Y004288D03*
X011796Y004288D03*
D36*
X012347Y004797D02*
X012347Y005197D01*
X012033Y005663D02*
X012033Y006063D01*
X011245Y006844D02*
X011245Y007244D01*
X009985Y007244D02*
X009985Y006844D01*
X009395Y006457D02*
X009395Y006057D01*
X008725Y005473D02*
X008725Y005073D01*
X010415Y003855D02*
X010815Y003855D01*
X008883Y006844D02*
X008883Y007244D01*
D37*
X016031Y005203D03*
X016228Y005203D03*
X016424Y005203D03*
X016621Y005203D03*
X016818Y005203D03*
X017015Y005203D03*
X017212Y005203D03*
X017409Y005203D03*
D38*
X017684Y005203D03*
X017989Y005203D03*
X015755Y005203D03*
X015450Y005203D03*
D39*
X015361Y004757D03*
X018078Y004757D03*
D40*
X018299Y004756D02*
X018772Y004756D01*
X018772Y004754D02*
X018299Y004754D01*
X018299Y004751D02*
X018772Y004751D01*
X018772Y004749D02*
X018299Y004749D01*
X018299Y004747D02*
X018772Y004747D01*
X018772Y004744D02*
X018299Y004744D01*
X018299Y004742D02*
X018772Y004742D01*
X018772Y004740D02*
X018764Y004690D01*
X018745Y004643D01*
X018716Y004601D01*
X018678Y004567D01*
X018634Y004543D01*
X018586Y004528D01*
X018535Y004525D01*
X018485Y004528D01*
X018437Y004543D01*
X018393Y004567D01*
X018355Y004601D01*
X018326Y004643D01*
X018307Y004690D01*
X018299Y004740D01*
X018299Y005212D01*
X018305Y005256D01*
X018765Y005256D01*
X018765Y005258D02*
X018306Y005258D01*
X018305Y005256D02*
X018320Y005298D01*
X018342Y005337D01*
X018372Y005370D01*
X018408Y005397D01*
X018660Y005397D01*
X018656Y005400D02*
X018413Y005400D01*
X018418Y005402D02*
X018652Y005402D01*
X018648Y005405D02*
X018423Y005405D01*
X018428Y005407D02*
X018643Y005407D01*
X018639Y005410D02*
X018433Y005410D01*
X018438Y005412D02*
X018635Y005412D01*
X018679Y005386D01*
X018717Y005352D01*
X018745Y005310D01*
X018764Y005262D01*
X018772Y005212D01*
X018772Y004740D01*
X018772Y004739D02*
X018299Y004739D01*
X018300Y004737D02*
X018771Y004737D01*
X018771Y004734D02*
X018300Y004734D01*
X018300Y004732D02*
X018770Y004732D01*
X018770Y004730D02*
X018301Y004730D01*
X018301Y004727D02*
X018770Y004727D01*
X018769Y004725D02*
X018302Y004725D01*
X018302Y004722D02*
X018769Y004722D01*
X018768Y004720D02*
X018302Y004720D01*
X018303Y004717D02*
X018768Y004717D01*
X018768Y004715D02*
X018303Y004715D01*
X018304Y004712D02*
X018767Y004712D01*
X018767Y004710D02*
X018304Y004710D01*
X018304Y004708D02*
X018766Y004708D01*
X018766Y004705D02*
X018305Y004705D01*
X018305Y004703D02*
X018766Y004703D01*
X018765Y004700D02*
X018306Y004700D01*
X018306Y004698D02*
X018765Y004698D01*
X018765Y004695D02*
X018306Y004695D01*
X018307Y004693D02*
X018764Y004693D01*
X018764Y004691D02*
X018307Y004691D01*
X018308Y004688D02*
X018763Y004688D01*
X018762Y004686D02*
X018309Y004686D01*
X018310Y004683D02*
X018761Y004683D01*
X018760Y004681D02*
X018311Y004681D01*
X018312Y004678D02*
X018759Y004678D01*
X018758Y004676D02*
X018313Y004676D01*
X018314Y004673D02*
X018757Y004673D01*
X018756Y004671D02*
X018315Y004671D01*
X018316Y004669D02*
X018755Y004669D01*
X018754Y004666D02*
X018317Y004666D01*
X018318Y004664D02*
X018753Y004664D01*
X018752Y004661D02*
X018319Y004661D01*
X018320Y004659D02*
X018751Y004659D01*
X018750Y004656D02*
X018321Y004656D01*
X018322Y004654D02*
X018749Y004654D01*
X018748Y004652D02*
X018323Y004652D01*
X018324Y004649D02*
X018747Y004649D01*
X018746Y004647D02*
X018325Y004647D01*
X018326Y004644D02*
X018745Y004644D01*
X018744Y004642D02*
X018327Y004642D01*
X018329Y004639D02*
X018742Y004639D01*
X018740Y004637D02*
X018330Y004637D01*
X018332Y004634D02*
X018739Y004634D01*
X018737Y004632D02*
X018334Y004632D01*
X018336Y004630D02*
X018735Y004630D01*
X018734Y004627D02*
X018337Y004627D01*
X018339Y004625D02*
X018732Y004625D01*
X018730Y004622D02*
X018341Y004622D01*
X018342Y004620D02*
X018729Y004620D01*
X018727Y004617D02*
X018344Y004617D01*
X018346Y004615D02*
X018725Y004615D01*
X018723Y004613D02*
X018347Y004613D01*
X018349Y004610D02*
X018722Y004610D01*
X018720Y004608D02*
X018351Y004608D01*
X018353Y004605D02*
X018718Y004605D01*
X018717Y004603D02*
X018354Y004603D01*
X018356Y004600D02*
X018715Y004600D01*
X018712Y004598D02*
X018359Y004598D01*
X018362Y004595D02*
X018709Y004595D01*
X018706Y004593D02*
X018364Y004593D01*
X018367Y004591D02*
X018704Y004591D01*
X018701Y004588D02*
X018370Y004588D01*
X018372Y004586D02*
X018698Y004586D01*
X018696Y004583D02*
X018375Y004583D01*
X018378Y004581D02*
X018693Y004581D01*
X018690Y004578D02*
X018380Y004578D01*
X018383Y004576D02*
X018688Y004576D01*
X018685Y004574D02*
X018386Y004574D01*
X018389Y004571D02*
X018682Y004571D01*
X018680Y004569D02*
X018391Y004569D01*
X018395Y004566D02*
X018676Y004566D01*
X018672Y004564D02*
X018399Y004564D01*
X018403Y004561D02*
X018667Y004561D01*
X018663Y004559D02*
X018408Y004559D01*
X018412Y004556D02*
X018659Y004556D01*
X018654Y004554D02*
X018416Y004554D01*
X018421Y004552D02*
X018650Y004552D01*
X018646Y004549D02*
X018425Y004549D01*
X018429Y004547D02*
X018642Y004547D01*
X018637Y004544D02*
X018434Y004544D01*
X018439Y004542D02*
X018632Y004542D01*
X018623Y004539D02*
X018448Y004539D01*
X018456Y004537D02*
X018615Y004537D01*
X018607Y004535D02*
X018464Y004535D01*
X018472Y004532D02*
X018599Y004532D01*
X018591Y004530D02*
X018480Y004530D01*
X018501Y004527D02*
X018569Y004527D01*
X018772Y004759D02*
X018299Y004759D01*
X018299Y004761D02*
X018772Y004761D01*
X018772Y004764D02*
X018299Y004764D01*
X018299Y004766D02*
X018772Y004766D01*
X018772Y004769D02*
X018299Y004769D01*
X018299Y004771D02*
X018772Y004771D01*
X018772Y004773D02*
X018299Y004773D01*
X018299Y004776D02*
X018772Y004776D01*
X018772Y004778D02*
X018299Y004778D01*
X018299Y004781D02*
X018772Y004781D01*
X018772Y004783D02*
X018299Y004783D01*
X018299Y004786D02*
X018772Y004786D01*
X018772Y004788D02*
X018299Y004788D01*
X018299Y004790D02*
X018772Y004790D01*
X018772Y004793D02*
X018299Y004793D01*
X018299Y004795D02*
X018772Y004795D01*
X018772Y004798D02*
X018299Y004798D01*
X018299Y004800D02*
X018772Y004800D01*
X018772Y004803D02*
X018299Y004803D01*
X018299Y004805D02*
X018772Y004805D01*
X018772Y004808D02*
X018299Y004808D01*
X018299Y004810D02*
X018772Y004810D01*
X018772Y004812D02*
X018299Y004812D01*
X018299Y004815D02*
X018772Y004815D01*
X018772Y004817D02*
X018299Y004817D01*
X018299Y004820D02*
X018772Y004820D01*
X018772Y004822D02*
X018299Y004822D01*
X018299Y004825D02*
X018772Y004825D01*
X018772Y004827D02*
X018299Y004827D01*
X018299Y004829D02*
X018772Y004829D01*
X018772Y004832D02*
X018299Y004832D01*
X018299Y004834D02*
X018772Y004834D01*
X018772Y004837D02*
X018299Y004837D01*
X018299Y004839D02*
X018772Y004839D01*
X018772Y004842D02*
X018299Y004842D01*
X018299Y004844D02*
X018772Y004844D01*
X018772Y004847D02*
X018299Y004847D01*
X018299Y004849D02*
X018772Y004849D01*
X018772Y004851D02*
X018299Y004851D01*
X018299Y004854D02*
X018772Y004854D01*
X018772Y004856D02*
X018299Y004856D01*
X018299Y004859D02*
X018772Y004859D01*
X018772Y004861D02*
X018299Y004861D01*
X018299Y004864D02*
X018772Y004864D01*
X018772Y004866D02*
X018299Y004866D01*
X018299Y004868D02*
X018772Y004868D01*
X018772Y004871D02*
X018299Y004871D01*
X018299Y004873D02*
X018772Y004873D01*
X018772Y004876D02*
X018299Y004876D01*
X018299Y004878D02*
X018772Y004878D01*
X018772Y004881D02*
X018299Y004881D01*
X018299Y004883D02*
X018772Y004883D01*
X018772Y004886D02*
X018299Y004886D01*
X018299Y004888D02*
X018772Y004888D01*
X018772Y004890D02*
X018299Y004890D01*
X018299Y004893D02*
X018772Y004893D01*
X018772Y004895D02*
X018299Y004895D01*
X018299Y004898D02*
X018772Y004898D01*
X018772Y004900D02*
X018299Y004900D01*
X018299Y004903D02*
X018772Y004903D01*
X018772Y004905D02*
X018299Y004905D01*
X018299Y004907D02*
X018772Y004907D01*
X018772Y004910D02*
X018299Y004910D01*
X018299Y004912D02*
X018772Y004912D01*
X018772Y004915D02*
X018299Y004915D01*
X018299Y004917D02*
X018772Y004917D01*
X018772Y004920D02*
X018299Y004920D01*
X018299Y004922D02*
X018772Y004922D01*
X018772Y004924D02*
X018299Y004924D01*
X018299Y004927D02*
X018772Y004927D01*
X018772Y004929D02*
X018299Y004929D01*
X018299Y004932D02*
X018772Y004932D01*
X018772Y004934D02*
X018299Y004934D01*
X018299Y004937D02*
X018772Y004937D01*
X018772Y004939D02*
X018299Y004939D01*
X018299Y004942D02*
X018772Y004942D01*
X018772Y004944D02*
X018299Y004944D01*
X018299Y004946D02*
X018772Y004946D01*
X018772Y004949D02*
X018299Y004949D01*
X018299Y004951D02*
X018772Y004951D01*
X018772Y004954D02*
X018299Y004954D01*
X018299Y004956D02*
X018772Y004956D01*
X018772Y004959D02*
X018299Y004959D01*
X018299Y004961D02*
X018772Y004961D01*
X018772Y004963D02*
X018299Y004963D01*
X018299Y004966D02*
X018772Y004966D01*
X018772Y004968D02*
X018299Y004968D01*
X018299Y004971D02*
X018772Y004971D01*
X018772Y004973D02*
X018299Y004973D01*
X018299Y004976D02*
X018772Y004976D01*
X018772Y004978D02*
X018299Y004978D01*
X018299Y004981D02*
X018772Y004981D01*
X018772Y004983D02*
X018299Y004983D01*
X018299Y004985D02*
X018772Y004985D01*
X018772Y004988D02*
X018299Y004988D01*
X018299Y004990D02*
X018772Y004990D01*
X018772Y004993D02*
X018299Y004993D01*
X018299Y004995D02*
X018772Y004995D01*
X018772Y004998D02*
X018299Y004998D01*
X018299Y005000D02*
X018772Y005000D01*
X018772Y005002D02*
X018299Y005002D01*
X018299Y005005D02*
X018772Y005005D01*
X018772Y005007D02*
X018299Y005007D01*
X018299Y005010D02*
X018772Y005010D01*
X018772Y005012D02*
X018299Y005012D01*
X018299Y005015D02*
X018772Y005015D01*
X018772Y005017D02*
X018299Y005017D01*
X018299Y005020D02*
X018772Y005020D01*
X018772Y005022D02*
X018299Y005022D01*
X018299Y005024D02*
X018772Y005024D01*
X018772Y005027D02*
X018299Y005027D01*
X018299Y005029D02*
X018772Y005029D01*
X018772Y005032D02*
X018299Y005032D01*
X018299Y005034D02*
X018772Y005034D01*
X018772Y005037D02*
X018299Y005037D01*
X018299Y005039D02*
X018772Y005039D01*
X018772Y005041D02*
X018299Y005041D01*
X018299Y005044D02*
X018772Y005044D01*
X018772Y005046D02*
X018299Y005046D01*
X018299Y005049D02*
X018772Y005049D01*
X018772Y005051D02*
X018299Y005051D01*
X018299Y005054D02*
X018772Y005054D01*
X018772Y005056D02*
X018299Y005056D01*
X018299Y005059D02*
X018772Y005059D01*
X018772Y005061D02*
X018299Y005061D01*
X018299Y005063D02*
X018772Y005063D01*
X018772Y005066D02*
X018299Y005066D01*
X018299Y005068D02*
X018772Y005068D01*
X018772Y005071D02*
X018299Y005071D01*
X018299Y005073D02*
X018772Y005073D01*
X018772Y005076D02*
X018299Y005076D01*
X018299Y005078D02*
X018772Y005078D01*
X018772Y005080D02*
X018299Y005080D01*
X018299Y005083D02*
X018772Y005083D01*
X018772Y005085D02*
X018299Y005085D01*
X018299Y005088D02*
X018772Y005088D01*
X018772Y005090D02*
X018299Y005090D01*
X018299Y005093D02*
X018772Y005093D01*
X018772Y005095D02*
X018299Y005095D01*
X018299Y005098D02*
X018772Y005098D01*
X018772Y005100D02*
X018299Y005100D01*
X018299Y005102D02*
X018772Y005102D01*
X018772Y005105D02*
X018299Y005105D01*
X018299Y005107D02*
X018772Y005107D01*
X018772Y005110D02*
X018299Y005110D01*
X018299Y005112D02*
X018772Y005112D01*
X018772Y005115D02*
X018299Y005115D01*
X018299Y005117D02*
X018772Y005117D01*
X018772Y005119D02*
X018299Y005119D01*
X018299Y005122D02*
X018772Y005122D01*
X018772Y005124D02*
X018299Y005124D01*
X018299Y005127D02*
X018772Y005127D01*
X018772Y005129D02*
X018299Y005129D01*
X018299Y005132D02*
X018772Y005132D01*
X018772Y005134D02*
X018299Y005134D01*
X018299Y005137D02*
X018772Y005137D01*
X018772Y005139D02*
X018299Y005139D01*
X018299Y005141D02*
X018772Y005141D01*
X018772Y005144D02*
X018299Y005144D01*
X018299Y005146D02*
X018772Y005146D01*
X018772Y005149D02*
X018299Y005149D01*
X018299Y005151D02*
X018772Y005151D01*
X018772Y005154D02*
X018299Y005154D01*
X018299Y005156D02*
X018772Y005156D01*
X018772Y005158D02*
X018299Y005158D01*
X018299Y005161D02*
X018772Y005161D01*
X018772Y005163D02*
X018299Y005163D01*
X018299Y005166D02*
X018772Y005166D01*
X018772Y005168D02*
X018299Y005168D01*
X018299Y005171D02*
X018772Y005171D01*
X018772Y005173D02*
X018299Y005173D01*
X018299Y005176D02*
X018772Y005176D01*
X018772Y005178D02*
X018299Y005178D01*
X018299Y005180D02*
X018772Y005180D01*
X018772Y005183D02*
X018299Y005183D01*
X018299Y005185D02*
X018772Y005185D01*
X018772Y005188D02*
X018299Y005188D01*
X018299Y005190D02*
X018772Y005190D01*
X018772Y005193D02*
X018299Y005193D01*
X018299Y005195D02*
X018772Y005195D01*
X018772Y005197D02*
X018299Y005197D01*
X018299Y005200D02*
X018772Y005200D01*
X018772Y005202D02*
X018299Y005202D01*
X018299Y005205D02*
X018772Y005205D01*
X018772Y005207D02*
X018299Y005207D01*
X018299Y005210D02*
X018772Y005210D01*
X018772Y005212D02*
X018299Y005212D01*
X018300Y005215D02*
X018771Y005215D01*
X018771Y005217D02*
X018300Y005217D01*
X018300Y005219D02*
X018771Y005219D01*
X018770Y005222D02*
X018301Y005222D01*
X018301Y005224D02*
X018770Y005224D01*
X018769Y005227D02*
X018301Y005227D01*
X018302Y005229D02*
X018769Y005229D01*
X018769Y005232D02*
X018302Y005232D01*
X018302Y005234D02*
X018768Y005234D01*
X018768Y005236D02*
X018303Y005236D01*
X018303Y005239D02*
X018768Y005239D01*
X018767Y005241D02*
X018303Y005241D01*
X018304Y005244D02*
X018767Y005244D01*
X018766Y005246D02*
X018304Y005246D01*
X018304Y005249D02*
X018766Y005249D01*
X018766Y005251D02*
X018305Y005251D01*
X018305Y005254D02*
X018765Y005254D01*
X018764Y005261D02*
X018307Y005261D01*
X018308Y005263D02*
X018764Y005263D01*
X018763Y005266D02*
X018309Y005266D01*
X018309Y005268D02*
X018762Y005268D01*
X018761Y005271D02*
X018310Y005271D01*
X018311Y005273D02*
X018760Y005273D01*
X018759Y005275D02*
X018312Y005275D01*
X018313Y005278D02*
X018758Y005278D01*
X018757Y005280D02*
X018314Y005280D01*
X018315Y005283D02*
X018756Y005283D01*
X018755Y005285D02*
X018315Y005285D01*
X018316Y005288D02*
X018754Y005288D01*
X018753Y005290D02*
X018317Y005290D01*
X018318Y005293D02*
X018752Y005293D01*
X018751Y005295D02*
X018319Y005295D01*
X018320Y005297D02*
X018750Y005297D01*
X018749Y005300D02*
X018321Y005300D01*
X018322Y005302D02*
X018748Y005302D01*
X018747Y005305D02*
X018324Y005305D01*
X018325Y005307D02*
X018746Y005307D01*
X018745Y005310D02*
X018326Y005310D01*
X018328Y005312D02*
X018744Y005312D01*
X018742Y005314D02*
X018329Y005314D01*
X018331Y005317D02*
X018740Y005317D01*
X018739Y005319D02*
X018332Y005319D01*
X018334Y005322D02*
X018737Y005322D01*
X018735Y005324D02*
X018335Y005324D01*
X018336Y005327D02*
X018734Y005327D01*
X018732Y005329D02*
X018338Y005329D01*
X018339Y005332D02*
X018730Y005332D01*
X018729Y005334D02*
X018341Y005334D01*
X018342Y005336D02*
X018727Y005336D01*
X018725Y005339D02*
X018344Y005339D01*
X018346Y005341D02*
X018724Y005341D01*
X018722Y005344D02*
X018349Y005344D01*
X018351Y005346D02*
X018720Y005346D01*
X018719Y005349D02*
X018353Y005349D01*
X018355Y005351D02*
X018717Y005351D01*
X018715Y005353D02*
X018357Y005353D01*
X018359Y005356D02*
X018712Y005356D01*
X018710Y005358D02*
X018362Y005358D01*
X018364Y005361D02*
X018707Y005361D01*
X018704Y005363D02*
X018366Y005363D01*
X018368Y005366D02*
X018702Y005366D01*
X018699Y005368D02*
X018370Y005368D01*
X018372Y005371D02*
X018696Y005371D01*
X018694Y005373D02*
X018376Y005373D01*
X018379Y005375D02*
X018691Y005375D01*
X018688Y005378D02*
X018382Y005378D01*
X018385Y005380D02*
X018686Y005380D01*
X018683Y005383D02*
X018389Y005383D01*
X018392Y005385D02*
X018681Y005385D01*
X018677Y005388D02*
X018395Y005388D01*
X018398Y005390D02*
X018673Y005390D01*
X018669Y005392D02*
X018401Y005392D01*
X018405Y005395D02*
X018664Y005395D01*
X018635Y005412D02*
X018586Y005427D01*
X018535Y005431D01*
X018491Y005428D01*
X018448Y005417D01*
X018408Y005397D01*
X018443Y005414D02*
X018627Y005414D01*
X018619Y005417D02*
X018448Y005417D01*
X018458Y005419D02*
X018611Y005419D01*
X018603Y005422D02*
X018467Y005422D01*
X018476Y005424D02*
X018595Y005424D01*
X018587Y005427D02*
X018486Y005427D01*
X018509Y005429D02*
X018556Y005429D01*
X018535Y003659D02*
X018586Y003655D01*
X018635Y003640D01*
X018679Y003615D01*
X018717Y003580D01*
X018745Y003538D01*
X018764Y003491D01*
X018772Y003440D01*
X018299Y003440D01*
X018305Y003485D01*
X018320Y003527D01*
X018342Y003565D01*
X018727Y003565D01*
X018726Y003567D02*
X018344Y003567D01*
X018342Y003565D02*
X018372Y003599D01*
X018697Y003599D01*
X018699Y003596D02*
X018370Y003596D01*
X018368Y003594D02*
X018702Y003594D01*
X018705Y003591D02*
X018366Y003591D01*
X018363Y003589D02*
X018707Y003589D01*
X018710Y003586D02*
X018361Y003586D01*
X018359Y003584D02*
X018712Y003584D01*
X018715Y003582D02*
X018357Y003582D01*
X018355Y003579D02*
X018717Y003579D01*
X018719Y003577D02*
X018353Y003577D01*
X018350Y003574D02*
X018721Y003574D01*
X018722Y003572D02*
X018348Y003572D01*
X018346Y003569D02*
X018724Y003569D01*
X018729Y003562D02*
X018341Y003562D01*
X018339Y003560D02*
X018731Y003560D01*
X018732Y003557D02*
X018338Y003557D01*
X018336Y003555D02*
X018734Y003555D01*
X018736Y003552D02*
X018335Y003552D01*
X018333Y003550D02*
X018737Y003550D01*
X018739Y003547D02*
X018332Y003547D01*
X018331Y003545D02*
X018741Y003545D01*
X018742Y003543D02*
X018329Y003543D01*
X018328Y003540D02*
X018744Y003540D01*
X018745Y003538D02*
X018326Y003538D01*
X018325Y003535D02*
X018746Y003535D01*
X018747Y003533D02*
X018323Y003533D01*
X018322Y003530D02*
X018748Y003530D01*
X018749Y003528D02*
X018321Y003528D01*
X018319Y003526D02*
X018750Y003526D01*
X018751Y003523D02*
X018319Y003523D01*
X018318Y003521D02*
X018752Y003521D01*
X018753Y003518D02*
X018317Y003518D01*
X018316Y003516D02*
X018754Y003516D01*
X018755Y003513D02*
X018315Y003513D01*
X018314Y003511D02*
X018756Y003511D01*
X018757Y003508D02*
X018314Y003508D01*
X018313Y003506D02*
X018758Y003506D01*
X018759Y003504D02*
X018312Y003504D01*
X018311Y003501D02*
X018760Y003501D01*
X018761Y003499D02*
X018310Y003499D01*
X018309Y003496D02*
X018762Y003496D01*
X018763Y003494D02*
X018309Y003494D01*
X018308Y003491D02*
X018764Y003491D01*
X018764Y003489D02*
X018307Y003489D01*
X018306Y003487D02*
X018765Y003487D01*
X018765Y003484D02*
X018305Y003484D01*
X018305Y003482D02*
X018765Y003482D01*
X018766Y003479D02*
X018305Y003479D01*
X018304Y003477D02*
X018766Y003477D01*
X018766Y003474D02*
X018304Y003474D01*
X018304Y003472D02*
X018767Y003472D01*
X018767Y003469D02*
X018303Y003469D01*
X018303Y003467D02*
X018768Y003467D01*
X018768Y003465D02*
X018303Y003465D01*
X018302Y003462D02*
X018768Y003462D01*
X018769Y003460D02*
X018302Y003460D01*
X018302Y003457D02*
X018769Y003457D01*
X018769Y003455D02*
X018301Y003455D01*
X018301Y003452D02*
X018770Y003452D01*
X018770Y003450D02*
X018301Y003450D01*
X018300Y003448D02*
X018771Y003448D01*
X018771Y003445D02*
X018300Y003445D01*
X018300Y003443D02*
X018771Y003443D01*
X018772Y003440D02*
X018772Y002968D01*
X018764Y002918D01*
X018745Y002871D01*
X018716Y002830D01*
X018678Y002796D01*
X018634Y002771D01*
X018586Y002757D01*
X018535Y002753D01*
X018485Y002757D01*
X018437Y002771D01*
X018393Y002796D01*
X018355Y002830D01*
X018326Y002871D01*
X018307Y002918D01*
X018299Y002968D01*
X018299Y003440D01*
X018299Y003438D02*
X018772Y003438D01*
X018772Y003435D02*
X018299Y003435D01*
X018299Y003433D02*
X018772Y003433D01*
X018772Y003430D02*
X018299Y003430D01*
X018299Y003428D02*
X018772Y003428D01*
X018772Y003426D02*
X018299Y003426D01*
X018299Y003423D02*
X018772Y003423D01*
X018772Y003421D02*
X018299Y003421D01*
X018299Y003418D02*
X018772Y003418D01*
X018772Y003416D02*
X018299Y003416D01*
X018299Y003413D02*
X018772Y003413D01*
X018772Y003411D02*
X018299Y003411D01*
X018299Y003409D02*
X018772Y003409D01*
X018772Y003406D02*
X018299Y003406D01*
X018299Y003404D02*
X018772Y003404D01*
X018772Y003401D02*
X018299Y003401D01*
X018299Y003399D02*
X018772Y003399D01*
X018772Y003396D02*
X018299Y003396D01*
X018299Y003394D02*
X018772Y003394D01*
X018772Y003391D02*
X018299Y003391D01*
X018299Y003389D02*
X018772Y003389D01*
X018772Y003387D02*
X018299Y003387D01*
X018299Y003384D02*
X018772Y003384D01*
X018772Y003382D02*
X018299Y003382D01*
X018299Y003379D02*
X018772Y003379D01*
X018772Y003377D02*
X018299Y003377D01*
X018299Y003374D02*
X018772Y003374D01*
X018772Y003372D02*
X018299Y003372D01*
X018299Y003370D02*
X018772Y003370D01*
X018772Y003367D02*
X018299Y003367D01*
X018299Y003365D02*
X018772Y003365D01*
X018772Y003362D02*
X018299Y003362D01*
X018299Y003360D02*
X018772Y003360D01*
X018772Y003357D02*
X018299Y003357D01*
X018299Y003355D02*
X018772Y003355D01*
X018772Y003352D02*
X018299Y003352D01*
X018299Y003350D02*
X018772Y003350D01*
X018772Y003348D02*
X018299Y003348D01*
X018299Y003345D02*
X018772Y003345D01*
X018772Y003343D02*
X018299Y003343D01*
X018299Y003340D02*
X018772Y003340D01*
X018772Y003338D02*
X018299Y003338D01*
X018299Y003335D02*
X018772Y003335D01*
X018772Y003333D02*
X018299Y003333D01*
X018299Y003331D02*
X018772Y003331D01*
X018772Y003328D02*
X018299Y003328D01*
X018299Y003326D02*
X018772Y003326D01*
X018772Y003323D02*
X018299Y003323D01*
X018299Y003321D02*
X018772Y003321D01*
X018772Y003318D02*
X018299Y003318D01*
X018299Y003316D02*
X018772Y003316D01*
X018772Y003313D02*
X018299Y003313D01*
X018299Y003311D02*
X018772Y003311D01*
X018772Y003309D02*
X018299Y003309D01*
X018299Y003306D02*
X018772Y003306D01*
X018772Y003304D02*
X018299Y003304D01*
X018299Y003301D02*
X018772Y003301D01*
X018772Y003299D02*
X018299Y003299D01*
X018299Y003296D02*
X018772Y003296D01*
X018772Y003294D02*
X018299Y003294D01*
X018299Y003292D02*
X018772Y003292D01*
X018772Y003289D02*
X018299Y003289D01*
X018299Y003287D02*
X018772Y003287D01*
X018772Y003284D02*
X018299Y003284D01*
X018299Y003282D02*
X018772Y003282D01*
X018772Y003279D02*
X018299Y003279D01*
X018299Y003277D02*
X018772Y003277D01*
X018772Y003274D02*
X018299Y003274D01*
X018299Y003272D02*
X018772Y003272D01*
X018772Y003270D02*
X018299Y003270D01*
X018299Y003267D02*
X018772Y003267D01*
X018772Y003265D02*
X018299Y003265D01*
X018299Y003262D02*
X018772Y003262D01*
X018772Y003260D02*
X018299Y003260D01*
X018299Y003257D02*
X018772Y003257D01*
X018772Y003255D02*
X018299Y003255D01*
X018299Y003253D02*
X018772Y003253D01*
X018772Y003250D02*
X018299Y003250D01*
X018299Y003248D02*
X018772Y003248D01*
X018772Y003245D02*
X018299Y003245D01*
X018299Y003243D02*
X018772Y003243D01*
X018772Y003240D02*
X018299Y003240D01*
X018299Y003238D02*
X018772Y003238D01*
X018772Y003235D02*
X018299Y003235D01*
X018299Y003233D02*
X018772Y003233D01*
X018772Y003231D02*
X018299Y003231D01*
X018299Y003228D02*
X018772Y003228D01*
X018772Y003226D02*
X018299Y003226D01*
X018299Y003223D02*
X018772Y003223D01*
X018772Y003221D02*
X018299Y003221D01*
X018299Y003218D02*
X018772Y003218D01*
X018772Y003216D02*
X018299Y003216D01*
X018299Y003214D02*
X018772Y003214D01*
X018772Y003211D02*
X018299Y003211D01*
X018299Y003209D02*
X018772Y003209D01*
X018772Y003206D02*
X018299Y003206D01*
X018299Y003204D02*
X018772Y003204D01*
X018772Y003201D02*
X018299Y003201D01*
X018299Y003199D02*
X018772Y003199D01*
X018772Y003196D02*
X018299Y003196D01*
X018299Y003194D02*
X018772Y003194D01*
X018772Y003192D02*
X018299Y003192D01*
X018299Y003189D02*
X018772Y003189D01*
X018772Y003187D02*
X018299Y003187D01*
X018299Y003184D02*
X018772Y003184D01*
X018772Y003182D02*
X018299Y003182D01*
X018299Y003179D02*
X018772Y003179D01*
X018772Y003177D02*
X018299Y003177D01*
X018299Y003175D02*
X018772Y003175D01*
X018772Y003172D02*
X018299Y003172D01*
X018299Y003170D02*
X018772Y003170D01*
X018772Y003167D02*
X018299Y003167D01*
X018299Y003165D02*
X018772Y003165D01*
X018772Y003162D02*
X018299Y003162D01*
X018299Y003160D02*
X018772Y003160D01*
X018772Y003157D02*
X018299Y003157D01*
X018299Y003155D02*
X018772Y003155D01*
X018772Y003153D02*
X018299Y003153D01*
X018299Y003150D02*
X018772Y003150D01*
X018772Y003148D02*
X018299Y003148D01*
X018299Y003145D02*
X018772Y003145D01*
X018772Y003143D02*
X018299Y003143D01*
X018299Y003140D02*
X018772Y003140D01*
X018772Y003138D02*
X018299Y003138D01*
X018299Y003136D02*
X018772Y003136D01*
X018772Y003133D02*
X018299Y003133D01*
X018299Y003131D02*
X018772Y003131D01*
X018772Y003128D02*
X018299Y003128D01*
X018299Y003126D02*
X018772Y003126D01*
X018772Y003123D02*
X018299Y003123D01*
X018299Y003121D02*
X018772Y003121D01*
X018772Y003118D02*
X018299Y003118D01*
X018299Y003116D02*
X018772Y003116D01*
X018772Y003114D02*
X018299Y003114D01*
X018299Y003111D02*
X018772Y003111D01*
X018772Y003109D02*
X018299Y003109D01*
X018299Y003106D02*
X018772Y003106D01*
X018772Y003104D02*
X018299Y003104D01*
X018299Y003101D02*
X018772Y003101D01*
X018772Y003099D02*
X018299Y003099D01*
X018299Y003097D02*
X018772Y003097D01*
X018772Y003094D02*
X018299Y003094D01*
X018299Y003092D02*
X018772Y003092D01*
X018772Y003089D02*
X018299Y003089D01*
X018299Y003087D02*
X018772Y003087D01*
X018772Y003084D02*
X018299Y003084D01*
X018299Y003082D02*
X018772Y003082D01*
X018772Y003079D02*
X018299Y003079D01*
X018299Y003077D02*
X018772Y003077D01*
X018772Y003075D02*
X018299Y003075D01*
X018299Y003072D02*
X018772Y003072D01*
X018772Y003070D02*
X018299Y003070D01*
X018299Y003067D02*
X018772Y003067D01*
X018772Y003065D02*
X018299Y003065D01*
X018299Y003062D02*
X018772Y003062D01*
X018772Y003060D02*
X018299Y003060D01*
X018299Y003058D02*
X018772Y003058D01*
X018772Y003055D02*
X018299Y003055D01*
X018299Y003053D02*
X018772Y003053D01*
X018772Y003050D02*
X018299Y003050D01*
X018299Y003048D02*
X018772Y003048D01*
X018772Y003045D02*
X018299Y003045D01*
X018299Y003043D02*
X018772Y003043D01*
X018772Y003041D02*
X018299Y003041D01*
X018299Y003038D02*
X018772Y003038D01*
X018772Y003036D02*
X018299Y003036D01*
X018299Y003033D02*
X018772Y003033D01*
X018772Y003031D02*
X018299Y003031D01*
X018299Y003028D02*
X018772Y003028D01*
X018772Y003026D02*
X018299Y003026D01*
X018299Y003023D02*
X018772Y003023D01*
X018772Y003021D02*
X018299Y003021D01*
X018299Y003019D02*
X018772Y003019D01*
X018772Y003016D02*
X018299Y003016D01*
X018299Y003014D02*
X018772Y003014D01*
X018772Y003011D02*
X018299Y003011D01*
X018299Y003009D02*
X018772Y003009D01*
X018772Y003006D02*
X018299Y003006D01*
X018299Y003004D02*
X018772Y003004D01*
X018772Y003002D02*
X018299Y003002D01*
X018299Y002999D02*
X018772Y002999D01*
X018772Y002997D02*
X018299Y002997D01*
X018299Y002994D02*
X018772Y002994D01*
X018772Y002992D02*
X018299Y002992D01*
X018299Y002989D02*
X018772Y002989D01*
X018772Y002987D02*
X018299Y002987D01*
X018299Y002984D02*
X018772Y002984D01*
X018772Y002982D02*
X018299Y002982D01*
X018299Y002980D02*
X018772Y002980D01*
X018772Y002977D02*
X018299Y002977D01*
X018299Y002975D02*
X018772Y002975D01*
X018772Y002972D02*
X018299Y002972D01*
X018299Y002970D02*
X018772Y002970D01*
X018772Y002967D02*
X018299Y002967D01*
X018300Y002965D02*
X018771Y002965D01*
X018771Y002963D02*
X018300Y002963D01*
X018300Y002960D02*
X018770Y002960D01*
X018770Y002958D02*
X018301Y002958D01*
X018301Y002955D02*
X018770Y002955D01*
X018769Y002953D02*
X018302Y002953D01*
X018302Y002950D02*
X018769Y002950D01*
X018768Y002948D02*
X018302Y002948D01*
X018303Y002945D02*
X018768Y002945D01*
X018768Y002943D02*
X018303Y002943D01*
X018304Y002941D02*
X018767Y002941D01*
X018767Y002938D02*
X018304Y002938D01*
X018304Y002936D02*
X018766Y002936D01*
X018766Y002933D02*
X018305Y002933D01*
X018305Y002931D02*
X018766Y002931D01*
X018765Y002928D02*
X018306Y002928D01*
X018306Y002926D02*
X018765Y002926D01*
X018764Y002924D02*
X018306Y002924D01*
X018307Y002921D02*
X018764Y002921D01*
X018764Y002919D02*
X018307Y002919D01*
X018308Y002916D02*
X018763Y002916D01*
X018762Y002914D02*
X018309Y002914D01*
X018310Y002911D02*
X018761Y002911D01*
X018760Y002909D02*
X018311Y002909D01*
X018312Y002906D02*
X018759Y002906D01*
X018758Y002904D02*
X018313Y002904D01*
X018314Y002902D02*
X018757Y002902D01*
X018756Y002899D02*
X018315Y002899D01*
X018316Y002897D02*
X018755Y002897D01*
X018754Y002894D02*
X018317Y002894D01*
X018318Y002892D02*
X018753Y002892D01*
X018752Y002889D02*
X018319Y002889D01*
X018320Y002887D02*
X018751Y002887D01*
X018750Y002885D02*
X018321Y002885D01*
X018322Y002882D02*
X018749Y002882D01*
X018748Y002880D02*
X018323Y002880D01*
X018324Y002877D02*
X018747Y002877D01*
X018746Y002875D02*
X018325Y002875D01*
X018326Y002872D02*
X018745Y002872D01*
X018744Y002870D02*
X018327Y002870D01*
X018329Y002867D02*
X018742Y002867D01*
X018740Y002865D02*
X018331Y002865D01*
X018332Y002863D02*
X018739Y002863D01*
X018737Y002860D02*
X018334Y002860D01*
X018336Y002858D02*
X018735Y002858D01*
X018734Y002855D02*
X018337Y002855D01*
X018339Y002853D02*
X018732Y002853D01*
X018730Y002850D02*
X018341Y002850D01*
X018342Y002848D02*
X018728Y002848D01*
X018727Y002846D02*
X018344Y002846D01*
X018346Y002843D02*
X018725Y002843D01*
X018723Y002841D02*
X018348Y002841D01*
X018349Y002838D02*
X018722Y002838D01*
X018720Y002836D02*
X018351Y002836D01*
X018353Y002833D02*
X018718Y002833D01*
X018717Y002831D02*
X018354Y002831D01*
X018357Y002828D02*
X018714Y002828D01*
X018712Y002826D02*
X018359Y002826D01*
X018362Y002824D02*
X018709Y002824D01*
X018706Y002821D02*
X018365Y002821D01*
X018367Y002819D02*
X018704Y002819D01*
X018701Y002816D02*
X018370Y002816D01*
X018373Y002814D02*
X018698Y002814D01*
X018695Y002811D02*
X018375Y002811D01*
X018378Y002809D02*
X018693Y002809D01*
X018690Y002807D02*
X018381Y002807D01*
X018383Y002804D02*
X018687Y002804D01*
X018685Y002802D02*
X018386Y002802D01*
X018389Y002799D02*
X018682Y002799D01*
X018679Y002797D02*
X018391Y002797D01*
X018395Y002794D02*
X018676Y002794D01*
X018671Y002792D02*
X018399Y002792D01*
X018404Y002789D02*
X018667Y002789D01*
X018663Y002787D02*
X018408Y002787D01*
X018412Y002785D02*
X018658Y002785D01*
X018654Y002782D02*
X018417Y002782D01*
X018421Y002780D02*
X018650Y002780D01*
X018645Y002777D02*
X018425Y002777D01*
X018430Y002775D02*
X018641Y002775D01*
X018637Y002772D02*
X018434Y002772D01*
X018440Y002770D02*
X018631Y002770D01*
X018623Y002768D02*
X018448Y002768D01*
X018457Y002765D02*
X018614Y002765D01*
X018606Y002763D02*
X018465Y002763D01*
X018473Y002760D02*
X018598Y002760D01*
X018590Y002758D02*
X018481Y002758D01*
X018505Y002755D02*
X018566Y002755D01*
X018694Y003601D02*
X018375Y003601D01*
X018372Y003599D02*
X018408Y003626D01*
X018448Y003645D01*
X018491Y003656D01*
X018535Y003659D01*
X018560Y003657D02*
X018506Y003657D01*
X018485Y003655D02*
X018588Y003655D01*
X018596Y003652D02*
X018476Y003652D01*
X018466Y003650D02*
X018604Y003650D01*
X018612Y003647D02*
X018457Y003647D01*
X018448Y003645D02*
X018620Y003645D01*
X018628Y003643D02*
X018443Y003643D01*
X018438Y003640D02*
X018635Y003640D01*
X018639Y003638D02*
X018433Y003638D01*
X018428Y003635D02*
X018644Y003635D01*
X018648Y003633D02*
X018423Y003633D01*
X018418Y003630D02*
X018652Y003630D01*
X018656Y003628D02*
X018413Y003628D01*
X018408Y003625D02*
X018661Y003625D01*
X018665Y003623D02*
X018404Y003623D01*
X018401Y003621D02*
X018669Y003621D01*
X018673Y003618D02*
X018398Y003618D01*
X018395Y003616D02*
X018678Y003616D01*
X018681Y003613D02*
X018391Y003613D01*
X018388Y003611D02*
X018683Y003611D01*
X018686Y003608D02*
X018385Y003608D01*
X018382Y003606D02*
X018689Y003606D01*
X018691Y003604D02*
X018379Y003604D01*
X015142Y003440D02*
X015142Y002968D01*
X015134Y002918D01*
X015115Y002871D01*
X015086Y002830D01*
X015048Y002796D01*
X015004Y002771D01*
X014956Y002757D01*
X014906Y002753D01*
X014855Y002757D01*
X014807Y002771D01*
X014763Y002796D01*
X014725Y002830D01*
X014696Y002871D01*
X014677Y002918D01*
X014669Y002968D01*
X014669Y003440D01*
X015142Y003440D01*
X015134Y003491D01*
X015115Y003538D01*
X015087Y003580D01*
X015049Y003615D01*
X015005Y003640D01*
X014956Y003655D01*
X014906Y003659D01*
X014861Y003656D01*
X014818Y003645D01*
X014778Y003626D01*
X014742Y003599D01*
X015067Y003599D01*
X015064Y003601D02*
X014745Y003601D01*
X014742Y003599D02*
X014713Y003565D01*
X014690Y003527D01*
X014675Y003485D01*
X014669Y003440D01*
X014669Y003438D02*
X015142Y003438D01*
X015142Y003435D02*
X014669Y003435D01*
X014669Y003433D02*
X015142Y003433D01*
X015142Y003430D02*
X014669Y003430D01*
X014669Y003428D02*
X015142Y003428D01*
X015142Y003426D02*
X014669Y003426D01*
X014669Y003423D02*
X015142Y003423D01*
X015142Y003421D02*
X014669Y003421D01*
X014669Y003418D02*
X015142Y003418D01*
X015142Y003416D02*
X014669Y003416D01*
X014669Y003413D02*
X015142Y003413D01*
X015142Y003411D02*
X014669Y003411D01*
X014669Y003409D02*
X015142Y003409D01*
X015142Y003406D02*
X014669Y003406D01*
X014669Y003404D02*
X015142Y003404D01*
X015142Y003401D02*
X014669Y003401D01*
X014669Y003399D02*
X015142Y003399D01*
X015142Y003396D02*
X014669Y003396D01*
X014669Y003394D02*
X015142Y003394D01*
X015142Y003391D02*
X014669Y003391D01*
X014669Y003389D02*
X015142Y003389D01*
X015142Y003387D02*
X014669Y003387D01*
X014669Y003384D02*
X015142Y003384D01*
X015142Y003382D02*
X014669Y003382D01*
X014669Y003379D02*
X015142Y003379D01*
X015142Y003377D02*
X014669Y003377D01*
X014669Y003374D02*
X015142Y003374D01*
X015142Y003372D02*
X014669Y003372D01*
X014669Y003370D02*
X015142Y003370D01*
X015142Y003367D02*
X014669Y003367D01*
X014669Y003365D02*
X015142Y003365D01*
X015142Y003362D02*
X014669Y003362D01*
X014669Y003360D02*
X015142Y003360D01*
X015142Y003357D02*
X014669Y003357D01*
X014669Y003355D02*
X015142Y003355D01*
X015142Y003352D02*
X014669Y003352D01*
X014669Y003350D02*
X015142Y003350D01*
X015142Y003348D02*
X014669Y003348D01*
X014669Y003345D02*
X015142Y003345D01*
X015142Y003343D02*
X014669Y003343D01*
X014669Y003340D02*
X015142Y003340D01*
X015142Y003338D02*
X014669Y003338D01*
X014669Y003335D02*
X015142Y003335D01*
X015142Y003333D02*
X014669Y003333D01*
X014669Y003331D02*
X015142Y003331D01*
X015142Y003328D02*
X014669Y003328D01*
X014669Y003326D02*
X015142Y003326D01*
X015142Y003323D02*
X014669Y003323D01*
X014669Y003321D02*
X015142Y003321D01*
X015142Y003318D02*
X014669Y003318D01*
X014669Y003316D02*
X015142Y003316D01*
X015142Y003313D02*
X014669Y003313D01*
X014669Y003311D02*
X015142Y003311D01*
X015142Y003309D02*
X014669Y003309D01*
X014669Y003306D02*
X015142Y003306D01*
X015142Y003304D02*
X014669Y003304D01*
X014669Y003301D02*
X015142Y003301D01*
X015142Y003299D02*
X014669Y003299D01*
X014669Y003296D02*
X015142Y003296D01*
X015142Y003294D02*
X014669Y003294D01*
X014669Y003292D02*
X015142Y003292D01*
X015142Y003289D02*
X014669Y003289D01*
X014669Y003287D02*
X015142Y003287D01*
X015142Y003284D02*
X014669Y003284D01*
X014669Y003282D02*
X015142Y003282D01*
X015142Y003279D02*
X014669Y003279D01*
X014669Y003277D02*
X015142Y003277D01*
X015142Y003274D02*
X014669Y003274D01*
X014669Y003272D02*
X015142Y003272D01*
X015142Y003270D02*
X014669Y003270D01*
X014669Y003267D02*
X015142Y003267D01*
X015142Y003265D02*
X014669Y003265D01*
X014669Y003262D02*
X015142Y003262D01*
X015142Y003260D02*
X014669Y003260D01*
X014669Y003257D02*
X015142Y003257D01*
X015142Y003255D02*
X014669Y003255D01*
X014669Y003253D02*
X015142Y003253D01*
X015142Y003250D02*
X014669Y003250D01*
X014669Y003248D02*
X015142Y003248D01*
X015142Y003245D02*
X014669Y003245D01*
X014669Y003243D02*
X015142Y003243D01*
X015142Y003240D02*
X014669Y003240D01*
X014669Y003238D02*
X015142Y003238D01*
X015142Y003235D02*
X014669Y003235D01*
X014669Y003233D02*
X015142Y003233D01*
X015142Y003231D02*
X014669Y003231D01*
X014669Y003228D02*
X015142Y003228D01*
X015142Y003226D02*
X014669Y003226D01*
X014669Y003223D02*
X015142Y003223D01*
X015142Y003221D02*
X014669Y003221D01*
X014669Y003218D02*
X015142Y003218D01*
X015142Y003216D02*
X014669Y003216D01*
X014669Y003214D02*
X015142Y003214D01*
X015142Y003211D02*
X014669Y003211D01*
X014669Y003209D02*
X015142Y003209D01*
X015142Y003206D02*
X014669Y003206D01*
X014669Y003204D02*
X015142Y003204D01*
X015142Y003201D02*
X014669Y003201D01*
X014669Y003199D02*
X015142Y003199D01*
X015142Y003196D02*
X014669Y003196D01*
X014669Y003194D02*
X015142Y003194D01*
X015142Y003192D02*
X014669Y003192D01*
X014669Y003189D02*
X015142Y003189D01*
X015142Y003187D02*
X014669Y003187D01*
X014669Y003184D02*
X015142Y003184D01*
X015142Y003182D02*
X014669Y003182D01*
X014669Y003179D02*
X015142Y003179D01*
X015142Y003177D02*
X014669Y003177D01*
X014669Y003175D02*
X015142Y003175D01*
X015142Y003172D02*
X014669Y003172D01*
X014669Y003170D02*
X015142Y003170D01*
X015142Y003167D02*
X014669Y003167D01*
X014669Y003165D02*
X015142Y003165D01*
X015142Y003162D02*
X014669Y003162D01*
X014669Y003160D02*
X015142Y003160D01*
X015142Y003157D02*
X014669Y003157D01*
X014669Y003155D02*
X015142Y003155D01*
X015142Y003153D02*
X014669Y003153D01*
X014669Y003150D02*
X015142Y003150D01*
X015142Y003148D02*
X014669Y003148D01*
X014669Y003145D02*
X015142Y003145D01*
X015142Y003143D02*
X014669Y003143D01*
X014669Y003140D02*
X015142Y003140D01*
X015142Y003138D02*
X014669Y003138D01*
X014669Y003136D02*
X015142Y003136D01*
X015142Y003133D02*
X014669Y003133D01*
X014669Y003131D02*
X015142Y003131D01*
X015142Y003128D02*
X014669Y003128D01*
X014669Y003126D02*
X015142Y003126D01*
X015142Y003123D02*
X014669Y003123D01*
X014669Y003121D02*
X015142Y003121D01*
X015142Y003118D02*
X014669Y003118D01*
X014669Y003116D02*
X015142Y003116D01*
X015142Y003114D02*
X014669Y003114D01*
X014669Y003111D02*
X015142Y003111D01*
X015142Y003109D02*
X014669Y003109D01*
X014669Y003106D02*
X015142Y003106D01*
X015142Y003104D02*
X014669Y003104D01*
X014669Y003101D02*
X015142Y003101D01*
X015142Y003099D02*
X014669Y003099D01*
X014669Y003097D02*
X015142Y003097D01*
X015142Y003094D02*
X014669Y003094D01*
X014669Y003092D02*
X015142Y003092D01*
X015142Y003089D02*
X014669Y003089D01*
X014669Y003087D02*
X015142Y003087D01*
X015142Y003084D02*
X014669Y003084D01*
X014669Y003082D02*
X015142Y003082D01*
X015142Y003079D02*
X014669Y003079D01*
X014669Y003077D02*
X015142Y003077D01*
X015142Y003075D02*
X014669Y003075D01*
X014669Y003072D02*
X015142Y003072D01*
X015142Y003070D02*
X014669Y003070D01*
X014669Y003067D02*
X015142Y003067D01*
X015142Y003065D02*
X014669Y003065D01*
X014669Y003062D02*
X015142Y003062D01*
X015142Y003060D02*
X014669Y003060D01*
X014669Y003058D02*
X015142Y003058D01*
X015142Y003055D02*
X014669Y003055D01*
X014669Y003053D02*
X015142Y003053D01*
X015142Y003050D02*
X014669Y003050D01*
X014669Y003048D02*
X015142Y003048D01*
X015142Y003045D02*
X014669Y003045D01*
X014669Y003043D02*
X015142Y003043D01*
X015142Y003041D02*
X014669Y003041D01*
X014669Y003038D02*
X015142Y003038D01*
X015142Y003036D02*
X014669Y003036D01*
X014669Y003033D02*
X015142Y003033D01*
X015142Y003031D02*
X014669Y003031D01*
X014669Y003028D02*
X015142Y003028D01*
X015142Y003026D02*
X014669Y003026D01*
X014669Y003023D02*
X015142Y003023D01*
X015142Y003021D02*
X014669Y003021D01*
X014669Y003019D02*
X015142Y003019D01*
X015142Y003016D02*
X014669Y003016D01*
X014669Y003014D02*
X015142Y003014D01*
X015142Y003011D02*
X014669Y003011D01*
X014669Y003009D02*
X015142Y003009D01*
X015142Y003006D02*
X014669Y003006D01*
X014669Y003004D02*
X015142Y003004D01*
X015142Y003002D02*
X014669Y003002D01*
X014669Y002999D02*
X015142Y002999D01*
X015142Y002997D02*
X014669Y002997D01*
X014669Y002994D02*
X015142Y002994D01*
X015142Y002992D02*
X014669Y002992D01*
X014669Y002989D02*
X015142Y002989D01*
X015142Y002987D02*
X014669Y002987D01*
X014669Y002984D02*
X015142Y002984D01*
X015142Y002982D02*
X014669Y002982D01*
X014669Y002980D02*
X015142Y002980D01*
X015142Y002977D02*
X014669Y002977D01*
X014669Y002975D02*
X015142Y002975D01*
X015142Y002972D02*
X014669Y002972D01*
X014669Y002970D02*
X015142Y002970D01*
X015142Y002967D02*
X014669Y002967D01*
X014670Y002965D02*
X015141Y002965D01*
X015141Y002963D02*
X014670Y002963D01*
X014671Y002960D02*
X015140Y002960D01*
X015140Y002958D02*
X014671Y002958D01*
X014671Y002955D02*
X015140Y002955D01*
X015139Y002953D02*
X014672Y002953D01*
X014672Y002950D02*
X015139Y002950D01*
X015138Y002948D02*
X014673Y002948D01*
X014673Y002945D02*
X015138Y002945D01*
X015138Y002943D02*
X014673Y002943D01*
X014674Y002941D02*
X015137Y002941D01*
X015137Y002938D02*
X014674Y002938D01*
X014675Y002936D02*
X015137Y002936D01*
X015136Y002933D02*
X014675Y002933D01*
X014675Y002931D02*
X015136Y002931D01*
X015135Y002928D02*
X014676Y002928D01*
X014676Y002926D02*
X015135Y002926D01*
X015135Y002924D02*
X014676Y002924D01*
X014677Y002921D02*
X015134Y002921D01*
X015134Y002919D02*
X014677Y002919D01*
X014678Y002916D02*
X015133Y002916D01*
X015132Y002914D02*
X014679Y002914D01*
X014680Y002911D02*
X015131Y002911D01*
X015130Y002909D02*
X014681Y002909D01*
X014682Y002906D02*
X015129Y002906D01*
X015128Y002904D02*
X014683Y002904D01*
X014684Y002902D02*
X015127Y002902D01*
X015126Y002899D02*
X014685Y002899D01*
X014686Y002897D02*
X015125Y002897D01*
X015124Y002894D02*
X014687Y002894D01*
X014688Y002892D02*
X015123Y002892D01*
X015122Y002889D02*
X014689Y002889D01*
X014690Y002887D02*
X015121Y002887D01*
X015120Y002885D02*
X014691Y002885D01*
X014692Y002882D02*
X015119Y002882D01*
X015118Y002880D02*
X014693Y002880D01*
X014694Y002877D02*
X015117Y002877D01*
X015116Y002875D02*
X014695Y002875D01*
X014696Y002872D02*
X015115Y002872D01*
X015114Y002870D02*
X014697Y002870D01*
X014699Y002867D02*
X015112Y002867D01*
X015110Y002865D02*
X014701Y002865D01*
X014702Y002863D02*
X015109Y002863D01*
X015107Y002860D02*
X014704Y002860D01*
X014706Y002858D02*
X015105Y002858D01*
X015104Y002855D02*
X014707Y002855D01*
X014709Y002853D02*
X015102Y002853D01*
X015100Y002850D02*
X014711Y002850D01*
X014713Y002848D02*
X015098Y002848D01*
X015097Y002846D02*
X014714Y002846D01*
X014716Y002843D02*
X015095Y002843D01*
X015093Y002841D02*
X014718Y002841D01*
X014719Y002838D02*
X015092Y002838D01*
X015090Y002836D02*
X014721Y002836D01*
X014723Y002833D02*
X015088Y002833D01*
X015087Y002831D02*
X014724Y002831D01*
X014727Y002828D02*
X015084Y002828D01*
X015082Y002826D02*
X014729Y002826D01*
X014732Y002824D02*
X015079Y002824D01*
X015076Y002821D02*
X014735Y002821D01*
X014737Y002819D02*
X015074Y002819D01*
X015071Y002816D02*
X014740Y002816D01*
X014743Y002814D02*
X015068Y002814D01*
X015066Y002811D02*
X014745Y002811D01*
X014748Y002809D02*
X015063Y002809D01*
X015060Y002807D02*
X014751Y002807D01*
X014754Y002804D02*
X015058Y002804D01*
X015055Y002802D02*
X014756Y002802D01*
X014759Y002799D02*
X015052Y002799D01*
X015049Y002797D02*
X014762Y002797D01*
X014765Y002794D02*
X015046Y002794D01*
X015041Y002792D02*
X014770Y002792D01*
X014774Y002789D02*
X015037Y002789D01*
X015033Y002787D02*
X014778Y002787D01*
X014783Y002785D02*
X015028Y002785D01*
X015024Y002782D02*
X014787Y002782D01*
X014791Y002780D02*
X015020Y002780D01*
X015016Y002777D02*
X014796Y002777D01*
X014800Y002775D02*
X015011Y002775D01*
X015007Y002772D02*
X014804Y002772D01*
X014810Y002770D02*
X015001Y002770D01*
X014993Y002768D02*
X014818Y002768D01*
X014827Y002765D02*
X014984Y002765D01*
X014976Y002763D02*
X014835Y002763D01*
X014843Y002760D02*
X014968Y002760D01*
X014960Y002758D02*
X014851Y002758D01*
X014875Y002755D02*
X014936Y002755D01*
X015141Y003443D02*
X014670Y003443D01*
X014670Y003445D02*
X015141Y003445D01*
X015141Y003448D02*
X014670Y003448D01*
X014671Y003450D02*
X015140Y003450D01*
X015140Y003452D02*
X014671Y003452D01*
X014671Y003455D02*
X015140Y003455D01*
X015139Y003457D02*
X014672Y003457D01*
X014672Y003460D02*
X015139Y003460D01*
X015138Y003462D02*
X014672Y003462D01*
X014673Y003465D02*
X015138Y003465D01*
X015138Y003467D02*
X014673Y003467D01*
X014673Y003469D02*
X015137Y003469D01*
X015137Y003472D02*
X014674Y003472D01*
X014674Y003474D02*
X015137Y003474D01*
X015136Y003477D02*
X014674Y003477D01*
X014675Y003479D02*
X015136Y003479D01*
X015135Y003482D02*
X014675Y003482D01*
X014675Y003484D02*
X015135Y003484D01*
X015135Y003487D02*
X014676Y003487D01*
X014677Y003489D02*
X015134Y003489D01*
X015134Y003491D02*
X014678Y003491D01*
X014679Y003494D02*
X015133Y003494D01*
X015132Y003496D02*
X014679Y003496D01*
X014680Y003499D02*
X015131Y003499D01*
X015130Y003501D02*
X014681Y003501D01*
X014682Y003504D02*
X015129Y003504D01*
X015128Y003506D02*
X014683Y003506D01*
X014684Y003508D02*
X015127Y003508D01*
X015126Y003511D02*
X014685Y003511D01*
X014685Y003513D02*
X015125Y003513D01*
X015124Y003516D02*
X014686Y003516D01*
X014687Y003518D02*
X015123Y003518D01*
X015122Y003521D02*
X014688Y003521D01*
X014689Y003523D02*
X015121Y003523D01*
X015120Y003526D02*
X014690Y003526D01*
X014691Y003528D02*
X015119Y003528D01*
X015118Y003530D02*
X014692Y003530D01*
X014694Y003533D02*
X015117Y003533D01*
X015117Y003535D02*
X014695Y003535D01*
X014696Y003538D02*
X015116Y003538D01*
X015114Y003540D02*
X014698Y003540D01*
X014699Y003543D02*
X015112Y003543D01*
X015111Y003545D02*
X014701Y003545D01*
X014702Y003547D02*
X015109Y003547D01*
X015107Y003550D02*
X014704Y003550D01*
X014705Y003552D02*
X015106Y003552D01*
X015104Y003555D02*
X014706Y003555D01*
X014708Y003557D02*
X015102Y003557D01*
X015101Y003560D02*
X014709Y003560D01*
X014711Y003562D02*
X015099Y003562D01*
X015097Y003565D02*
X014712Y003565D01*
X014714Y003567D02*
X015096Y003567D01*
X015094Y003569D02*
X014716Y003569D01*
X014718Y003572D02*
X015092Y003572D01*
X015091Y003574D02*
X014721Y003574D01*
X014723Y003577D02*
X015089Y003577D01*
X015087Y003579D02*
X014725Y003579D01*
X014727Y003582D02*
X015085Y003582D01*
X015083Y003584D02*
X014729Y003584D01*
X014731Y003586D02*
X015080Y003586D01*
X015077Y003589D02*
X014734Y003589D01*
X014736Y003591D02*
X015075Y003591D01*
X015072Y003594D02*
X014738Y003594D01*
X014740Y003596D02*
X015069Y003596D01*
X015061Y003604D02*
X014749Y003604D01*
X014752Y003606D02*
X015059Y003606D01*
X015056Y003608D02*
X014755Y003608D01*
X014758Y003611D02*
X015054Y003611D01*
X015051Y003613D02*
X014762Y003613D01*
X014765Y003616D02*
X015048Y003616D01*
X015043Y003618D02*
X014768Y003618D01*
X014771Y003621D02*
X015039Y003621D01*
X015035Y003623D02*
X014774Y003623D01*
X014778Y003625D02*
X015031Y003625D01*
X015026Y003628D02*
X014783Y003628D01*
X014788Y003630D02*
X015022Y003630D01*
X015018Y003633D02*
X014793Y003633D01*
X014798Y003635D02*
X015014Y003635D01*
X015010Y003638D02*
X014803Y003638D01*
X014808Y003640D02*
X015005Y003640D01*
X014998Y003643D02*
X014813Y003643D01*
X014818Y003645D02*
X014990Y003645D01*
X014982Y003647D02*
X014827Y003647D01*
X014836Y003650D02*
X014974Y003650D01*
X014966Y003652D02*
X014846Y003652D01*
X014855Y003655D02*
X014958Y003655D01*
X014930Y003657D02*
X014876Y003657D01*
X014906Y004525D02*
X014855Y004528D01*
X014807Y004543D01*
X014763Y004567D01*
X014725Y004601D01*
X014696Y004643D01*
X014677Y004690D01*
X014669Y004740D01*
X014669Y005212D01*
X014675Y005256D01*
X015135Y005256D01*
X015135Y005258D02*
X014676Y005258D01*
X014675Y005256D02*
X014690Y005298D01*
X014713Y005337D01*
X014742Y005370D01*
X014778Y005397D01*
X015030Y005397D01*
X015026Y005400D02*
X014783Y005400D01*
X014788Y005402D02*
X015022Y005402D01*
X015018Y005405D02*
X014793Y005405D01*
X014798Y005407D02*
X015013Y005407D01*
X015009Y005410D02*
X014803Y005410D01*
X014808Y005412D02*
X015005Y005412D01*
X015049Y005386D01*
X015087Y005352D01*
X015115Y005310D01*
X015134Y005262D01*
X015142Y005212D01*
X015142Y004740D01*
X015134Y004690D01*
X015115Y004643D01*
X015086Y004601D01*
X015048Y004567D01*
X015004Y004543D01*
X014956Y004528D01*
X014906Y004525D01*
X014872Y004527D02*
X014940Y004527D01*
X014961Y004530D02*
X014850Y004530D01*
X014842Y004532D02*
X014969Y004532D01*
X014977Y004535D02*
X014834Y004535D01*
X014826Y004537D02*
X014985Y004537D01*
X014993Y004539D02*
X014818Y004539D01*
X014809Y004542D02*
X015002Y004542D01*
X015007Y004544D02*
X014804Y004544D01*
X014799Y004547D02*
X015012Y004547D01*
X015016Y004549D02*
X014795Y004549D01*
X014791Y004552D02*
X015020Y004552D01*
X015025Y004554D02*
X014786Y004554D01*
X014782Y004556D02*
X015029Y004556D01*
X015033Y004559D02*
X014778Y004559D01*
X014773Y004561D02*
X015038Y004561D01*
X015042Y004564D02*
X014769Y004564D01*
X014765Y004566D02*
X015046Y004566D01*
X015050Y004569D02*
X014761Y004569D01*
X014759Y004571D02*
X015052Y004571D01*
X015055Y004574D02*
X014756Y004574D01*
X014753Y004576D02*
X015058Y004576D01*
X015060Y004578D02*
X014751Y004578D01*
X014748Y004581D02*
X015063Y004581D01*
X015066Y004583D02*
X014745Y004583D01*
X014743Y004586D02*
X015069Y004586D01*
X015071Y004588D02*
X014740Y004588D01*
X014737Y004591D02*
X015074Y004591D01*
X015077Y004593D02*
X014734Y004593D01*
X014732Y004595D02*
X015079Y004595D01*
X015082Y004598D02*
X014729Y004598D01*
X014726Y004600D02*
X015085Y004600D01*
X015087Y004603D02*
X014724Y004603D01*
X014723Y004605D02*
X015088Y004605D01*
X015090Y004608D02*
X014721Y004608D01*
X014719Y004610D02*
X015092Y004610D01*
X015094Y004613D02*
X014717Y004613D01*
X014716Y004615D02*
X015095Y004615D01*
X015097Y004617D02*
X014714Y004617D01*
X014712Y004620D02*
X015099Y004620D01*
X015100Y004622D02*
X014711Y004622D01*
X014709Y004625D02*
X015102Y004625D01*
X015104Y004627D02*
X014707Y004627D01*
X014706Y004630D02*
X015105Y004630D01*
X015107Y004632D02*
X014704Y004632D01*
X014702Y004634D02*
X015109Y004634D01*
X015111Y004637D02*
X014700Y004637D01*
X014699Y004639D02*
X015112Y004639D01*
X015114Y004642D02*
X014697Y004642D01*
X014696Y004644D02*
X015115Y004644D01*
X015116Y004647D02*
X014695Y004647D01*
X014694Y004649D02*
X015117Y004649D01*
X015118Y004652D02*
X014693Y004652D01*
X014692Y004654D02*
X015119Y004654D01*
X015120Y004656D02*
X014691Y004656D01*
X014690Y004659D02*
X015121Y004659D01*
X015122Y004661D02*
X014689Y004661D01*
X014688Y004664D02*
X015123Y004664D01*
X015124Y004666D02*
X014687Y004666D01*
X014686Y004669D02*
X015125Y004669D01*
X015126Y004671D02*
X014685Y004671D01*
X014684Y004673D02*
X015127Y004673D01*
X015128Y004676D02*
X014683Y004676D01*
X014682Y004678D02*
X015129Y004678D01*
X015130Y004681D02*
X014681Y004681D01*
X014680Y004683D02*
X015131Y004683D01*
X015132Y004686D02*
X014679Y004686D01*
X014678Y004688D02*
X015133Y004688D01*
X015134Y004691D02*
X014677Y004691D01*
X014677Y004693D02*
X015134Y004693D01*
X015135Y004695D02*
X014676Y004695D01*
X014676Y004698D02*
X015135Y004698D01*
X015135Y004700D02*
X014676Y004700D01*
X014675Y004703D02*
X015136Y004703D01*
X015136Y004705D02*
X014675Y004705D01*
X014674Y004708D02*
X015137Y004708D01*
X015137Y004710D02*
X014674Y004710D01*
X014674Y004712D02*
X015137Y004712D01*
X015138Y004715D02*
X014673Y004715D01*
X014673Y004717D02*
X015138Y004717D01*
X015139Y004720D02*
X014672Y004720D01*
X014672Y004722D02*
X015139Y004722D01*
X015139Y004725D02*
X014672Y004725D01*
X014671Y004727D02*
X015140Y004727D01*
X015140Y004730D02*
X014671Y004730D01*
X014671Y004732D02*
X015140Y004732D01*
X015141Y004734D02*
X014670Y004734D01*
X014670Y004737D02*
X015141Y004737D01*
X015142Y004739D02*
X014669Y004739D01*
X014669Y004742D02*
X015142Y004742D01*
X015142Y004744D02*
X014669Y004744D01*
X014669Y004747D02*
X015142Y004747D01*
X015142Y004749D02*
X014669Y004749D01*
X014669Y004751D02*
X015142Y004751D01*
X015142Y004754D02*
X014669Y004754D01*
X014669Y004756D02*
X015142Y004756D01*
X015142Y004759D02*
X014669Y004759D01*
X014669Y004761D02*
X015142Y004761D01*
X015142Y004764D02*
X014669Y004764D01*
X014669Y004766D02*
X015142Y004766D01*
X015142Y004769D02*
X014669Y004769D01*
X014669Y004771D02*
X015142Y004771D01*
X015142Y004773D02*
X014669Y004773D01*
X014669Y004776D02*
X015142Y004776D01*
X015142Y004778D02*
X014669Y004778D01*
X014669Y004781D02*
X015142Y004781D01*
X015142Y004783D02*
X014669Y004783D01*
X014669Y004786D02*
X015142Y004786D01*
X015142Y004788D02*
X014669Y004788D01*
X014669Y004790D02*
X015142Y004790D01*
X015142Y004793D02*
X014669Y004793D01*
X014669Y004795D02*
X015142Y004795D01*
X015142Y004798D02*
X014669Y004798D01*
X014669Y004800D02*
X015142Y004800D01*
X015142Y004803D02*
X014669Y004803D01*
X014669Y004805D02*
X015142Y004805D01*
X015142Y004808D02*
X014669Y004808D01*
X014669Y004810D02*
X015142Y004810D01*
X015142Y004812D02*
X014669Y004812D01*
X014669Y004815D02*
X015142Y004815D01*
X015142Y004817D02*
X014669Y004817D01*
X014669Y004820D02*
X015142Y004820D01*
X015142Y004822D02*
X014669Y004822D01*
X014669Y004825D02*
X015142Y004825D01*
X015142Y004827D02*
X014669Y004827D01*
X014669Y004829D02*
X015142Y004829D01*
X015142Y004832D02*
X014669Y004832D01*
X014669Y004834D02*
X015142Y004834D01*
X015142Y004837D02*
X014669Y004837D01*
X014669Y004839D02*
X015142Y004839D01*
X015142Y004842D02*
X014669Y004842D01*
X014669Y004844D02*
X015142Y004844D01*
X015142Y004847D02*
X014669Y004847D01*
X014669Y004849D02*
X015142Y004849D01*
X015142Y004851D02*
X014669Y004851D01*
X014669Y004854D02*
X015142Y004854D01*
X015142Y004856D02*
X014669Y004856D01*
X014669Y004859D02*
X015142Y004859D01*
X015142Y004861D02*
X014669Y004861D01*
X014669Y004864D02*
X015142Y004864D01*
X015142Y004866D02*
X014669Y004866D01*
X014669Y004868D02*
X015142Y004868D01*
X015142Y004871D02*
X014669Y004871D01*
X014669Y004873D02*
X015142Y004873D01*
X015142Y004876D02*
X014669Y004876D01*
X014669Y004878D02*
X015142Y004878D01*
X015142Y004881D02*
X014669Y004881D01*
X014669Y004883D02*
X015142Y004883D01*
X015142Y004886D02*
X014669Y004886D01*
X014669Y004888D02*
X015142Y004888D01*
X015142Y004890D02*
X014669Y004890D01*
X014669Y004893D02*
X015142Y004893D01*
X015142Y004895D02*
X014669Y004895D01*
X014669Y004898D02*
X015142Y004898D01*
X015142Y004900D02*
X014669Y004900D01*
X014669Y004903D02*
X015142Y004903D01*
X015142Y004905D02*
X014669Y004905D01*
X014669Y004907D02*
X015142Y004907D01*
X015142Y004910D02*
X014669Y004910D01*
X014669Y004912D02*
X015142Y004912D01*
X015142Y004915D02*
X014669Y004915D01*
X014669Y004917D02*
X015142Y004917D01*
X015142Y004920D02*
X014669Y004920D01*
X014669Y004922D02*
X015142Y004922D01*
X015142Y004924D02*
X014669Y004924D01*
X014669Y004927D02*
X015142Y004927D01*
X015142Y004929D02*
X014669Y004929D01*
X014669Y004932D02*
X015142Y004932D01*
X015142Y004934D02*
X014669Y004934D01*
X014669Y004937D02*
X015142Y004937D01*
X015142Y004939D02*
X014669Y004939D01*
X014669Y004942D02*
X015142Y004942D01*
X015142Y004944D02*
X014669Y004944D01*
X014669Y004946D02*
X015142Y004946D01*
X015142Y004949D02*
X014669Y004949D01*
X014669Y004951D02*
X015142Y004951D01*
X015142Y004954D02*
X014669Y004954D01*
X014669Y004956D02*
X015142Y004956D01*
X015142Y004959D02*
X014669Y004959D01*
X014669Y004961D02*
X015142Y004961D01*
X015142Y004963D02*
X014669Y004963D01*
X014669Y004966D02*
X015142Y004966D01*
X015142Y004968D02*
X014669Y004968D01*
X014669Y004971D02*
X015142Y004971D01*
X015142Y004973D02*
X014669Y004973D01*
X014669Y004976D02*
X015142Y004976D01*
X015142Y004978D02*
X014669Y004978D01*
X014669Y004981D02*
X015142Y004981D01*
X015142Y004983D02*
X014669Y004983D01*
X014669Y004985D02*
X015142Y004985D01*
X015142Y004988D02*
X014669Y004988D01*
X014669Y004990D02*
X015142Y004990D01*
X015142Y004993D02*
X014669Y004993D01*
X014669Y004995D02*
X015142Y004995D01*
X015142Y004998D02*
X014669Y004998D01*
X014669Y005000D02*
X015142Y005000D01*
X015142Y005002D02*
X014669Y005002D01*
X014669Y005005D02*
X015142Y005005D01*
X015142Y005007D02*
X014669Y005007D01*
X014669Y005010D02*
X015142Y005010D01*
X015142Y005012D02*
X014669Y005012D01*
X014669Y005015D02*
X015142Y005015D01*
X015142Y005017D02*
X014669Y005017D01*
X014669Y005020D02*
X015142Y005020D01*
X015142Y005022D02*
X014669Y005022D01*
X014669Y005024D02*
X015142Y005024D01*
X015142Y005027D02*
X014669Y005027D01*
X014669Y005029D02*
X015142Y005029D01*
X015142Y005032D02*
X014669Y005032D01*
X014669Y005034D02*
X015142Y005034D01*
X015142Y005037D02*
X014669Y005037D01*
X014669Y005039D02*
X015142Y005039D01*
X015142Y005041D02*
X014669Y005041D01*
X014669Y005044D02*
X015142Y005044D01*
X015142Y005046D02*
X014669Y005046D01*
X014669Y005049D02*
X015142Y005049D01*
X015142Y005051D02*
X014669Y005051D01*
X014669Y005054D02*
X015142Y005054D01*
X015142Y005056D02*
X014669Y005056D01*
X014669Y005059D02*
X015142Y005059D01*
X015142Y005061D02*
X014669Y005061D01*
X014669Y005063D02*
X015142Y005063D01*
X015142Y005066D02*
X014669Y005066D01*
X014669Y005068D02*
X015142Y005068D01*
X015142Y005071D02*
X014669Y005071D01*
X014669Y005073D02*
X015142Y005073D01*
X015142Y005076D02*
X014669Y005076D01*
X014669Y005078D02*
X015142Y005078D01*
X015142Y005080D02*
X014669Y005080D01*
X014669Y005083D02*
X015142Y005083D01*
X015142Y005085D02*
X014669Y005085D01*
X014669Y005088D02*
X015142Y005088D01*
X015142Y005090D02*
X014669Y005090D01*
X014669Y005093D02*
X015142Y005093D01*
X015142Y005095D02*
X014669Y005095D01*
X014669Y005098D02*
X015142Y005098D01*
X015142Y005100D02*
X014669Y005100D01*
X014669Y005102D02*
X015142Y005102D01*
X015142Y005105D02*
X014669Y005105D01*
X014669Y005107D02*
X015142Y005107D01*
X015142Y005110D02*
X014669Y005110D01*
X014669Y005112D02*
X015142Y005112D01*
X015142Y005115D02*
X014669Y005115D01*
X014669Y005117D02*
X015142Y005117D01*
X015142Y005119D02*
X014669Y005119D01*
X014669Y005122D02*
X015142Y005122D01*
X015142Y005124D02*
X014669Y005124D01*
X014669Y005127D02*
X015142Y005127D01*
X015142Y005129D02*
X014669Y005129D01*
X014669Y005132D02*
X015142Y005132D01*
X015142Y005134D02*
X014669Y005134D01*
X014669Y005137D02*
X015142Y005137D01*
X015142Y005139D02*
X014669Y005139D01*
X014669Y005141D02*
X015142Y005141D01*
X015142Y005144D02*
X014669Y005144D01*
X014669Y005146D02*
X015142Y005146D01*
X015142Y005149D02*
X014669Y005149D01*
X014669Y005151D02*
X015142Y005151D01*
X015142Y005154D02*
X014669Y005154D01*
X014669Y005156D02*
X015142Y005156D01*
X015142Y005158D02*
X014669Y005158D01*
X014669Y005161D02*
X015142Y005161D01*
X015142Y005163D02*
X014669Y005163D01*
X014669Y005166D02*
X015142Y005166D01*
X015142Y005168D02*
X014669Y005168D01*
X014669Y005171D02*
X015142Y005171D01*
X015142Y005173D02*
X014669Y005173D01*
X014669Y005176D02*
X015142Y005176D01*
X015142Y005178D02*
X014669Y005178D01*
X014669Y005180D02*
X015142Y005180D01*
X015142Y005183D02*
X014669Y005183D01*
X014669Y005185D02*
X015142Y005185D01*
X015142Y005188D02*
X014669Y005188D01*
X014669Y005190D02*
X015142Y005190D01*
X015142Y005193D02*
X014669Y005193D01*
X014669Y005195D02*
X015142Y005195D01*
X015142Y005197D02*
X014669Y005197D01*
X014669Y005200D02*
X015142Y005200D01*
X015142Y005202D02*
X014669Y005202D01*
X014669Y005205D02*
X015142Y005205D01*
X015142Y005207D02*
X014669Y005207D01*
X014669Y005210D02*
X015142Y005210D01*
X015142Y005212D02*
X014669Y005212D01*
X014670Y005215D02*
X015141Y005215D01*
X015141Y005217D02*
X014670Y005217D01*
X014670Y005219D02*
X015141Y005219D01*
X015140Y005222D02*
X014671Y005222D01*
X014671Y005224D02*
X015140Y005224D01*
X015139Y005227D02*
X014671Y005227D01*
X014672Y005229D02*
X015139Y005229D01*
X015139Y005232D02*
X014672Y005232D01*
X014672Y005234D02*
X015138Y005234D01*
X015138Y005236D02*
X014673Y005236D01*
X014673Y005239D02*
X015138Y005239D01*
X015137Y005241D02*
X014673Y005241D01*
X014674Y005244D02*
X015137Y005244D01*
X015137Y005246D02*
X014674Y005246D01*
X014674Y005249D02*
X015136Y005249D01*
X015136Y005251D02*
X014675Y005251D01*
X014675Y005254D02*
X015135Y005254D01*
X015134Y005261D02*
X014677Y005261D01*
X014678Y005263D02*
X015134Y005263D01*
X015133Y005266D02*
X014679Y005266D01*
X014680Y005268D02*
X015132Y005268D01*
X015131Y005271D02*
X014680Y005271D01*
X014681Y005273D02*
X015130Y005273D01*
X015129Y005275D02*
X014682Y005275D01*
X014683Y005278D02*
X015128Y005278D01*
X015127Y005280D02*
X014684Y005280D01*
X014685Y005283D02*
X015126Y005283D01*
X015125Y005285D02*
X014685Y005285D01*
X014686Y005288D02*
X015124Y005288D01*
X015123Y005290D02*
X014687Y005290D01*
X014688Y005293D02*
X015122Y005293D01*
X015121Y005295D02*
X014689Y005295D01*
X014690Y005297D02*
X015120Y005297D01*
X015119Y005300D02*
X014691Y005300D01*
X014692Y005302D02*
X015118Y005302D01*
X015117Y005305D02*
X014694Y005305D01*
X014695Y005307D02*
X015116Y005307D01*
X015115Y005310D02*
X014697Y005310D01*
X014698Y005312D02*
X015114Y005312D01*
X015112Y005314D02*
X014699Y005314D01*
X014701Y005317D02*
X015111Y005317D01*
X015109Y005319D02*
X014702Y005319D01*
X014704Y005322D02*
X015107Y005322D01*
X015106Y005324D02*
X014705Y005324D01*
X014707Y005327D02*
X015104Y005327D01*
X015102Y005329D02*
X014708Y005329D01*
X014709Y005332D02*
X015101Y005332D01*
X015099Y005334D02*
X014711Y005334D01*
X014712Y005336D02*
X015097Y005336D01*
X015096Y005339D02*
X014714Y005339D01*
X014716Y005341D02*
X015094Y005341D01*
X015092Y005344D02*
X014719Y005344D01*
X014721Y005346D02*
X015091Y005346D01*
X015089Y005349D02*
X014723Y005349D01*
X014725Y005351D02*
X015087Y005351D01*
X015085Y005353D02*
X014727Y005353D01*
X014729Y005356D02*
X015082Y005356D01*
X015080Y005358D02*
X014732Y005358D01*
X014734Y005361D02*
X015077Y005361D01*
X015074Y005363D02*
X014736Y005363D01*
X014738Y005366D02*
X015072Y005366D01*
X015069Y005368D02*
X014740Y005368D01*
X014743Y005371D02*
X015066Y005371D01*
X015064Y005373D02*
X014746Y005373D01*
X014749Y005375D02*
X015061Y005375D01*
X015059Y005378D02*
X014752Y005378D01*
X014755Y005380D02*
X015056Y005380D01*
X015053Y005383D02*
X014759Y005383D01*
X014762Y005385D02*
X015051Y005385D01*
X015047Y005388D02*
X014765Y005388D01*
X014768Y005390D02*
X015043Y005390D01*
X015039Y005392D02*
X014771Y005392D01*
X014775Y005395D02*
X015035Y005395D01*
X015005Y005412D02*
X014956Y005427D01*
X014906Y005431D01*
X014861Y005428D01*
X014818Y005417D01*
X014778Y005397D01*
X014813Y005414D02*
X014997Y005414D01*
X014989Y005417D02*
X014819Y005417D01*
X014828Y005419D02*
X014981Y005419D01*
X014973Y005422D02*
X014837Y005422D01*
X014847Y005424D02*
X014965Y005424D01*
X014957Y005427D02*
X014856Y005427D01*
X014880Y005429D02*
X014927Y005429D01*
D41*
X023509Y005164D03*
X023509Y005951D03*
X028319Y014167D03*
X029106Y014167D03*
D42*
X029894Y014167D03*
X023509Y004377D03*
D43*
X024297Y006968D02*
X024297Y007285D01*
X024789Y007285D02*
X024789Y006968D01*
X009399Y010881D02*
X009399Y011198D01*
X008906Y011198D02*
X008906Y010881D01*
X007574Y010881D02*
X007574Y011198D01*
X007082Y011198D02*
X007082Y010881D01*
X006590Y010881D02*
X006590Y011198D01*
X006097Y011198D02*
X006097Y010881D01*
X005605Y010881D02*
X005605Y011198D01*
X006469Y004423D02*
X006786Y004423D01*
X006786Y003931D02*
X006469Y003931D01*
M02*
