G75*
G70*
%OFA0B0*%
%FSLAX24Y24*%
%IPPOS*%
%LPD*%
%AMOC8*
5,1,8,0,0,1.08239X$1,22.5*
%
%ADD10C,0.0060*%
%ADD11C,0.0050*%
%ADD12C,0.0000*%
%ADD13C,0.0040*%
%ADD14C,0.0080*%
%ADD15C,0.0100*%
%ADD16C,0.0070*%
%ADD17C,0.0160*%
%ADD18C,0.0039*%
%ADD19C,0.0020*%
%ADD20C,0.0079*%
%ADD21R,0.0079X0.0800*%
%ADD22C,0.0140*%
%ADD23C,0.0120*%
%ADD24C,0.0010*%
%ADD25C,0.0030*%
D10*
X014786Y006843D02*
X016028Y006843D01*
X016028Y007416D01*
X014786Y007416D01*
X014786Y006843D01*
X014786Y007494D02*
X016028Y007494D01*
X016028Y008067D01*
X014786Y008067D01*
X014786Y007494D01*
X016286Y007493D02*
X017528Y007493D01*
X017528Y008066D01*
X016286Y008066D01*
X016286Y007493D01*
X016286Y007416D02*
X016286Y006843D01*
X017528Y006843D01*
X017528Y007416D01*
X016286Y007416D01*
X019726Y007600D02*
X019726Y006655D01*
X020218Y006655D01*
X020218Y007600D01*
X019726Y007600D01*
X019726Y007755D02*
X019726Y008700D01*
X020218Y008700D01*
X020218Y007755D01*
X019726Y007755D01*
X019724Y006500D02*
X020216Y006500D01*
X020216Y005555D01*
X019724Y005555D01*
X019724Y006500D01*
X017617Y011043D02*
X016673Y011043D01*
X016673Y011535D01*
X017617Y011535D01*
X017617Y011043D01*
X018156Y012359D02*
X019575Y012359D01*
X019575Y014218D02*
X018156Y014218D01*
X015115Y013601D02*
X015115Y013109D01*
X014170Y013109D01*
X014170Y013601D01*
X015115Y013601D01*
X014587Y013001D02*
X014095Y013001D01*
X014095Y012056D01*
X014587Y012056D01*
X014587Y013001D01*
X012515Y012837D02*
X012515Y012367D01*
X012115Y012317D02*
X011795Y012317D01*
X011395Y012367D02*
X011395Y012837D01*
X011715Y012837D01*
X012195Y012837D02*
X012515Y012837D01*
X012152Y011477D02*
X011758Y011635D01*
X011758Y011320D01*
X012152Y011477D01*
X019701Y017260D02*
X019768Y017194D01*
X019901Y017194D01*
X019968Y017260D01*
X019968Y017327D01*
X019901Y017394D01*
X019768Y017394D01*
X019701Y017460D01*
X019701Y017527D01*
X019768Y017594D01*
X019901Y017594D01*
X019968Y017527D01*
X020125Y017460D02*
X020258Y017594D01*
X020392Y017460D01*
X020392Y017194D01*
X020548Y017194D02*
X020548Y017594D01*
X020815Y017594D01*
X020972Y017594D02*
X020972Y017194D01*
X021239Y017194D01*
X021105Y017394D02*
X020972Y017394D01*
X020972Y017594D02*
X021239Y017594D01*
X021819Y017527D02*
X021819Y017260D01*
X021886Y017194D01*
X022019Y017194D01*
X022086Y017260D01*
X022243Y017194D02*
X022243Y017594D01*
X022086Y017527D02*
X022019Y017594D01*
X021886Y017594D01*
X021819Y017527D01*
X022243Y017394D02*
X022510Y017394D01*
X022666Y017394D02*
X022933Y017394D01*
X022933Y017460D02*
X022933Y017194D01*
X023090Y017194D02*
X023090Y017594D01*
X023290Y017594D01*
X023357Y017527D01*
X023357Y017394D01*
X023290Y017327D01*
X023090Y017327D01*
X023223Y017327D02*
X023357Y017194D01*
X023513Y017260D02*
X023580Y017194D01*
X023713Y017194D01*
X023780Y017260D01*
X023780Y017394D01*
X023647Y017394D01*
X023780Y017527D02*
X023713Y017594D01*
X023580Y017594D01*
X023513Y017527D01*
X023513Y017260D01*
X023937Y017194D02*
X024204Y017194D01*
X024070Y017394D02*
X023937Y017394D01*
X023937Y017594D02*
X023937Y017194D01*
X024360Y017394D02*
X024627Y017394D01*
X024784Y017327D02*
X024984Y017327D01*
X025051Y017394D01*
X025051Y017527D01*
X024984Y017594D01*
X024784Y017594D01*
X024784Y017194D01*
X025208Y017194D02*
X025474Y017194D01*
X025631Y017194D02*
X025631Y017460D01*
X025765Y017594D01*
X025898Y017460D01*
X025898Y017194D01*
X025898Y017394D02*
X025631Y017394D01*
X026055Y017527D02*
X026188Y017394D01*
X026188Y017194D01*
X026188Y017394D02*
X026322Y017527D01*
X026322Y017594D01*
X026055Y017594D02*
X026055Y017527D01*
X026055Y017895D02*
X026055Y018295D01*
X026255Y018295D01*
X026322Y018229D01*
X026322Y018095D01*
X026255Y018029D01*
X026055Y018029D01*
X026188Y018029D02*
X026322Y017895D01*
X025898Y017895D02*
X025631Y017895D01*
X025631Y018295D01*
X025898Y018295D01*
X025765Y018095D02*
X025631Y018095D01*
X025474Y018095D02*
X025341Y018095D01*
X025474Y018095D02*
X025474Y017962D01*
X025408Y017895D01*
X025274Y017895D01*
X025208Y017962D01*
X025208Y018229D01*
X025274Y018295D01*
X025408Y018295D01*
X025474Y018229D01*
X025051Y018229D02*
X025051Y018095D01*
X024984Y018029D01*
X024784Y018029D01*
X024917Y018029D02*
X025051Y017895D01*
X024784Y017895D02*
X024784Y018295D01*
X024984Y018295D01*
X025051Y018229D01*
X024627Y018162D02*
X024627Y017895D01*
X024627Y018095D02*
X024360Y018095D01*
X024360Y018162D02*
X024494Y018295D01*
X024627Y018162D01*
X024360Y018162D02*
X024360Y017895D01*
X024204Y017895D02*
X024204Y018295D01*
X024204Y018095D02*
X023937Y018095D01*
X023937Y017895D02*
X023937Y018295D01*
X023780Y018229D02*
X023713Y018295D01*
X023580Y018295D01*
X023513Y018229D01*
X023513Y017962D01*
X023580Y017895D01*
X023713Y017895D01*
X023780Y017962D01*
X023937Y017594D02*
X024204Y017594D01*
X025208Y017594D02*
X025208Y017194D01*
X026902Y017194D02*
X026902Y017594D01*
X026902Y017895D02*
X026902Y018295D01*
X027467Y018295D02*
X027667Y018295D01*
X027733Y018229D01*
X027733Y018162D01*
X027667Y018095D01*
X027467Y018095D01*
X027667Y018095D02*
X027733Y018029D01*
X027733Y017962D01*
X027667Y017895D01*
X027467Y017895D01*
X027467Y018295D01*
X027890Y018229D02*
X027890Y017962D01*
X027957Y017895D01*
X028090Y017895D01*
X028157Y017962D01*
X028157Y018229D01*
X028090Y018295D01*
X027957Y018295D01*
X027890Y018229D01*
X028314Y018229D02*
X028314Y017962D01*
X028380Y017895D01*
X028514Y017895D01*
X028581Y017962D01*
X028581Y018229D01*
X028514Y018295D01*
X028380Y018295D01*
X028314Y018229D01*
X028737Y018229D02*
X028737Y018162D01*
X028804Y018095D01*
X028937Y018095D01*
X029004Y018029D01*
X029004Y017962D01*
X028937Y017895D01*
X028804Y017895D01*
X028737Y017962D01*
X029294Y017895D02*
X029294Y018295D01*
X029161Y018295D02*
X029428Y018295D01*
X029004Y018229D02*
X028937Y018295D01*
X028804Y018295D01*
X028737Y018229D01*
X030008Y018229D02*
X030008Y017962D01*
X030075Y017895D01*
X030208Y017895D01*
X030275Y017962D01*
X030431Y017962D02*
X030498Y017895D01*
X030632Y017895D01*
X030698Y017962D01*
X030698Y018229D01*
X030632Y018295D01*
X030498Y018295D01*
X030431Y018229D01*
X030431Y017962D01*
X030855Y017895D02*
X030855Y018295D01*
X031122Y017895D01*
X031122Y018295D01*
X031279Y018295D02*
X031279Y018029D01*
X031412Y017895D01*
X031546Y018029D01*
X031546Y018295D01*
X031702Y018295D02*
X031702Y017895D01*
X031969Y017895D01*
X032126Y017895D02*
X032126Y018295D01*
X032326Y018295D01*
X032393Y018229D01*
X032393Y018095D01*
X032326Y018029D01*
X032126Y018029D01*
X032259Y018029D02*
X032393Y017895D01*
X032683Y017895D02*
X032683Y018295D01*
X032816Y018295D02*
X032549Y018295D01*
X032973Y018295D02*
X032973Y017895D01*
X033240Y017895D01*
X033396Y017895D02*
X033396Y018295D01*
X033597Y018295D01*
X033663Y018229D01*
X033663Y018095D01*
X033597Y018029D01*
X033396Y018029D01*
X033530Y018029D02*
X033663Y017895D01*
X033597Y017594D02*
X033396Y017594D01*
X033396Y017194D01*
X033396Y017327D02*
X033597Y017327D01*
X033663Y017394D01*
X033663Y017527D01*
X033597Y017594D01*
X033530Y017327D02*
X033663Y017194D01*
X033240Y017194D02*
X032973Y017194D01*
X032973Y017594D01*
X033240Y017594D01*
X033106Y017394D02*
X032973Y017394D01*
X032824Y017594D02*
X032690Y017594D01*
X032757Y017594D02*
X032757Y017194D01*
X032690Y017194D02*
X032824Y017194D01*
X032400Y017394D02*
X032267Y017394D01*
X032267Y017194D02*
X032267Y017594D01*
X032534Y017594D01*
X032118Y017594D02*
X031985Y017594D01*
X032051Y017594D02*
X032051Y017194D01*
X031985Y017194D02*
X032118Y017194D01*
X031828Y017194D02*
X031561Y017194D01*
X031561Y017594D01*
X031404Y017527D02*
X031404Y017394D01*
X031338Y017327D01*
X031137Y017327D01*
X031137Y017194D02*
X031137Y017594D01*
X031338Y017594D01*
X031404Y017527D01*
X030981Y017594D02*
X030981Y017194D01*
X030714Y017194D02*
X030714Y017594D01*
X030847Y017460D01*
X030981Y017594D01*
X030557Y017460D02*
X030557Y017194D01*
X030557Y017394D02*
X030290Y017394D01*
X030290Y017460D02*
X030290Y017194D01*
X029710Y017260D02*
X029710Y017527D01*
X029643Y017594D01*
X029510Y017594D01*
X029443Y017527D01*
X029443Y017260D01*
X029510Y017194D01*
X029643Y017194D01*
X029710Y017260D01*
X030290Y017460D02*
X030424Y017594D01*
X030557Y017460D01*
X031702Y018095D02*
X031836Y018095D01*
X031969Y018295D02*
X031702Y018295D01*
X032973Y018295D02*
X033240Y018295D01*
X033106Y018095D02*
X032973Y018095D01*
X030275Y018229D02*
X030208Y018295D01*
X030075Y018295D01*
X030008Y018229D01*
X029294Y017594D02*
X029161Y017594D01*
X029228Y017594D02*
X029228Y017194D01*
X029294Y017194D02*
X029161Y017194D01*
X029004Y017260D02*
X029004Y017527D01*
X028937Y017594D01*
X028737Y017594D01*
X028737Y017194D01*
X028937Y017194D01*
X029004Y017260D01*
X028581Y017260D02*
X028514Y017194D01*
X028380Y017194D01*
X028314Y017260D01*
X028314Y017594D01*
X028157Y017460D02*
X028157Y017194D01*
X028157Y017394D02*
X027890Y017394D01*
X027890Y017460D02*
X027890Y017194D01*
X027890Y017460D02*
X028024Y017594D01*
X028157Y017460D01*
X028581Y017594D02*
X028581Y017260D01*
X026064Y015645D02*
X026014Y015695D01*
X025914Y015695D01*
X025864Y015645D01*
X025964Y015544D02*
X026014Y015544D01*
X026064Y015494D01*
X026064Y015444D01*
X026014Y015394D01*
X025914Y015394D01*
X025864Y015444D01*
X025749Y015444D02*
X025749Y015394D01*
X025699Y015394D01*
X025699Y015444D01*
X025749Y015444D01*
X025567Y015394D02*
X025367Y015394D01*
X025467Y015394D02*
X025467Y015695D01*
X025367Y015594D01*
X025236Y015494D02*
X025236Y015695D01*
X025036Y015695D02*
X025036Y015494D01*
X025136Y015394D01*
X025236Y015494D01*
X025269Y015265D02*
X025168Y015265D01*
X025118Y015215D01*
X024987Y015215D02*
X024787Y015014D01*
X024837Y014964D01*
X024937Y014964D01*
X024987Y015014D01*
X024987Y015215D01*
X024937Y015265D01*
X024837Y015265D01*
X024787Y015215D01*
X024787Y015014D01*
X024656Y014964D02*
X024455Y014964D01*
X024656Y015164D01*
X024656Y015215D01*
X024606Y015265D01*
X024506Y015265D01*
X024455Y015215D01*
X025118Y014964D02*
X025319Y015164D01*
X025319Y015215D01*
X025269Y015265D01*
X025450Y015114D02*
X025650Y015114D01*
X025600Y014964D02*
X025600Y015265D01*
X025450Y015114D01*
X025319Y014964D02*
X025118Y014964D01*
X025781Y014964D02*
X025982Y015265D01*
X026113Y015215D02*
X026163Y015265D01*
X026263Y015265D01*
X026313Y015215D01*
X026113Y015014D01*
X026163Y014964D01*
X026263Y014964D01*
X026313Y015014D01*
X026313Y015215D01*
X026444Y015164D02*
X026544Y015265D01*
X026544Y014964D01*
X026444Y014964D02*
X026645Y014964D01*
X026113Y015014D02*
X026113Y015215D01*
X026014Y015544D02*
X026064Y015594D01*
X026064Y015645D01*
X024187Y013858D02*
X023242Y013858D01*
X023242Y013366D01*
X024187Y013366D01*
X024187Y013858D01*
X024484Y012913D02*
X023243Y012913D01*
X023243Y012340D01*
X024484Y012340D01*
X024484Y012913D01*
X025228Y012764D02*
X025228Y012191D01*
X026469Y012191D01*
X026469Y012764D01*
X025228Y012764D01*
X024411Y011985D02*
X024411Y011670D01*
X024017Y011827D01*
X024411Y011985D01*
X032267Y010959D02*
X034140Y010956D01*
X034115Y010956D01*
X033982Y011752D01*
X034018Y011735D02*
X034135Y010965D01*
X033872Y010999D02*
X033746Y010990D01*
X033781Y011067D01*
X033837Y011071D01*
X033813Y011031D01*
X033872Y010999D02*
X033860Y011122D01*
X033752Y011117D01*
X033684Y010971D01*
X033500Y011043D02*
X033470Y010974D01*
X033409Y010969D02*
X033500Y011043D01*
X033369Y011196D02*
X033320Y011181D01*
X033222Y011185D01*
X033170Y011203D01*
X033119Y011200D01*
X033088Y011181D01*
X033011Y011182D01*
X032929Y011184D01*
X032888Y011184D01*
X032839Y011194D01*
X033071Y011211D01*
X033340Y011228D01*
X033173Y011315D01*
X033155Y011352D01*
X033135Y011270D01*
X033222Y011253D01*
X033105Y011249D01*
X033080Y011243D02*
X033115Y011414D01*
X033149Y011416D01*
X033190Y011349D01*
X033253Y011296D01*
X033335Y011266D01*
X033370Y011243D01*
X033369Y011196D01*
X033575Y011233D02*
X033575Y011355D01*
X033510Y011423D01*
X033438Y011461D01*
X033352Y011494D01*
X033371Y011532D01*
X033414Y011535D01*
X033510Y011522D01*
X033574Y011552D01*
X033585Y011631D01*
X033571Y011707D01*
X033736Y011709D01*
X033703Y011627D01*
X033624Y011668D01*
X033691Y011662D01*
X033691Y011581D01*
X033601Y011380D01*
X033438Y011507D01*
X033539Y011494D01*
X033594Y011435D01*
X033657Y011603D01*
X033626Y011631D01*
X033575Y011499D01*
X033575Y011233D02*
X033793Y011712D01*
X033634Y011796D02*
X033752Y012646D01*
X033234Y011716D02*
X033250Y011704D01*
X033234Y011716D02*
X033191Y011654D01*
X033175Y011721D02*
X033148Y011580D01*
X033130Y011533D02*
X033125Y011476D01*
X032900Y011496D01*
X032895Y011468D01*
X033115Y011453D01*
X033130Y011533D02*
X032897Y011537D01*
X032698Y011554D02*
X032726Y011729D01*
X032853Y011243D02*
X033080Y011243D01*
X033158Y010988D02*
X033168Y010988D01*
X033136Y010980D02*
X033111Y010959D01*
X033814Y011328D02*
X033857Y011321D01*
X033851Y011374D01*
X033843Y011427D02*
X033814Y011328D01*
X033207Y008614D02*
X033017Y008614D01*
X032967Y008374D01*
X032977Y008364D02*
X033027Y008564D01*
X033177Y008564D01*
X033227Y008364D01*
X033427Y008264D01*
X033627Y008414D01*
X033727Y008314D01*
X033627Y008114D01*
X033727Y007864D01*
X033927Y007864D01*
X033927Y007714D01*
X033677Y007664D01*
X033627Y007414D01*
X033727Y007264D01*
X033627Y007164D01*
X033477Y007264D01*
X033377Y007214D01*
X033277Y007514D01*
X033427Y007714D01*
X033377Y007964D01*
X033177Y008064D01*
X032977Y008064D01*
X032827Y007914D01*
X032827Y007614D01*
X032977Y007514D01*
X032827Y007264D01*
X032777Y007264D01*
X032627Y007164D01*
X032527Y007264D01*
X032627Y007414D01*
X032527Y007664D01*
X032327Y007714D01*
X032327Y007864D01*
X032527Y007864D01*
X032627Y008114D01*
X032477Y008314D01*
X032627Y008414D01*
X032777Y008264D01*
X032977Y008364D01*
X032963Y008357D02*
X033241Y008357D01*
X033257Y008374D02*
X033207Y008614D01*
X033185Y008532D02*
X033019Y008532D01*
X033005Y008474D02*
X033200Y008474D01*
X033214Y008415D02*
X032990Y008415D01*
X032846Y008298D02*
X033358Y008298D01*
X033437Y008304D02*
X033637Y008434D01*
X033777Y008294D01*
X033637Y008104D01*
X033632Y008123D02*
X032621Y008123D01*
X032587Y008104D02*
X032457Y008294D01*
X032597Y008434D01*
X032787Y008304D01*
X032743Y008298D02*
X032489Y008298D01*
X032533Y008240D02*
X033690Y008240D01*
X033661Y008181D02*
X032577Y008181D01*
X032607Y008064D02*
X033647Y008064D01*
X033670Y008006D02*
X033293Y008006D01*
X033381Y007947D02*
X033694Y007947D01*
X033727Y007914D02*
X033947Y007874D01*
X033947Y007674D01*
X033727Y007634D01*
X033675Y007655D02*
X033383Y007655D01*
X033427Y007713D02*
X033924Y007713D01*
X033927Y007772D02*
X033416Y007772D01*
X033404Y007830D02*
X033927Y007830D01*
X033717Y007889D02*
X033392Y007889D01*
X033642Y008103D02*
X033664Y008068D01*
X033684Y008032D01*
X033702Y007994D01*
X033717Y007955D01*
X033729Y007915D01*
X033664Y007596D02*
X033339Y007596D01*
X033295Y007538D02*
X033652Y007538D01*
X033640Y007479D02*
X033289Y007479D01*
X033308Y007421D02*
X033629Y007421D01*
X033647Y007434D02*
X033777Y007254D01*
X033637Y007114D01*
X033457Y007234D01*
X033377Y007194D01*
X033237Y007534D01*
X033328Y007362D02*
X033662Y007362D01*
X033701Y007304D02*
X033347Y007304D01*
X033367Y007245D02*
X033440Y007245D01*
X033505Y007245D02*
X033709Y007245D01*
X033650Y007187D02*
X033593Y007187D01*
X033601Y006943D02*
X033501Y006943D01*
X033451Y006893D01*
X033551Y006792D02*
X033601Y006792D01*
X033651Y006742D01*
X033651Y006692D01*
X033601Y006642D01*
X033501Y006642D01*
X033451Y006692D01*
X033335Y006692D02*
X033335Y006642D01*
X033285Y006642D01*
X033285Y006692D01*
X033335Y006692D01*
X033154Y006642D02*
X032953Y006642D01*
X033054Y006642D02*
X033054Y006943D01*
X032953Y006842D01*
X032822Y006742D02*
X032722Y006642D01*
X032622Y006742D01*
X032622Y006943D01*
X032597Y007114D02*
X032457Y007254D01*
X032577Y007434D01*
X032624Y007421D02*
X032921Y007421D01*
X032886Y007362D02*
X032593Y007362D01*
X032554Y007304D02*
X032851Y007304D01*
X032777Y007234D02*
X032597Y007114D01*
X032604Y007187D02*
X032662Y007187D01*
X032749Y007245D02*
X032546Y007245D01*
X032777Y007234D02*
X032847Y007194D01*
X032997Y007534D01*
X032941Y007538D02*
X032578Y007538D01*
X032601Y007479D02*
X032956Y007479D01*
X032854Y007596D02*
X032554Y007596D01*
X032531Y007655D02*
X032827Y007655D01*
X032827Y007713D02*
X032330Y007713D01*
X032327Y007772D02*
X032827Y007772D01*
X032827Y007830D02*
X032327Y007830D01*
X032277Y007874D02*
X032507Y007914D01*
X032537Y007889D02*
X032827Y007889D01*
X032861Y007947D02*
X032561Y007947D01*
X032584Y008006D02*
X032919Y008006D01*
X032499Y007618D02*
X032514Y007571D01*
X032532Y007525D01*
X032554Y007481D01*
X032579Y007439D01*
X032497Y007634D02*
X032277Y007674D01*
X032277Y007874D01*
X032542Y008357D02*
X032684Y008357D01*
X033473Y008298D02*
X033719Y008298D01*
X033684Y008357D02*
X033551Y008357D01*
X033237Y007534D02*
X033265Y007550D01*
X033292Y007569D01*
X033315Y007591D01*
X033336Y007616D01*
X033354Y007644D01*
X033369Y007673D01*
X033379Y007704D01*
X033387Y007735D01*
X033390Y007768D01*
X033389Y007800D01*
X033385Y007833D01*
X033376Y007864D01*
X033364Y007894D01*
X033349Y007923D01*
X033330Y007950D01*
X033308Y007974D01*
X033284Y007995D01*
X033257Y008014D01*
X033228Y008029D01*
X033197Y008040D01*
X033166Y008048D01*
X033133Y008052D01*
X033101Y008052D01*
X033068Y008048D01*
X033037Y008040D01*
X033006Y008029D01*
X032977Y008014D01*
X032950Y007995D01*
X032926Y007974D01*
X032904Y007950D01*
X032885Y007923D01*
X032870Y007894D01*
X032858Y007864D01*
X032849Y007833D01*
X032845Y007800D01*
X032844Y007768D01*
X032847Y007735D01*
X032855Y007704D01*
X032865Y007673D01*
X032880Y007644D01*
X032898Y007616D01*
X032919Y007591D01*
X032942Y007569D01*
X032969Y007550D01*
X032997Y007534D01*
X032790Y008300D02*
X032832Y008323D01*
X032875Y008342D01*
X032920Y008359D01*
X032966Y008371D01*
X033258Y008375D02*
X033304Y008363D01*
X033350Y008347D01*
X033394Y008327D01*
X033437Y008304D01*
X033726Y007635D02*
X033716Y007593D01*
X033703Y007552D01*
X033687Y007512D01*
X033668Y007473D01*
X033646Y007436D01*
X033601Y006943D02*
X033651Y006893D01*
X033651Y006842D01*
X033601Y006792D01*
X033568Y006444D02*
X033368Y006143D01*
X033186Y006143D02*
X033186Y006444D01*
X033036Y006294D01*
X033237Y006294D01*
X032905Y006344D02*
X032905Y006394D01*
X032855Y006444D01*
X032755Y006444D01*
X032705Y006394D01*
X032574Y006394D02*
X032373Y006193D01*
X032423Y006143D01*
X032524Y006143D01*
X032574Y006193D01*
X032574Y006394D01*
X032524Y006444D01*
X032423Y006444D01*
X032373Y006394D01*
X032373Y006193D01*
X032242Y006143D02*
X032042Y006143D01*
X032242Y006344D01*
X032242Y006394D01*
X032192Y006444D01*
X032092Y006444D01*
X032042Y006394D01*
X032705Y006143D02*
X032905Y006344D01*
X032905Y006143D02*
X032705Y006143D01*
X032822Y006742D02*
X032822Y006943D01*
X033699Y006394D02*
X033749Y006444D01*
X033849Y006444D01*
X033899Y006394D01*
X033699Y006193D01*
X033749Y006143D01*
X033849Y006143D01*
X033899Y006193D01*
X033899Y006394D01*
X034031Y006344D02*
X034131Y006444D01*
X034131Y006143D01*
X034031Y006143D02*
X034231Y006143D01*
X033699Y006193D02*
X033699Y006394D01*
X032505Y007916D02*
X032516Y007956D01*
X032530Y007995D01*
X032546Y008032D01*
X032565Y008069D01*
X032586Y008104D01*
X022666Y017194D02*
X022666Y017460D01*
X022800Y017594D01*
X022933Y017460D01*
X022510Y017594D02*
X022510Y017194D01*
X022510Y017895D02*
X022376Y018029D01*
X022443Y018029D02*
X022243Y018029D01*
X022243Y017895D02*
X022243Y018295D01*
X022443Y018295D01*
X022510Y018229D01*
X022510Y018095D01*
X022443Y018029D01*
X022666Y018229D02*
X022800Y018095D01*
X022800Y017895D01*
X022800Y018095D02*
X022933Y018229D01*
X022933Y018295D01*
X022666Y018295D02*
X022666Y018229D01*
X022086Y018295D02*
X021819Y018295D01*
X021819Y017895D01*
X022086Y017895D01*
X021953Y018095D02*
X021819Y018095D01*
X021662Y018295D02*
X021396Y018295D01*
X021529Y018295D02*
X021529Y017895D01*
X021105Y017895D02*
X021105Y018295D01*
X020972Y018295D02*
X021239Y018295D01*
X020815Y018162D02*
X020815Y017895D01*
X020815Y018095D02*
X020548Y018095D01*
X020548Y018162D02*
X020682Y018295D01*
X020815Y018162D01*
X020548Y018162D02*
X020548Y017895D01*
X020392Y017962D02*
X020392Y018029D01*
X020325Y018095D01*
X020125Y018095D01*
X020125Y017895D02*
X020325Y017895D01*
X020392Y017962D01*
X020325Y018095D02*
X020392Y018162D01*
X020392Y018229D01*
X020325Y018295D01*
X020125Y018295D01*
X020125Y017895D01*
X020125Y017460D02*
X020125Y017194D01*
X020125Y017394D02*
X020392Y017394D01*
X020548Y017394D02*
X020682Y017394D01*
D11*
X033631Y000927D02*
X001677Y000927D01*
X001623Y000929D01*
X001570Y000935D01*
X001518Y000944D01*
X001466Y000957D01*
X001415Y000974D01*
X001365Y000995D01*
X001318Y001019D01*
X001272Y001046D01*
X001228Y001077D01*
X001186Y001110D01*
X001147Y001147D01*
X001110Y001186D01*
X001077Y001228D01*
X001046Y001272D01*
X001019Y001318D01*
X000995Y001365D01*
X000974Y001415D01*
X000957Y001466D01*
X000944Y001518D01*
X000935Y001570D01*
X000929Y001623D01*
X000927Y001677D01*
X000927Y017896D01*
X000929Y017949D01*
X000935Y018003D01*
X000944Y018055D01*
X000958Y018107D01*
X000975Y018158D01*
X000995Y018207D01*
X001019Y018255D01*
X001046Y018301D01*
X001077Y018345D01*
X001111Y018386D01*
X001147Y018425D01*
X001186Y018462D01*
X001228Y018495D01*
X001272Y018526D01*
X001318Y018553D01*
X001366Y018577D01*
X001415Y018597D01*
X001466Y018614D01*
X001518Y018627D01*
X001570Y018637D01*
X001624Y018642D01*
X001677Y018644D01*
X033631Y018644D01*
X033684Y018643D01*
X033738Y018637D01*
X033791Y018628D01*
X033843Y018615D01*
X033895Y018599D01*
X033945Y018578D01*
X033993Y018555D01*
X034040Y018528D01*
X034084Y018497D01*
X034126Y018464D01*
X034166Y018427D01*
X034203Y018388D01*
X034237Y018347D01*
X034269Y018303D01*
X034297Y018257D01*
X034321Y018209D01*
X034342Y018159D01*
X034360Y018108D01*
X034373Y018056D01*
X034383Y018003D01*
X034390Y017949D01*
X034392Y017895D01*
X034392Y017896D02*
X034392Y001677D01*
X034390Y001624D01*
X034384Y001570D01*
X034374Y001517D01*
X034360Y001465D01*
X034342Y001414D01*
X034321Y001364D01*
X034297Y001316D01*
X034269Y001270D01*
X034238Y001226D01*
X034204Y001184D01*
X034167Y001145D01*
X034127Y001108D01*
X034085Y001075D01*
X034040Y001044D01*
X033993Y001017D01*
X033945Y000993D01*
X033895Y000973D01*
X033844Y000956D01*
X033791Y000943D01*
X033738Y000934D01*
X033684Y000929D01*
X033630Y000927D01*
X031642Y002305D02*
X003677Y002305D01*
X003648Y002305D01*
X003620Y002309D01*
X003593Y002316D01*
X003566Y002326D01*
X003541Y002339D01*
X003517Y002355D01*
X003496Y002374D01*
X003477Y002396D01*
X003461Y002419D01*
X003448Y002444D01*
X003438Y002471D01*
X003431Y002499D01*
X003427Y002527D01*
X003427Y003683D01*
X004960Y003683D01*
X004960Y003277D01*
X004958Y003252D01*
X004960Y003227D01*
X004965Y003202D01*
X004974Y003178D01*
X004986Y003156D01*
X005001Y003136D01*
X005019Y003118D01*
X005039Y003103D01*
X005062Y003091D01*
X005085Y003082D01*
X005110Y003077D01*
X014511Y003077D01*
X014512Y003078D02*
X014517Y003039D01*
X014526Y003001D01*
X014539Y002964D01*
X014555Y002929D01*
X014575Y002895D01*
X014598Y002863D01*
X014624Y002834D01*
X014653Y002808D01*
X014684Y002785D01*
X014718Y002764D01*
X014753Y002748D01*
X014790Y002734D01*
X014827Y002725D01*
X014866Y002719D01*
X014905Y002717D01*
X014944Y002719D01*
X014983Y002725D01*
X015020Y002734D01*
X015057Y002748D01*
X015092Y002764D01*
X015126Y002785D01*
X015157Y002808D01*
X015186Y002834D01*
X015212Y002863D01*
X015235Y002895D01*
X015255Y002929D01*
X015271Y002964D01*
X015284Y003001D01*
X015293Y003039D01*
X015298Y003078D01*
X015298Y003077D02*
X018141Y003077D01*
X018142Y003078D02*
X018147Y003039D01*
X018156Y003001D01*
X018169Y002964D01*
X018185Y002929D01*
X018205Y002895D01*
X018228Y002863D01*
X018254Y002834D01*
X018283Y002808D01*
X018314Y002785D01*
X018348Y002764D01*
X018383Y002748D01*
X018420Y002734D01*
X018457Y002725D01*
X018496Y002719D01*
X018535Y002717D01*
X018574Y002719D01*
X018613Y002725D01*
X018650Y002734D01*
X018687Y002748D01*
X018722Y002764D01*
X018756Y002785D01*
X018787Y002808D01*
X018816Y002834D01*
X018842Y002863D01*
X018865Y002895D01*
X018885Y002929D01*
X018901Y002964D01*
X018914Y003001D01*
X018923Y003039D01*
X018928Y003078D01*
X018928Y003077D02*
X025310Y003077D01*
X025349Y003079D01*
X025388Y003085D01*
X025426Y003094D01*
X025463Y003107D01*
X025499Y003124D01*
X025532Y003144D01*
X025564Y003168D01*
X025593Y003194D01*
X025619Y003223D01*
X025643Y003255D01*
X025663Y003288D01*
X025680Y003324D01*
X025693Y003361D01*
X025702Y003399D01*
X025708Y003438D01*
X025710Y003477D01*
X025710Y004570D01*
X031892Y004570D01*
X031892Y002555D01*
X031890Y002525D01*
X031885Y002495D01*
X031876Y002466D01*
X031863Y002439D01*
X031848Y002413D01*
X031829Y002389D01*
X031808Y002368D01*
X031784Y002349D01*
X031758Y002334D01*
X031731Y002321D01*
X031702Y002312D01*
X031672Y002307D01*
X031642Y002305D01*
X025265Y005061D02*
X025213Y005009D01*
X025058Y005009D01*
X025058Y005319D01*
X025213Y005319D01*
X025265Y005268D01*
X025265Y005216D01*
X025213Y005164D01*
X025058Y005164D01*
X024934Y005112D02*
X024934Y005061D01*
X024882Y005009D01*
X024779Y005009D01*
X024727Y005061D01*
X024779Y005164D02*
X024882Y005164D01*
X024934Y005112D01*
X024934Y005268D02*
X024882Y005319D01*
X024779Y005319D01*
X024727Y005268D01*
X024727Y005216D01*
X024779Y005164D01*
X024602Y005061D02*
X024602Y005319D01*
X024395Y005319D02*
X024395Y005061D01*
X024447Y005009D01*
X024551Y005009D01*
X024602Y005061D01*
X024271Y005112D02*
X024271Y005319D01*
X024271Y005112D02*
X024167Y005009D01*
X024064Y005112D01*
X024064Y005319D01*
X024167Y005796D02*
X024271Y005900D01*
X024271Y006107D01*
X024395Y006055D02*
X024395Y005848D01*
X024447Y005796D01*
X024551Y005796D01*
X024602Y005848D01*
X024602Y006055D01*
X024551Y006107D01*
X024447Y006107D01*
X024395Y006055D01*
X024064Y006107D02*
X024064Y005900D01*
X024167Y005796D01*
X024727Y005848D02*
X024727Y006107D01*
X024934Y006107D02*
X024934Y005848D01*
X024882Y005796D01*
X024779Y005796D01*
X024727Y005848D01*
X025162Y005796D02*
X025162Y006107D01*
X025265Y006107D02*
X025058Y006107D01*
X025710Y006158D02*
X031892Y006158D01*
X031892Y007910D01*
X031223Y007910D01*
X031223Y007909D02*
X031200Y007910D01*
X031177Y007907D01*
X031154Y007901D01*
X031133Y007891D01*
X031113Y007879D01*
X031095Y007864D01*
X031080Y007847D01*
X031067Y007827D01*
X031057Y007806D01*
X031050Y007784D01*
X031047Y007761D01*
X031046Y007761D02*
X031046Y007147D01*
X031044Y007114D01*
X031039Y007080D01*
X031029Y007048D01*
X031016Y007017D01*
X031000Y006988D01*
X030981Y006961D01*
X030958Y006936D01*
X030933Y006913D01*
X030906Y006894D01*
X030877Y006878D01*
X030846Y006865D01*
X030814Y006855D01*
X030780Y006850D01*
X030747Y006848D01*
X030714Y006850D01*
X030680Y006855D01*
X030648Y006865D01*
X030617Y006878D01*
X030588Y006894D01*
X030561Y006913D01*
X030536Y006936D01*
X030513Y006961D01*
X030494Y006988D01*
X030478Y007017D01*
X030465Y007048D01*
X030455Y007080D01*
X030450Y007114D01*
X030448Y007147D01*
X030447Y007147D02*
X030447Y007260D01*
X030445Y007286D01*
X030440Y007311D01*
X030431Y007335D01*
X030418Y007357D01*
X030403Y007378D01*
X030385Y007396D01*
X030364Y007411D01*
X030342Y007424D01*
X030318Y007433D01*
X030293Y007438D01*
X030267Y007440D01*
X030071Y007440D01*
X029517Y007963D02*
X029517Y008042D01*
X029596Y008042D01*
X029517Y008042D02*
X029517Y008121D01*
X029576Y008323D02*
X029576Y008402D01*
X029497Y008402D01*
X029576Y008402D02*
X029576Y008481D01*
X029019Y009222D02*
X028969Y009184D01*
X028921Y009143D01*
X028876Y009099D01*
X028834Y009053D01*
X028794Y009004D01*
X028758Y008952D01*
X028725Y008899D01*
X028695Y008844D01*
X028668Y008787D01*
X028645Y008728D01*
X028626Y008668D01*
X028610Y008607D01*
X028598Y008546D01*
X028589Y008483D01*
X028585Y008420D01*
X028584Y008358D01*
X028587Y008295D01*
X028594Y008232D01*
X028605Y008170D01*
X028619Y008109D01*
X028637Y008049D01*
X028659Y007990D01*
X028684Y007932D01*
X028713Y007876D01*
X028745Y007822D01*
X028780Y007770D01*
X028818Y007720D01*
X028859Y007672D01*
X028904Y007627D01*
X028950Y007585D01*
X028999Y007546D01*
X029051Y007510D01*
X029104Y007477D01*
X029160Y007447D01*
X029217Y007421D01*
X029275Y007398D01*
X029335Y007379D01*
X029396Y007363D01*
X029458Y007351D01*
X029520Y007343D01*
X029583Y007339D01*
X029646Y007338D01*
X029709Y007342D01*
X029771Y007349D01*
X029833Y007360D01*
X029895Y007374D01*
X029955Y007392D01*
X030014Y007414D01*
X030071Y007440D01*
X029576Y008683D02*
X029576Y008762D01*
X029497Y008762D01*
X029576Y008762D02*
X029576Y008841D01*
X029019Y009222D02*
X030896Y009222D01*
X030919Y009218D01*
X030941Y009212D01*
X030962Y009203D01*
X030981Y009190D01*
X030999Y009175D01*
X031014Y009158D01*
X031026Y009139D01*
X031036Y009118D01*
X031042Y009096D01*
X031046Y009073D01*
X031046Y009050D01*
X031046Y008988D01*
X031047Y008987D02*
X031046Y008964D01*
X031049Y008941D01*
X031055Y008919D01*
X031064Y008898D01*
X031076Y008878D01*
X031090Y008860D01*
X031107Y008844D01*
X031126Y008831D01*
X031147Y008821D01*
X031169Y008814D01*
X031192Y008810D01*
X031892Y008810D01*
X031892Y012220D01*
X030538Y012220D01*
X030538Y010564D01*
X030536Y010525D01*
X030530Y010486D01*
X030521Y010448D01*
X030508Y010411D01*
X030491Y010375D01*
X030471Y010342D01*
X030447Y010310D01*
X030421Y010281D01*
X030392Y010255D01*
X030360Y010231D01*
X030327Y010211D01*
X030291Y010194D01*
X030254Y010181D01*
X030216Y010172D01*
X030177Y010166D01*
X030138Y010164D01*
X005394Y010164D01*
X005355Y010166D01*
X005316Y010172D01*
X005278Y010181D01*
X005241Y010194D01*
X005205Y010211D01*
X005172Y010231D01*
X005140Y010255D01*
X005111Y010281D01*
X005085Y010310D01*
X005061Y010342D01*
X005041Y010375D01*
X005024Y010411D01*
X005011Y010448D01*
X005002Y010486D01*
X004996Y010525D01*
X004994Y010564D01*
X004994Y011245D01*
X003427Y011245D01*
X003427Y004671D01*
X004960Y004671D01*
X004960Y005127D01*
X005707Y005447D02*
X005927Y005447D01*
X006147Y005257D01*
X006157Y005897D01*
X005927Y005707D01*
X005707Y005707D01*
X005707Y005457D01*
X005645Y004579D02*
X005696Y004527D01*
X005696Y004424D01*
X005645Y004372D01*
X005489Y004372D01*
X005489Y004268D02*
X005489Y004579D01*
X005645Y004579D01*
X005821Y004424D02*
X006028Y004424D01*
X005924Y004527D02*
X005924Y004320D01*
X005365Y004320D02*
X005313Y004268D01*
X005210Y004268D01*
X005158Y004320D01*
X005210Y004424D02*
X005313Y004424D01*
X005365Y004372D01*
X005365Y004320D01*
X005210Y004424D02*
X005158Y004475D01*
X005158Y004527D01*
X005210Y004579D01*
X005313Y004579D01*
X005365Y004527D01*
X005313Y004087D02*
X005210Y004087D01*
X005158Y004035D01*
X005158Y003983D01*
X005210Y003931D01*
X005313Y003931D01*
X005365Y003880D01*
X005365Y003828D01*
X005313Y003776D01*
X005210Y003776D01*
X005158Y003828D01*
X005365Y004035D02*
X005313Y004087D01*
X005489Y004087D02*
X005645Y004087D01*
X005696Y004035D01*
X005696Y003931D01*
X005645Y003880D01*
X005489Y003880D01*
X005489Y003776D02*
X005489Y004087D01*
X005821Y003931D02*
X006028Y003931D01*
X008725Y004747D02*
X008725Y002910D01*
X012347Y002910D01*
X012347Y004471D01*
X012347Y005522D02*
X012347Y007753D01*
X008725Y007753D01*
X008725Y007505D01*
X008725Y006583D02*
X008725Y005797D01*
X006560Y008677D02*
X006562Y008716D01*
X006568Y008755D01*
X006577Y008793D01*
X006590Y008830D01*
X006607Y008866D01*
X006627Y008899D01*
X006651Y008931D01*
X006677Y008960D01*
X006706Y008986D01*
X006738Y009010D01*
X006771Y009030D01*
X006807Y009047D01*
X006844Y009060D01*
X006882Y009069D01*
X006921Y009075D01*
X006960Y009077D01*
X025310Y009077D01*
X025349Y009075D01*
X025388Y009069D01*
X025426Y009060D01*
X025463Y009047D01*
X025499Y009030D01*
X025532Y009010D01*
X025564Y008986D01*
X025593Y008960D01*
X025619Y008931D01*
X025643Y008899D01*
X025663Y008866D01*
X025680Y008830D01*
X025693Y008793D01*
X025702Y008755D01*
X025708Y008716D01*
X025710Y008677D01*
X025710Y006158D01*
X025213Y005164D02*
X025265Y005112D01*
X025265Y005061D01*
X024882Y004532D02*
X024727Y004532D01*
X024727Y004222D01*
X024882Y004222D01*
X024934Y004273D01*
X024934Y004480D01*
X024882Y004532D01*
X024602Y004532D02*
X024602Y004222D01*
X024395Y004532D01*
X024395Y004222D01*
X024271Y004273D02*
X024271Y004377D01*
X024167Y004377D01*
X024064Y004480D02*
X024064Y004273D01*
X024116Y004222D01*
X024219Y004222D01*
X024271Y004273D01*
X024271Y004480D02*
X024219Y004532D01*
X024116Y004532D01*
X024064Y004480D01*
X022847Y007398D02*
X022889Y007429D01*
X022920Y007491D01*
X022919Y008029D01*
X022904Y008042D01*
X022905Y007601D01*
X022881Y007605D01*
X022831Y007611D01*
X022784Y007613D01*
X022720Y007595D01*
X022675Y007567D01*
X022652Y007544D01*
X022635Y007519D01*
X022629Y007511D01*
X022628Y007437D01*
X022644Y007408D01*
X022667Y007390D01*
X022697Y007379D01*
X022747Y007379D01*
X022748Y007379D02*
X022800Y007379D01*
X022847Y007398D01*
X022859Y007453D02*
X022778Y007404D01*
X022746Y007417D02*
X022800Y007447D01*
X022863Y007522D01*
X022841Y007549D01*
X022750Y007542D01*
X022693Y007496D01*
X022708Y007454D01*
X022736Y007452D01*
X022775Y007478D01*
X022828Y007522D01*
X022764Y007510D01*
X022733Y007481D01*
X022746Y007417D02*
X022697Y007416D01*
X022668Y007451D01*
X022667Y007507D01*
X022716Y007563D01*
X022784Y007576D01*
X022884Y007568D01*
X022886Y007506D01*
X022859Y007453D01*
X022748Y007379D02*
X022735Y007392D01*
X023141Y007565D02*
X023156Y007532D01*
X023179Y007510D01*
X023208Y007493D01*
X023254Y007481D01*
X023256Y007481D02*
X023286Y007484D01*
X023342Y007496D01*
X023389Y007525D01*
X023419Y007553D01*
X023437Y007590D01*
X023449Y007625D01*
X023449Y008195D01*
X023423Y008048D01*
X023424Y007726D01*
X023409Y007709D01*
X023341Y007723D01*
X023311Y007727D01*
X023269Y007719D01*
X023236Y007708D01*
X023187Y007674D01*
X023159Y007645D01*
X023141Y007611D01*
X023141Y007565D01*
X023179Y007591D02*
X023191Y007547D01*
X023259Y007521D01*
X023298Y007526D01*
X023351Y007568D01*
X023382Y007604D01*
X023393Y007643D01*
X023304Y007647D01*
X023250Y007627D01*
X023221Y007584D01*
X023249Y007566D01*
X023293Y007561D01*
X023344Y007600D01*
X023353Y007624D01*
X023270Y007603D01*
X023252Y007575D01*
X023179Y007591D02*
X023217Y007647D01*
X023263Y007682D01*
X023330Y007681D01*
X023418Y007671D01*
X023418Y007637D01*
X023402Y007571D01*
X023319Y007522D01*
X022922Y007910D02*
X022954Y007991D01*
X023385Y008121D01*
X023415Y008244D01*
X023128Y008163D01*
X022953Y008104D01*
X022954Y008036D01*
X023360Y008145D01*
X023374Y008200D01*
X022973Y008079D01*
X022924Y008120D02*
X022949Y008143D01*
X023399Y008285D01*
X023427Y008279D01*
X023443Y008263D01*
X023448Y008224D01*
X023449Y008202D01*
X023403Y008069D01*
X023382Y008081D01*
X023380Y008079D02*
X023356Y008078D01*
X022954Y007944D01*
X022922Y007910D01*
X022912Y008041D02*
X022904Y008050D01*
X022904Y008091D01*
X022924Y008120D01*
X020684Y010766D02*
X020684Y010844D01*
X020605Y010844D01*
X020684Y010844D02*
X020762Y010844D01*
X020362Y010844D02*
X020284Y010844D01*
X020284Y010766D01*
X020284Y010844D02*
X020205Y010844D01*
X017089Y012085D02*
X016842Y012085D01*
X017089Y012085D02*
X017089Y013837D01*
X016842Y013837D01*
X015742Y013837D02*
X015495Y013837D01*
X015495Y012085D01*
X015742Y012085D01*
X012486Y011802D02*
X011423Y011802D01*
X011423Y011153D02*
X012486Y011153D01*
X009267Y012917D02*
X009247Y012897D01*
X009207Y012897D01*
X009167Y012857D01*
X009117Y012857D01*
X009077Y012887D01*
X009067Y012897D01*
X009017Y012897D01*
X009017Y013007D01*
X009267Y013007D01*
X009267Y012917D01*
X009257Y013117D02*
X009017Y013117D01*
X008987Y013207D01*
X008947Y013277D01*
X008877Y013417D01*
X008857Y013477D01*
X008857Y013527D01*
X008877Y013597D01*
X008877Y013607D02*
X008907Y013667D01*
X008957Y013717D01*
X009027Y013757D01*
X009087Y013777D01*
X009187Y013777D01*
X009257Y013757D01*
X009297Y013727D01*
X009337Y013687D01*
X009377Y013637D01*
X009397Y013577D01*
X009407Y013527D01*
X009407Y013487D01*
X009397Y013417D01*
X009367Y013357D01*
X009287Y013217D01*
X009267Y013147D01*
X009257Y013117D01*
X008997Y013367D02*
X009007Y013457D01*
X009027Y013517D01*
X009057Y013567D01*
X009117Y013617D01*
X009167Y013647D01*
X009257Y013647D01*
X009247Y013687D01*
X009217Y013717D01*
X009157Y013727D01*
X009127Y013727D01*
X009077Y013717D01*
X009027Y013697D01*
X008987Y013667D01*
X008957Y013637D01*
X008927Y013587D01*
X008917Y013527D01*
X008917Y013477D01*
X008957Y013377D01*
X008977Y013387D01*
X008967Y013357D01*
X008010Y013714D02*
X008010Y015664D01*
X008012Y015703D01*
X008018Y015742D01*
X008027Y015780D01*
X008040Y015817D01*
X008057Y015853D01*
X008077Y015886D01*
X008101Y015918D01*
X008127Y015947D01*
X008156Y015973D01*
X008188Y015997D01*
X008221Y016017D01*
X008257Y016034D01*
X008294Y016047D01*
X008332Y016056D01*
X008371Y016062D01*
X008410Y016064D01*
X030388Y016064D01*
X030386Y016057D02*
X030386Y014364D01*
X030227Y014364D01*
X030538Y014008D02*
X031892Y014008D01*
X031892Y016586D01*
X031890Y016616D01*
X031885Y016646D01*
X031876Y016675D01*
X031863Y016702D01*
X031848Y016728D01*
X031829Y016752D01*
X031808Y016773D01*
X031784Y016792D01*
X031758Y016807D01*
X031731Y016820D01*
X031702Y016829D01*
X031672Y016834D01*
X031642Y016836D01*
X003677Y016836D01*
X003647Y016834D01*
X003617Y016829D01*
X003588Y016820D01*
X003561Y016807D01*
X003535Y016792D01*
X003511Y016773D01*
X003490Y016752D01*
X003471Y016728D01*
X003456Y016702D01*
X003443Y016675D01*
X003434Y016646D01*
X003429Y016616D01*
X003427Y016586D01*
X003427Y012233D01*
X004994Y012233D01*
X004994Y012914D01*
X004996Y012953D01*
X005002Y012992D01*
X005011Y013030D01*
X005024Y013067D01*
X005041Y013103D01*
X005061Y013136D01*
X005085Y013168D01*
X005111Y013197D01*
X005140Y013223D01*
X005172Y013247D01*
X005205Y013267D01*
X005241Y013284D01*
X005278Y013297D01*
X005316Y013306D01*
X005355Y013312D01*
X005394Y013314D01*
X007610Y013314D01*
X007649Y013316D01*
X007688Y013322D01*
X007726Y013331D01*
X007763Y013344D01*
X007799Y013361D01*
X007832Y013381D01*
X007864Y013405D01*
X007893Y013431D01*
X007919Y013460D01*
X007943Y013492D01*
X007963Y013525D01*
X007980Y013561D01*
X007993Y013598D01*
X008002Y013636D01*
X008008Y013675D01*
X008010Y013714D01*
X007024Y012876D02*
X006711Y013010D01*
X006835Y012997D01*
X006593Y013146D01*
X006723Y013027D01*
X006593Y013101D01*
X006658Y013036D01*
X006581Y013055D01*
X006615Y013015D01*
X006576Y013006D01*
X006591Y012983D01*
X006533Y012978D01*
X006588Y012967D01*
X006585Y012869D01*
X006174Y013076D01*
X006159Y013183D01*
X006512Y012967D01*
X006552Y012921D01*
X006188Y013116D01*
X006133Y013073D02*
X006141Y013246D01*
X006515Y013010D01*
X006546Y013022D01*
X006558Y013057D01*
X006569Y013213D01*
X007024Y012876D01*
X006676Y013009D02*
X006632Y013006D01*
X006620Y012995D01*
X006607Y012820D01*
X006119Y013068D01*
X002415Y012592D02*
X001945Y012592D01*
X001930Y012572D02*
X001885Y012487D01*
X001885Y012422D01*
X001905Y012372D01*
X001930Y012332D01*
X001955Y012307D02*
X002415Y012307D01*
X002405Y012267D02*
X001955Y012262D01*
X001940Y012247D02*
X001890Y012182D01*
X001880Y012122D01*
X001890Y012062D01*
X001920Y011997D01*
X001930Y011987D02*
X002410Y011982D01*
X002410Y011942D02*
X002010Y011947D01*
X001930Y011987D01*
X001940Y012037D02*
X001920Y012082D01*
X001915Y012152D01*
X001930Y012192D01*
X001980Y012242D01*
X001980Y012322D02*
X001935Y012377D01*
X001910Y012427D01*
X001920Y012497D01*
X001950Y012547D01*
X001995Y012572D01*
X001930Y012572D01*
X001975Y012617D02*
X002405Y012632D01*
X001980Y012007D02*
X001940Y012037D01*
X002055Y011767D02*
X001955Y011702D01*
X001895Y011592D01*
X001885Y011457D01*
X001880Y011557D01*
X001895Y011412D01*
X001955Y011322D01*
X002050Y011267D01*
X002115Y011247D01*
X002225Y011252D01*
X002340Y011317D01*
X002390Y011392D01*
X002415Y011492D01*
X002385Y011532D01*
X002370Y011437D01*
X002320Y011352D01*
X002240Y011302D01*
X002155Y011287D01*
X002050Y011307D01*
X001970Y011357D01*
X001915Y011462D01*
X001920Y011552D01*
X001955Y011652D01*
X002005Y011702D01*
X002100Y011742D01*
X002205Y011732D01*
X002270Y011707D01*
X002330Y011657D01*
X002390Y011557D01*
X002370Y011552D01*
X002400Y011602D02*
X002360Y011682D01*
X002285Y011747D01*
X002180Y011782D01*
X002055Y011767D01*
X002400Y011602D02*
X002420Y011517D01*
X002370Y011127D02*
X002370Y011047D01*
X002350Y010957D01*
X002275Y010867D01*
X002175Y010837D01*
X002070Y010852D01*
X001980Y010902D01*
X001930Y011012D01*
X001925Y011117D01*
X001890Y011117D01*
X001905Y010982D01*
X001965Y010862D01*
X002085Y010802D01*
X002205Y010797D01*
X002290Y010837D01*
X002350Y010897D01*
X002395Y010987D01*
X002405Y011122D01*
X002380Y010577D02*
X002340Y010552D01*
X002350Y010512D01*
X002380Y010507D01*
X002400Y010517D01*
X002370Y010532D01*
X002415Y010542D02*
X002380Y010577D01*
X002410Y010292D02*
X002060Y010287D01*
X002010Y010262D01*
X001940Y010212D01*
X001890Y010112D01*
X001885Y009972D01*
X001930Y009867D01*
X002010Y009797D01*
X002125Y009762D01*
X002255Y009782D01*
X002355Y009852D01*
X002405Y009927D01*
X002415Y010072D01*
X002380Y010142D01*
X002340Y010147D01*
X002380Y010067D01*
X002375Y009987D01*
X002360Y009917D01*
X002295Y009847D01*
X002210Y009802D01*
X002095Y009812D01*
X002010Y009842D01*
X001955Y009892D01*
X001920Y009962D01*
X001915Y010052D01*
X001935Y010142D01*
X001990Y010212D01*
X002085Y010257D01*
X002410Y010252D01*
X002300Y009637D02*
X002245Y009637D01*
X002190Y009597D01*
X002085Y009317D01*
X002045Y009282D01*
X001975Y009282D01*
X001940Y009312D01*
X001930Y009342D01*
X001930Y009612D01*
X001895Y009612D01*
X001900Y009332D01*
X001930Y009267D01*
X001970Y009237D01*
X002055Y009242D01*
X002105Y009287D01*
X002175Y009462D01*
X002185Y009472D02*
X002205Y009557D01*
X002255Y009597D01*
X002335Y009592D01*
X002365Y009537D01*
X002370Y009232D01*
X002410Y009227D02*
X002400Y009537D01*
X002365Y009612D01*
X002300Y009637D01*
X002160Y009542D02*
X002130Y009497D01*
X002205Y009092D02*
X002300Y009062D01*
X002380Y008972D01*
X002410Y008887D01*
X002405Y008767D01*
X002365Y008667D01*
X002260Y008587D01*
X002160Y008562D01*
X002045Y008582D01*
X001945Y008647D01*
X001890Y008762D01*
X001890Y008912D01*
X001925Y008977D01*
X001985Y009047D01*
X002015Y009067D01*
X002200Y008732D01*
X002175Y008717D01*
X002010Y009012D01*
X001925Y008927D01*
X001920Y008812D01*
X001930Y008747D01*
X001970Y008677D01*
X002040Y008627D01*
X002120Y008607D01*
X002225Y008612D01*
X002330Y008677D01*
X002380Y008777D01*
X002375Y008907D01*
X002330Y008982D01*
X002260Y009037D01*
X002200Y009052D01*
X002375Y008447D02*
X002365Y008292D01*
X002340Y008262D01*
X002280Y008237D01*
X001745Y008232D01*
X001745Y008197D01*
X002280Y008202D01*
X002360Y008227D01*
X002395Y008282D01*
X002410Y008442D01*
X001930Y008442D02*
X001925Y008242D01*
X001900Y008257D02*
X001895Y008447D01*
X001930Y008442D01*
X001620Y007972D02*
X002410Y007972D01*
X002410Y007932D02*
X001625Y007937D01*
X001620Y007972D01*
X001740Y007687D02*
X001705Y007672D01*
X001710Y007632D01*
X001735Y007632D01*
X001760Y007647D02*
X001740Y007687D01*
X001885Y007677D02*
X001885Y007657D01*
X001885Y007677D02*
X002410Y007677D01*
X002410Y007642D01*
X001890Y007632D01*
X001990Y007367D02*
X002065Y007402D01*
X002490Y007397D01*
X002520Y007387D02*
X002510Y007352D01*
X002580Y007317D01*
X002620Y007257D01*
X002630Y007302D02*
X002640Y007202D01*
X002645Y007072D01*
X002630Y006992D01*
X002665Y006982D02*
X002675Y007217D01*
X002630Y007302D01*
X002625Y007317D02*
X002520Y007387D01*
X002500Y007352D02*
X002465Y007362D01*
X001990Y007367D01*
X001975Y007342D02*
X001930Y007297D01*
X001895Y007237D01*
X001880Y007142D01*
X001900Y007062D01*
X001950Y006977D01*
X002040Y006907D01*
X002175Y006887D01*
X002285Y006922D01*
X002345Y006967D01*
X002390Y007037D01*
X002415Y007162D01*
X002390Y007257D01*
X002350Y007262D01*
X002375Y007212D01*
X002380Y007142D01*
X002370Y007072D01*
X002325Y006992D01*
X002265Y006942D01*
X002165Y006927D01*
X002095Y006927D01*
X002020Y006962D01*
X001950Y007022D01*
X001925Y007082D01*
X001915Y007187D01*
X001950Y007267D01*
X002015Y007332D01*
X002080Y007352D01*
X004960Y005127D02*
X005141Y005321D01*
X005312Y005523D01*
X005473Y005733D01*
X005625Y005950D01*
X005767Y006174D01*
X005897Y006404D01*
X006017Y006641D01*
X006126Y006882D01*
X006224Y007129D01*
X006310Y007379D01*
X006384Y007633D01*
X006446Y007891D01*
X006496Y008151D01*
X006534Y008413D01*
X006560Y008677D01*
X013402Y014837D02*
X013402Y015437D01*
X013404Y015453D01*
X013409Y015467D01*
X013417Y015481D01*
X013428Y015492D01*
X013442Y015500D01*
X013456Y015505D01*
X013472Y015507D01*
X014442Y015507D01*
X014455Y015505D01*
X014468Y015501D01*
X014479Y015494D01*
X014489Y015484D01*
X014496Y015473D01*
X014500Y015460D01*
X014502Y015447D01*
X014502Y014837D01*
X014500Y014821D01*
X014495Y014807D01*
X014487Y014793D01*
X014476Y014782D01*
X014462Y014774D01*
X014448Y014769D01*
X014432Y014767D01*
X013562Y014767D01*
X013561Y014762D01*
X013557Y014758D01*
X013552Y014757D01*
X013482Y014757D01*
X013466Y014759D01*
X013451Y014763D01*
X013438Y014770D01*
X013425Y014780D01*
X013415Y014793D01*
X013408Y014806D01*
X013404Y014821D01*
X013402Y014837D01*
X013572Y015607D02*
X013792Y015607D01*
X013792Y015687D01*
X013572Y015687D01*
X013572Y015637D01*
X013752Y015647D01*
X014112Y015657D02*
X014282Y015657D01*
X014312Y015687D02*
X014312Y015607D01*
X014112Y015607D01*
X014112Y015657D01*
X014112Y015687D02*
X014312Y015687D01*
X023682Y012152D02*
X024745Y012152D01*
X024710Y012914D02*
X024710Y013161D01*
X024710Y012914D02*
X026462Y012914D01*
X026462Y013161D01*
X026462Y014262D02*
X026462Y014509D01*
X024710Y014509D01*
X024710Y014262D01*
X027827Y014364D02*
X027986Y014364D01*
X027827Y014364D02*
X027827Y016057D01*
X030386Y016057D01*
X030388Y016064D02*
X030411Y016062D01*
X030434Y016057D01*
X030456Y016048D01*
X030476Y016035D01*
X030494Y016020D01*
X030509Y016002D01*
X030522Y015982D01*
X030531Y015960D01*
X030536Y015937D01*
X030538Y015914D01*
X030538Y014008D01*
X030049Y013636D02*
X029997Y013688D01*
X029790Y013688D01*
X029738Y013636D01*
X029738Y013481D01*
X030049Y013481D01*
X030049Y013636D01*
X030049Y013356D02*
X029738Y013356D01*
X029738Y013149D02*
X030049Y013356D01*
X030049Y013149D02*
X029738Y013149D01*
X029790Y013025D02*
X029738Y012973D01*
X029738Y012870D01*
X029790Y012818D01*
X029997Y012818D01*
X030049Y012870D01*
X030049Y012973D01*
X029997Y013025D01*
X029893Y013025D01*
X029893Y012921D01*
X029261Y012870D02*
X029261Y012973D01*
X029209Y013025D01*
X028951Y013025D01*
X029003Y013149D02*
X028951Y013201D01*
X028951Y013305D01*
X029003Y013356D01*
X029106Y013305D02*
X029158Y013356D01*
X029209Y013356D01*
X029261Y013305D01*
X029261Y013201D01*
X029209Y013149D01*
X029106Y013201D02*
X029106Y013305D01*
X029106Y013201D02*
X029054Y013149D01*
X029003Y013149D01*
X028951Y013481D02*
X028951Y013636D01*
X029003Y013688D01*
X029054Y013688D01*
X029106Y013636D01*
X029106Y013481D01*
X029106Y013636D02*
X029158Y013688D01*
X029209Y013688D01*
X029261Y013636D01*
X029261Y013481D01*
X028951Y013481D01*
X028474Y013584D02*
X028163Y013584D01*
X028163Y013481D02*
X028163Y013688D01*
X028163Y013356D02*
X028422Y013356D01*
X028474Y013305D01*
X028474Y013201D01*
X028422Y013149D01*
X028163Y013149D01*
X028215Y013025D02*
X028163Y012973D01*
X028163Y012870D01*
X028215Y012818D01*
X028422Y012818D01*
X028474Y012870D01*
X028474Y012973D01*
X028422Y013025D01*
X028215Y013025D01*
X028163Y012693D02*
X028370Y012693D01*
X028474Y012590D01*
X028370Y012486D01*
X028163Y012486D01*
X028951Y012486D02*
X029158Y012486D01*
X029261Y012590D01*
X029158Y012693D01*
X028951Y012693D01*
X028951Y012818D02*
X029209Y012818D01*
X029261Y012870D01*
X024745Y011503D02*
X023682Y011503D01*
D12*
X032687Y015215D02*
X032689Y015263D01*
X032695Y015311D01*
X032705Y015358D01*
X032718Y015404D01*
X032736Y015449D01*
X032756Y015493D01*
X032781Y015535D01*
X032809Y015574D01*
X032839Y015611D01*
X032873Y015645D01*
X032910Y015677D01*
X032948Y015706D01*
X032989Y015731D01*
X033032Y015753D01*
X033077Y015771D01*
X033123Y015785D01*
X033170Y015796D01*
X033218Y015803D01*
X033266Y015806D01*
X033314Y015805D01*
X033362Y015800D01*
X033410Y015791D01*
X033456Y015779D01*
X033501Y015762D01*
X033545Y015742D01*
X033587Y015719D01*
X033627Y015692D01*
X033665Y015662D01*
X033700Y015629D01*
X033732Y015593D01*
X033762Y015555D01*
X033788Y015514D01*
X033810Y015471D01*
X033830Y015427D01*
X033845Y015382D01*
X033857Y015335D01*
X033865Y015287D01*
X033869Y015239D01*
X033869Y015191D01*
X033865Y015143D01*
X033857Y015095D01*
X033845Y015048D01*
X033830Y015003D01*
X033810Y014959D01*
X033788Y014916D01*
X033762Y014875D01*
X033732Y014837D01*
X033700Y014801D01*
X033665Y014768D01*
X033627Y014738D01*
X033587Y014711D01*
X033545Y014688D01*
X033501Y014668D01*
X033456Y014651D01*
X033410Y014639D01*
X033362Y014630D01*
X033314Y014625D01*
X033266Y014624D01*
X033218Y014627D01*
X033170Y014634D01*
X033123Y014645D01*
X033077Y014659D01*
X033032Y014677D01*
X032989Y014699D01*
X032948Y014724D01*
X032910Y014753D01*
X032873Y014785D01*
X032839Y014819D01*
X032809Y014856D01*
X032781Y014895D01*
X032756Y014937D01*
X032736Y014981D01*
X032718Y015026D01*
X032705Y015072D01*
X032695Y015119D01*
X032689Y015167D01*
X032687Y015215D01*
X017913Y004757D02*
X017915Y004782D01*
X017921Y004807D01*
X017930Y004830D01*
X017943Y004852D01*
X017959Y004871D01*
X017978Y004888D01*
X017999Y004902D01*
X018022Y004912D01*
X018047Y004919D01*
X018072Y004922D01*
X018097Y004921D01*
X018122Y004916D01*
X018145Y004908D01*
X018168Y004895D01*
X018188Y004880D01*
X018205Y004862D01*
X018220Y004841D01*
X018231Y004819D01*
X018239Y004795D01*
X018243Y004770D01*
X018243Y004744D01*
X018239Y004719D01*
X018231Y004695D01*
X018220Y004673D01*
X018205Y004652D01*
X018188Y004634D01*
X018168Y004619D01*
X018145Y004606D01*
X018122Y004598D01*
X018097Y004593D01*
X018072Y004592D01*
X018047Y004595D01*
X018022Y004602D01*
X017999Y004612D01*
X017978Y004626D01*
X017959Y004643D01*
X017943Y004662D01*
X017930Y004684D01*
X017921Y004707D01*
X017915Y004732D01*
X017913Y004757D01*
X015196Y004757D02*
X015198Y004782D01*
X015204Y004807D01*
X015213Y004830D01*
X015226Y004852D01*
X015242Y004871D01*
X015261Y004888D01*
X015282Y004902D01*
X015305Y004912D01*
X015330Y004919D01*
X015355Y004922D01*
X015380Y004921D01*
X015405Y004916D01*
X015428Y004908D01*
X015451Y004895D01*
X015471Y004880D01*
X015488Y004862D01*
X015503Y004841D01*
X015514Y004819D01*
X015522Y004795D01*
X015526Y004770D01*
X015526Y004744D01*
X015522Y004719D01*
X015514Y004695D01*
X015503Y004673D01*
X015488Y004652D01*
X015471Y004634D01*
X015451Y004619D01*
X015428Y004606D01*
X015405Y004598D01*
X015380Y004593D01*
X015355Y004592D01*
X015330Y004595D01*
X015305Y004602D01*
X015282Y004612D01*
X015261Y004626D01*
X015242Y004643D01*
X015226Y004662D01*
X015213Y004684D01*
X015204Y004707D01*
X015198Y004732D01*
X015196Y004757D01*
X013487Y005080D02*
X013489Y005120D01*
X013495Y005159D01*
X013505Y005198D01*
X013518Y005235D01*
X013536Y005271D01*
X013557Y005305D01*
X013581Y005337D01*
X013608Y005366D01*
X013638Y005393D01*
X013670Y005416D01*
X013705Y005436D01*
X013741Y005452D01*
X013779Y005465D01*
X013818Y005474D01*
X013857Y005479D01*
X013897Y005480D01*
X013937Y005477D01*
X013976Y005470D01*
X014014Y005459D01*
X014052Y005445D01*
X014087Y005426D01*
X014120Y005405D01*
X014152Y005380D01*
X014180Y005352D01*
X014206Y005322D01*
X014228Y005289D01*
X014247Y005254D01*
X014263Y005217D01*
X014275Y005179D01*
X014283Y005140D01*
X014287Y005100D01*
X014287Y005060D01*
X014283Y005020D01*
X014275Y004981D01*
X014263Y004943D01*
X014247Y004906D01*
X014228Y004871D01*
X014206Y004838D01*
X014180Y004808D01*
X014152Y004780D01*
X014120Y004755D01*
X014087Y004734D01*
X014052Y004715D01*
X014014Y004701D01*
X013976Y004690D01*
X013937Y004683D01*
X013897Y004680D01*
X013857Y004681D01*
X013818Y004686D01*
X013779Y004695D01*
X013741Y004708D01*
X013705Y004724D01*
X013670Y004744D01*
X013638Y004767D01*
X013608Y004794D01*
X013581Y004823D01*
X013557Y004855D01*
X013536Y004889D01*
X013518Y004925D01*
X013505Y004962D01*
X013495Y005001D01*
X013489Y005040D01*
X013487Y005080D01*
X011560Y004288D02*
X011562Y004318D01*
X011568Y004348D01*
X011577Y004377D01*
X011590Y004404D01*
X011607Y004429D01*
X011626Y004452D01*
X011649Y004473D01*
X011674Y004490D01*
X011700Y004504D01*
X011729Y004514D01*
X011758Y004521D01*
X011788Y004524D01*
X011819Y004523D01*
X011849Y004518D01*
X011878Y004509D01*
X011905Y004497D01*
X011931Y004482D01*
X011955Y004463D01*
X011976Y004441D01*
X011994Y004417D01*
X012009Y004390D01*
X012020Y004362D01*
X012028Y004333D01*
X012032Y004303D01*
X012032Y004273D01*
X012028Y004243D01*
X012020Y004214D01*
X012009Y004186D01*
X011994Y004159D01*
X011976Y004135D01*
X011955Y004113D01*
X011931Y004094D01*
X011905Y004079D01*
X011878Y004067D01*
X011849Y004058D01*
X011819Y004053D01*
X011788Y004052D01*
X011758Y004055D01*
X011729Y004062D01*
X011700Y004072D01*
X011674Y004086D01*
X011649Y004103D01*
X011626Y004124D01*
X011607Y004147D01*
X011590Y004172D01*
X011577Y004199D01*
X011568Y004228D01*
X011562Y004258D01*
X011560Y004288D01*
X009001Y004288D02*
X009003Y004318D01*
X009009Y004348D01*
X009018Y004377D01*
X009031Y004404D01*
X009048Y004429D01*
X009067Y004452D01*
X009090Y004473D01*
X009115Y004490D01*
X009141Y004504D01*
X009170Y004514D01*
X009199Y004521D01*
X009229Y004524D01*
X009260Y004523D01*
X009290Y004518D01*
X009319Y004509D01*
X009346Y004497D01*
X009372Y004482D01*
X009396Y004463D01*
X009417Y004441D01*
X009435Y004417D01*
X009450Y004390D01*
X009461Y004362D01*
X009469Y004333D01*
X009473Y004303D01*
X009473Y004273D01*
X009469Y004243D01*
X009461Y004214D01*
X009450Y004186D01*
X009435Y004159D01*
X009417Y004135D01*
X009396Y004113D01*
X009372Y004094D01*
X009346Y004079D01*
X009319Y004067D01*
X009290Y004058D01*
X009260Y004053D01*
X009229Y004052D01*
X009199Y004055D01*
X009170Y004062D01*
X009141Y004072D01*
X009115Y004086D01*
X009090Y004103D01*
X009067Y004124D01*
X009048Y004147D01*
X009031Y004172D01*
X009018Y004199D01*
X009009Y004228D01*
X009003Y004258D01*
X009001Y004288D01*
X007182Y005080D02*
X007184Y005120D01*
X007190Y005159D01*
X007200Y005198D01*
X007213Y005235D01*
X007231Y005271D01*
X007252Y005305D01*
X007276Y005337D01*
X007303Y005366D01*
X007333Y005393D01*
X007365Y005416D01*
X007400Y005436D01*
X007436Y005452D01*
X007474Y005465D01*
X007513Y005474D01*
X007552Y005479D01*
X007592Y005480D01*
X007632Y005477D01*
X007671Y005470D01*
X007709Y005459D01*
X007747Y005445D01*
X007782Y005426D01*
X007815Y005405D01*
X007847Y005380D01*
X007875Y005352D01*
X007901Y005322D01*
X007923Y005289D01*
X007942Y005254D01*
X007958Y005217D01*
X007970Y005179D01*
X007978Y005140D01*
X007982Y005100D01*
X007982Y005060D01*
X007978Y005020D01*
X007970Y004981D01*
X007958Y004943D01*
X007942Y004906D01*
X007923Y004871D01*
X007901Y004838D01*
X007875Y004808D01*
X007847Y004780D01*
X007815Y004755D01*
X007782Y004734D01*
X007747Y004715D01*
X007709Y004701D01*
X007671Y004690D01*
X007632Y004683D01*
X007592Y004680D01*
X007552Y004681D01*
X007513Y004686D01*
X007474Y004695D01*
X007436Y004708D01*
X007400Y004724D01*
X007365Y004744D01*
X007333Y004767D01*
X007303Y004794D01*
X007276Y004823D01*
X007252Y004855D01*
X007231Y004889D01*
X007213Y004925D01*
X007200Y004962D01*
X007190Y005001D01*
X007184Y005040D01*
X007182Y005080D01*
X001440Y002959D02*
X001442Y003007D01*
X001448Y003055D01*
X001458Y003102D01*
X001471Y003148D01*
X001489Y003193D01*
X001509Y003237D01*
X001534Y003279D01*
X001562Y003318D01*
X001592Y003355D01*
X001626Y003389D01*
X001663Y003421D01*
X001701Y003450D01*
X001742Y003475D01*
X001785Y003497D01*
X001830Y003515D01*
X001876Y003529D01*
X001923Y003540D01*
X001971Y003547D01*
X002019Y003550D01*
X002067Y003549D01*
X002115Y003544D01*
X002163Y003535D01*
X002209Y003523D01*
X002254Y003506D01*
X002298Y003486D01*
X002340Y003463D01*
X002380Y003436D01*
X002418Y003406D01*
X002453Y003373D01*
X002485Y003337D01*
X002515Y003299D01*
X002541Y003258D01*
X002563Y003215D01*
X002583Y003171D01*
X002598Y003126D01*
X002610Y003079D01*
X002618Y003031D01*
X002622Y002983D01*
X002622Y002935D01*
X002618Y002887D01*
X002610Y002839D01*
X002598Y002792D01*
X002583Y002747D01*
X002563Y002703D01*
X002541Y002660D01*
X002515Y002619D01*
X002485Y002581D01*
X002453Y002545D01*
X002418Y002512D01*
X002380Y002482D01*
X002340Y002455D01*
X002298Y002432D01*
X002254Y002412D01*
X002209Y002395D01*
X002163Y002383D01*
X002115Y002374D01*
X002067Y002369D01*
X002019Y002368D01*
X001971Y002371D01*
X001923Y002378D01*
X001876Y002389D01*
X001830Y002403D01*
X001785Y002421D01*
X001742Y002443D01*
X001701Y002468D01*
X001663Y002497D01*
X001626Y002529D01*
X001592Y002563D01*
X001562Y002600D01*
X001534Y002639D01*
X001509Y002681D01*
X001489Y002725D01*
X001471Y002770D01*
X001458Y002816D01*
X001448Y002863D01*
X001442Y002911D01*
X001440Y002959D01*
X001440Y015215D02*
X001442Y015263D01*
X001448Y015311D01*
X001458Y015358D01*
X001471Y015404D01*
X001489Y015449D01*
X001509Y015493D01*
X001534Y015535D01*
X001562Y015574D01*
X001592Y015611D01*
X001626Y015645D01*
X001663Y015677D01*
X001701Y015706D01*
X001742Y015731D01*
X001785Y015753D01*
X001830Y015771D01*
X001876Y015785D01*
X001923Y015796D01*
X001971Y015803D01*
X002019Y015806D01*
X002067Y015805D01*
X002115Y015800D01*
X002163Y015791D01*
X002209Y015779D01*
X002254Y015762D01*
X002298Y015742D01*
X002340Y015719D01*
X002380Y015692D01*
X002418Y015662D01*
X002453Y015629D01*
X002485Y015593D01*
X002515Y015555D01*
X002541Y015514D01*
X002563Y015471D01*
X002583Y015427D01*
X002598Y015382D01*
X002610Y015335D01*
X002618Y015287D01*
X002622Y015239D01*
X002622Y015191D01*
X002618Y015143D01*
X002610Y015095D01*
X002598Y015048D01*
X002583Y015003D01*
X002563Y014959D01*
X002541Y014916D01*
X002515Y014875D01*
X002485Y014837D01*
X002453Y014801D01*
X002418Y014768D01*
X002380Y014738D01*
X002340Y014711D01*
X002298Y014688D01*
X002254Y014668D01*
X002209Y014651D01*
X002163Y014639D01*
X002115Y014630D01*
X002067Y014625D01*
X002019Y014624D01*
X001971Y014627D01*
X001923Y014634D01*
X001876Y014645D01*
X001830Y014659D01*
X001785Y014677D01*
X001742Y014699D01*
X001701Y014724D01*
X001663Y014753D01*
X001626Y014785D01*
X001592Y014819D01*
X001562Y014856D01*
X001534Y014895D01*
X001509Y014937D01*
X001489Y014981D01*
X001471Y015026D01*
X001458Y015072D01*
X001448Y015119D01*
X001442Y015167D01*
X001440Y015215D01*
X032687Y002959D02*
X032689Y003007D01*
X032695Y003055D01*
X032705Y003102D01*
X032718Y003148D01*
X032736Y003193D01*
X032756Y003237D01*
X032781Y003279D01*
X032809Y003318D01*
X032839Y003355D01*
X032873Y003389D01*
X032910Y003421D01*
X032948Y003450D01*
X032989Y003475D01*
X033032Y003497D01*
X033077Y003515D01*
X033123Y003529D01*
X033170Y003540D01*
X033218Y003547D01*
X033266Y003550D01*
X033314Y003549D01*
X033362Y003544D01*
X033410Y003535D01*
X033456Y003523D01*
X033501Y003506D01*
X033545Y003486D01*
X033587Y003463D01*
X033627Y003436D01*
X033665Y003406D01*
X033700Y003373D01*
X033732Y003337D01*
X033762Y003299D01*
X033788Y003258D01*
X033810Y003215D01*
X033830Y003171D01*
X033845Y003126D01*
X033857Y003079D01*
X033865Y003031D01*
X033869Y002983D01*
X033869Y002935D01*
X033865Y002887D01*
X033857Y002839D01*
X033845Y002792D01*
X033830Y002747D01*
X033810Y002703D01*
X033788Y002660D01*
X033762Y002619D01*
X033732Y002581D01*
X033700Y002545D01*
X033665Y002512D01*
X033627Y002482D01*
X033587Y002455D01*
X033545Y002432D01*
X033501Y002412D01*
X033456Y002395D01*
X033410Y002383D01*
X033362Y002374D01*
X033314Y002369D01*
X033266Y002368D01*
X033218Y002371D01*
X033170Y002378D01*
X033123Y002389D01*
X033077Y002403D01*
X033032Y002421D01*
X032989Y002443D01*
X032948Y002468D01*
X032910Y002497D01*
X032873Y002529D01*
X032839Y002563D01*
X032809Y002600D01*
X032781Y002639D01*
X032756Y002681D01*
X032736Y002725D01*
X032718Y002770D01*
X032705Y002816D01*
X032695Y002863D01*
X032689Y002911D01*
X032687Y002959D01*
D13*
X029941Y007523D02*
X029152Y007523D01*
X029152Y007841D01*
X029941Y007841D01*
X029941Y007523D01*
X024929Y007546D02*
X024649Y007546D01*
X024649Y007686D01*
X024696Y007733D01*
X024789Y007733D01*
X024836Y007686D01*
X024836Y007546D01*
X024836Y007640D02*
X024929Y007733D01*
X024883Y007841D02*
X024696Y007841D01*
X024649Y007887D01*
X024649Y007981D01*
X024696Y008028D01*
X024789Y008028D02*
X024789Y007934D01*
X024789Y008028D02*
X024883Y008028D01*
X024929Y007981D01*
X024929Y007887D01*
X024883Y007841D01*
X024929Y008135D02*
X024649Y008135D01*
X024789Y008135D02*
X024789Y008322D01*
X024649Y008322D02*
X024929Y008322D01*
X024929Y008523D02*
X024649Y008523D01*
X024649Y008430D02*
X024649Y008617D01*
X024437Y008523D02*
X024157Y008523D01*
X024157Y008430D02*
X024157Y008617D01*
X024157Y008322D02*
X024157Y008135D01*
X024437Y008135D01*
X024437Y008028D02*
X024437Y007841D01*
X024157Y007841D01*
X024157Y008028D01*
X024297Y007934D02*
X024297Y007841D01*
X024437Y007733D02*
X024437Y007546D01*
X024157Y007546D01*
X024297Y008135D02*
X024297Y008229D01*
X024241Y010318D02*
X024241Y010635D01*
X025030Y010635D01*
X025030Y010318D01*
X024241Y010318D01*
X024241Y010729D02*
X024241Y011047D01*
X025030Y011047D01*
X025030Y010729D01*
X024241Y010729D01*
X021242Y010420D02*
X020925Y010420D01*
X020925Y011209D01*
X021242Y011209D01*
X021242Y010420D01*
X020042Y010420D02*
X020042Y011209D01*
X019725Y011209D01*
X019725Y010420D01*
X020042Y010420D01*
X018560Y011031D02*
X018560Y011349D01*
X017771Y011349D01*
X017771Y011031D01*
X018560Y011031D01*
X018560Y011457D02*
X017771Y011457D01*
X017771Y011774D01*
X018560Y011774D01*
X018560Y011457D01*
X018671Y011457D02*
X018671Y011774D01*
X019460Y011774D01*
X019460Y011457D01*
X018671Y011457D01*
X018671Y011889D02*
X018671Y012206D01*
X019460Y012206D01*
X019460Y011889D01*
X018671Y011889D01*
X018560Y011888D02*
X018560Y012206D01*
X017771Y012206D01*
X017771Y011888D01*
X018560Y011888D01*
X019571Y011888D02*
X019571Y012206D01*
X020360Y012206D01*
X020360Y011888D01*
X019571Y011888D01*
X015804Y010784D02*
X015617Y010784D01*
X015710Y010784D02*
X015710Y011064D01*
X015617Y010971D01*
X015509Y011064D02*
X015416Y011064D01*
X015462Y011064D02*
X015462Y010831D01*
X015416Y010784D01*
X015369Y010784D01*
X015322Y010831D01*
X015215Y010831D02*
X015168Y010784D01*
X015074Y010784D01*
X015028Y010831D01*
X015074Y010924D02*
X015168Y010924D01*
X015215Y010878D01*
X015215Y010831D01*
X015074Y010924D02*
X015028Y010971D01*
X015028Y011018D01*
X015074Y011064D01*
X015168Y011064D01*
X015215Y011018D01*
X015070Y010672D02*
X015780Y010672D01*
X015793Y010670D01*
X015805Y010665D01*
X015815Y010657D01*
X015823Y010647D01*
X015828Y010635D01*
X015830Y010622D01*
X015830Y010402D01*
X015828Y010389D01*
X015823Y010377D01*
X015815Y010367D01*
X015805Y010359D01*
X015793Y010354D01*
X015780Y010352D01*
X015070Y010352D01*
X015057Y010354D01*
X015045Y010359D01*
X015035Y010367D01*
X015027Y010377D01*
X015022Y010389D01*
X015020Y010402D01*
X015020Y010622D01*
X015022Y010635D01*
X015027Y010647D01*
X015035Y010657D01*
X015045Y010665D01*
X015057Y010670D01*
X015070Y010672D01*
X012799Y010669D02*
X012011Y010669D01*
X012011Y010986D01*
X012799Y010986D01*
X012799Y010669D01*
X011899Y010669D02*
X011111Y010669D01*
X011111Y010986D01*
X011899Y010986D01*
X011899Y010669D01*
X009539Y011506D02*
X009539Y011599D01*
X009492Y011646D01*
X009539Y011754D02*
X009258Y011754D01*
X009305Y011646D02*
X009258Y011599D01*
X009258Y011506D01*
X009305Y011459D01*
X009492Y011459D01*
X009539Y011506D01*
X009398Y011754D02*
X009398Y011941D01*
X009445Y012049D02*
X009445Y012189D01*
X009398Y012235D01*
X009305Y012235D01*
X009258Y012189D01*
X009258Y012049D01*
X009539Y012049D01*
X009539Y011941D02*
X009258Y011941D01*
X009046Y011894D02*
X009000Y011941D01*
X008813Y011941D01*
X008766Y011894D01*
X008766Y011801D01*
X008813Y011754D01*
X009000Y011754D01*
X009046Y011801D01*
X009046Y011894D01*
X009046Y012049D02*
X008766Y012049D01*
X009046Y012235D01*
X008766Y012235D01*
X008766Y012343D02*
X009046Y012343D01*
X009046Y012530D01*
X008906Y012437D02*
X008906Y012343D01*
X008766Y012343D02*
X008766Y012530D01*
X009258Y012483D02*
X009258Y012390D01*
X009305Y012343D01*
X009492Y012343D01*
X009539Y012390D01*
X009539Y012483D01*
X009492Y012530D01*
X009398Y012530D01*
X009398Y012437D01*
X009305Y012530D02*
X009258Y012483D01*
X009539Y012235D02*
X009445Y012142D01*
X009000Y011646D02*
X008813Y011646D01*
X008766Y011599D01*
X008766Y011459D01*
X009046Y011459D01*
X009046Y011599D01*
X009000Y011646D01*
X007714Y011599D02*
X007714Y011506D01*
X007667Y011459D01*
X007480Y011459D01*
X007434Y011506D01*
X007434Y011599D01*
X007480Y011646D01*
X007574Y011646D02*
X007574Y011553D01*
X007574Y011646D02*
X007667Y011646D01*
X007714Y011599D01*
X007714Y011754D02*
X007434Y011754D01*
X007714Y011941D01*
X007434Y011941D01*
X007434Y012049D02*
X007434Y012189D01*
X007480Y012235D01*
X007667Y012235D01*
X007714Y012189D01*
X007714Y012049D01*
X007434Y012049D01*
X007222Y012095D02*
X007222Y012189D01*
X007175Y012235D01*
X006941Y012235D01*
X006941Y012343D02*
X006941Y012530D01*
X006941Y012437D02*
X007222Y012437D01*
X006730Y012137D02*
X006449Y012137D01*
X006449Y011950D02*
X006730Y012137D01*
X006730Y011950D02*
X006449Y011950D01*
X006449Y011847D02*
X006449Y011754D01*
X006449Y011801D02*
X006730Y011801D01*
X006730Y011847D02*
X006730Y011754D01*
X006636Y011646D02*
X006449Y011646D01*
X006449Y011459D02*
X006636Y011459D01*
X006730Y011553D01*
X006636Y011646D01*
X006941Y011646D02*
X007128Y011646D01*
X007222Y011553D01*
X007128Y011459D01*
X006941Y011459D01*
X006988Y011754D02*
X007175Y011754D01*
X007222Y011801D01*
X007222Y011894D01*
X007175Y011941D01*
X006988Y011941D01*
X006941Y011894D01*
X006941Y011801D01*
X006988Y011754D01*
X006941Y012049D02*
X007175Y012049D01*
X007222Y012095D01*
X006237Y012095D02*
X006191Y012049D01*
X006237Y012095D02*
X006237Y012189D01*
X006191Y012235D01*
X006097Y012235D01*
X006051Y012189D01*
X006051Y012142D01*
X006097Y012049D01*
X005957Y012049D01*
X005957Y012235D01*
X005957Y012343D02*
X006144Y012343D01*
X006237Y012437D01*
X006144Y012530D01*
X005957Y012530D01*
X005745Y012432D02*
X005465Y012432D01*
X005465Y012245D02*
X005745Y012432D01*
X005745Y012245D02*
X005465Y012245D01*
X005465Y012142D02*
X005465Y012049D01*
X005465Y012095D02*
X005745Y012095D01*
X005745Y012049D02*
X005745Y012142D01*
X005652Y011941D02*
X005465Y011941D01*
X005652Y011941D02*
X005745Y011847D01*
X005652Y011754D01*
X005465Y011754D01*
X005465Y011646D02*
X005465Y011459D01*
X005745Y011459D01*
X005745Y011646D01*
X005605Y011553D02*
X005605Y011459D01*
X005957Y011506D02*
X005957Y011599D01*
X006004Y011646D01*
X006097Y011646D02*
X006097Y011553D01*
X006097Y011646D02*
X006191Y011646D01*
X006237Y011599D01*
X006237Y011506D01*
X006191Y011459D01*
X006004Y011459D01*
X005957Y011506D01*
X005957Y011754D02*
X005957Y011894D01*
X006004Y011941D01*
X006051Y011941D01*
X006097Y011894D01*
X006097Y011754D01*
X006237Y011754D02*
X005957Y011754D01*
X006097Y011894D02*
X006144Y011941D01*
X006191Y011941D01*
X006237Y011894D01*
X006237Y011754D01*
X014785Y012134D02*
X015102Y012134D01*
X015102Y012923D01*
X014785Y012923D01*
X014785Y012134D01*
X019199Y008366D02*
X019516Y008366D01*
X019516Y007577D01*
X019199Y007577D01*
X019199Y008366D01*
X019199Y007466D02*
X019517Y007466D01*
X019517Y006677D01*
X019199Y006677D01*
X019199Y007466D01*
X019199Y006576D02*
X019517Y006576D01*
X019517Y005787D01*
X019199Y005787D01*
X019199Y006576D01*
X019803Y005408D02*
X020592Y005408D01*
X020592Y005090D01*
X019803Y005090D01*
X019803Y005408D01*
X019803Y004982D02*
X019803Y004664D01*
X020592Y004664D01*
X020592Y004982D01*
X019803Y004982D01*
X020697Y004981D02*
X020697Y004664D01*
X021486Y004664D01*
X021486Y004981D01*
X020697Y004981D01*
X020697Y005090D02*
X020697Y005408D01*
X021486Y005408D01*
X021486Y005090D01*
X020697Y005090D01*
X019895Y003948D02*
X019107Y003948D01*
X019107Y003630D01*
X019895Y003630D01*
X019895Y003948D01*
X019895Y003538D02*
X019107Y003538D01*
X019107Y003220D01*
X019895Y003220D01*
X019895Y003538D01*
X015310Y017337D02*
X015235Y017343D01*
X015254Y018135D02*
X015378Y018173D01*
X004127Y017386D02*
X004128Y017339D01*
D14*
X004131Y017389D02*
X004519Y018151D01*
X004449Y018155D01*
X004133Y017537D01*
X004151Y017669D01*
X004131Y017648D02*
X004072Y017656D01*
X003982Y018073D01*
X003755Y017364D01*
X003700Y017362D02*
X003688Y017357D01*
X003950Y018147D01*
X004017Y018148D01*
X004131Y017648D01*
X004068Y017660D02*
X004131Y017389D01*
X004482Y017356D02*
X004475Y017973D01*
X004426Y017858D01*
X004730Y017834D02*
X004788Y017959D01*
X004866Y018045D01*
X004978Y018111D01*
X005084Y018144D01*
X005297Y018151D01*
X005341Y018146D02*
X005354Y018149D01*
X005354Y018090D01*
X005266Y018100D01*
X005148Y018095D01*
X005033Y018066D01*
X004953Y018026D01*
X004892Y017992D01*
X004823Y017902D01*
X004788Y017822D01*
X004772Y017730D01*
X004776Y017623D01*
X004800Y017535D01*
X004844Y017482D01*
X004910Y017432D01*
X004969Y017413D01*
X005069Y017422D01*
X005135Y017425D01*
X005192Y017454D01*
X005206Y017493D01*
X005218Y017610D01*
X005171Y017646D01*
X005135Y017635D01*
X005098Y017632D01*
X005101Y017690D01*
X005293Y017691D01*
X005263Y017647D01*
X005281Y017634D01*
X005259Y017439D01*
X005172Y017383D01*
X005064Y017357D01*
X004950Y017364D01*
X004849Y017408D01*
X004759Y017493D01*
X004734Y017569D01*
X004730Y017834D01*
X004520Y018148D02*
X004546Y017360D01*
X004482Y017356D01*
X003892Y017752D02*
X003831Y017656D01*
X003892Y017752D02*
X003961Y017926D01*
X004002Y017872D01*
X003651Y017828D02*
X003642Y017720D01*
X003608Y017603D01*
X003532Y017449D01*
X003440Y017389D01*
X003351Y017364D01*
X003101Y017365D01*
X003150Y017434D01*
X003221Y018085D01*
X003228Y018061D01*
X003252Y018089D01*
X003430Y018091D01*
X003478Y018065D01*
X003556Y017988D01*
X003587Y017880D01*
X003595Y017740D01*
X003550Y017631D01*
X003582Y017739D01*
X003524Y017555D01*
X003482Y017483D01*
X003419Y017447D01*
X003336Y017420D01*
X003233Y017412D01*
X003151Y017415D01*
X003111Y017427D01*
X003118Y017477D01*
X003056Y017354D02*
X003172Y018149D01*
X003375Y018149D01*
X003505Y018116D01*
X003582Y018042D01*
X003629Y017955D01*
X003651Y017828D01*
X002660Y017618D02*
X002656Y017521D01*
X002602Y017429D01*
X002540Y017380D01*
X002473Y017364D01*
X002223Y017365D01*
X002262Y017436D01*
X002346Y018087D01*
X002432Y018091D01*
X002512Y018086D01*
X002530Y018052D01*
X002567Y017984D01*
X002562Y017917D01*
X002520Y017859D01*
X002461Y017818D01*
X002398Y017815D01*
X002359Y017815D01*
X002349Y017757D01*
X002416Y017753D01*
X002463Y017749D01*
X002517Y017799D01*
X002502Y017737D01*
X002555Y017700D01*
X002594Y017636D01*
X002598Y017539D01*
X002562Y017468D01*
X002475Y017410D01*
X002316Y017411D01*
X002175Y017360D02*
X002295Y018145D01*
X002512Y018149D01*
X002585Y018095D01*
X002622Y018028D01*
X002624Y017948D01*
X002613Y017895D01*
X002557Y017814D01*
X002568Y017775D01*
X002619Y017715D01*
X002660Y017618D01*
X002645Y017688D02*
X002619Y017706D01*
X002054Y017690D02*
X002024Y017646D01*
X002042Y017633D01*
X002020Y017438D01*
X001933Y017382D01*
X001825Y017356D01*
X001711Y017363D01*
X001610Y017407D01*
X001520Y017492D01*
X001495Y017568D01*
X001491Y017833D01*
X001549Y017958D01*
X001627Y018044D01*
X001739Y018110D01*
X001845Y018143D01*
X002058Y018150D01*
X002102Y018145D02*
X002115Y018148D01*
X002115Y018089D01*
X002027Y018099D01*
X001909Y018094D01*
X001794Y018065D01*
X001714Y018025D01*
X001653Y017991D01*
X001584Y017901D01*
X001549Y017821D01*
X001533Y017729D01*
X001537Y017622D01*
X001561Y017534D01*
X001605Y017481D01*
X001671Y017431D01*
X001730Y017412D01*
X001830Y017421D01*
X001896Y017424D01*
X001953Y017453D01*
X001967Y017492D01*
X001979Y017609D01*
X001932Y017645D01*
X001896Y017634D01*
X001859Y017631D01*
X001862Y017689D01*
X002054Y017690D01*
X005759Y017542D02*
X005769Y017476D01*
X005813Y017415D01*
X005874Y017368D01*
X005948Y017352D01*
X006070Y017349D01*
X006137Y017372D01*
X006215Y017438D01*
X006258Y017519D01*
X006351Y018151D01*
X006285Y018154D01*
X006179Y017490D01*
X006145Y017477D01*
X006102Y017417D01*
X005948Y017404D01*
X005850Y017447D01*
X005825Y017555D01*
X005891Y018139D01*
X005902Y018149D01*
X005876Y018151D01*
X005827Y018146D02*
X005759Y017542D01*
X006431Y017456D02*
X006435Y017397D01*
X006431Y017391D01*
X006573Y017355D01*
X006669Y017355D01*
X006758Y017386D01*
X006833Y017446D01*
X006877Y017521D01*
X006889Y017638D01*
X006839Y017736D01*
X006758Y017791D01*
X006613Y017841D01*
X006610Y017863D01*
X006569Y017954D01*
X006607Y018039D01*
X006665Y018080D01*
X006737Y018097D01*
X006864Y018085D01*
X006870Y018144D02*
X006691Y018147D01*
X006613Y018112D01*
X006545Y018044D01*
X006509Y017944D01*
X006551Y017838D01*
X006622Y017785D01*
X006719Y017738D01*
X006777Y017706D01*
X006820Y017636D01*
X006830Y017552D01*
X006772Y017458D01*
X006718Y017422D01*
X006642Y017415D01*
X006523Y017422D01*
X006431Y017456D01*
X007014Y017358D02*
X007134Y018143D01*
X007351Y018147D01*
X007424Y018093D01*
X007461Y018026D01*
X007463Y017946D01*
X007452Y017893D01*
X007396Y017812D01*
X007407Y017773D01*
X007458Y017713D01*
X007499Y017616D01*
X007495Y017519D01*
X007441Y017427D01*
X007379Y017378D01*
X007312Y017362D01*
X007062Y017363D01*
X007101Y017434D01*
X007185Y018085D01*
X007271Y018089D01*
X007351Y018084D01*
X007369Y018050D01*
X007406Y017982D01*
X007401Y017915D01*
X007359Y017857D01*
X007300Y017816D01*
X007237Y017813D01*
X007198Y017813D01*
X007188Y017755D01*
X007255Y017751D01*
X007302Y017747D01*
X007356Y017797D01*
X007341Y017735D01*
X007394Y017698D01*
X007433Y017634D01*
X007437Y017537D01*
X007401Y017466D01*
X007314Y017408D01*
X007155Y017409D01*
X007461Y017703D02*
X007489Y017689D01*
X007679Y017728D02*
X007688Y017763D01*
X007679Y017728D02*
X007982Y017735D01*
X007993Y017803D01*
X007698Y017803D01*
X008149Y017748D02*
X008146Y017611D01*
X008208Y017478D01*
X008298Y017401D01*
X008362Y017369D01*
X008431Y017357D01*
X008518Y017360D01*
X008608Y017371D01*
X008678Y017392D01*
X008707Y017484D01*
X008688Y017460D01*
X008633Y017438D01*
X008577Y017426D01*
X008495Y017415D01*
X008412Y017421D01*
X008345Y017432D01*
X008285Y017468D01*
X008241Y017546D01*
X008207Y017620D01*
X008211Y017720D01*
X008224Y017805D01*
X008248Y017871D01*
X008284Y017941D01*
X008332Y017995D01*
X008428Y018045D01*
X008512Y018085D01*
X008651Y018093D01*
X008789Y018093D01*
X008794Y018152D01*
X008794Y018153D01*
X008760Y018151D02*
X008503Y018144D01*
X008434Y018115D01*
X008340Y018065D01*
X008249Y017986D01*
X008174Y017877D01*
X008149Y017748D01*
X009194Y017752D02*
X009219Y017881D01*
X009294Y017990D01*
X009385Y018069D01*
X009479Y018119D01*
X009548Y018148D01*
X009805Y018155D01*
X009839Y018156D02*
X009834Y018097D01*
X009696Y018097D01*
X009557Y018089D01*
X009473Y018049D01*
X009377Y017999D01*
X009329Y017945D01*
X009293Y017875D01*
X009269Y017809D01*
X009256Y017724D01*
X009252Y017624D01*
X009286Y017550D01*
X009330Y017472D01*
X009390Y017436D01*
X009457Y017425D01*
X009540Y017419D01*
X009622Y017430D01*
X009678Y017442D01*
X009733Y017464D01*
X009752Y017488D01*
X009723Y017396D01*
X009653Y017375D01*
X009563Y017364D01*
X009476Y017361D01*
X009407Y017373D01*
X009343Y017405D01*
X009253Y017482D01*
X009191Y017615D01*
X009194Y017752D01*
X009839Y018157D02*
X009839Y018156D01*
X010011Y018147D02*
X010092Y018147D01*
X009974Y017364D01*
X009899Y017359D01*
X010012Y018087D01*
X010017Y018135D02*
X010011Y018147D01*
X010516Y018116D02*
X010399Y017353D01*
X010480Y017354D01*
X010594Y018147D01*
X010519Y018149D01*
X010524Y018142D01*
X010422Y017790D02*
X010076Y017794D01*
X010085Y017736D02*
X010410Y017733D01*
X010422Y017790D01*
X010834Y017591D02*
X011056Y017588D01*
X011048Y017647D01*
X010910Y017647D01*
X010972Y017902D02*
X010721Y017360D01*
X010714Y017357D01*
X010657Y017357D02*
X010644Y017354D01*
X011009Y018145D01*
X011078Y018153D01*
X011217Y017348D01*
X011148Y017350D01*
X011034Y018081D01*
X010998Y017933D01*
X010972Y017902D01*
X011531Y017852D02*
X011561Y018034D01*
X011551Y018089D02*
X011596Y018095D01*
X011705Y018086D01*
X011776Y018070D01*
X011811Y018021D01*
X011831Y017930D01*
X011797Y017874D01*
X011751Y017813D01*
X011702Y017794D01*
X011663Y017747D01*
X011651Y017714D01*
X011666Y017797D01*
X011553Y017806D01*
X011548Y017787D01*
X011622Y017753D01*
X011535Y017817D01*
X011531Y017852D01*
X011549Y017731D02*
X011514Y017709D01*
X011498Y017672D01*
X011447Y017361D01*
X011437Y017392D01*
X011421Y017355D01*
X011551Y018089D01*
X011495Y018151D02*
X011719Y018151D01*
X011787Y018125D01*
X011849Y018075D01*
X011878Y018024D01*
X011887Y017953D01*
X011887Y017900D01*
X011857Y017833D01*
X011801Y017787D01*
X011738Y017744D01*
X011696Y017733D01*
X011690Y017693D01*
X011858Y017357D01*
X011870Y017353D01*
X011778Y017363D01*
X011615Y017679D01*
X011593Y017721D01*
X011549Y017731D01*
X011399Y017395D02*
X011378Y017360D01*
X011495Y018151D01*
X012031Y017828D02*
X012089Y017953D01*
X012167Y018039D01*
X012279Y018105D01*
X012385Y018138D01*
X012598Y018145D01*
X012642Y018140D02*
X012655Y018143D01*
X012655Y018084D01*
X012567Y018094D01*
X012449Y018089D01*
X012334Y018060D01*
X012254Y018020D01*
X012193Y017986D01*
X012124Y017896D01*
X012089Y017816D01*
X012073Y017724D01*
X012077Y017617D01*
X012101Y017529D01*
X012145Y017476D01*
X012211Y017426D01*
X012270Y017407D01*
X012370Y017416D01*
X012436Y017419D01*
X012493Y017448D01*
X012507Y017487D01*
X012519Y017604D01*
X012472Y017640D01*
X012436Y017629D01*
X012399Y017626D01*
X012402Y017684D01*
X012594Y017685D01*
X012564Y017641D01*
X012582Y017628D01*
X012560Y017433D01*
X012473Y017377D01*
X012365Y017351D01*
X012251Y017358D01*
X012150Y017402D01*
X012060Y017487D01*
X012035Y017563D01*
X012031Y017828D01*
X012719Y017361D02*
X012829Y018153D01*
X012867Y018152D02*
X012904Y018154D01*
X012897Y018148D01*
X012785Y017357D01*
X012719Y017361D01*
X012976Y017363D02*
X013090Y018152D01*
X013180Y018145D01*
X013542Y017354D01*
X013655Y018149D01*
X013588Y018153D01*
X013475Y017356D01*
X013132Y018078D01*
X013040Y017358D01*
X013027Y017358D01*
X013123Y017891D02*
X013156Y017910D01*
X013131Y017958D01*
X013784Y017842D02*
X013788Y017577D01*
X013813Y017501D01*
X013903Y017416D01*
X014004Y017372D01*
X014118Y017365D01*
X014226Y017391D01*
X014313Y017447D01*
X014335Y017642D01*
X014317Y017655D01*
X014347Y017699D01*
X014155Y017698D01*
X014152Y017640D01*
X014189Y017643D01*
X014225Y017654D01*
X014272Y017618D01*
X014260Y017501D01*
X014246Y017462D01*
X014189Y017433D01*
X014123Y017430D01*
X014023Y017421D01*
X013964Y017440D01*
X013898Y017490D01*
X013854Y017543D01*
X013830Y017631D01*
X013826Y017738D01*
X013842Y017830D01*
X013877Y017910D01*
X013946Y018000D01*
X014007Y018034D01*
X014087Y018074D01*
X014202Y018103D01*
X014320Y018108D01*
X014408Y018098D01*
X014408Y018157D01*
X014395Y018154D01*
X014351Y018159D02*
X014138Y018152D01*
X014032Y018119D01*
X013920Y018053D01*
X013842Y017967D01*
X013784Y017842D01*
X014807Y017359D02*
X014914Y018093D01*
X014930Y018137D02*
X014920Y018147D01*
X014992Y018150D01*
X014878Y017362D01*
X014807Y017359D01*
X015202Y017360D02*
X014984Y017739D01*
X014990Y017792D02*
X015011Y017843D01*
X015274Y017358D01*
X015202Y017360D01*
X015445Y017363D02*
X015511Y017359D01*
X015623Y018150D01*
X015630Y018156D01*
X015593Y018154D01*
X015555Y018155D02*
X015445Y017363D01*
X015883Y017355D02*
X015892Y017374D01*
X015994Y018068D01*
X015969Y018094D01*
X016010Y018092D02*
X015779Y018100D01*
X015783Y018148D01*
X015805Y018153D02*
X016283Y018151D01*
X016271Y018098D01*
X016050Y018100D01*
X016055Y018039D01*
X015956Y017359D01*
X015923Y017363D01*
X016675Y017361D02*
X016746Y017363D01*
X016864Y018146D01*
X016974Y018148D01*
X017048Y018132D01*
X017112Y018105D01*
X017157Y018044D01*
X017188Y017987D01*
X017183Y017929D01*
X017154Y017847D01*
X017121Y017794D01*
X017060Y017761D01*
X017004Y017733D01*
X016896Y017735D01*
X016854Y017738D01*
X016857Y017800D01*
X016977Y017793D01*
X017030Y017809D01*
X017080Y017855D01*
X017108Y017928D01*
X017123Y017996D01*
X017077Y018044D01*
X017051Y018087D01*
X017003Y018090D01*
X016899Y018098D01*
X016833Y018143D01*
X016779Y018146D01*
X016684Y017414D01*
X016845Y018126D01*
X017378Y018151D02*
X017602Y018151D01*
X017670Y018125D01*
X017732Y018075D01*
X017761Y018024D01*
X017770Y017953D01*
X017770Y017900D01*
X017740Y017833D01*
X017684Y017787D01*
X017621Y017744D01*
X017579Y017733D01*
X017573Y017693D01*
X017741Y017357D01*
X017753Y017353D01*
X017661Y017363D01*
X017498Y017679D01*
X017476Y017721D01*
X017432Y017731D01*
X017397Y017709D01*
X017381Y017672D01*
X017330Y017361D01*
X017320Y017392D01*
X017304Y017355D01*
X017434Y018089D01*
X017479Y018095D01*
X017588Y018086D01*
X017659Y018070D01*
X017694Y018021D01*
X017714Y017930D01*
X017680Y017874D01*
X017634Y017813D01*
X017585Y017794D01*
X017546Y017747D01*
X017534Y017714D01*
X017549Y017797D01*
X017436Y017806D01*
X017431Y017787D01*
X017505Y017753D01*
X017418Y017817D01*
X017414Y017852D01*
X017444Y018034D01*
X017378Y018151D02*
X017261Y017360D01*
X017282Y017395D01*
X017263Y017369D01*
X017900Y017495D02*
X017879Y017595D01*
X017890Y017748D01*
X017928Y017894D01*
X017999Y018028D01*
X018083Y018117D01*
X018198Y018098D01*
X018305Y018098D01*
X018365Y018076D01*
X018430Y018001D01*
X018457Y017884D01*
X018440Y017753D01*
X018381Y017584D01*
X018293Y017448D01*
X018274Y017454D01*
X018173Y017408D01*
X018076Y017413D01*
X017996Y017449D01*
X017941Y017555D01*
X017936Y017701D01*
X017975Y017829D01*
X018016Y017937D01*
X018076Y018036D01*
X018148Y018079D01*
X018122Y018128D02*
X018143Y018147D01*
X018277Y018147D01*
X018369Y018139D01*
X018432Y018093D01*
X018485Y018012D01*
X018508Y017919D01*
X018511Y017813D01*
X018485Y017696D01*
X018419Y017520D01*
X018343Y017419D01*
X018252Y017373D01*
X018166Y017351D01*
X018067Y017357D01*
X018009Y017376D01*
X017949Y017422D01*
X017900Y017495D01*
X018126Y018136D02*
X018163Y018164D01*
X018202Y018171D01*
X018245Y018174D01*
X018301Y018173D01*
X018359Y018161D01*
X015344Y018151D02*
X015075Y017802D01*
X015012Y017816D02*
X015249Y018142D01*
X015344Y018151D01*
X011399Y017395D02*
X011380Y017369D01*
X011401Y015486D02*
X012910Y015486D01*
X013452Y015427D02*
X013452Y014837D01*
X013453Y014828D01*
X013458Y014819D01*
X013464Y014813D01*
X013473Y014808D01*
X013482Y014807D01*
X013482Y014817D02*
X014422Y014817D01*
X014431Y014818D01*
X014440Y014823D01*
X014446Y014829D01*
X014451Y014838D01*
X014452Y014847D01*
X014452Y015417D01*
X014451Y015427D01*
X014447Y015437D01*
X014440Y015445D01*
X014432Y015452D01*
X014422Y015456D01*
X014412Y015457D01*
X013482Y015457D01*
X013473Y015456D01*
X013464Y015451D01*
X013458Y015445D01*
X013453Y015436D01*
X013452Y015427D01*
X013512Y015387D02*
X014392Y015397D01*
X014402Y015237D01*
X013862Y015237D01*
X013762Y015327D01*
X013572Y015347D01*
X014352Y015337D01*
X014352Y015287D01*
X013872Y015297D01*
X013862Y015207D02*
X013882Y015087D01*
X014082Y015087D01*
X014092Y015177D01*
X013922Y015187D01*
X013932Y015137D01*
X014022Y015137D01*
X013812Y015207D02*
X013782Y015237D01*
X013732Y015237D01*
X013732Y015307D01*
X013602Y015317D01*
X013562Y015297D01*
X013542Y015277D01*
X013542Y015237D01*
X013512Y015237D01*
X013512Y015387D01*
X013812Y015207D02*
X013812Y015027D01*
X013762Y014977D02*
X014362Y014977D01*
X014362Y014927D01*
X013512Y014927D01*
X013512Y015037D01*
X013552Y015037D01*
X013552Y014967D01*
X013582Y014947D01*
X013722Y014937D01*
X013732Y015037D01*
X014392Y015037D01*
X014392Y014877D01*
X013492Y014877D01*
X012963Y013785D02*
X012609Y013785D01*
X011723Y013785D02*
X011349Y013785D01*
X009989Y012690D02*
X009989Y010839D01*
X009694Y010839D01*
X008611Y010839D02*
X008316Y010839D01*
X008316Y012690D01*
X009989Y012690D01*
X009207Y012937D02*
X009067Y012927D01*
X009157Y012897D01*
X009207Y012937D02*
X009217Y012967D01*
X009047Y012967D01*
X009057Y013157D02*
X009167Y013147D01*
X009307Y013517D01*
X009277Y013607D01*
X009137Y013597D01*
X009087Y013517D01*
X009037Y013417D01*
X009017Y013337D01*
X009187Y013547D01*
X009247Y013537D01*
X009117Y013187D01*
X009177Y013467D01*
X009067Y013217D01*
X009037Y013287D01*
X009077Y013337D01*
X008937Y013367D02*
X009057Y013157D01*
X009217Y013147D02*
X009337Y013407D01*
X009367Y013497D01*
X009347Y013587D01*
X009307Y013667D01*
X009257Y013727D01*
X009187Y013757D01*
X009087Y013747D01*
X008977Y013697D01*
X008927Y013617D01*
X008897Y013557D01*
X008897Y013457D01*
X008937Y013367D01*
X008164Y012690D02*
X008164Y010839D01*
X007869Y010839D01*
X005310Y010839D02*
X005015Y010839D01*
X005015Y012690D01*
X008164Y012690D01*
X015425Y010642D02*
X015425Y010382D01*
X017767Y007804D02*
X017767Y006623D01*
X018948Y006623D02*
X018948Y007804D01*
X023707Y006926D02*
X024002Y006926D01*
X023707Y006926D02*
X023707Y008776D01*
X025380Y008776D01*
X025380Y006926D01*
X025084Y006926D01*
X018535Y004442D02*
X018535Y003742D01*
X014905Y003742D02*
X014905Y004442D01*
X016069Y001577D02*
X016069Y001226D01*
X016139Y001156D01*
X016279Y001156D01*
X016349Y001226D01*
X016349Y001577D01*
X016529Y001507D02*
X016529Y001437D01*
X016600Y001367D01*
X016740Y001367D01*
X016810Y001296D01*
X016810Y001226D01*
X016740Y001156D01*
X016600Y001156D01*
X016529Y001226D01*
X016529Y001507D02*
X016600Y001577D01*
X016740Y001577D01*
X016810Y001507D01*
X016990Y001577D02*
X017200Y001577D01*
X017270Y001507D01*
X017270Y001437D01*
X017200Y001367D01*
X016990Y001367D01*
X016990Y001577D02*
X016990Y001156D01*
X017200Y001156D01*
X017270Y001226D01*
X017270Y001296D01*
X017200Y001367D01*
X006827Y003341D02*
X006827Y003636D01*
X006827Y003341D02*
X004977Y003341D01*
X004977Y005014D01*
X006827Y005014D01*
X006827Y004719D01*
X025953Y010802D02*
X026291Y010802D01*
X026291Y011922D02*
X025953Y011922D01*
X032134Y011961D02*
X032146Y011915D01*
X032276Y011912D01*
X033165Y011911D01*
X033228Y011904D01*
X033199Y011949D01*
X033220Y012002D01*
X033252Y011930D01*
X033332Y012551D01*
X033353Y012624D01*
X032888Y012596D01*
X032892Y012612D01*
X033260Y012602D01*
X033269Y012562D01*
X033226Y012099D01*
X033189Y012047D01*
X033132Y011976D01*
X033060Y011962D01*
X032333Y011977D01*
X032263Y011994D01*
X032225Y012069D01*
X032402Y013375D01*
X032504Y013437D01*
X033250Y013442D01*
X033318Y013430D01*
X033377Y013360D01*
X033334Y013042D01*
X033374Y013042D02*
X033377Y013434D01*
X032416Y013453D01*
X032395Y013431D01*
X032360Y013490D02*
X033442Y013494D01*
X033448Y013434D01*
X033417Y013044D01*
X033374Y013042D01*
X033521Y012621D02*
X033419Y011819D01*
X033369Y011781D01*
X033540Y011773D01*
X033637Y011773D01*
X033631Y011783D01*
X034143Y011775D01*
X034168Y011902D01*
X034172Y011993D01*
X033904Y012012D01*
X033990Y012627D01*
X033931Y012633D01*
X033567Y012635D01*
X034003Y011755D02*
X032206Y011749D01*
X032176Y011736D01*
X032162Y011539D01*
X032304Y011528D01*
X032241Y010975D01*
X032471Y010961D02*
X032557Y011525D01*
X032675Y011542D01*
X032597Y010970D01*
X032521Y010967D01*
X032606Y011483D01*
X032257Y011949D02*
X032156Y012010D01*
X032166Y012058D01*
X032360Y013490D01*
X032257Y011949D02*
X032134Y011961D01*
X006870Y018144D02*
X006858Y018144D01*
D15*
X006117Y005817D02*
X006117Y005347D01*
X005977Y005477D01*
X005757Y005487D01*
X005757Y005597D01*
X006047Y005677D01*
X006057Y005487D01*
X006007Y005587D01*
X005827Y005537D01*
X005987Y005537D01*
X005917Y005657D02*
X006117Y005817D01*
X005917Y005657D02*
X005767Y005657D01*
X016623Y001827D02*
X016823Y001827D01*
X016723Y001927D01*
X016623Y001827D01*
D16*
X006262Y005437D02*
X006277Y005463D01*
X006289Y005490D01*
X006298Y005518D01*
X006303Y005547D01*
X006305Y005577D01*
X006303Y005607D01*
X006298Y005636D01*
X006289Y005664D01*
X006277Y005691D01*
X006262Y005717D01*
X006357Y005807D02*
X006378Y005775D01*
X006396Y005742D01*
X006410Y005707D01*
X006421Y005671D01*
X006428Y005633D01*
X006432Y005596D01*
X006432Y005558D01*
X006428Y005521D01*
X006421Y005483D01*
X006410Y005447D01*
X006396Y005412D01*
X006378Y005379D01*
X006357Y005347D01*
X006442Y005257D02*
X006467Y005292D01*
X006489Y005329D01*
X006508Y005368D01*
X006523Y005408D01*
X006535Y005449D01*
X006544Y005491D01*
X006549Y005534D01*
X006551Y005577D01*
X006549Y005620D01*
X006544Y005663D01*
X006535Y005705D01*
X006523Y005746D01*
X006508Y005786D01*
X006489Y005825D01*
X006467Y005862D01*
X006442Y005897D01*
X030157Y007842D02*
X030212Y007787D01*
X030322Y007787D01*
X030377Y007842D01*
X030377Y008062D01*
X030322Y008117D01*
X030212Y008117D01*
X030157Y008062D01*
X030212Y008587D02*
X030377Y008587D01*
X030377Y008917D01*
X030212Y008917D01*
X030157Y008862D01*
X030157Y008642D01*
X030212Y008587D01*
D17*
X012711Y013560D02*
X012713Y013573D01*
X012719Y013585D01*
X012728Y013594D01*
X012739Y013601D01*
X012752Y013604D01*
X012765Y013603D01*
X012777Y013598D01*
X012787Y013590D01*
X012795Y013579D01*
X012799Y013567D01*
X012799Y013553D01*
X012795Y013541D01*
X012787Y013530D01*
X012777Y013522D01*
X012765Y013517D01*
X012752Y013516D01*
X012739Y013519D01*
X012728Y013526D01*
X012719Y013535D01*
X012713Y013547D01*
X012711Y013560D01*
D18*
X020076Y010420D02*
X020491Y010420D01*
X020476Y010420D02*
X020891Y010420D01*
X020841Y010420D02*
X020526Y010420D01*
X020526Y011209D01*
X020841Y011209D01*
X020841Y010420D01*
X020441Y010420D02*
X020126Y010420D01*
X020126Y011209D01*
X020441Y011209D01*
X020441Y010420D01*
X029152Y008969D02*
X029152Y008554D01*
X029152Y008559D02*
X029152Y008244D01*
X029941Y008244D01*
X029941Y008559D01*
X029152Y008559D01*
X029152Y008604D02*
X029152Y008919D01*
X029941Y008919D01*
X029941Y008604D01*
X029152Y008604D01*
X029152Y008609D02*
X029152Y008194D01*
X029152Y008199D02*
X029152Y007884D01*
X029941Y007884D01*
X029941Y008199D01*
X029152Y008199D01*
X029941Y008249D02*
X029941Y007834D01*
D19*
X014522Y014817D02*
X014522Y015467D01*
X014520Y015480D01*
X014516Y015493D01*
X014509Y015504D01*
X014499Y015514D01*
X014488Y015521D01*
X014475Y015525D01*
X014462Y015527D01*
X013442Y015527D01*
X013429Y015525D01*
X013416Y015521D01*
X013405Y015514D01*
X013395Y015504D01*
X013388Y015493D01*
X013384Y015480D01*
X013382Y015467D01*
X013382Y014827D01*
X013384Y014809D01*
X013389Y014793D01*
X013397Y014777D01*
X013408Y014763D01*
X013422Y014752D01*
X013438Y014744D01*
X013454Y014739D01*
X013472Y014737D01*
X014442Y014737D01*
X014458Y014739D01*
X014473Y014743D01*
X014486Y014750D01*
X014499Y014760D01*
X014509Y014773D01*
X014516Y014786D01*
X014520Y014801D01*
X014522Y014817D01*
X014402Y015077D02*
X014132Y015077D01*
X014132Y015197D01*
X014402Y015197D01*
X014402Y015077D01*
X013782Y015077D02*
X013692Y015077D01*
X013692Y014987D01*
X013582Y014987D01*
X013582Y015077D01*
X013482Y015077D01*
X013482Y015197D01*
X013582Y015197D01*
X013582Y015277D01*
X013692Y015277D01*
X013692Y015197D01*
X013782Y015197D01*
X013782Y015077D01*
X013812Y015587D02*
X013552Y015587D01*
X013552Y015707D01*
X013812Y015707D01*
X013812Y015587D01*
X014092Y015587D02*
X014092Y015707D01*
X014342Y015707D01*
X014342Y015587D01*
X014092Y015587D01*
X014071Y017326D02*
X014145Y017326D01*
X014204Y017338D01*
X014261Y017358D01*
X014312Y017391D01*
X014354Y017429D01*
X014388Y017739D01*
X014133Y017742D01*
X014123Y017727D01*
X014108Y017619D01*
X014121Y017607D01*
X014228Y017605D01*
X014227Y017583D01*
X014222Y017498D01*
X014193Y017480D01*
X014163Y017469D01*
X014129Y017463D01*
X014091Y017462D01*
X014032Y017464D01*
X013992Y017475D01*
X013958Y017495D01*
X013923Y017521D01*
X013896Y017559D01*
X013876Y017598D01*
X013864Y017660D01*
X013860Y017721D01*
X013866Y017765D01*
X013883Y017832D01*
X013917Y017894D01*
X013955Y017946D01*
X014003Y017985D01*
X014053Y018018D01*
X014101Y018035D01*
X014169Y018059D01*
X014203Y018067D01*
X014250Y018070D01*
X014353Y018070D01*
X014397Y018061D01*
X014427Y018055D01*
X014438Y018056D01*
X014444Y018073D01*
X014452Y018185D01*
X014427Y018197D01*
X014142Y018196D01*
X014095Y018185D01*
X014043Y018166D01*
X013981Y018137D01*
X013938Y018112D01*
X013898Y018079D01*
X013849Y018037D01*
X013801Y017977D01*
X013772Y017923D01*
X013749Y017863D01*
X013745Y017850D01*
X013743Y017562D01*
X013763Y017514D01*
X013792Y017465D01*
X013821Y017430D01*
X013850Y017404D01*
X013890Y017374D01*
X013940Y017349D01*
X013981Y017335D01*
X014018Y017328D01*
X014068Y017327D01*
X013747Y017552D02*
X013738Y017580D01*
X013742Y017567D02*
X013723Y017628D01*
X013718Y017696D01*
X013726Y017794D01*
X013741Y017843D01*
X013720Y017702D01*
X013732Y017636D01*
X013738Y017704D01*
X013738Y017719D01*
X013471Y017616D02*
X013561Y018186D01*
X013687Y018188D01*
X013697Y018179D01*
X013580Y017322D01*
X013442Y017322D01*
X013174Y017886D01*
X013166Y017884D01*
X013158Y017879D01*
X013073Y017324D01*
X012946Y017325D01*
X012946Y017325D01*
X012935Y017333D01*
X013056Y018187D01*
X013195Y018190D01*
X013459Y017619D01*
X013471Y017616D01*
X012820Y017324D02*
X012685Y017322D01*
X012678Y017329D01*
X012801Y018188D01*
X012942Y018187D01*
X012820Y017324D01*
X012601Y017415D02*
X012635Y017725D01*
X012380Y017728D01*
X012370Y017713D01*
X012355Y017605D01*
X012368Y017593D01*
X012475Y017591D01*
X012474Y017569D01*
X012469Y017484D01*
X012440Y017466D01*
X012410Y017455D01*
X012376Y017449D01*
X012338Y017448D01*
X012279Y017450D01*
X012239Y017461D01*
X012205Y017481D01*
X012170Y017507D01*
X012143Y017545D01*
X012123Y017584D01*
X012111Y017646D01*
X012107Y017707D01*
X012113Y017751D01*
X012130Y017818D01*
X012164Y017880D01*
X012202Y017932D01*
X012250Y017971D01*
X012300Y018004D01*
X012348Y018021D01*
X012416Y018045D01*
X012450Y018053D01*
X012497Y018056D01*
X012600Y018056D01*
X012644Y018047D01*
X012674Y018041D01*
X012685Y018042D01*
X012691Y018059D01*
X012699Y018171D01*
X012674Y018183D01*
X012389Y018182D01*
X012342Y018171D01*
X012290Y018152D01*
X012228Y018123D01*
X012185Y018098D01*
X012145Y018065D01*
X012096Y018023D01*
X012048Y017963D01*
X012019Y017909D01*
X011996Y017849D01*
X011992Y017836D01*
X011990Y017548D01*
X012010Y017500D01*
X012039Y017451D01*
X012068Y017416D01*
X012097Y017390D01*
X012137Y017360D01*
X012187Y017335D01*
X012228Y017321D01*
X012265Y017314D01*
X012315Y017313D01*
X012318Y017312D02*
X012392Y017312D01*
X012451Y017324D01*
X012508Y017344D01*
X012559Y017377D01*
X012601Y017415D01*
X011994Y017538D02*
X011985Y017566D01*
X011989Y017553D02*
X011970Y017614D01*
X011965Y017682D01*
X011973Y017780D01*
X011988Y017829D01*
X011967Y017688D01*
X011979Y017622D01*
X011985Y017690D01*
X011985Y017705D01*
X011874Y017791D02*
X011824Y017748D01*
X011755Y017709D01*
X011725Y017699D01*
X011910Y017345D01*
X011910Y017323D01*
X011753Y017323D01*
X011550Y017704D01*
X011541Y017689D01*
X011541Y017681D01*
X011483Y017326D01*
X011354Y017323D01*
X011355Y017323D02*
X011341Y017334D01*
X011458Y018187D01*
X011738Y018188D01*
X011795Y018168D01*
X011842Y018137D01*
X011895Y018081D01*
X011924Y018027D01*
X011932Y017927D01*
X011903Y017837D01*
X011874Y017791D01*
X011766Y017887D02*
X011782Y017920D01*
X011789Y017955D01*
X011786Y017988D01*
X011769Y018013D01*
X011743Y018040D01*
X011725Y018049D01*
X011603Y018057D01*
X011596Y018055D02*
X011564Y017845D01*
X011706Y017838D01*
X011743Y017861D01*
X011766Y017887D01*
X011110Y018190D02*
X011258Y017336D01*
X011251Y017320D01*
X011131Y017318D01*
X011114Y017320D01*
X011075Y017546D01*
X011016Y017893D01*
X010992Y017875D01*
X010996Y017874D01*
X010917Y017693D01*
X010942Y017683D01*
X011043Y017687D01*
X011067Y017553D02*
X010853Y017553D01*
X010744Y017323D01*
X010616Y017324D01*
X010615Y017324D02*
X010600Y017337D01*
X010990Y018186D01*
X011110Y018190D01*
X010633Y018177D02*
X010510Y017325D01*
X010373Y017324D01*
X010365Y017334D01*
X010408Y017689D01*
X010396Y017696D01*
X010067Y017697D01*
X010058Y017691D01*
X010003Y017325D01*
X009877Y017324D01*
X009871Y017324D02*
X009859Y017335D01*
X009985Y018185D01*
X010120Y018187D01*
X010128Y018177D01*
X010077Y017843D01*
X010088Y017836D01*
X010426Y017831D01*
X010490Y018190D01*
X010619Y018188D01*
X010633Y018177D01*
X009877Y018182D02*
X009863Y018056D01*
X009813Y018058D01*
X009783Y018063D01*
X009646Y018063D01*
X009584Y018054D01*
X009535Y018037D01*
X009478Y018012D01*
X009433Y017987D01*
X009397Y017955D01*
X009351Y017907D01*
X009328Y017864D01*
X009309Y017818D01*
X009298Y017784D01*
X009290Y017748D01*
X009289Y017659D01*
X009301Y017603D01*
X009318Y017562D01*
X009336Y017531D01*
X009366Y017502D01*
X009398Y017482D01*
X009441Y017466D01*
X009477Y017458D01*
X009533Y017458D01*
X009583Y017459D01*
X009616Y017467D01*
X009654Y017478D01*
X009697Y017494D01*
X009735Y017512D01*
X009763Y017526D01*
X009787Y017528D01*
X009787Y017523D02*
X009768Y017380D01*
X009712Y017356D01*
X009643Y017338D01*
X009593Y017325D01*
X009563Y017323D01*
X009458Y017323D01*
X009397Y017334D01*
X009328Y017366D01*
X009272Y017404D01*
X009217Y017460D01*
X009185Y017515D01*
X009158Y017587D01*
X009152Y017615D01*
X009153Y017771D01*
X009175Y017868D01*
X009200Y017931D01*
X009269Y018026D01*
X009306Y018065D01*
X009379Y018121D01*
X009450Y018156D01*
X009494Y018174D01*
X009561Y018191D01*
X009859Y018192D01*
X009877Y018182D01*
X008832Y018178D02*
X008818Y018052D01*
X008768Y018054D01*
X008738Y018059D01*
X008601Y018059D01*
X008539Y018050D01*
X008490Y018033D01*
X008433Y018008D01*
X008388Y017983D01*
X008352Y017951D01*
X008306Y017903D01*
X008283Y017860D01*
X008264Y017814D01*
X008253Y017780D01*
X008245Y017744D01*
X008244Y017655D01*
X008256Y017599D01*
X008273Y017558D01*
X008291Y017527D01*
X008321Y017498D01*
X008353Y017478D01*
X008396Y017462D01*
X008432Y017454D01*
X008488Y017454D01*
X008538Y017455D01*
X008571Y017463D01*
X008609Y017474D01*
X008652Y017490D01*
X008690Y017508D01*
X008718Y017522D01*
X008742Y017524D01*
X008742Y017519D02*
X008723Y017376D01*
X008667Y017352D01*
X008598Y017334D01*
X008548Y017321D01*
X008518Y017319D01*
X008413Y017319D01*
X008352Y017330D01*
X008283Y017362D01*
X008227Y017400D01*
X008172Y017456D01*
X008140Y017511D01*
X008113Y017583D01*
X008107Y017611D01*
X008108Y017767D01*
X008130Y017864D01*
X008155Y017927D01*
X008224Y018022D01*
X008261Y018061D01*
X008334Y018117D01*
X008405Y018152D01*
X008449Y018170D01*
X008516Y018187D01*
X008814Y018188D01*
X008832Y018178D01*
X008031Y017827D02*
X008009Y017695D01*
X007649Y017695D01*
X007645Y017709D01*
X007666Y017836D01*
X007665Y017836D02*
X008022Y017837D01*
X008031Y017827D01*
X007542Y017635D02*
X007516Y017708D01*
X007486Y017750D01*
X007439Y017793D01*
X007445Y017809D01*
X007483Y017863D01*
X007498Y017905D01*
X007504Y017994D01*
X007492Y018055D01*
X007454Y018120D01*
X007418Y018153D01*
X007390Y018171D01*
X007349Y018186D01*
X007101Y018186D01*
X006975Y017322D01*
X006976Y017322D02*
X007322Y017321D01*
X007393Y017344D01*
X007442Y017375D01*
X007473Y017409D01*
X007501Y017442D01*
X007529Y017496D01*
X007540Y017535D01*
X007542Y017635D01*
X007400Y017604D02*
X007394Y017630D01*
X007377Y017658D01*
X007347Y017690D01*
X007316Y017705D01*
X007297Y017711D01*
X007256Y017716D01*
X007187Y017719D01*
X007173Y017715D01*
X007136Y017454D01*
X007146Y017454D02*
X007151Y017452D01*
X007279Y017452D01*
X007309Y017460D01*
X007329Y017470D01*
X007359Y017488D01*
X007381Y017513D01*
X007395Y017541D01*
X007402Y017564D01*
X007400Y017604D01*
X006931Y017627D02*
X006930Y017564D01*
X006908Y017488D01*
X006879Y017440D01*
X006845Y017402D01*
X006787Y017355D01*
X006735Y017332D01*
X006695Y017319D01*
X006665Y017314D01*
X006574Y017314D01*
X006521Y017323D01*
X006391Y017366D01*
X006403Y017503D01*
X006439Y017496D01*
X006482Y017478D01*
X006548Y017460D01*
X006585Y017456D01*
X006684Y017456D01*
X006713Y017463D01*
X006739Y017487D01*
X006768Y017522D01*
X006786Y017561D01*
X006785Y017616D01*
X006771Y017655D01*
X006738Y017690D01*
X006709Y017705D01*
X006650Y017726D01*
X006587Y017755D01*
X006557Y017773D01*
X006521Y017805D01*
X006486Y017868D01*
X006477Y017912D01*
X006472Y017957D01*
X006484Y018008D01*
X006518Y018079D01*
X006574Y018139D01*
X006631Y018176D01*
X006672Y018188D01*
X006837Y018187D01*
X006916Y018172D01*
X006916Y018173D02*
X006891Y018039D01*
X006832Y018048D01*
X006762Y018057D01*
X006704Y018055D01*
X006666Y018038D01*
X006637Y018012D01*
X006618Y017975D01*
X006618Y017940D01*
X006628Y017903D01*
X006671Y017863D01*
X006720Y017850D01*
X006784Y017827D01*
X006846Y017790D01*
X006891Y017737D01*
X006918Y017683D01*
X006931Y017627D01*
X007199Y017852D02*
X007219Y018056D01*
X007230Y018055D02*
X007305Y018055D01*
X007319Y018049D01*
X007338Y018036D01*
X007353Y018017D01*
X007364Y017990D01*
X007366Y017963D01*
X007359Y017932D01*
X007339Y017900D01*
X007318Y017880D01*
X007295Y017865D01*
X007270Y017858D01*
X007247Y017854D01*
X007199Y017852D01*
X006394Y018187D02*
X006295Y017511D01*
X006273Y017458D01*
X006235Y017399D01*
X006188Y017354D01*
X006142Y017329D01*
X006106Y017317D01*
X006070Y017309D01*
X005955Y017309D01*
X005863Y017327D01*
X005801Y017367D01*
X005756Y017419D01*
X005728Y017482D01*
X005719Y017513D01*
X005713Y017548D01*
X005800Y018181D01*
X005803Y018181D02*
X005943Y018182D01*
X005859Y017568D01*
X005865Y017532D01*
X005884Y017483D01*
X005918Y017462D01*
X005957Y017446D01*
X006025Y017444D01*
X006059Y017451D01*
X006097Y017470D01*
X006127Y017509D01*
X006151Y017551D01*
X006252Y018190D01*
X006394Y018187D01*
X005398Y018177D02*
X005373Y018189D01*
X005088Y018188D01*
X005041Y018177D01*
X004989Y018158D01*
X004927Y018129D01*
X004884Y018104D01*
X004844Y018071D01*
X004795Y018029D01*
X004747Y017969D01*
X004718Y017915D01*
X004695Y017855D01*
X004691Y017842D01*
X004689Y017554D01*
X004709Y017506D01*
X004738Y017457D01*
X004767Y017422D01*
X004796Y017396D01*
X004836Y017366D01*
X004886Y017341D01*
X004927Y017327D01*
X004964Y017320D01*
X005014Y017319D01*
X005017Y017318D02*
X005091Y017318D01*
X005150Y017330D01*
X005207Y017350D01*
X005258Y017383D01*
X005300Y017421D01*
X005334Y017731D01*
X005079Y017734D01*
X005069Y017719D01*
X005054Y017611D01*
X005067Y017599D01*
X005174Y017597D01*
X005173Y017575D01*
X005168Y017490D01*
X005139Y017472D01*
X005109Y017461D01*
X005075Y017455D01*
X005037Y017454D01*
X004978Y017456D01*
X004938Y017467D01*
X004904Y017487D01*
X004869Y017513D01*
X004842Y017551D01*
X004822Y017590D01*
X004810Y017652D01*
X004806Y017713D01*
X004812Y017757D01*
X004829Y017824D01*
X004863Y017886D01*
X004901Y017938D01*
X004949Y017977D01*
X004999Y018010D01*
X005047Y018027D01*
X005115Y018051D01*
X005149Y018059D01*
X005196Y018062D01*
X005299Y018062D01*
X005343Y018053D01*
X005373Y018047D01*
X005384Y018048D01*
X005390Y018065D01*
X005398Y018177D01*
X004687Y017835D02*
X004666Y017694D01*
X004678Y017628D01*
X004684Y017696D01*
X004684Y017711D01*
X004664Y017688D02*
X004672Y017786D01*
X004687Y017835D01*
X004664Y017688D02*
X004669Y017620D01*
X004688Y017559D01*
X004684Y017572D02*
X004693Y017544D01*
X004585Y017323D02*
X004445Y017324D01*
X004430Y017817D01*
X004423Y017830D01*
X004412Y017824D01*
X004401Y017821D01*
X004136Y017324D01*
X004125Y017318D01*
X004115Y017321D01*
X003980Y017849D01*
X003963Y017842D01*
X003787Y017324D01*
X003644Y017324D01*
X003643Y017324D02*
X003920Y018189D01*
X004040Y018187D01*
X004160Y017702D01*
X004174Y017710D01*
X004429Y018188D01*
X004554Y018188D01*
X004585Y017323D01*
X003667Y017652D02*
X003626Y017532D01*
X003590Y017466D01*
X003533Y017398D01*
X003474Y017361D01*
X003418Y017336D01*
X003374Y017324D01*
X003020Y017324D01*
X003018Y017328D02*
X003138Y018189D01*
X003397Y018188D01*
X003471Y018173D01*
X003531Y018142D01*
X003582Y018105D01*
X003622Y018061D01*
X003650Y018015D01*
X003672Y017958D01*
X003685Y017882D01*
X003686Y017757D01*
X003667Y017652D01*
X003518Y017643D02*
X003542Y017738D01*
X003553Y017809D01*
X003548Y017906D01*
X003517Y017984D01*
X003478Y018019D01*
X003443Y018043D01*
X003419Y018050D01*
X003345Y018056D01*
X003269Y018058D01*
X003181Y017451D01*
X003192Y017453D02*
X003306Y017454D01*
X003359Y017463D01*
X003418Y017491D01*
X003459Y017530D01*
X003488Y017580D01*
X003518Y017643D01*
X002703Y017637D02*
X002701Y017537D01*
X002690Y017498D01*
X002662Y017444D01*
X002634Y017411D01*
X002603Y017377D01*
X002554Y017346D01*
X002483Y017323D01*
X002137Y017324D01*
X002136Y017324D02*
X002262Y018188D01*
X002510Y018188D01*
X002551Y018173D01*
X002579Y018155D01*
X002615Y018122D01*
X002653Y018057D01*
X002665Y017996D01*
X002659Y017907D01*
X002644Y017865D01*
X002606Y017811D01*
X002600Y017795D01*
X002647Y017752D01*
X002677Y017710D01*
X002703Y017637D01*
X002561Y017606D02*
X002555Y017632D01*
X002538Y017660D01*
X002508Y017692D01*
X002477Y017707D01*
X002458Y017713D01*
X002417Y017718D01*
X002348Y017721D01*
X002334Y017717D01*
X002297Y017456D01*
X002307Y017456D02*
X002312Y017454D01*
X002440Y017454D01*
X002470Y017462D01*
X002490Y017472D01*
X002520Y017490D01*
X002542Y017515D01*
X002556Y017543D01*
X002563Y017566D01*
X002561Y017606D01*
X002456Y017867D02*
X002431Y017860D01*
X002408Y017856D01*
X002360Y017854D01*
X002380Y018058D01*
X002391Y018057D02*
X002466Y018057D01*
X002480Y018051D01*
X002499Y018038D01*
X002514Y018019D01*
X002525Y017992D01*
X002527Y017965D01*
X002520Y017934D01*
X002500Y017902D01*
X002479Y017882D01*
X002456Y017867D01*
X002145Y018047D02*
X002151Y018064D01*
X002159Y018176D01*
X002134Y018188D01*
X001849Y018187D01*
X001802Y018176D01*
X001750Y018157D01*
X001688Y018128D01*
X001645Y018103D01*
X001605Y018070D01*
X001556Y018028D01*
X001508Y017968D01*
X001479Y017914D01*
X001456Y017854D01*
X001452Y017841D01*
X001450Y017553D01*
X001470Y017505D01*
X001499Y017456D01*
X001528Y017421D01*
X001557Y017395D01*
X001597Y017365D01*
X001647Y017340D01*
X001688Y017326D01*
X001725Y017319D01*
X001775Y017318D01*
X001778Y017317D02*
X001852Y017317D01*
X001911Y017329D01*
X001968Y017349D01*
X002019Y017382D01*
X002061Y017420D01*
X002095Y017730D01*
X001840Y017733D01*
X001830Y017718D01*
X001815Y017610D01*
X001828Y017598D01*
X001935Y017596D01*
X001934Y017574D01*
X001929Y017489D01*
X001900Y017471D01*
X001870Y017460D01*
X001836Y017454D01*
X001798Y017453D01*
X001739Y017455D01*
X001699Y017466D01*
X001665Y017486D01*
X001630Y017512D01*
X001603Y017550D01*
X001583Y017589D01*
X001571Y017651D01*
X001567Y017712D01*
X001573Y017756D01*
X001590Y017823D01*
X001624Y017885D01*
X001662Y017937D01*
X001710Y017976D01*
X001760Y018009D01*
X001808Y018026D01*
X001876Y018050D01*
X001910Y018058D01*
X001957Y018061D01*
X002060Y018061D01*
X002104Y018052D01*
X002134Y018046D01*
X002145Y018047D01*
X001448Y017834D02*
X001427Y017693D01*
X001439Y017627D01*
X001445Y017695D01*
X001445Y017710D01*
X001425Y017687D02*
X001433Y017785D01*
X001448Y017834D01*
X001425Y017687D02*
X001430Y017619D01*
X001449Y017558D01*
X001445Y017571D02*
X001454Y017543D01*
X006125Y013286D02*
X006104Y013065D01*
X006125Y013286D02*
X006515Y013039D01*
X006525Y013036D01*
X006533Y013040D01*
X006552Y013252D01*
X007146Y012809D01*
X006677Y012991D01*
X007041Y012869D02*
X007076Y012848D01*
X002430Y012652D02*
X002025Y012652D01*
X001995Y012647D01*
X001965Y012637D01*
X001950Y012627D01*
X001930Y012612D01*
X001905Y012592D01*
X001890Y012572D01*
X001875Y012542D01*
X001865Y012512D01*
X001860Y012492D01*
X001855Y012477D01*
X001855Y012432D01*
X001860Y012402D01*
X001875Y012367D01*
X001885Y012347D01*
X001900Y012322D01*
X001945Y012282D01*
X001940Y012287D02*
X001905Y012252D01*
X001885Y012227D01*
X001870Y012197D01*
X001860Y012167D01*
X001855Y012137D01*
X001855Y012097D01*
X001865Y012057D01*
X001880Y012017D01*
X001900Y011987D01*
X001925Y011962D01*
X001955Y011942D01*
X001990Y011927D01*
X002035Y011917D01*
X002430Y011917D01*
X002430Y012007D01*
X002055Y012007D01*
X002015Y012012D01*
X002020Y012012D02*
X001995Y012022D01*
X001970Y012042D01*
X001955Y012057D01*
X001940Y012092D01*
X001940Y012152D01*
X001955Y012187D01*
X001980Y012217D01*
X002010Y012232D01*
X002040Y012242D01*
X002430Y012242D01*
X002430Y012332D01*
X002040Y012332D01*
X002005Y012342D01*
X001975Y012362D01*
X001955Y012387D01*
X001940Y012417D01*
X001940Y012477D01*
X001950Y012502D01*
X001965Y012527D01*
X001990Y012547D01*
X002020Y012562D01*
X002055Y012567D01*
X002430Y012567D01*
X002430Y012652D01*
X002220Y011797D02*
X002175Y011807D01*
X002120Y011807D01*
X002080Y011797D01*
X002030Y011782D01*
X001990Y011762D01*
X001950Y011732D01*
X001915Y011692D01*
X001890Y011652D01*
X001870Y011607D01*
X001860Y011567D01*
X001855Y011542D01*
X001855Y011487D01*
X001865Y011432D01*
X001885Y011382D01*
X001900Y011357D01*
X001920Y011327D01*
X001950Y011297D01*
X001975Y011277D01*
X002005Y011257D01*
X002040Y011242D01*
X002090Y011227D01*
X002130Y011222D01*
X002165Y011222D01*
X002230Y011232D01*
X002270Y011247D01*
X002310Y011267D01*
X002360Y011307D01*
X002395Y011352D01*
X002415Y011392D01*
X002430Y011432D01*
X002440Y011477D01*
X002440Y011547D01*
X002430Y011597D01*
X002415Y011637D01*
X002390Y011682D01*
X002350Y011732D01*
X002305Y011762D01*
X002265Y011782D01*
X002220Y011797D01*
X002210Y011707D02*
X002180Y011712D01*
X002120Y011712D01*
X002075Y011702D01*
X002040Y011687D01*
X002005Y011667D01*
X002015Y011672D02*
X001990Y011652D01*
X001975Y011632D01*
X001960Y011607D01*
X001950Y011582D01*
X001940Y011542D01*
X001940Y011487D01*
X001950Y011447D01*
X001960Y011417D01*
X001960Y011422D02*
X001970Y011402D01*
X001990Y011377D01*
X002015Y011357D01*
X002035Y011342D01*
X002065Y011327D01*
X002105Y011317D01*
X002185Y011317D01*
X002230Y011327D01*
X002265Y011342D01*
X002295Y011367D01*
X002315Y011387D01*
X002335Y011412D01*
X002350Y011447D01*
X002360Y011507D01*
X002355Y011492D02*
X002355Y011542D01*
X002350Y011577D01*
X002340Y011602D01*
X002325Y011627D01*
X002305Y011652D01*
X002275Y011677D01*
X002235Y011697D01*
X002210Y011707D01*
X002345Y011147D02*
X002345Y011042D01*
X002340Y011017D01*
X002330Y010982D01*
X002310Y010947D01*
X002290Y010917D01*
X002260Y010892D01*
X002230Y010877D01*
X002195Y010867D01*
X002165Y010862D01*
X002125Y010862D01*
X002085Y010872D01*
X002050Y010887D01*
X002025Y010902D01*
X002000Y010927D01*
X001980Y010957D01*
X001970Y010977D01*
X001960Y011002D01*
X001950Y011042D01*
X001950Y011142D01*
X001870Y011142D01*
X001870Y011027D01*
X001875Y010992D01*
X001885Y010957D01*
X001900Y010922D01*
X001920Y010887D01*
X001950Y010852D01*
X001970Y010832D01*
X002010Y010807D01*
X002040Y010792D01*
X002080Y010777D01*
X002125Y010772D01*
X002180Y010772D01*
X002220Y010777D01*
X002270Y010797D01*
X002300Y010812D01*
X002340Y010842D01*
X002380Y010892D01*
X002405Y010937D01*
X002420Y010982D01*
X002430Y011027D01*
X002430Y011147D01*
X002345Y011147D01*
X002365Y010602D02*
X002350Y010597D01*
X002335Y010587D01*
X002320Y010572D01*
X002315Y010557D01*
X002315Y010527D01*
X002320Y010512D01*
X002330Y010497D01*
X002350Y010482D01*
X002365Y010477D01*
X002385Y010477D01*
X002405Y010487D01*
X002420Y010497D01*
X002430Y010512D01*
X002435Y010532D01*
X002435Y010537D02*
X002435Y010552D01*
X002430Y010567D01*
X002420Y010582D01*
X002400Y010597D01*
X002385Y010602D01*
X002365Y010602D01*
X002430Y010317D02*
X002105Y010317D01*
X002070Y010312D01*
X002035Y010302D01*
X002005Y010292D01*
X001975Y010277D01*
X001945Y010257D01*
X001915Y010222D01*
X001895Y010192D01*
X001875Y010152D01*
X001865Y010117D01*
X001855Y010062D01*
X001855Y010007D01*
X001865Y009947D01*
X001875Y009917D01*
X001890Y009882D01*
X001910Y009852D01*
X001935Y009822D01*
X001975Y009787D01*
X002015Y009767D01*
X002065Y009747D01*
X002105Y009742D01*
X002180Y009742D01*
X002235Y009752D01*
X002275Y009767D01*
X002320Y009792D01*
X002365Y009827D01*
X002395Y009862D01*
X002420Y009907D01*
X002435Y009952D01*
X002440Y009987D01*
X002440Y010057D01*
X002430Y010092D01*
X002415Y010127D01*
X002390Y010162D01*
X002295Y010162D01*
X002310Y010147D01*
X002330Y010122D01*
X002345Y010097D01*
X002355Y010067D01*
X002355Y009997D01*
X002350Y009962D01*
X002330Y009922D01*
X002295Y009882D01*
X002270Y009862D01*
X002230Y009842D01*
X002185Y009832D01*
X002110Y009832D01*
X002085Y009837D01*
X002060Y009847D01*
X002030Y009862D01*
X002000Y009882D01*
X001975Y009912D01*
X001955Y009942D01*
X001945Y009977D01*
X001940Y010007D01*
X001940Y010057D01*
X001945Y010092D01*
X001960Y010132D01*
X001985Y010172D01*
X002025Y010207D01*
X002070Y010222D01*
X002105Y010227D01*
X002430Y010227D01*
X002430Y010317D01*
X002310Y009667D02*
X002255Y009667D01*
X002225Y009657D01*
X002195Y009642D01*
X002170Y009617D01*
X002150Y009587D01*
X002125Y009527D01*
X002075Y009367D01*
X002060Y009332D01*
X002045Y009312D01*
X002025Y009302D01*
X001995Y009302D01*
X001965Y009317D01*
X001955Y009337D01*
X001955Y009637D01*
X001870Y009637D01*
X001870Y009367D01*
X001875Y009322D01*
X001890Y009282D01*
X001905Y009257D01*
X001930Y009232D01*
X001955Y009217D01*
X001995Y009207D01*
X002035Y009207D01*
X002070Y009217D01*
X002100Y009242D01*
X002125Y009267D01*
X002145Y009302D01*
X002160Y009342D01*
X002180Y009397D01*
X002205Y009482D01*
X002220Y009522D01*
X002240Y009557D01*
X002260Y009572D01*
X002300Y009572D01*
X002320Y009562D01*
X002335Y009547D01*
X002345Y009517D01*
X002345Y009207D01*
X002430Y009207D01*
X002430Y009517D01*
X002425Y009552D01*
X002410Y009592D01*
X002395Y009617D01*
X002370Y009642D01*
X002340Y009657D01*
X002310Y009667D01*
X002245Y009112D02*
X002290Y009092D01*
X002330Y009067D01*
X002375Y009022D01*
X002395Y008992D01*
X002410Y008967D01*
X002425Y008932D01*
X002435Y008897D01*
X002440Y008862D01*
X002440Y008802D01*
X002435Y008767D01*
X002415Y008707D01*
X002400Y008677D01*
X002380Y008647D01*
X002350Y008617D01*
X002320Y008592D01*
X002280Y008567D01*
X002245Y008552D01*
X002205Y008542D01*
X002175Y008537D01*
X002125Y008537D01*
X002075Y008547D01*
X002030Y008562D01*
X001980Y008587D01*
X001935Y008627D01*
X001900Y008672D01*
X001875Y008722D01*
X001860Y008772D01*
X001855Y008807D01*
X001855Y008862D01*
X001865Y008907D01*
X001880Y008957D01*
X001920Y009017D01*
X001960Y009057D01*
X002025Y009097D01*
X002235Y008722D01*
X002165Y008687D01*
X002005Y008972D01*
X001990Y008962D01*
X001970Y008937D01*
X001950Y008907D01*
X001940Y008867D01*
X001940Y008807D01*
X001945Y008777D01*
X001955Y008747D01*
X001970Y008717D01*
X002000Y008687D01*
X002025Y008667D01*
X002060Y008647D01*
X002090Y008637D01*
X002120Y008632D01*
X002190Y008632D01*
X002225Y008642D01*
X002260Y008657D01*
X002295Y008682D01*
X002320Y008707D01*
X002330Y008727D01*
X002350Y008762D01*
X002355Y008797D01*
X002355Y008872D01*
X002350Y008902D01*
X002335Y008932D01*
X002320Y008957D01*
X002295Y008982D01*
X002260Y009002D01*
X002230Y009017D01*
X002200Y009027D01*
X002175Y009032D01*
X002185Y009122D01*
X002245Y009112D01*
X002345Y008467D02*
X002345Y008322D01*
X002340Y008302D01*
X002330Y008287D01*
X002315Y008272D01*
X002290Y008262D01*
X001950Y008262D01*
X001950Y008467D01*
X001870Y008467D01*
X001870Y008262D01*
X001725Y008262D01*
X001725Y008172D01*
X002270Y008172D01*
X002305Y008177D01*
X002345Y008192D01*
X002365Y008202D01*
X002395Y008227D01*
X002415Y008262D01*
X002425Y008292D01*
X002430Y008312D01*
X002430Y008467D01*
X002420Y008452D01*
X002425Y008467D02*
X002345Y008467D01*
X002430Y008002D02*
X001600Y008002D01*
X001600Y007912D01*
X002430Y007912D01*
X002430Y008002D01*
X002430Y007702D02*
X001865Y007702D01*
X001865Y007612D01*
X002430Y007612D01*
X002430Y007702D01*
X001785Y007667D02*
X001780Y007682D01*
X001760Y007702D01*
X001750Y007707D01*
X001745Y007712D01*
X001720Y007712D01*
X001705Y007707D01*
X001690Y007697D01*
X001680Y007682D01*
X001675Y007667D01*
X001675Y007647D01*
X001680Y007632D01*
X001690Y007617D01*
X001705Y007607D01*
X001725Y007602D01*
X001745Y007602D01*
X001770Y007617D01*
X001780Y007632D01*
X001785Y007652D01*
X001785Y007657D02*
X001785Y007667D01*
X001990Y007392D02*
X001955Y007367D01*
X001920Y007332D01*
X001900Y007307D01*
X001875Y007262D01*
X001865Y007232D01*
X001860Y007202D01*
X001855Y007167D01*
X001855Y007132D01*
X001860Y007097D01*
X001870Y007057D01*
X001890Y007012D01*
X001915Y006972D01*
X001950Y006937D01*
X001975Y006917D01*
X002010Y006897D01*
X002045Y006882D01*
X002085Y006872D01*
X002135Y006867D01*
X002180Y006867D01*
X002225Y006872D01*
X002270Y006887D01*
X002300Y006902D01*
X002335Y006927D01*
X002365Y006952D01*
X002390Y006982D01*
X002410Y007022D01*
X002430Y007072D01*
X002440Y007127D01*
X002440Y007172D01*
X002435Y007207D01*
X002420Y007252D01*
X002405Y007282D01*
X002315Y007282D01*
X002325Y007262D01*
X002345Y007217D01*
X002355Y007182D01*
X002355Y007107D01*
X002345Y007072D01*
X002325Y007037D01*
X002300Y007007D01*
X002275Y006982D01*
X002240Y006967D01*
X002210Y006957D01*
X002175Y006952D01*
X002140Y006952D01*
X002100Y006957D01*
X002070Y006967D01*
X002030Y006982D01*
X002005Y007002D01*
X001985Y007022D01*
X001960Y007052D01*
X001945Y007092D01*
X001940Y007117D01*
X001940Y007182D01*
X001950Y007217D01*
X001965Y007247D01*
X001990Y007277D01*
X002020Y007302D01*
X002045Y007322D01*
X002115Y007342D01*
X002440Y007342D01*
X002485Y007337D01*
X002515Y007327D01*
X002550Y007307D01*
X002580Y007277D01*
X002600Y007242D01*
X002610Y007217D01*
X002620Y007177D01*
X002620Y007097D01*
X002615Y007052D01*
X002595Y006977D01*
X002675Y006957D01*
X002695Y007027D01*
X002705Y007107D01*
X002705Y007167D01*
X002695Y007227D01*
X002680Y007272D01*
X002660Y007307D01*
X002635Y007337D01*
X002605Y007367D01*
X002560Y007397D01*
X002520Y007412D01*
X002475Y007422D01*
X002415Y007432D01*
X002420Y007432D02*
X002120Y007432D01*
X002065Y007422D01*
X002020Y007407D01*
X001990Y007392D01*
X005682Y005697D02*
X005682Y005457D01*
X005683Y005448D01*
X005688Y005439D01*
X005694Y005433D01*
X005703Y005428D01*
X005712Y005427D01*
X005912Y005427D01*
X006132Y005237D01*
X006132Y005238D02*
X006140Y005233D01*
X006150Y005232D01*
X006159Y005235D01*
X006166Y005240D01*
X006171Y005248D01*
X006172Y005258D01*
X006172Y005257D02*
X006172Y005897D01*
X006171Y005906D01*
X006166Y005915D01*
X006160Y005921D01*
X006151Y005926D01*
X006142Y005927D01*
X005912Y005727D01*
X005712Y005727D01*
X005703Y005726D01*
X005694Y005721D01*
X005688Y005715D01*
X005683Y005706D01*
X005682Y005697D01*
X014775Y017325D02*
X014906Y017325D01*
X014911Y017328D01*
X015029Y018179D01*
X015019Y018188D01*
X014890Y018188D01*
X014890Y018185D02*
X014767Y017337D01*
X014775Y017325D01*
X015172Y017325D02*
X014971Y017704D01*
X015094Y017762D02*
X015106Y017757D01*
X015334Y017331D01*
X015331Y017324D01*
X015172Y017325D01*
X015404Y017331D02*
X015527Y018190D01*
X015668Y018189D01*
X015546Y017326D01*
X015411Y017324D01*
X015404Y017331D01*
X015850Y017330D02*
X015856Y017324D01*
X015989Y017323D01*
X015995Y017328D01*
X016098Y018059D01*
X015953Y018053D02*
X015850Y017330D01*
X015094Y017762D02*
X015399Y018167D01*
X015397Y018183D01*
X015390Y018188D01*
X015236Y018187D01*
X015232Y018184D02*
X015014Y017889D01*
X015000Y017880D01*
X015740Y018068D02*
X015755Y018187D01*
X015754Y018186D02*
X016324Y018189D01*
X016303Y018060D01*
X016302Y018057D01*
X015752Y018058D01*
X015740Y018068D01*
X016754Y018190D02*
X016638Y017330D01*
X016644Y017324D01*
X016778Y017323D01*
X016832Y017694D01*
X016844Y017696D01*
X016997Y017696D01*
X017047Y017708D01*
X017100Y017733D01*
X017156Y017777D01*
X017200Y017841D01*
X017220Y017903D01*
X017228Y017992D01*
X017203Y018058D01*
X017163Y018112D01*
X017103Y018160D01*
X017046Y018183D01*
X016992Y018188D01*
X016755Y018189D01*
X016889Y018048D02*
X016857Y017851D01*
X016867Y017837D01*
X017003Y017838D01*
X017035Y017860D01*
X017066Y017895D01*
X017077Y017929D01*
X017078Y017965D01*
X017074Y018000D01*
X017057Y018024D01*
X017030Y018046D01*
X017010Y018052D01*
X016897Y018056D01*
X017341Y018187D02*
X017621Y018188D01*
X017678Y018168D01*
X017725Y018137D01*
X017778Y018081D01*
X017807Y018027D01*
X017815Y017927D01*
X017786Y017837D01*
X017757Y017791D01*
X017707Y017748D01*
X017638Y017709D01*
X017608Y017699D01*
X017793Y017345D01*
X017793Y017323D01*
X017636Y017323D01*
X017433Y017704D01*
X017424Y017689D01*
X017424Y017681D01*
X017366Y017326D01*
X017237Y017323D01*
X017230Y017323D02*
X017224Y017334D01*
X017341Y018187D01*
X017479Y018055D02*
X017447Y017845D01*
X017589Y017838D01*
X017626Y017861D01*
X017649Y017887D01*
X017665Y017920D01*
X017672Y017955D01*
X017669Y017988D01*
X017652Y018013D01*
X017626Y018040D01*
X017608Y018049D01*
X017486Y018057D01*
X017903Y017924D02*
X017874Y017848D01*
X017839Y017684D01*
X017837Y017582D01*
X017850Y017507D01*
X017878Y017453D01*
X017917Y017399D01*
X017962Y017360D01*
X018018Y017329D01*
X018105Y017313D01*
X018107Y017314D02*
X018189Y017314D01*
X018263Y017333D01*
X018343Y017373D01*
X018405Y017440D01*
X018460Y017519D01*
X018496Y017594D01*
X018523Y017683D01*
X018542Y017755D01*
X018552Y017824D01*
X018549Y017957D01*
X018532Y018021D01*
X018498Y018085D01*
X018448Y018142D01*
X018419Y018162D01*
X018381Y018183D01*
X018374Y018187D01*
X018145Y018188D01*
X018074Y018156D01*
X018017Y018111D01*
X017985Y018072D01*
X017957Y018035D01*
X017956Y018033D02*
X017940Y018008D01*
X017903Y017924D01*
X018030Y017872D02*
X018005Y017793D01*
X017986Y017708D01*
X017975Y017615D01*
X017987Y017557D01*
X017998Y017525D01*
X018030Y017483D01*
X018071Y017455D01*
X018113Y017447D01*
X018145Y017444D01*
X018153Y017444D01*
X018149Y017445D02*
X018191Y017453D01*
X018227Y017469D01*
X018255Y017488D01*
X018283Y017512D01*
X018310Y017545D01*
X018338Y017586D01*
X018364Y017637D01*
X018387Y017707D01*
X018405Y017782D01*
X018412Y017837D01*
X018417Y017892D01*
X018405Y017946D01*
X018393Y017988D01*
X018372Y018023D01*
X018344Y018046D01*
X018308Y018063D01*
X018271Y018067D01*
X018231Y018067D01*
X018200Y018062D01*
X018157Y018044D01*
X018122Y018017D01*
X018085Y017978D01*
X018061Y017940D01*
X018030Y017872D01*
X017601Y017687D02*
X017792Y017324D01*
X017629Y017325D01*
X017434Y017688D01*
X017426Y017692D01*
X017415Y017700D01*
X017363Y017324D01*
X017230Y017323D01*
X017225Y017331D01*
D20*
X025217Y011736D02*
X025219Y011748D01*
X025224Y011759D01*
X025233Y011768D01*
X025244Y011773D01*
X025256Y011775D01*
X025268Y011773D01*
X025279Y011768D01*
X025288Y011759D01*
X025293Y011748D01*
X025295Y011736D01*
X025293Y011724D01*
X025288Y011713D01*
X025279Y011704D01*
X025268Y011699D01*
X025256Y011697D01*
X025244Y011699D01*
X025233Y011704D01*
X025224Y011713D01*
X025219Y011724D01*
X025217Y011736D01*
X017935Y005942D02*
X017937Y005954D01*
X017942Y005965D01*
X017951Y005974D01*
X017962Y005979D01*
X017974Y005981D01*
X017986Y005979D01*
X017997Y005974D01*
X018006Y005965D01*
X018011Y005954D01*
X018013Y005942D01*
X018011Y005930D01*
X018006Y005919D01*
X017997Y005910D01*
X017986Y005905D01*
X017974Y005903D01*
X017962Y005905D01*
X017951Y005910D01*
X017942Y005919D01*
X017937Y005930D01*
X017935Y005942D01*
D21*
X012191Y011477D03*
X023978Y011827D03*
D22*
X016908Y007916D02*
X016908Y007643D01*
X016908Y007266D02*
X016908Y006993D01*
D23*
X020366Y012528D02*
X020368Y012540D01*
X020374Y012552D01*
X020382Y012560D01*
X020394Y012566D01*
X020406Y012568D01*
X020418Y012566D01*
X020430Y012560D01*
X020438Y012552D01*
X020444Y012540D01*
X020446Y012528D01*
X020444Y012516D01*
X020438Y012504D01*
X020430Y012496D01*
X020418Y012490D01*
X020406Y012488D01*
X020394Y012490D01*
X020382Y012496D01*
X020374Y012504D01*
X020368Y012516D01*
X020366Y012528D01*
D24*
X032084Y011916D02*
X032298Y013483D01*
X032302Y013499D01*
X032308Y013514D01*
X032318Y013527D01*
X032330Y013538D01*
X032344Y013546D01*
X032359Y013552D01*
X032375Y013554D01*
X032375Y013553D02*
X033461Y013553D01*
X033511Y013504D01*
X033462Y012992D01*
X033274Y012992D01*
X033314Y013331D01*
X033296Y013359D01*
X033270Y013382D01*
X032523Y013385D01*
X032482Y013364D01*
X032451Y013329D01*
X032287Y012075D01*
X032307Y012051D01*
X032328Y012036D01*
X033075Y012021D01*
X033117Y012043D01*
X033143Y012068D01*
X033162Y012107D01*
X033213Y012549D01*
X032833Y012551D01*
X032854Y012675D01*
X033414Y012673D01*
X033414Y012674D02*
X033313Y011933D01*
X033371Y011879D02*
X033366Y011860D01*
X033358Y011842D01*
X033347Y011827D01*
X033333Y011813D01*
X033316Y011803D01*
X033298Y011796D01*
X033279Y011793D01*
X032134Y011793D01*
X032133Y011792D01*
X032102Y011492D01*
X032248Y011492D01*
X032183Y010922D01*
X034179Y010922D01*
X034179Y010924D01*
X034045Y011735D01*
X034195Y011735D01*
X034235Y012053D01*
X033968Y012053D01*
X034050Y012673D01*
X033486Y012672D01*
X033371Y011878D01*
X033469Y011830D02*
X033568Y012597D01*
X033566Y012595D02*
X033712Y012594D01*
X033599Y011830D01*
X033469Y011830D01*
X033501Y011700D02*
X033521Y011693D01*
X033534Y011679D01*
X033533Y011585D01*
X033521Y011567D01*
X033467Y011565D01*
X033413Y011565D01*
X033394Y011580D01*
X033356Y011581D01*
X033338Y011567D01*
X033318Y011550D01*
X033307Y011529D01*
X033305Y011475D01*
X033323Y011455D01*
X033339Y011442D01*
X033391Y011427D01*
X033430Y011419D01*
X033468Y011398D01*
X033499Y011366D01*
X033524Y011332D01*
X033544Y011276D01*
X033545Y011180D01*
X033532Y011141D01*
X033510Y011109D01*
X033481Y011070D01*
X033454Y011047D01*
X033408Y011024D01*
X033362Y011000D01*
X033223Y010999D01*
X033202Y011011D01*
X033152Y011025D01*
X033123Y011028D01*
X033107Y011024D01*
X033091Y010998D01*
X032651Y010998D01*
X032749Y011702D01*
X032750Y011702D02*
X033128Y011704D01*
X033119Y011580D01*
X032867Y011579D01*
X032854Y011427D01*
X033062Y011426D01*
X033044Y011287D01*
X032822Y011287D01*
X032805Y011132D01*
X033102Y011132D01*
X033113Y011149D01*
X033120Y011154D01*
X033122Y011158D01*
X033132Y011165D01*
X033172Y011167D01*
X033191Y011152D01*
X033226Y011134D01*
X033364Y011132D01*
X033381Y011144D01*
X033388Y011152D01*
X033397Y011160D01*
X033404Y011168D01*
X033411Y011179D01*
X033414Y011255D01*
X033401Y011278D01*
X033392Y011289D01*
X033367Y011301D01*
X033317Y011320D01*
X033281Y011337D01*
X033240Y011362D01*
X033209Y011390D01*
X033186Y011419D01*
X033171Y011445D01*
X033171Y011555D01*
X033187Y011599D01*
X033207Y011620D01*
X033228Y011638D01*
X033248Y011658D01*
X033267Y011674D01*
X033280Y011685D01*
X033320Y011698D01*
X033501Y011700D01*
X033677Y011829D02*
X034116Y011830D01*
X034134Y011958D01*
X033844Y011963D01*
X033924Y012597D01*
X033783Y012596D01*
X033783Y012595D02*
X033677Y011829D01*
X033827Y011702D02*
X033513Y010994D01*
X033518Y010993D02*
X033651Y010993D01*
X033732Y011172D01*
X033902Y011173D01*
X033924Y010997D01*
X034057Y010996D01*
X033941Y011703D01*
X033827Y011702D01*
X033840Y011439D02*
X033856Y011438D01*
X033872Y011310D01*
X033794Y011312D01*
X033840Y011439D01*
X033227Y011849D02*
X032150Y011851D01*
X032135Y011853D01*
X032122Y011857D01*
X032109Y011865D01*
X032099Y011875D01*
X032091Y011888D01*
X032086Y011901D01*
X032084Y011916D01*
X032226Y011704D02*
X032210Y011580D01*
X032371Y011580D01*
X032289Y010993D01*
X032426Y010993D01*
X032507Y011582D01*
X032672Y011582D01*
X032686Y011703D01*
X032227Y011703D01*
X032460Y012291D02*
X032532Y012290D01*
X032551Y012511D01*
X032477Y012511D01*
X032460Y012291D01*
X032397Y012355D02*
X032407Y012445D01*
X032604Y012445D01*
X032597Y012356D01*
X032585Y012355D01*
X032395Y012354D01*
X032519Y012911D02*
X032577Y012912D01*
X032606Y013168D01*
X032621Y013187D01*
X033111Y013187D01*
X033120Y013174D01*
X033096Y012910D01*
X033150Y012911D01*
X033179Y013193D01*
X033171Y013210D01*
X033152Y013227D01*
X032592Y013228D01*
X032566Y013209D01*
X032553Y013178D01*
X032519Y012912D01*
X033461Y013553D02*
X033461Y013553D01*
X033313Y011933D02*
X033309Y011915D01*
X033301Y011898D01*
X033291Y011883D01*
X033278Y011870D01*
X033262Y011860D01*
X033245Y011852D01*
X033227Y011849D01*
D25*
X033221Y011864D02*
X033257Y011875D01*
X033274Y011888D01*
X033289Y011912D01*
X033295Y011929D01*
X033397Y012660D01*
X032865Y012658D01*
X032849Y012565D01*
X033225Y012564D01*
X033226Y012541D01*
X033179Y012105D01*
X033155Y012058D01*
X033122Y012029D01*
X033085Y012008D01*
X032321Y012020D01*
X032283Y012045D01*
X032289Y012046D01*
X032273Y012070D01*
X032434Y013334D01*
X032462Y013368D01*
X032495Y013390D01*
X032528Y013400D01*
X033272Y013399D01*
X033299Y013379D01*
X033321Y013354D01*
X033330Y013339D01*
X033293Y013005D01*
X033446Y013005D01*
X033493Y013498D01*
X033457Y013539D01*
X032364Y013535D01*
X032342Y013527D01*
X032322Y013510D01*
X032315Y013483D01*
X032101Y011913D01*
X032106Y011889D01*
X032123Y011875D01*
X032150Y011866D01*
X032637Y011869D01*
X032649Y011866D02*
X033221Y011864D01*
X033289Y011777D02*
X032143Y011774D01*
X032119Y011504D01*
X032266Y011505D01*
X032201Y010939D01*
X032198Y010934D02*
X034165Y010936D01*
X034027Y011747D01*
X034181Y011754D01*
X034182Y011749D01*
X034219Y012040D01*
X033954Y012042D01*
X034033Y012661D01*
X033496Y012655D01*
X033385Y011857D01*
X033370Y011832D01*
X033348Y011811D01*
X033313Y011787D01*
X033289Y011777D01*
X033319Y011714D02*
X033268Y011694D01*
X033186Y011624D01*
X033175Y011604D01*
X033158Y011551D01*
X033155Y011437D01*
X033202Y011372D01*
X033250Y011334D01*
X033318Y011305D01*
X033388Y011272D01*
X033397Y011247D01*
X033397Y011185D01*
X033362Y011150D01*
X033225Y011152D01*
X033185Y011176D01*
X033151Y011180D01*
X033119Y011173D01*
X033096Y011148D01*
X032821Y011149D01*
X032836Y011271D01*
X033055Y011272D01*
X033079Y011434D01*
X033070Y011440D01*
X032869Y011440D01*
X032880Y011563D01*
X033130Y011565D01*
X033145Y011707D01*
X033134Y011714D01*
X032745Y011715D01*
X032636Y010979D01*
X032650Y010979D02*
X032660Y010980D01*
X033096Y010983D01*
X033114Y011010D01*
X033186Y011001D01*
X033214Y010984D01*
X033364Y010983D01*
X033469Y011035D01*
X033518Y011093D01*
X033553Y011146D01*
X033561Y011211D01*
X033557Y011301D01*
X033526Y011368D01*
X033521Y011360D01*
X033483Y011407D01*
X033439Y011431D01*
X033391Y011445D01*
X033343Y011460D01*
X033321Y011485D01*
X033324Y011525D01*
X033357Y011564D01*
X033388Y011565D01*
X033401Y011555D01*
X033525Y011553D01*
X033545Y011573D01*
X033550Y011678D01*
X033538Y011705D01*
X033505Y011714D01*
X033319Y011714D01*
X033454Y011813D02*
X033553Y012609D01*
X033566Y012609D02*
X033730Y012606D01*
X033613Y011820D01*
X033601Y011812D01*
X033454Y011813D01*
X033662Y011817D02*
X033771Y012613D01*
X033783Y012612D02*
X033945Y012611D01*
X033862Y011975D01*
X034139Y011971D01*
X034148Y011957D01*
X034129Y011815D01*
X033672Y011813D01*
X033662Y011817D01*
X033821Y011718D02*
X033493Y010980D01*
X033512Y010981D02*
X033656Y010978D01*
X033741Y011159D01*
X033889Y011159D01*
X033908Y010990D01*
X033917Y010984D01*
X034063Y010981D01*
X034072Y010987D01*
X033957Y011707D01*
X033949Y011715D01*
X033821Y011718D01*
X033833Y011452D02*
X033863Y011452D01*
X033866Y011446D02*
X033891Y011298D01*
X033851Y011297D01*
X033779Y011297D01*
X033817Y011409D01*
X033833Y011452D01*
X032683Y011572D02*
X032702Y011714D01*
X032224Y011716D01*
X032209Y011703D01*
X032195Y011575D01*
X032208Y011568D01*
X032354Y011566D01*
X032273Y010977D01*
X032288Y010974D02*
X032433Y010976D01*
X032520Y011567D01*
X032676Y011567D01*
X032683Y011572D01*
X032520Y012304D02*
X032475Y012303D01*
X032502Y012320D01*
X032507Y012470D01*
X032516Y012485D02*
X032526Y012471D01*
X032535Y012497D02*
X032520Y012304D01*
X032477Y012306D02*
X032491Y012494D01*
X032535Y012497D01*
X032592Y012429D02*
X032585Y012370D01*
X032411Y012369D01*
X032416Y012414D01*
X032570Y012413D01*
X032567Y012392D01*
X032431Y012393D01*
X032419Y012432D02*
X032592Y012429D01*
X032561Y012924D02*
X032535Y012924D01*
X032538Y012926D02*
X032573Y013190D01*
X032587Y013208D01*
X032601Y013213D01*
X033147Y013209D01*
X033163Y013191D01*
X033138Y012926D01*
X033110Y012922D01*
X033114Y012940D01*
X033137Y013186D01*
X033118Y013199D01*
X032608Y013202D01*
X032592Y013177D01*
X032561Y012924D01*
M02*
