G75*
G70*
%OFA0B0*%
%FSLAX24Y24*%
%IPPOS*%
%LPD*%
%AMOC8*
5,1,8,0,0,1.08239X$1,22.5*
%
%ADD10C,0.0050*%
%ADD11C,0.0080*%
%ADD12C,0.0000*%
%ADD13C,0.0060*%
%ADD14C,0.0120*%
%ADD15C,0.0070*%
%ADD16C,0.0100*%
%ADD17C,0.0010*%
%ADD18C,0.0040*%
%ADD19C,0.0020*%
D10*
X001677Y000927D02*
X033631Y000927D01*
X033630Y000927D02*
X033684Y000929D01*
X033738Y000934D01*
X033791Y000943D01*
X033844Y000956D01*
X033895Y000973D01*
X033945Y000993D01*
X033993Y001017D01*
X034040Y001044D01*
X034085Y001075D01*
X034127Y001108D01*
X034167Y001145D01*
X034204Y001184D01*
X034238Y001226D01*
X034269Y001270D01*
X034297Y001316D01*
X034321Y001364D01*
X034342Y001414D01*
X034360Y001465D01*
X034374Y001517D01*
X034384Y001570D01*
X034390Y001624D01*
X034392Y001677D01*
X034392Y017896D01*
X034392Y017895D02*
X034390Y017949D01*
X034383Y018003D01*
X034373Y018056D01*
X034360Y018108D01*
X034342Y018159D01*
X034321Y018209D01*
X034297Y018257D01*
X034269Y018303D01*
X034237Y018347D01*
X034203Y018388D01*
X034166Y018427D01*
X034126Y018464D01*
X034084Y018497D01*
X034040Y018528D01*
X033993Y018555D01*
X033945Y018578D01*
X033895Y018599D01*
X033843Y018615D01*
X033791Y018628D01*
X033738Y018637D01*
X033684Y018643D01*
X033631Y018644D01*
X001677Y018644D01*
X001624Y018642D01*
X001570Y018637D01*
X001518Y018627D01*
X001466Y018614D01*
X001415Y018597D01*
X001366Y018577D01*
X001318Y018553D01*
X001272Y018526D01*
X001228Y018495D01*
X001186Y018462D01*
X001147Y018425D01*
X001111Y018386D01*
X001077Y018345D01*
X001046Y018301D01*
X001019Y018255D01*
X000995Y018207D01*
X000975Y018158D01*
X000958Y018107D01*
X000944Y018055D01*
X000935Y018003D01*
X000929Y017949D01*
X000927Y017896D01*
X000927Y001677D01*
X000929Y001623D01*
X000935Y001570D01*
X000944Y001518D01*
X000957Y001466D01*
X000974Y001415D01*
X000995Y001365D01*
X001019Y001318D01*
X001046Y001272D01*
X001077Y001228D01*
X001110Y001186D01*
X001147Y001147D01*
X001186Y001110D01*
X001228Y001077D01*
X001272Y001046D01*
X001318Y001019D01*
X001365Y000995D01*
X001415Y000974D01*
X001466Y000957D01*
X001518Y000944D01*
X001570Y000935D01*
X001623Y000929D01*
X001677Y000927D01*
X003677Y002305D02*
X031642Y002305D01*
X031672Y002307D01*
X031702Y002312D01*
X031731Y002321D01*
X031758Y002334D01*
X031784Y002349D01*
X031808Y002368D01*
X031829Y002389D01*
X031848Y002413D01*
X031863Y002439D01*
X031876Y002466D01*
X031885Y002495D01*
X031890Y002525D01*
X031892Y002555D01*
X031892Y004570D01*
X025710Y004570D01*
X025710Y003477D01*
X025708Y003438D01*
X025702Y003399D01*
X025693Y003361D01*
X025680Y003324D01*
X025663Y003288D01*
X025643Y003255D01*
X025619Y003223D01*
X025593Y003194D01*
X025564Y003168D01*
X025532Y003144D01*
X025499Y003124D01*
X025463Y003107D01*
X025426Y003094D01*
X025388Y003085D01*
X025349Y003079D01*
X025310Y003077D01*
X018928Y003077D01*
X018928Y003078D02*
X018923Y003039D01*
X018914Y003001D01*
X018901Y002964D01*
X018885Y002929D01*
X018865Y002895D01*
X018842Y002863D01*
X018816Y002834D01*
X018787Y002808D01*
X018756Y002785D01*
X018722Y002764D01*
X018687Y002748D01*
X018650Y002734D01*
X018613Y002725D01*
X018574Y002719D01*
X018535Y002717D01*
X018496Y002719D01*
X018457Y002725D01*
X018420Y002734D01*
X018383Y002748D01*
X018348Y002764D01*
X018314Y002785D01*
X018283Y002808D01*
X018254Y002834D01*
X018228Y002863D01*
X018205Y002895D01*
X018185Y002929D01*
X018169Y002964D01*
X018156Y003001D01*
X018147Y003039D01*
X018142Y003078D01*
X018141Y003077D02*
X015298Y003077D01*
X015298Y003078D02*
X015293Y003039D01*
X015284Y003001D01*
X015271Y002964D01*
X015255Y002929D01*
X015235Y002895D01*
X015212Y002863D01*
X015186Y002834D01*
X015157Y002808D01*
X015126Y002785D01*
X015092Y002764D01*
X015057Y002748D01*
X015020Y002734D01*
X014983Y002725D01*
X014944Y002719D01*
X014905Y002717D01*
X014866Y002719D01*
X014827Y002725D01*
X014790Y002734D01*
X014753Y002748D01*
X014718Y002764D01*
X014684Y002785D01*
X014653Y002808D01*
X014624Y002834D01*
X014598Y002863D01*
X014575Y002895D01*
X014555Y002929D01*
X014539Y002964D01*
X014526Y003001D01*
X014517Y003039D01*
X014512Y003078D01*
X014511Y003077D02*
X005110Y003077D01*
X005085Y003082D01*
X005062Y003091D01*
X005039Y003103D01*
X005019Y003118D01*
X005001Y003136D01*
X004986Y003156D01*
X004974Y003178D01*
X004965Y003202D01*
X004960Y003227D01*
X004958Y003252D01*
X004960Y003277D01*
X004960Y003683D01*
X003427Y003683D01*
X003427Y002527D01*
X003431Y002499D01*
X003438Y002471D01*
X003448Y002444D01*
X003461Y002419D01*
X003477Y002396D01*
X003496Y002374D01*
X003517Y002355D01*
X003541Y002339D01*
X003566Y002326D01*
X003593Y002316D01*
X003620Y002309D01*
X003648Y002305D01*
X003677Y002305D01*
X003427Y004671D02*
X004960Y004671D01*
X004960Y005127D01*
X003427Y004671D02*
X003427Y011245D01*
X004994Y011245D01*
X004994Y010564D01*
X004996Y010525D01*
X005002Y010486D01*
X005011Y010448D01*
X005024Y010411D01*
X005041Y010375D01*
X005061Y010342D01*
X005085Y010310D01*
X005111Y010281D01*
X005140Y010255D01*
X005172Y010231D01*
X005205Y010211D01*
X005241Y010194D01*
X005278Y010181D01*
X005316Y010172D01*
X005355Y010166D01*
X005394Y010164D01*
X030138Y010164D01*
X030177Y010166D01*
X030216Y010172D01*
X030254Y010181D01*
X030291Y010194D01*
X030327Y010211D01*
X030360Y010231D01*
X030392Y010255D01*
X030421Y010281D01*
X030447Y010310D01*
X030471Y010342D01*
X030491Y010375D01*
X030508Y010411D01*
X030521Y010448D01*
X030530Y010486D01*
X030536Y010525D01*
X030538Y010564D01*
X030538Y012220D01*
X031892Y012220D01*
X031892Y008810D01*
X031192Y008810D01*
X031169Y008814D01*
X031147Y008821D01*
X031126Y008831D01*
X031107Y008844D01*
X031090Y008860D01*
X031076Y008878D01*
X031064Y008898D01*
X031055Y008919D01*
X031049Y008941D01*
X031046Y008964D01*
X031047Y008987D01*
X031046Y008988D02*
X031046Y009050D01*
X031046Y009073D01*
X031042Y009096D01*
X031036Y009118D01*
X031026Y009139D01*
X031014Y009158D01*
X030999Y009175D01*
X030981Y009190D01*
X030962Y009203D01*
X030941Y009212D01*
X030919Y009218D01*
X030896Y009222D01*
X029019Y009222D01*
X028969Y009184D01*
X028921Y009143D01*
X028876Y009099D01*
X028834Y009053D01*
X028794Y009004D01*
X028758Y008952D01*
X028725Y008899D01*
X028695Y008844D01*
X028668Y008787D01*
X028645Y008728D01*
X028626Y008668D01*
X028610Y008607D01*
X028598Y008546D01*
X028589Y008483D01*
X028585Y008420D01*
X028584Y008358D01*
X028587Y008295D01*
X028594Y008232D01*
X028605Y008170D01*
X028619Y008109D01*
X028637Y008049D01*
X028659Y007990D01*
X028684Y007932D01*
X028713Y007876D01*
X028745Y007822D01*
X028780Y007770D01*
X028818Y007720D01*
X028859Y007672D01*
X028904Y007627D01*
X028950Y007585D01*
X028999Y007546D01*
X029051Y007510D01*
X029104Y007477D01*
X029160Y007447D01*
X029217Y007421D01*
X029275Y007398D01*
X029335Y007379D01*
X029396Y007363D01*
X029458Y007351D01*
X029520Y007343D01*
X029583Y007339D01*
X029646Y007338D01*
X029709Y007342D01*
X029771Y007349D01*
X029833Y007360D01*
X029895Y007374D01*
X029955Y007392D01*
X030014Y007414D01*
X030071Y007440D01*
X030267Y007440D01*
X030293Y007438D01*
X030318Y007433D01*
X030342Y007424D01*
X030364Y007411D01*
X030385Y007396D01*
X030403Y007378D01*
X030418Y007357D01*
X030431Y007335D01*
X030440Y007311D01*
X030445Y007286D01*
X030447Y007260D01*
X030447Y007147D01*
X030448Y007147D02*
X030450Y007114D01*
X030455Y007080D01*
X030465Y007048D01*
X030478Y007017D01*
X030494Y006988D01*
X030513Y006961D01*
X030536Y006936D01*
X030561Y006913D01*
X030588Y006894D01*
X030617Y006878D01*
X030648Y006865D01*
X030680Y006855D01*
X030714Y006850D01*
X030747Y006848D01*
X030780Y006850D01*
X030814Y006855D01*
X030846Y006865D01*
X030877Y006878D01*
X030906Y006894D01*
X030933Y006913D01*
X030958Y006936D01*
X030981Y006961D01*
X031000Y006988D01*
X031016Y007017D01*
X031029Y007048D01*
X031039Y007080D01*
X031044Y007114D01*
X031046Y007147D01*
X031046Y007761D01*
X031047Y007761D02*
X031050Y007784D01*
X031057Y007806D01*
X031067Y007827D01*
X031080Y007847D01*
X031095Y007864D01*
X031113Y007879D01*
X031133Y007891D01*
X031154Y007901D01*
X031177Y007907D01*
X031200Y007910D01*
X031223Y007909D01*
X031223Y007910D02*
X031892Y007910D01*
X031892Y006158D01*
X025710Y006158D01*
X025710Y008677D01*
X025708Y008716D01*
X025702Y008755D01*
X025693Y008793D01*
X025680Y008830D01*
X025663Y008866D01*
X025643Y008899D01*
X025619Y008931D01*
X025593Y008960D01*
X025564Y008986D01*
X025532Y009010D01*
X025499Y009030D01*
X025463Y009047D01*
X025426Y009060D01*
X025388Y009069D01*
X025349Y009075D01*
X025310Y009077D01*
X006960Y009077D01*
X006921Y009075D01*
X006882Y009069D01*
X006844Y009060D01*
X006807Y009047D01*
X006771Y009030D01*
X006738Y009010D01*
X006706Y008986D01*
X006677Y008960D01*
X006651Y008931D01*
X006627Y008899D01*
X006607Y008866D01*
X006590Y008830D01*
X006577Y008793D01*
X006568Y008755D01*
X006562Y008716D01*
X006560Y008677D01*
X006538Y011564D02*
X006435Y011668D01*
X006538Y011771D01*
X006745Y011771D01*
X006745Y011896D02*
X006745Y011999D01*
X006745Y011947D02*
X006435Y011947D01*
X006435Y011896D02*
X006435Y011999D01*
X006435Y012117D02*
X006745Y012117D01*
X006435Y012324D01*
X006745Y012324D01*
X006927Y012279D02*
X006927Y012382D01*
X006978Y012434D01*
X007237Y012434D01*
X007237Y012559D02*
X007237Y012766D01*
X007237Y012662D02*
X006927Y012662D01*
X006927Y012279D02*
X006978Y012227D01*
X007237Y012227D01*
X007185Y012103D02*
X006978Y012103D01*
X006927Y012051D01*
X006927Y011947D01*
X006978Y011896D01*
X007185Y011896D01*
X007237Y011947D01*
X007237Y012051D01*
X007185Y012103D01*
X007419Y012103D02*
X007729Y011896D01*
X007419Y011896D01*
X007471Y011771D02*
X007574Y011771D01*
X007574Y011668D01*
X007677Y011771D02*
X007729Y011719D01*
X007729Y011616D01*
X007677Y011564D01*
X007471Y011564D01*
X007419Y011616D01*
X007419Y011719D01*
X007471Y011771D01*
X007237Y011771D02*
X007030Y011771D01*
X006927Y011668D01*
X007030Y011564D01*
X007237Y011564D01*
X006745Y011564D02*
X006538Y011564D01*
X006253Y011616D02*
X006201Y011564D01*
X005994Y011564D01*
X005942Y011616D01*
X005942Y011719D01*
X005994Y011771D01*
X006098Y011771D01*
X006098Y011668D01*
X006201Y011771D02*
X006253Y011719D01*
X006253Y011616D01*
X006253Y011896D02*
X005942Y011896D01*
X005942Y012051D01*
X005994Y012103D01*
X006046Y012103D01*
X006098Y012051D01*
X006098Y011896D01*
X006253Y011896D02*
X006253Y012051D01*
X006201Y012103D01*
X006149Y012103D01*
X006098Y012051D01*
X006098Y012227D02*
X006149Y012331D01*
X006149Y012382D01*
X006098Y012434D01*
X005994Y012434D01*
X005942Y012382D01*
X005942Y012279D01*
X005994Y012227D01*
X006098Y012227D02*
X006253Y012227D01*
X006253Y012434D01*
X006253Y012559D02*
X006046Y012559D01*
X005942Y012662D01*
X006046Y012766D01*
X006253Y012766D01*
X005761Y012655D02*
X005450Y012655D01*
X005761Y012448D01*
X005450Y012448D01*
X005450Y012331D02*
X005450Y012227D01*
X005450Y012279D02*
X005761Y012279D01*
X005761Y012227D02*
X005761Y012331D01*
X005761Y012103D02*
X005554Y012103D01*
X005450Y011999D01*
X005554Y011896D01*
X005761Y011896D01*
X005761Y011771D02*
X005761Y011564D01*
X005450Y011564D01*
X005450Y011771D01*
X005605Y011668D02*
X005605Y011564D01*
X004994Y012233D02*
X003427Y012233D01*
X003427Y016586D01*
X003429Y016616D01*
X003434Y016646D01*
X003443Y016675D01*
X003456Y016702D01*
X003471Y016728D01*
X003490Y016752D01*
X003511Y016773D01*
X003535Y016792D01*
X003561Y016807D01*
X003588Y016820D01*
X003617Y016829D01*
X003647Y016834D01*
X003677Y016836D01*
X031642Y016836D01*
X031672Y016834D01*
X031702Y016829D01*
X031731Y016820D01*
X031758Y016807D01*
X031784Y016792D01*
X031808Y016773D01*
X031829Y016752D01*
X031848Y016728D01*
X031863Y016702D01*
X031876Y016675D01*
X031885Y016646D01*
X031890Y016616D01*
X031892Y016586D01*
X031892Y014008D01*
X030538Y014008D01*
X030538Y015914D01*
X030536Y015937D01*
X030531Y015960D01*
X030522Y015982D01*
X030509Y016002D01*
X030494Y016020D01*
X030476Y016035D01*
X030456Y016048D01*
X030434Y016057D01*
X030411Y016062D01*
X030388Y016064D01*
X008410Y016064D01*
X008371Y016062D01*
X008332Y016056D01*
X008294Y016047D01*
X008257Y016034D01*
X008221Y016017D01*
X008188Y015997D01*
X008156Y015973D01*
X008127Y015947D01*
X008101Y015918D01*
X008077Y015886D01*
X008057Y015853D01*
X008040Y015817D01*
X008027Y015780D01*
X008018Y015742D01*
X008012Y015703D01*
X008010Y015664D01*
X008010Y013714D01*
X008008Y013675D01*
X008002Y013636D01*
X007993Y013598D01*
X007980Y013561D01*
X007963Y013525D01*
X007943Y013492D01*
X007919Y013460D01*
X007893Y013431D01*
X007864Y013405D01*
X007832Y013381D01*
X007799Y013361D01*
X007763Y013344D01*
X007726Y013331D01*
X007688Y013322D01*
X007649Y013316D01*
X007610Y013314D01*
X005394Y013314D01*
X005355Y013312D01*
X005316Y013306D01*
X005278Y013297D01*
X005241Y013284D01*
X005205Y013267D01*
X005172Y013247D01*
X005140Y013223D01*
X005111Y013197D01*
X005085Y013168D01*
X005061Y013136D01*
X005041Y013103D01*
X005024Y013067D01*
X005011Y013030D01*
X005002Y012992D01*
X004996Y012953D01*
X004994Y012914D01*
X004994Y012233D01*
X007419Y012227D02*
X007419Y012382D01*
X007471Y012434D01*
X007677Y012434D01*
X007729Y012382D01*
X007729Y012227D01*
X007419Y012227D01*
X007419Y012103D02*
X007729Y012103D01*
X008751Y012051D02*
X008803Y012103D01*
X009010Y012103D01*
X009062Y012051D01*
X009062Y011947D01*
X009010Y011896D01*
X008803Y011896D01*
X008751Y011947D01*
X008751Y012051D01*
X008751Y012227D02*
X009062Y012227D01*
X008751Y012434D01*
X009062Y012434D01*
X009062Y012559D02*
X008751Y012559D01*
X008751Y012766D01*
X008907Y012662D02*
X008907Y012559D01*
X009062Y012559D02*
X009062Y012766D01*
X009244Y012714D02*
X009295Y012766D01*
X009399Y012766D01*
X009399Y012662D01*
X009502Y012559D02*
X009295Y012559D01*
X009244Y012610D01*
X009244Y012714D01*
X009502Y012766D02*
X009554Y012714D01*
X009554Y012610D01*
X009502Y012559D01*
X009502Y012434D02*
X009399Y012434D01*
X009347Y012382D01*
X009347Y012227D01*
X009244Y012227D02*
X009554Y012227D01*
X009554Y012382D01*
X009502Y012434D01*
X009347Y012331D02*
X009244Y012434D01*
X009244Y012103D02*
X009554Y012103D01*
X009399Y012103D02*
X009399Y011896D01*
X009244Y011896D02*
X009554Y011896D01*
X009502Y011771D02*
X009554Y011719D01*
X009554Y011616D01*
X009502Y011564D01*
X009295Y011564D01*
X009244Y011616D01*
X009244Y011719D01*
X009295Y011771D01*
X009062Y011719D02*
X009062Y011564D01*
X008751Y011564D01*
X008751Y011719D01*
X008803Y011771D01*
X009010Y011771D01*
X009062Y011719D01*
X015717Y007633D02*
X015788Y007639D01*
X015861Y007635D01*
X015933Y007615D01*
X016012Y007571D01*
X016069Y007509D01*
X016099Y007430D01*
X016107Y007351D01*
X016102Y007294D01*
X016080Y007246D01*
X016051Y007212D01*
X016008Y007179D01*
X015966Y007158D01*
X015905Y007160D01*
X015849Y007163D01*
X015798Y007189D01*
X015776Y007208D01*
X015751Y007358D01*
X015748Y007362D01*
X015865Y007363D01*
X015867Y007365D01*
X015871Y007319D01*
X015795Y007320D01*
X015805Y007281D01*
X015813Y007232D01*
X015840Y007202D01*
X015863Y007198D01*
X015942Y007195D01*
X015986Y007205D01*
X016027Y007239D01*
X016056Y007286D01*
X016072Y007350D01*
X016066Y007404D01*
X016039Y007481D01*
X016005Y007527D01*
X015951Y007561D01*
X015884Y007590D01*
X015824Y007604D01*
X015775Y007602D01*
X015737Y007598D01*
X015719Y007590D01*
X015719Y007606D01*
X015721Y007632D02*
X015717Y007633D01*
X016763Y007632D02*
X016834Y007638D01*
X016907Y007634D01*
X016979Y007614D01*
X017058Y007570D01*
X017115Y007508D01*
X017145Y007429D01*
X017153Y007350D01*
X017148Y007293D01*
X017126Y007245D01*
X017097Y007211D01*
X017054Y007178D01*
X017012Y007157D01*
X016951Y007159D01*
X016895Y007162D01*
X016844Y007188D01*
X016822Y007207D01*
X016797Y007357D01*
X016794Y007361D01*
X016911Y007362D01*
X016913Y007364D01*
X016917Y007318D01*
X016841Y007319D01*
X016851Y007280D01*
X016859Y007231D01*
X016886Y007201D01*
X016909Y007197D01*
X016988Y007194D01*
X017032Y007204D01*
X017073Y007238D01*
X017102Y007285D01*
X017118Y007349D01*
X017112Y007403D01*
X017085Y007480D01*
X017051Y007526D01*
X016997Y007560D01*
X016930Y007589D01*
X016870Y007603D01*
X016821Y007601D01*
X016783Y007597D01*
X016765Y007589D01*
X016765Y007605D01*
X016767Y007631D02*
X016763Y007632D01*
X017433Y007960D02*
X017408Y008110D01*
X017405Y008114D01*
X017522Y008115D01*
X017524Y008117D01*
X017528Y008071D01*
X017452Y008072D01*
X017462Y008033D01*
X017470Y007984D01*
X017497Y007954D01*
X017520Y007950D01*
X017599Y007947D01*
X017643Y007957D01*
X017684Y007991D01*
X017713Y008038D01*
X017729Y008102D01*
X017723Y008156D01*
X017696Y008233D01*
X017662Y008279D01*
X017608Y008313D01*
X017541Y008342D01*
X017481Y008356D01*
X017432Y008354D01*
X017394Y008350D01*
X017376Y008342D01*
X017376Y008358D01*
X017378Y008384D02*
X017374Y008385D01*
X017445Y008391D01*
X017518Y008387D01*
X017590Y008367D01*
X017669Y008323D01*
X017726Y008261D01*
X017756Y008182D01*
X017764Y008103D01*
X017759Y008046D01*
X017737Y007998D01*
X017708Y007964D01*
X017665Y007931D01*
X017623Y007910D01*
X017562Y007912D01*
X017506Y007915D01*
X017455Y007941D01*
X017433Y007960D01*
X017706Y007634D02*
X017921Y007161D01*
X017935Y007159D01*
X017946Y007172D02*
X017969Y007157D01*
X017752Y007631D01*
X017706Y007634D01*
X017699Y007593D02*
X017622Y007157D01*
X017667Y007157D01*
X017739Y007543D01*
X017741Y007333D02*
X017714Y007297D01*
X017833Y007299D01*
X017847Y007335D02*
X017792Y007333D01*
X017741Y007333D01*
X018090Y007419D02*
X018101Y007382D01*
X018303Y007387D01*
X018295Y007419D02*
X018090Y007419D01*
X018295Y007419D02*
X018321Y007428D01*
X018344Y007634D02*
X018412Y007157D01*
X018370Y007154D01*
X018299Y007640D01*
X018316Y007637D01*
X018455Y007636D02*
X018456Y007596D01*
X018506Y007608D01*
X018557Y007603D01*
X018611Y007594D01*
X018670Y007573D01*
X018735Y007530D01*
X018776Y007486D01*
X018776Y007476D01*
X018794Y007430D01*
X018805Y007366D01*
X018800Y007307D01*
X018761Y007231D01*
X018749Y007231D01*
X018698Y007201D01*
X018638Y007197D01*
X018586Y007203D01*
X018538Y007216D01*
X018502Y007236D01*
X018508Y007213D01*
X018514Y007187D02*
X018582Y007165D01*
X018636Y007163D01*
X018695Y007164D01*
X018727Y007175D01*
X018770Y007198D01*
X018803Y007236D01*
X018836Y007311D01*
X018835Y007393D01*
X018830Y007449D01*
X018808Y007500D01*
X018751Y007566D01*
X018696Y007603D01*
X018610Y007633D01*
X018575Y007641D01*
X018496Y007638D01*
X018455Y007636D01*
X018044Y007636D02*
X018041Y007621D01*
X018044Y007636D02*
X018112Y007155D01*
X018068Y007160D01*
X017996Y007636D01*
X018020Y007633D01*
X016564Y006779D02*
X016531Y006833D01*
X016484Y006878D01*
X016429Y006902D01*
X016367Y006907D01*
X016338Y006899D01*
X016307Y006886D01*
X016288Y006873D01*
X016289Y006818D01*
X016273Y006784D01*
X016269Y006699D01*
X016297Y006581D01*
X016330Y006522D01*
X016376Y006481D01*
X016428Y006456D01*
X016494Y006450D01*
X016530Y006475D01*
X016564Y006517D01*
X016581Y006581D01*
X016576Y006585D01*
X016572Y006648D01*
X016542Y006734D01*
X016510Y006798D01*
X016482Y006836D01*
X016449Y006858D01*
X016403Y006868D01*
X016371Y006866D01*
X016330Y006862D01*
X016307Y006838D01*
X016273Y006859D02*
X016253Y006829D01*
X016238Y006781D01*
X016233Y006736D01*
X016233Y006688D01*
X016254Y006605D01*
X016273Y006553D01*
X016293Y006511D01*
X016325Y006477D01*
X016363Y006442D01*
X016401Y006426D01*
X016439Y006415D01*
X016473Y006416D01*
X016506Y006422D01*
X016539Y006434D01*
X016583Y006473D01*
X016605Y006516D01*
X016616Y006568D01*
X016610Y006631D01*
X016597Y006691D01*
X016564Y006779D01*
X017210Y005917D02*
X017385Y005819D01*
X017583Y005682D02*
X017598Y005684D01*
X017640Y005696D01*
X017671Y005717D01*
X017690Y005772D01*
X017692Y006070D01*
X017674Y005980D02*
X017581Y005979D01*
X017838Y006137D02*
X017840Y005685D01*
X017988Y005687D02*
X017988Y005977D01*
X018142Y005905D02*
X018131Y005852D01*
X018130Y005646D01*
X018145Y005610D01*
X018173Y005571D01*
X018208Y005538D01*
X018263Y005520D01*
X018316Y005522D01*
X018361Y005531D01*
X018312Y005683D02*
X018258Y005678D01*
X018220Y005690D01*
X018312Y005683D02*
X018356Y005697D01*
X018392Y005732D01*
X018417Y005792D01*
X018428Y005849D01*
X018415Y005885D01*
X018390Y005941D01*
X018336Y005975D01*
X018293Y005989D01*
X018227Y005981D01*
X018180Y005953D01*
X018142Y005905D01*
X019505Y005741D02*
X020365Y004964D01*
X020383Y004918D01*
X020386Y004630D01*
X020504Y004471D01*
X020530Y004407D01*
X020543Y004350D01*
X020560Y004187D01*
X020569Y004146D01*
X020678Y003992D01*
X020722Y003906D01*
X020749Y003845D01*
X020767Y003793D01*
X020774Y003753D01*
X020779Y003693D01*
X021296Y003100D01*
X021440Y003100D01*
X021345Y003130D01*
X020847Y003707D01*
X020817Y003703D01*
X021317Y003115D01*
X020815Y003742D01*
X020703Y004004D01*
X020594Y004177D01*
X020531Y004483D01*
X020555Y004478D01*
X020606Y004358D01*
X020633Y004170D01*
X020694Y004060D01*
X020795Y003933D01*
X020839Y003750D01*
X020727Y003954D01*
X020550Y004382D01*
X020516Y004538D01*
X020419Y004652D01*
X020414Y004953D01*
X020347Y005008D01*
X019683Y005616D01*
X019545Y005755D01*
X019707Y005928D01*
X019741Y005975D01*
X019918Y005872D01*
X021041Y004871D01*
X021298Y004493D01*
X021430Y004369D01*
X021593Y004275D01*
X021524Y004267D01*
X021411Y004272D01*
X021311Y004305D01*
X021141Y004369D01*
X020954Y004468D01*
X020785Y004616D01*
X020521Y004863D01*
X021075Y004387D01*
X021239Y004370D01*
X021330Y004340D01*
X021411Y004314D01*
X021507Y004302D01*
X021351Y004369D01*
X021256Y004394D01*
X021344Y004402D01*
X021258Y004430D01*
X021365Y004398D01*
X021273Y004476D01*
X021018Y004853D01*
X021263Y004440D01*
X021017Y004806D01*
X019757Y005923D01*
X019843Y005891D01*
X021058Y004808D01*
X020940Y004975D01*
X021114Y005056D01*
X021104Y005085D01*
X021088Y005109D01*
X020954Y005231D01*
X020933Y005246D01*
X020670Y005241D01*
X020681Y005229D01*
X020541Y005330D01*
X020793Y005330D01*
X020787Y005354D01*
X020783Y005373D01*
X020217Y005896D01*
X020179Y005914D01*
X019929Y005914D01*
X019784Y005985D01*
X020177Y005980D01*
X020244Y005944D01*
X019901Y005953D01*
X020250Y005936D01*
X020287Y005893D01*
X021221Y005078D01*
X020342Y005806D01*
X021307Y004962D01*
X021233Y005050D01*
X021242Y004980D01*
X021136Y004982D01*
X021078Y004952D01*
X021040Y004899D01*
X020993Y004946D01*
X021043Y004993D01*
X021115Y005036D01*
X021137Y005072D01*
X021204Y005024D01*
X021148Y005016D01*
X021112Y004996D01*
X021060Y004962D01*
X021020Y004921D01*
X021067Y004889D02*
X021078Y004920D01*
X021098Y004940D01*
X021119Y004952D01*
X021158Y004954D01*
X021198Y004958D01*
X021225Y004957D01*
X021250Y004954D01*
X021279Y004948D01*
X021306Y004934D01*
X021338Y004914D01*
X021444Y004823D01*
X021553Y004724D01*
X021702Y004581D01*
X021979Y004295D01*
X022192Y004063D01*
X022219Y003988D01*
X022240Y003926D01*
X022325Y003750D01*
X022403Y003631D01*
X022531Y003489D01*
X022738Y003328D01*
X023079Y003098D01*
X023231Y003099D01*
X023228Y003111D01*
X023100Y003202D01*
X022990Y003274D01*
X022894Y003333D01*
X022687Y003443D01*
X022576Y003540D01*
X022497Y003630D01*
X022434Y003710D01*
X022371Y003801D01*
X022316Y003913D01*
X022272Y004020D01*
X022257Y004084D01*
X022234Y004120D01*
X021970Y004416D01*
X021711Y004671D01*
X021502Y004862D01*
X021427Y004930D01*
X021406Y004956D01*
X021395Y004995D01*
X021409Y005048D01*
X021432Y005092D01*
X021466Y005122D01*
X021503Y005128D01*
X021545Y005127D01*
X021598Y005111D01*
X021636Y005079D01*
X021988Y004814D01*
X022101Y004739D01*
X022186Y004657D01*
X022261Y004580D01*
X022312Y004500D01*
X022373Y004385D01*
X022408Y004281D01*
X022426Y004211D01*
X022482Y004112D01*
X022531Y004050D01*
X023222Y003569D01*
X023232Y003530D01*
X023180Y003501D01*
X023053Y003471D01*
X022907Y003445D01*
X022708Y003436D01*
X022664Y003428D01*
X022445Y003628D01*
X022330Y003807D01*
X022244Y004029D01*
X022213Y004085D01*
X022051Y004279D01*
X021871Y004462D01*
X021498Y004823D01*
X021327Y004983D01*
X021272Y005070D01*
X020257Y005980D01*
X020214Y005998D01*
X020177Y006012D01*
X019737Y006015D01*
X019718Y006010D01*
X019508Y005768D01*
X019505Y005741D01*
X019591Y005737D02*
X019741Y005903D01*
X020034Y005647D01*
X021009Y004762D01*
X021215Y004455D01*
X021239Y004419D01*
X021221Y004392D01*
X021192Y004391D01*
X021166Y004399D01*
X021048Y004451D01*
X020961Y004506D01*
X020882Y004574D01*
X020456Y004957D01*
X020499Y004832D01*
X020729Y004622D01*
X020853Y004514D01*
X020963Y004429D01*
X021066Y004370D01*
X021232Y004300D01*
X021356Y004262D01*
X021471Y004238D01*
X021513Y004233D01*
X021622Y004231D01*
X021629Y004235D01*
X021629Y004275D01*
X021616Y004309D01*
X021594Y004317D01*
X021545Y004343D01*
X021483Y004381D01*
X021380Y004467D01*
X021304Y004553D01*
X021237Y004642D01*
X021194Y004714D01*
X021167Y004755D01*
X021116Y004818D01*
X021090Y004844D01*
X021075Y004867D01*
X021067Y004889D01*
X021331Y005032D02*
X021374Y004982D01*
X021354Y005070D01*
X021380Y005139D01*
X021437Y005202D01*
X021545Y005198D01*
X021677Y005158D01*
X022080Y004830D01*
X022029Y004828D01*
X021754Y005044D01*
X021644Y005124D01*
X021588Y005144D01*
X021508Y005160D01*
X021446Y005157D01*
X021406Y005119D01*
X021392Y005056D01*
X021331Y005032D02*
X021307Y005084D01*
X021323Y005105D01*
X021351Y005160D01*
X021388Y005198D01*
X021430Y005224D01*
X021470Y005231D01*
X021569Y005230D01*
X021644Y005198D01*
X021735Y005136D01*
X021881Y005019D01*
X022105Y004857D01*
X022248Y004750D01*
X022424Y004513D01*
X022480Y004348D01*
X022510Y004268D01*
X022458Y004269D02*
X022607Y004076D01*
X022690Y004013D01*
X022628Y004006D01*
X022526Y004122D01*
X022452Y004214D01*
X022413Y004351D01*
X022378Y004456D01*
X022332Y004544D01*
X022250Y004642D01*
X022188Y004700D01*
X022040Y004812D01*
X022086Y004815D02*
X022226Y004723D01*
X022413Y004485D01*
X022458Y004269D01*
X022484Y004323D02*
X022553Y004191D01*
X022648Y004081D01*
X022817Y003963D01*
X023004Y003836D01*
X023365Y003602D01*
X023429Y003563D01*
X023408Y003551D02*
X023261Y003486D01*
X023132Y003451D01*
X022999Y003426D01*
X022898Y003391D01*
X022868Y003369D01*
X022812Y003407D01*
X022887Y003399D01*
X023297Y003518D01*
X023421Y003595D01*
X023587Y003682D01*
X023695Y003771D01*
X023804Y003870D01*
X023931Y004031D01*
X024019Y004175D01*
X024074Y004291D01*
X024118Y004415D01*
X024159Y004572D01*
X024182Y004720D01*
X024200Y004980D01*
X024174Y005055D01*
X024183Y005026D01*
X024165Y005044D01*
X024117Y005058D01*
X024064Y005069D01*
X023985Y005080D01*
X023893Y005084D01*
X023822Y005091D01*
X023756Y005084D01*
X023627Y005071D01*
X023544Y005072D01*
X023492Y005084D01*
X023434Y005114D01*
X023410Y005136D01*
X023337Y005210D01*
X023302Y005274D01*
X023277Y005323D01*
X023266Y005348D01*
X023259Y005440D01*
X023259Y005519D01*
X023257Y005594D01*
X023228Y005664D01*
X023195Y005698D01*
X023168Y005726D01*
X023130Y005750D01*
X023110Y005775D01*
X023119Y005814D01*
X023174Y005850D01*
X023225Y005881D01*
X023270Y005919D01*
X023229Y005909D01*
X023213Y005940D01*
X023197Y005937D01*
X023061Y005937D01*
X023041Y005950D01*
X023033Y005970D01*
X023031Y006036D01*
X023008Y006121D01*
X022945Y006211D01*
X022897Y006262D01*
X022838Y006294D01*
X022800Y006306D01*
X022750Y006340D01*
X022760Y006389D01*
X022850Y006550D01*
X022913Y006688D01*
X022958Y006810D01*
X023006Y006988D01*
X023030Y007098D01*
X023033Y007218D01*
X023032Y007323D01*
X023003Y007411D01*
X022943Y007528D01*
X022937Y007571D01*
X022935Y007655D01*
X022939Y008211D01*
X022903Y008211D01*
X022871Y008194D01*
X022796Y008150D01*
X022777Y008142D01*
X022747Y008150D01*
X022722Y008180D01*
X022736Y008244D01*
X022820Y008576D01*
X022872Y008741D01*
X022921Y008865D01*
X023026Y009047D01*
X023150Y009049D01*
X023084Y008964D01*
X022993Y008815D01*
X022957Y008724D01*
X022925Y008623D01*
X022897Y008511D01*
X022878Y008416D01*
X022891Y008393D01*
X022934Y008405D01*
X022988Y008428D01*
X023014Y008431D01*
X023048Y008423D01*
X023060Y008402D01*
X023050Y008307D01*
X023027Y007922D01*
X023019Y007669D01*
X023027Y007681D01*
X023047Y007604D01*
X023073Y007533D01*
X023099Y007467D01*
X023117Y007406D01*
X023126Y007319D01*
X023125Y007163D01*
X023104Y007040D01*
X023054Y006861D01*
X023002Y006715D01*
X022943Y006591D01*
X022885Y006464D01*
X022880Y006428D01*
X022927Y006389D01*
X022994Y006338D01*
X023055Y006281D01*
X023085Y006216D01*
X023112Y006165D01*
X023130Y006081D01*
X023138Y006051D01*
X023446Y006048D01*
X023474Y006025D01*
X023480Y005997D01*
X023471Y005980D01*
X023458Y005959D01*
X023254Y005818D01*
X023300Y005755D01*
X023345Y005667D01*
X023362Y005572D01*
X023361Y005377D01*
X023391Y005315D01*
X023458Y005239D01*
X023510Y005215D01*
X023573Y005198D01*
X023678Y005195D01*
X023940Y005199D01*
X024191Y005160D01*
X024294Y005124D01*
X024412Y005057D01*
X024490Y004997D01*
X024540Y004945D01*
X024583Y004874D01*
X024556Y004728D01*
X024513Y004823D01*
X024442Y004900D01*
X024368Y004969D01*
X024320Y005004D01*
X024275Y005000D01*
X024276Y004950D01*
X024267Y004774D01*
X024242Y004622D01*
X024202Y004444D01*
X024172Y004352D01*
X024114Y004194D01*
X024089Y004154D01*
X024122Y004137D01*
X024067Y004183D01*
X024128Y004342D01*
X024207Y004610D01*
X024228Y004763D01*
X024234Y005007D01*
X024256Y005041D01*
X024339Y005041D01*
X024428Y004947D01*
X024527Y004832D01*
X024557Y004830D01*
X024553Y004893D01*
X024527Y004888D01*
X024517Y004928D01*
X024499Y004924D01*
X024397Y005030D01*
X024352Y005063D01*
X024199Y005116D01*
X023919Y005162D01*
X023682Y005166D01*
X023511Y005171D01*
X023403Y005233D01*
X023363Y005301D01*
X023336Y005344D01*
X023321Y005552D01*
X023300Y005680D01*
X023276Y005729D01*
X023233Y005818D01*
X023226Y005843D01*
X023438Y005985D01*
X023441Y006012D01*
X023129Y006017D01*
X023094Y006058D01*
X023072Y006156D01*
X022986Y006298D01*
X022886Y006381D01*
X022852Y006431D01*
X022855Y006469D01*
X023013Y006843D01*
X023090Y007190D01*
X023078Y007357D01*
X023064Y007136D01*
X023080Y007387D01*
X022992Y007672D01*
X022967Y007656D01*
X023052Y007355D01*
X022962Y007575D01*
X022978Y008390D01*
X023030Y008396D01*
X022981Y007683D01*
X022940Y008316D01*
X022936Y008392D01*
X022892Y008240D01*
X022917Y008250D01*
X022775Y008174D01*
X022759Y008223D01*
X022854Y008491D01*
X022915Y008703D01*
X023081Y009026D01*
X023037Y009017D01*
X022884Y008717D01*
X022814Y008454D01*
X022781Y008218D01*
X022863Y008250D01*
X022893Y008368D01*
X022851Y008407D01*
X022842Y008306D01*
X022817Y008239D01*
X023377Y007631D02*
X023433Y007647D01*
X023564Y007647D01*
X023633Y007635D01*
X023724Y007620D01*
X023799Y007592D01*
X023865Y007565D01*
X023890Y007533D01*
X023890Y007504D01*
X023869Y007481D01*
X023845Y007473D01*
X023812Y007481D01*
X023765Y007504D01*
X023705Y007532D01*
X023725Y007554D02*
X023637Y007570D01*
X023480Y007570D01*
X023355Y007559D01*
X023265Y007533D01*
X023246Y007572D01*
X023362Y007595D01*
X023538Y007603D01*
X023683Y007598D01*
X023867Y007521D01*
X023827Y007515D02*
X023655Y007536D01*
X023547Y007553D01*
X023459Y007553D01*
X023402Y007546D01*
X023346Y007536D01*
X023305Y007524D01*
X023286Y007507D01*
X023262Y007505D01*
X023240Y007518D01*
X023222Y007543D01*
X023226Y007565D01*
X023236Y007586D01*
X023255Y007595D01*
X023307Y007615D01*
X023377Y007631D01*
X023346Y007387D02*
X023316Y007375D01*
X023300Y007356D01*
X023298Y007335D01*
X023313Y007313D01*
X023338Y007300D01*
X023368Y007283D01*
X023389Y007100D01*
X023375Y007078D01*
X023353Y007056D01*
X023347Y007034D01*
X023355Y007004D01*
X023369Y006984D01*
X023397Y006983D01*
X023431Y006983D01*
X023715Y007136D01*
X023848Y007217D01*
X023867Y007234D01*
X023867Y007269D01*
X023869Y007283D02*
X023847Y007299D01*
X023773Y007322D01*
X023689Y007343D01*
X023613Y007365D01*
X023522Y007381D01*
X023476Y007387D01*
X023346Y007387D01*
X023337Y007351D02*
X023398Y007298D01*
X023496Y007286D01*
X023658Y007270D01*
X023825Y007250D01*
X023544Y007311D01*
X023403Y007323D01*
X023432Y007353D02*
X023337Y007351D01*
X023432Y007353D02*
X023531Y007350D01*
X023843Y007268D01*
X023790Y007228D02*
X023782Y007210D01*
X023644Y007164D01*
X023570Y007136D01*
X023500Y007081D01*
X023453Y007034D01*
X023591Y007108D01*
X023709Y007163D01*
X023685Y007219D02*
X023722Y007226D01*
X023790Y007228D01*
X023685Y007219D02*
X023487Y007120D01*
X023424Y007058D01*
X023443Y007045D02*
X023471Y007137D01*
X023467Y007311D01*
X023432Y007264D02*
X023435Y007136D01*
X023483Y007126D02*
X023464Y007221D01*
X023432Y007264D02*
X023408Y007258D01*
X023416Y007081D01*
X023401Y007052D01*
X023381Y007024D01*
X023412Y007009D01*
X023443Y007045D01*
X023668Y007215D02*
X023668Y007292D01*
X024995Y007199D02*
X024995Y007139D01*
X025007Y007104D01*
X025027Y007077D01*
X025058Y007041D01*
X025090Y007013D01*
X025108Y006999D01*
X025093Y006615D01*
X025059Y006585D01*
X024994Y006542D01*
X024931Y006514D01*
X024905Y006495D01*
X024897Y006478D01*
X024910Y006443D01*
X024917Y006424D01*
X024939Y006420D01*
X024968Y006427D01*
X025003Y006443D01*
X025017Y006449D01*
X025213Y006579D01*
X025345Y006691D01*
X025456Y006827D01*
X025550Y007012D01*
X025592Y007161D01*
X025597Y007308D01*
X025561Y007441D01*
X025478Y007553D01*
X025369Y007625D01*
X025263Y007651D01*
X025196Y007651D01*
X025122Y007638D01*
X025082Y007626D01*
X025016Y007623D01*
X024997Y007610D01*
X024990Y007597D01*
X024988Y007557D01*
X024999Y007538D01*
X025014Y007531D01*
X025035Y007529D01*
X025067Y007535D01*
X025142Y007543D01*
X025227Y007548D01*
X025291Y007542D01*
X025355Y007525D01*
X025414Y007482D01*
X025475Y007398D01*
X025494Y007329D01*
X025501Y007275D01*
X025482Y007139D01*
X025450Y007023D01*
X025359Y006865D01*
X025237Y006743D01*
X025204Y006709D01*
X025207Y006615D01*
X025447Y006868D01*
X025545Y007105D01*
X025553Y007306D01*
X025536Y007446D01*
X025465Y007526D01*
X025322Y007593D01*
X025237Y007619D01*
X025128Y007614D01*
X025055Y007593D01*
X025009Y007585D01*
X025053Y007556D01*
X025132Y007575D01*
X025274Y007581D01*
X025390Y007542D01*
X025478Y007440D01*
X025503Y007432D01*
X025512Y007318D01*
X025521Y007209D01*
X025512Y007081D01*
X025470Y006994D01*
X025407Y006872D01*
X025230Y006684D01*
X025104Y006539D01*
X024991Y006477D01*
X024908Y006445D01*
X024954Y006491D01*
X025058Y006543D01*
X025118Y006593D01*
X025136Y006632D01*
X025136Y006957D01*
X025159Y007002D01*
X025176Y006795D01*
X025175Y007022D01*
X025238Y007074D01*
X025275Y007137D01*
X025259Y007245D01*
X025215Y007321D01*
X025138Y007319D01*
X025082Y007295D01*
X025030Y007237D01*
X025026Y007181D01*
X025065Y007106D01*
X025130Y007032D01*
X025030Y007115D01*
X025052Y007220D01*
X025109Y007278D01*
X025182Y007289D01*
X025203Y007246D01*
X025239Y007164D01*
X025237Y007117D01*
X025188Y007069D01*
X025166Y007044D01*
X025139Y007103D01*
X025077Y007128D01*
X025071Y007172D01*
X025077Y007219D01*
X025129Y007249D01*
X025178Y007222D01*
X025199Y007141D01*
X025200Y007127D01*
X025182Y007103D01*
X025126Y007081D01*
X025112Y007175D01*
X025150Y007266D01*
X025168Y007169D01*
X025153Y007112D01*
X025162Y007191D01*
X025081Y006468D01*
X025059Y006436D01*
X025028Y006204D01*
X024995Y006015D01*
X024874Y005522D01*
X024795Y005273D01*
X024682Y004991D01*
X024617Y004864D01*
X024525Y004660D01*
X024384Y004453D01*
X024247Y004256D01*
X024118Y004102D01*
X024120Y004040D01*
X024302Y004273D01*
X024579Y004690D01*
X024860Y005336D01*
X024959Y005751D01*
X025093Y006437D01*
X025141Y006483D01*
X025091Y006200D01*
X024960Y005534D01*
X024944Y005548D01*
X024893Y005330D01*
X024776Y005034D01*
X024591Y004663D01*
X024488Y004491D01*
X024253Y004165D01*
X024048Y003973D01*
X023737Y003718D01*
X023408Y003551D01*
X023343Y003568D02*
X022697Y003965D01*
X023297Y003556D01*
X023269Y003530D01*
X023239Y003570D01*
X023343Y003568D02*
X022681Y004004D01*
X023369Y003484D02*
X023531Y003571D01*
X023700Y003665D01*
X023930Y003822D01*
X024138Y004008D01*
X024298Y004181D01*
X024453Y004378D01*
X024605Y004623D01*
X024722Y004825D01*
X024817Y005026D01*
X024920Y005305D01*
X025006Y005583D01*
X025078Y005924D01*
X025139Y006281D01*
X025172Y006550D01*
X025201Y006998D01*
X025252Y007036D01*
X025297Y007091D01*
X025314Y007130D01*
X025312Y007210D01*
X025294Y007270D01*
X025267Y007312D01*
X025230Y007337D01*
X025186Y007351D01*
X025138Y007351D01*
X025093Y007337D01*
X025049Y007305D01*
X025012Y007260D01*
X024995Y007199D01*
X022967Y006279D02*
X022831Y006385D01*
X022795Y006369D02*
X022827Y006331D01*
X022929Y006278D01*
X022994Y006212D01*
X023049Y006115D01*
X023075Y006013D01*
X023074Y005969D01*
X022967Y006279D01*
X022795Y006369D02*
X022829Y006448D01*
X023107Y006002D02*
X023341Y005934D01*
X023175Y005816D01*
X023139Y005784D01*
X023215Y005797D01*
X023280Y005602D01*
X023179Y005774D01*
X023288Y005590D01*
X023305Y005340D01*
X023385Y005223D01*
X023478Y005122D01*
X023647Y005092D01*
X023823Y005113D01*
X023975Y005113D01*
X024139Y005096D01*
X024289Y005060D01*
X023775Y005145D01*
X023484Y005151D01*
X023711Y005113D01*
X024215Y005069D02*
X024211Y004992D01*
X024708Y004811D02*
X024654Y004637D01*
X024636Y004615D01*
X024734Y004398D01*
X024817Y004129D01*
X024847Y004005D01*
X024874Y003858D01*
X024867Y003799D01*
X024867Y003789D02*
X024855Y003790D01*
X024250Y003161D01*
X024293Y003156D01*
X024883Y003773D01*
X024314Y003135D01*
X024963Y003778D01*
X024911Y003757D01*
X024863Y003726D01*
X024909Y003798D01*
X024836Y004210D01*
X024770Y004435D01*
X024674Y004604D01*
X024704Y004681D01*
X024727Y004647D01*
X024850Y004363D01*
X024925Y004108D01*
X024977Y003835D01*
X024941Y003791D01*
X024925Y003937D01*
X024882Y004156D01*
X024809Y004383D01*
X024711Y004638D01*
X024738Y004688D02*
X024842Y004465D01*
X024929Y004199D01*
X024987Y003969D01*
X025009Y003769D01*
X024964Y003737D01*
X024526Y003290D01*
X024397Y003175D01*
X024354Y003128D01*
X024358Y003119D02*
X024236Y003156D01*
X024185Y003154D01*
X024190Y003125D01*
X024260Y003124D01*
X024189Y003157D02*
X024145Y003096D01*
X023496Y003446D01*
X023417Y003483D01*
X023327Y003473D01*
X023302Y003465D02*
X023369Y003484D01*
X023302Y003465D02*
X023213Y003434D01*
X023012Y003378D01*
X022925Y003367D01*
X022904Y003349D01*
X022915Y003363D02*
X022883Y003331D01*
X022691Y003408D02*
X023096Y003130D01*
X023154Y003127D02*
X022691Y003408D01*
X023466Y003510D02*
X023495Y003492D01*
X024145Y003143D01*
X024147Y003103D02*
X024158Y003096D01*
X024376Y003098D01*
X024358Y003119D01*
X024189Y003157D02*
X023574Y003482D01*
X023507Y003542D01*
X023518Y003548D01*
X023466Y003510D01*
X023643Y003696D02*
X023945Y003917D01*
X024101Y004063D01*
X024075Y004123D01*
X024052Y004087D01*
X023971Y003988D01*
X023935Y003968D02*
X023826Y003836D01*
X023705Y003739D01*
X023643Y003696D01*
X023935Y003968D02*
X024066Y004183D01*
X024738Y004688D02*
X024716Y004747D01*
X024708Y004811D01*
X023386Y005980D02*
X023107Y006002D01*
X023110Y005970D02*
X023386Y005980D01*
X020911Y005278D02*
X020671Y005273D01*
X020616Y005302D01*
X020767Y005297D01*
X020840Y005298D01*
X020826Y005343D01*
X020862Y005306D01*
X020458Y004956D02*
X020402Y005008D01*
X020043Y005327D01*
X019609Y005715D01*
X019591Y005737D01*
X020458Y004956D02*
X020458Y004697D01*
X020465Y004678D01*
X020478Y004651D01*
X020528Y004572D01*
X020589Y004481D01*
X020630Y004403D01*
X020631Y004316D01*
X020649Y004217D01*
X020675Y004158D01*
X020718Y004099D01*
X020769Y004027D01*
X020807Y003952D01*
X020852Y003826D01*
X020858Y003785D01*
X020868Y003740D01*
X020903Y003689D01*
X021053Y003512D01*
X021297Y003248D01*
X021363Y003180D01*
X021426Y003109D01*
X032917Y007123D02*
X032917Y007198D01*
X032992Y007274D01*
X033367Y007274D01*
X033367Y007349D02*
X033367Y007198D01*
X032992Y007048D02*
X032917Y007123D01*
X032917Y007509D02*
X032917Y007809D01*
X032992Y007969D02*
X032917Y008044D01*
X032917Y008194D01*
X032992Y008269D01*
X032992Y008429D02*
X032917Y008505D01*
X032917Y008580D01*
X032992Y008655D01*
X033367Y008655D01*
X033367Y008580D02*
X033367Y008730D01*
X033367Y008890D02*
X032917Y008890D01*
X032917Y009190D01*
X032992Y009350D02*
X032917Y009425D01*
X032917Y009575D01*
X032992Y009651D01*
X032992Y009811D02*
X032917Y009886D01*
X032917Y009961D01*
X032992Y010036D01*
X033367Y010036D01*
X033367Y009961D02*
X033367Y010111D01*
X033367Y010271D02*
X032917Y010271D01*
X032917Y010571D01*
X032992Y010731D02*
X032917Y010807D01*
X032917Y010957D01*
X032992Y011032D01*
X032992Y011192D02*
X032917Y011267D01*
X032917Y011342D01*
X032992Y011417D01*
X033367Y011417D01*
X033367Y011342D02*
X033367Y011492D01*
X033367Y011652D02*
X032917Y011652D01*
X032917Y011952D01*
X032992Y012113D02*
X032917Y012188D01*
X032917Y012338D01*
X032992Y012413D01*
X033292Y012413D02*
X033367Y012338D01*
X033367Y012188D01*
X033292Y012113D01*
X032992Y012113D01*
X033292Y011032D02*
X033367Y010957D01*
X033367Y010807D01*
X033292Y010731D01*
X032992Y010731D01*
X033292Y009651D02*
X033367Y009575D01*
X033367Y009425D01*
X033292Y009350D01*
X032992Y009350D01*
X033292Y008269D02*
X033367Y008194D01*
X033367Y008044D01*
X033292Y007969D01*
X032992Y007969D01*
X032917Y007509D02*
X033367Y007509D01*
X006560Y008677D02*
X006534Y008413D01*
X006496Y008151D01*
X006446Y007891D01*
X006384Y007633D01*
X006310Y007379D01*
X006224Y007129D01*
X006126Y006882D01*
X006017Y006641D01*
X005897Y006404D01*
X005767Y006174D01*
X005625Y005950D01*
X005473Y005733D01*
X005312Y005523D01*
X005141Y005321D01*
X004960Y005127D01*
D11*
X003068Y007107D02*
X002998Y007107D01*
X002928Y007177D01*
X002928Y007317D01*
X002858Y007387D01*
X002787Y007387D01*
X002717Y007317D01*
X002717Y007177D01*
X002787Y007107D01*
X003068Y007107D02*
X003138Y007177D01*
X003138Y007317D01*
X003068Y007387D01*
X002998Y007567D02*
X002717Y007567D01*
X002928Y007567D02*
X002928Y007848D01*
X002998Y007848D02*
X002717Y007848D01*
X002998Y007848D02*
X003138Y007708D01*
X002998Y007567D01*
X003138Y008407D02*
X002717Y008407D01*
X002717Y008687D02*
X003138Y008407D01*
X003138Y008687D02*
X002717Y008687D01*
X002787Y008867D02*
X002717Y008937D01*
X002717Y009078D01*
X002787Y009148D01*
X002787Y008867D02*
X003068Y008867D01*
X003138Y008937D01*
X003138Y009078D01*
X003068Y009148D01*
X003138Y009707D02*
X002717Y009707D01*
X002717Y009917D01*
X002787Y009987D01*
X002858Y009987D01*
X002928Y009917D01*
X002928Y009707D01*
X003138Y009707D02*
X003138Y009917D01*
X003068Y009987D01*
X002998Y009987D01*
X002928Y009917D01*
X003068Y010167D02*
X002928Y010308D01*
X002717Y010308D01*
X002928Y010308D02*
X003068Y010448D01*
X003138Y010448D01*
X003138Y010167D02*
X003068Y010167D01*
X005107Y017530D02*
X005037Y017600D01*
X005037Y017670D01*
X005107Y017740D01*
X005317Y017740D01*
X005317Y017600D01*
X005247Y017530D01*
X005107Y017530D01*
X005317Y017740D02*
X005177Y017880D01*
X005037Y017950D01*
X005497Y017880D02*
X005567Y017950D01*
X005707Y017950D01*
X005777Y017880D01*
X005777Y017810D01*
X005707Y017740D01*
X005497Y017740D01*
X005497Y017600D02*
X005497Y017880D01*
X005957Y017880D02*
X005957Y017810D01*
X006027Y017740D01*
X005957Y017670D01*
X005957Y017600D01*
X006027Y017530D01*
X006167Y017530D01*
X006238Y017600D01*
X006418Y017530D02*
X006698Y017530D01*
X006558Y017530D02*
X006558Y017950D01*
X006698Y017810D01*
X006878Y017810D02*
X007158Y017810D01*
X007158Y017670D02*
X006878Y017670D01*
X007338Y017740D02*
X007338Y017880D01*
X007409Y017950D01*
X007619Y017950D01*
X007619Y017530D01*
X007619Y017670D02*
X007409Y017670D01*
X007338Y017740D01*
X007799Y017810D02*
X007939Y017670D01*
X007939Y017600D02*
X007939Y017530D01*
X007799Y017810D02*
X007799Y017880D01*
X007869Y017950D01*
X008009Y017950D01*
X008079Y017880D01*
X008259Y017950D02*
X008540Y017530D01*
X008720Y017530D02*
X008720Y017950D01*
X008860Y017810D01*
X009000Y017950D01*
X009000Y017530D01*
X009180Y017600D02*
X009180Y017880D01*
X009250Y017950D01*
X009390Y017950D01*
X009460Y017880D01*
X009460Y017600D01*
X009390Y017530D01*
X009250Y017530D01*
X009180Y017600D01*
X009640Y017600D02*
X009711Y017530D01*
X009851Y017530D01*
X009921Y017600D01*
X009921Y017880D01*
X009851Y017950D01*
X009711Y017950D01*
X009640Y017880D01*
X010081Y017600D02*
X010081Y017530D01*
X010151Y017530D01*
X010151Y017600D01*
X010081Y017600D01*
X010331Y017530D02*
X010331Y017810D01*
X010471Y017950D01*
X010611Y017810D01*
X010611Y017530D01*
X010791Y017600D02*
X010861Y017530D01*
X011002Y017530D01*
X011072Y017600D01*
X011002Y017740D02*
X010861Y017740D01*
X010791Y017670D01*
X010791Y017600D01*
X010611Y017740D02*
X010331Y017740D01*
X010791Y017880D02*
X010861Y017950D01*
X011002Y017950D01*
X011072Y017880D01*
X011072Y017810D01*
X011002Y017740D01*
X011252Y017530D02*
X011532Y017530D01*
X011532Y017950D01*
X011252Y017950D01*
X011392Y017740D02*
X011532Y017740D01*
X011712Y017950D02*
X011992Y017950D01*
X011852Y017950D02*
X011852Y017530D01*
X012173Y017530D02*
X012453Y017530D01*
X012453Y017950D01*
X012620Y017950D02*
X012760Y017950D01*
X012690Y017950D02*
X012690Y017530D01*
X012760Y017530D02*
X012620Y017530D01*
X012940Y017600D02*
X012940Y017740D01*
X013080Y017740D01*
X012940Y017600D02*
X013010Y017530D01*
X013150Y017530D01*
X013220Y017600D01*
X013220Y017880D01*
X013150Y017950D01*
X013010Y017950D01*
X012940Y017880D01*
X013380Y017600D02*
X013380Y017530D01*
X013450Y017530D01*
X013450Y017600D01*
X013380Y017600D01*
X013631Y017740D02*
X013701Y017670D01*
X013911Y017670D01*
X013911Y017530D02*
X013911Y017950D01*
X013701Y017950D01*
X013631Y017880D01*
X013631Y017740D01*
X014091Y017600D02*
X014091Y017880D01*
X014161Y017950D01*
X014301Y017950D01*
X014371Y017880D01*
X014371Y017600D01*
X014301Y017530D01*
X014161Y017530D01*
X014091Y017600D01*
X014551Y017530D02*
X014551Y017950D01*
X014551Y017740D02*
X014832Y017740D01*
X015012Y017670D02*
X015012Y017600D01*
X015082Y017530D01*
X015222Y017530D01*
X015292Y017600D01*
X015222Y017740D02*
X015082Y017740D01*
X015012Y017670D01*
X015012Y017880D02*
X015082Y017950D01*
X015222Y017950D01*
X015292Y017880D01*
X015292Y017810D01*
X015222Y017740D01*
X015472Y017950D02*
X015752Y017530D01*
X015932Y017950D02*
X016213Y017530D01*
X016373Y017530D02*
X016443Y017530D01*
X016443Y017600D01*
X016373Y017600D01*
X016373Y017530D01*
X016373Y017740D02*
X016443Y017740D01*
X016443Y017810D01*
X016373Y017810D01*
X016373Y017740D01*
X016623Y017670D02*
X016623Y017600D01*
X016693Y017530D01*
X016833Y017530D01*
X016903Y017600D01*
X016833Y017740D02*
X016693Y017740D01*
X016623Y017670D01*
X016623Y017880D02*
X016693Y017950D01*
X016833Y017950D01*
X016903Y017880D01*
X016903Y017810D01*
X016833Y017740D01*
X017083Y017740D02*
X017083Y017880D01*
X017154Y017950D01*
X017364Y017950D01*
X017364Y017530D01*
X017364Y017670D02*
X017154Y017670D01*
X017083Y017740D01*
X017544Y017950D02*
X017824Y017950D01*
X017684Y017950D02*
X017684Y017530D01*
X018144Y017530D02*
X018144Y017950D01*
X018284Y017950D02*
X018004Y017950D01*
X018465Y017950D02*
X018465Y017530D01*
X018465Y017740D02*
X018745Y017740D01*
X018745Y017530D02*
X018745Y017950D01*
X019865Y017741D02*
X020365Y017941D01*
X020365Y017791D01*
X020765Y017791D01*
X020765Y017691D01*
X020365Y017691D01*
X020365Y017541D01*
X019865Y017741D01*
X020015Y017741D02*
X020315Y017641D01*
X020315Y017891D01*
X020065Y017791D01*
X020265Y017691D01*
X020265Y017791D01*
X020165Y017791D01*
X020365Y017791D02*
X020365Y017741D01*
X020365Y017691D01*
X020365Y017741D02*
X020765Y017741D01*
X021871Y018490D02*
X021871Y016990D01*
X030121Y016990D01*
X030121Y018490D01*
X021871Y018490D01*
X014832Y017950D02*
X014832Y017530D01*
X006238Y017880D02*
X006167Y017950D01*
X006027Y017950D01*
X005957Y017880D01*
X006027Y017740D02*
X006097Y017740D01*
X005777Y017600D02*
X005707Y017530D01*
X005567Y017530D01*
X005497Y017600D01*
X030396Y008352D02*
X030746Y008352D01*
X030746Y008152D01*
X030746Y007552D02*
X030746Y007152D01*
X030666Y007152D02*
X030668Y007169D01*
X030673Y007186D01*
X030682Y007200D01*
X030694Y007213D01*
X030709Y007223D01*
X030725Y007229D01*
X030742Y007232D01*
X030759Y007231D01*
X030776Y007226D01*
X030791Y007218D01*
X030804Y007207D01*
X030815Y007193D01*
X030822Y007178D01*
X030826Y007161D01*
X030826Y007143D01*
X030822Y007126D01*
X030815Y007111D01*
X030804Y007097D01*
X030791Y007086D01*
X030776Y007078D01*
X030759Y007073D01*
X030742Y007072D01*
X030725Y007075D01*
X030709Y007081D01*
X030694Y007091D01*
X030682Y007104D01*
X030673Y007118D01*
X030668Y007135D01*
X030666Y007152D01*
D12*
X032687Y002959D02*
X032689Y003007D01*
X032695Y003055D01*
X032705Y003102D01*
X032718Y003148D01*
X032736Y003193D01*
X032756Y003237D01*
X032781Y003279D01*
X032809Y003318D01*
X032839Y003355D01*
X032873Y003389D01*
X032910Y003421D01*
X032948Y003450D01*
X032989Y003475D01*
X033032Y003497D01*
X033077Y003515D01*
X033123Y003529D01*
X033170Y003540D01*
X033218Y003547D01*
X033266Y003550D01*
X033314Y003549D01*
X033362Y003544D01*
X033410Y003535D01*
X033456Y003523D01*
X033501Y003506D01*
X033545Y003486D01*
X033587Y003463D01*
X033627Y003436D01*
X033665Y003406D01*
X033700Y003373D01*
X033732Y003337D01*
X033762Y003299D01*
X033788Y003258D01*
X033810Y003215D01*
X033830Y003171D01*
X033845Y003126D01*
X033857Y003079D01*
X033865Y003031D01*
X033869Y002983D01*
X033869Y002935D01*
X033865Y002887D01*
X033857Y002839D01*
X033845Y002792D01*
X033830Y002747D01*
X033810Y002703D01*
X033788Y002660D01*
X033762Y002619D01*
X033732Y002581D01*
X033700Y002545D01*
X033665Y002512D01*
X033627Y002482D01*
X033587Y002455D01*
X033545Y002432D01*
X033501Y002412D01*
X033456Y002395D01*
X033410Y002383D01*
X033362Y002374D01*
X033314Y002369D01*
X033266Y002368D01*
X033218Y002371D01*
X033170Y002378D01*
X033123Y002389D01*
X033077Y002403D01*
X033032Y002421D01*
X032989Y002443D01*
X032948Y002468D01*
X032910Y002497D01*
X032873Y002529D01*
X032839Y002563D01*
X032809Y002600D01*
X032781Y002639D01*
X032756Y002681D01*
X032736Y002725D01*
X032718Y002770D01*
X032705Y002816D01*
X032695Y002863D01*
X032689Y002911D01*
X032687Y002959D01*
X017913Y004757D02*
X017915Y004782D01*
X017921Y004807D01*
X017930Y004830D01*
X017943Y004852D01*
X017959Y004871D01*
X017978Y004888D01*
X017999Y004902D01*
X018022Y004912D01*
X018047Y004919D01*
X018072Y004922D01*
X018097Y004921D01*
X018122Y004916D01*
X018145Y004908D01*
X018168Y004895D01*
X018188Y004880D01*
X018205Y004862D01*
X018220Y004841D01*
X018231Y004819D01*
X018239Y004795D01*
X018243Y004770D01*
X018243Y004744D01*
X018239Y004719D01*
X018231Y004695D01*
X018220Y004673D01*
X018205Y004652D01*
X018188Y004634D01*
X018168Y004619D01*
X018145Y004606D01*
X018122Y004598D01*
X018097Y004593D01*
X018072Y004592D01*
X018047Y004595D01*
X018022Y004602D01*
X017999Y004612D01*
X017978Y004626D01*
X017959Y004643D01*
X017943Y004662D01*
X017930Y004684D01*
X017921Y004707D01*
X017915Y004732D01*
X017913Y004757D01*
X015196Y004757D02*
X015198Y004782D01*
X015204Y004807D01*
X015213Y004830D01*
X015226Y004852D01*
X015242Y004871D01*
X015261Y004888D01*
X015282Y004902D01*
X015305Y004912D01*
X015330Y004919D01*
X015355Y004922D01*
X015380Y004921D01*
X015405Y004916D01*
X015428Y004908D01*
X015451Y004895D01*
X015471Y004880D01*
X015488Y004862D01*
X015503Y004841D01*
X015514Y004819D01*
X015522Y004795D01*
X015526Y004770D01*
X015526Y004744D01*
X015522Y004719D01*
X015514Y004695D01*
X015503Y004673D01*
X015488Y004652D01*
X015471Y004634D01*
X015451Y004619D01*
X015428Y004606D01*
X015405Y004598D01*
X015380Y004593D01*
X015355Y004592D01*
X015330Y004595D01*
X015305Y004602D01*
X015282Y004612D01*
X015261Y004626D01*
X015242Y004643D01*
X015226Y004662D01*
X015213Y004684D01*
X015204Y004707D01*
X015198Y004732D01*
X015196Y004757D01*
X013487Y005080D02*
X013489Y005120D01*
X013495Y005159D01*
X013505Y005198D01*
X013518Y005235D01*
X013536Y005271D01*
X013557Y005305D01*
X013581Y005337D01*
X013608Y005366D01*
X013638Y005393D01*
X013670Y005416D01*
X013705Y005436D01*
X013741Y005452D01*
X013779Y005465D01*
X013818Y005474D01*
X013857Y005479D01*
X013897Y005480D01*
X013937Y005477D01*
X013976Y005470D01*
X014014Y005459D01*
X014052Y005445D01*
X014087Y005426D01*
X014120Y005405D01*
X014152Y005380D01*
X014180Y005352D01*
X014206Y005322D01*
X014228Y005289D01*
X014247Y005254D01*
X014263Y005217D01*
X014275Y005179D01*
X014283Y005140D01*
X014287Y005100D01*
X014287Y005060D01*
X014283Y005020D01*
X014275Y004981D01*
X014263Y004943D01*
X014247Y004906D01*
X014228Y004871D01*
X014206Y004838D01*
X014180Y004808D01*
X014152Y004780D01*
X014120Y004755D01*
X014087Y004734D01*
X014052Y004715D01*
X014014Y004701D01*
X013976Y004690D01*
X013937Y004683D01*
X013897Y004680D01*
X013857Y004681D01*
X013818Y004686D01*
X013779Y004695D01*
X013741Y004708D01*
X013705Y004724D01*
X013670Y004744D01*
X013638Y004767D01*
X013608Y004794D01*
X013581Y004823D01*
X013557Y004855D01*
X013536Y004889D01*
X013518Y004925D01*
X013505Y004962D01*
X013495Y005001D01*
X013489Y005040D01*
X013487Y005080D01*
X011560Y004288D02*
X011562Y004318D01*
X011568Y004348D01*
X011577Y004377D01*
X011590Y004404D01*
X011607Y004429D01*
X011626Y004452D01*
X011649Y004473D01*
X011674Y004490D01*
X011700Y004504D01*
X011729Y004514D01*
X011758Y004521D01*
X011788Y004524D01*
X011819Y004523D01*
X011849Y004518D01*
X011878Y004509D01*
X011905Y004497D01*
X011931Y004482D01*
X011955Y004463D01*
X011976Y004441D01*
X011994Y004417D01*
X012009Y004390D01*
X012020Y004362D01*
X012028Y004333D01*
X012032Y004303D01*
X012032Y004273D01*
X012028Y004243D01*
X012020Y004214D01*
X012009Y004186D01*
X011994Y004159D01*
X011976Y004135D01*
X011955Y004113D01*
X011931Y004094D01*
X011905Y004079D01*
X011878Y004067D01*
X011849Y004058D01*
X011819Y004053D01*
X011788Y004052D01*
X011758Y004055D01*
X011729Y004062D01*
X011700Y004072D01*
X011674Y004086D01*
X011649Y004103D01*
X011626Y004124D01*
X011607Y004147D01*
X011590Y004172D01*
X011577Y004199D01*
X011568Y004228D01*
X011562Y004258D01*
X011560Y004288D01*
X009001Y004288D02*
X009003Y004318D01*
X009009Y004348D01*
X009018Y004377D01*
X009031Y004404D01*
X009048Y004429D01*
X009067Y004452D01*
X009090Y004473D01*
X009115Y004490D01*
X009141Y004504D01*
X009170Y004514D01*
X009199Y004521D01*
X009229Y004524D01*
X009260Y004523D01*
X009290Y004518D01*
X009319Y004509D01*
X009346Y004497D01*
X009372Y004482D01*
X009396Y004463D01*
X009417Y004441D01*
X009435Y004417D01*
X009450Y004390D01*
X009461Y004362D01*
X009469Y004333D01*
X009473Y004303D01*
X009473Y004273D01*
X009469Y004243D01*
X009461Y004214D01*
X009450Y004186D01*
X009435Y004159D01*
X009417Y004135D01*
X009396Y004113D01*
X009372Y004094D01*
X009346Y004079D01*
X009319Y004067D01*
X009290Y004058D01*
X009260Y004053D01*
X009229Y004052D01*
X009199Y004055D01*
X009170Y004062D01*
X009141Y004072D01*
X009115Y004086D01*
X009090Y004103D01*
X009067Y004124D01*
X009048Y004147D01*
X009031Y004172D01*
X009018Y004199D01*
X009009Y004228D01*
X009003Y004258D01*
X009001Y004288D01*
X007182Y005080D02*
X007184Y005120D01*
X007190Y005159D01*
X007200Y005198D01*
X007213Y005235D01*
X007231Y005271D01*
X007252Y005305D01*
X007276Y005337D01*
X007303Y005366D01*
X007333Y005393D01*
X007365Y005416D01*
X007400Y005436D01*
X007436Y005452D01*
X007474Y005465D01*
X007513Y005474D01*
X007552Y005479D01*
X007592Y005480D01*
X007632Y005477D01*
X007671Y005470D01*
X007709Y005459D01*
X007747Y005445D01*
X007782Y005426D01*
X007815Y005405D01*
X007847Y005380D01*
X007875Y005352D01*
X007901Y005322D01*
X007923Y005289D01*
X007942Y005254D01*
X007958Y005217D01*
X007970Y005179D01*
X007978Y005140D01*
X007982Y005100D01*
X007982Y005060D01*
X007978Y005020D01*
X007970Y004981D01*
X007958Y004943D01*
X007942Y004906D01*
X007923Y004871D01*
X007901Y004838D01*
X007875Y004808D01*
X007847Y004780D01*
X007815Y004755D01*
X007782Y004734D01*
X007747Y004715D01*
X007709Y004701D01*
X007671Y004690D01*
X007632Y004683D01*
X007592Y004680D01*
X007552Y004681D01*
X007513Y004686D01*
X007474Y004695D01*
X007436Y004708D01*
X007400Y004724D01*
X007365Y004744D01*
X007333Y004767D01*
X007303Y004794D01*
X007276Y004823D01*
X007252Y004855D01*
X007231Y004889D01*
X007213Y004925D01*
X007200Y004962D01*
X007190Y005001D01*
X007184Y005040D01*
X007182Y005080D01*
X001440Y002959D02*
X001442Y003007D01*
X001448Y003055D01*
X001458Y003102D01*
X001471Y003148D01*
X001489Y003193D01*
X001509Y003237D01*
X001534Y003279D01*
X001562Y003318D01*
X001592Y003355D01*
X001626Y003389D01*
X001663Y003421D01*
X001701Y003450D01*
X001742Y003475D01*
X001785Y003497D01*
X001830Y003515D01*
X001876Y003529D01*
X001923Y003540D01*
X001971Y003547D01*
X002019Y003550D01*
X002067Y003549D01*
X002115Y003544D01*
X002163Y003535D01*
X002209Y003523D01*
X002254Y003506D01*
X002298Y003486D01*
X002340Y003463D01*
X002380Y003436D01*
X002418Y003406D01*
X002453Y003373D01*
X002485Y003337D01*
X002515Y003299D01*
X002541Y003258D01*
X002563Y003215D01*
X002583Y003171D01*
X002598Y003126D01*
X002610Y003079D01*
X002618Y003031D01*
X002622Y002983D01*
X002622Y002935D01*
X002618Y002887D01*
X002610Y002839D01*
X002598Y002792D01*
X002583Y002747D01*
X002563Y002703D01*
X002541Y002660D01*
X002515Y002619D01*
X002485Y002581D01*
X002453Y002545D01*
X002418Y002512D01*
X002380Y002482D01*
X002340Y002455D01*
X002298Y002432D01*
X002254Y002412D01*
X002209Y002395D01*
X002163Y002383D01*
X002115Y002374D01*
X002067Y002369D01*
X002019Y002368D01*
X001971Y002371D01*
X001923Y002378D01*
X001876Y002389D01*
X001830Y002403D01*
X001785Y002421D01*
X001742Y002443D01*
X001701Y002468D01*
X001663Y002497D01*
X001626Y002529D01*
X001592Y002563D01*
X001562Y002600D01*
X001534Y002639D01*
X001509Y002681D01*
X001489Y002725D01*
X001471Y002770D01*
X001458Y002816D01*
X001448Y002863D01*
X001442Y002911D01*
X001440Y002959D01*
X001440Y015215D02*
X001442Y015263D01*
X001448Y015311D01*
X001458Y015358D01*
X001471Y015404D01*
X001489Y015449D01*
X001509Y015493D01*
X001534Y015535D01*
X001562Y015574D01*
X001592Y015611D01*
X001626Y015645D01*
X001663Y015677D01*
X001701Y015706D01*
X001742Y015731D01*
X001785Y015753D01*
X001830Y015771D01*
X001876Y015785D01*
X001923Y015796D01*
X001971Y015803D01*
X002019Y015806D01*
X002067Y015805D01*
X002115Y015800D01*
X002163Y015791D01*
X002209Y015779D01*
X002254Y015762D01*
X002298Y015742D01*
X002340Y015719D01*
X002380Y015692D01*
X002418Y015662D01*
X002453Y015629D01*
X002485Y015593D01*
X002515Y015555D01*
X002541Y015514D01*
X002563Y015471D01*
X002583Y015427D01*
X002598Y015382D01*
X002610Y015335D01*
X002618Y015287D01*
X002622Y015239D01*
X002622Y015191D01*
X002618Y015143D01*
X002610Y015095D01*
X002598Y015048D01*
X002583Y015003D01*
X002563Y014959D01*
X002541Y014916D01*
X002515Y014875D01*
X002485Y014837D01*
X002453Y014801D01*
X002418Y014768D01*
X002380Y014738D01*
X002340Y014711D01*
X002298Y014688D01*
X002254Y014668D01*
X002209Y014651D01*
X002163Y014639D01*
X002115Y014630D01*
X002067Y014625D01*
X002019Y014624D01*
X001971Y014627D01*
X001923Y014634D01*
X001876Y014645D01*
X001830Y014659D01*
X001785Y014677D01*
X001742Y014699D01*
X001701Y014724D01*
X001663Y014753D01*
X001626Y014785D01*
X001592Y014819D01*
X001562Y014856D01*
X001534Y014895D01*
X001509Y014937D01*
X001489Y014981D01*
X001471Y015026D01*
X001458Y015072D01*
X001448Y015119D01*
X001442Y015167D01*
X001440Y015215D01*
X032687Y015215D02*
X032689Y015263D01*
X032695Y015311D01*
X032705Y015358D01*
X032718Y015404D01*
X032736Y015449D01*
X032756Y015493D01*
X032781Y015535D01*
X032809Y015574D01*
X032839Y015611D01*
X032873Y015645D01*
X032910Y015677D01*
X032948Y015706D01*
X032989Y015731D01*
X033032Y015753D01*
X033077Y015771D01*
X033123Y015785D01*
X033170Y015796D01*
X033218Y015803D01*
X033266Y015806D01*
X033314Y015805D01*
X033362Y015800D01*
X033410Y015791D01*
X033456Y015779D01*
X033501Y015762D01*
X033545Y015742D01*
X033587Y015719D01*
X033627Y015692D01*
X033665Y015662D01*
X033700Y015629D01*
X033732Y015593D01*
X033762Y015555D01*
X033788Y015514D01*
X033810Y015471D01*
X033830Y015427D01*
X033845Y015382D01*
X033857Y015335D01*
X033865Y015287D01*
X033869Y015239D01*
X033869Y015191D01*
X033865Y015143D01*
X033857Y015095D01*
X033845Y015048D01*
X033830Y015003D01*
X033810Y014959D01*
X033788Y014916D01*
X033762Y014875D01*
X033732Y014837D01*
X033700Y014801D01*
X033665Y014768D01*
X033627Y014738D01*
X033587Y014711D01*
X033545Y014688D01*
X033501Y014668D01*
X033456Y014651D01*
X033410Y014639D01*
X033362Y014630D01*
X033314Y014625D01*
X033266Y014624D01*
X033218Y014627D01*
X033170Y014634D01*
X033123Y014645D01*
X033077Y014659D01*
X033032Y014677D01*
X032989Y014699D01*
X032948Y014724D01*
X032910Y014753D01*
X032873Y014785D01*
X032839Y014819D01*
X032809Y014856D01*
X032781Y014895D01*
X032756Y014937D01*
X032736Y014981D01*
X032718Y015026D01*
X032705Y015072D01*
X032695Y015119D01*
X032689Y015167D01*
X032687Y015215D01*
D13*
X029840Y017361D02*
X029787Y017307D01*
X029680Y017307D01*
X029627Y017361D01*
X029627Y017414D01*
X029680Y017467D01*
X029787Y017467D01*
X029840Y017521D01*
X029840Y017574D01*
X029787Y017627D01*
X029680Y017627D01*
X029627Y017574D01*
X029490Y017627D02*
X029490Y017361D01*
X029437Y017307D01*
X029330Y017307D01*
X029277Y017361D01*
X029277Y017627D01*
X029141Y017574D02*
X029087Y017627D01*
X028980Y017627D01*
X028927Y017574D01*
X028791Y017574D02*
X028791Y017361D01*
X028737Y017307D01*
X028631Y017307D01*
X028577Y017361D01*
X028441Y017307D02*
X028227Y017307D01*
X028091Y017361D02*
X028037Y017307D01*
X027931Y017307D01*
X027877Y017361D01*
X027877Y017414D01*
X027931Y017467D01*
X028037Y017467D01*
X028091Y017521D01*
X028091Y017574D01*
X028037Y017627D01*
X027931Y017627D01*
X027877Y017574D01*
X027741Y017574D02*
X027741Y017521D01*
X027688Y017467D01*
X027581Y017467D01*
X027527Y017414D01*
X027527Y017361D01*
X027581Y017307D01*
X027688Y017307D01*
X027741Y017361D01*
X027741Y017574D02*
X027688Y017627D01*
X027581Y017627D01*
X027527Y017574D01*
X027391Y017627D02*
X027178Y017627D01*
X027041Y017627D02*
X027041Y017361D01*
X026988Y017307D01*
X026881Y017307D01*
X026828Y017361D01*
X026828Y017627D01*
X026691Y017627D02*
X026691Y017307D01*
X026478Y017307D01*
X025991Y017307D02*
X025885Y017307D01*
X025938Y017307D02*
X025938Y017627D01*
X025991Y017627D02*
X025885Y017627D01*
X025758Y017627D02*
X025545Y017307D01*
X025545Y017627D01*
X025408Y017574D02*
X025408Y017521D01*
X025355Y017467D01*
X025248Y017467D01*
X025195Y017414D01*
X025195Y017361D01*
X025248Y017307D01*
X025355Y017307D01*
X025408Y017361D01*
X025408Y017574D02*
X025355Y017627D01*
X025248Y017627D01*
X025195Y017574D01*
X025058Y017627D02*
X024845Y017627D01*
X024952Y017627D02*
X024952Y017307D01*
X024709Y017307D02*
X024709Y017521D01*
X024602Y017627D01*
X024495Y017521D01*
X024495Y017307D01*
X024359Y017307D02*
X024145Y017307D01*
X024009Y017307D02*
X023795Y017307D01*
X023659Y017307D02*
X023659Y017521D01*
X023552Y017627D01*
X023445Y017521D01*
X023445Y017307D01*
X023445Y017467D02*
X023659Y017467D01*
X024009Y017627D02*
X024009Y017307D01*
X024359Y017307D02*
X024359Y017627D01*
X024495Y017467D02*
X024709Y017467D01*
X024728Y017857D02*
X024942Y017857D01*
X024942Y018177D01*
X024728Y018177D01*
X024835Y018017D02*
X024942Y018017D01*
X025078Y017911D02*
X025078Y018124D01*
X025132Y018177D01*
X025292Y018177D01*
X025292Y017857D01*
X025132Y017857D01*
X025078Y017911D01*
X025418Y017857D02*
X025525Y017857D01*
X025472Y017857D02*
X025472Y018177D01*
X025525Y018177D02*
X025418Y018177D01*
X025661Y018177D02*
X025661Y017911D01*
X025715Y017857D01*
X025821Y017857D01*
X025875Y017911D01*
X025875Y018177D01*
X026011Y018124D02*
X026065Y018177D01*
X026171Y018177D01*
X026225Y018124D01*
X026225Y017911D01*
X026171Y017857D01*
X026065Y017857D01*
X026011Y017911D01*
X026011Y018017D01*
X026118Y018017D01*
X025758Y017627D02*
X025758Y017307D01*
X026711Y017857D02*
X026925Y017857D01*
X026925Y018177D01*
X026711Y018177D01*
X026818Y018017D02*
X026925Y018017D01*
X027061Y018017D02*
X027274Y018017D01*
X027274Y017857D02*
X027274Y018177D01*
X027411Y018177D02*
X027624Y018177D01*
X027518Y018177D02*
X027518Y017857D01*
X027391Y017627D02*
X027391Y017307D01*
X027391Y017467D02*
X027284Y017467D01*
X027061Y017857D02*
X027061Y018177D01*
X028111Y018124D02*
X028111Y017911D01*
X028164Y017857D01*
X028324Y017857D01*
X028324Y018177D01*
X028164Y018177D01*
X028111Y018124D01*
X028461Y018071D02*
X028461Y017857D01*
X028461Y018017D02*
X028674Y018017D01*
X028674Y018071D02*
X028567Y018177D01*
X028461Y018071D01*
X028674Y018071D02*
X028674Y017857D01*
X028810Y017857D02*
X029024Y017857D01*
X029024Y018177D01*
X028810Y018177D01*
X028917Y018017D02*
X029024Y018017D01*
X029160Y018017D02*
X029214Y017964D01*
X029374Y017964D01*
X029374Y017857D02*
X029374Y018177D01*
X029214Y018177D01*
X029160Y018124D01*
X029160Y018017D01*
X029267Y017964D02*
X029160Y017857D01*
X028791Y017574D02*
X028737Y017627D01*
X028631Y017627D01*
X028577Y017574D01*
X028441Y017627D02*
X028227Y017627D01*
X028334Y017467D02*
X028441Y017467D01*
X028441Y017627D02*
X028441Y017307D01*
X028927Y017361D02*
X028980Y017307D01*
X029087Y017307D01*
X029141Y017361D01*
X029141Y017574D01*
X024242Y017857D02*
X024242Y018177D01*
X024028Y018177D01*
X023892Y018124D02*
X023892Y017911D01*
X023839Y017857D01*
X023732Y017857D01*
X023679Y017911D01*
X023679Y018124D01*
X023732Y018177D01*
X023839Y018177D01*
X023892Y018124D01*
X024135Y018017D02*
X024242Y018017D01*
X023542Y017964D02*
X023382Y017964D01*
X023329Y018017D01*
X023329Y018124D01*
X023382Y018177D01*
X023542Y018177D01*
X023542Y017857D01*
X023435Y017964D02*
X023329Y017857D01*
X023309Y017627D02*
X023095Y017627D01*
X023202Y017627D02*
X023202Y017307D01*
X022959Y017307D02*
X022852Y017307D01*
X022906Y017307D02*
X022906Y017627D01*
X022959Y017627D02*
X022852Y017627D01*
X022726Y017574D02*
X022672Y017627D01*
X022566Y017627D01*
X022512Y017574D01*
X022512Y017361D01*
X022566Y017307D01*
X022672Y017307D01*
X022726Y017361D01*
X022726Y017574D01*
X022376Y017627D02*
X022376Y017307D01*
X022162Y017307D02*
X022162Y017627D01*
X022376Y017627D02*
X022162Y017307D01*
X022629Y017857D02*
X022629Y018071D01*
X022736Y018177D01*
X022842Y018071D01*
X022842Y017857D01*
X022842Y018017D02*
X022629Y018017D01*
D14*
X029446Y008602D02*
X029446Y008352D01*
X029646Y008352D01*
X029446Y008352D02*
X029446Y008102D01*
X002127Y011177D02*
X002149Y011197D01*
X002168Y011220D01*
X002184Y011245D01*
X002197Y011272D01*
X002206Y011300D01*
X002212Y011330D01*
X002214Y011359D01*
X002212Y011389D01*
X002207Y011418D01*
X002198Y011447D01*
X002185Y011474D01*
X002169Y011499D01*
X002150Y011522D01*
X002128Y011542D01*
X002104Y011560D01*
X002078Y011574D01*
X002050Y011585D01*
X002021Y011593D01*
X001992Y011597D01*
X001962Y011597D01*
X001933Y011593D01*
X001904Y011585D01*
X001876Y011574D01*
X001850Y011560D01*
X001826Y011542D01*
X001804Y011522D01*
X001785Y011499D01*
X001769Y011474D01*
X001756Y011447D01*
X001747Y011418D01*
X001742Y011389D01*
X001740Y011359D01*
X001742Y011330D01*
X001748Y011300D01*
X001757Y011272D01*
X001770Y011245D01*
X001786Y011220D01*
X001805Y011197D01*
X001827Y011177D01*
X001827Y011777D02*
X001805Y011797D01*
X001786Y011820D01*
X001770Y011845D01*
X001757Y011872D01*
X001748Y011900D01*
X001742Y011930D01*
X001740Y011959D01*
X001742Y011989D01*
X001747Y012018D01*
X001756Y012047D01*
X001769Y012074D01*
X001785Y012099D01*
X001804Y012122D01*
X001826Y012142D01*
X001850Y012160D01*
X001876Y012174D01*
X001904Y012185D01*
X001933Y012193D01*
X001962Y012197D01*
X001992Y012197D01*
X002021Y012193D01*
X002050Y012185D01*
X002078Y012174D01*
X002104Y012160D01*
X002128Y012142D01*
X002150Y012122D01*
X002169Y012099D01*
X002185Y012074D01*
X002198Y012047D01*
X002207Y012018D01*
X002212Y011989D01*
X002214Y011959D01*
X002212Y011930D01*
X002206Y011900D01*
X002197Y011872D01*
X002184Y011845D01*
X002168Y011820D01*
X002149Y011797D01*
X002127Y011777D01*
D15*
X030647Y007962D02*
X030647Y007742D01*
X030702Y007687D01*
X030812Y007687D01*
X030867Y007742D01*
X030867Y007852D02*
X030757Y007852D01*
X030867Y007852D02*
X030867Y007962D01*
X030812Y008017D01*
X030702Y008017D01*
X030647Y007962D01*
D16*
X003327Y006977D02*
X003327Y012527D01*
X003325Y012550D01*
X003320Y012573D01*
X003311Y012595D01*
X003298Y012615D01*
X003283Y012633D01*
X003265Y012648D01*
X003245Y012661D01*
X003223Y012670D01*
X003200Y012675D01*
X003177Y012677D01*
X001177Y012677D01*
X001154Y012675D01*
X001131Y012670D01*
X001109Y012661D01*
X001089Y012648D01*
X001071Y012633D01*
X001056Y012615D01*
X001043Y012595D01*
X001034Y012573D01*
X001029Y012550D01*
X001027Y012527D01*
X001027Y006977D01*
X001029Y006954D01*
X001034Y006931D01*
X001043Y006909D01*
X001056Y006889D01*
X001071Y006871D01*
X001089Y006856D01*
X001109Y006843D01*
X001131Y006834D01*
X001154Y006829D01*
X001177Y006827D01*
X003177Y006827D01*
X003200Y006829D01*
X003223Y006834D01*
X003245Y006843D01*
X003265Y006856D01*
X003283Y006871D01*
X003298Y006889D01*
X003311Y006909D01*
X003320Y006931D01*
X003325Y006954D01*
X003327Y006977D01*
X002527Y006827D02*
X002527Y010877D01*
X002127Y010187D02*
X001857Y010187D01*
X001857Y010257D01*
X001697Y010257D01*
X001697Y010047D01*
X001857Y010047D01*
X001857Y010117D01*
X002127Y010117D01*
X002127Y010187D01*
X001797Y010207D02*
X001797Y010137D01*
X001747Y010137D01*
X001236Y010177D02*
X001238Y010223D01*
X001244Y010268D01*
X001253Y010313D01*
X001267Y010357D01*
X001284Y010400D01*
X001305Y010441D01*
X001329Y010480D01*
X001356Y010517D01*
X001386Y010551D01*
X001420Y010583D01*
X001455Y010612D01*
X001493Y010638D01*
X001533Y010660D01*
X001575Y010679D01*
X001619Y010694D01*
X001663Y010706D01*
X001708Y010714D01*
X001754Y010718D01*
X001800Y010718D01*
X001846Y010714D01*
X001891Y010706D01*
X001935Y010694D01*
X001979Y010679D01*
X002021Y010660D01*
X002061Y010638D01*
X002099Y010612D01*
X002134Y010583D01*
X002168Y010551D01*
X002198Y010517D01*
X002225Y010480D01*
X002249Y010441D01*
X002270Y010400D01*
X002287Y010357D01*
X002301Y010313D01*
X002310Y010268D01*
X002316Y010223D01*
X002318Y010177D01*
X002316Y010131D01*
X002310Y010086D01*
X002301Y010041D01*
X002287Y009997D01*
X002270Y009954D01*
X002249Y009913D01*
X002225Y009874D01*
X002198Y009837D01*
X002168Y009803D01*
X002134Y009771D01*
X002099Y009742D01*
X002061Y009716D01*
X002021Y009694D01*
X001979Y009675D01*
X001935Y009660D01*
X001891Y009648D01*
X001846Y009640D01*
X001800Y009636D01*
X001754Y009636D01*
X001708Y009640D01*
X001663Y009648D01*
X001619Y009660D01*
X001575Y009675D01*
X001533Y009694D01*
X001493Y009716D01*
X001455Y009742D01*
X001420Y009771D01*
X001386Y009803D01*
X001356Y009837D01*
X001329Y009874D01*
X001305Y009913D01*
X001284Y009954D01*
X001267Y009997D01*
X001253Y010041D01*
X001244Y010086D01*
X001238Y010131D01*
X001236Y010177D01*
X001447Y010157D02*
X001449Y010170D01*
X001454Y010183D01*
X001463Y010194D01*
X001474Y010201D01*
X001487Y010206D01*
X001500Y010207D01*
X001514Y010204D01*
X001526Y010198D01*
X001536Y010189D01*
X001543Y010177D01*
X001547Y010164D01*
X001547Y010150D01*
X001543Y010137D01*
X001536Y010125D01*
X001526Y010116D01*
X001514Y010110D01*
X001500Y010107D01*
X001487Y010108D01*
X001474Y010113D01*
X001463Y010120D01*
X001454Y010131D01*
X001449Y010144D01*
X001447Y010157D01*
X001727Y010207D02*
X001797Y010207D01*
X001727Y010217D02*
X001727Y010207D01*
X001567Y009357D02*
X002007Y008397D01*
X001767Y007937D02*
X001887Y007817D01*
X001747Y007737D01*
X001767Y007937D01*
X001236Y007577D02*
X001238Y007623D01*
X001244Y007668D01*
X001253Y007713D01*
X001267Y007757D01*
X001284Y007800D01*
X001305Y007841D01*
X001329Y007880D01*
X001356Y007917D01*
X001386Y007951D01*
X001420Y007983D01*
X001455Y008012D01*
X001493Y008038D01*
X001533Y008060D01*
X001575Y008079D01*
X001619Y008094D01*
X001663Y008106D01*
X001708Y008114D01*
X001754Y008118D01*
X001800Y008118D01*
X001846Y008114D01*
X001891Y008106D01*
X001935Y008094D01*
X001979Y008079D01*
X002021Y008060D01*
X002061Y008038D01*
X002099Y008012D01*
X002134Y007983D01*
X002168Y007951D01*
X002198Y007917D01*
X002225Y007880D01*
X002249Y007841D01*
X002270Y007800D01*
X002287Y007757D01*
X002301Y007713D01*
X002310Y007668D01*
X002316Y007623D01*
X002318Y007577D01*
X002316Y007531D01*
X002310Y007486D01*
X002301Y007441D01*
X002287Y007397D01*
X002270Y007354D01*
X002249Y007313D01*
X002225Y007274D01*
X002198Y007237D01*
X002168Y007203D01*
X002134Y007171D01*
X002099Y007142D01*
X002061Y007116D01*
X002021Y007094D01*
X001979Y007075D01*
X001935Y007060D01*
X001891Y007048D01*
X001846Y007040D01*
X001800Y007036D01*
X001754Y007036D01*
X001708Y007040D01*
X001663Y007048D01*
X001619Y007060D01*
X001575Y007075D01*
X001533Y007094D01*
X001493Y007116D01*
X001455Y007142D01*
X001420Y007171D01*
X001386Y007203D01*
X001356Y007237D01*
X001329Y007274D01*
X001305Y007313D01*
X001284Y007354D01*
X001267Y007397D01*
X001253Y007441D01*
X001244Y007486D01*
X001238Y007531D01*
X001236Y007577D01*
X001767Y007857D02*
X001733Y007852D01*
X001699Y007843D01*
X001667Y007831D01*
X001636Y007815D01*
X001607Y007796D01*
X001580Y007773D01*
X001556Y007748D01*
X001535Y007720D01*
X001517Y007690D01*
X001503Y007659D01*
X001492Y007626D01*
X001485Y007592D01*
X001482Y007557D01*
X001483Y007522D01*
X001488Y007488D01*
X001496Y007454D01*
X001508Y007421D01*
X001524Y007390D01*
X001543Y007361D01*
X001565Y007334D01*
X001590Y007310D01*
X001617Y007289D01*
X001647Y007271D01*
X001679Y007256D01*
X001712Y007245D01*
X001746Y007238D01*
X001780Y007234D01*
X001815Y007235D01*
X001850Y007239D01*
X001884Y007247D01*
X001916Y007259D01*
X001947Y007274D01*
X001977Y007293D01*
X002004Y007315D01*
X002028Y007340D01*
X002050Y007367D01*
X002068Y007397D01*
X002083Y007428D01*
X002094Y007461D01*
X002102Y007495D01*
X002106Y007530D01*
X002105Y007564D01*
X002101Y007599D01*
X002094Y007633D01*
X002082Y007666D01*
X002067Y007697D01*
X002047Y008877D02*
X002127Y008877D01*
X002027Y008817D02*
X002015Y008801D01*
X002000Y008786D01*
X001983Y008775D01*
X001964Y008766D01*
X001944Y008761D01*
X001923Y008759D01*
X001902Y008761D01*
X001882Y008766D01*
X001863Y008775D01*
X001846Y008786D01*
X001831Y008801D01*
X001819Y008818D01*
X001810Y008836D01*
X001804Y008856D01*
X001801Y008877D01*
X001802Y008897D01*
X001807Y008918D01*
X001236Y008877D02*
X001238Y008923D01*
X001244Y008968D01*
X001253Y009013D01*
X001267Y009057D01*
X001284Y009100D01*
X001305Y009141D01*
X001329Y009180D01*
X001356Y009217D01*
X001386Y009251D01*
X001420Y009283D01*
X001455Y009312D01*
X001493Y009338D01*
X001533Y009360D01*
X001575Y009379D01*
X001619Y009394D01*
X001663Y009406D01*
X001708Y009414D01*
X001754Y009418D01*
X001800Y009418D01*
X001846Y009414D01*
X001891Y009406D01*
X001935Y009394D01*
X001979Y009379D01*
X002021Y009360D01*
X002061Y009338D01*
X002099Y009312D01*
X002134Y009283D01*
X002168Y009251D01*
X002198Y009217D01*
X002225Y009180D01*
X002249Y009141D01*
X002270Y009100D01*
X002287Y009057D01*
X002301Y009013D01*
X002310Y008968D01*
X002316Y008923D01*
X002318Y008877D01*
X002316Y008831D01*
X002310Y008786D01*
X002301Y008741D01*
X002287Y008697D01*
X002270Y008654D01*
X002249Y008613D01*
X002225Y008574D01*
X002198Y008537D01*
X002168Y008503D01*
X002134Y008471D01*
X002099Y008442D01*
X002061Y008416D01*
X002021Y008394D01*
X001979Y008375D01*
X001935Y008360D01*
X001891Y008348D01*
X001846Y008340D01*
X001800Y008336D01*
X001754Y008336D01*
X001708Y008340D01*
X001663Y008348D01*
X001619Y008360D01*
X001575Y008375D01*
X001533Y008394D01*
X001493Y008416D01*
X001455Y008442D01*
X001420Y008471D01*
X001386Y008503D01*
X001356Y008537D01*
X001329Y008574D01*
X001305Y008613D01*
X001284Y008654D01*
X001267Y008697D01*
X001253Y008741D01*
X001244Y008786D01*
X001238Y008831D01*
X001236Y008877D01*
X001487Y008877D02*
X001567Y008877D01*
X001627Y008777D02*
X001614Y008793D01*
X001603Y008811D01*
X001596Y008830D01*
X001592Y008851D01*
X001593Y008871D01*
X001596Y008892D01*
X001604Y008911D01*
X001615Y008929D01*
X001629Y008944D01*
X001645Y008957D01*
X001663Y008966D01*
X001683Y008972D01*
X001704Y008975D01*
X001724Y008974D01*
X001744Y008969D01*
X001763Y008960D01*
X001780Y008949D01*
X001795Y008934D01*
X001807Y008917D01*
X001988Y008998D02*
X002005Y008983D01*
X002020Y008966D01*
X002031Y008947D01*
X002040Y008926D01*
X002045Y008904D01*
X002046Y008882D01*
X002043Y008860D01*
X002037Y008838D01*
X002028Y008818D01*
X002528Y010877D02*
X002579Y010909D01*
X002628Y010944D01*
X002675Y010982D01*
X002719Y011024D01*
X002761Y011068D01*
X002799Y011115D01*
X002834Y011164D01*
X002866Y011215D01*
X002895Y011268D01*
X002920Y011323D01*
X002941Y011380D01*
X002959Y011438D01*
X002972Y011497D01*
X002982Y011556D01*
X002988Y011617D01*
X002990Y011677D01*
X002988Y011737D01*
X002982Y011798D01*
X002972Y011857D01*
X002959Y011916D01*
X002941Y011974D01*
X002920Y012031D01*
X002895Y012086D01*
X002866Y012139D01*
X002834Y012190D01*
X002799Y012239D01*
X002761Y012286D01*
X002719Y012330D01*
X002675Y012372D01*
X002628Y012410D01*
X002579Y012445D01*
X002528Y012477D01*
X002527Y012477D02*
X002527Y012677D01*
X001270Y011677D02*
X001272Y011730D01*
X001278Y011782D01*
X001288Y011834D01*
X001301Y011885D01*
X001319Y011935D01*
X001340Y011984D01*
X001365Y012031D01*
X001393Y012075D01*
X001424Y012118D01*
X001459Y012158D01*
X001496Y012195D01*
X001536Y012230D01*
X001579Y012261D01*
X001624Y012289D01*
X001670Y012314D01*
X001719Y012335D01*
X001769Y012353D01*
X001820Y012366D01*
X001872Y012376D01*
X001924Y012382D01*
X001977Y012384D01*
X002030Y012382D01*
X002082Y012376D01*
X002134Y012366D01*
X002185Y012353D01*
X002235Y012335D01*
X002284Y012314D01*
X002331Y012289D01*
X002375Y012261D01*
X002418Y012230D01*
X002458Y012195D01*
X002495Y012158D01*
X002530Y012118D01*
X002561Y012075D01*
X002589Y012030D01*
X002614Y011984D01*
X002635Y011935D01*
X002653Y011885D01*
X002666Y011834D01*
X002676Y011782D01*
X002682Y011730D01*
X002684Y011677D01*
X002682Y011624D01*
X002676Y011572D01*
X002666Y011520D01*
X002653Y011469D01*
X002635Y011419D01*
X002614Y011370D01*
X002589Y011323D01*
X002561Y011279D01*
X002530Y011236D01*
X002495Y011196D01*
X002458Y011159D01*
X002418Y011124D01*
X002375Y011093D01*
X002330Y011065D01*
X002284Y011040D01*
X002235Y011019D01*
X002185Y011001D01*
X002134Y010988D01*
X002082Y010978D01*
X002030Y010972D01*
X001977Y010970D01*
X001924Y010972D01*
X001872Y010978D01*
X001820Y010988D01*
X001769Y011001D01*
X001719Y011019D01*
X001670Y011040D01*
X001623Y011065D01*
X001579Y011093D01*
X001536Y011124D01*
X001496Y011159D01*
X001459Y011196D01*
X001424Y011236D01*
X001393Y011279D01*
X001365Y011324D01*
X001340Y011370D01*
X001319Y011419D01*
X001301Y011469D01*
X001288Y011520D01*
X001278Y011572D01*
X001272Y011624D01*
X001270Y011677D01*
D17*
X014572Y007658D02*
X014585Y007573D01*
X014917Y007573D01*
X014914Y007658D01*
X014572Y007658D01*
X014700Y007658D02*
X014769Y007136D01*
X014859Y007135D01*
X014787Y007658D01*
X014700Y007658D01*
X014783Y007652D02*
X014787Y007658D01*
X014914Y007657D02*
X014922Y007573D01*
X014903Y007574D01*
X014968Y007661D02*
X015037Y007139D01*
X015127Y007138D01*
X015055Y007661D01*
X014968Y007661D01*
X015051Y007655D02*
X015055Y007661D01*
X015125Y007653D02*
X015126Y007657D01*
X015130Y007658D01*
X015229Y007658D01*
X015369Y007468D01*
X015343Y007476D02*
X015181Y007175D01*
X015171Y007155D01*
X015167Y007140D01*
X015172Y007136D01*
X015259Y007136D01*
X015264Y007156D01*
X015267Y007142D02*
X015393Y007380D01*
X015301Y007371D02*
X015299Y007415D01*
X015126Y007649D01*
X015125Y007653D01*
X015343Y007648D02*
X015420Y007135D01*
X015499Y007135D01*
X015506Y007139D01*
X015510Y007152D01*
X015432Y007658D01*
X015354Y007658D01*
X015343Y007648D01*
X015690Y007643D02*
X015690Y007635D01*
X015700Y007568D01*
X015706Y007565D01*
X015713Y007566D01*
X015731Y007571D01*
X015749Y007574D01*
X015765Y007577D01*
X015791Y007578D01*
X015815Y007578D01*
X015835Y007575D01*
X015853Y007573D01*
X015892Y007560D01*
X015933Y007544D01*
X015963Y007523D01*
X015989Y007504D01*
X016006Y007481D01*
X016020Y007454D01*
X016035Y007421D01*
X016043Y007392D01*
X016044Y007330D01*
X016037Y007307D01*
X016025Y007278D01*
X016013Y007260D01*
X015995Y007242D01*
X015976Y007230D01*
X015949Y007221D01*
X015942Y007218D01*
X015871Y007218D01*
X015860Y007223D01*
X015842Y007233D01*
X015836Y007239D01*
X015833Y007261D01*
X015829Y007279D01*
X015829Y007292D01*
X015835Y007297D01*
X015891Y007297D01*
X015896Y007303D01*
X015885Y007388D01*
X015882Y007388D02*
X015781Y007388D01*
X015727Y007381D01*
X015727Y007378D01*
X015726Y007369D01*
X015726Y007367D01*
X015743Y007242D01*
X015752Y007196D01*
X015771Y007179D01*
X015795Y007162D01*
X015819Y007150D01*
X015841Y007141D01*
X015863Y007136D01*
X015968Y007135D01*
X015988Y007142D01*
X016006Y007150D01*
X016031Y007162D01*
X016055Y007180D01*
X016074Y007198D01*
X016093Y007223D01*
X016106Y007242D01*
X016118Y007266D01*
X016122Y007284D01*
X016130Y007315D01*
X016130Y007402D01*
X016119Y007445D01*
X016110Y007479D01*
X016085Y007527D01*
X016060Y007558D01*
X016036Y007583D01*
X015998Y007610D01*
X015964Y007630D01*
X015921Y007647D01*
X015861Y007663D01*
X015732Y007663D01*
X015709Y007655D01*
X015695Y007650D01*
X015690Y007643D01*
X015718Y007571D02*
X015713Y007566D01*
X015415Y007282D02*
X015499Y007135D01*
X015267Y007142D02*
X015260Y007136D01*
X015207Y007163D01*
X016213Y007141D02*
X016138Y007649D01*
X016146Y007656D01*
X016150Y007658D01*
X016230Y007658D01*
X016281Y007287D01*
X016258Y007261D02*
X016294Y007135D01*
X016306Y007143D01*
X016491Y007557D01*
X016457Y007504D02*
X016515Y007137D01*
X016521Y007137D01*
X016516Y007135D02*
X016593Y007136D01*
X016599Y007140D01*
X016604Y007154D01*
X016527Y007658D01*
X016445Y007658D01*
X016258Y007261D01*
X016246Y007329D02*
X016295Y007326D01*
X016294Y007136D02*
X016217Y007135D01*
X016213Y007141D01*
X016321Y006921D02*
X016282Y006901D01*
X016251Y006871D01*
X016228Y006838D01*
X016213Y006794D01*
X016207Y006767D01*
X016207Y006697D01*
X016222Y006626D01*
X016238Y006573D01*
X016268Y006508D01*
X016304Y006462D01*
X016340Y006427D01*
X016388Y006404D01*
X016429Y006392D01*
X016487Y006392D01*
X016549Y006411D01*
X016581Y006438D01*
X016611Y006468D01*
X016629Y006505D01*
X016640Y006560D01*
X016640Y006608D01*
X016632Y006657D01*
X016615Y006720D01*
X016583Y006796D01*
X016555Y006845D01*
X016506Y006893D01*
X016468Y006914D01*
X016439Y006927D01*
X016403Y006931D01*
X016354Y006931D01*
X016321Y006921D01*
X016403Y006931D02*
X016404Y006931D01*
X016412Y006842D02*
X016362Y006843D01*
X016351Y006843D01*
X016334Y006831D01*
X016315Y006810D01*
X016303Y006793D01*
X016297Y006779D01*
X016294Y006747D01*
X016295Y006710D01*
X016304Y006649D01*
X016316Y006603D01*
X016335Y006566D01*
X016355Y006532D01*
X016389Y006501D01*
X016421Y006484D01*
X016452Y006476D01*
X016476Y006476D01*
X016503Y006487D01*
X016524Y006504D01*
X016541Y006528D01*
X016549Y006549D01*
X016549Y006631D01*
X016539Y006666D01*
X016529Y006704D01*
X016503Y006764D01*
X016481Y006800D01*
X016449Y006828D01*
X016425Y006839D01*
X016412Y006842D01*
X016654Y006802D02*
X016654Y006755D01*
X016673Y006707D01*
X016703Y006672D01*
X016735Y006642D01*
X016779Y006623D01*
X016886Y006623D01*
X016920Y006398D01*
X017009Y006399D01*
X017007Y006410D01*
X017008Y006403D02*
X016939Y006921D01*
X016767Y006921D01*
X016723Y006904D01*
X016689Y006876D01*
X016666Y006840D01*
X016654Y006802D01*
X016744Y006791D02*
X016744Y006750D01*
X016761Y006736D01*
X016782Y006721D01*
X016788Y006718D01*
X016872Y006717D01*
X016851Y006836D01*
X016850Y006836D02*
X016774Y006836D01*
X016767Y006828D01*
X016754Y006814D01*
X016748Y006806D01*
X016744Y006791D01*
X016776Y006619D02*
X016662Y006415D01*
X016662Y006405D01*
X016667Y006398D01*
X016761Y006398D01*
X016875Y006614D01*
X016885Y006631D01*
X017020Y006706D02*
X017050Y006671D01*
X017082Y006641D01*
X017126Y006622D01*
X017233Y006622D01*
X017267Y006397D01*
X017356Y006398D01*
X017354Y006409D01*
X017355Y006402D02*
X017286Y006920D01*
X017114Y006920D01*
X017070Y006903D01*
X017036Y006875D01*
X017013Y006839D01*
X017001Y006801D01*
X017001Y006754D01*
X017020Y006706D01*
X017091Y006749D02*
X017108Y006735D01*
X017129Y006720D01*
X017135Y006717D01*
X017219Y006716D01*
X017198Y006835D01*
X017197Y006835D02*
X017121Y006835D01*
X017114Y006827D01*
X017101Y006813D01*
X017095Y006805D01*
X017091Y006790D01*
X017091Y006749D01*
X017014Y007134D02*
X016909Y007135D01*
X016887Y007140D01*
X016865Y007149D01*
X016841Y007161D01*
X016817Y007178D01*
X016798Y007195D01*
X016789Y007241D01*
X016772Y007366D01*
X016772Y007368D01*
X016773Y007377D01*
X016773Y007380D01*
X016827Y007387D01*
X016928Y007387D01*
X016931Y007387D02*
X016942Y007302D01*
X016937Y007296D01*
X016881Y007296D01*
X016875Y007291D01*
X016875Y007278D01*
X016879Y007260D01*
X016882Y007238D01*
X016888Y007232D01*
X016906Y007222D01*
X016917Y007217D01*
X016988Y007217D01*
X016995Y007220D01*
X017022Y007229D01*
X017041Y007241D01*
X017059Y007259D01*
X017071Y007277D01*
X017083Y007306D01*
X017090Y007329D01*
X017089Y007391D01*
X017081Y007420D01*
X017066Y007453D01*
X017052Y007480D01*
X017035Y007503D01*
X017009Y007522D01*
X016979Y007543D01*
X016938Y007559D01*
X016899Y007572D01*
X016881Y007574D01*
X016861Y007577D01*
X016837Y007577D01*
X016811Y007576D01*
X016795Y007573D01*
X016777Y007570D01*
X016759Y007565D01*
X016764Y007570D01*
X016759Y007565D02*
X016752Y007564D01*
X016746Y007567D01*
X016736Y007634D01*
X016736Y007642D01*
X016741Y007649D01*
X016755Y007654D01*
X016778Y007662D01*
X016907Y007662D01*
X016967Y007646D01*
X017010Y007629D01*
X017044Y007609D01*
X017082Y007582D01*
X017106Y007557D01*
X017131Y007526D01*
X017156Y007478D01*
X017165Y007444D01*
X017176Y007401D01*
X017176Y007314D01*
X017168Y007283D01*
X017164Y007265D01*
X017152Y007241D01*
X017139Y007222D01*
X017120Y007197D01*
X017101Y007179D01*
X017077Y007161D01*
X017052Y007149D01*
X017034Y007141D01*
X017014Y007134D01*
X017207Y007143D02*
X017207Y007153D01*
X017321Y007357D01*
X017324Y007361D02*
X017431Y007361D01*
X017465Y007136D01*
X017554Y007137D01*
X017552Y007148D01*
X017553Y007141D02*
X017484Y007659D01*
X017312Y007659D01*
X017268Y007642D01*
X017234Y007614D01*
X017211Y007578D01*
X017199Y007540D01*
X017199Y007493D01*
X017218Y007445D01*
X017248Y007410D01*
X017280Y007380D01*
X017324Y007361D01*
X017333Y007456D02*
X017417Y007455D01*
X017396Y007574D01*
X017395Y007574D02*
X017319Y007574D01*
X017312Y007566D01*
X017299Y007552D01*
X017293Y007544D01*
X017289Y007529D01*
X017289Y007488D01*
X017306Y007474D01*
X017327Y007459D01*
X017333Y007456D01*
X017430Y007369D02*
X017420Y007352D01*
X017306Y007136D01*
X017212Y007136D01*
X017207Y007143D01*
X017596Y007149D02*
X017604Y007136D01*
X017685Y007136D01*
X017687Y007135D02*
X017751Y007505D01*
X017681Y007631D02*
X017910Y007136D01*
X017965Y007136D01*
X017966Y007136D02*
X017988Y007135D01*
X017992Y007138D01*
X017993Y007141D02*
X017993Y007165D01*
X017764Y007658D01*
X017688Y007658D01*
X017596Y007149D01*
X017663Y007173D02*
X017687Y007135D01*
X017713Y007272D02*
X017854Y007272D01*
X017838Y007363D02*
X017801Y007358D01*
X017717Y007357D01*
X017983Y007135D02*
X017993Y007141D01*
X018047Y007135D02*
X018129Y007135D01*
X018136Y007145D01*
X018063Y007658D01*
X017972Y007658D01*
X018047Y007135D01*
X018102Y007362D02*
X018322Y007362D01*
X018312Y007445D02*
X018092Y007445D01*
X018274Y007659D02*
X018362Y007659D01*
X018439Y007135D01*
X018353Y007136D01*
X018348Y007138D01*
X018274Y007659D01*
X018428Y007650D02*
X018435Y007573D01*
X018458Y007573D01*
X018478Y007578D01*
X018550Y007580D01*
X018571Y007577D01*
X018608Y007570D01*
X018641Y007559D01*
X018681Y007539D01*
X018728Y007501D01*
X018748Y007473D01*
X018765Y007438D01*
X018777Y007399D01*
X018776Y007324D01*
X018771Y007303D01*
X018761Y007282D01*
X018749Y007263D01*
X018728Y007244D01*
X018702Y007230D01*
X018679Y007221D01*
X018609Y007222D01*
X018590Y007227D01*
X018558Y007233D01*
X018533Y007246D01*
X018505Y007257D01*
X018489Y007261D01*
X018482Y007256D01*
X018479Y007251D01*
X018486Y007205D01*
X018491Y007172D01*
X018501Y007165D01*
X018531Y007154D01*
X018555Y007145D01*
X018590Y007136D01*
X018694Y007136D01*
X018735Y007150D01*
X018769Y007167D01*
X018797Y007189D01*
X018819Y007214D01*
X018844Y007260D01*
X018862Y007311D01*
X018862Y007406D01*
X018853Y007453D01*
X018839Y007494D01*
X018821Y007527D01*
X018793Y007558D01*
X018751Y007598D01*
X018709Y007625D01*
X018659Y007646D01*
X018593Y007665D01*
X018463Y007664D01*
X018439Y007657D01*
X018429Y007650D01*
X017763Y007994D02*
X017775Y008018D01*
X017779Y008036D01*
X017787Y008067D01*
X017787Y008154D01*
X017776Y008197D01*
X017767Y008231D01*
X017742Y008279D01*
X017717Y008310D01*
X017693Y008335D01*
X017655Y008362D01*
X017621Y008382D01*
X017578Y008399D01*
X017518Y008415D01*
X017389Y008415D01*
X017366Y008407D01*
X017352Y008402D01*
X017347Y008395D01*
X017347Y008387D01*
X017357Y008320D01*
X017363Y008317D01*
X017370Y008318D01*
X017388Y008323D01*
X017406Y008326D01*
X017422Y008329D01*
X017448Y008330D01*
X017472Y008330D01*
X017492Y008327D01*
X017510Y008325D01*
X017549Y008312D01*
X017590Y008296D01*
X017620Y008275D01*
X017646Y008256D01*
X017663Y008233D01*
X017677Y008206D01*
X017692Y008173D01*
X017700Y008144D01*
X017701Y008082D01*
X017694Y008059D01*
X017682Y008030D01*
X017670Y008012D01*
X017652Y007994D01*
X017633Y007982D01*
X017606Y007973D01*
X017599Y007970D01*
X017528Y007970D01*
X017517Y007975D01*
X017499Y007985D01*
X017493Y007991D01*
X017490Y008013D01*
X017486Y008031D01*
X017486Y008044D01*
X017492Y008049D01*
X017548Y008049D01*
X017553Y008055D01*
X017542Y008140D01*
X017539Y008140D02*
X017438Y008140D01*
X017384Y008133D01*
X017384Y008130D01*
X017383Y008121D01*
X017383Y008119D01*
X017400Y007994D01*
X017409Y007948D01*
X017428Y007931D01*
X017452Y007914D01*
X017476Y007902D01*
X017498Y007893D01*
X017520Y007888D01*
X017625Y007887D01*
X017645Y007894D01*
X017663Y007902D01*
X017688Y007914D01*
X017712Y007932D01*
X017731Y007950D01*
X017750Y007975D01*
X017763Y007994D01*
X017368Y007898D02*
X017291Y008415D01*
X017164Y008415D01*
X017136Y008406D01*
X017102Y008392D01*
X017076Y008369D01*
X017058Y008339D01*
X017047Y008305D01*
X017047Y008256D01*
X017052Y008237D01*
X017062Y008212D01*
X017070Y008196D01*
X017081Y008185D01*
X017081Y008167D01*
X017069Y008156D01*
X017043Y008127D01*
X017030Y008103D01*
X017025Y008079D01*
X017021Y008056D01*
X017021Y008035D01*
X017028Y008005D01*
X017044Y007964D01*
X017060Y007947D01*
X017084Y007923D01*
X017104Y007909D01*
X017124Y007899D01*
X017142Y007892D01*
X017163Y007888D01*
X017363Y007886D01*
X017366Y007894D01*
X017368Y007898D01*
X017263Y007970D02*
X017242Y008123D01*
X017239Y008124D02*
X017173Y008124D01*
X017162Y008120D01*
X017148Y008112D01*
X017135Y008099D01*
X017123Y008086D01*
X017113Y008072D01*
X017110Y008058D01*
X017110Y008028D01*
X017119Y008013D01*
X017142Y007990D01*
X017163Y007977D01*
X017184Y007968D01*
X017177Y007970D02*
X017263Y007970D01*
X017229Y008210D02*
X017217Y008325D01*
X017160Y008324D01*
X017152Y008318D01*
X017144Y008313D01*
X017136Y008301D01*
X017137Y008259D01*
X017140Y008253D01*
X017148Y008241D01*
X017158Y008230D01*
X017168Y008220D01*
X017186Y008212D01*
X017200Y008209D01*
X017227Y008210D01*
X017370Y008318D02*
X017375Y008323D01*
X016824Y008086D02*
X016824Y007998D01*
X016816Y007979D01*
X016798Y007943D01*
X016779Y007918D01*
X016755Y007900D01*
X016732Y007890D01*
X016699Y007881D01*
X016600Y007881D01*
X016576Y007888D01*
X016553Y007900D01*
X016530Y007915D01*
X016509Y007936D01*
X016490Y007965D01*
X016472Y008012D01*
X016416Y008380D01*
X016414Y008393D01*
X016417Y008402D01*
X016425Y008408D01*
X016506Y008408D01*
X016560Y008042D01*
X016562Y008031D01*
X016571Y008017D01*
X016580Y008002D01*
X016590Y007989D01*
X016603Y007979D01*
X016616Y007969D01*
X016630Y007965D01*
X016652Y007964D01*
X016671Y007965D01*
X016682Y007969D01*
X016701Y007976D01*
X016719Y007993D01*
X016729Y008002D01*
X016732Y008018D01*
X016732Y008061D01*
X016730Y008072D01*
X016685Y008383D01*
X016683Y008392D01*
X016684Y008399D01*
X016693Y008407D01*
X016769Y008407D01*
X016771Y008407D02*
X016824Y008086D01*
X016410Y008002D02*
X016399Y008002D01*
X016359Y007986D01*
X016339Y007979D01*
X016316Y007969D01*
X016243Y007970D01*
X016234Y007974D01*
X016217Y007986D01*
X016204Y008000D01*
X016185Y008025D01*
X016184Y008055D01*
X016186Y008075D01*
X016198Y008093D01*
X016215Y008109D01*
X016244Y008121D01*
X016290Y008136D01*
X016318Y008153D01*
X016339Y008172D01*
X016360Y008206D01*
X016372Y008242D01*
X016372Y008279D01*
X016361Y008314D01*
X016353Y008334D01*
X016333Y008361D01*
X016316Y008376D01*
X016288Y008395D01*
X016259Y008409D01*
X016226Y008415D01*
X016178Y008414D01*
X016131Y008407D01*
X016113Y008403D01*
X016107Y008396D01*
X016111Y008330D01*
X016113Y008323D01*
X016118Y008319D01*
X016138Y008318D01*
X016155Y008318D01*
X016172Y008325D01*
X016237Y008325D01*
X016247Y008319D01*
X016261Y008309D01*
X016273Y008295D01*
X016279Y008286D01*
X016283Y008268D01*
X016281Y008249D01*
X016270Y008235D01*
X016248Y008222D01*
X016211Y008204D01*
X016176Y008189D01*
X016139Y008166D01*
X016122Y008141D01*
X016106Y008111D01*
X016094Y008077D01*
X016094Y008037D01*
X016101Y008014D01*
X016107Y007993D01*
X016119Y007969D01*
X016131Y007951D01*
X016154Y007927D01*
X016184Y007906D01*
X016229Y007887D01*
X016264Y007880D01*
X016306Y007881D01*
X016352Y007889D01*
X016378Y007899D01*
X016404Y007907D01*
X016422Y007918D01*
X016422Y007945D01*
X016410Y008002D01*
X016073Y007900D02*
X015996Y008417D01*
X015869Y008417D01*
X015841Y008408D01*
X015807Y008394D01*
X015781Y008371D01*
X015763Y008341D01*
X015752Y008307D01*
X015752Y008258D01*
X015757Y008239D01*
X015767Y008214D01*
X015775Y008198D01*
X015786Y008187D01*
X015786Y008169D01*
X015774Y008158D01*
X015748Y008129D01*
X015735Y008105D01*
X015730Y008081D01*
X015726Y008058D01*
X015726Y008037D01*
X015733Y008007D01*
X015749Y007966D01*
X015765Y007949D01*
X015789Y007925D01*
X015809Y007911D01*
X015829Y007901D01*
X015847Y007894D01*
X015868Y007890D01*
X016068Y007888D01*
X016071Y007896D01*
X016073Y007900D01*
X015968Y007972D02*
X015947Y008125D01*
X015944Y008126D02*
X015878Y008126D01*
X015867Y008122D01*
X015853Y008114D01*
X015840Y008101D01*
X015828Y008088D01*
X015818Y008074D01*
X015815Y008060D01*
X015815Y008030D01*
X015824Y008015D01*
X015847Y007992D01*
X015868Y007979D01*
X015889Y007970D01*
X015882Y007972D02*
X015968Y007972D01*
X015934Y008212D02*
X015922Y008327D01*
X015865Y008326D01*
X015857Y008320D01*
X015849Y008315D01*
X015841Y008303D01*
X015842Y008261D01*
X015845Y008255D01*
X015853Y008243D01*
X015863Y008232D01*
X015873Y008222D01*
X015891Y008214D01*
X015905Y008211D01*
X015932Y008212D01*
X016594Y007658D02*
X016663Y007136D01*
X016753Y007135D01*
X016681Y007658D01*
X016594Y007658D01*
X016677Y007652D02*
X016681Y007658D01*
X016493Y007468D02*
X016452Y007466D01*
X023121Y009069D02*
X023186Y009069D01*
X023164Y009033D01*
X023175Y009061D01*
X023174Y009062D01*
X021402Y003164D02*
X021497Y003079D01*
X021355Y003079D01*
X021457Y003086D02*
X021462Y003093D01*
X021466Y003087D02*
X021457Y003086D01*
X021466Y003087D02*
X021481Y003086D01*
X021462Y003100D01*
X023199Y003086D02*
X023234Y003079D01*
X023301Y003079D01*
X023301Y003082D01*
X023297Y003086D01*
X023241Y003126D01*
X023253Y003108D02*
X023290Y003082D01*
X023258Y003086D01*
X023247Y003086D01*
X023257Y003099D01*
X023267Y003092D01*
X023263Y003091D01*
X023256Y003093D01*
X024373Y003078D02*
X024399Y003084D01*
X024411Y003085D01*
X024404Y003092D01*
X024400Y003092D01*
X024407Y003096D02*
X024419Y003079D01*
X024373Y003078D01*
X024407Y003096D02*
X024383Y003122D01*
D18*
X017479Y005812D02*
X017445Y005733D01*
X017359Y005677D01*
X017273Y005690D01*
X017222Y005732D01*
X017196Y005787D01*
X017185Y005794D02*
X017184Y005794D01*
X017210Y005917D02*
X017236Y005952D01*
X017277Y005978D01*
X017329Y005986D01*
X017377Y005982D01*
X017417Y005964D01*
X017470Y005898D01*
X017479Y005812D01*
X017073Y005898D02*
X017070Y005949D01*
X017033Y005978D01*
X016896Y005978D01*
X016766Y005872D02*
X016710Y005959D01*
X016654Y005989D01*
X016584Y005985D01*
X016522Y005959D01*
X016487Y005901D01*
X016470Y005826D01*
X016472Y005687D01*
X016552Y005691D02*
X016618Y005674D01*
X016688Y005695D01*
X016750Y005763D01*
X016766Y005872D01*
X016889Y005791D02*
X017045Y005863D01*
X017073Y005898D01*
X016889Y005791D02*
X016879Y005747D01*
X016890Y005714D01*
X016946Y005685D01*
X017084Y005683D01*
X016989Y006417D02*
X016921Y006901D01*
X016882Y006902D01*
X016958Y006415D01*
X016936Y006415D01*
X016858Y006903D01*
X016768Y006899D01*
X016732Y006882D01*
X016705Y006862D01*
X016685Y006834D01*
X016675Y006796D01*
X016676Y006742D01*
X016713Y006686D01*
X016758Y006654D01*
X016788Y006644D01*
X016872Y006642D01*
X016865Y006698D01*
X016813Y006697D01*
X016778Y006701D01*
X016736Y006727D01*
X016722Y006763D01*
X016726Y006800D01*
X016746Y006835D01*
X016772Y006856D01*
X016815Y006855D01*
X016839Y006856D01*
X016836Y006875D01*
X016784Y006871D01*
X016735Y006855D01*
X016708Y006820D01*
X016698Y006777D01*
X016709Y006734D01*
X016735Y006688D01*
X016770Y006671D01*
X016798Y006667D01*
X016842Y006672D01*
X016817Y006651D02*
X016684Y006414D01*
X016747Y006414D01*
X016856Y006622D01*
X016828Y006608D01*
X016726Y006432D01*
X017060Y006685D02*
X017105Y006653D01*
X017135Y006643D01*
X017219Y006641D01*
X017212Y006697D01*
X017160Y006696D01*
X017125Y006700D01*
X017083Y006726D01*
X017069Y006762D01*
X017073Y006799D01*
X017093Y006834D01*
X017119Y006855D01*
X017162Y006854D01*
X017186Y006855D01*
X017183Y006874D01*
X017131Y006870D01*
X017082Y006854D01*
X017055Y006819D01*
X017045Y006776D01*
X017056Y006733D01*
X017082Y006687D01*
X017117Y006670D01*
X017145Y006666D01*
X017189Y006671D01*
X017060Y006685D02*
X017023Y006741D01*
X017022Y006795D01*
X017032Y006833D01*
X017052Y006861D01*
X017079Y006881D01*
X017115Y006898D01*
X017205Y006902D01*
X017283Y006414D01*
X017305Y006414D01*
X017229Y006901D01*
X017268Y006900D01*
X017336Y006416D01*
X017292Y007152D02*
X017401Y007360D01*
X017373Y007346D01*
X017271Y007170D01*
X017292Y007152D02*
X017229Y007152D01*
X017362Y007389D01*
X017343Y007405D02*
X017387Y007410D01*
X017410Y007436D02*
X017358Y007435D01*
X017323Y007439D01*
X017281Y007465D01*
X017267Y007501D01*
X017271Y007538D01*
X017291Y007573D01*
X017317Y007594D01*
X017360Y007593D01*
X017384Y007594D01*
X017381Y007613D01*
X017329Y007609D01*
X017280Y007593D01*
X017253Y007558D01*
X017243Y007515D01*
X017254Y007472D01*
X017280Y007426D01*
X017315Y007409D01*
X017343Y007405D01*
X017333Y007382D02*
X017417Y007380D01*
X017410Y007436D01*
X017333Y007382D02*
X017303Y007392D01*
X017258Y007424D01*
X017221Y007480D01*
X017220Y007534D01*
X017230Y007572D01*
X017250Y007600D01*
X017277Y007620D01*
X017313Y007637D01*
X017403Y007641D01*
X017481Y007153D01*
X017503Y007153D01*
X017427Y007640D01*
X017466Y007639D01*
X017534Y007155D01*
X016733Y007152D02*
X016665Y007638D01*
X016640Y007639D01*
X016695Y007174D01*
X016681Y007154D02*
X016733Y007152D01*
X016681Y007154D02*
X016614Y007641D01*
X016512Y007639D02*
X016502Y007628D01*
X016512Y007639D02*
X016583Y007155D01*
X016534Y007153D01*
X016472Y007539D01*
X016459Y007639D01*
X016486Y007639D01*
X016555Y007173D01*
X016293Y007160D02*
X016230Y007155D01*
X016158Y007638D01*
X016214Y007639D01*
X016259Y007294D01*
X016262Y007186D01*
X016213Y007411D01*
X016185Y007625D01*
X016449Y007624D02*
X016302Y007310D01*
X016285Y007271D01*
X016284Y007201D01*
X016449Y007567D01*
X016455Y007527D02*
X016416Y007439D01*
X016293Y007160D01*
X015488Y007151D02*
X015417Y007641D01*
X015389Y007641D02*
X015458Y007181D01*
X015434Y007153D02*
X015364Y007639D01*
X015389Y007641D01*
X015219Y007637D02*
X015158Y007640D01*
X015328Y007406D01*
X015190Y007152D01*
X015249Y007152D01*
X015371Y007388D01*
X015362Y007402D01*
X015230Y007169D01*
X015107Y007155D02*
X015039Y007641D01*
X015014Y007642D01*
X015069Y007177D01*
X015055Y007157D02*
X015107Y007155D01*
X015055Y007157D02*
X014988Y007644D01*
X014899Y007642D02*
X014592Y007640D01*
X014602Y007592D01*
X014900Y007594D01*
X014900Y007613D01*
X014617Y007613D01*
X014720Y007641D02*
X014787Y007154D01*
X014839Y007152D01*
X014771Y007638D01*
X014746Y007639D01*
X014801Y007174D01*
X015200Y007605D02*
X015357Y007402D01*
X015392Y007413D02*
X015219Y007637D01*
X015764Y007983D02*
X015746Y008036D01*
X015748Y008078D01*
X015763Y008114D01*
X015794Y008151D01*
X015807Y008169D01*
X015806Y008196D01*
X015777Y008235D01*
X015772Y008265D01*
X015776Y008322D01*
X015800Y008362D01*
X015834Y008384D01*
X015869Y008397D01*
X015900Y008400D01*
X015906Y008347D01*
X015855Y008344D01*
X015829Y008319D01*
X015822Y008280D01*
X015828Y008228D01*
X015839Y008228D01*
X015860Y008212D01*
X015882Y008197D01*
X015910Y008196D01*
X015931Y008194D01*
X015934Y008145D01*
X015892Y008144D01*
X015857Y008140D01*
X015838Y008124D01*
X015804Y008091D01*
X015793Y008052D01*
X015798Y008023D01*
X015823Y007982D01*
X015864Y007955D01*
X015889Y007953D01*
X015964Y007951D01*
X015968Y007938D01*
X015926Y007934D01*
X015863Y007933D01*
X015835Y007953D01*
X015791Y007987D01*
X015773Y008030D01*
X015773Y008069D01*
X015822Y008139D01*
X015832Y008160D01*
X015900Y008162D01*
X015889Y008175D01*
X015836Y008182D01*
X015829Y008200D01*
X015802Y008262D01*
X015798Y008301D01*
X015812Y008336D01*
X015843Y008357D01*
X015891Y008367D01*
X015927Y008399D02*
X015942Y008318D01*
X015995Y007908D01*
X015901Y007908D01*
X015848Y007915D01*
X015799Y007941D01*
X015764Y007983D01*
X016008Y007940D02*
X015953Y008397D01*
X015927Y008399D01*
X015979Y008399D02*
X016050Y007905D01*
X016008Y007905D01*
X016008Y007940D01*
X016126Y008002D02*
X016112Y008047D01*
X016116Y008083D01*
X016146Y008145D01*
X016165Y008158D01*
X016258Y008206D01*
X016291Y008230D01*
X016302Y008256D01*
X016297Y008296D01*
X016277Y008320D01*
X016253Y008339D01*
X016233Y008345D01*
X016204Y008344D01*
X016168Y008342D01*
X016152Y008337D01*
X016130Y008336D01*
X016126Y008384D01*
X016182Y008392D01*
X016232Y008392D01*
X016280Y008375D01*
X016315Y008348D01*
X016342Y008312D01*
X016351Y008280D01*
X016350Y008239D01*
X016340Y008208D01*
X016314Y008178D01*
X016284Y008155D01*
X016219Y008136D01*
X016189Y008111D01*
X016170Y008087D01*
X016163Y008030D01*
X016183Y007995D01*
X016215Y007963D01*
X016264Y007944D01*
X016270Y007948D01*
X016319Y007950D01*
X016367Y007966D01*
X016398Y007981D01*
X016398Y007955D01*
X016337Y007934D01*
X016282Y007925D01*
X016223Y007942D01*
X016166Y007983D01*
X016150Y008035D01*
X016147Y008076D01*
X016166Y008121D01*
X016224Y008154D01*
X016283Y008175D01*
X016328Y008240D01*
X016326Y008291D01*
X016300Y008329D01*
X016240Y008374D01*
X016199Y008375D01*
X016149Y008366D01*
X016433Y008386D02*
X016489Y008389D01*
X016523Y008149D01*
X016544Y008012D01*
X016571Y007982D01*
X016604Y007953D01*
X016646Y007948D01*
X016698Y007954D01*
X016727Y007973D01*
X016746Y007998D01*
X016750Y008018D01*
X016753Y008067D01*
X016704Y008387D01*
X016729Y008388D01*
X016780Y008015D01*
X016743Y007949D01*
X016696Y007930D01*
X016637Y007925D01*
X016594Y007932D01*
X016557Y007956D01*
X016527Y007990D01*
X016461Y008364D01*
X016433Y008386D02*
X016492Y008017D01*
X016510Y007969D01*
X016546Y007928D01*
X016580Y007908D01*
X016613Y007901D01*
X016679Y007901D01*
X016728Y007910D01*
X016753Y007926D01*
X016775Y007950D01*
X016804Y007999D01*
X016804Y008066D01*
X016756Y008391D01*
X017071Y008320D02*
X017095Y008360D01*
X017129Y008382D01*
X017164Y008395D01*
X017195Y008398D01*
X017201Y008345D01*
X017150Y008342D01*
X017124Y008317D01*
X017117Y008278D01*
X017123Y008226D01*
X017134Y008226D01*
X017155Y008210D01*
X017177Y008195D01*
X017205Y008194D01*
X017226Y008192D01*
X017229Y008143D01*
X017187Y008142D01*
X017152Y008138D01*
X017133Y008122D01*
X017099Y008089D01*
X017088Y008050D01*
X017093Y008021D01*
X017118Y007980D01*
X017159Y007953D01*
X017184Y007951D01*
X017259Y007949D01*
X017263Y007936D01*
X017221Y007932D01*
X017158Y007931D01*
X017130Y007951D01*
X017086Y007985D01*
X017068Y008028D01*
X017068Y008067D01*
X017117Y008137D01*
X017127Y008158D01*
X017195Y008160D01*
X017184Y008173D01*
X017131Y008180D01*
X017124Y008198D01*
X017097Y008260D01*
X017093Y008299D01*
X017107Y008334D01*
X017138Y008355D01*
X017186Y008365D01*
X017222Y008397D02*
X017237Y008316D01*
X017290Y007906D01*
X017196Y007906D01*
X017143Y007913D01*
X017094Y007939D01*
X017059Y007981D01*
X017041Y008034D01*
X017043Y008076D01*
X017058Y008112D01*
X017089Y008149D01*
X017102Y008167D01*
X017101Y008194D01*
X017072Y008233D01*
X017067Y008263D01*
X017071Y008320D01*
X017222Y008397D02*
X017248Y008395D01*
X017303Y007938D01*
X017303Y007903D01*
X017345Y007903D01*
X017274Y008397D01*
X016407Y007933D02*
X016403Y007928D01*
X016369Y007917D01*
X016313Y007902D01*
X016262Y007901D01*
X016221Y007911D01*
X016185Y007928D01*
X016151Y007956D01*
X016126Y008002D01*
X015412Y007348D02*
X015361Y007355D01*
X015434Y007153D02*
X015488Y007151D01*
X015382Y005986D02*
X015326Y005984D01*
X015278Y005970D01*
X015252Y005941D01*
X015237Y005923D01*
X015231Y005680D01*
X015225Y005940D01*
X015142Y005988D01*
X015073Y005984D01*
X015028Y005945D01*
X015015Y005890D01*
X015015Y005682D01*
X015450Y005682D02*
X015446Y005889D01*
X015422Y005962D01*
X015382Y005986D01*
X015569Y005835D02*
X015571Y005859D01*
X015577Y005883D01*
X015586Y005905D01*
X015599Y005925D01*
X015615Y005943D01*
X015634Y005958D01*
X015655Y005971D01*
X015677Y005979D01*
X015701Y005984D01*
X015725Y005985D01*
X015749Y005982D01*
X015772Y005975D01*
X015794Y005965D01*
X015814Y005951D01*
X015831Y005934D01*
X015846Y005915D01*
X015857Y005894D01*
X015865Y005871D01*
X015869Y005847D01*
X015869Y005823D01*
X015865Y005799D01*
X015857Y005776D01*
X015846Y005755D01*
X015831Y005736D01*
X015814Y005719D01*
X015794Y005705D01*
X015772Y005695D01*
X015749Y005688D01*
X015725Y005685D01*
X015701Y005686D01*
X015677Y005691D01*
X015655Y005699D01*
X015634Y005712D01*
X015615Y005727D01*
X015599Y005745D01*
X015586Y005765D01*
X015577Y005787D01*
X015571Y005811D01*
X015569Y005835D01*
X015976Y005978D02*
X016005Y005976D01*
X016075Y005958D01*
X016132Y005911D01*
X016153Y005838D01*
X016126Y005752D01*
X016060Y005701D01*
X015979Y005687D01*
D19*
X015956Y005705D02*
X016008Y005705D01*
X016049Y005719D01*
X016076Y005734D01*
X016106Y005763D01*
X016120Y005792D01*
X016126Y005808D01*
X016126Y005860D01*
X016112Y005891D01*
X016092Y005916D01*
X016070Y005934D01*
X016045Y005946D01*
X016014Y005956D01*
X016002Y005957D01*
X015952Y005961D01*
X015954Y005999D01*
X016011Y005999D01*
X016040Y005995D01*
X016064Y005987D01*
X016084Y005977D01*
X016113Y005956D01*
X016132Y005938D01*
X016153Y005902D01*
X016162Y005881D01*
X016169Y005852D01*
X016169Y005809D01*
X016159Y005774D01*
X016142Y005740D01*
X016126Y005721D01*
X016105Y005701D01*
X016082Y005688D01*
X016056Y005677D01*
X016028Y005670D01*
X016000Y005666D01*
X015952Y005666D01*
X015953Y005705D01*
X015590Y005835D02*
X015592Y005857D01*
X015598Y005879D01*
X015607Y005899D01*
X015620Y005918D01*
X015636Y005934D01*
X015654Y005947D01*
X015675Y005956D01*
X015697Y005962D01*
X015719Y005964D01*
X015741Y005962D01*
X015763Y005956D01*
X015783Y005947D01*
X015802Y005934D01*
X015818Y005918D01*
X015831Y005899D01*
X015840Y005879D01*
X015846Y005857D01*
X015848Y005835D01*
X015846Y005813D01*
X015840Y005791D01*
X015831Y005771D01*
X015818Y005752D01*
X015802Y005736D01*
X015784Y005723D01*
X015763Y005714D01*
X015741Y005708D01*
X015719Y005706D01*
X015697Y005708D01*
X015675Y005714D01*
X015654Y005723D01*
X015636Y005736D01*
X015620Y005752D01*
X015607Y005770D01*
X015598Y005791D01*
X015592Y005813D01*
X015590Y005835D01*
X015543Y005833D02*
X015545Y005859D01*
X015551Y005884D01*
X015560Y005908D01*
X015573Y005930D01*
X015589Y005950D01*
X015608Y005967D01*
X015629Y005982D01*
X015652Y005993D01*
X015677Y006001D01*
X015702Y006005D01*
X015728Y006005D01*
X015753Y006001D01*
X015778Y005993D01*
X015801Y005982D01*
X015822Y005967D01*
X015841Y005950D01*
X015857Y005930D01*
X015870Y005908D01*
X015879Y005884D01*
X015885Y005859D01*
X015887Y005833D01*
X015885Y005807D01*
X015879Y005782D01*
X015870Y005758D01*
X015857Y005736D01*
X015841Y005716D01*
X015822Y005699D01*
X015801Y005684D01*
X015778Y005673D01*
X015753Y005665D01*
X015728Y005661D01*
X015702Y005661D01*
X015677Y005665D01*
X015652Y005673D01*
X015629Y005684D01*
X015608Y005699D01*
X015589Y005716D01*
X015573Y005736D01*
X015560Y005758D01*
X015551Y005782D01*
X015545Y005807D01*
X015543Y005833D01*
X015470Y005888D02*
X015470Y005666D01*
X015441Y005667D01*
X015428Y005666D02*
X015428Y005897D01*
X015419Y005925D01*
X015403Y005946D01*
X015387Y005958D01*
X015368Y005967D01*
X015354Y005971D01*
X015322Y005970D01*
X015307Y005966D01*
X015284Y005953D01*
X015269Y005934D01*
X015256Y005908D01*
X015254Y005893D01*
X015253Y005666D01*
X015211Y005666D01*
X015211Y005901D01*
X015201Y005927D01*
X015185Y005946D01*
X015160Y005962D01*
X015139Y005970D01*
X015104Y005969D01*
X015079Y005958D01*
X015051Y005933D01*
X015037Y005906D01*
X015036Y005897D01*
X015037Y005665D01*
X014995Y005665D01*
X014994Y005891D01*
X015003Y005928D01*
X015013Y005948D01*
X015030Y005972D01*
X015052Y005991D01*
X015078Y006005D01*
X015109Y006010D01*
X015143Y006009D01*
X015164Y006005D01*
X015168Y006003D02*
X015193Y005990D01*
X015215Y005970D01*
X015228Y005958D01*
X015236Y005955D01*
X015249Y005970D01*
X015276Y005994D01*
X015308Y006006D01*
X015324Y006009D01*
X015360Y006011D01*
X015386Y006004D01*
X015408Y005995D01*
X015432Y005977D01*
X015447Y005958D01*
X015456Y005941D01*
X015464Y005918D01*
X015470Y005888D01*
X015459Y005667D02*
X015428Y005666D01*
X016282Y005702D02*
X016286Y005683D01*
X016300Y005676D01*
X016313Y005679D01*
X016320Y005691D01*
X016320Y005699D01*
X016303Y005700D01*
X016294Y005693D01*
X016304Y005693D01*
X016268Y005694D02*
X016270Y005705D01*
X016275Y005715D01*
X016283Y005722D01*
X016294Y005727D01*
X016305Y005728D01*
X016316Y005725D01*
X016325Y005719D01*
X016332Y005710D01*
X016336Y005700D01*
X016336Y005688D01*
X016332Y005678D01*
X016325Y005669D01*
X016316Y005663D01*
X016305Y005660D01*
X016294Y005661D01*
X016283Y005666D01*
X016275Y005673D01*
X016270Y005683D01*
X016268Y005694D01*
X016282Y005702D02*
X016290Y005714D01*
X016316Y005712D01*
X016449Y005665D02*
X016450Y005854D01*
X016460Y005900D01*
X016478Y005937D01*
X016513Y005975D01*
X016543Y005993D01*
X016572Y006005D01*
X016597Y006010D01*
X016641Y006010D01*
X016683Y005998D01*
X016710Y005983D01*
X016735Y005963D01*
X016766Y005920D01*
X016776Y005885D01*
X016784Y005858D01*
X016779Y005791D01*
X016762Y005744D01*
X016739Y005713D01*
X016702Y005682D01*
X016669Y005667D01*
X016638Y005659D01*
X016596Y005659D01*
X016564Y005665D01*
X016534Y005678D01*
X016533Y005722D01*
X016559Y005709D01*
X016582Y005700D01*
X016607Y005696D01*
X016641Y005699D01*
X016660Y005706D01*
X016681Y005716D01*
X016699Y005731D01*
X016715Y005748D01*
X016733Y005785D01*
X016739Y005807D01*
X016741Y005860D01*
X016733Y005884D01*
X016723Y005908D01*
X016700Y005939D01*
X016677Y005956D01*
X016658Y005965D01*
X016643Y005969D01*
X016628Y005970D01*
X016595Y005969D01*
X016560Y005959D01*
X016536Y005942D01*
X016517Y005922D01*
X016502Y005897D01*
X016493Y005860D01*
X016490Y005666D01*
X016466Y005666D01*
X016469Y005666D02*
X016449Y005665D01*
X016855Y005735D02*
X016855Y005770D01*
X016864Y005793D01*
X016871Y005803D01*
X016887Y005818D01*
X017036Y005884D01*
X017051Y005898D01*
X017056Y005910D01*
X017056Y005929D01*
X017053Y005942D01*
X017043Y005952D01*
X017032Y005956D01*
X017024Y005960D01*
X016873Y005961D01*
X016873Y005998D01*
X017016Y005999D01*
X017034Y005996D01*
X017057Y005987D01*
X017072Y005979D01*
X017083Y005968D01*
X017093Y005955D01*
X017096Y005941D01*
X017098Y005933D01*
X017098Y005902D01*
X017090Y005878D01*
X017075Y005861D01*
X017045Y005841D01*
X016939Y005797D01*
X016912Y005780D01*
X016900Y005766D01*
X016897Y005754D01*
X016897Y005731D01*
X016912Y005717D01*
X016932Y005706D01*
X017099Y005704D01*
X017100Y005665D01*
X016955Y005666D01*
X016906Y005678D01*
X016884Y005689D01*
X016867Y005706D01*
X016857Y005722D01*
X016855Y005735D01*
X017164Y005805D02*
X017207Y005810D01*
X017220Y005772D01*
X017234Y005746D01*
X017251Y005729D01*
X017277Y005713D01*
X017304Y005703D01*
X017354Y005702D01*
X017385Y005711D01*
X017411Y005731D01*
X017436Y005759D01*
X017452Y005789D01*
X017459Y005831D01*
X017455Y005870D01*
X017441Y005903D01*
X017423Y005929D01*
X017399Y005952D01*
X017368Y005965D01*
X017339Y005971D01*
X017309Y005969D01*
X017281Y005962D01*
X017260Y005950D01*
X017244Y005935D01*
X017239Y005927D01*
X017240Y005918D01*
X017251Y005913D01*
X017416Y005820D01*
X017396Y005790D01*
X017177Y005912D01*
X017196Y005943D01*
X017219Y005967D01*
X017264Y005998D01*
X017307Y006010D01*
X017348Y006011D01*
X017380Y006003D01*
X017406Y005991D01*
X017431Y005976D01*
X017463Y005943D01*
X017483Y005911D01*
X017499Y005854D01*
X017498Y005803D01*
X017485Y005764D01*
X017466Y005728D01*
X017435Y005696D01*
X017400Y005674D01*
X017360Y005661D01*
X017310Y005659D01*
X017275Y005667D01*
X017236Y005687D01*
X017207Y005714D01*
X017186Y005744D01*
X017164Y005805D01*
X017564Y005704D02*
X017593Y005704D01*
X017622Y005710D01*
X017642Y005722D01*
X017657Y005741D01*
X017668Y005763D01*
X017670Y005775D01*
X017670Y005958D01*
X017665Y005960D01*
X017563Y005961D01*
X017563Y005999D01*
X017669Y005998D01*
X017670Y006091D01*
X017713Y006090D01*
X017713Y005764D01*
X017703Y005730D01*
X017687Y005704D01*
X017669Y005688D01*
X017646Y005676D01*
X017625Y005670D01*
X017605Y005666D01*
X017563Y005666D01*
X017564Y005688D01*
X017563Y005686D02*
X017564Y005704D01*
X017563Y005686D02*
X017565Y005680D01*
X017817Y005665D02*
X017818Y006161D01*
X017861Y006161D01*
X017860Y005665D01*
X017817Y005665D01*
X017968Y005666D02*
X017968Y005999D01*
X018010Y005999D01*
X018010Y005666D01*
X018009Y005667D02*
X017968Y005666D01*
X018111Y005640D02*
X018110Y005854D01*
X018120Y005897D01*
X018144Y005941D01*
X018164Y005965D01*
X018216Y005998D01*
X018253Y006009D01*
X018302Y006010D01*
X018332Y006003D01*
X018369Y005984D01*
X018396Y005963D01*
X018414Y005942D01*
X018435Y005903D01*
X018441Y005873D01*
X018446Y005853D01*
X018444Y005810D01*
X018434Y005769D01*
X018417Y005734D01*
X018392Y005705D01*
X018364Y005682D01*
X018338Y005669D01*
X018312Y005660D01*
X018250Y005659D01*
X018211Y005669D01*
X018196Y005677D01*
X018196Y005722D01*
X018223Y005707D01*
X018251Y005700D01*
X018279Y005699D01*
X018309Y005701D01*
X018336Y005711D01*
X018357Y005726D01*
X018376Y005747D01*
X018394Y005781D01*
X018400Y005808D01*
X018403Y005826D01*
X018402Y005864D01*
X018395Y005885D01*
X018374Y005926D01*
X018354Y005944D01*
X018333Y005957D01*
X018311Y005965D01*
X018298Y005970D01*
X018259Y005971D01*
X018243Y005967D01*
X018228Y005960D01*
X018204Y005947D01*
X018184Y005927D01*
X018168Y005906D01*
X018159Y005882D01*
X018154Y005860D01*
X018154Y005640D01*
X018168Y005606D01*
X018182Y005581D01*
X018205Y005562D01*
X018229Y005548D01*
X018252Y005542D01*
X018267Y005540D01*
X018307Y005538D01*
X018337Y005546D01*
X018355Y005550D01*
X018374Y005556D01*
X018383Y005517D01*
X018330Y005505D01*
X018304Y005500D01*
X018258Y005500D01*
X018223Y005506D01*
X018198Y005516D01*
X018173Y005532D01*
X018151Y005552D01*
X018132Y005579D01*
X018121Y005607D01*
X018111Y005640D01*
X018001Y006095D02*
X018006Y006101D01*
X017988Y006109D01*
X017961Y006107D02*
X017963Y006117D01*
X017968Y006126D01*
X017975Y006132D01*
X017985Y006136D01*
X017995Y006136D01*
X018004Y006132D01*
X018012Y006126D01*
X018017Y006117D01*
X018019Y006107D01*
X018017Y006097D01*
X018012Y006088D01*
X018005Y006082D01*
X017995Y006078D01*
X017985Y006078D01*
X017975Y006082D01*
X017968Y006088D01*
X017963Y006097D01*
X017961Y006107D01*
X017972Y006107D02*
X017985Y006093D01*
X018001Y006095D01*
X018005Y006117D02*
X017983Y006125D01*
X017972Y006107D01*
X015156Y007637D02*
X015138Y007648D01*
M02*
