%
M48
M72
T01C0.0120
T02C0.0140
T03C0.0157
T04C0.0160
T05C0.0180
T06C0.0197
T07C0.0236
T08C0.0315
T09C0.0472
T10C0.0800
T11C0.1181
%
T01
X13413Y3522
X13713Y3522
X14013Y3522
X14313Y3522
X16627Y3827
X16977Y3927
X16977Y4677
X16627Y4677
X14263Y6222
X13963Y6222
X13663Y6222
X13363Y6222
X14714Y7125
X14714Y7450
X14714Y7775
X13663Y7622
X13363Y7622
X13063Y7622
X12763Y7622
X7863Y8672
X7563Y8672
X7263Y8672
X6963Y8672
X9622Y10932
X9622Y11232
X9622Y11532
X9622Y11832
X9142Y14012
X9142Y14312
X9142Y14612
X9142Y14912
X11842Y15062
X11842Y14762
X11842Y14462
X12442Y14412
X12442Y14762
X12442Y15062
X13539Y14462
X13839Y14462
X14139Y14462
X14439Y14462
X14739Y14462
X16455Y14327
X17846Y13538
X18716Y13635
X18716Y13365
X19016Y13365
X19016Y13635
X19016Y13095
X19016Y12825
X18716Y12825
X18716Y13095
X17635Y12047
X18239Y10812
X18539Y10812
X18839Y10812
X19139Y10812
X19565Y10627
X21305Y10377
X22836Y10962
X23136Y10962
X23436Y10962
X23736Y10962
X20189Y11777
X21592Y13212
X21592Y13512
X21592Y13812
X21592Y14112
X25586Y14162
X25586Y13862
X25586Y13562
X25586Y13262
X29690Y11862
X29690Y11562
X29690Y11262
X29690Y10962
X32177Y8427
X32177Y8098
X30325Y7482
X30162Y7842
X28976Y8051
X28976Y8351
X22963Y5572
X22663Y5572
X22363Y5572
X22063Y5572
X20645Y5473
X19513Y5572
X19513Y5272
X19513Y4972
X19513Y4672
X24377Y3527
X24677Y3527
X24963Y3522
X25263Y3522
X22913Y8072
X22613Y8072
X22313Y8072
X22013Y8072
T02
X19128Y7752
X12477Y8177
T03
X14905Y4978
X14905Y3206
X18535Y3206
X18535Y4978
T04
X20877Y7477
X21177Y7477
X13177Y7077
X12877Y7077
X13005Y12254
X12705Y12254
X26632Y13557
X26632Y13867
T05
X27252Y11388
T06
X24789Y6926
X24297Y6926
X8666Y10646
X8174Y10646
X7682Y10646
X7190Y10646
X6697Y10646
X6205Y10646
X6827Y4423
X6827Y3931
T07
X8725Y5273
X9395Y6257
X8883Y7044
X9985Y7044
X11245Y7044
X12033Y5863
X12347Y4997
X10615Y3855
T08
X15361Y4757
X18078Y4757
X23509Y4377
X23509Y5164
X23509Y5951
X28319Y14167
X29106Y14167
X29894Y14167
T09
X11796Y4288
X9237Y4288
T10
X7582Y5080
X13887Y5080
T11
X2031Y2959
X2031Y15215
X33278Y15215
X33278Y2959
M30
