G75*
G70*
%OFA0B0*%
%FSLAX24Y24*%
%IPPOS*%
%LPD*%
%AMOC8*
5,1,8,0,0,1.08239X$1,22.5*
%
%ADD10C,0.0050*%
%ADD11C,0.0000*%
%ADD12C,0.0500*%
D10*
X001677Y000927D02*
X033631Y000927D01*
X033630Y000927D02*
X033684Y000929D01*
X033738Y000934D01*
X033791Y000943D01*
X033844Y000956D01*
X033895Y000973D01*
X033945Y000993D01*
X033993Y001017D01*
X034040Y001044D01*
X034085Y001075D01*
X034127Y001108D01*
X034167Y001145D01*
X034204Y001184D01*
X034238Y001226D01*
X034269Y001270D01*
X034297Y001316D01*
X034321Y001364D01*
X034342Y001414D01*
X034360Y001465D01*
X034374Y001517D01*
X034384Y001570D01*
X034390Y001624D01*
X034392Y001677D01*
X034392Y017896D01*
X034392Y017895D02*
X034390Y017949D01*
X034383Y018003D01*
X034373Y018056D01*
X034360Y018108D01*
X034342Y018159D01*
X034321Y018209D01*
X034297Y018257D01*
X034269Y018303D01*
X034237Y018347D01*
X034203Y018388D01*
X034166Y018427D01*
X034126Y018464D01*
X034084Y018497D01*
X034040Y018528D01*
X033993Y018555D01*
X033945Y018578D01*
X033895Y018599D01*
X033843Y018615D01*
X033791Y018628D01*
X033738Y018637D01*
X033684Y018643D01*
X033631Y018644D01*
X001677Y018644D01*
X001624Y018642D01*
X001570Y018637D01*
X001518Y018627D01*
X001466Y018614D01*
X001415Y018597D01*
X001366Y018577D01*
X001318Y018553D01*
X001272Y018526D01*
X001228Y018495D01*
X001186Y018462D01*
X001147Y018425D01*
X001111Y018386D01*
X001077Y018345D01*
X001046Y018301D01*
X001019Y018255D01*
X000995Y018207D01*
X000975Y018158D01*
X000958Y018107D01*
X000944Y018055D01*
X000935Y018003D01*
X000929Y017949D01*
X000927Y017896D01*
X000927Y001677D01*
X000929Y001623D01*
X000935Y001570D01*
X000944Y001518D01*
X000957Y001466D01*
X000974Y001415D01*
X000995Y001365D01*
X001019Y001318D01*
X001046Y001272D01*
X001077Y001228D01*
X001110Y001186D01*
X001147Y001147D01*
X001186Y001110D01*
X001228Y001077D01*
X001272Y001046D01*
X001318Y001019D01*
X001365Y000995D01*
X001415Y000974D01*
X001466Y000957D01*
X001518Y000944D01*
X001570Y000935D01*
X001623Y000929D01*
X001677Y000927D01*
X003677Y002305D02*
X031642Y002305D01*
X031672Y002307D01*
X031702Y002312D01*
X031731Y002321D01*
X031758Y002334D01*
X031784Y002349D01*
X031808Y002368D01*
X031829Y002389D01*
X031848Y002413D01*
X031863Y002439D01*
X031876Y002466D01*
X031885Y002495D01*
X031890Y002525D01*
X031892Y002555D01*
X031892Y004570D01*
X025710Y004570D01*
X025710Y003477D01*
X025708Y003438D01*
X025702Y003399D01*
X025693Y003361D01*
X025680Y003324D01*
X025663Y003288D01*
X025643Y003255D01*
X025619Y003223D01*
X025593Y003194D01*
X025564Y003168D01*
X025532Y003144D01*
X025499Y003124D01*
X025463Y003107D01*
X025426Y003094D01*
X025388Y003085D01*
X025349Y003079D01*
X025310Y003077D01*
X018928Y003077D01*
X018928Y003078D02*
X018923Y003039D01*
X018914Y003001D01*
X018901Y002964D01*
X018885Y002929D01*
X018865Y002895D01*
X018842Y002863D01*
X018816Y002834D01*
X018787Y002808D01*
X018756Y002785D01*
X018722Y002764D01*
X018687Y002748D01*
X018650Y002734D01*
X018613Y002725D01*
X018574Y002719D01*
X018535Y002717D01*
X018496Y002719D01*
X018457Y002725D01*
X018420Y002734D01*
X018383Y002748D01*
X018348Y002764D01*
X018314Y002785D01*
X018283Y002808D01*
X018254Y002834D01*
X018228Y002863D01*
X018205Y002895D01*
X018185Y002929D01*
X018169Y002964D01*
X018156Y003001D01*
X018147Y003039D01*
X018142Y003078D01*
X018141Y003077D02*
X015298Y003077D01*
X015298Y003078D02*
X015293Y003039D01*
X015284Y003001D01*
X015271Y002964D01*
X015255Y002929D01*
X015235Y002895D01*
X015212Y002863D01*
X015186Y002834D01*
X015157Y002808D01*
X015126Y002785D01*
X015092Y002764D01*
X015057Y002748D01*
X015020Y002734D01*
X014983Y002725D01*
X014944Y002719D01*
X014905Y002717D01*
X014866Y002719D01*
X014827Y002725D01*
X014790Y002734D01*
X014753Y002748D01*
X014718Y002764D01*
X014684Y002785D01*
X014653Y002808D01*
X014624Y002834D01*
X014598Y002863D01*
X014575Y002895D01*
X014555Y002929D01*
X014539Y002964D01*
X014526Y003001D01*
X014517Y003039D01*
X014512Y003078D01*
X014511Y003077D02*
X005110Y003077D01*
X005085Y003082D01*
X005062Y003091D01*
X005039Y003103D01*
X005019Y003118D01*
X005001Y003136D01*
X004986Y003156D01*
X004974Y003178D01*
X004965Y003202D01*
X004960Y003227D01*
X004958Y003252D01*
X004960Y003277D01*
X004960Y003683D01*
X003427Y003683D01*
X003427Y002527D01*
X003431Y002499D01*
X003438Y002471D01*
X003448Y002444D01*
X003461Y002419D01*
X003477Y002396D01*
X003496Y002374D01*
X003517Y002355D01*
X003541Y002339D01*
X003566Y002326D01*
X003593Y002316D01*
X003620Y002309D01*
X003648Y002305D01*
X003677Y002305D01*
X003427Y004671D02*
X004960Y004671D01*
X004960Y005127D01*
X003427Y004671D02*
X003427Y011245D01*
X004994Y011245D01*
X004994Y010564D01*
X004996Y010525D01*
X005002Y010486D01*
X005011Y010448D01*
X005024Y010411D01*
X005041Y010375D01*
X005061Y010342D01*
X005085Y010310D01*
X005111Y010281D01*
X005140Y010255D01*
X005172Y010231D01*
X005205Y010211D01*
X005241Y010194D01*
X005278Y010181D01*
X005316Y010172D01*
X005355Y010166D01*
X005394Y010164D01*
X030138Y010164D01*
X030177Y010166D01*
X030216Y010172D01*
X030254Y010181D01*
X030291Y010194D01*
X030327Y010211D01*
X030360Y010231D01*
X030392Y010255D01*
X030421Y010281D01*
X030447Y010310D01*
X030471Y010342D01*
X030491Y010375D01*
X030508Y010411D01*
X030521Y010448D01*
X030530Y010486D01*
X030536Y010525D01*
X030538Y010564D01*
X030538Y012220D01*
X031892Y012220D01*
X031892Y008810D01*
X031192Y008810D01*
X031169Y008814D01*
X031147Y008821D01*
X031126Y008831D01*
X031107Y008844D01*
X031090Y008860D01*
X031076Y008878D01*
X031064Y008898D01*
X031055Y008919D01*
X031049Y008941D01*
X031046Y008964D01*
X031047Y008987D01*
X031046Y008988D02*
X031046Y009050D01*
X031046Y009073D01*
X031042Y009096D01*
X031036Y009118D01*
X031026Y009139D01*
X031014Y009158D01*
X030999Y009175D01*
X030981Y009190D01*
X030962Y009203D01*
X030941Y009212D01*
X030919Y009218D01*
X030896Y009222D01*
X029019Y009222D01*
X028969Y009184D01*
X028921Y009143D01*
X028876Y009099D01*
X028834Y009053D01*
X028794Y009004D01*
X028758Y008952D01*
X028725Y008899D01*
X028695Y008844D01*
X028668Y008787D01*
X028645Y008728D01*
X028626Y008668D01*
X028610Y008607D01*
X028598Y008546D01*
X028589Y008483D01*
X028585Y008420D01*
X028584Y008358D01*
X028587Y008295D01*
X028594Y008232D01*
X028605Y008170D01*
X028619Y008109D01*
X028637Y008049D01*
X028659Y007990D01*
X028684Y007932D01*
X028713Y007876D01*
X028745Y007822D01*
X028780Y007770D01*
X028818Y007720D01*
X028859Y007672D01*
X028904Y007627D01*
X028950Y007585D01*
X028999Y007546D01*
X029051Y007510D01*
X029104Y007477D01*
X029160Y007447D01*
X029217Y007421D01*
X029275Y007398D01*
X029335Y007379D01*
X029396Y007363D01*
X029458Y007351D01*
X029520Y007343D01*
X029583Y007339D01*
X029646Y007338D01*
X029709Y007342D01*
X029771Y007349D01*
X029833Y007360D01*
X029895Y007374D01*
X029955Y007392D01*
X030014Y007414D01*
X030071Y007440D01*
X030267Y007440D01*
X030293Y007438D01*
X030318Y007433D01*
X030342Y007424D01*
X030364Y007411D01*
X030385Y007396D01*
X030403Y007378D01*
X030418Y007357D01*
X030431Y007335D01*
X030440Y007311D01*
X030445Y007286D01*
X030447Y007260D01*
X030447Y007147D01*
X030448Y007147D02*
X030450Y007114D01*
X030455Y007080D01*
X030465Y007048D01*
X030478Y007017D01*
X030494Y006988D01*
X030513Y006961D01*
X030536Y006936D01*
X030561Y006913D01*
X030588Y006894D01*
X030617Y006878D01*
X030648Y006865D01*
X030680Y006855D01*
X030714Y006850D01*
X030747Y006848D01*
X030780Y006850D01*
X030814Y006855D01*
X030846Y006865D01*
X030877Y006878D01*
X030906Y006894D01*
X030933Y006913D01*
X030958Y006936D01*
X030981Y006961D01*
X031000Y006988D01*
X031016Y007017D01*
X031029Y007048D01*
X031039Y007080D01*
X031044Y007114D01*
X031046Y007147D01*
X031046Y007761D01*
X031047Y007761D02*
X031050Y007784D01*
X031057Y007806D01*
X031067Y007827D01*
X031080Y007847D01*
X031095Y007864D01*
X031113Y007879D01*
X031133Y007891D01*
X031154Y007901D01*
X031177Y007907D01*
X031200Y007910D01*
X031223Y007909D01*
X031223Y007910D02*
X031892Y007910D01*
X031892Y006158D01*
X025710Y006158D01*
X025710Y008677D01*
X025708Y008716D01*
X025702Y008755D01*
X025693Y008793D01*
X025680Y008830D01*
X025663Y008866D01*
X025643Y008899D01*
X025619Y008931D01*
X025593Y008960D01*
X025564Y008986D01*
X025532Y009010D01*
X025499Y009030D01*
X025463Y009047D01*
X025426Y009060D01*
X025388Y009069D01*
X025349Y009075D01*
X025310Y009077D01*
X006960Y009077D01*
X006921Y009075D01*
X006882Y009069D01*
X006844Y009060D01*
X006807Y009047D01*
X006771Y009030D01*
X006738Y009010D01*
X006706Y008986D01*
X006677Y008960D01*
X006651Y008931D01*
X006627Y008899D01*
X006607Y008866D01*
X006590Y008830D01*
X006577Y008793D01*
X006568Y008755D01*
X006562Y008716D01*
X006560Y008677D01*
X006534Y008413D01*
X006496Y008151D01*
X006446Y007891D01*
X006384Y007633D01*
X006310Y007379D01*
X006224Y007129D01*
X006126Y006882D01*
X006017Y006641D01*
X005897Y006404D01*
X005767Y006174D01*
X005625Y005950D01*
X005473Y005733D01*
X005312Y005523D01*
X005141Y005321D01*
X004960Y005127D01*
X004994Y012233D02*
X003427Y012233D01*
X003427Y016586D01*
X003429Y016616D01*
X003434Y016646D01*
X003443Y016675D01*
X003456Y016702D01*
X003471Y016728D01*
X003490Y016752D01*
X003511Y016773D01*
X003535Y016792D01*
X003561Y016807D01*
X003588Y016820D01*
X003617Y016829D01*
X003647Y016834D01*
X003677Y016836D01*
X031642Y016836D01*
X031672Y016834D01*
X031702Y016829D01*
X031731Y016820D01*
X031758Y016807D01*
X031784Y016792D01*
X031808Y016773D01*
X031829Y016752D01*
X031848Y016728D01*
X031863Y016702D01*
X031876Y016675D01*
X031885Y016646D01*
X031890Y016616D01*
X031892Y016586D01*
X031892Y014008D01*
X030538Y014008D01*
X030538Y015914D01*
X030536Y015937D01*
X030531Y015960D01*
X030522Y015982D01*
X030509Y016002D01*
X030494Y016020D01*
X030476Y016035D01*
X030456Y016048D01*
X030434Y016057D01*
X030411Y016062D01*
X030388Y016064D01*
X008410Y016064D01*
X008371Y016062D01*
X008332Y016056D01*
X008294Y016047D01*
X008257Y016034D01*
X008221Y016017D01*
X008188Y015997D01*
X008156Y015973D01*
X008127Y015947D01*
X008101Y015918D01*
X008077Y015886D01*
X008057Y015853D01*
X008040Y015817D01*
X008027Y015780D01*
X008018Y015742D01*
X008012Y015703D01*
X008010Y015664D01*
X008010Y013714D01*
X008008Y013675D01*
X008002Y013636D01*
X007993Y013598D01*
X007980Y013561D01*
X007963Y013525D01*
X007943Y013492D01*
X007919Y013460D01*
X007893Y013431D01*
X007864Y013405D01*
X007832Y013381D01*
X007799Y013361D01*
X007763Y013344D01*
X007726Y013331D01*
X007688Y013322D01*
X007649Y013316D01*
X007610Y013314D01*
X005394Y013314D01*
X005355Y013312D01*
X005316Y013306D01*
X005278Y013297D01*
X005241Y013284D01*
X005205Y013267D01*
X005172Y013247D01*
X005140Y013223D01*
X005111Y013197D01*
X005085Y013168D01*
X005061Y013136D01*
X005041Y013103D01*
X005024Y013067D01*
X005011Y013030D01*
X005002Y012992D01*
X004996Y012953D01*
X004994Y012914D01*
X004994Y012233D01*
D11*
X001440Y015215D02*
X001442Y015263D01*
X001448Y015311D01*
X001458Y015358D01*
X001471Y015404D01*
X001489Y015449D01*
X001509Y015493D01*
X001534Y015535D01*
X001562Y015574D01*
X001592Y015611D01*
X001626Y015645D01*
X001663Y015677D01*
X001701Y015706D01*
X001742Y015731D01*
X001785Y015753D01*
X001830Y015771D01*
X001876Y015785D01*
X001923Y015796D01*
X001971Y015803D01*
X002019Y015806D01*
X002067Y015805D01*
X002115Y015800D01*
X002163Y015791D01*
X002209Y015779D01*
X002254Y015762D01*
X002298Y015742D01*
X002340Y015719D01*
X002380Y015692D01*
X002418Y015662D01*
X002453Y015629D01*
X002485Y015593D01*
X002515Y015555D01*
X002541Y015514D01*
X002563Y015471D01*
X002583Y015427D01*
X002598Y015382D01*
X002610Y015335D01*
X002618Y015287D01*
X002622Y015239D01*
X002622Y015191D01*
X002618Y015143D01*
X002610Y015095D01*
X002598Y015048D01*
X002583Y015003D01*
X002563Y014959D01*
X002541Y014916D01*
X002515Y014875D01*
X002485Y014837D01*
X002453Y014801D01*
X002418Y014768D01*
X002380Y014738D01*
X002340Y014711D01*
X002298Y014688D01*
X002254Y014668D01*
X002209Y014651D01*
X002163Y014639D01*
X002115Y014630D01*
X002067Y014625D01*
X002019Y014624D01*
X001971Y014627D01*
X001923Y014634D01*
X001876Y014645D01*
X001830Y014659D01*
X001785Y014677D01*
X001742Y014699D01*
X001701Y014724D01*
X001663Y014753D01*
X001626Y014785D01*
X001592Y014819D01*
X001562Y014856D01*
X001534Y014895D01*
X001509Y014937D01*
X001489Y014981D01*
X001471Y015026D01*
X001458Y015072D01*
X001448Y015119D01*
X001442Y015167D01*
X001440Y015215D01*
X007182Y005080D02*
X007184Y005120D01*
X007190Y005159D01*
X007200Y005198D01*
X007213Y005235D01*
X007231Y005271D01*
X007252Y005305D01*
X007276Y005337D01*
X007303Y005366D01*
X007333Y005393D01*
X007365Y005416D01*
X007400Y005436D01*
X007436Y005452D01*
X007474Y005465D01*
X007513Y005474D01*
X007552Y005479D01*
X007592Y005480D01*
X007632Y005477D01*
X007671Y005470D01*
X007709Y005459D01*
X007747Y005445D01*
X007782Y005426D01*
X007815Y005405D01*
X007847Y005380D01*
X007875Y005352D01*
X007901Y005322D01*
X007923Y005289D01*
X007942Y005254D01*
X007958Y005217D01*
X007970Y005179D01*
X007978Y005140D01*
X007982Y005100D01*
X007982Y005060D01*
X007978Y005020D01*
X007970Y004981D01*
X007958Y004943D01*
X007942Y004906D01*
X007923Y004871D01*
X007901Y004838D01*
X007875Y004808D01*
X007847Y004780D01*
X007815Y004755D01*
X007782Y004734D01*
X007747Y004715D01*
X007709Y004701D01*
X007671Y004690D01*
X007632Y004683D01*
X007592Y004680D01*
X007552Y004681D01*
X007513Y004686D01*
X007474Y004695D01*
X007436Y004708D01*
X007400Y004724D01*
X007365Y004744D01*
X007333Y004767D01*
X007303Y004794D01*
X007276Y004823D01*
X007252Y004855D01*
X007231Y004889D01*
X007213Y004925D01*
X007200Y004962D01*
X007190Y005001D01*
X007184Y005040D01*
X007182Y005080D01*
X009001Y004288D02*
X009003Y004318D01*
X009009Y004348D01*
X009018Y004377D01*
X009031Y004404D01*
X009048Y004429D01*
X009067Y004452D01*
X009090Y004473D01*
X009115Y004490D01*
X009141Y004504D01*
X009170Y004514D01*
X009199Y004521D01*
X009229Y004524D01*
X009260Y004523D01*
X009290Y004518D01*
X009319Y004509D01*
X009346Y004497D01*
X009372Y004482D01*
X009396Y004463D01*
X009417Y004441D01*
X009435Y004417D01*
X009450Y004390D01*
X009461Y004362D01*
X009469Y004333D01*
X009473Y004303D01*
X009473Y004273D01*
X009469Y004243D01*
X009461Y004214D01*
X009450Y004186D01*
X009435Y004159D01*
X009417Y004135D01*
X009396Y004113D01*
X009372Y004094D01*
X009346Y004079D01*
X009319Y004067D01*
X009290Y004058D01*
X009260Y004053D01*
X009229Y004052D01*
X009199Y004055D01*
X009170Y004062D01*
X009141Y004072D01*
X009115Y004086D01*
X009090Y004103D01*
X009067Y004124D01*
X009048Y004147D01*
X009031Y004172D01*
X009018Y004199D01*
X009009Y004228D01*
X009003Y004258D01*
X009001Y004288D01*
X011560Y004288D02*
X011562Y004318D01*
X011568Y004348D01*
X011577Y004377D01*
X011590Y004404D01*
X011607Y004429D01*
X011626Y004452D01*
X011649Y004473D01*
X011674Y004490D01*
X011700Y004504D01*
X011729Y004514D01*
X011758Y004521D01*
X011788Y004524D01*
X011819Y004523D01*
X011849Y004518D01*
X011878Y004509D01*
X011905Y004497D01*
X011931Y004482D01*
X011955Y004463D01*
X011976Y004441D01*
X011994Y004417D01*
X012009Y004390D01*
X012020Y004362D01*
X012028Y004333D01*
X012032Y004303D01*
X012032Y004273D01*
X012028Y004243D01*
X012020Y004214D01*
X012009Y004186D01*
X011994Y004159D01*
X011976Y004135D01*
X011955Y004113D01*
X011931Y004094D01*
X011905Y004079D01*
X011878Y004067D01*
X011849Y004058D01*
X011819Y004053D01*
X011788Y004052D01*
X011758Y004055D01*
X011729Y004062D01*
X011700Y004072D01*
X011674Y004086D01*
X011649Y004103D01*
X011626Y004124D01*
X011607Y004147D01*
X011590Y004172D01*
X011577Y004199D01*
X011568Y004228D01*
X011562Y004258D01*
X011560Y004288D01*
X013487Y005080D02*
X013489Y005120D01*
X013495Y005159D01*
X013505Y005198D01*
X013518Y005235D01*
X013536Y005271D01*
X013557Y005305D01*
X013581Y005337D01*
X013608Y005366D01*
X013638Y005393D01*
X013670Y005416D01*
X013705Y005436D01*
X013741Y005452D01*
X013779Y005465D01*
X013818Y005474D01*
X013857Y005479D01*
X013897Y005480D01*
X013937Y005477D01*
X013976Y005470D01*
X014014Y005459D01*
X014052Y005445D01*
X014087Y005426D01*
X014120Y005405D01*
X014152Y005380D01*
X014180Y005352D01*
X014206Y005322D01*
X014228Y005289D01*
X014247Y005254D01*
X014263Y005217D01*
X014275Y005179D01*
X014283Y005140D01*
X014287Y005100D01*
X014287Y005060D01*
X014283Y005020D01*
X014275Y004981D01*
X014263Y004943D01*
X014247Y004906D01*
X014228Y004871D01*
X014206Y004838D01*
X014180Y004808D01*
X014152Y004780D01*
X014120Y004755D01*
X014087Y004734D01*
X014052Y004715D01*
X014014Y004701D01*
X013976Y004690D01*
X013937Y004683D01*
X013897Y004680D01*
X013857Y004681D01*
X013818Y004686D01*
X013779Y004695D01*
X013741Y004708D01*
X013705Y004724D01*
X013670Y004744D01*
X013638Y004767D01*
X013608Y004794D01*
X013581Y004823D01*
X013557Y004855D01*
X013536Y004889D01*
X013518Y004925D01*
X013505Y004962D01*
X013495Y005001D01*
X013489Y005040D01*
X013487Y005080D01*
X015196Y004757D02*
X015198Y004782D01*
X015204Y004807D01*
X015213Y004830D01*
X015226Y004852D01*
X015242Y004871D01*
X015261Y004888D01*
X015282Y004902D01*
X015305Y004912D01*
X015330Y004919D01*
X015355Y004922D01*
X015380Y004921D01*
X015405Y004916D01*
X015428Y004908D01*
X015451Y004895D01*
X015471Y004880D01*
X015488Y004862D01*
X015503Y004841D01*
X015514Y004819D01*
X015522Y004795D01*
X015526Y004770D01*
X015526Y004744D01*
X015522Y004719D01*
X015514Y004695D01*
X015503Y004673D01*
X015488Y004652D01*
X015471Y004634D01*
X015451Y004619D01*
X015428Y004606D01*
X015405Y004598D01*
X015380Y004593D01*
X015355Y004592D01*
X015330Y004595D01*
X015305Y004602D01*
X015282Y004612D01*
X015261Y004626D01*
X015242Y004643D01*
X015226Y004662D01*
X015213Y004684D01*
X015204Y004707D01*
X015198Y004732D01*
X015196Y004757D01*
X017913Y004757D02*
X017915Y004782D01*
X017921Y004807D01*
X017930Y004830D01*
X017943Y004852D01*
X017959Y004871D01*
X017978Y004888D01*
X017999Y004902D01*
X018022Y004912D01*
X018047Y004919D01*
X018072Y004922D01*
X018097Y004921D01*
X018122Y004916D01*
X018145Y004908D01*
X018168Y004895D01*
X018188Y004880D01*
X018205Y004862D01*
X018220Y004841D01*
X018231Y004819D01*
X018239Y004795D01*
X018243Y004770D01*
X018243Y004744D01*
X018239Y004719D01*
X018231Y004695D01*
X018220Y004673D01*
X018205Y004652D01*
X018188Y004634D01*
X018168Y004619D01*
X018145Y004606D01*
X018122Y004598D01*
X018097Y004593D01*
X018072Y004592D01*
X018047Y004595D01*
X018022Y004602D01*
X017999Y004612D01*
X017978Y004626D01*
X017959Y004643D01*
X017943Y004662D01*
X017930Y004684D01*
X017921Y004707D01*
X017915Y004732D01*
X017913Y004757D01*
X032687Y002959D02*
X032689Y003007D01*
X032695Y003055D01*
X032705Y003102D01*
X032718Y003148D01*
X032736Y003193D01*
X032756Y003237D01*
X032781Y003279D01*
X032809Y003318D01*
X032839Y003355D01*
X032873Y003389D01*
X032910Y003421D01*
X032948Y003450D01*
X032989Y003475D01*
X033032Y003497D01*
X033077Y003515D01*
X033123Y003529D01*
X033170Y003540D01*
X033218Y003547D01*
X033266Y003550D01*
X033314Y003549D01*
X033362Y003544D01*
X033410Y003535D01*
X033456Y003523D01*
X033501Y003506D01*
X033545Y003486D01*
X033587Y003463D01*
X033627Y003436D01*
X033665Y003406D01*
X033700Y003373D01*
X033732Y003337D01*
X033762Y003299D01*
X033788Y003258D01*
X033810Y003215D01*
X033830Y003171D01*
X033845Y003126D01*
X033857Y003079D01*
X033865Y003031D01*
X033869Y002983D01*
X033869Y002935D01*
X033865Y002887D01*
X033857Y002839D01*
X033845Y002792D01*
X033830Y002747D01*
X033810Y002703D01*
X033788Y002660D01*
X033762Y002619D01*
X033732Y002581D01*
X033700Y002545D01*
X033665Y002512D01*
X033627Y002482D01*
X033587Y002455D01*
X033545Y002432D01*
X033501Y002412D01*
X033456Y002395D01*
X033410Y002383D01*
X033362Y002374D01*
X033314Y002369D01*
X033266Y002368D01*
X033218Y002371D01*
X033170Y002378D01*
X033123Y002389D01*
X033077Y002403D01*
X033032Y002421D01*
X032989Y002443D01*
X032948Y002468D01*
X032910Y002497D01*
X032873Y002529D01*
X032839Y002563D01*
X032809Y002600D01*
X032781Y002639D01*
X032756Y002681D01*
X032736Y002725D01*
X032718Y002770D01*
X032705Y002816D01*
X032695Y002863D01*
X032689Y002911D01*
X032687Y002959D01*
X032687Y015215D02*
X032689Y015263D01*
X032695Y015311D01*
X032705Y015358D01*
X032718Y015404D01*
X032736Y015449D01*
X032756Y015493D01*
X032781Y015535D01*
X032809Y015574D01*
X032839Y015611D01*
X032873Y015645D01*
X032910Y015677D01*
X032948Y015706D01*
X032989Y015731D01*
X033032Y015753D01*
X033077Y015771D01*
X033123Y015785D01*
X033170Y015796D01*
X033218Y015803D01*
X033266Y015806D01*
X033314Y015805D01*
X033362Y015800D01*
X033410Y015791D01*
X033456Y015779D01*
X033501Y015762D01*
X033545Y015742D01*
X033587Y015719D01*
X033627Y015692D01*
X033665Y015662D01*
X033700Y015629D01*
X033732Y015593D01*
X033762Y015555D01*
X033788Y015514D01*
X033810Y015471D01*
X033830Y015427D01*
X033845Y015382D01*
X033857Y015335D01*
X033865Y015287D01*
X033869Y015239D01*
X033869Y015191D01*
X033865Y015143D01*
X033857Y015095D01*
X033845Y015048D01*
X033830Y015003D01*
X033810Y014959D01*
X033788Y014916D01*
X033762Y014875D01*
X033732Y014837D01*
X033700Y014801D01*
X033665Y014768D01*
X033627Y014738D01*
X033587Y014711D01*
X033545Y014688D01*
X033501Y014668D01*
X033456Y014651D01*
X033410Y014639D01*
X033362Y014630D01*
X033314Y014625D01*
X033266Y014624D01*
X033218Y014627D01*
X033170Y014634D01*
X033123Y014645D01*
X033077Y014659D01*
X033032Y014677D01*
X032989Y014699D01*
X032948Y014724D01*
X032910Y014753D01*
X032873Y014785D01*
X032839Y014819D01*
X032809Y014856D01*
X032781Y014895D01*
X032756Y014937D01*
X032736Y014981D01*
X032718Y015026D01*
X032705Y015072D01*
X032695Y015119D01*
X032689Y015167D01*
X032687Y015215D01*
X001440Y002959D02*
X001442Y003007D01*
X001448Y003055D01*
X001458Y003102D01*
X001471Y003148D01*
X001489Y003193D01*
X001509Y003237D01*
X001534Y003279D01*
X001562Y003318D01*
X001592Y003355D01*
X001626Y003389D01*
X001663Y003421D01*
X001701Y003450D01*
X001742Y003475D01*
X001785Y003497D01*
X001830Y003515D01*
X001876Y003529D01*
X001923Y003540D01*
X001971Y003547D01*
X002019Y003550D01*
X002067Y003549D01*
X002115Y003544D01*
X002163Y003535D01*
X002209Y003523D01*
X002254Y003506D01*
X002298Y003486D01*
X002340Y003463D01*
X002380Y003436D01*
X002418Y003406D01*
X002453Y003373D01*
X002485Y003337D01*
X002515Y003299D01*
X002541Y003258D01*
X002563Y003215D01*
X002583Y003171D01*
X002598Y003126D01*
X002610Y003079D01*
X002618Y003031D01*
X002622Y002983D01*
X002622Y002935D01*
X002618Y002887D01*
X002610Y002839D01*
X002598Y002792D01*
X002583Y002747D01*
X002563Y002703D01*
X002541Y002660D01*
X002515Y002619D01*
X002485Y002581D01*
X002453Y002545D01*
X002418Y002512D01*
X002380Y002482D01*
X002340Y002455D01*
X002298Y002432D01*
X002254Y002412D01*
X002209Y002395D01*
X002163Y002383D01*
X002115Y002374D01*
X002067Y002369D01*
X002019Y002368D01*
X001971Y002371D01*
X001923Y002378D01*
X001876Y002389D01*
X001830Y002403D01*
X001785Y002421D01*
X001742Y002443D01*
X001701Y002468D01*
X001663Y002497D01*
X001626Y002529D01*
X001592Y002563D01*
X001562Y002600D01*
X001534Y002639D01*
X001509Y002681D01*
X001489Y002725D01*
X001471Y002770D01*
X001458Y002816D01*
X001448Y002863D01*
X001442Y002911D01*
X001440Y002959D01*
D12*
X029046Y008352D03*
X030046Y008352D03*
M02*
