G75*
G70*
%OFA0B0*%
%FSLAX24Y24*%
%IPPOS*%
%LPD*%
%AMOC8*
5,1,8,0,0,1.08239X$1,22.5*
%
%ADD10C,0.0050*%
%ADD11C,0.0000*%
%ADD12C,0.0500*%
%ADD13C,0.0512*%
%ADD14C,0.0400*%
%ADD15C,0.0277*%
%ADD16C,0.0004*%
%ADD17C,0.0550*%
%ADD18OC8,0.0550*%
%ADD19C,0.0317*%
%ADD20C,0.0080*%
%ADD21C,0.0240*%
%ADD22C,0.0100*%
%ADD23C,0.0200*%
%ADD24C,0.0140*%
%ADD25C,0.0280*%
%ADD26C,0.0320*%
%ADD27C,0.0220*%
%ADD28C,0.0240*%
%ADD29C,0.0160*%
%ADD30C,0.0260*%
D10*
X001677Y000927D02*
X033631Y000927D01*
X033630Y000927D02*
X033684Y000929D01*
X033738Y000934D01*
X033791Y000943D01*
X033844Y000956D01*
X033895Y000973D01*
X033945Y000993D01*
X033993Y001017D01*
X034040Y001044D01*
X034085Y001075D01*
X034127Y001108D01*
X034167Y001145D01*
X034204Y001184D01*
X034238Y001226D01*
X034269Y001270D01*
X034297Y001316D01*
X034321Y001364D01*
X034342Y001414D01*
X034360Y001465D01*
X034374Y001517D01*
X034384Y001570D01*
X034390Y001624D01*
X034392Y001677D01*
X034392Y017896D01*
X034392Y017895D02*
X034390Y017949D01*
X034383Y018003D01*
X034373Y018056D01*
X034360Y018108D01*
X034342Y018159D01*
X034321Y018209D01*
X034297Y018257D01*
X034269Y018303D01*
X034237Y018347D01*
X034203Y018388D01*
X034166Y018427D01*
X034126Y018464D01*
X034084Y018497D01*
X034040Y018528D01*
X033993Y018555D01*
X033945Y018578D01*
X033895Y018599D01*
X033843Y018615D01*
X033791Y018628D01*
X033738Y018637D01*
X033684Y018643D01*
X033631Y018644D01*
X001677Y018644D01*
X001624Y018642D01*
X001570Y018637D01*
X001518Y018627D01*
X001466Y018614D01*
X001415Y018597D01*
X001366Y018577D01*
X001318Y018553D01*
X001272Y018526D01*
X001228Y018495D01*
X001186Y018462D01*
X001147Y018425D01*
X001111Y018386D01*
X001077Y018345D01*
X001046Y018301D01*
X001019Y018255D01*
X000995Y018207D01*
X000975Y018158D01*
X000958Y018107D01*
X000944Y018055D01*
X000935Y018003D01*
X000929Y017949D01*
X000927Y017896D01*
X000927Y001677D01*
X000929Y001623D01*
X000935Y001570D01*
X000944Y001518D01*
X000957Y001466D01*
X000974Y001415D01*
X000995Y001365D01*
X001019Y001318D01*
X001046Y001272D01*
X001077Y001228D01*
X001110Y001186D01*
X001147Y001147D01*
X001186Y001110D01*
X001228Y001077D01*
X001272Y001046D01*
X001318Y001019D01*
X001365Y000995D01*
X001415Y000974D01*
X001466Y000957D01*
X001518Y000944D01*
X001570Y000935D01*
X001623Y000929D01*
X001677Y000927D01*
X003677Y002305D02*
X031642Y002305D01*
X031672Y002307D01*
X031702Y002312D01*
X031731Y002321D01*
X031758Y002334D01*
X031784Y002349D01*
X031808Y002368D01*
X031829Y002389D01*
X031848Y002413D01*
X031863Y002439D01*
X031876Y002466D01*
X031885Y002495D01*
X031890Y002525D01*
X031892Y002555D01*
X031892Y004570D01*
X025710Y004570D01*
X025710Y003477D01*
X025708Y003438D01*
X025702Y003399D01*
X025693Y003361D01*
X025680Y003324D01*
X025663Y003288D01*
X025643Y003255D01*
X025619Y003223D01*
X025593Y003194D01*
X025564Y003168D01*
X025532Y003144D01*
X025499Y003124D01*
X025463Y003107D01*
X025426Y003094D01*
X025388Y003085D01*
X025349Y003079D01*
X025310Y003077D01*
X018928Y003077D01*
X018928Y003078D02*
X018923Y003039D01*
X018914Y003001D01*
X018901Y002964D01*
X018885Y002929D01*
X018865Y002895D01*
X018842Y002863D01*
X018816Y002834D01*
X018787Y002808D01*
X018756Y002785D01*
X018722Y002764D01*
X018687Y002748D01*
X018650Y002734D01*
X018613Y002725D01*
X018574Y002719D01*
X018535Y002717D01*
X018496Y002719D01*
X018457Y002725D01*
X018420Y002734D01*
X018383Y002748D01*
X018348Y002764D01*
X018314Y002785D01*
X018283Y002808D01*
X018254Y002834D01*
X018228Y002863D01*
X018205Y002895D01*
X018185Y002929D01*
X018169Y002964D01*
X018156Y003001D01*
X018147Y003039D01*
X018142Y003078D01*
X018141Y003077D02*
X015298Y003077D01*
X015298Y003078D02*
X015293Y003039D01*
X015284Y003001D01*
X015271Y002964D01*
X015255Y002929D01*
X015235Y002895D01*
X015212Y002863D01*
X015186Y002834D01*
X015157Y002808D01*
X015126Y002785D01*
X015092Y002764D01*
X015057Y002748D01*
X015020Y002734D01*
X014983Y002725D01*
X014944Y002719D01*
X014905Y002717D01*
X014866Y002719D01*
X014827Y002725D01*
X014790Y002734D01*
X014753Y002748D01*
X014718Y002764D01*
X014684Y002785D01*
X014653Y002808D01*
X014624Y002834D01*
X014598Y002863D01*
X014575Y002895D01*
X014555Y002929D01*
X014539Y002964D01*
X014526Y003001D01*
X014517Y003039D01*
X014512Y003078D01*
X014511Y003077D02*
X005110Y003077D01*
X005085Y003082D01*
X005062Y003091D01*
X005039Y003103D01*
X005019Y003118D01*
X005001Y003136D01*
X004986Y003156D01*
X004974Y003178D01*
X004965Y003202D01*
X004960Y003227D01*
X004958Y003252D01*
X004960Y003277D01*
X004960Y003683D01*
X003427Y003683D01*
X003427Y002527D01*
X003431Y002499D01*
X003438Y002471D01*
X003448Y002444D01*
X003461Y002419D01*
X003477Y002396D01*
X003496Y002374D01*
X003517Y002355D01*
X003541Y002339D01*
X003566Y002326D01*
X003593Y002316D01*
X003620Y002309D01*
X003648Y002305D01*
X003677Y002305D01*
X003427Y004671D02*
X004960Y004671D01*
X004960Y005127D01*
X003427Y004671D02*
X003427Y011245D01*
X004994Y011245D01*
X004994Y010564D01*
X004996Y010525D01*
X005002Y010486D01*
X005011Y010448D01*
X005024Y010411D01*
X005041Y010375D01*
X005061Y010342D01*
X005085Y010310D01*
X005111Y010281D01*
X005140Y010255D01*
X005172Y010231D01*
X005205Y010211D01*
X005241Y010194D01*
X005278Y010181D01*
X005316Y010172D01*
X005355Y010166D01*
X005394Y010164D01*
X030138Y010164D01*
X030177Y010166D01*
X030216Y010172D01*
X030254Y010181D01*
X030291Y010194D01*
X030327Y010211D01*
X030360Y010231D01*
X030392Y010255D01*
X030421Y010281D01*
X030447Y010310D01*
X030471Y010342D01*
X030491Y010375D01*
X030508Y010411D01*
X030521Y010448D01*
X030530Y010486D01*
X030536Y010525D01*
X030538Y010564D01*
X030538Y012220D01*
X031892Y012220D01*
X031892Y008810D01*
X031192Y008810D01*
X031169Y008814D01*
X031147Y008821D01*
X031126Y008831D01*
X031107Y008844D01*
X031090Y008860D01*
X031076Y008878D01*
X031064Y008898D01*
X031055Y008919D01*
X031049Y008941D01*
X031046Y008964D01*
X031047Y008987D01*
X031046Y008988D02*
X031046Y009050D01*
X031046Y009073D01*
X031042Y009096D01*
X031036Y009118D01*
X031026Y009139D01*
X031014Y009158D01*
X030999Y009175D01*
X030981Y009190D01*
X030962Y009203D01*
X030941Y009212D01*
X030919Y009218D01*
X030896Y009222D01*
X029019Y009222D01*
X028969Y009184D01*
X028921Y009143D01*
X028876Y009099D01*
X028834Y009053D01*
X028794Y009004D01*
X028758Y008952D01*
X028725Y008899D01*
X028695Y008844D01*
X028668Y008787D01*
X028645Y008728D01*
X028626Y008668D01*
X028610Y008607D01*
X028598Y008546D01*
X028589Y008483D01*
X028585Y008420D01*
X028584Y008358D01*
X028587Y008295D01*
X028594Y008232D01*
X028605Y008170D01*
X028619Y008109D01*
X028637Y008049D01*
X028659Y007990D01*
X028684Y007932D01*
X028713Y007876D01*
X028745Y007822D01*
X028780Y007770D01*
X028818Y007720D01*
X028859Y007672D01*
X028904Y007627D01*
X028950Y007585D01*
X028999Y007546D01*
X029051Y007510D01*
X029104Y007477D01*
X029160Y007447D01*
X029217Y007421D01*
X029275Y007398D01*
X029335Y007379D01*
X029396Y007363D01*
X029458Y007351D01*
X029520Y007343D01*
X029583Y007339D01*
X029646Y007338D01*
X029709Y007342D01*
X029771Y007349D01*
X029833Y007360D01*
X029895Y007374D01*
X029955Y007392D01*
X030014Y007414D01*
X030071Y007440D01*
X030267Y007440D01*
X030293Y007438D01*
X030318Y007433D01*
X030342Y007424D01*
X030364Y007411D01*
X030385Y007396D01*
X030403Y007378D01*
X030418Y007357D01*
X030431Y007335D01*
X030440Y007311D01*
X030445Y007286D01*
X030447Y007260D01*
X030447Y007147D01*
X030448Y007147D02*
X030450Y007114D01*
X030455Y007080D01*
X030465Y007048D01*
X030478Y007017D01*
X030494Y006988D01*
X030513Y006961D01*
X030536Y006936D01*
X030561Y006913D01*
X030588Y006894D01*
X030617Y006878D01*
X030648Y006865D01*
X030680Y006855D01*
X030714Y006850D01*
X030747Y006848D01*
X030780Y006850D01*
X030814Y006855D01*
X030846Y006865D01*
X030877Y006878D01*
X030906Y006894D01*
X030933Y006913D01*
X030958Y006936D01*
X030981Y006961D01*
X031000Y006988D01*
X031016Y007017D01*
X031029Y007048D01*
X031039Y007080D01*
X031044Y007114D01*
X031046Y007147D01*
X031046Y007761D01*
X031047Y007761D02*
X031050Y007784D01*
X031057Y007806D01*
X031067Y007827D01*
X031080Y007847D01*
X031095Y007864D01*
X031113Y007879D01*
X031133Y007891D01*
X031154Y007901D01*
X031177Y007907D01*
X031200Y007910D01*
X031223Y007909D01*
X031223Y007910D02*
X031892Y007910D01*
X031892Y006158D01*
X025710Y006158D01*
X025710Y008677D01*
X025708Y008716D01*
X025702Y008755D01*
X025693Y008793D01*
X025680Y008830D01*
X025663Y008866D01*
X025643Y008899D01*
X025619Y008931D01*
X025593Y008960D01*
X025564Y008986D01*
X025532Y009010D01*
X025499Y009030D01*
X025463Y009047D01*
X025426Y009060D01*
X025388Y009069D01*
X025349Y009075D01*
X025310Y009077D01*
X006960Y009077D01*
X006921Y009075D01*
X006882Y009069D01*
X006844Y009060D01*
X006807Y009047D01*
X006771Y009030D01*
X006738Y009010D01*
X006706Y008986D01*
X006677Y008960D01*
X006651Y008931D01*
X006627Y008899D01*
X006607Y008866D01*
X006590Y008830D01*
X006577Y008793D01*
X006568Y008755D01*
X006562Y008716D01*
X006560Y008677D01*
X006534Y008413D01*
X006496Y008151D01*
X006446Y007891D01*
X006384Y007633D01*
X006310Y007379D01*
X006224Y007129D01*
X006126Y006882D01*
X006017Y006641D01*
X005897Y006404D01*
X005767Y006174D01*
X005625Y005950D01*
X005473Y005733D01*
X005312Y005523D01*
X005141Y005321D01*
X004960Y005127D01*
X004994Y012233D02*
X003427Y012233D01*
X003427Y016586D01*
X003429Y016616D01*
X003434Y016646D01*
X003443Y016675D01*
X003456Y016702D01*
X003471Y016728D01*
X003490Y016752D01*
X003511Y016773D01*
X003535Y016792D01*
X003561Y016807D01*
X003588Y016820D01*
X003617Y016829D01*
X003647Y016834D01*
X003677Y016836D01*
X031642Y016836D01*
X031672Y016834D01*
X031702Y016829D01*
X031731Y016820D01*
X031758Y016807D01*
X031784Y016792D01*
X031808Y016773D01*
X031829Y016752D01*
X031848Y016728D01*
X031863Y016702D01*
X031876Y016675D01*
X031885Y016646D01*
X031890Y016616D01*
X031892Y016586D01*
X031892Y014008D01*
X030538Y014008D01*
X030538Y015914D01*
X030536Y015937D01*
X030531Y015960D01*
X030522Y015982D01*
X030509Y016002D01*
X030494Y016020D01*
X030476Y016035D01*
X030456Y016048D01*
X030434Y016057D01*
X030411Y016062D01*
X030388Y016064D01*
X008410Y016064D01*
X008371Y016062D01*
X008332Y016056D01*
X008294Y016047D01*
X008257Y016034D01*
X008221Y016017D01*
X008188Y015997D01*
X008156Y015973D01*
X008127Y015947D01*
X008101Y015918D01*
X008077Y015886D01*
X008057Y015853D01*
X008040Y015817D01*
X008027Y015780D01*
X008018Y015742D01*
X008012Y015703D01*
X008010Y015664D01*
X008010Y013714D01*
X008008Y013675D01*
X008002Y013636D01*
X007993Y013598D01*
X007980Y013561D01*
X007963Y013525D01*
X007943Y013492D01*
X007919Y013460D01*
X007893Y013431D01*
X007864Y013405D01*
X007832Y013381D01*
X007799Y013361D01*
X007763Y013344D01*
X007726Y013331D01*
X007688Y013322D01*
X007649Y013316D01*
X007610Y013314D01*
X005394Y013314D01*
X005355Y013312D01*
X005316Y013306D01*
X005278Y013297D01*
X005241Y013284D01*
X005205Y013267D01*
X005172Y013247D01*
X005140Y013223D01*
X005111Y013197D01*
X005085Y013168D01*
X005061Y013136D01*
X005041Y013103D01*
X005024Y013067D01*
X005011Y013030D01*
X005002Y012992D01*
X004996Y012953D01*
X004994Y012914D01*
X004994Y012233D01*
D11*
X001440Y015215D02*
X001442Y015263D01*
X001448Y015311D01*
X001458Y015358D01*
X001471Y015404D01*
X001489Y015449D01*
X001509Y015493D01*
X001534Y015535D01*
X001562Y015574D01*
X001592Y015611D01*
X001626Y015645D01*
X001663Y015677D01*
X001701Y015706D01*
X001742Y015731D01*
X001785Y015753D01*
X001830Y015771D01*
X001876Y015785D01*
X001923Y015796D01*
X001971Y015803D01*
X002019Y015806D01*
X002067Y015805D01*
X002115Y015800D01*
X002163Y015791D01*
X002209Y015779D01*
X002254Y015762D01*
X002298Y015742D01*
X002340Y015719D01*
X002380Y015692D01*
X002418Y015662D01*
X002453Y015629D01*
X002485Y015593D01*
X002515Y015555D01*
X002541Y015514D01*
X002563Y015471D01*
X002583Y015427D01*
X002598Y015382D01*
X002610Y015335D01*
X002618Y015287D01*
X002622Y015239D01*
X002622Y015191D01*
X002618Y015143D01*
X002610Y015095D01*
X002598Y015048D01*
X002583Y015003D01*
X002563Y014959D01*
X002541Y014916D01*
X002515Y014875D01*
X002485Y014837D01*
X002453Y014801D01*
X002418Y014768D01*
X002380Y014738D01*
X002340Y014711D01*
X002298Y014688D01*
X002254Y014668D01*
X002209Y014651D01*
X002163Y014639D01*
X002115Y014630D01*
X002067Y014625D01*
X002019Y014624D01*
X001971Y014627D01*
X001923Y014634D01*
X001876Y014645D01*
X001830Y014659D01*
X001785Y014677D01*
X001742Y014699D01*
X001701Y014724D01*
X001663Y014753D01*
X001626Y014785D01*
X001592Y014819D01*
X001562Y014856D01*
X001534Y014895D01*
X001509Y014937D01*
X001489Y014981D01*
X001471Y015026D01*
X001458Y015072D01*
X001448Y015119D01*
X001442Y015167D01*
X001440Y015215D01*
X007182Y005080D02*
X007184Y005120D01*
X007190Y005159D01*
X007200Y005198D01*
X007213Y005235D01*
X007231Y005271D01*
X007252Y005305D01*
X007276Y005337D01*
X007303Y005366D01*
X007333Y005393D01*
X007365Y005416D01*
X007400Y005436D01*
X007436Y005452D01*
X007474Y005465D01*
X007513Y005474D01*
X007552Y005479D01*
X007592Y005480D01*
X007632Y005477D01*
X007671Y005470D01*
X007709Y005459D01*
X007747Y005445D01*
X007782Y005426D01*
X007815Y005405D01*
X007847Y005380D01*
X007875Y005352D01*
X007901Y005322D01*
X007923Y005289D01*
X007942Y005254D01*
X007958Y005217D01*
X007970Y005179D01*
X007978Y005140D01*
X007982Y005100D01*
X007982Y005060D01*
X007978Y005020D01*
X007970Y004981D01*
X007958Y004943D01*
X007942Y004906D01*
X007923Y004871D01*
X007901Y004838D01*
X007875Y004808D01*
X007847Y004780D01*
X007815Y004755D01*
X007782Y004734D01*
X007747Y004715D01*
X007709Y004701D01*
X007671Y004690D01*
X007632Y004683D01*
X007592Y004680D01*
X007552Y004681D01*
X007513Y004686D01*
X007474Y004695D01*
X007436Y004708D01*
X007400Y004724D01*
X007365Y004744D01*
X007333Y004767D01*
X007303Y004794D01*
X007276Y004823D01*
X007252Y004855D01*
X007231Y004889D01*
X007213Y004925D01*
X007200Y004962D01*
X007190Y005001D01*
X007184Y005040D01*
X007182Y005080D01*
X009001Y004288D02*
X009003Y004318D01*
X009009Y004348D01*
X009018Y004377D01*
X009031Y004404D01*
X009048Y004429D01*
X009067Y004452D01*
X009090Y004473D01*
X009115Y004490D01*
X009141Y004504D01*
X009170Y004514D01*
X009199Y004521D01*
X009229Y004524D01*
X009260Y004523D01*
X009290Y004518D01*
X009319Y004509D01*
X009346Y004497D01*
X009372Y004482D01*
X009396Y004463D01*
X009417Y004441D01*
X009435Y004417D01*
X009450Y004390D01*
X009461Y004362D01*
X009469Y004333D01*
X009473Y004303D01*
X009473Y004273D01*
X009469Y004243D01*
X009461Y004214D01*
X009450Y004186D01*
X009435Y004159D01*
X009417Y004135D01*
X009396Y004113D01*
X009372Y004094D01*
X009346Y004079D01*
X009319Y004067D01*
X009290Y004058D01*
X009260Y004053D01*
X009229Y004052D01*
X009199Y004055D01*
X009170Y004062D01*
X009141Y004072D01*
X009115Y004086D01*
X009090Y004103D01*
X009067Y004124D01*
X009048Y004147D01*
X009031Y004172D01*
X009018Y004199D01*
X009009Y004228D01*
X009003Y004258D01*
X009001Y004288D01*
X011560Y004288D02*
X011562Y004318D01*
X011568Y004348D01*
X011577Y004377D01*
X011590Y004404D01*
X011607Y004429D01*
X011626Y004452D01*
X011649Y004473D01*
X011674Y004490D01*
X011700Y004504D01*
X011729Y004514D01*
X011758Y004521D01*
X011788Y004524D01*
X011819Y004523D01*
X011849Y004518D01*
X011878Y004509D01*
X011905Y004497D01*
X011931Y004482D01*
X011955Y004463D01*
X011976Y004441D01*
X011994Y004417D01*
X012009Y004390D01*
X012020Y004362D01*
X012028Y004333D01*
X012032Y004303D01*
X012032Y004273D01*
X012028Y004243D01*
X012020Y004214D01*
X012009Y004186D01*
X011994Y004159D01*
X011976Y004135D01*
X011955Y004113D01*
X011931Y004094D01*
X011905Y004079D01*
X011878Y004067D01*
X011849Y004058D01*
X011819Y004053D01*
X011788Y004052D01*
X011758Y004055D01*
X011729Y004062D01*
X011700Y004072D01*
X011674Y004086D01*
X011649Y004103D01*
X011626Y004124D01*
X011607Y004147D01*
X011590Y004172D01*
X011577Y004199D01*
X011568Y004228D01*
X011562Y004258D01*
X011560Y004288D01*
X013487Y005080D02*
X013489Y005120D01*
X013495Y005159D01*
X013505Y005198D01*
X013518Y005235D01*
X013536Y005271D01*
X013557Y005305D01*
X013581Y005337D01*
X013608Y005366D01*
X013638Y005393D01*
X013670Y005416D01*
X013705Y005436D01*
X013741Y005452D01*
X013779Y005465D01*
X013818Y005474D01*
X013857Y005479D01*
X013897Y005480D01*
X013937Y005477D01*
X013976Y005470D01*
X014014Y005459D01*
X014052Y005445D01*
X014087Y005426D01*
X014120Y005405D01*
X014152Y005380D01*
X014180Y005352D01*
X014206Y005322D01*
X014228Y005289D01*
X014247Y005254D01*
X014263Y005217D01*
X014275Y005179D01*
X014283Y005140D01*
X014287Y005100D01*
X014287Y005060D01*
X014283Y005020D01*
X014275Y004981D01*
X014263Y004943D01*
X014247Y004906D01*
X014228Y004871D01*
X014206Y004838D01*
X014180Y004808D01*
X014152Y004780D01*
X014120Y004755D01*
X014087Y004734D01*
X014052Y004715D01*
X014014Y004701D01*
X013976Y004690D01*
X013937Y004683D01*
X013897Y004680D01*
X013857Y004681D01*
X013818Y004686D01*
X013779Y004695D01*
X013741Y004708D01*
X013705Y004724D01*
X013670Y004744D01*
X013638Y004767D01*
X013608Y004794D01*
X013581Y004823D01*
X013557Y004855D01*
X013536Y004889D01*
X013518Y004925D01*
X013505Y004962D01*
X013495Y005001D01*
X013489Y005040D01*
X013487Y005080D01*
X015196Y004757D02*
X015198Y004782D01*
X015204Y004807D01*
X015213Y004830D01*
X015226Y004852D01*
X015242Y004871D01*
X015261Y004888D01*
X015282Y004902D01*
X015305Y004912D01*
X015330Y004919D01*
X015355Y004922D01*
X015380Y004921D01*
X015405Y004916D01*
X015428Y004908D01*
X015451Y004895D01*
X015471Y004880D01*
X015488Y004862D01*
X015503Y004841D01*
X015514Y004819D01*
X015522Y004795D01*
X015526Y004770D01*
X015526Y004744D01*
X015522Y004719D01*
X015514Y004695D01*
X015503Y004673D01*
X015488Y004652D01*
X015471Y004634D01*
X015451Y004619D01*
X015428Y004606D01*
X015405Y004598D01*
X015380Y004593D01*
X015355Y004592D01*
X015330Y004595D01*
X015305Y004602D01*
X015282Y004612D01*
X015261Y004626D01*
X015242Y004643D01*
X015226Y004662D01*
X015213Y004684D01*
X015204Y004707D01*
X015198Y004732D01*
X015196Y004757D01*
X017913Y004757D02*
X017915Y004782D01*
X017921Y004807D01*
X017930Y004830D01*
X017943Y004852D01*
X017959Y004871D01*
X017978Y004888D01*
X017999Y004902D01*
X018022Y004912D01*
X018047Y004919D01*
X018072Y004922D01*
X018097Y004921D01*
X018122Y004916D01*
X018145Y004908D01*
X018168Y004895D01*
X018188Y004880D01*
X018205Y004862D01*
X018220Y004841D01*
X018231Y004819D01*
X018239Y004795D01*
X018243Y004770D01*
X018243Y004744D01*
X018239Y004719D01*
X018231Y004695D01*
X018220Y004673D01*
X018205Y004652D01*
X018188Y004634D01*
X018168Y004619D01*
X018145Y004606D01*
X018122Y004598D01*
X018097Y004593D01*
X018072Y004592D01*
X018047Y004595D01*
X018022Y004602D01*
X017999Y004612D01*
X017978Y004626D01*
X017959Y004643D01*
X017943Y004662D01*
X017930Y004684D01*
X017921Y004707D01*
X017915Y004732D01*
X017913Y004757D01*
X032687Y002959D02*
X032689Y003007D01*
X032695Y003055D01*
X032705Y003102D01*
X032718Y003148D01*
X032736Y003193D01*
X032756Y003237D01*
X032781Y003279D01*
X032809Y003318D01*
X032839Y003355D01*
X032873Y003389D01*
X032910Y003421D01*
X032948Y003450D01*
X032989Y003475D01*
X033032Y003497D01*
X033077Y003515D01*
X033123Y003529D01*
X033170Y003540D01*
X033218Y003547D01*
X033266Y003550D01*
X033314Y003549D01*
X033362Y003544D01*
X033410Y003535D01*
X033456Y003523D01*
X033501Y003506D01*
X033545Y003486D01*
X033587Y003463D01*
X033627Y003436D01*
X033665Y003406D01*
X033700Y003373D01*
X033732Y003337D01*
X033762Y003299D01*
X033788Y003258D01*
X033810Y003215D01*
X033830Y003171D01*
X033845Y003126D01*
X033857Y003079D01*
X033865Y003031D01*
X033869Y002983D01*
X033869Y002935D01*
X033865Y002887D01*
X033857Y002839D01*
X033845Y002792D01*
X033830Y002747D01*
X033810Y002703D01*
X033788Y002660D01*
X033762Y002619D01*
X033732Y002581D01*
X033700Y002545D01*
X033665Y002512D01*
X033627Y002482D01*
X033587Y002455D01*
X033545Y002432D01*
X033501Y002412D01*
X033456Y002395D01*
X033410Y002383D01*
X033362Y002374D01*
X033314Y002369D01*
X033266Y002368D01*
X033218Y002371D01*
X033170Y002378D01*
X033123Y002389D01*
X033077Y002403D01*
X033032Y002421D01*
X032989Y002443D01*
X032948Y002468D01*
X032910Y002497D01*
X032873Y002529D01*
X032839Y002563D01*
X032809Y002600D01*
X032781Y002639D01*
X032756Y002681D01*
X032736Y002725D01*
X032718Y002770D01*
X032705Y002816D01*
X032695Y002863D01*
X032689Y002911D01*
X032687Y002959D01*
X032687Y015215D02*
X032689Y015263D01*
X032695Y015311D01*
X032705Y015358D01*
X032718Y015404D01*
X032736Y015449D01*
X032756Y015493D01*
X032781Y015535D01*
X032809Y015574D01*
X032839Y015611D01*
X032873Y015645D01*
X032910Y015677D01*
X032948Y015706D01*
X032989Y015731D01*
X033032Y015753D01*
X033077Y015771D01*
X033123Y015785D01*
X033170Y015796D01*
X033218Y015803D01*
X033266Y015806D01*
X033314Y015805D01*
X033362Y015800D01*
X033410Y015791D01*
X033456Y015779D01*
X033501Y015762D01*
X033545Y015742D01*
X033587Y015719D01*
X033627Y015692D01*
X033665Y015662D01*
X033700Y015629D01*
X033732Y015593D01*
X033762Y015555D01*
X033788Y015514D01*
X033810Y015471D01*
X033830Y015427D01*
X033845Y015382D01*
X033857Y015335D01*
X033865Y015287D01*
X033869Y015239D01*
X033869Y015191D01*
X033865Y015143D01*
X033857Y015095D01*
X033845Y015048D01*
X033830Y015003D01*
X033810Y014959D01*
X033788Y014916D01*
X033762Y014875D01*
X033732Y014837D01*
X033700Y014801D01*
X033665Y014768D01*
X033627Y014738D01*
X033587Y014711D01*
X033545Y014688D01*
X033501Y014668D01*
X033456Y014651D01*
X033410Y014639D01*
X033362Y014630D01*
X033314Y014625D01*
X033266Y014624D01*
X033218Y014627D01*
X033170Y014634D01*
X033123Y014645D01*
X033077Y014659D01*
X033032Y014677D01*
X032989Y014699D01*
X032948Y014724D01*
X032910Y014753D01*
X032873Y014785D01*
X032839Y014819D01*
X032809Y014856D01*
X032781Y014895D01*
X032756Y014937D01*
X032736Y014981D01*
X032718Y015026D01*
X032705Y015072D01*
X032695Y015119D01*
X032689Y015167D01*
X032687Y015215D01*
X001440Y002959D02*
X001442Y003007D01*
X001448Y003055D01*
X001458Y003102D01*
X001471Y003148D01*
X001489Y003193D01*
X001509Y003237D01*
X001534Y003279D01*
X001562Y003318D01*
X001592Y003355D01*
X001626Y003389D01*
X001663Y003421D01*
X001701Y003450D01*
X001742Y003475D01*
X001785Y003497D01*
X001830Y003515D01*
X001876Y003529D01*
X001923Y003540D01*
X001971Y003547D01*
X002019Y003550D01*
X002067Y003549D01*
X002115Y003544D01*
X002163Y003535D01*
X002209Y003523D01*
X002254Y003506D01*
X002298Y003486D01*
X002340Y003463D01*
X002380Y003436D01*
X002418Y003406D01*
X002453Y003373D01*
X002485Y003337D01*
X002515Y003299D01*
X002541Y003258D01*
X002563Y003215D01*
X002583Y003171D01*
X002598Y003126D01*
X002610Y003079D01*
X002618Y003031D01*
X002622Y002983D01*
X002622Y002935D01*
X002618Y002887D01*
X002610Y002839D01*
X002598Y002792D01*
X002583Y002747D01*
X002563Y002703D01*
X002541Y002660D01*
X002515Y002619D01*
X002485Y002581D01*
X002453Y002545D01*
X002418Y002512D01*
X002380Y002482D01*
X002340Y002455D01*
X002298Y002432D01*
X002254Y002412D01*
X002209Y002395D01*
X002163Y002383D01*
X002115Y002374D01*
X002067Y002369D01*
X002019Y002368D01*
X001971Y002371D01*
X001923Y002378D01*
X001876Y002389D01*
X001830Y002403D01*
X001785Y002421D01*
X001742Y002443D01*
X001701Y002468D01*
X001663Y002497D01*
X001626Y002529D01*
X001592Y002563D01*
X001562Y002600D01*
X001534Y002639D01*
X001509Y002681D01*
X001489Y002725D01*
X001471Y002770D01*
X001458Y002816D01*
X001448Y002863D01*
X001442Y002911D01*
X001440Y002959D01*
D12*
X029046Y008352D03*
X030046Y008352D03*
D13*
X020645Y005809D03*
X020645Y004809D03*
X005677Y004927D03*
X005677Y003427D03*
X009346Y013327D03*
X010346Y013327D03*
X011346Y013327D03*
D14*
X011245Y007244D02*
X011245Y006844D01*
X009985Y006844D02*
X009985Y007244D01*
X008883Y007244D02*
X008883Y006844D01*
X009395Y006457D02*
X009395Y006057D01*
X008725Y005473D02*
X008725Y005073D01*
X010415Y003855D02*
X010815Y003855D01*
X012347Y004797D02*
X012347Y005197D01*
X012033Y005663D02*
X012033Y006063D01*
D15*
X014905Y004978D03*
X014905Y003206D03*
X018535Y003206D03*
X018535Y004978D03*
D16*
X018731Y004978D02*
X018338Y004978D01*
X018338Y004976D02*
X018731Y004976D01*
X018731Y004973D02*
X018338Y004973D01*
X018338Y004971D02*
X018731Y004971D01*
X018731Y004968D02*
X018338Y004968D01*
X018338Y004966D02*
X018731Y004966D01*
X018731Y004963D02*
X018338Y004963D01*
X018338Y004961D02*
X018731Y004961D01*
X018731Y004959D02*
X018338Y004959D01*
X018338Y004956D02*
X018731Y004956D01*
X018731Y004954D02*
X018338Y004954D01*
X018338Y004951D02*
X018731Y004951D01*
X018731Y004949D02*
X018338Y004949D01*
X018338Y004946D02*
X018731Y004946D01*
X018731Y004944D02*
X018338Y004944D01*
X018338Y004942D02*
X018731Y004942D01*
X018731Y004939D02*
X018338Y004939D01*
X018338Y004937D02*
X018731Y004937D01*
X018731Y004934D02*
X018338Y004934D01*
X018338Y004932D02*
X018731Y004932D01*
X018731Y004929D02*
X018338Y004929D01*
X018338Y004927D02*
X018731Y004927D01*
X018731Y004924D02*
X018338Y004924D01*
X018338Y004922D02*
X018731Y004922D01*
X018731Y004920D02*
X018338Y004920D01*
X018338Y004917D02*
X018731Y004917D01*
X018731Y004915D02*
X018338Y004915D01*
X018338Y004912D02*
X018731Y004912D01*
X018731Y004910D02*
X018338Y004910D01*
X018338Y004907D02*
X018731Y004907D01*
X018731Y004905D02*
X018338Y004905D01*
X018338Y004903D02*
X018731Y004903D01*
X018731Y004900D02*
X018338Y004900D01*
X018338Y004898D02*
X018731Y004898D01*
X018731Y004895D02*
X018338Y004895D01*
X018338Y004893D02*
X018731Y004893D01*
X018731Y004890D02*
X018338Y004890D01*
X018338Y004888D02*
X018731Y004888D01*
X018731Y004886D02*
X018338Y004886D01*
X018338Y004883D02*
X018731Y004883D01*
X018731Y004881D02*
X018338Y004881D01*
X018338Y004878D02*
X018731Y004878D01*
X018731Y004876D02*
X018338Y004876D01*
X018338Y004873D02*
X018731Y004873D01*
X018731Y004871D02*
X018338Y004871D01*
X018338Y004868D02*
X018731Y004868D01*
X018731Y004866D02*
X018338Y004866D01*
X018338Y004864D02*
X018731Y004864D01*
X018731Y004861D02*
X018338Y004861D01*
X018338Y004859D02*
X018731Y004859D01*
X018731Y004856D02*
X018338Y004856D01*
X018338Y004854D02*
X018731Y004854D01*
X018731Y004851D02*
X018338Y004851D01*
X018338Y004849D02*
X018731Y004849D01*
X018731Y004847D02*
X018338Y004847D01*
X018338Y004844D02*
X018731Y004844D01*
X018731Y004842D02*
X018338Y004842D01*
X018338Y004839D02*
X018731Y004839D01*
X018731Y004837D02*
X018338Y004837D01*
X018338Y004834D02*
X018731Y004834D01*
X018731Y004832D02*
X018338Y004832D01*
X018338Y004829D02*
X018731Y004829D01*
X018731Y004827D02*
X018338Y004827D01*
X018338Y004825D02*
X018731Y004825D01*
X018731Y004822D02*
X018338Y004822D01*
X018338Y004820D02*
X018731Y004820D01*
X018731Y004817D02*
X018338Y004817D01*
X018338Y004815D02*
X018731Y004815D01*
X018731Y004812D02*
X018338Y004812D01*
X018338Y004810D02*
X018731Y004810D01*
X018731Y004808D02*
X018338Y004808D01*
X018338Y004805D02*
X018731Y004805D01*
X018731Y004803D02*
X018338Y004803D01*
X018338Y004800D02*
X018731Y004800D01*
X018731Y004798D02*
X018338Y004798D01*
X018338Y004795D02*
X018731Y004795D01*
X018731Y004793D02*
X018338Y004793D01*
X018338Y004790D02*
X018731Y004790D01*
X018731Y004788D02*
X018338Y004788D01*
X018338Y004786D02*
X018731Y004786D01*
X018731Y004783D02*
X018338Y004783D01*
X018338Y004781D02*
X018731Y004781D01*
X018731Y004778D02*
X018338Y004778D01*
X018338Y004776D02*
X018731Y004776D01*
X018731Y004773D02*
X018338Y004773D01*
X018338Y004771D02*
X018731Y004771D01*
X018731Y004769D02*
X018338Y004769D01*
X018338Y004766D02*
X018731Y004766D01*
X018731Y004764D02*
X018338Y004764D01*
X018338Y004761D02*
X018343Y004717D01*
X018727Y004717D01*
X018731Y004761D01*
X018338Y004761D01*
X018338Y005194D01*
X018343Y005238D01*
X018357Y005280D01*
X018381Y005317D01*
X018412Y005348D01*
X018449Y005372D01*
X018491Y005386D01*
X018535Y005391D01*
X018578Y005386D01*
X018620Y005372D01*
X018657Y005348D01*
X018689Y005317D01*
X018381Y005317D01*
X018383Y005319D02*
X018686Y005319D01*
X018689Y005317D02*
X018712Y005280D01*
X018727Y005238D01*
X018731Y005194D01*
X018731Y004761D01*
X018731Y004759D02*
X018338Y004759D01*
X018338Y004756D02*
X018731Y004756D01*
X018731Y004754D02*
X018339Y004754D01*
X018339Y004751D02*
X018730Y004751D01*
X018730Y004749D02*
X018339Y004749D01*
X018339Y004747D02*
X018730Y004747D01*
X018730Y004744D02*
X018340Y004744D01*
X018340Y004742D02*
X018729Y004742D01*
X018729Y004739D02*
X018340Y004739D01*
X018341Y004737D02*
X018729Y004737D01*
X018728Y004734D02*
X018341Y004734D01*
X018341Y004732D02*
X018728Y004732D01*
X018728Y004730D02*
X018341Y004730D01*
X018342Y004727D02*
X018728Y004727D01*
X018727Y004725D02*
X018342Y004725D01*
X018342Y004722D02*
X018727Y004722D01*
X018727Y004720D02*
X018342Y004720D01*
X018343Y004717D02*
X018357Y004676D01*
X018712Y004676D01*
X018727Y004717D01*
X018726Y004715D02*
X018344Y004715D01*
X018344Y004712D02*
X018725Y004712D01*
X018724Y004710D02*
X018345Y004710D01*
X018346Y004708D02*
X018723Y004708D01*
X018722Y004705D02*
X018347Y004705D01*
X018348Y004703D02*
X018721Y004703D01*
X018721Y004700D02*
X018349Y004700D01*
X018350Y004698D02*
X018720Y004698D01*
X018719Y004695D02*
X018350Y004695D01*
X018351Y004693D02*
X018718Y004693D01*
X018717Y004691D02*
X018352Y004691D01*
X018353Y004688D02*
X018716Y004688D01*
X018715Y004686D02*
X018354Y004686D01*
X018355Y004683D02*
X018715Y004683D01*
X018714Y004681D02*
X018356Y004681D01*
X018356Y004678D02*
X018713Y004678D01*
X018712Y004676D02*
X018689Y004639D01*
X018380Y004639D01*
X018381Y004639D02*
X018412Y004607D01*
X018449Y004584D01*
X018491Y004569D01*
X018535Y004564D01*
X018578Y004569D01*
X018620Y004584D01*
X018657Y004607D01*
X018689Y004639D01*
X018687Y004637D02*
X018382Y004637D01*
X018381Y004639D02*
X018357Y004676D01*
X018359Y004673D02*
X018710Y004673D01*
X018709Y004671D02*
X018360Y004671D01*
X018362Y004669D02*
X018707Y004669D01*
X018706Y004666D02*
X018363Y004666D01*
X018365Y004664D02*
X018704Y004664D01*
X018703Y004661D02*
X018366Y004661D01*
X018368Y004659D02*
X018701Y004659D01*
X018700Y004656D02*
X018370Y004656D01*
X018371Y004654D02*
X018698Y004654D01*
X018697Y004652D02*
X018373Y004652D01*
X018374Y004649D02*
X018695Y004649D01*
X018694Y004647D02*
X018376Y004647D01*
X018377Y004644D02*
X018692Y004644D01*
X018691Y004642D02*
X018379Y004642D01*
X018385Y004634D02*
X018684Y004634D01*
X018682Y004632D02*
X018387Y004632D01*
X018390Y004630D02*
X018680Y004630D01*
X018677Y004627D02*
X018392Y004627D01*
X018395Y004625D02*
X018675Y004625D01*
X018672Y004622D02*
X018397Y004622D01*
X018399Y004620D02*
X018670Y004620D01*
X018667Y004617D02*
X018402Y004617D01*
X018404Y004615D02*
X018665Y004615D01*
X018663Y004613D02*
X018407Y004613D01*
X018409Y004610D02*
X018660Y004610D01*
X018658Y004608D02*
X018412Y004608D01*
X018415Y004605D02*
X018654Y004605D01*
X018650Y004603D02*
X018419Y004603D01*
X018423Y004600D02*
X018646Y004600D01*
X018642Y004598D02*
X018427Y004598D01*
X018431Y004595D02*
X018638Y004595D01*
X018635Y004593D02*
X018435Y004593D01*
X018439Y004591D02*
X018631Y004591D01*
X018627Y004588D02*
X018442Y004588D01*
X018446Y004586D02*
X018623Y004586D01*
X018618Y004583D02*
X018451Y004583D01*
X018458Y004581D02*
X018611Y004581D01*
X018604Y004578D02*
X018465Y004578D01*
X018472Y004576D02*
X018597Y004576D01*
X018590Y004574D02*
X018479Y004574D01*
X018486Y004571D02*
X018583Y004571D01*
X018572Y004569D02*
X018497Y004569D01*
X018519Y004566D02*
X018551Y004566D01*
X018731Y004981D02*
X018338Y004981D01*
X018338Y004983D02*
X018731Y004983D01*
X018731Y004985D02*
X018338Y004985D01*
X018338Y004988D02*
X018731Y004988D01*
X018731Y004990D02*
X018338Y004990D01*
X018338Y004993D02*
X018731Y004993D01*
X018731Y004995D02*
X018338Y004995D01*
X018338Y004998D02*
X018731Y004998D01*
X018731Y005000D02*
X018338Y005000D01*
X018338Y005002D02*
X018731Y005002D01*
X018731Y005005D02*
X018338Y005005D01*
X018338Y005007D02*
X018731Y005007D01*
X018731Y005010D02*
X018338Y005010D01*
X018338Y005012D02*
X018731Y005012D01*
X018731Y005015D02*
X018338Y005015D01*
X018338Y005017D02*
X018731Y005017D01*
X018731Y005020D02*
X018338Y005020D01*
X018338Y005022D02*
X018731Y005022D01*
X018731Y005024D02*
X018338Y005024D01*
X018338Y005027D02*
X018731Y005027D01*
X018731Y005029D02*
X018338Y005029D01*
X018338Y005032D02*
X018731Y005032D01*
X018731Y005034D02*
X018338Y005034D01*
X018338Y005037D02*
X018731Y005037D01*
X018731Y005039D02*
X018338Y005039D01*
X018338Y005041D02*
X018731Y005041D01*
X018731Y005044D02*
X018338Y005044D01*
X018338Y005046D02*
X018731Y005046D01*
X018731Y005049D02*
X018338Y005049D01*
X018338Y005051D02*
X018731Y005051D01*
X018731Y005054D02*
X018338Y005054D01*
X018338Y005056D02*
X018731Y005056D01*
X018731Y005059D02*
X018338Y005059D01*
X018338Y005061D02*
X018731Y005061D01*
X018731Y005063D02*
X018338Y005063D01*
X018338Y005066D02*
X018731Y005066D01*
X018731Y005068D02*
X018338Y005068D01*
X018338Y005071D02*
X018731Y005071D01*
X018731Y005073D02*
X018338Y005073D01*
X018338Y005076D02*
X018731Y005076D01*
X018731Y005078D02*
X018338Y005078D01*
X018338Y005080D02*
X018731Y005080D01*
X018731Y005083D02*
X018338Y005083D01*
X018338Y005085D02*
X018731Y005085D01*
X018731Y005088D02*
X018338Y005088D01*
X018338Y005090D02*
X018731Y005090D01*
X018731Y005093D02*
X018338Y005093D01*
X018338Y005095D02*
X018731Y005095D01*
X018731Y005098D02*
X018338Y005098D01*
X018338Y005100D02*
X018731Y005100D01*
X018731Y005102D02*
X018338Y005102D01*
X018338Y005105D02*
X018731Y005105D01*
X018731Y005107D02*
X018338Y005107D01*
X018338Y005110D02*
X018731Y005110D01*
X018731Y005112D02*
X018338Y005112D01*
X018338Y005115D02*
X018731Y005115D01*
X018731Y005117D02*
X018338Y005117D01*
X018338Y005119D02*
X018731Y005119D01*
X018731Y005122D02*
X018338Y005122D01*
X018338Y005124D02*
X018731Y005124D01*
X018731Y005127D02*
X018338Y005127D01*
X018338Y005129D02*
X018731Y005129D01*
X018731Y005132D02*
X018338Y005132D01*
X018338Y005134D02*
X018731Y005134D01*
X018731Y005137D02*
X018338Y005137D01*
X018338Y005139D02*
X018731Y005139D01*
X018731Y005141D02*
X018338Y005141D01*
X018338Y005144D02*
X018731Y005144D01*
X018731Y005146D02*
X018338Y005146D01*
X018338Y005149D02*
X018731Y005149D01*
X018731Y005151D02*
X018338Y005151D01*
X018338Y005154D02*
X018731Y005154D01*
X018731Y005156D02*
X018338Y005156D01*
X018338Y005158D02*
X018731Y005158D01*
X018731Y005161D02*
X018338Y005161D01*
X018338Y005163D02*
X018731Y005163D01*
X018731Y005166D02*
X018338Y005166D01*
X018338Y005168D02*
X018731Y005168D01*
X018731Y005171D02*
X018338Y005171D01*
X018338Y005173D02*
X018731Y005173D01*
X018731Y005176D02*
X018338Y005176D01*
X018338Y005178D02*
X018731Y005178D01*
X018731Y005180D02*
X018338Y005180D01*
X018338Y005183D02*
X018731Y005183D01*
X018731Y005185D02*
X018338Y005185D01*
X018338Y005188D02*
X018731Y005188D01*
X018731Y005190D02*
X018338Y005190D01*
X018338Y005193D02*
X018731Y005193D01*
X018731Y005195D02*
X018338Y005195D01*
X018338Y005197D02*
X018731Y005197D01*
X018731Y005200D02*
X018338Y005200D01*
X018339Y005202D02*
X018731Y005202D01*
X018730Y005205D02*
X018339Y005205D01*
X018339Y005207D02*
X018730Y005207D01*
X018730Y005210D02*
X018340Y005210D01*
X018340Y005212D02*
X018729Y005212D01*
X018729Y005215D02*
X018340Y005215D01*
X018340Y005217D02*
X018729Y005217D01*
X018729Y005219D02*
X018341Y005219D01*
X018341Y005222D02*
X018728Y005222D01*
X018728Y005224D02*
X018341Y005224D01*
X018341Y005227D02*
X018728Y005227D01*
X018728Y005229D02*
X018342Y005229D01*
X018342Y005232D02*
X018727Y005232D01*
X018727Y005234D02*
X018342Y005234D01*
X018343Y005236D02*
X018727Y005236D01*
X018726Y005239D02*
X018343Y005239D01*
X018344Y005241D02*
X018725Y005241D01*
X018725Y005244D02*
X018345Y005244D01*
X018346Y005246D02*
X018724Y005246D01*
X018723Y005249D02*
X018346Y005249D01*
X018347Y005251D02*
X018722Y005251D01*
X018721Y005254D02*
X018348Y005254D01*
X018349Y005256D02*
X018720Y005256D01*
X018719Y005258D02*
X018350Y005258D01*
X018351Y005261D02*
X018719Y005261D01*
X018718Y005263D02*
X018352Y005263D01*
X018352Y005266D02*
X018717Y005266D01*
X018716Y005268D02*
X018353Y005268D01*
X018354Y005271D02*
X018715Y005271D01*
X018714Y005273D02*
X018355Y005273D01*
X018356Y005275D02*
X018713Y005275D01*
X018713Y005278D02*
X018357Y005278D01*
X018358Y005280D02*
X018712Y005280D01*
X018710Y005283D02*
X018359Y005283D01*
X018361Y005285D02*
X018709Y005285D01*
X018707Y005288D02*
X018362Y005288D01*
X018364Y005290D02*
X018706Y005290D01*
X018704Y005293D02*
X018365Y005293D01*
X018367Y005295D02*
X018702Y005295D01*
X018701Y005297D02*
X018368Y005297D01*
X018370Y005300D02*
X018699Y005300D01*
X018698Y005302D02*
X018371Y005302D01*
X018373Y005305D02*
X018696Y005305D01*
X018695Y005307D02*
X018375Y005307D01*
X018376Y005310D02*
X018693Y005310D01*
X018692Y005312D02*
X018378Y005312D01*
X018379Y005314D02*
X018690Y005314D01*
X018684Y005322D02*
X018385Y005322D01*
X018388Y005324D02*
X018681Y005324D01*
X018679Y005327D02*
X018390Y005327D01*
X018393Y005329D02*
X018677Y005329D01*
X018674Y005332D02*
X018395Y005332D01*
X018398Y005334D02*
X018672Y005334D01*
X018669Y005336D02*
X018400Y005336D01*
X018403Y005339D02*
X018667Y005339D01*
X018664Y005341D02*
X018405Y005341D01*
X018407Y005344D02*
X018662Y005344D01*
X018659Y005346D02*
X018410Y005346D01*
X018412Y005349D02*
X018657Y005349D01*
X018653Y005351D02*
X018416Y005351D01*
X018420Y005353D02*
X018649Y005353D01*
X018645Y005356D02*
X018424Y005356D01*
X018428Y005358D02*
X018641Y005358D01*
X018637Y005361D02*
X018432Y005361D01*
X018436Y005363D02*
X018634Y005363D01*
X018630Y005366D02*
X018440Y005366D01*
X018443Y005368D02*
X018626Y005368D01*
X018622Y005371D02*
X018447Y005371D01*
X018453Y005373D02*
X018616Y005373D01*
X018609Y005375D02*
X018460Y005375D01*
X018467Y005378D02*
X018603Y005378D01*
X018596Y005380D02*
X018474Y005380D01*
X018481Y005383D02*
X018589Y005383D01*
X018582Y005385D02*
X018488Y005385D01*
X018503Y005388D02*
X018567Y005388D01*
X018545Y005390D02*
X018524Y005390D01*
X018535Y003620D02*
X018491Y003615D01*
X018449Y003600D01*
X018412Y003577D01*
X018657Y003577D01*
X018620Y003600D01*
X018578Y003615D01*
X018535Y003620D01*
X018547Y003618D02*
X018522Y003618D01*
X018501Y003616D02*
X018569Y003616D01*
X018582Y003613D02*
X018487Y003613D01*
X018480Y003611D02*
X018589Y003611D01*
X018596Y003608D02*
X018473Y003608D01*
X018466Y003606D02*
X018603Y003606D01*
X018610Y003604D02*
X018459Y003604D01*
X018452Y003601D02*
X018617Y003601D01*
X018622Y003599D02*
X018447Y003599D01*
X018443Y003596D02*
X018626Y003596D01*
X018630Y003594D02*
X018439Y003594D01*
X018435Y003591D02*
X018634Y003591D01*
X018638Y003589D02*
X018431Y003589D01*
X018428Y003586D02*
X018642Y003586D01*
X018646Y003584D02*
X018424Y003584D01*
X018420Y003582D02*
X018649Y003582D01*
X018653Y003579D02*
X018416Y003579D01*
X018412Y003577D02*
X018381Y003545D01*
X018357Y003508D01*
X018343Y003466D01*
X018338Y003423D01*
X018731Y003423D01*
X018727Y003466D01*
X018712Y003508D01*
X018689Y003545D01*
X018380Y003545D01*
X018379Y003543D02*
X018690Y003543D01*
X018689Y003545D02*
X018657Y003577D01*
X018660Y003574D02*
X018410Y003574D01*
X018407Y003572D02*
X018662Y003572D01*
X018665Y003569D02*
X018405Y003569D01*
X018402Y003567D02*
X018667Y003567D01*
X018669Y003565D02*
X018400Y003565D01*
X018397Y003562D02*
X018672Y003562D01*
X018674Y003560D02*
X018395Y003560D01*
X018393Y003557D02*
X018677Y003557D01*
X018679Y003555D02*
X018390Y003555D01*
X018388Y003552D02*
X018682Y003552D01*
X018684Y003550D02*
X018385Y003550D01*
X018383Y003547D02*
X018687Y003547D01*
X018692Y003540D02*
X018377Y003540D01*
X018376Y003538D02*
X018693Y003538D01*
X018695Y003535D02*
X018374Y003535D01*
X018373Y003533D02*
X018696Y003533D01*
X018698Y003530D02*
X018371Y003530D01*
X018370Y003528D02*
X018700Y003528D01*
X018701Y003526D02*
X018368Y003526D01*
X018367Y003523D02*
X018703Y003523D01*
X018704Y003521D02*
X018365Y003521D01*
X018364Y003518D02*
X018706Y003518D01*
X018707Y003516D02*
X018362Y003516D01*
X018361Y003513D02*
X018709Y003513D01*
X018710Y003511D02*
X018359Y003511D01*
X018358Y003508D02*
X018712Y003508D01*
X018713Y003506D02*
X018357Y003506D01*
X018356Y003504D02*
X018714Y003504D01*
X018714Y003501D02*
X018355Y003501D01*
X018354Y003499D02*
X018715Y003499D01*
X018716Y003496D02*
X018353Y003496D01*
X018352Y003494D02*
X018717Y003494D01*
X018718Y003491D02*
X018351Y003491D01*
X018351Y003489D02*
X018719Y003489D01*
X018720Y003487D02*
X018350Y003487D01*
X018349Y003484D02*
X018720Y003484D01*
X018721Y003482D02*
X018348Y003482D01*
X018347Y003479D02*
X018722Y003479D01*
X018723Y003477D02*
X018346Y003477D01*
X018345Y003474D02*
X018724Y003474D01*
X018725Y003472D02*
X018345Y003472D01*
X018344Y003469D02*
X018726Y003469D01*
X018726Y003467D02*
X018343Y003467D01*
X018343Y003465D02*
X018727Y003465D01*
X018727Y003462D02*
X018342Y003462D01*
X018342Y003460D02*
X018727Y003460D01*
X018728Y003457D02*
X018342Y003457D01*
X018341Y003455D02*
X018728Y003455D01*
X018728Y003452D02*
X018341Y003452D01*
X018341Y003450D02*
X018728Y003450D01*
X018729Y003448D02*
X018341Y003448D01*
X018340Y003445D02*
X018729Y003445D01*
X018729Y003443D02*
X018340Y003443D01*
X018340Y003440D02*
X018730Y003440D01*
X018730Y003438D02*
X018339Y003438D01*
X018339Y003435D02*
X018730Y003435D01*
X018730Y003433D02*
X018339Y003433D01*
X018339Y003430D02*
X018731Y003430D01*
X018731Y003428D02*
X018338Y003428D01*
X018338Y003426D02*
X018731Y003426D01*
X018731Y003423D02*
X018731Y002990D01*
X018727Y002946D01*
X018712Y002904D01*
X018357Y002904D01*
X018381Y002867D01*
X018412Y002836D01*
X018657Y002836D01*
X018689Y002867D01*
X018380Y002867D01*
X018379Y002870D02*
X018690Y002870D01*
X018692Y002872D02*
X018377Y002872D01*
X018376Y002875D02*
X018694Y002875D01*
X018695Y002877D02*
X018374Y002877D01*
X018373Y002880D02*
X018697Y002880D01*
X018698Y002882D02*
X018371Y002882D01*
X018370Y002885D02*
X018700Y002885D01*
X018701Y002887D02*
X018368Y002887D01*
X018367Y002889D02*
X018703Y002889D01*
X018704Y002892D02*
X018365Y002892D01*
X018364Y002894D02*
X018706Y002894D01*
X018707Y002897D02*
X018362Y002897D01*
X018360Y002899D02*
X018709Y002899D01*
X018710Y002902D02*
X018359Y002902D01*
X018357Y002904D02*
X018343Y002946D01*
X018338Y002990D01*
X018338Y003423D01*
X018338Y003421D02*
X018731Y003421D01*
X018731Y003418D02*
X018338Y003418D01*
X018338Y003416D02*
X018731Y003416D01*
X018731Y003413D02*
X018338Y003413D01*
X018338Y003411D02*
X018731Y003411D01*
X018731Y003409D02*
X018338Y003409D01*
X018338Y003406D02*
X018731Y003406D01*
X018731Y003404D02*
X018338Y003404D01*
X018338Y003401D02*
X018731Y003401D01*
X018731Y003399D02*
X018338Y003399D01*
X018338Y003396D02*
X018731Y003396D01*
X018731Y003394D02*
X018338Y003394D01*
X018338Y003391D02*
X018731Y003391D01*
X018731Y003389D02*
X018338Y003389D01*
X018338Y003387D02*
X018731Y003387D01*
X018731Y003384D02*
X018338Y003384D01*
X018338Y003382D02*
X018731Y003382D01*
X018731Y003379D02*
X018338Y003379D01*
X018338Y003377D02*
X018731Y003377D01*
X018731Y003374D02*
X018338Y003374D01*
X018338Y003372D02*
X018731Y003372D01*
X018731Y003370D02*
X018338Y003370D01*
X018338Y003367D02*
X018731Y003367D01*
X018731Y003365D02*
X018338Y003365D01*
X018338Y003362D02*
X018731Y003362D01*
X018731Y003360D02*
X018338Y003360D01*
X018338Y003357D02*
X018731Y003357D01*
X018731Y003355D02*
X018338Y003355D01*
X018338Y003352D02*
X018731Y003352D01*
X018731Y003350D02*
X018338Y003350D01*
X018338Y003348D02*
X018731Y003348D01*
X018731Y003345D02*
X018338Y003345D01*
X018338Y003343D02*
X018731Y003343D01*
X018731Y003340D02*
X018338Y003340D01*
X018338Y003338D02*
X018731Y003338D01*
X018731Y003335D02*
X018338Y003335D01*
X018338Y003333D02*
X018731Y003333D01*
X018731Y003331D02*
X018338Y003331D01*
X018338Y003328D02*
X018731Y003328D01*
X018731Y003326D02*
X018338Y003326D01*
X018338Y003323D02*
X018731Y003323D01*
X018731Y003321D02*
X018338Y003321D01*
X018338Y003318D02*
X018731Y003318D01*
X018731Y003316D02*
X018338Y003316D01*
X018338Y003313D02*
X018731Y003313D01*
X018731Y003311D02*
X018338Y003311D01*
X018338Y003309D02*
X018731Y003309D01*
X018731Y003306D02*
X018338Y003306D01*
X018338Y003304D02*
X018731Y003304D01*
X018731Y003301D02*
X018338Y003301D01*
X018338Y003299D02*
X018731Y003299D01*
X018731Y003296D02*
X018338Y003296D01*
X018338Y003294D02*
X018731Y003294D01*
X018731Y003292D02*
X018338Y003292D01*
X018338Y003289D02*
X018731Y003289D01*
X018731Y003287D02*
X018338Y003287D01*
X018338Y003284D02*
X018731Y003284D01*
X018731Y003282D02*
X018338Y003282D01*
X018338Y003279D02*
X018731Y003279D01*
X018731Y003277D02*
X018338Y003277D01*
X018338Y003274D02*
X018731Y003274D01*
X018731Y003272D02*
X018338Y003272D01*
X018338Y003270D02*
X018731Y003270D01*
X018731Y003267D02*
X018338Y003267D01*
X018338Y003265D02*
X018731Y003265D01*
X018731Y003262D02*
X018338Y003262D01*
X018338Y003260D02*
X018731Y003260D01*
X018731Y003257D02*
X018338Y003257D01*
X018338Y003255D02*
X018731Y003255D01*
X018731Y003253D02*
X018338Y003253D01*
X018338Y003250D02*
X018731Y003250D01*
X018731Y003248D02*
X018338Y003248D01*
X018338Y003245D02*
X018731Y003245D01*
X018731Y003243D02*
X018338Y003243D01*
X018338Y003240D02*
X018731Y003240D01*
X018731Y003238D02*
X018338Y003238D01*
X018338Y003235D02*
X018731Y003235D01*
X018731Y003233D02*
X018338Y003233D01*
X018338Y003231D02*
X018731Y003231D01*
X018731Y003228D02*
X018338Y003228D01*
X018338Y003226D02*
X018731Y003226D01*
X018731Y003223D02*
X018338Y003223D01*
X018338Y003221D02*
X018731Y003221D01*
X018731Y003218D02*
X018338Y003218D01*
X018338Y003216D02*
X018731Y003216D01*
X018731Y003214D02*
X018338Y003214D01*
X018338Y003211D02*
X018731Y003211D01*
X018731Y003209D02*
X018338Y003209D01*
X018338Y003206D02*
X018731Y003206D01*
X018731Y003204D02*
X018338Y003204D01*
X018338Y003201D02*
X018731Y003201D01*
X018731Y003199D02*
X018338Y003199D01*
X018338Y003196D02*
X018731Y003196D01*
X018731Y003194D02*
X018338Y003194D01*
X018338Y003192D02*
X018731Y003192D01*
X018731Y003189D02*
X018338Y003189D01*
X018338Y003187D02*
X018731Y003187D01*
X018731Y003184D02*
X018338Y003184D01*
X018338Y003182D02*
X018731Y003182D01*
X018731Y003179D02*
X018338Y003179D01*
X018338Y003177D02*
X018731Y003177D01*
X018731Y003175D02*
X018338Y003175D01*
X018338Y003172D02*
X018731Y003172D01*
X018731Y003170D02*
X018338Y003170D01*
X018338Y003167D02*
X018731Y003167D01*
X018731Y003165D02*
X018338Y003165D01*
X018338Y003162D02*
X018731Y003162D01*
X018731Y003160D02*
X018338Y003160D01*
X018338Y003157D02*
X018731Y003157D01*
X018731Y003155D02*
X018338Y003155D01*
X018338Y003153D02*
X018731Y003153D01*
X018731Y003150D02*
X018338Y003150D01*
X018338Y003148D02*
X018731Y003148D01*
X018731Y003145D02*
X018338Y003145D01*
X018338Y003143D02*
X018731Y003143D01*
X018731Y003140D02*
X018338Y003140D01*
X018338Y003138D02*
X018731Y003138D01*
X018731Y003136D02*
X018338Y003136D01*
X018338Y003133D02*
X018731Y003133D01*
X018731Y003131D02*
X018338Y003131D01*
X018338Y003128D02*
X018731Y003128D01*
X018731Y003126D02*
X018338Y003126D01*
X018338Y003123D02*
X018731Y003123D01*
X018731Y003121D02*
X018338Y003121D01*
X018338Y003118D02*
X018731Y003118D01*
X018731Y003116D02*
X018338Y003116D01*
X018338Y003114D02*
X018731Y003114D01*
X018731Y003111D02*
X018338Y003111D01*
X018338Y003109D02*
X018731Y003109D01*
X018731Y003106D02*
X018338Y003106D01*
X018338Y003104D02*
X018731Y003104D01*
X018731Y003101D02*
X018338Y003101D01*
X018338Y003099D02*
X018731Y003099D01*
X018731Y003097D02*
X018338Y003097D01*
X018338Y003094D02*
X018731Y003094D01*
X018731Y003092D02*
X018338Y003092D01*
X018338Y003089D02*
X018731Y003089D01*
X018731Y003087D02*
X018338Y003087D01*
X018338Y003084D02*
X018731Y003084D01*
X018731Y003082D02*
X018338Y003082D01*
X018338Y003079D02*
X018731Y003079D01*
X018731Y003077D02*
X018338Y003077D01*
X018338Y003075D02*
X018731Y003075D01*
X018731Y003072D02*
X018338Y003072D01*
X018338Y003070D02*
X018731Y003070D01*
X018731Y003067D02*
X018338Y003067D01*
X018338Y003065D02*
X018731Y003065D01*
X018731Y003062D02*
X018338Y003062D01*
X018338Y003060D02*
X018731Y003060D01*
X018731Y003058D02*
X018338Y003058D01*
X018338Y003055D02*
X018731Y003055D01*
X018731Y003053D02*
X018338Y003053D01*
X018338Y003050D02*
X018731Y003050D01*
X018731Y003048D02*
X018338Y003048D01*
X018338Y003045D02*
X018731Y003045D01*
X018731Y003043D02*
X018338Y003043D01*
X018338Y003041D02*
X018731Y003041D01*
X018731Y003038D02*
X018338Y003038D01*
X018338Y003036D02*
X018731Y003036D01*
X018731Y003033D02*
X018338Y003033D01*
X018338Y003031D02*
X018731Y003031D01*
X018731Y003028D02*
X018338Y003028D01*
X018338Y003026D02*
X018731Y003026D01*
X018731Y003023D02*
X018338Y003023D01*
X018338Y003021D02*
X018731Y003021D01*
X018731Y003019D02*
X018338Y003019D01*
X018338Y003016D02*
X018731Y003016D01*
X018731Y003014D02*
X018338Y003014D01*
X018338Y003011D02*
X018731Y003011D01*
X018731Y003009D02*
X018338Y003009D01*
X018338Y003006D02*
X018731Y003006D01*
X018731Y003004D02*
X018338Y003004D01*
X018338Y003002D02*
X018731Y003002D01*
X018731Y002999D02*
X018338Y002999D01*
X018338Y002997D02*
X018731Y002997D01*
X018731Y002994D02*
X018338Y002994D01*
X018338Y002992D02*
X018731Y002992D01*
X018731Y002989D02*
X018338Y002989D01*
X018338Y002987D02*
X018731Y002987D01*
X018731Y002984D02*
X018338Y002984D01*
X018339Y002982D02*
X018731Y002982D01*
X018730Y002980D02*
X018339Y002980D01*
X018339Y002977D02*
X018730Y002977D01*
X018730Y002975D02*
X018339Y002975D01*
X018340Y002972D02*
X018730Y002972D01*
X018729Y002970D02*
X018340Y002970D01*
X018340Y002967D02*
X018729Y002967D01*
X018729Y002965D02*
X018341Y002965D01*
X018341Y002963D02*
X018728Y002963D01*
X018728Y002960D02*
X018341Y002960D01*
X018341Y002958D02*
X018728Y002958D01*
X018728Y002955D02*
X018342Y002955D01*
X018342Y002953D02*
X018727Y002953D01*
X018727Y002950D02*
X018342Y002950D01*
X018342Y002948D02*
X018727Y002948D01*
X018726Y002945D02*
X018343Y002945D01*
X018344Y002943D02*
X018726Y002943D01*
X018725Y002941D02*
X018345Y002941D01*
X018345Y002938D02*
X018724Y002938D01*
X018723Y002936D02*
X018346Y002936D01*
X018347Y002933D02*
X018722Y002933D01*
X018721Y002931D02*
X018348Y002931D01*
X018349Y002928D02*
X018720Y002928D01*
X018720Y002926D02*
X018350Y002926D01*
X018351Y002924D02*
X018719Y002924D01*
X018718Y002921D02*
X018351Y002921D01*
X018352Y002919D02*
X018717Y002919D01*
X018716Y002916D02*
X018353Y002916D01*
X018354Y002914D02*
X018715Y002914D01*
X018714Y002911D02*
X018355Y002911D01*
X018356Y002909D02*
X018714Y002909D01*
X018713Y002906D02*
X018356Y002906D01*
X018383Y002865D02*
X018687Y002865D01*
X018689Y002867D02*
X018712Y002904D01*
X018684Y002863D02*
X018385Y002863D01*
X018387Y002860D02*
X018682Y002860D01*
X018679Y002858D02*
X018390Y002858D01*
X018392Y002855D02*
X018677Y002855D01*
X018675Y002853D02*
X018395Y002853D01*
X018397Y002850D02*
X018672Y002850D01*
X018670Y002848D02*
X018400Y002848D01*
X018402Y002846D02*
X018667Y002846D01*
X018665Y002843D02*
X018405Y002843D01*
X018407Y002841D02*
X018662Y002841D01*
X018660Y002838D02*
X018409Y002838D01*
X018412Y002836D02*
X018449Y002812D01*
X018491Y002798D01*
X018535Y002793D01*
X018578Y002798D01*
X018620Y002812D01*
X018657Y002836D01*
X018654Y002833D02*
X018416Y002833D01*
X018420Y002831D02*
X018650Y002831D01*
X018646Y002828D02*
X018423Y002828D01*
X018427Y002826D02*
X018642Y002826D01*
X018638Y002824D02*
X018431Y002824D01*
X018435Y002821D02*
X018634Y002821D01*
X018630Y002819D02*
X018439Y002819D01*
X018443Y002816D02*
X018626Y002816D01*
X018623Y002814D02*
X018447Y002814D01*
X018452Y002811D02*
X018618Y002811D01*
X018611Y002809D02*
X018459Y002809D01*
X018466Y002807D02*
X018604Y002807D01*
X018597Y002804D02*
X018473Y002804D01*
X018480Y002802D02*
X018590Y002802D01*
X018583Y002799D02*
X018486Y002799D01*
X018499Y002797D02*
X018570Y002797D01*
X018549Y002794D02*
X018521Y002794D01*
X015102Y002990D02*
X015102Y003423D01*
X014708Y003423D01*
X014713Y003466D01*
X014727Y003508D01*
X014751Y003545D01*
X015059Y003545D01*
X015027Y003577D01*
X014782Y003577D01*
X014751Y003545D01*
X014753Y003547D02*
X015057Y003547D01*
X015059Y003545D02*
X015082Y003508D01*
X015097Y003466D01*
X015102Y003423D01*
X015102Y003421D02*
X014708Y003421D01*
X014708Y003423D02*
X014708Y002990D01*
X014713Y002946D01*
X014727Y002904D01*
X014751Y002867D01*
X014782Y002836D01*
X015028Y002836D01*
X015027Y002836D02*
X015059Y002867D01*
X015082Y002904D01*
X014727Y002904D01*
X014727Y002906D02*
X015083Y002906D01*
X015082Y002904D02*
X015097Y002946D01*
X015102Y002990D01*
X015102Y002989D02*
X014708Y002989D01*
X014708Y002987D02*
X015101Y002987D01*
X015101Y002984D02*
X014708Y002984D01*
X014709Y002982D02*
X015101Y002982D01*
X015100Y002980D02*
X014709Y002980D01*
X014709Y002977D02*
X015100Y002977D01*
X015100Y002975D02*
X014710Y002975D01*
X014710Y002972D02*
X015100Y002972D01*
X015099Y002970D02*
X014710Y002970D01*
X014710Y002967D02*
X015099Y002967D01*
X015099Y002965D02*
X014711Y002965D01*
X014711Y002963D02*
X015099Y002963D01*
X015098Y002960D02*
X014711Y002960D01*
X014711Y002958D02*
X015098Y002958D01*
X015098Y002955D02*
X014712Y002955D01*
X014712Y002953D02*
X015097Y002953D01*
X015097Y002950D02*
X014712Y002950D01*
X014713Y002948D02*
X015097Y002948D01*
X015097Y002945D02*
X014713Y002945D01*
X014714Y002943D02*
X015096Y002943D01*
X015095Y002941D02*
X014715Y002941D01*
X014715Y002938D02*
X015094Y002938D01*
X015093Y002936D02*
X014716Y002936D01*
X014717Y002933D02*
X015092Y002933D01*
X015091Y002931D02*
X014718Y002931D01*
X014719Y002928D02*
X015091Y002928D01*
X015090Y002926D02*
X014720Y002926D01*
X014721Y002924D02*
X015089Y002924D01*
X015088Y002921D02*
X014721Y002921D01*
X014722Y002919D02*
X015087Y002919D01*
X015086Y002916D02*
X014723Y002916D01*
X014724Y002914D02*
X015085Y002914D01*
X015085Y002911D02*
X014725Y002911D01*
X014726Y002909D02*
X015084Y002909D01*
X015080Y002902D02*
X014729Y002902D01*
X014731Y002899D02*
X015079Y002899D01*
X015077Y002897D02*
X014732Y002897D01*
X014734Y002894D02*
X015076Y002894D01*
X015074Y002892D02*
X014735Y002892D01*
X014737Y002889D02*
X015073Y002889D01*
X015071Y002887D02*
X014738Y002887D01*
X014740Y002885D02*
X015070Y002885D01*
X015068Y002882D02*
X014741Y002882D01*
X014743Y002880D02*
X015067Y002880D01*
X015065Y002877D02*
X014744Y002877D01*
X014746Y002875D02*
X015064Y002875D01*
X015062Y002872D02*
X014747Y002872D01*
X014749Y002870D02*
X015061Y002870D01*
X015059Y002867D02*
X014750Y002867D01*
X014753Y002865D02*
X015057Y002865D01*
X015054Y002863D02*
X014755Y002863D01*
X014758Y002860D02*
X015052Y002860D01*
X015049Y002858D02*
X014760Y002858D01*
X014762Y002855D02*
X015047Y002855D01*
X015045Y002853D02*
X014765Y002853D01*
X014767Y002850D02*
X015042Y002850D01*
X015040Y002848D02*
X014770Y002848D01*
X014772Y002846D02*
X015037Y002846D01*
X015035Y002843D02*
X014775Y002843D01*
X014777Y002841D02*
X015032Y002841D01*
X015030Y002838D02*
X014779Y002838D01*
X014782Y002836D02*
X014819Y002812D01*
X014861Y002798D01*
X014905Y002793D01*
X014949Y002798D01*
X014990Y002812D01*
X015027Y002836D01*
X015024Y002833D02*
X014786Y002833D01*
X014790Y002831D02*
X015020Y002831D01*
X015016Y002828D02*
X014794Y002828D01*
X014797Y002826D02*
X015012Y002826D01*
X015008Y002824D02*
X014801Y002824D01*
X014805Y002821D02*
X015004Y002821D01*
X015000Y002819D02*
X014809Y002819D01*
X014813Y002816D02*
X014997Y002816D01*
X014993Y002814D02*
X014817Y002814D01*
X014822Y002811D02*
X014988Y002811D01*
X014981Y002809D02*
X014829Y002809D01*
X014836Y002807D02*
X014974Y002807D01*
X014967Y002804D02*
X014843Y002804D01*
X014850Y002802D02*
X014960Y002802D01*
X014953Y002799D02*
X014857Y002799D01*
X014869Y002797D02*
X014940Y002797D01*
X014919Y002794D02*
X014891Y002794D01*
X014708Y002992D02*
X015102Y002992D01*
X015102Y002994D02*
X014708Y002994D01*
X014708Y002997D02*
X015102Y002997D01*
X015102Y002999D02*
X014708Y002999D01*
X014708Y003002D02*
X015102Y003002D01*
X015102Y003004D02*
X014708Y003004D01*
X014708Y003006D02*
X015102Y003006D01*
X015102Y003009D02*
X014708Y003009D01*
X014708Y003011D02*
X015102Y003011D01*
X015102Y003014D02*
X014708Y003014D01*
X014708Y003016D02*
X015102Y003016D01*
X015102Y003019D02*
X014708Y003019D01*
X014708Y003021D02*
X015102Y003021D01*
X015102Y003023D02*
X014708Y003023D01*
X014708Y003026D02*
X015102Y003026D01*
X015102Y003028D02*
X014708Y003028D01*
X014708Y003031D02*
X015102Y003031D01*
X015102Y003033D02*
X014708Y003033D01*
X014708Y003036D02*
X015102Y003036D01*
X015102Y003038D02*
X014708Y003038D01*
X014708Y003041D02*
X015102Y003041D01*
X015102Y003043D02*
X014708Y003043D01*
X014708Y003045D02*
X015102Y003045D01*
X015102Y003048D02*
X014708Y003048D01*
X014708Y003050D02*
X015102Y003050D01*
X015102Y003053D02*
X014708Y003053D01*
X014708Y003055D02*
X015102Y003055D01*
X015102Y003058D02*
X014708Y003058D01*
X014708Y003060D02*
X015102Y003060D01*
X015102Y003062D02*
X014708Y003062D01*
X014708Y003065D02*
X015102Y003065D01*
X015102Y003067D02*
X014708Y003067D01*
X014708Y003070D02*
X015102Y003070D01*
X015102Y003072D02*
X014708Y003072D01*
X014708Y003075D02*
X015102Y003075D01*
X015102Y003077D02*
X014708Y003077D01*
X014708Y003079D02*
X015102Y003079D01*
X015102Y003082D02*
X014708Y003082D01*
X014708Y003084D02*
X015102Y003084D01*
X015102Y003087D02*
X014708Y003087D01*
X014708Y003089D02*
X015102Y003089D01*
X015102Y003092D02*
X014708Y003092D01*
X014708Y003094D02*
X015102Y003094D01*
X015102Y003097D02*
X014708Y003097D01*
X014708Y003099D02*
X015102Y003099D01*
X015102Y003101D02*
X014708Y003101D01*
X014708Y003104D02*
X015102Y003104D01*
X015102Y003106D02*
X014708Y003106D01*
X014708Y003109D02*
X015102Y003109D01*
X015102Y003111D02*
X014708Y003111D01*
X014708Y003114D02*
X015102Y003114D01*
X015102Y003116D02*
X014708Y003116D01*
X014708Y003118D02*
X015102Y003118D01*
X015102Y003121D02*
X014708Y003121D01*
X014708Y003123D02*
X015102Y003123D01*
X015102Y003126D02*
X014708Y003126D01*
X014708Y003128D02*
X015102Y003128D01*
X015102Y003131D02*
X014708Y003131D01*
X014708Y003133D02*
X015102Y003133D01*
X015102Y003136D02*
X014708Y003136D01*
X014708Y003138D02*
X015102Y003138D01*
X015102Y003140D02*
X014708Y003140D01*
X014708Y003143D02*
X015102Y003143D01*
X015102Y003145D02*
X014708Y003145D01*
X014708Y003148D02*
X015102Y003148D01*
X015102Y003150D02*
X014708Y003150D01*
X014708Y003153D02*
X015102Y003153D01*
X015102Y003155D02*
X014708Y003155D01*
X014708Y003157D02*
X015102Y003157D01*
X015102Y003160D02*
X014708Y003160D01*
X014708Y003162D02*
X015102Y003162D01*
X015102Y003165D02*
X014708Y003165D01*
X014708Y003167D02*
X015102Y003167D01*
X015102Y003170D02*
X014708Y003170D01*
X014708Y003172D02*
X015102Y003172D01*
X015102Y003175D02*
X014708Y003175D01*
X014708Y003177D02*
X015102Y003177D01*
X015102Y003179D02*
X014708Y003179D01*
X014708Y003182D02*
X015102Y003182D01*
X015102Y003184D02*
X014708Y003184D01*
X014708Y003187D02*
X015102Y003187D01*
X015102Y003189D02*
X014708Y003189D01*
X014708Y003192D02*
X015102Y003192D01*
X015102Y003194D02*
X014708Y003194D01*
X014708Y003196D02*
X015102Y003196D01*
X015102Y003199D02*
X014708Y003199D01*
X014708Y003201D02*
X015102Y003201D01*
X015102Y003204D02*
X014708Y003204D01*
X014708Y003206D02*
X015102Y003206D01*
X015102Y003209D02*
X014708Y003209D01*
X014708Y003211D02*
X015102Y003211D01*
X015102Y003214D02*
X014708Y003214D01*
X014708Y003216D02*
X015102Y003216D01*
X015102Y003218D02*
X014708Y003218D01*
X014708Y003221D02*
X015102Y003221D01*
X015102Y003223D02*
X014708Y003223D01*
X014708Y003226D02*
X015102Y003226D01*
X015102Y003228D02*
X014708Y003228D01*
X014708Y003231D02*
X015102Y003231D01*
X015102Y003233D02*
X014708Y003233D01*
X014708Y003235D02*
X015102Y003235D01*
X015102Y003238D02*
X014708Y003238D01*
X014708Y003240D02*
X015102Y003240D01*
X015102Y003243D02*
X014708Y003243D01*
X014708Y003245D02*
X015102Y003245D01*
X015102Y003248D02*
X014708Y003248D01*
X014708Y003250D02*
X015102Y003250D01*
X015102Y003253D02*
X014708Y003253D01*
X014708Y003255D02*
X015102Y003255D01*
X015102Y003257D02*
X014708Y003257D01*
X014708Y003260D02*
X015102Y003260D01*
X015102Y003262D02*
X014708Y003262D01*
X014708Y003265D02*
X015102Y003265D01*
X015102Y003267D02*
X014708Y003267D01*
X014708Y003270D02*
X015102Y003270D01*
X015102Y003272D02*
X014708Y003272D01*
X014708Y003274D02*
X015102Y003274D01*
X015102Y003277D02*
X014708Y003277D01*
X014708Y003279D02*
X015102Y003279D01*
X015102Y003282D02*
X014708Y003282D01*
X014708Y003284D02*
X015102Y003284D01*
X015102Y003287D02*
X014708Y003287D01*
X014708Y003289D02*
X015102Y003289D01*
X015102Y003292D02*
X014708Y003292D01*
X014708Y003294D02*
X015102Y003294D01*
X015102Y003296D02*
X014708Y003296D01*
X014708Y003299D02*
X015102Y003299D01*
X015102Y003301D02*
X014708Y003301D01*
X014708Y003304D02*
X015102Y003304D01*
X015102Y003306D02*
X014708Y003306D01*
X014708Y003309D02*
X015102Y003309D01*
X015102Y003311D02*
X014708Y003311D01*
X014708Y003313D02*
X015102Y003313D01*
X015102Y003316D02*
X014708Y003316D01*
X014708Y003318D02*
X015102Y003318D01*
X015102Y003321D02*
X014708Y003321D01*
X014708Y003323D02*
X015102Y003323D01*
X015102Y003326D02*
X014708Y003326D01*
X014708Y003328D02*
X015102Y003328D01*
X015102Y003331D02*
X014708Y003331D01*
X014708Y003333D02*
X015102Y003333D01*
X015102Y003335D02*
X014708Y003335D01*
X014708Y003338D02*
X015102Y003338D01*
X015102Y003340D02*
X014708Y003340D01*
X014708Y003343D02*
X015102Y003343D01*
X015102Y003345D02*
X014708Y003345D01*
X014708Y003348D02*
X015102Y003348D01*
X015102Y003350D02*
X014708Y003350D01*
X014708Y003352D02*
X015102Y003352D01*
X015102Y003355D02*
X014708Y003355D01*
X014708Y003357D02*
X015102Y003357D01*
X015102Y003360D02*
X014708Y003360D01*
X014708Y003362D02*
X015102Y003362D01*
X015102Y003365D02*
X014708Y003365D01*
X014708Y003367D02*
X015102Y003367D01*
X015102Y003370D02*
X014708Y003370D01*
X014708Y003372D02*
X015102Y003372D01*
X015102Y003374D02*
X014708Y003374D01*
X014708Y003377D02*
X015102Y003377D01*
X015102Y003379D02*
X014708Y003379D01*
X014708Y003382D02*
X015102Y003382D01*
X015102Y003384D02*
X014708Y003384D01*
X014708Y003387D02*
X015102Y003387D01*
X015102Y003389D02*
X014708Y003389D01*
X014708Y003391D02*
X015102Y003391D01*
X015102Y003394D02*
X014708Y003394D01*
X014708Y003396D02*
X015102Y003396D01*
X015102Y003399D02*
X014708Y003399D01*
X014708Y003401D02*
X015102Y003401D01*
X015102Y003404D02*
X014708Y003404D01*
X014708Y003406D02*
X015102Y003406D01*
X015102Y003409D02*
X014708Y003409D01*
X014708Y003411D02*
X015102Y003411D01*
X015102Y003413D02*
X014708Y003413D01*
X014708Y003416D02*
X015102Y003416D01*
X015102Y003418D02*
X014708Y003418D01*
X014708Y003426D02*
X015101Y003426D01*
X015101Y003428D02*
X014708Y003428D01*
X014709Y003430D02*
X015101Y003430D01*
X015100Y003433D02*
X014709Y003433D01*
X014709Y003435D02*
X015100Y003435D01*
X015100Y003438D02*
X014710Y003438D01*
X014710Y003440D02*
X015100Y003440D01*
X015099Y003443D02*
X014710Y003443D01*
X014710Y003445D02*
X015099Y003445D01*
X015099Y003448D02*
X014711Y003448D01*
X014711Y003450D02*
X015099Y003450D01*
X015098Y003452D02*
X014711Y003452D01*
X014711Y003455D02*
X015098Y003455D01*
X015098Y003457D02*
X014712Y003457D01*
X014712Y003460D02*
X015097Y003460D01*
X015097Y003462D02*
X014712Y003462D01*
X014713Y003465D02*
X015097Y003465D01*
X015096Y003467D02*
X014713Y003467D01*
X014714Y003469D02*
X015096Y003469D01*
X015095Y003472D02*
X014715Y003472D01*
X014716Y003474D02*
X015094Y003474D01*
X015093Y003477D02*
X014716Y003477D01*
X014717Y003479D02*
X015092Y003479D01*
X015091Y003482D02*
X014718Y003482D01*
X014719Y003484D02*
X015090Y003484D01*
X015090Y003487D02*
X014720Y003487D01*
X014721Y003489D02*
X015089Y003489D01*
X015088Y003491D02*
X014722Y003491D01*
X014722Y003494D02*
X015087Y003494D01*
X015086Y003496D02*
X014723Y003496D01*
X014724Y003499D02*
X015085Y003499D01*
X015085Y003501D02*
X014725Y003501D01*
X014726Y003504D02*
X015084Y003504D01*
X015083Y003506D02*
X014727Y003506D01*
X014728Y003508D02*
X015082Y003508D01*
X015080Y003511D02*
X014729Y003511D01*
X014731Y003513D02*
X015079Y003513D01*
X015077Y003516D02*
X014732Y003516D01*
X014734Y003518D02*
X015076Y003518D01*
X015074Y003521D02*
X014735Y003521D01*
X014737Y003523D02*
X015073Y003523D01*
X015071Y003526D02*
X014738Y003526D01*
X014740Y003528D02*
X015070Y003528D01*
X015068Y003530D02*
X014741Y003530D01*
X014743Y003533D02*
X015067Y003533D01*
X015065Y003535D02*
X014744Y003535D01*
X014746Y003538D02*
X015063Y003538D01*
X015062Y003540D02*
X014748Y003540D01*
X014749Y003543D02*
X015060Y003543D01*
X015054Y003550D02*
X014755Y003550D01*
X014758Y003552D02*
X015052Y003552D01*
X015049Y003555D02*
X014760Y003555D01*
X014763Y003557D02*
X015047Y003557D01*
X015044Y003560D02*
X014765Y003560D01*
X014767Y003562D02*
X015042Y003562D01*
X015040Y003565D02*
X014770Y003565D01*
X014772Y003567D02*
X015037Y003567D01*
X015035Y003569D02*
X014775Y003569D01*
X014777Y003572D02*
X015032Y003572D01*
X015030Y003574D02*
X014780Y003574D01*
X014782Y003577D02*
X014819Y003600D01*
X014861Y003615D01*
X014905Y003620D01*
X014949Y003615D01*
X014990Y003600D01*
X015027Y003577D01*
X015023Y003579D02*
X014786Y003579D01*
X014790Y003582D02*
X015020Y003582D01*
X015016Y003584D02*
X014794Y003584D01*
X014798Y003586D02*
X015012Y003586D01*
X015008Y003589D02*
X014802Y003589D01*
X014805Y003591D02*
X015004Y003591D01*
X015000Y003594D02*
X014809Y003594D01*
X014813Y003596D02*
X014996Y003596D01*
X014992Y003599D02*
X014817Y003599D01*
X014822Y003601D02*
X014987Y003601D01*
X014980Y003604D02*
X014829Y003604D01*
X014836Y003606D02*
X014973Y003606D01*
X014966Y003608D02*
X014843Y003608D01*
X014850Y003611D02*
X014959Y003611D01*
X014952Y003613D02*
X014857Y003613D01*
X014871Y003616D02*
X014939Y003616D01*
X014917Y003618D02*
X014892Y003618D01*
X014905Y004564D02*
X014949Y004569D01*
X014990Y004584D01*
X015027Y004607D01*
X015059Y004639D01*
X014750Y004639D01*
X014751Y004639D02*
X014782Y004607D01*
X014819Y004584D01*
X014861Y004569D01*
X014905Y004564D01*
X014889Y004566D02*
X014921Y004566D01*
X014942Y004569D02*
X014867Y004569D01*
X014856Y004571D02*
X014954Y004571D01*
X014960Y004574D02*
X014849Y004574D01*
X014842Y004576D02*
X014967Y004576D01*
X014974Y004578D02*
X014835Y004578D01*
X014828Y004581D02*
X014981Y004581D01*
X014988Y004583D02*
X014821Y004583D01*
X014816Y004586D02*
X014993Y004586D01*
X014997Y004588D02*
X014813Y004588D01*
X014809Y004591D02*
X015001Y004591D01*
X015005Y004593D02*
X014805Y004593D01*
X014801Y004595D02*
X015009Y004595D01*
X015012Y004598D02*
X014797Y004598D01*
X014793Y004600D02*
X015016Y004600D01*
X015020Y004603D02*
X014789Y004603D01*
X014785Y004605D02*
X015024Y004605D01*
X015028Y004608D02*
X014782Y004608D01*
X014779Y004610D02*
X015030Y004610D01*
X015033Y004613D02*
X014777Y004613D01*
X014774Y004615D02*
X015035Y004615D01*
X015038Y004617D02*
X014772Y004617D01*
X014770Y004620D02*
X015040Y004620D01*
X015042Y004622D02*
X014767Y004622D01*
X014765Y004625D02*
X015045Y004625D01*
X015047Y004627D02*
X014762Y004627D01*
X014760Y004630D02*
X015050Y004630D01*
X015052Y004632D02*
X014757Y004632D01*
X014755Y004634D02*
X015055Y004634D01*
X015057Y004637D02*
X014752Y004637D01*
X014751Y004639D02*
X014727Y004676D01*
X015082Y004676D01*
X015097Y004717D01*
X014713Y004717D01*
X014727Y004676D01*
X014726Y004678D02*
X015083Y004678D01*
X015082Y004676D02*
X015059Y004639D01*
X015061Y004642D02*
X014749Y004642D01*
X014747Y004644D02*
X015062Y004644D01*
X015064Y004647D02*
X014746Y004647D01*
X014744Y004649D02*
X015065Y004649D01*
X015067Y004652D02*
X014743Y004652D01*
X014741Y004654D02*
X015068Y004654D01*
X015070Y004656D02*
X014740Y004656D01*
X014738Y004659D02*
X015071Y004659D01*
X015073Y004661D02*
X014737Y004661D01*
X014735Y004664D02*
X015074Y004664D01*
X015076Y004666D02*
X014733Y004666D01*
X014732Y004669D02*
X015078Y004669D01*
X015079Y004671D02*
X014730Y004671D01*
X014729Y004673D02*
X015081Y004673D01*
X015084Y004681D02*
X014726Y004681D01*
X014725Y004683D02*
X015085Y004683D01*
X015086Y004686D02*
X014724Y004686D01*
X014723Y004688D02*
X015086Y004688D01*
X015087Y004691D02*
X014722Y004691D01*
X014721Y004693D02*
X015088Y004693D01*
X015089Y004695D02*
X014721Y004695D01*
X014720Y004698D02*
X015090Y004698D01*
X015091Y004700D02*
X014719Y004700D01*
X014718Y004703D02*
X015091Y004703D01*
X015092Y004705D02*
X014717Y004705D01*
X014716Y004708D02*
X015093Y004708D01*
X015094Y004710D02*
X014715Y004710D01*
X014715Y004712D02*
X015095Y004712D01*
X015096Y004715D02*
X014714Y004715D01*
X014713Y004717D02*
X014708Y004761D01*
X015102Y004761D01*
X015102Y005194D01*
X015097Y005238D01*
X015082Y005280D01*
X015059Y005317D01*
X014751Y005317D01*
X014727Y005280D01*
X014713Y005238D01*
X014708Y005194D01*
X014708Y004761D01*
X014708Y004759D02*
X015101Y004759D01*
X015102Y004761D02*
X015097Y004717D01*
X015097Y004720D02*
X014713Y004720D01*
X014712Y004722D02*
X015097Y004722D01*
X015097Y004725D02*
X014712Y004725D01*
X014712Y004727D02*
X015098Y004727D01*
X015098Y004730D02*
X014711Y004730D01*
X014711Y004732D02*
X015098Y004732D01*
X015099Y004734D02*
X014711Y004734D01*
X014711Y004737D02*
X015099Y004737D01*
X015099Y004739D02*
X014710Y004739D01*
X014710Y004742D02*
X015099Y004742D01*
X015100Y004744D02*
X014710Y004744D01*
X014710Y004747D02*
X015100Y004747D01*
X015100Y004749D02*
X014709Y004749D01*
X014709Y004751D02*
X015100Y004751D01*
X015101Y004754D02*
X014709Y004754D01*
X014708Y004756D02*
X015101Y004756D01*
X015102Y004764D02*
X014708Y004764D01*
X014708Y004766D02*
X015102Y004766D01*
X015102Y004769D02*
X014708Y004769D01*
X014708Y004771D02*
X015102Y004771D01*
X015102Y004773D02*
X014708Y004773D01*
X014708Y004776D02*
X015102Y004776D01*
X015102Y004778D02*
X014708Y004778D01*
X014708Y004781D02*
X015102Y004781D01*
X015102Y004783D02*
X014708Y004783D01*
X014708Y004786D02*
X015102Y004786D01*
X015102Y004788D02*
X014708Y004788D01*
X014708Y004790D02*
X015102Y004790D01*
X015102Y004793D02*
X014708Y004793D01*
X014708Y004795D02*
X015102Y004795D01*
X015102Y004798D02*
X014708Y004798D01*
X014708Y004800D02*
X015102Y004800D01*
X015102Y004803D02*
X014708Y004803D01*
X014708Y004805D02*
X015102Y004805D01*
X015102Y004808D02*
X014708Y004808D01*
X014708Y004810D02*
X015102Y004810D01*
X015102Y004812D02*
X014708Y004812D01*
X014708Y004815D02*
X015102Y004815D01*
X015102Y004817D02*
X014708Y004817D01*
X014708Y004820D02*
X015102Y004820D01*
X015102Y004822D02*
X014708Y004822D01*
X014708Y004825D02*
X015102Y004825D01*
X015102Y004827D02*
X014708Y004827D01*
X014708Y004829D02*
X015102Y004829D01*
X015102Y004832D02*
X014708Y004832D01*
X014708Y004834D02*
X015102Y004834D01*
X015102Y004837D02*
X014708Y004837D01*
X014708Y004839D02*
X015102Y004839D01*
X015102Y004842D02*
X014708Y004842D01*
X014708Y004844D02*
X015102Y004844D01*
X015102Y004847D02*
X014708Y004847D01*
X014708Y004849D02*
X015102Y004849D01*
X015102Y004851D02*
X014708Y004851D01*
X014708Y004854D02*
X015102Y004854D01*
X015102Y004856D02*
X014708Y004856D01*
X014708Y004859D02*
X015102Y004859D01*
X015102Y004861D02*
X014708Y004861D01*
X014708Y004864D02*
X015102Y004864D01*
X015102Y004866D02*
X014708Y004866D01*
X014708Y004868D02*
X015102Y004868D01*
X015102Y004871D02*
X014708Y004871D01*
X014708Y004873D02*
X015102Y004873D01*
X015102Y004876D02*
X014708Y004876D01*
X014708Y004878D02*
X015102Y004878D01*
X015102Y004881D02*
X014708Y004881D01*
X014708Y004883D02*
X015102Y004883D01*
X015102Y004886D02*
X014708Y004886D01*
X014708Y004888D02*
X015102Y004888D01*
X015102Y004890D02*
X014708Y004890D01*
X014708Y004893D02*
X015102Y004893D01*
X015102Y004895D02*
X014708Y004895D01*
X014708Y004898D02*
X015102Y004898D01*
X015102Y004900D02*
X014708Y004900D01*
X014708Y004903D02*
X015102Y004903D01*
X015102Y004905D02*
X014708Y004905D01*
X014708Y004907D02*
X015102Y004907D01*
X015102Y004910D02*
X014708Y004910D01*
X014708Y004912D02*
X015102Y004912D01*
X015102Y004915D02*
X014708Y004915D01*
X014708Y004917D02*
X015102Y004917D01*
X015102Y004920D02*
X014708Y004920D01*
X014708Y004922D02*
X015102Y004922D01*
X015102Y004924D02*
X014708Y004924D01*
X014708Y004927D02*
X015102Y004927D01*
X015102Y004929D02*
X014708Y004929D01*
X014708Y004932D02*
X015102Y004932D01*
X015102Y004934D02*
X014708Y004934D01*
X014708Y004937D02*
X015102Y004937D01*
X015102Y004939D02*
X014708Y004939D01*
X014708Y004942D02*
X015102Y004942D01*
X015102Y004944D02*
X014708Y004944D01*
X014708Y004946D02*
X015102Y004946D01*
X015102Y004949D02*
X014708Y004949D01*
X014708Y004951D02*
X015102Y004951D01*
X015102Y004954D02*
X014708Y004954D01*
X014708Y004956D02*
X015102Y004956D01*
X015102Y004959D02*
X014708Y004959D01*
X014708Y004961D02*
X015102Y004961D01*
X015102Y004963D02*
X014708Y004963D01*
X014708Y004966D02*
X015102Y004966D01*
X015102Y004968D02*
X014708Y004968D01*
X014708Y004971D02*
X015102Y004971D01*
X015102Y004973D02*
X014708Y004973D01*
X014708Y004976D02*
X015102Y004976D01*
X015102Y004978D02*
X014708Y004978D01*
X014708Y004981D02*
X015102Y004981D01*
X015102Y004983D02*
X014708Y004983D01*
X014708Y004985D02*
X015102Y004985D01*
X015102Y004988D02*
X014708Y004988D01*
X014708Y004990D02*
X015102Y004990D01*
X015102Y004993D02*
X014708Y004993D01*
X014708Y004995D02*
X015102Y004995D01*
X015102Y004998D02*
X014708Y004998D01*
X014708Y005000D02*
X015102Y005000D01*
X015102Y005002D02*
X014708Y005002D01*
X014708Y005005D02*
X015102Y005005D01*
X015102Y005007D02*
X014708Y005007D01*
X014708Y005010D02*
X015102Y005010D01*
X015102Y005012D02*
X014708Y005012D01*
X014708Y005015D02*
X015102Y005015D01*
X015102Y005017D02*
X014708Y005017D01*
X014708Y005020D02*
X015102Y005020D01*
X015102Y005022D02*
X014708Y005022D01*
X014708Y005024D02*
X015102Y005024D01*
X015102Y005027D02*
X014708Y005027D01*
X014708Y005029D02*
X015102Y005029D01*
X015102Y005032D02*
X014708Y005032D01*
X014708Y005034D02*
X015102Y005034D01*
X015102Y005037D02*
X014708Y005037D01*
X014708Y005039D02*
X015102Y005039D01*
X015102Y005041D02*
X014708Y005041D01*
X014708Y005044D02*
X015102Y005044D01*
X015102Y005046D02*
X014708Y005046D01*
X014708Y005049D02*
X015102Y005049D01*
X015102Y005051D02*
X014708Y005051D01*
X014708Y005054D02*
X015102Y005054D01*
X015102Y005056D02*
X014708Y005056D01*
X014708Y005059D02*
X015102Y005059D01*
X015102Y005061D02*
X014708Y005061D01*
X014708Y005063D02*
X015102Y005063D01*
X015102Y005066D02*
X014708Y005066D01*
X014708Y005068D02*
X015102Y005068D01*
X015102Y005071D02*
X014708Y005071D01*
X014708Y005073D02*
X015102Y005073D01*
X015102Y005076D02*
X014708Y005076D01*
X014708Y005078D02*
X015102Y005078D01*
X015102Y005080D02*
X014708Y005080D01*
X014708Y005083D02*
X015102Y005083D01*
X015102Y005085D02*
X014708Y005085D01*
X014708Y005088D02*
X015102Y005088D01*
X015102Y005090D02*
X014708Y005090D01*
X014708Y005093D02*
X015102Y005093D01*
X015102Y005095D02*
X014708Y005095D01*
X014708Y005098D02*
X015102Y005098D01*
X015102Y005100D02*
X014708Y005100D01*
X014708Y005102D02*
X015102Y005102D01*
X015102Y005105D02*
X014708Y005105D01*
X014708Y005107D02*
X015102Y005107D01*
X015102Y005110D02*
X014708Y005110D01*
X014708Y005112D02*
X015102Y005112D01*
X015102Y005115D02*
X014708Y005115D01*
X014708Y005117D02*
X015102Y005117D01*
X015102Y005119D02*
X014708Y005119D01*
X014708Y005122D02*
X015102Y005122D01*
X015102Y005124D02*
X014708Y005124D01*
X014708Y005127D02*
X015102Y005127D01*
X015102Y005129D02*
X014708Y005129D01*
X014708Y005132D02*
X015102Y005132D01*
X015102Y005134D02*
X014708Y005134D01*
X014708Y005137D02*
X015102Y005137D01*
X015102Y005139D02*
X014708Y005139D01*
X014708Y005141D02*
X015102Y005141D01*
X015102Y005144D02*
X014708Y005144D01*
X014708Y005146D02*
X015102Y005146D01*
X015102Y005149D02*
X014708Y005149D01*
X014708Y005151D02*
X015102Y005151D01*
X015102Y005154D02*
X014708Y005154D01*
X014708Y005156D02*
X015102Y005156D01*
X015102Y005158D02*
X014708Y005158D01*
X014708Y005161D02*
X015102Y005161D01*
X015102Y005163D02*
X014708Y005163D01*
X014708Y005166D02*
X015102Y005166D01*
X015102Y005168D02*
X014708Y005168D01*
X014708Y005171D02*
X015102Y005171D01*
X015102Y005173D02*
X014708Y005173D01*
X014708Y005176D02*
X015102Y005176D01*
X015102Y005178D02*
X014708Y005178D01*
X014708Y005180D02*
X015102Y005180D01*
X015102Y005183D02*
X014708Y005183D01*
X014708Y005185D02*
X015102Y005185D01*
X015102Y005188D02*
X014708Y005188D01*
X014708Y005190D02*
X015102Y005190D01*
X015102Y005193D02*
X014708Y005193D01*
X014708Y005195D02*
X015101Y005195D01*
X015101Y005197D02*
X014708Y005197D01*
X014709Y005200D02*
X015101Y005200D01*
X015101Y005202D02*
X014709Y005202D01*
X014709Y005205D02*
X015100Y005205D01*
X015100Y005207D02*
X014709Y005207D01*
X014710Y005210D02*
X015100Y005210D01*
X015100Y005212D02*
X014710Y005212D01*
X014710Y005215D02*
X015099Y005215D01*
X015099Y005217D02*
X014710Y005217D01*
X014711Y005219D02*
X015099Y005219D01*
X015098Y005222D02*
X014711Y005222D01*
X014711Y005224D02*
X015098Y005224D01*
X015098Y005227D02*
X014712Y005227D01*
X014712Y005229D02*
X015098Y005229D01*
X015097Y005232D02*
X014712Y005232D01*
X014712Y005234D02*
X015097Y005234D01*
X015097Y005236D02*
X014713Y005236D01*
X014713Y005239D02*
X015096Y005239D01*
X015096Y005241D02*
X014714Y005241D01*
X014715Y005244D02*
X015095Y005244D01*
X015094Y005246D02*
X014716Y005246D01*
X014716Y005249D02*
X015093Y005249D01*
X015092Y005251D02*
X014717Y005251D01*
X014718Y005254D02*
X015091Y005254D01*
X015090Y005256D02*
X014719Y005256D01*
X014720Y005258D02*
X015090Y005258D01*
X015089Y005261D02*
X014721Y005261D01*
X014722Y005263D02*
X015088Y005263D01*
X015087Y005266D02*
X014722Y005266D01*
X014723Y005268D02*
X015086Y005268D01*
X015085Y005271D02*
X014724Y005271D01*
X014725Y005273D02*
X015084Y005273D01*
X015084Y005275D02*
X014726Y005275D01*
X014727Y005278D02*
X015083Y005278D01*
X015082Y005280D02*
X014728Y005280D01*
X014729Y005283D02*
X015080Y005283D01*
X015079Y005285D02*
X014731Y005285D01*
X014732Y005288D02*
X015077Y005288D01*
X015076Y005290D02*
X014734Y005290D01*
X014735Y005293D02*
X015074Y005293D01*
X015073Y005295D02*
X014737Y005295D01*
X014738Y005297D02*
X015071Y005297D01*
X015069Y005300D02*
X014740Y005300D01*
X014742Y005302D02*
X015068Y005302D01*
X015066Y005305D02*
X014743Y005305D01*
X014745Y005307D02*
X015065Y005307D01*
X015063Y005310D02*
X014746Y005310D01*
X014748Y005312D02*
X015062Y005312D01*
X015060Y005314D02*
X014749Y005314D01*
X014751Y005317D02*
X014782Y005348D01*
X014819Y005372D01*
X014861Y005386D01*
X014905Y005391D01*
X014949Y005386D01*
X014990Y005372D01*
X015027Y005348D01*
X015059Y005317D01*
X015056Y005319D02*
X014753Y005319D01*
X014756Y005322D02*
X015054Y005322D01*
X015051Y005324D02*
X014758Y005324D01*
X014760Y005327D02*
X015049Y005327D01*
X015047Y005329D02*
X014763Y005329D01*
X014765Y005332D02*
X015044Y005332D01*
X015042Y005334D02*
X014768Y005334D01*
X014770Y005336D02*
X015039Y005336D01*
X015037Y005339D02*
X014773Y005339D01*
X014775Y005341D02*
X015034Y005341D01*
X015032Y005344D02*
X014777Y005344D01*
X014780Y005346D02*
X015030Y005346D01*
X015027Y005349D02*
X014783Y005349D01*
X014786Y005351D02*
X015023Y005351D01*
X015019Y005353D02*
X014790Y005353D01*
X014794Y005356D02*
X015015Y005356D01*
X015011Y005358D02*
X014798Y005358D01*
X014802Y005361D02*
X015008Y005361D01*
X015004Y005363D02*
X014806Y005363D01*
X014810Y005366D02*
X015000Y005366D01*
X014996Y005368D02*
X014814Y005368D01*
X014817Y005371D02*
X014992Y005371D01*
X014987Y005373D02*
X014823Y005373D01*
X014830Y005375D02*
X014980Y005375D01*
X014973Y005378D02*
X014837Y005378D01*
X014844Y005380D02*
X014966Y005380D01*
X014959Y005383D02*
X014851Y005383D01*
X014858Y005385D02*
X014952Y005385D01*
X014937Y005388D02*
X014873Y005388D01*
X014894Y005390D02*
X014915Y005390D01*
D17*
X023509Y005164D03*
X023509Y005951D03*
X028319Y014167D03*
X029106Y014167D03*
D18*
X029894Y014167D03*
X023509Y004377D03*
D19*
X024297Y006968D02*
X024297Y007285D01*
X024789Y007285D02*
X024789Y006968D01*
X009399Y010881D02*
X009399Y011198D01*
X008906Y011198D02*
X008906Y010881D01*
X007574Y010881D02*
X007574Y011198D01*
X007082Y011198D02*
X007082Y010881D01*
X006590Y010881D02*
X006590Y011198D01*
X006097Y011198D02*
X006097Y010881D01*
X005605Y010881D02*
X005605Y011198D01*
X006469Y004423D02*
X006786Y004423D01*
X006786Y003931D02*
X006469Y003931D01*
D20*
X007062Y004221D02*
X007073Y004232D01*
X007124Y004356D01*
X007124Y004491D01*
X007073Y004615D01*
X006978Y004710D01*
X006853Y004762D01*
X006402Y004762D01*
X006277Y004710D01*
X006263Y004696D01*
X006113Y004845D01*
X006113Y005014D01*
X006047Y005174D01*
X005924Y005297D01*
X005764Y005363D01*
X005591Y005363D01*
X005504Y005327D01*
X005933Y005913D01*
X006328Y006646D01*
X006328Y006646D01*
X006616Y007428D01*
X006616Y007428D01*
X006793Y008242D01*
X006793Y008242D01*
X006821Y008615D01*
X006825Y008625D01*
X006825Y008668D01*
X006827Y008704D01*
X006847Y008752D01*
X006885Y008790D01*
X006933Y008810D01*
X006960Y008812D01*
X009775Y008812D01*
X009695Y008621D01*
X009695Y007492D01*
X009663Y007460D01*
X009605Y007320D01*
X009605Y006769D01*
X009635Y006698D01*
X009611Y006721D01*
X009556Y006758D01*
X009494Y006784D01*
X009428Y006797D01*
X009414Y006797D01*
X009414Y006276D01*
X009735Y006276D01*
X009735Y006490D01*
X009722Y006556D01*
X009711Y006581D01*
X009770Y006522D01*
X009910Y006464D01*
X010061Y006464D01*
X010201Y006522D01*
X010307Y006629D01*
X010365Y006769D01*
X010365Y007320D01*
X010307Y007460D01*
X010275Y007492D01*
X010275Y008485D01*
X010277Y008505D01*
X010292Y008542D01*
X011819Y008542D01*
X011827Y008562D02*
X011737Y008345D01*
X011737Y006306D01*
X011710Y006278D01*
X011653Y006139D01*
X011653Y005588D01*
X011710Y005448D01*
X011817Y005341D01*
X011957Y005283D01*
X012018Y005283D01*
X012007Y005231D01*
X012007Y005016D01*
X012328Y005016D01*
X012328Y004978D01*
X012007Y004978D01*
X012007Y004764D01*
X012018Y004712D01*
X011891Y004765D01*
X011702Y004765D01*
X011527Y004692D01*
X011393Y004558D01*
X011320Y004383D01*
X011320Y004194D01*
X011393Y004019D01*
X011527Y003885D01*
X011702Y003812D01*
X011891Y003812D01*
X012066Y003885D01*
X012200Y004019D01*
X012273Y004194D01*
X012273Y004383D01*
X012234Y004476D01*
X012248Y004470D01*
X012314Y004457D01*
X012328Y004457D01*
X012328Y004978D01*
X012367Y004978D01*
X012367Y004457D01*
X012381Y004457D01*
X012447Y004470D01*
X012509Y004496D01*
X012564Y004533D01*
X012612Y004580D01*
X012637Y004619D01*
X012637Y003667D01*
X011099Y003667D01*
X011116Y003694D01*
X011142Y003756D01*
X011155Y003822D01*
X011155Y003836D01*
X010634Y003836D01*
X010634Y003874D01*
X011155Y003874D01*
X011155Y003889D01*
X011142Y003955D01*
X011116Y004016D01*
X011079Y004072D01*
X011032Y004119D01*
X010976Y004157D01*
X010914Y004182D01*
X010849Y004195D01*
X010634Y004195D01*
X010634Y003874D01*
X010596Y003874D01*
X010596Y003836D01*
X010075Y003836D01*
X010075Y003822D01*
X010088Y003756D01*
X010114Y003694D01*
X010132Y003667D01*
X008248Y003667D01*
X007819Y004096D01*
X007738Y004177D01*
X007631Y004221D01*
X007062Y004221D01*
X007065Y004224D02*
X008761Y004224D01*
X008761Y004194D02*
X008834Y004019D01*
X008967Y003885D01*
X009143Y003812D01*
X009332Y003812D01*
X009507Y003885D01*
X009641Y004019D01*
X009713Y004194D01*
X009713Y004383D01*
X009641Y004558D01*
X009507Y004692D01*
X009332Y004765D01*
X009143Y004765D01*
X008967Y004692D01*
X008834Y004558D01*
X008761Y004383D01*
X008761Y004194D01*
X008781Y004146D02*
X007769Y004146D01*
X007848Y004067D02*
X008813Y004067D01*
X008863Y003989D02*
X007926Y003989D01*
X008005Y003910D02*
X008942Y003910D01*
X009095Y003832D02*
X008083Y003832D01*
X008162Y003753D02*
X010089Y003753D01*
X010075Y003832D02*
X009380Y003832D01*
X009533Y003910D02*
X010079Y003910D01*
X010075Y003889D02*
X010075Y003874D01*
X010596Y003874D01*
X010596Y004195D01*
X010382Y004195D01*
X010316Y004182D01*
X010254Y004157D01*
X010198Y004119D01*
X010151Y004072D01*
X010114Y004016D01*
X010088Y003955D01*
X010075Y003889D01*
X010103Y003989D02*
X009611Y003989D01*
X009661Y004067D02*
X010148Y004067D01*
X010238Y004146D02*
X009694Y004146D01*
X009713Y004224D02*
X011320Y004224D01*
X011320Y004303D02*
X009713Y004303D01*
X009713Y004381D02*
X011320Y004381D01*
X011352Y004460D02*
X009682Y004460D01*
X009649Y004538D02*
X011384Y004538D01*
X011451Y004617D02*
X009582Y004617D01*
X009499Y004695D02*
X011534Y004695D01*
X012007Y004774D02*
X008890Y004774D01*
X008886Y004771D02*
X008942Y004809D01*
X008990Y004856D01*
X009027Y004912D01*
X009052Y004974D01*
X009065Y005039D01*
X009065Y005254D01*
X008744Y005254D01*
X008744Y004733D01*
X008759Y004733D01*
X008825Y004746D01*
X008886Y004771D01*
X008975Y004695D02*
X008102Y004695D01*
X008125Y004718D02*
X007945Y004538D01*
X007710Y004440D01*
X007455Y004440D01*
X007220Y004538D01*
X007040Y004718D01*
X006942Y004953D01*
X006942Y005208D01*
X007040Y005443D01*
X007220Y005623D01*
X007455Y005720D01*
X007710Y005720D01*
X007945Y005623D01*
X008125Y005443D01*
X008222Y005208D01*
X008222Y004953D01*
X008125Y004718D01*
X008148Y004774D02*
X008561Y004774D01*
X008564Y004771D02*
X008626Y004746D01*
X008692Y004733D01*
X008706Y004733D01*
X008706Y005254D01*
X008385Y005254D01*
X008385Y005039D01*
X008398Y004974D01*
X008424Y004912D01*
X008461Y004856D01*
X008509Y004809D01*
X008564Y004771D01*
X008465Y004852D02*
X008180Y004852D01*
X008213Y004931D02*
X008416Y004931D01*
X008391Y005009D02*
X008222Y005009D01*
X008222Y005088D02*
X008385Y005088D01*
X008385Y005166D02*
X008222Y005166D01*
X008207Y005245D02*
X008385Y005245D01*
X008385Y005292D02*
X008706Y005292D01*
X008706Y005254D01*
X008744Y005254D01*
X008744Y005292D01*
X008706Y005292D01*
X008706Y005813D01*
X008692Y005813D01*
X008626Y005800D01*
X008564Y005774D01*
X008509Y005737D01*
X008461Y005689D01*
X008424Y005634D01*
X008398Y005572D01*
X008385Y005506D01*
X008385Y005292D01*
X008385Y005323D02*
X008174Y005323D01*
X008142Y005402D02*
X008385Y005402D01*
X008385Y005480D02*
X008087Y005480D01*
X008009Y005559D02*
X008396Y005559D01*
X008427Y005637D02*
X007910Y005637D01*
X007721Y005716D02*
X008488Y005716D01*
X008614Y005794D02*
X005846Y005794D01*
X005789Y005716D02*
X007444Y005716D01*
X007254Y005637D02*
X005731Y005637D01*
X005674Y005559D02*
X007156Y005559D01*
X007077Y005480D02*
X005616Y005480D01*
X005558Y005402D02*
X007023Y005402D01*
X006990Y005323D02*
X005860Y005323D01*
X005976Y005245D02*
X006958Y005245D01*
X006942Y005166D02*
X006050Y005166D01*
X006083Y005088D02*
X006942Y005088D01*
X006942Y005009D02*
X006113Y005009D01*
X006113Y004931D02*
X006951Y004931D01*
X006984Y004852D02*
X006113Y004852D01*
X006184Y004774D02*
X007016Y004774D01*
X006992Y004695D02*
X007062Y004695D01*
X007071Y004617D02*
X007141Y004617D01*
X007105Y004538D02*
X007219Y004538D01*
X007124Y004460D02*
X007408Y004460D01*
X007124Y004381D02*
X008761Y004381D01*
X008761Y004303D02*
X007102Y004303D01*
X007756Y004460D02*
X008793Y004460D01*
X008825Y004538D02*
X007945Y004538D01*
X008024Y004617D02*
X008892Y004617D01*
X008744Y004774D02*
X008706Y004774D01*
X008706Y004852D02*
X008744Y004852D01*
X008744Y004931D02*
X008706Y004931D01*
X008706Y005009D02*
X008744Y005009D01*
X008744Y005088D02*
X008706Y005088D01*
X008706Y005166D02*
X008744Y005166D01*
X008744Y005245D02*
X008706Y005245D01*
X008744Y005292D02*
X009065Y005292D01*
X009065Y005506D01*
X009052Y005572D01*
X009027Y005634D01*
X008990Y005689D01*
X008942Y005737D01*
X008886Y005774D01*
X008825Y005800D01*
X008759Y005813D01*
X008744Y005813D01*
X008744Y005292D01*
X008744Y005323D02*
X008706Y005323D01*
X008706Y005402D02*
X008744Y005402D01*
X008744Y005480D02*
X008706Y005480D01*
X008706Y005559D02*
X008744Y005559D01*
X008744Y005637D02*
X008706Y005637D01*
X008706Y005716D02*
X008744Y005716D01*
X008744Y005794D02*
X008706Y005794D01*
X008837Y005794D02*
X009176Y005794D01*
X009178Y005793D02*
X009234Y005756D01*
X009296Y005730D01*
X009361Y005717D01*
X009376Y005717D01*
X009376Y006238D01*
X009414Y006238D01*
X009414Y006276D01*
X009376Y006276D01*
X009376Y006797D01*
X009361Y006797D01*
X009296Y006784D01*
X009263Y006770D01*
X009263Y007320D01*
X009205Y007460D01*
X009098Y007566D01*
X008959Y007624D01*
X008807Y007624D01*
X008668Y007566D01*
X008561Y007460D01*
X008503Y007320D01*
X008503Y006769D01*
X008561Y006629D01*
X008668Y006522D01*
X008807Y006464D01*
X008959Y006464D01*
X009058Y006505D01*
X009055Y006490D01*
X009055Y006276D01*
X009376Y006276D01*
X009376Y006238D01*
X009055Y006238D01*
X009055Y006023D01*
X009068Y005958D01*
X009093Y005896D01*
X009131Y005840D01*
X009178Y005793D01*
X009109Y005873D02*
X005904Y005873D01*
X005933Y005913D02*
X005933Y005913D01*
X005954Y005951D02*
X009070Y005951D01*
X009055Y006030D02*
X005996Y006030D01*
X006038Y006108D02*
X009055Y006108D01*
X009055Y006187D02*
X006080Y006187D01*
X006123Y006265D02*
X009376Y006265D01*
X009414Y006265D02*
X011705Y006265D01*
X011672Y006187D02*
X009735Y006187D01*
X009735Y006238D02*
X009414Y006238D01*
X009414Y005717D01*
X009428Y005717D01*
X009494Y005730D01*
X009556Y005756D01*
X009611Y005793D01*
X009659Y005840D01*
X009696Y005896D01*
X009722Y005958D01*
X009735Y006023D01*
X009735Y006238D01*
X009735Y006344D02*
X011737Y006344D01*
X011737Y006422D02*
X009735Y006422D01*
X009733Y006501D02*
X009821Y006501D01*
X009713Y006579D02*
X009712Y006579D01*
X009619Y006736D02*
X009588Y006736D01*
X009605Y006815D02*
X009263Y006815D01*
X009263Y006893D02*
X009605Y006893D01*
X009605Y006972D02*
X009263Y006972D01*
X009263Y007050D02*
X009605Y007050D01*
X009605Y007129D02*
X009263Y007129D01*
X009263Y007207D02*
X009605Y007207D01*
X009605Y007286D02*
X009263Y007286D01*
X009244Y007364D02*
X009624Y007364D01*
X009656Y007443D02*
X009212Y007443D01*
X009143Y007521D02*
X009695Y007521D01*
X009695Y007600D02*
X009017Y007600D01*
X008748Y007600D02*
X006653Y007600D01*
X006636Y007521D02*
X008623Y007521D01*
X008554Y007443D02*
X006619Y007443D01*
X006593Y007364D02*
X008521Y007364D01*
X008503Y007286D02*
X006564Y007286D01*
X006535Y007207D02*
X008503Y007207D01*
X008503Y007129D02*
X006506Y007129D01*
X006477Y007050D02*
X008503Y007050D01*
X008503Y006972D02*
X006448Y006972D01*
X006419Y006893D02*
X008503Y006893D01*
X008503Y006815D02*
X006390Y006815D01*
X006361Y006736D02*
X008516Y006736D01*
X008549Y006658D02*
X006332Y006658D01*
X006291Y006579D02*
X008610Y006579D01*
X008719Y006501D02*
X006249Y006501D01*
X006207Y006422D02*
X009055Y006422D01*
X009055Y006344D02*
X006165Y006344D01*
X006670Y007678D02*
X009695Y007678D01*
X009695Y007757D02*
X006688Y007757D01*
X006705Y007835D02*
X009695Y007835D01*
X009695Y007914D02*
X006722Y007914D01*
X006739Y007992D02*
X009695Y007992D01*
X009695Y008071D02*
X006756Y008071D01*
X006773Y008149D02*
X009695Y008149D01*
X009695Y008228D02*
X006790Y008228D01*
X006798Y008306D02*
X009695Y008306D01*
X009695Y008385D02*
X006804Y008385D01*
X006809Y008463D02*
X009695Y008463D01*
X009695Y008542D02*
X006815Y008542D01*
X006823Y008620D02*
X009695Y008620D01*
X009728Y008699D02*
X006827Y008699D01*
X006872Y008777D02*
X009760Y008777D01*
X010292Y008542D02*
X010321Y008570D01*
X010357Y008585D01*
X010377Y008587D01*
X011853Y008587D01*
X011827Y008562D01*
X011827Y008562D01*
X011787Y008463D02*
X010275Y008463D01*
X010275Y008385D02*
X011754Y008385D01*
X011737Y008306D02*
X010275Y008306D01*
X010275Y008228D02*
X011737Y008228D01*
X011737Y008149D02*
X010275Y008149D01*
X010275Y008071D02*
X011737Y008071D01*
X011737Y007992D02*
X010275Y007992D01*
X010275Y007914D02*
X011737Y007914D01*
X011737Y007835D02*
X010275Y007835D01*
X010275Y007757D02*
X011737Y007757D01*
X011737Y007678D02*
X010275Y007678D01*
X010275Y007600D02*
X011111Y007600D01*
X011170Y007624D02*
X011030Y007566D01*
X010923Y007460D01*
X010865Y007320D01*
X010865Y006769D01*
X010923Y006629D01*
X011030Y006522D01*
X011170Y006464D01*
X011321Y006464D01*
X011460Y006522D01*
X011567Y006629D01*
X011625Y006769D01*
X011625Y007320D01*
X011567Y007460D01*
X011460Y007566D01*
X011321Y007624D01*
X011170Y007624D01*
X011380Y007600D02*
X011737Y007600D01*
X011737Y007521D02*
X011505Y007521D01*
X011574Y007443D02*
X011737Y007443D01*
X011737Y007364D02*
X011607Y007364D01*
X011625Y007286D02*
X011737Y007286D01*
X011737Y007207D02*
X011625Y007207D01*
X011625Y007129D02*
X011737Y007129D01*
X011737Y007050D02*
X011625Y007050D01*
X011625Y006972D02*
X011737Y006972D01*
X011737Y006893D02*
X011625Y006893D01*
X011625Y006815D02*
X011737Y006815D01*
X011737Y006736D02*
X011612Y006736D01*
X011579Y006658D02*
X011737Y006658D01*
X011737Y006579D02*
X011518Y006579D01*
X011409Y006501D02*
X011737Y006501D01*
X012317Y006501D02*
X012637Y006501D01*
X012637Y006579D02*
X012317Y006579D01*
X012317Y006658D02*
X012637Y006658D01*
X012637Y006736D02*
X012317Y006736D01*
X012317Y006815D02*
X012637Y006815D01*
X012637Y006837D02*
X012637Y005375D01*
X012612Y005414D01*
X012564Y005461D01*
X012509Y005498D01*
X012447Y005524D01*
X012391Y005535D01*
X012413Y005588D01*
X012413Y006139D01*
X012355Y006278D01*
X012317Y006316D01*
X012317Y007897D01*
X012414Y007857D01*
X012541Y007857D01*
X012659Y007906D01*
X012680Y007927D01*
X018865Y007927D01*
X018818Y007814D01*
X018818Y007690D01*
X018865Y007576D01*
X018952Y007489D01*
X019066Y007442D01*
X019189Y007442D01*
X019303Y007489D01*
X019391Y007576D01*
X019438Y007690D01*
X019438Y007814D01*
X019391Y007927D01*
X019378Y007940D01*
X019378Y008112D01*
X019306Y008237D01*
X023927Y008237D01*
X023939Y008236D01*
X023961Y008227D01*
X023977Y008211D01*
X023986Y008189D01*
X023987Y008177D01*
X023987Y007421D01*
X023959Y007352D01*
X023959Y006900D01*
X024010Y006776D01*
X024105Y006681D01*
X024230Y006629D01*
X024364Y006629D01*
X024489Y006681D01*
X024543Y006735D01*
X024598Y006681D01*
X024722Y006629D01*
X024857Y006629D01*
X024981Y006681D01*
X025076Y006776D01*
X025128Y006900D01*
X025128Y007352D01*
X025076Y007476D01*
X025067Y007485D01*
X025067Y008535D01*
X024952Y008812D01*
X025310Y008812D01*
X025336Y008810D01*
X025385Y008790D01*
X025422Y008752D01*
X025442Y008704D01*
X025445Y008677D01*
X025445Y005594D01*
X024192Y005594D01*
X023952Y005833D01*
X023964Y005861D01*
X023964Y006042D01*
X023895Y006209D01*
X023767Y006337D01*
X023599Y006406D01*
X023418Y006406D01*
X023251Y006337D01*
X023125Y006211D01*
X022503Y006211D01*
X022345Y006222D01*
X022038Y006304D01*
X021763Y006463D01*
X021539Y006687D01*
X021380Y006962D01*
X021324Y007170D01*
X021370Y007189D01*
X021466Y007285D01*
X021517Y007410D01*
X021517Y007545D01*
X021466Y007670D01*
X021370Y007766D01*
X021245Y007817D01*
X020810Y007817D01*
X020685Y007766D01*
X020589Y007670D01*
X020537Y007545D01*
X020537Y007410D01*
X020589Y007285D01*
X020685Y007189D01*
X020781Y007149D01*
X020886Y006757D01*
X021114Y006361D01*
X021437Y006038D01*
X021833Y005810D01*
X022275Y005691D01*
X023125Y005691D01*
X023251Y005566D01*
X023270Y005558D01*
X023251Y005550D01*
X023123Y005422D01*
X023054Y005255D01*
X023054Y005074D01*
X023123Y004906D01*
X023251Y004778D01*
X023302Y004757D01*
X023094Y004549D01*
X023094Y004415D01*
X023470Y004415D01*
X023470Y004338D01*
X023094Y004338D01*
X023094Y004205D01*
X023337Y003962D01*
X023470Y003962D01*
X023470Y004338D01*
X023548Y004338D01*
X023548Y004415D01*
X023924Y004415D01*
X023924Y004549D01*
X023715Y004757D01*
X023767Y004778D01*
X023895Y004906D01*
X023906Y004934D01*
X025445Y004934D01*
X025445Y003477D01*
X025442Y003451D01*
X025422Y003402D01*
X025385Y003365D01*
X025336Y003345D01*
X025310Y003342D01*
X018940Y003342D01*
X018913Y003345D01*
X018913Y003359D01*
X018921Y003368D01*
X018913Y003433D01*
X018913Y003435D01*
X018923Y003455D01*
X018913Y003483D01*
X018913Y003498D01*
X018906Y003506D01*
X018905Y003507D01*
X018903Y003527D01*
X018906Y003541D01*
X018900Y003551D01*
X018899Y003562D01*
X018887Y003571D01*
X018877Y003588D01*
X018871Y003606D01*
X018871Y003621D01*
X018863Y003629D01*
X018859Y003639D01*
X018846Y003646D01*
X018832Y003660D01*
X018821Y003676D01*
X018818Y003691D01*
X018809Y003697D01*
X018803Y003706D01*
X018788Y003709D01*
X018772Y003720D01*
X018758Y003734D01*
X018751Y003747D01*
X018741Y003751D01*
X018733Y003759D01*
X018718Y003759D01*
X018700Y003765D01*
X018683Y003775D01*
X018674Y003787D01*
X018663Y003788D01*
X018653Y003794D01*
X018639Y003791D01*
X018619Y003793D01*
X018601Y003800D01*
X018589Y003809D01*
X018578Y003808D01*
X018567Y003811D01*
X018554Y003805D01*
X018535Y003803D01*
X018515Y003805D01*
X018502Y003811D01*
X018491Y003808D01*
X018480Y003809D01*
X018469Y003800D01*
X018450Y003793D01*
X018431Y003791D01*
X018416Y003794D01*
X018407Y003788D01*
X018396Y003787D01*
X018386Y003775D01*
X018370Y003765D01*
X018351Y003759D01*
X018337Y003759D01*
X018329Y003751D01*
X018318Y003747D01*
X018312Y003734D01*
X018298Y003720D01*
X018281Y003709D01*
X018267Y003706D01*
X018261Y003697D01*
X018251Y003691D01*
X018248Y003676D01*
X018238Y003660D01*
X018224Y003646D01*
X018210Y003639D01*
X018207Y003629D01*
X018199Y003621D01*
X018199Y003606D01*
X018192Y003588D01*
X018182Y003571D01*
X018170Y003562D01*
X018169Y003551D01*
X018163Y003541D01*
X018166Y003527D01*
X018164Y003507D01*
X018164Y003506D01*
X018156Y003498D01*
X018156Y003483D01*
X018146Y003455D01*
X018156Y003435D01*
X018156Y003433D01*
X018149Y003368D01*
X018156Y003359D01*
X018156Y003345D01*
X018129Y003342D01*
X015310Y003342D01*
X015284Y003345D01*
X015284Y003359D01*
X015291Y003368D01*
X015284Y003433D01*
X015284Y003435D01*
X015293Y003455D01*
X015284Y003483D01*
X015284Y003498D01*
X015276Y003506D01*
X015275Y003507D01*
X015273Y003527D01*
X015276Y003541D01*
X015270Y003551D01*
X015269Y003562D01*
X015257Y003571D01*
X015247Y003588D01*
X015241Y003606D01*
X015241Y003621D01*
X015233Y003629D01*
X015229Y003639D01*
X015216Y003646D01*
X015202Y003660D01*
X015191Y003676D01*
X015188Y003691D01*
X015179Y003697D01*
X015173Y003706D01*
X015158Y003709D01*
X015142Y003720D01*
X015128Y003734D01*
X015121Y003747D01*
X015111Y003751D01*
X015103Y003759D01*
X015088Y003759D01*
X015070Y003765D01*
X015053Y003775D01*
X015044Y003787D01*
X015033Y003788D01*
X015023Y003794D01*
X015009Y003791D01*
X014989Y003793D01*
X014971Y003800D01*
X014959Y003809D01*
X014948Y003808D01*
X014937Y003811D01*
X014924Y003805D01*
X014905Y003803D01*
X014885Y003805D01*
X014872Y003811D01*
X014861Y003808D01*
X014850Y003809D01*
X014839Y003800D01*
X014820Y003793D01*
X014801Y003791D01*
X014786Y003794D01*
X014777Y003788D01*
X014766Y003787D01*
X014756Y003775D01*
X014740Y003765D01*
X014721Y003759D01*
X014707Y003759D01*
X014699Y003751D01*
X014688Y003747D01*
X014682Y003734D01*
X014668Y003720D01*
X014651Y003709D01*
X014637Y003706D01*
X014631Y003697D01*
X014621Y003691D01*
X014618Y003676D01*
X014608Y003660D01*
X014594Y003646D01*
X014581Y003639D01*
X014577Y003629D01*
X014569Y003621D01*
X014569Y003606D01*
X014562Y003588D01*
X014552Y003571D01*
X014540Y003562D01*
X014539Y003551D01*
X014533Y003541D01*
X014536Y003527D01*
X014534Y003507D01*
X014534Y003506D01*
X014526Y003498D01*
X014526Y003483D01*
X014516Y003455D01*
X014526Y003435D01*
X014526Y003433D01*
X014519Y003368D01*
X014526Y003359D01*
X014526Y003345D01*
X014499Y003342D01*
X013144Y003342D01*
X013217Y003520D01*
X013217Y006737D01*
X013245Y006737D01*
X013370Y006789D01*
X013466Y006885D01*
X013517Y007010D01*
X013517Y007145D01*
X013466Y007270D01*
X013370Y007366D01*
X013245Y007417D01*
X012810Y007417D01*
X012685Y007366D01*
X012589Y007270D01*
X012537Y007145D01*
X012537Y007010D01*
X012589Y006885D01*
X012637Y006837D01*
X012586Y006893D02*
X012317Y006893D01*
X012317Y006972D02*
X012553Y006972D01*
X012537Y007050D02*
X012317Y007050D01*
X012317Y007129D02*
X012537Y007129D01*
X012563Y007207D02*
X012317Y007207D01*
X012317Y007286D02*
X012605Y007286D01*
X012684Y007364D02*
X012317Y007364D01*
X012317Y007443D02*
X019064Y007443D01*
X019192Y007443D02*
X020537Y007443D01*
X020537Y007521D02*
X019336Y007521D01*
X019400Y007600D02*
X020560Y007600D01*
X020598Y007678D02*
X019433Y007678D01*
X019438Y007757D02*
X020676Y007757D01*
X020556Y007364D02*
X013371Y007364D01*
X013450Y007286D02*
X020589Y007286D01*
X020667Y007207D02*
X013492Y007207D01*
X013517Y007129D02*
X020786Y007129D01*
X020807Y007050D02*
X013517Y007050D01*
X013502Y006972D02*
X020828Y006972D01*
X020849Y006893D02*
X013469Y006893D01*
X013396Y006815D02*
X020870Y006815D01*
X020886Y006757D02*
X020886Y006757D01*
X020898Y006736D02*
X013217Y006736D01*
X013217Y006658D02*
X020943Y006658D01*
X020988Y006579D02*
X013217Y006579D01*
X013217Y006501D02*
X021034Y006501D01*
X021079Y006422D02*
X013217Y006422D01*
X013217Y006344D02*
X021132Y006344D01*
X021114Y006361D02*
X021114Y006361D01*
X021210Y006265D02*
X013217Y006265D01*
X013217Y006187D02*
X020418Y006187D01*
X020398Y006178D02*
X020275Y006056D01*
X020209Y005896D01*
X020209Y005722D01*
X020275Y005562D01*
X020345Y005492D01*
X020345Y005413D01*
X020390Y005303D01*
X020475Y005218D01*
X020539Y005192D01*
X020529Y005190D01*
X020457Y005160D01*
X020392Y005116D01*
X020337Y005061D01*
X020294Y004996D01*
X020264Y004924D01*
X020249Y004849D01*
X020605Y004849D01*
X020605Y004769D01*
X020685Y004769D01*
X020685Y004849D01*
X021040Y004849D01*
X021025Y004924D01*
X020995Y004996D01*
X020952Y005061D01*
X020897Y005116D01*
X020832Y005160D01*
X020760Y005190D01*
X020750Y005192D01*
X020814Y005218D01*
X020899Y005303D01*
X020945Y005413D01*
X020945Y005492D01*
X021014Y005562D01*
X021080Y005722D01*
X021080Y005896D01*
X021014Y006056D01*
X020891Y006178D01*
X020731Y006245D01*
X020558Y006245D01*
X020398Y006178D01*
X020328Y006108D02*
X013217Y006108D01*
X013217Y006030D02*
X020264Y006030D01*
X020232Y005951D02*
X013217Y005951D01*
X013217Y005873D02*
X020209Y005873D01*
X020209Y005794D02*
X013217Y005794D01*
X013217Y005716D02*
X013749Y005716D01*
X013760Y005720D02*
X013525Y005623D01*
X013345Y005443D01*
X013247Y005208D01*
X013247Y004953D01*
X013345Y004718D01*
X013525Y004538D01*
X013760Y004440D01*
X014015Y004440D01*
X014250Y004538D01*
X014430Y004718D01*
X014526Y004950D01*
X014526Y004825D01*
X014519Y004816D01*
X014526Y004751D01*
X014526Y004749D01*
X014516Y004729D01*
X014526Y004701D01*
X014526Y004686D01*
X014534Y004678D01*
X014534Y004677D01*
X014536Y004657D01*
X014533Y004643D01*
X014539Y004633D01*
X014540Y004622D01*
X014552Y004613D01*
X014562Y004596D01*
X014569Y004578D01*
X014569Y004563D01*
X014577Y004555D01*
X014581Y004545D01*
X014594Y004538D01*
X014608Y004524D01*
X014618Y004508D01*
X014621Y004493D01*
X014631Y004487D01*
X014637Y004478D01*
X014651Y004475D01*
X014668Y004464D01*
X014682Y004450D01*
X014688Y004437D01*
X014699Y004433D01*
X014707Y004425D01*
X014721Y004425D01*
X014740Y004419D01*
X014756Y004408D01*
X014766Y004397D01*
X014777Y004396D01*
X014786Y004390D01*
X014801Y004393D01*
X014820Y004391D01*
X014839Y004384D01*
X014850Y004375D01*
X014861Y004376D01*
X014872Y004373D01*
X014885Y004379D01*
X014905Y004381D01*
X014924Y004379D01*
X014937Y004373D01*
X014948Y004376D01*
X014959Y004375D01*
X014971Y004384D01*
X014989Y004391D01*
X015009Y004393D01*
X015023Y004390D01*
X015033Y004396D01*
X015044Y004397D01*
X015053Y004408D01*
X015070Y004419D01*
X015088Y004425D01*
X015103Y004425D01*
X015111Y004433D01*
X015112Y004434D01*
X015132Y004414D01*
X015281Y004352D01*
X015442Y004352D01*
X015591Y004414D01*
X015705Y004528D01*
X015766Y004677D01*
X015766Y004838D01*
X015705Y004987D01*
X015591Y005101D01*
X015442Y005162D01*
X015288Y005162D01*
X015284Y005205D01*
X015284Y005207D01*
X015293Y005227D01*
X015284Y005255D01*
X015284Y005270D01*
X015276Y005278D01*
X015275Y005279D01*
X015273Y005298D01*
X015276Y005313D01*
X015270Y005322D01*
X015269Y005333D01*
X015257Y005343D01*
X015247Y005359D01*
X015241Y005378D01*
X015241Y005392D01*
X015233Y005400D01*
X015229Y005411D01*
X015216Y005417D01*
X015202Y005431D01*
X015191Y005448D01*
X015188Y005462D01*
X015179Y005468D01*
X015173Y005478D01*
X015158Y005481D01*
X015142Y005491D01*
X015128Y005505D01*
X015121Y005519D01*
X015111Y005522D01*
X015103Y005530D01*
X015088Y005530D01*
X015070Y005537D01*
X015053Y005547D01*
X015044Y005559D01*
X015033Y005560D01*
X015023Y005566D01*
X015009Y005563D01*
X014989Y005565D01*
X014971Y005571D01*
X014959Y005580D01*
X014948Y005579D01*
X014937Y005583D01*
X014924Y005576D01*
X014905Y005574D01*
X014885Y005576D01*
X014872Y005583D01*
X014861Y005579D01*
X014850Y005580D01*
X014839Y005571D01*
X014820Y005565D01*
X014801Y005563D01*
X014786Y005566D01*
X014777Y005560D01*
X014766Y005559D01*
X014756Y005547D01*
X014740Y005537D01*
X014721Y005530D01*
X014707Y005530D01*
X014699Y005522D01*
X014688Y005519D01*
X014682Y005505D01*
X014668Y005491D01*
X014651Y005481D01*
X014637Y005478D01*
X014631Y005468D01*
X014621Y005462D01*
X014618Y005448D01*
X014608Y005431D01*
X014594Y005417D01*
X014581Y005411D01*
X014577Y005400D01*
X014569Y005392D01*
X014569Y005378D01*
X014562Y005359D01*
X014552Y005343D01*
X014540Y005333D01*
X014539Y005322D01*
X014533Y005313D01*
X014536Y005298D01*
X014534Y005279D01*
X014534Y005278D01*
X014526Y005270D01*
X014526Y005255D01*
X014518Y005231D01*
X014430Y005443D01*
X014250Y005623D01*
X014015Y005720D01*
X013760Y005720D01*
X013559Y005637D02*
X013217Y005637D01*
X013217Y005559D02*
X013461Y005559D01*
X013382Y005480D02*
X013217Y005480D01*
X013217Y005402D02*
X013328Y005402D01*
X013295Y005323D02*
X013217Y005323D01*
X013217Y005245D02*
X013263Y005245D01*
X013247Y005166D02*
X013217Y005166D01*
X013217Y005088D02*
X013247Y005088D01*
X013247Y005009D02*
X013217Y005009D01*
X013217Y004931D02*
X013256Y004931D01*
X013289Y004852D02*
X013217Y004852D01*
X013217Y004774D02*
X013321Y004774D01*
X013367Y004695D02*
X013217Y004695D01*
X013217Y004617D02*
X013446Y004617D01*
X013524Y004538D02*
X013217Y004538D01*
X013217Y004460D02*
X013713Y004460D01*
X014061Y004460D02*
X014672Y004460D01*
X014593Y004538D02*
X014250Y004538D01*
X014329Y004617D02*
X014547Y004617D01*
X014526Y004695D02*
X014407Y004695D01*
X014453Y004774D02*
X014523Y004774D01*
X014517Y004727D02*
X014517Y005377D01*
X014539Y005323D02*
X014479Y005323D01*
X014512Y005245D02*
X014522Y005245D01*
X014577Y005402D02*
X014447Y005402D01*
X014392Y005480D02*
X014649Y005480D01*
X014768Y005559D02*
X014314Y005559D01*
X014215Y005637D02*
X020244Y005637D01*
X020278Y005559D02*
X018671Y005559D01*
X018674Y005559D02*
X018663Y005560D01*
X018653Y005566D01*
X018639Y005563D01*
X018619Y005565D01*
X018601Y005571D01*
X018589Y005580D01*
X018578Y005579D01*
X018567Y005583D01*
X018554Y005576D01*
X018535Y005574D01*
X018515Y005576D01*
X018502Y005583D01*
X018491Y005579D01*
X018480Y005580D01*
X018469Y005571D01*
X018450Y005565D01*
X018431Y005563D01*
X018416Y005566D01*
X018407Y005560D01*
X018396Y005559D01*
X018386Y005547D01*
X018370Y005537D01*
X018351Y005530D01*
X018337Y005530D01*
X018329Y005522D01*
X018318Y005519D01*
X018312Y005505D01*
X018298Y005491D01*
X018281Y005481D01*
X018267Y005478D01*
X018261Y005468D01*
X018251Y005462D01*
X018248Y005448D01*
X018238Y005431D01*
X018224Y005417D01*
X018210Y005411D01*
X018207Y005400D01*
X018199Y005392D01*
X018199Y005378D01*
X018192Y005359D01*
X018182Y005343D01*
X018170Y005333D01*
X018169Y005322D01*
X018163Y005313D01*
X018166Y005298D01*
X018164Y005279D01*
X018164Y005278D01*
X018156Y005270D01*
X018156Y005255D01*
X018146Y005227D01*
X018156Y005207D01*
X018156Y005205D01*
X018151Y005162D01*
X017997Y005162D01*
X017849Y005101D01*
X017735Y004987D01*
X017673Y004838D01*
X017673Y004677D01*
X017735Y004528D01*
X017849Y004414D01*
X017997Y004352D01*
X018159Y004352D01*
X018307Y004414D01*
X018327Y004434D01*
X018329Y004433D01*
X018337Y004425D01*
X018351Y004425D01*
X018370Y004419D01*
X018386Y004408D01*
X018396Y004397D01*
X018407Y004396D01*
X018416Y004390D01*
X018431Y004393D01*
X018450Y004391D01*
X018469Y004384D01*
X018480Y004375D01*
X018491Y004376D01*
X018502Y004373D01*
X018515Y004379D01*
X018535Y004381D01*
X018554Y004379D01*
X018567Y004373D01*
X018578Y004376D01*
X018589Y004375D01*
X018601Y004384D01*
X018619Y004391D01*
X018639Y004393D01*
X018653Y004390D01*
X018663Y004396D01*
X018674Y004397D01*
X018683Y004408D01*
X018700Y004419D01*
X018718Y004425D01*
X018733Y004425D01*
X018741Y004433D01*
X018751Y004437D01*
X018758Y004450D01*
X018772Y004464D01*
X018788Y004475D01*
X018803Y004478D01*
X018809Y004487D01*
X018818Y004493D01*
X018821Y004508D01*
X018832Y004524D01*
X018846Y004538D01*
X020355Y004538D01*
X020337Y004557D02*
X020392Y004501D01*
X020457Y004458D01*
X020529Y004428D01*
X020605Y004413D01*
X020605Y004769D01*
X020249Y004769D01*
X020264Y004693D01*
X020294Y004621D01*
X020337Y004557D01*
X020297Y004617D02*
X018892Y004617D01*
X018887Y004613D02*
X018899Y004622D01*
X018900Y004633D01*
X018906Y004643D01*
X018903Y004657D01*
X018905Y004677D01*
X018906Y004678D01*
X018913Y004686D01*
X018913Y004701D01*
X018923Y004729D01*
X018913Y004749D01*
X018913Y004751D01*
X018921Y004816D01*
X018913Y004825D01*
X018913Y005131D01*
X018921Y005140D01*
X018913Y005205D01*
X018913Y005207D01*
X018923Y005227D01*
X018913Y005255D01*
X018913Y005270D01*
X018906Y005278D01*
X018905Y005279D01*
X018903Y005298D01*
X018906Y005313D01*
X018900Y005322D01*
X018899Y005333D01*
X018887Y005343D01*
X018877Y005359D01*
X018871Y005378D01*
X018871Y005392D01*
X018863Y005400D01*
X018859Y005411D01*
X018846Y005417D01*
X018832Y005431D01*
X018821Y005448D01*
X018818Y005462D01*
X018809Y005468D01*
X018803Y005478D01*
X018788Y005481D01*
X018772Y005491D01*
X018758Y005505D01*
X018751Y005519D01*
X018741Y005522D01*
X018733Y005530D01*
X018718Y005530D01*
X018700Y005537D01*
X018683Y005547D01*
X018674Y005559D01*
X018791Y005480D02*
X020345Y005480D01*
X020349Y005402D02*
X018862Y005402D01*
X018900Y005323D02*
X020382Y005323D01*
X020448Y005245D02*
X018917Y005245D01*
X018918Y005166D02*
X020473Y005166D01*
X020364Y005088D02*
X018913Y005088D01*
X018913Y005009D02*
X020302Y005009D01*
X020267Y004931D02*
X018913Y004931D01*
X018913Y004852D02*
X020250Y004852D01*
X020263Y004695D02*
X018913Y004695D01*
X018916Y004774D02*
X020605Y004774D01*
X020605Y004695D02*
X020685Y004695D01*
X020685Y004769D02*
X020685Y004413D01*
X020760Y004428D01*
X020832Y004458D01*
X020897Y004501D01*
X020952Y004557D01*
X020995Y004621D01*
X021025Y004693D01*
X021040Y004769D01*
X020685Y004769D01*
X020685Y004774D02*
X023262Y004774D01*
X023241Y004695D02*
X021026Y004695D01*
X020992Y004617D02*
X023162Y004617D01*
X023094Y004538D02*
X020934Y004538D01*
X020835Y004460D02*
X023094Y004460D01*
X023094Y004303D02*
X017207Y004303D01*
X017207Y004381D02*
X017927Y004381D01*
X017803Y004460D02*
X017207Y004460D01*
X017207Y004483D02*
X017232Y004507D01*
X017277Y004618D01*
X017277Y004737D01*
X017232Y004847D01*
X017147Y004932D01*
X017037Y004977D01*
X016918Y004977D01*
X016807Y004932D01*
X016802Y004927D01*
X016797Y004932D01*
X016687Y004977D01*
X016568Y004977D01*
X016457Y004932D01*
X016373Y004847D01*
X016327Y004737D01*
X016327Y004618D01*
X016373Y004507D01*
X016397Y004483D01*
X016397Y004022D01*
X016373Y003997D01*
X016327Y003887D01*
X016327Y003768D01*
X016373Y003657D01*
X016457Y003573D01*
X016568Y003527D01*
X016687Y003527D01*
X016797Y003573D01*
X016871Y003647D01*
X016918Y003627D01*
X017037Y003627D01*
X017147Y003673D01*
X017232Y003757D01*
X017277Y003868D01*
X017277Y003987D01*
X017232Y004097D01*
X017207Y004122D01*
X017207Y004483D01*
X017245Y004538D02*
X017730Y004538D01*
X017698Y004617D02*
X017277Y004617D01*
X017277Y004695D02*
X017673Y004695D01*
X017673Y004774D02*
X017262Y004774D01*
X017227Y004852D02*
X017679Y004852D01*
X017711Y004931D02*
X017148Y004931D01*
X016807Y004931D02*
X016798Y004931D01*
X016457Y004931D02*
X015728Y004931D01*
X015760Y004852D02*
X016378Y004852D01*
X016343Y004774D02*
X015766Y004774D01*
X015766Y004695D02*
X016327Y004695D01*
X016328Y004617D02*
X015742Y004617D01*
X015709Y004538D02*
X016360Y004538D01*
X016397Y004460D02*
X015637Y004460D01*
X015512Y004381D02*
X016397Y004381D01*
X016397Y004303D02*
X013217Y004303D01*
X013217Y004381D02*
X014842Y004381D01*
X014967Y004381D02*
X015211Y004381D01*
X014526Y004852D02*
X014485Y004852D01*
X014518Y004931D02*
X014526Y004931D01*
X015288Y005166D02*
X018152Y005166D01*
X018152Y005245D02*
X015287Y005245D01*
X015270Y005323D02*
X018169Y005323D01*
X018207Y005402D02*
X015232Y005402D01*
X015161Y005480D02*
X018279Y005480D01*
X018398Y005559D02*
X015041Y005559D01*
X015604Y005088D02*
X017836Y005088D01*
X017757Y005009D02*
X015682Y005009D01*
X016397Y004224D02*
X013217Y004224D01*
X013217Y004146D02*
X016397Y004146D01*
X016397Y004067D02*
X013217Y004067D01*
X013217Y003989D02*
X016370Y003989D01*
X016337Y003910D02*
X013217Y003910D01*
X013217Y003832D02*
X016327Y003832D01*
X016333Y003753D02*
X015108Y003753D01*
X015192Y003675D02*
X016366Y003675D01*
X016434Y003596D02*
X015244Y003596D01*
X015274Y003518D02*
X018165Y003518D01*
X018154Y003439D02*
X015286Y003439D01*
X015285Y003361D02*
X018154Y003361D01*
X018195Y003596D02*
X016821Y003596D01*
X017149Y003675D02*
X018247Y003675D01*
X018331Y003753D02*
X017228Y003753D01*
X017263Y003832D02*
X025445Y003832D01*
X025445Y003910D02*
X017277Y003910D01*
X017277Y003989D02*
X023310Y003989D01*
X023231Y004067D02*
X017244Y004067D01*
X017207Y004146D02*
X023153Y004146D01*
X023094Y004224D02*
X017207Y004224D01*
X018229Y004381D02*
X018472Y004381D01*
X018597Y004381D02*
X023470Y004381D01*
X023548Y004381D02*
X025445Y004381D01*
X025445Y004303D02*
X023924Y004303D01*
X023924Y004338D02*
X023924Y004205D01*
X023681Y003962D01*
X023548Y003962D01*
X023548Y004338D01*
X023924Y004338D01*
X023924Y004224D02*
X025445Y004224D01*
X025445Y004146D02*
X023865Y004146D01*
X023787Y004067D02*
X025445Y004067D01*
X025445Y003989D02*
X023708Y003989D01*
X023548Y003989D02*
X023470Y003989D01*
X023470Y004067D02*
X023548Y004067D01*
X023548Y004146D02*
X023470Y004146D01*
X023470Y004224D02*
X023548Y004224D01*
X023548Y004303D02*
X023470Y004303D01*
X023924Y004460D02*
X025445Y004460D01*
X025445Y004538D02*
X023924Y004538D01*
X023855Y004617D02*
X025445Y004617D01*
X025445Y004695D02*
X023777Y004695D01*
X023756Y004774D02*
X025445Y004774D01*
X025445Y004852D02*
X023841Y004852D01*
X023905Y004931D02*
X025445Y004931D01*
X025445Y005637D02*
X024148Y005637D01*
X024070Y005716D02*
X025445Y005716D01*
X025445Y005794D02*
X023991Y005794D01*
X023964Y005873D02*
X025445Y005873D01*
X025445Y005951D02*
X023964Y005951D01*
X023964Y006030D02*
X025445Y006030D01*
X025445Y006108D02*
X023936Y006108D01*
X023904Y006187D02*
X025445Y006187D01*
X025445Y006265D02*
X023838Y006265D01*
X023750Y006344D02*
X025445Y006344D01*
X025445Y006422D02*
X021833Y006422D01*
X021725Y006501D02*
X025445Y006501D01*
X025445Y006579D02*
X021646Y006579D01*
X021568Y006658D02*
X024161Y006658D01*
X024050Y006736D02*
X021510Y006736D01*
X021465Y006815D02*
X023994Y006815D01*
X023962Y006893D02*
X021420Y006893D01*
X021377Y006972D02*
X023959Y006972D01*
X023959Y007050D02*
X021356Y007050D01*
X021335Y007129D02*
X023959Y007129D01*
X023959Y007207D02*
X021388Y007207D01*
X021466Y007286D02*
X023959Y007286D01*
X023964Y007364D02*
X021499Y007364D01*
X021517Y007443D02*
X023987Y007443D01*
X023987Y007521D02*
X021517Y007521D01*
X021495Y007600D02*
X023987Y007600D01*
X023987Y007678D02*
X021457Y007678D01*
X021379Y007757D02*
X023987Y007757D01*
X023987Y007835D02*
X019429Y007835D01*
X019396Y007914D02*
X023987Y007914D01*
X023987Y007992D02*
X019378Y007992D01*
X019378Y008071D02*
X023987Y008071D01*
X023987Y008149D02*
X019356Y008149D01*
X019311Y008228D02*
X023959Y008228D01*
X025067Y008228D02*
X025445Y008228D01*
X025445Y008306D02*
X025067Y008306D01*
X025067Y008385D02*
X025445Y008385D01*
X025445Y008463D02*
X025067Y008463D01*
X025064Y008542D02*
X025445Y008542D01*
X025445Y008620D02*
X025032Y008620D01*
X024999Y008699D02*
X025443Y008699D01*
X025397Y008777D02*
X024967Y008777D01*
X025067Y008149D02*
X025445Y008149D01*
X025445Y008071D02*
X025067Y008071D01*
X025067Y007992D02*
X025445Y007992D01*
X025445Y007914D02*
X025067Y007914D01*
X025067Y007835D02*
X025445Y007835D01*
X025445Y007757D02*
X025067Y007757D01*
X025067Y007678D02*
X025445Y007678D01*
X025445Y007600D02*
X025067Y007600D01*
X025067Y007521D02*
X025445Y007521D01*
X025445Y007443D02*
X025090Y007443D01*
X025122Y007364D02*
X025445Y007364D01*
X025445Y007286D02*
X025128Y007286D01*
X025128Y007207D02*
X025445Y007207D01*
X025445Y007129D02*
X025128Y007129D01*
X025128Y007050D02*
X025445Y007050D01*
X025445Y006972D02*
X025128Y006972D01*
X025125Y006893D02*
X025445Y006893D01*
X025445Y006815D02*
X025092Y006815D01*
X025037Y006736D02*
X025445Y006736D01*
X025445Y006658D02*
X024926Y006658D01*
X024653Y006658D02*
X024434Y006658D01*
X023268Y006344D02*
X021969Y006344D01*
X022182Y006265D02*
X023179Y006265D01*
X022183Y005716D02*
X021078Y005716D01*
X021080Y005794D02*
X021890Y005794D01*
X021724Y005873D02*
X021080Y005873D01*
X021057Y005951D02*
X021588Y005951D01*
X021452Y006030D02*
X021025Y006030D01*
X020961Y006108D02*
X021367Y006108D01*
X021437Y006038D02*
X021437Y006038D01*
X021289Y006187D02*
X020871Y006187D01*
X020211Y005716D02*
X014026Y005716D01*
X012637Y005716D02*
X012413Y005716D01*
X012413Y005794D02*
X012637Y005794D01*
X012637Y005873D02*
X012413Y005873D01*
X012413Y005951D02*
X012637Y005951D01*
X012637Y006030D02*
X012413Y006030D01*
X012413Y006108D02*
X012637Y006108D01*
X012637Y006187D02*
X012393Y006187D01*
X012360Y006265D02*
X012637Y006265D01*
X012637Y006344D02*
X012317Y006344D01*
X012317Y006422D02*
X012637Y006422D01*
X011653Y006108D02*
X009735Y006108D01*
X009735Y006030D02*
X011653Y006030D01*
X011653Y005951D02*
X009719Y005951D01*
X009681Y005873D02*
X011653Y005873D01*
X011653Y005794D02*
X009613Y005794D01*
X009414Y005794D02*
X009376Y005794D01*
X009376Y005873D02*
X009414Y005873D01*
X009414Y005951D02*
X009376Y005951D01*
X009376Y006030D02*
X009414Y006030D01*
X009414Y006108D02*
X009376Y006108D01*
X009376Y006187D02*
X009414Y006187D01*
X009414Y006344D02*
X009376Y006344D01*
X009376Y006422D02*
X009414Y006422D01*
X009414Y006501D02*
X009376Y006501D01*
X009376Y006579D02*
X009414Y006579D01*
X009414Y006658D02*
X009376Y006658D01*
X009376Y006736D02*
X009414Y006736D01*
X009057Y006501D02*
X009047Y006501D01*
X010149Y006501D02*
X011081Y006501D01*
X010973Y006579D02*
X010258Y006579D01*
X010319Y006658D02*
X010911Y006658D01*
X010879Y006736D02*
X010352Y006736D01*
X010365Y006815D02*
X010865Y006815D01*
X010865Y006893D02*
X010365Y006893D01*
X010365Y006972D02*
X010865Y006972D01*
X010865Y007050D02*
X010365Y007050D01*
X010365Y007129D02*
X010865Y007129D01*
X010865Y007207D02*
X010365Y007207D01*
X010365Y007286D02*
X010865Y007286D01*
X010884Y007364D02*
X010347Y007364D01*
X010314Y007443D02*
X010916Y007443D01*
X010985Y007521D02*
X010275Y007521D01*
X012317Y007521D02*
X018920Y007521D01*
X018855Y007600D02*
X012317Y007600D01*
X012317Y007678D02*
X018823Y007678D01*
X018818Y007757D02*
X012317Y007757D01*
X012317Y007835D02*
X018827Y007835D01*
X018859Y007914D02*
X012666Y007914D01*
X011653Y005716D02*
X008963Y005716D01*
X009024Y005637D02*
X011653Y005637D01*
X011664Y005559D02*
X009055Y005559D01*
X009065Y005480D02*
X011697Y005480D01*
X011756Y005402D02*
X009065Y005402D01*
X009065Y005323D02*
X011860Y005323D01*
X012010Y005245D02*
X009065Y005245D01*
X009065Y005166D02*
X012007Y005166D01*
X012007Y005088D02*
X009065Y005088D01*
X009060Y005009D02*
X012328Y005009D01*
X012328Y004931D02*
X012367Y004931D01*
X012367Y004852D02*
X012328Y004852D01*
X012328Y004774D02*
X012367Y004774D01*
X012367Y004695D02*
X012328Y004695D01*
X012328Y004617D02*
X012367Y004617D01*
X012367Y004538D02*
X012328Y004538D01*
X012328Y004460D02*
X012367Y004460D01*
X012395Y004460D02*
X012637Y004460D01*
X012637Y004538D02*
X012570Y004538D01*
X012636Y004617D02*
X012637Y004617D01*
X012637Y004381D02*
X012273Y004381D01*
X012273Y004303D02*
X012637Y004303D01*
X012637Y004224D02*
X012273Y004224D01*
X012253Y004146D02*
X012637Y004146D01*
X012637Y004067D02*
X012220Y004067D01*
X012170Y003989D02*
X012637Y003989D01*
X012637Y003910D02*
X012092Y003910D01*
X011939Y003832D02*
X012637Y003832D01*
X012637Y003753D02*
X011141Y003753D01*
X011155Y003832D02*
X011654Y003832D01*
X011501Y003910D02*
X011151Y003910D01*
X011128Y003989D02*
X011422Y003989D01*
X011372Y004067D02*
X011082Y004067D01*
X010992Y004146D02*
X011340Y004146D01*
X010634Y004146D02*
X010596Y004146D01*
X010596Y004067D02*
X010634Y004067D01*
X010634Y003989D02*
X010596Y003989D01*
X010596Y003910D02*
X010634Y003910D01*
X011104Y003675D02*
X012637Y003675D01*
X013217Y003675D02*
X014617Y003675D01*
X014565Y003596D02*
X013217Y003596D01*
X013217Y003518D02*
X014535Y003518D01*
X014524Y003439D02*
X013184Y003439D01*
X013152Y003361D02*
X014524Y003361D01*
X014701Y003753D02*
X013217Y003753D01*
X012300Y004460D02*
X012241Y004460D01*
X012007Y004852D02*
X008986Y004852D01*
X009035Y004931D02*
X012007Y004931D01*
X012620Y005402D02*
X012637Y005402D01*
X012637Y005480D02*
X012535Y005480D01*
X012637Y005559D02*
X012401Y005559D01*
X012413Y005637D02*
X012637Y005637D01*
X010127Y003675D02*
X008240Y003675D01*
X003685Y002040D02*
X031744Y002040D01*
X031934Y002119D01*
X032079Y002264D01*
X032157Y002453D01*
X032157Y004934D01*
X032470Y004934D01*
X032775Y005033D01*
X033034Y005221D01*
X033222Y005480D01*
X033222Y005480D01*
X033321Y005785D01*
X033321Y005850D01*
X033321Y005850D01*
X033321Y005945D01*
X033321Y006040D01*
X033321Y006040D01*
X033307Y012242D01*
X033307Y012466D01*
X033169Y012893D01*
X032905Y013255D01*
X032543Y013519D01*
X032543Y013519D01*
X032157Y013644D01*
X032157Y016689D01*
X032079Y016878D01*
X031934Y017023D01*
X031934Y017023D01*
X031744Y017101D01*
X003575Y017101D01*
X003386Y017023D01*
X003241Y016878D01*
X003241Y016878D01*
X003162Y016689D01*
X003162Y002572D01*
X003160Y002564D01*
X003162Y002520D01*
X003162Y002475D01*
X003166Y002467D01*
X003169Y002412D01*
X003256Y002233D01*
X003256Y002233D01*
X003405Y002100D01*
X003593Y002035D01*
X003593Y002035D01*
X003685Y002040D01*
X003405Y002100D02*
X003405Y002100D01*
X003400Y002105D02*
X001192Y002105D01*
X001192Y002183D02*
X001732Y002183D01*
X001865Y002128D02*
X001560Y002255D01*
X001326Y002488D01*
X001200Y002794D01*
X001200Y003124D01*
X001326Y003429D01*
X001560Y003663D01*
X001865Y003789D01*
X002196Y003789D01*
X002501Y003663D01*
X002735Y003429D01*
X002861Y003124D01*
X002861Y002794D01*
X002735Y002488D01*
X002501Y002255D01*
X002196Y002128D01*
X001865Y002128D01*
X001553Y002262D02*
X001192Y002262D01*
X001192Y002340D02*
X001474Y002340D01*
X001396Y002419D02*
X001192Y002419D01*
X001192Y002497D02*
X001323Y002497D01*
X001290Y002576D02*
X001192Y002576D01*
X001192Y002654D02*
X001258Y002654D01*
X001225Y002733D02*
X001192Y002733D01*
X001192Y002811D02*
X001200Y002811D01*
X001192Y002890D02*
X001200Y002890D01*
X001192Y002968D02*
X001200Y002968D01*
X001192Y003047D02*
X001200Y003047D01*
X001192Y003125D02*
X001201Y003125D01*
X001192Y003204D02*
X001233Y003204D01*
X001266Y003282D02*
X001192Y003282D01*
X001192Y003361D02*
X001298Y003361D01*
X001336Y003439D02*
X001192Y003439D01*
X001192Y003518D02*
X001415Y003518D01*
X001493Y003596D02*
X001192Y003596D01*
X001192Y003675D02*
X001589Y003675D01*
X001778Y003753D02*
X001192Y003753D01*
X001192Y003832D02*
X003162Y003832D01*
X003162Y003910D02*
X001192Y003910D01*
X001192Y003989D02*
X003162Y003989D01*
X003162Y004067D02*
X001192Y004067D01*
X001192Y004146D02*
X003162Y004146D01*
X003162Y004224D02*
X001192Y004224D01*
X001192Y004303D02*
X003162Y004303D01*
X003162Y004381D02*
X001192Y004381D01*
X001192Y004460D02*
X003162Y004460D01*
X003162Y004538D02*
X001192Y004538D01*
X001192Y004617D02*
X003162Y004617D01*
X003162Y004695D02*
X001192Y004695D01*
X001192Y004774D02*
X003162Y004774D01*
X003162Y004852D02*
X001192Y004852D01*
X001192Y004931D02*
X003162Y004931D01*
X003162Y005009D02*
X001192Y005009D01*
X001192Y005088D02*
X003162Y005088D01*
X003162Y005166D02*
X001192Y005166D01*
X001192Y005245D02*
X003162Y005245D01*
X003162Y005323D02*
X001192Y005323D01*
X001192Y005402D02*
X003162Y005402D01*
X003162Y005480D02*
X001192Y005480D01*
X001192Y005559D02*
X003162Y005559D01*
X003162Y005637D02*
X001192Y005637D01*
X001192Y005716D02*
X003162Y005716D01*
X003162Y005794D02*
X001192Y005794D01*
X001192Y005873D02*
X003162Y005873D01*
X003162Y005951D02*
X001192Y005951D01*
X001192Y006030D02*
X003162Y006030D01*
X003162Y006108D02*
X001192Y006108D01*
X001192Y006187D02*
X003162Y006187D01*
X003162Y006265D02*
X001192Y006265D01*
X001192Y006344D02*
X003162Y006344D01*
X003162Y006422D02*
X001192Y006422D01*
X001192Y006501D02*
X003162Y006501D01*
X003162Y006579D02*
X001192Y006579D01*
X001192Y006658D02*
X003162Y006658D01*
X003162Y006736D02*
X001192Y006736D01*
X001192Y006815D02*
X003162Y006815D01*
X003162Y006893D02*
X001192Y006893D01*
X001192Y006972D02*
X003162Y006972D01*
X003162Y007050D02*
X001192Y007050D01*
X001192Y007129D02*
X003162Y007129D01*
X003162Y007207D02*
X001192Y007207D01*
X001192Y007286D02*
X003162Y007286D01*
X003162Y007364D02*
X001192Y007364D01*
X001192Y007443D02*
X003162Y007443D01*
X003162Y007521D02*
X001192Y007521D01*
X001192Y007600D02*
X003162Y007600D01*
X003162Y007678D02*
X001192Y007678D01*
X001192Y007757D02*
X003162Y007757D01*
X003162Y007835D02*
X001192Y007835D01*
X001192Y007914D02*
X003162Y007914D01*
X003162Y007992D02*
X001192Y007992D01*
X001192Y008071D02*
X003162Y008071D01*
X003162Y008149D02*
X001192Y008149D01*
X001192Y008228D02*
X003162Y008228D01*
X003162Y008306D02*
X001192Y008306D01*
X001192Y008385D02*
X003162Y008385D01*
X003162Y008463D02*
X001192Y008463D01*
X001192Y008542D02*
X003162Y008542D01*
X003162Y008620D02*
X001192Y008620D01*
X001192Y008699D02*
X003162Y008699D01*
X003162Y008777D02*
X001192Y008777D01*
X001192Y008856D02*
X003162Y008856D01*
X003162Y008934D02*
X001192Y008934D01*
X001192Y009013D02*
X003162Y009013D01*
X003162Y009091D02*
X001192Y009091D01*
X001192Y009170D02*
X003162Y009170D01*
X003162Y009248D02*
X001192Y009248D01*
X001192Y009327D02*
X003162Y009327D01*
X003162Y009405D02*
X001192Y009405D01*
X001192Y009484D02*
X003162Y009484D01*
X003162Y009562D02*
X001192Y009562D01*
X001192Y009641D02*
X003162Y009641D01*
X003162Y009719D02*
X001192Y009719D01*
X001192Y009798D02*
X003162Y009798D01*
X003162Y009876D02*
X001192Y009876D01*
X001192Y009955D02*
X003162Y009955D01*
X003162Y010033D02*
X001192Y010033D01*
X001192Y010112D02*
X003162Y010112D01*
X003162Y010190D02*
X001192Y010190D01*
X001192Y010269D02*
X003162Y010269D01*
X003162Y010347D02*
X001192Y010347D01*
X001192Y010426D02*
X003162Y010426D01*
X003162Y010504D02*
X001192Y010504D01*
X001192Y010583D02*
X003162Y010583D01*
X003162Y010661D02*
X001192Y010661D01*
X001192Y010740D02*
X003162Y010740D01*
X003162Y010818D02*
X001192Y010818D01*
X001192Y010897D02*
X003162Y010897D01*
X003162Y010975D02*
X001192Y010975D01*
X001192Y011054D02*
X003162Y011054D01*
X003162Y011132D02*
X001192Y011132D01*
X001192Y011211D02*
X003162Y011211D01*
X003162Y011289D02*
X001192Y011289D01*
X001192Y011368D02*
X003162Y011368D01*
X003162Y011446D02*
X001192Y011446D01*
X001192Y011525D02*
X003162Y011525D01*
X003162Y011603D02*
X001192Y011603D01*
X001192Y011682D02*
X003162Y011682D01*
X003162Y011760D02*
X001192Y011760D01*
X001192Y011839D02*
X003162Y011839D01*
X003162Y011917D02*
X001192Y011917D01*
X001192Y011996D02*
X003162Y011996D01*
X003162Y012074D02*
X001192Y012074D01*
X001192Y012153D02*
X003162Y012153D01*
X003162Y012231D02*
X001192Y012231D01*
X001192Y012310D02*
X003162Y012310D01*
X003162Y012388D02*
X001192Y012388D01*
X001192Y012467D02*
X003162Y012467D01*
X003162Y012545D02*
X001192Y012545D01*
X001192Y012624D02*
X003162Y012624D01*
X003162Y012702D02*
X001192Y012702D01*
X001192Y012781D02*
X003162Y012781D01*
X003162Y012859D02*
X001192Y012859D01*
X001192Y012938D02*
X003162Y012938D01*
X003162Y013016D02*
X001192Y013016D01*
X001192Y013095D02*
X003162Y013095D01*
X003162Y013173D02*
X001192Y013173D01*
X001192Y013252D02*
X003162Y013252D01*
X003162Y013330D02*
X001192Y013330D01*
X001192Y013409D02*
X003162Y013409D01*
X003162Y013487D02*
X001192Y013487D01*
X001192Y013566D02*
X003162Y013566D01*
X003162Y013644D02*
X001192Y013644D01*
X001192Y013723D02*
X003162Y013723D01*
X003162Y013801D02*
X001192Y013801D01*
X001192Y013880D02*
X003162Y013880D01*
X003162Y013958D02*
X001192Y013958D01*
X001192Y014037D02*
X003162Y014037D01*
X003162Y014115D02*
X001192Y014115D01*
X001192Y014194D02*
X003162Y014194D01*
X003162Y014272D02*
X001192Y014272D01*
X001192Y014351D02*
X003162Y014351D01*
X003162Y014429D02*
X002305Y014429D01*
X002196Y014384D02*
X002501Y014511D01*
X002735Y014744D01*
X002861Y015050D01*
X002861Y015380D01*
X002735Y015685D01*
X002501Y015919D01*
X002196Y016045D01*
X001865Y016045D01*
X001560Y015919D01*
X001326Y015685D01*
X001200Y015380D01*
X001200Y015050D01*
X001326Y014744D01*
X001560Y014511D01*
X001865Y014384D01*
X002196Y014384D01*
X002494Y014508D02*
X003162Y014508D01*
X003162Y014586D02*
X002577Y014586D01*
X002655Y014665D02*
X003162Y014665D01*
X003162Y014743D02*
X002734Y014743D01*
X002767Y014822D02*
X003162Y014822D01*
X003162Y014900D02*
X002799Y014900D01*
X002832Y014979D02*
X003162Y014979D01*
X003162Y015057D02*
X002861Y015057D01*
X002861Y015136D02*
X003162Y015136D01*
X003162Y015214D02*
X002861Y015214D01*
X002861Y015293D02*
X003162Y015293D01*
X003162Y015371D02*
X002861Y015371D01*
X002832Y015450D02*
X003162Y015450D01*
X003162Y015528D02*
X002800Y015528D01*
X002767Y015607D02*
X003162Y015607D01*
X003162Y015685D02*
X002734Y015685D01*
X002656Y015764D02*
X003162Y015764D01*
X003162Y015842D02*
X002577Y015842D01*
X002496Y015921D02*
X003162Y015921D01*
X003162Y015999D02*
X002307Y015999D01*
X001755Y015999D02*
X001192Y015999D01*
X001192Y015921D02*
X001565Y015921D01*
X001484Y015842D02*
X001192Y015842D01*
X001192Y015764D02*
X001405Y015764D01*
X001327Y015685D02*
X001192Y015685D01*
X001192Y015607D02*
X001294Y015607D01*
X001261Y015528D02*
X001192Y015528D01*
X001192Y015450D02*
X001229Y015450D01*
X001200Y015371D02*
X001192Y015371D01*
X001192Y015293D02*
X001200Y015293D01*
X001192Y015214D02*
X001200Y015214D01*
X001192Y015136D02*
X001200Y015136D01*
X001192Y015057D02*
X001200Y015057D01*
X001192Y014979D02*
X001229Y014979D01*
X001262Y014900D02*
X001192Y014900D01*
X001192Y014822D02*
X001294Y014822D01*
X001327Y014743D02*
X001192Y014743D01*
X001192Y014665D02*
X001406Y014665D01*
X001484Y014586D02*
X001192Y014586D01*
X001192Y014508D02*
X001567Y014508D01*
X001756Y014429D02*
X001192Y014429D01*
X001192Y016078D02*
X003162Y016078D01*
X003162Y016156D02*
X001192Y016156D01*
X001192Y016235D02*
X003162Y016235D01*
X003162Y016313D02*
X001192Y016313D01*
X001192Y016392D02*
X003162Y016392D01*
X003162Y016470D02*
X001192Y016470D01*
X001192Y016549D02*
X003162Y016549D01*
X003162Y016627D02*
X001192Y016627D01*
X001192Y016706D02*
X003170Y016706D01*
X003202Y016784D02*
X001192Y016784D01*
X001192Y016863D02*
X003235Y016863D01*
X003304Y016941D02*
X001192Y016941D01*
X001192Y017020D02*
X003383Y017020D01*
X003386Y017023D02*
X003386Y017023D01*
X003569Y017098D02*
X001192Y017098D01*
X001192Y017177D02*
X034127Y017177D01*
X034127Y017255D02*
X001192Y017255D01*
X001192Y017334D02*
X034127Y017334D01*
X034127Y017412D02*
X001192Y017412D01*
X001192Y017491D02*
X034127Y017491D01*
X034127Y017569D02*
X001192Y017569D01*
X001192Y017648D02*
X034127Y017648D01*
X034127Y017726D02*
X001192Y017726D01*
X001192Y017805D02*
X034127Y017805D01*
X034127Y017883D02*
X001192Y017883D01*
X001192Y017896D02*
X001198Y017971D01*
X001245Y018115D01*
X001335Y018238D01*
X001457Y018326D01*
X001601Y018373D01*
X001677Y018379D01*
X001677Y018379D01*
X001730Y018379D01*
X033579Y018379D01*
X033581Y018378D01*
X033632Y018379D01*
X033633Y018379D01*
X033710Y018374D01*
X033856Y018328D01*
X033981Y018239D01*
X034072Y018115D01*
X034120Y017970D01*
X034127Y017894D01*
X034127Y001679D01*
X034120Y001603D01*
X034072Y001457D01*
X033981Y001334D01*
X033856Y001244D01*
X033710Y001198D01*
X033633Y001192D01*
X033632Y001192D01*
X033580Y001193D01*
X033579Y001192D01*
X001677Y001192D01*
X001602Y001198D01*
X001457Y001245D01*
X001334Y001334D01*
X001245Y001457D01*
X001198Y001602D01*
X001192Y001677D01*
X001192Y017896D01*
X001198Y017962D02*
X034121Y017962D01*
X034097Y018040D02*
X001221Y018040D01*
X001248Y018119D02*
X034069Y018119D01*
X034011Y018197D02*
X001305Y018197D01*
X001388Y018276D02*
X033928Y018276D01*
X033770Y018354D02*
X001544Y018354D01*
X001730Y018379D02*
X001730Y018379D01*
X009035Y014895D02*
X009027Y014856D01*
X009027Y013625D01*
X009099Y013697D01*
X009260Y013763D01*
X009433Y013763D01*
X009593Y013697D01*
X009716Y013574D01*
X009782Y013414D01*
X009782Y013241D01*
X009716Y013080D01*
X009593Y012958D01*
X009433Y012891D01*
X009260Y012891D01*
X009099Y012958D01*
X008988Y013069D01*
X008927Y012881D01*
X008927Y012881D01*
X008736Y012619D01*
X008736Y012619D01*
X008736Y012619D01*
X008652Y012557D01*
X010116Y012557D01*
X010116Y012951D01*
X010099Y012958D01*
X009977Y013080D01*
X009910Y013241D01*
X009910Y013414D01*
X009977Y013574D01*
X010099Y013697D01*
X010260Y013763D01*
X010433Y013763D01*
X010593Y013697D01*
X010716Y013574D01*
X010782Y013414D01*
X010782Y013241D01*
X010716Y013080D01*
X010593Y012958D01*
X010576Y012951D01*
X010576Y012426D01*
X010456Y012218D01*
X010456Y012218D01*
X010456Y012218D01*
X010248Y012097D01*
X007207Y012097D01*
X007207Y012072D01*
X007232Y012047D01*
X007277Y011937D01*
X007277Y011818D01*
X007232Y011707D01*
X007147Y011623D01*
X007037Y011577D01*
X006918Y011577D01*
X006877Y011594D01*
X006877Y011472D01*
X006890Y011485D01*
X007014Y011536D01*
X007149Y011536D01*
X007273Y011485D01*
X007356Y011402D01*
X007384Y011429D01*
X007433Y011462D01*
X007487Y011485D01*
X007544Y011496D01*
X007565Y011496D01*
X007565Y011048D01*
X007583Y011048D01*
X007872Y011048D01*
X007872Y011227D01*
X007861Y011285D01*
X007838Y011339D01*
X007806Y011388D01*
X007764Y011429D01*
X007715Y011462D01*
X007661Y011485D01*
X007603Y011496D01*
X007583Y011496D01*
X007583Y011048D01*
X007583Y011030D01*
X007583Y010582D01*
X007603Y010582D01*
X007661Y010594D01*
X007715Y010616D01*
X007764Y010649D01*
X007806Y010691D01*
X007838Y010739D01*
X007861Y010794D01*
X007872Y010851D01*
X007872Y011030D01*
X007583Y011030D01*
X007565Y011030D01*
X007565Y010582D01*
X007544Y010582D01*
X007487Y010594D01*
X007433Y010616D01*
X007384Y010649D01*
X007356Y010677D01*
X007273Y010594D01*
X007149Y010542D01*
X007014Y010542D01*
X006890Y010594D01*
X006836Y010648D01*
X006781Y010594D01*
X006657Y010542D01*
X006522Y010542D01*
X006398Y010594D01*
X006344Y010648D01*
X006289Y010594D01*
X006165Y010542D01*
X006030Y010542D01*
X005906Y010594D01*
X005851Y010648D01*
X005797Y010594D01*
X005673Y010542D01*
X005538Y010542D01*
X005414Y010594D01*
X005318Y010689D01*
X005267Y010813D01*
X005267Y011265D01*
X005318Y011389D01*
X005414Y011485D01*
X005538Y011536D01*
X005673Y011536D01*
X005797Y011485D01*
X005797Y011484D01*
X005797Y012528D01*
X005890Y012814D01*
X005890Y012814D01*
X006061Y013049D01*
X005394Y013049D01*
X005367Y013046D01*
X005319Y013026D01*
X005281Y012989D01*
X005261Y012940D01*
X005259Y012914D01*
X005259Y010564D01*
X005261Y010538D01*
X005281Y010489D01*
X005319Y010452D01*
X005367Y010432D01*
X005394Y010429D01*
X008909Y010429D01*
X008822Y010550D01*
X008715Y010594D01*
X008620Y010689D01*
X008568Y010813D01*
X008568Y011265D01*
X008620Y011389D01*
X008715Y011485D01*
X008839Y011536D01*
X008974Y011536D01*
X009098Y011485D01*
X009152Y011430D01*
X009207Y011485D01*
X009331Y011536D01*
X009466Y011536D01*
X009590Y011485D01*
X009685Y011389D01*
X009737Y011265D01*
X009737Y010844D01*
X009815Y010812D01*
X009860Y010807D01*
X019321Y010807D01*
X019395Y010882D01*
X019505Y010927D01*
X019625Y010927D01*
X019735Y010882D01*
X019809Y010807D01*
X021010Y010807D01*
X021110Y010907D01*
X021403Y010907D01*
X021497Y010909D01*
X021498Y010907D01*
X021500Y010907D01*
X021566Y010841D01*
X021601Y010807D01*
X029856Y010807D01*
X029860Y010808D01*
X029867Y010811D01*
X029873Y010816D01*
X029876Y010823D01*
X029876Y010827D01*
X029876Y012593D01*
X029964Y012806D01*
X029964Y012806D01*
X030128Y012969D01*
X030128Y012969D01*
X030196Y012997D01*
X029163Y012997D01*
X028437Y013724D01*
X028409Y013712D01*
X028228Y013712D01*
X028061Y013782D01*
X027933Y013910D01*
X027864Y014077D01*
X027864Y014258D01*
X027933Y014425D01*
X028019Y014511D01*
X028019Y015409D01*
X028017Y015422D01*
X028007Y015447D01*
X027988Y015466D01*
X027963Y015476D01*
X027950Y015477D01*
X026426Y015477D01*
X026486Y015417D01*
X026486Y015417D01*
X026577Y015197D01*
X026577Y014554D01*
X026634Y014530D01*
X026730Y014434D01*
X026782Y014310D01*
X026782Y014174D01*
X026730Y014049D01*
X026634Y013954D01*
X026510Y013902D01*
X026074Y013902D01*
X025949Y013954D01*
X025854Y014049D01*
X025802Y014174D01*
X025802Y014310D01*
X025854Y014434D01*
X025949Y014530D01*
X025977Y014542D01*
X025977Y015077D01*
X009277Y015077D01*
X009231Y015073D01*
X009145Y015040D01*
X009076Y014977D01*
X009035Y014895D01*
X009038Y014900D02*
X025977Y014900D01*
X025977Y014822D02*
X009027Y014822D01*
X009027Y014743D02*
X025977Y014743D01*
X025977Y014665D02*
X009027Y014665D01*
X009027Y014586D02*
X016296Y014586D01*
X016285Y014582D02*
X016201Y014497D01*
X016155Y014387D01*
X016155Y014268D01*
X016201Y014157D01*
X016285Y014073D01*
X016395Y014027D01*
X016515Y014027D01*
X016625Y014073D01*
X016649Y014097D01*
X019899Y014097D01*
X019911Y014096D01*
X019933Y014086D01*
X019950Y014068D01*
X019958Y014046D01*
X019959Y014035D01*
X019959Y014031D01*
X019956Y013938D01*
X019959Y013936D01*
X019959Y011972D01*
X019935Y011947D01*
X019889Y011837D01*
X019889Y011718D01*
X019935Y011607D01*
X020019Y011523D01*
X020129Y011477D01*
X020249Y011477D01*
X020359Y011523D01*
X020443Y011607D01*
X020489Y011718D01*
X020489Y011837D01*
X020443Y011947D01*
X020419Y011972D01*
X020419Y014024D01*
X020422Y014125D01*
X020348Y014319D01*
X020205Y014470D01*
X020015Y014554D01*
X020003Y014555D01*
X020000Y014557D01*
X019908Y014557D01*
X019816Y014560D01*
X019813Y014557D01*
X016649Y014557D01*
X016625Y014582D01*
X016515Y014627D01*
X016395Y014627D01*
X016285Y014582D01*
X016211Y014508D02*
X009027Y014508D01*
X009027Y014429D02*
X016173Y014429D01*
X016155Y014351D02*
X009027Y014351D01*
X009027Y014272D02*
X016155Y014272D01*
X016186Y014194D02*
X009027Y014194D01*
X009027Y014115D02*
X016243Y014115D01*
X016372Y014037D02*
X009027Y014037D01*
X009027Y013958D02*
X019957Y013958D01*
X019959Y013880D02*
X009027Y013880D01*
X009027Y013801D02*
X017697Y013801D01*
X017676Y013793D02*
X017592Y013708D01*
X017546Y013598D01*
X017546Y013479D01*
X017592Y013368D01*
X017616Y013344D01*
X017616Y012347D01*
X017575Y012347D01*
X017465Y012302D01*
X017381Y012217D01*
X017335Y012107D01*
X017335Y011988D01*
X017381Y011877D01*
X017465Y011793D01*
X017575Y011747D01*
X017695Y011747D01*
X017805Y011793D01*
X017889Y011877D01*
X017899Y011902D01*
X017958Y011936D01*
X018076Y012140D01*
X018076Y012163D01*
X018076Y013344D01*
X018100Y013368D01*
X018146Y013479D01*
X018146Y013598D01*
X018100Y013708D01*
X018016Y013793D01*
X017906Y013838D01*
X017786Y013838D01*
X017676Y013793D01*
X017606Y013723D02*
X011530Y013723D01*
X011593Y013697D02*
X011433Y013763D01*
X011260Y013763D01*
X011099Y013697D01*
X010977Y013574D01*
X010910Y013414D01*
X010910Y013241D01*
X010977Y013080D01*
X011099Y012958D01*
X011116Y012951D01*
X011116Y012412D01*
X011190Y012234D01*
X011190Y012234D01*
X011326Y012098D01*
X011505Y012024D01*
X012483Y012024D01*
X012507Y011999D01*
X012618Y011954D01*
X012737Y011954D01*
X012847Y011999D01*
X012932Y012084D01*
X012977Y012194D01*
X012977Y012313D01*
X012932Y012424D01*
X012847Y012508D01*
X012737Y012554D01*
X012618Y012554D01*
X012507Y012508D01*
X012483Y012484D01*
X011601Y012484D01*
X011596Y012484D01*
X011587Y012488D01*
X011580Y012495D01*
X011577Y012504D01*
X011576Y012509D01*
X011576Y012951D01*
X011593Y012958D01*
X011716Y013080D01*
X011782Y013241D01*
X011782Y013414D01*
X011716Y013574D01*
X011593Y013697D01*
X011646Y013644D02*
X017565Y013644D01*
X017546Y013566D02*
X011719Y013566D01*
X011752Y013487D02*
X017546Y013487D01*
X017575Y013409D02*
X011782Y013409D01*
X011782Y013330D02*
X017616Y013330D01*
X017616Y013252D02*
X011782Y013252D01*
X011754Y013173D02*
X017616Y013173D01*
X017616Y013095D02*
X011722Y013095D01*
X011652Y013016D02*
X017616Y013016D01*
X017616Y012938D02*
X011576Y012938D01*
X011576Y012859D02*
X017616Y012859D01*
X017616Y012781D02*
X011576Y012781D01*
X011576Y012702D02*
X017616Y012702D01*
X017616Y012624D02*
X011576Y012624D01*
X011576Y012545D02*
X012598Y012545D01*
X012757Y012545D02*
X017616Y012545D01*
X017616Y012467D02*
X012888Y012467D01*
X012946Y012388D02*
X017616Y012388D01*
X017485Y012310D02*
X012977Y012310D01*
X012977Y012231D02*
X017395Y012231D01*
X017354Y012153D02*
X012960Y012153D01*
X012922Y012074D02*
X017335Y012074D01*
X017335Y011996D02*
X012839Y011996D01*
X012516Y011996D02*
X007253Y011996D01*
X007277Y011917D02*
X017364Y011917D01*
X017419Y011839D02*
X007277Y011839D01*
X007254Y011760D02*
X017544Y011760D01*
X017726Y011760D02*
X019889Y011760D01*
X019890Y011839D02*
X017851Y011839D01*
X017926Y011917D02*
X019922Y011917D01*
X019959Y011996D02*
X017993Y011996D01*
X017958Y011936D02*
X017958Y011936D01*
X017958Y011936D01*
X018038Y012074D02*
X019959Y012074D01*
X019959Y012153D02*
X018076Y012153D01*
X018076Y012231D02*
X019959Y012231D01*
X019959Y012310D02*
X018076Y012310D01*
X018076Y012388D02*
X019959Y012388D01*
X019959Y012467D02*
X018076Y012467D01*
X018076Y012545D02*
X019959Y012545D01*
X019959Y012624D02*
X018076Y012624D01*
X018076Y012702D02*
X019959Y012702D01*
X019959Y012781D02*
X018076Y012781D01*
X018076Y012859D02*
X019959Y012859D01*
X019959Y012938D02*
X018076Y012938D01*
X018076Y013016D02*
X019959Y013016D01*
X019959Y013095D02*
X018076Y013095D01*
X018076Y013173D02*
X019959Y013173D01*
X019959Y013252D02*
X018076Y013252D01*
X018076Y013330D02*
X019959Y013330D01*
X019959Y013409D02*
X018117Y013409D01*
X018146Y013487D02*
X019959Y013487D01*
X019959Y013566D02*
X018146Y013566D01*
X018127Y013644D02*
X019959Y013644D01*
X019959Y013723D02*
X018086Y013723D01*
X017995Y013801D02*
X019959Y013801D01*
X019959Y014037D02*
X016538Y014037D01*
X016614Y014586D02*
X025977Y014586D01*
X025927Y014508D02*
X020119Y014508D01*
X020205Y014470D02*
X020205Y014470D01*
X020243Y014429D02*
X025852Y014429D01*
X025819Y014351D02*
X020317Y014351D01*
X020348Y014319D02*
X020348Y014319D01*
X020365Y014272D02*
X025802Y014272D01*
X025802Y014194D02*
X020395Y014194D01*
X020422Y014125D02*
X020422Y014125D01*
X020421Y014115D02*
X025826Y014115D01*
X025866Y014037D02*
X020419Y014037D01*
X020419Y013958D02*
X025945Y013958D01*
X026639Y013958D02*
X027913Y013958D01*
X027880Y014037D02*
X026718Y014037D01*
X026758Y014115D02*
X027864Y014115D01*
X027864Y014194D02*
X026782Y014194D01*
X026782Y014272D02*
X027870Y014272D01*
X027902Y014351D02*
X026765Y014351D01*
X026732Y014429D02*
X027937Y014429D01*
X028016Y014508D02*
X026657Y014508D01*
X026577Y014586D02*
X028019Y014586D01*
X028019Y014665D02*
X026577Y014665D01*
X026577Y014743D02*
X028019Y014743D01*
X028019Y014822D02*
X026577Y014822D01*
X026577Y014900D02*
X028019Y014900D01*
X028019Y014979D02*
X026577Y014979D01*
X026577Y015057D02*
X028019Y015057D01*
X028019Y015136D02*
X026577Y015136D01*
X026570Y015214D02*
X028019Y015214D01*
X028019Y015293D02*
X026538Y015293D01*
X026505Y015371D02*
X028019Y015371D01*
X028004Y015450D02*
X026453Y015450D01*
X025977Y015057D02*
X009191Y015057D01*
X009078Y014979D02*
X025977Y014979D01*
X027963Y013880D02*
X020419Y013880D01*
X020419Y013801D02*
X028041Y013801D01*
X028203Y013723D02*
X020419Y013723D01*
X020419Y013644D02*
X028516Y013644D01*
X028595Y013566D02*
X020419Y013566D01*
X020419Y013487D02*
X028673Y013487D01*
X028752Y013409D02*
X020419Y013409D01*
X020419Y013330D02*
X028830Y013330D01*
X028909Y013252D02*
X020419Y013252D01*
X020419Y013173D02*
X028987Y013173D01*
X029066Y013095D02*
X020419Y013095D01*
X020419Y013016D02*
X029144Y013016D01*
X029922Y012702D02*
X020419Y012702D01*
X020419Y012624D02*
X029889Y012624D01*
X029876Y012545D02*
X020419Y012545D01*
X020419Y012467D02*
X029876Y012467D01*
X029876Y012388D02*
X020419Y012388D01*
X020419Y012310D02*
X029876Y012310D01*
X029876Y012231D02*
X020419Y012231D01*
X020419Y012153D02*
X029876Y012153D01*
X029876Y012074D02*
X020419Y012074D01*
X020419Y011996D02*
X029876Y011996D01*
X029876Y011917D02*
X020456Y011917D01*
X020488Y011839D02*
X029876Y011839D01*
X029876Y011760D02*
X020489Y011760D01*
X020474Y011682D02*
X029876Y011682D01*
X029876Y011603D02*
X020439Y011603D01*
X020361Y011525D02*
X029876Y011525D01*
X029876Y011446D02*
X009628Y011446D01*
X009694Y011368D02*
X029876Y011368D01*
X029876Y011289D02*
X009727Y011289D01*
X009737Y011211D02*
X029876Y011211D01*
X029876Y011132D02*
X009737Y011132D01*
X009737Y011054D02*
X029876Y011054D01*
X029876Y010975D02*
X009737Y010975D01*
X009737Y010897D02*
X019432Y010897D01*
X019332Y010818D02*
X009799Y010818D01*
X008854Y010504D02*
X005275Y010504D01*
X005259Y010583D02*
X005440Y010583D01*
X005346Y010661D02*
X005259Y010661D01*
X005259Y010740D02*
X005297Y010740D01*
X005267Y010818D02*
X005259Y010818D01*
X005259Y010897D02*
X005267Y010897D01*
X005259Y010975D02*
X005267Y010975D01*
X005259Y011054D02*
X005267Y011054D01*
X005259Y011132D02*
X005267Y011132D01*
X005259Y011211D02*
X005267Y011211D01*
X005259Y011289D02*
X005277Y011289D01*
X005259Y011368D02*
X005310Y011368D01*
X005259Y011446D02*
X005376Y011446D01*
X005259Y011525D02*
X005511Y011525D01*
X005700Y011525D02*
X005797Y011525D01*
X005797Y011603D02*
X005259Y011603D01*
X005259Y011682D02*
X005797Y011682D01*
X005797Y011760D02*
X005259Y011760D01*
X005259Y011839D02*
X005797Y011839D01*
X005797Y011917D02*
X005259Y011917D01*
X005259Y011996D02*
X005797Y011996D01*
X005797Y012074D02*
X005259Y012074D01*
X005259Y012153D02*
X005797Y012153D01*
X005797Y012231D02*
X005259Y012231D01*
X005259Y012310D02*
X005797Y012310D01*
X005797Y012388D02*
X005259Y012388D01*
X005259Y012467D02*
X005797Y012467D01*
X005803Y012545D02*
X005259Y012545D01*
X005259Y012624D02*
X005829Y012624D01*
X005854Y012702D02*
X005259Y012702D01*
X005259Y012781D02*
X005880Y012781D01*
X005923Y012859D02*
X005259Y012859D01*
X005261Y012938D02*
X005980Y012938D01*
X006038Y013016D02*
X005309Y013016D01*
X007207Y012074D02*
X011382Y012074D01*
X011326Y012098D02*
X011326Y012098D01*
X011271Y012153D02*
X010344Y012153D01*
X010464Y012231D02*
X011193Y012231D01*
X011159Y012310D02*
X010509Y012310D01*
X010555Y012388D02*
X011126Y012388D01*
X011116Y012467D02*
X010576Y012467D01*
X010576Y012545D02*
X011116Y012545D01*
X011116Y012624D02*
X010576Y012624D01*
X010576Y012702D02*
X011116Y012702D01*
X011116Y012781D02*
X010576Y012781D01*
X010576Y012859D02*
X011116Y012859D01*
X011116Y012938D02*
X010576Y012938D01*
X010652Y013016D02*
X011041Y013016D01*
X010971Y013095D02*
X010722Y013095D01*
X010754Y013173D02*
X010938Y013173D01*
X010910Y013252D02*
X010782Y013252D01*
X010782Y013330D02*
X010910Y013330D01*
X010910Y013409D02*
X010782Y013409D01*
X010752Y013487D02*
X010941Y013487D01*
X010973Y013566D02*
X010719Y013566D01*
X010646Y013644D02*
X011047Y013644D01*
X011162Y013723D02*
X010530Y013723D01*
X010162Y013723D02*
X009530Y013723D01*
X009646Y013644D02*
X010047Y013644D01*
X009973Y013566D02*
X009719Y013566D01*
X009752Y013487D02*
X009941Y013487D01*
X009910Y013409D02*
X009782Y013409D01*
X009782Y013330D02*
X009910Y013330D01*
X009910Y013252D02*
X009782Y013252D01*
X009754Y013173D02*
X009938Y013173D01*
X009971Y013095D02*
X009722Y013095D01*
X009652Y013016D02*
X010041Y013016D01*
X010116Y012938D02*
X009545Y012938D01*
X010116Y012859D02*
X008911Y012859D01*
X008945Y012938D02*
X009147Y012938D01*
X009041Y013016D02*
X008971Y013016D01*
X008854Y012781D02*
X010116Y012781D01*
X010116Y012702D02*
X008797Y012702D01*
X008740Y012624D02*
X010116Y012624D01*
X009047Y013644D02*
X009027Y013644D01*
X009027Y013723D02*
X009162Y013723D01*
X007206Y011682D02*
X019904Y011682D01*
X019939Y011603D02*
X007100Y011603D01*
X007176Y011525D02*
X008812Y011525D01*
X008677Y011446D02*
X007739Y011446D01*
X007819Y011368D02*
X008611Y011368D01*
X008578Y011289D02*
X007859Y011289D01*
X007872Y011211D02*
X008568Y011211D01*
X008568Y011132D02*
X007872Y011132D01*
X007872Y011054D02*
X008568Y011054D01*
X008568Y010975D02*
X007872Y010975D01*
X007872Y010897D02*
X008568Y010897D01*
X008568Y010818D02*
X007866Y010818D01*
X007839Y010740D02*
X008598Y010740D01*
X008647Y010661D02*
X007777Y010661D01*
X007606Y010583D02*
X008741Y010583D01*
X007583Y010583D02*
X007565Y010583D01*
X007542Y010583D02*
X007247Y010583D01*
X007341Y010661D02*
X007371Y010661D01*
X007565Y010661D02*
X007583Y010661D01*
X007583Y010740D02*
X007565Y010740D01*
X007565Y010818D02*
X007583Y010818D01*
X007583Y010897D02*
X007565Y010897D01*
X007565Y010975D02*
X007583Y010975D01*
X007583Y011054D02*
X007565Y011054D01*
X007565Y011132D02*
X007583Y011132D01*
X007583Y011211D02*
X007565Y011211D01*
X007565Y011289D02*
X007583Y011289D01*
X007583Y011368D02*
X007565Y011368D01*
X007565Y011446D02*
X007583Y011446D01*
X007409Y011446D02*
X007312Y011446D01*
X006988Y011525D02*
X006877Y011525D01*
X006916Y010583D02*
X006755Y010583D01*
X006424Y010583D02*
X006263Y010583D01*
X005932Y010583D02*
X005771Y010583D01*
X009001Y011525D02*
X009304Y011525D01*
X009169Y011446D02*
X009136Y011446D01*
X009493Y011525D02*
X020017Y011525D01*
X019698Y010897D02*
X021099Y010897D01*
X021021Y010818D02*
X019798Y010818D01*
X021511Y010897D02*
X029876Y010897D01*
X029874Y010818D02*
X021590Y010818D01*
X020419Y012781D02*
X029954Y012781D01*
X030018Y012859D02*
X020419Y012859D01*
X020419Y012938D02*
X030096Y012938D01*
X029941Y013657D02*
X029846Y013752D01*
X029855Y013752D01*
X029855Y014129D01*
X029932Y014129D01*
X029932Y013752D01*
X030065Y013752D01*
X030273Y013960D01*
X030273Y013657D01*
X029941Y013657D01*
X029876Y013723D02*
X030273Y013723D01*
X030273Y013801D02*
X030114Y013801D01*
X030193Y013880D02*
X030273Y013880D01*
X030271Y013958D02*
X030273Y013958D01*
X029932Y013958D02*
X029855Y013958D01*
X029855Y013880D02*
X029932Y013880D01*
X029932Y013801D02*
X029855Y013801D01*
X029855Y014037D02*
X029932Y014037D01*
X029932Y014115D02*
X029855Y014115D01*
X029855Y014206D02*
X029855Y014582D01*
X029722Y014582D01*
X029513Y014374D01*
X029492Y014425D01*
X029364Y014553D01*
X029197Y014622D01*
X029016Y014622D01*
X028848Y014553D01*
X028720Y014425D01*
X028712Y014406D01*
X028704Y014425D01*
X028619Y014511D01*
X028619Y015542D01*
X028517Y015787D01*
X028517Y015787D01*
X028505Y015799D01*
X030273Y015799D01*
X030273Y014374D01*
X030065Y014582D01*
X029932Y014582D01*
X029932Y014206D01*
X029855Y014206D01*
X029855Y014272D02*
X029932Y014272D01*
X029932Y014351D02*
X029855Y014351D01*
X029855Y014429D02*
X029932Y014429D01*
X029932Y014508D02*
X029855Y014508D01*
X029647Y014508D02*
X029409Y014508D01*
X029488Y014429D02*
X029569Y014429D01*
X029283Y014586D02*
X030273Y014586D01*
X030273Y014508D02*
X030140Y014508D01*
X030218Y014429D02*
X030273Y014429D01*
X030273Y014665D02*
X028619Y014665D01*
X028619Y014743D02*
X030273Y014743D01*
X030273Y014822D02*
X028619Y014822D01*
X028619Y014900D02*
X030273Y014900D01*
X030273Y014979D02*
X028619Y014979D01*
X028619Y015057D02*
X030273Y015057D01*
X030273Y015136D02*
X028619Y015136D01*
X028619Y015214D02*
X030273Y015214D01*
X030273Y015293D02*
X028619Y015293D01*
X028619Y015371D02*
X030273Y015371D01*
X030273Y015450D02*
X028619Y015450D01*
X028619Y015528D02*
X030273Y015528D01*
X030273Y015607D02*
X028592Y015607D01*
X028559Y015685D02*
X030273Y015685D01*
X030273Y015764D02*
X028527Y015764D01*
X028619Y014586D02*
X028929Y014586D01*
X028803Y014508D02*
X028622Y014508D01*
X028700Y014429D02*
X028725Y014429D01*
X028438Y013723D02*
X028435Y013723D01*
X032157Y013723D02*
X034127Y013723D01*
X034127Y013801D02*
X032157Y013801D01*
X032157Y013880D02*
X034127Y013880D01*
X034127Y013958D02*
X032157Y013958D01*
X032157Y014037D02*
X034127Y014037D01*
X034127Y014115D02*
X032157Y014115D01*
X032157Y014194D02*
X034127Y014194D01*
X034127Y014272D02*
X032157Y014272D01*
X032157Y014351D02*
X034127Y014351D01*
X034127Y014429D02*
X033552Y014429D01*
X033443Y014384D02*
X033748Y014511D01*
X033982Y014744D01*
X034108Y015050D01*
X034108Y015380D01*
X033982Y015685D01*
X033748Y015919D01*
X033443Y016045D01*
X033113Y016045D01*
X032807Y015919D01*
X032574Y015685D01*
X032447Y015380D01*
X032447Y015050D01*
X032574Y014744D01*
X032807Y014511D01*
X033113Y014384D01*
X033443Y014384D01*
X033742Y014508D02*
X034127Y014508D01*
X034127Y014586D02*
X033824Y014586D01*
X033903Y014665D02*
X034127Y014665D01*
X034127Y014743D02*
X033981Y014743D01*
X034014Y014822D02*
X034127Y014822D01*
X034127Y014900D02*
X034047Y014900D01*
X034079Y014979D02*
X034127Y014979D01*
X034127Y015057D02*
X034108Y015057D01*
X034108Y015136D02*
X034127Y015136D01*
X034127Y015214D02*
X034108Y015214D01*
X034108Y015293D02*
X034127Y015293D01*
X034127Y015371D02*
X034108Y015371D01*
X034127Y015450D02*
X034079Y015450D01*
X034047Y015528D02*
X034127Y015528D01*
X034127Y015607D02*
X034014Y015607D01*
X033982Y015685D02*
X034127Y015685D01*
X034127Y015764D02*
X033903Y015764D01*
X033825Y015842D02*
X034127Y015842D01*
X034127Y015921D02*
X033743Y015921D01*
X033554Y015999D02*
X034127Y015999D01*
X034127Y016078D02*
X032157Y016078D01*
X032157Y016156D02*
X034127Y016156D01*
X034127Y016235D02*
X032157Y016235D01*
X032157Y016313D02*
X034127Y016313D01*
X034127Y016392D02*
X032157Y016392D01*
X032157Y016470D02*
X034127Y016470D01*
X034127Y016549D02*
X032157Y016549D01*
X032157Y016627D02*
X034127Y016627D01*
X034127Y016706D02*
X032150Y016706D01*
X032117Y016784D02*
X034127Y016784D01*
X034127Y016863D02*
X032085Y016863D01*
X032079Y016878D02*
X032079Y016878D01*
X032015Y016941D02*
X034127Y016941D01*
X034127Y017020D02*
X031936Y017020D01*
X031751Y017098D02*
X034127Y017098D01*
X033002Y015999D02*
X032157Y015999D01*
X032157Y015921D02*
X032812Y015921D01*
X032731Y015842D02*
X032157Y015842D01*
X032157Y015764D02*
X032652Y015764D01*
X032574Y015685D02*
X032157Y015685D01*
X032157Y015607D02*
X032541Y015607D01*
X032509Y015528D02*
X032157Y015528D01*
X032157Y015450D02*
X032476Y015450D01*
X032447Y015371D02*
X032157Y015371D01*
X032157Y015293D02*
X032447Y015293D01*
X032447Y015214D02*
X032157Y015214D01*
X032157Y015136D02*
X032447Y015136D01*
X032447Y015057D02*
X032157Y015057D01*
X032157Y014979D02*
X032477Y014979D01*
X032509Y014900D02*
X032157Y014900D01*
X032157Y014822D02*
X032542Y014822D01*
X032575Y014743D02*
X032157Y014743D01*
X032157Y014665D02*
X032653Y014665D01*
X032732Y014586D02*
X032157Y014586D01*
X032157Y014508D02*
X032814Y014508D01*
X033003Y014429D02*
X032157Y014429D01*
X032157Y013644D02*
X034127Y013644D01*
X034127Y013566D02*
X032398Y013566D01*
X032586Y013487D02*
X034127Y013487D01*
X034127Y013409D02*
X032694Y013409D01*
X032802Y013330D02*
X034127Y013330D01*
X034127Y013252D02*
X032908Y013252D01*
X032905Y013255D02*
X032905Y013255D01*
X032905Y013255D01*
X032965Y013173D02*
X034127Y013173D01*
X034127Y013095D02*
X033022Y013095D01*
X033079Y013016D02*
X034127Y013016D01*
X034127Y012938D02*
X033136Y012938D01*
X033169Y012893D02*
X033169Y012893D01*
X033180Y012859D02*
X034127Y012859D01*
X034127Y012781D02*
X033205Y012781D01*
X033231Y012702D02*
X034127Y012702D01*
X034127Y012624D02*
X033256Y012624D01*
X033282Y012545D02*
X034127Y012545D01*
X034127Y012467D02*
X033307Y012467D01*
X033307Y012388D02*
X034127Y012388D01*
X034127Y012310D02*
X033307Y012310D01*
X033307Y012231D02*
X034127Y012231D01*
X034127Y012153D02*
X033308Y012153D01*
X033308Y012074D02*
X034127Y012074D01*
X034127Y011996D02*
X033308Y011996D01*
X033308Y011917D02*
X034127Y011917D01*
X034127Y011839D02*
X033308Y011839D01*
X033308Y011760D02*
X034127Y011760D01*
X034127Y011682D02*
X033309Y011682D01*
X033309Y011603D02*
X034127Y011603D01*
X034127Y011525D02*
X033309Y011525D01*
X033309Y011446D02*
X034127Y011446D01*
X034127Y011368D02*
X033309Y011368D01*
X033309Y011289D02*
X034127Y011289D01*
X034127Y011211D02*
X033310Y011211D01*
X033310Y011132D02*
X034127Y011132D01*
X034127Y011054D02*
X033310Y011054D01*
X033310Y010975D02*
X034127Y010975D01*
X034127Y010897D02*
X033310Y010897D01*
X033310Y010818D02*
X034127Y010818D01*
X034127Y010740D02*
X033311Y010740D01*
X033311Y010661D02*
X034127Y010661D01*
X034127Y010583D02*
X033311Y010583D01*
X033311Y010504D02*
X034127Y010504D01*
X034127Y010426D02*
X033311Y010426D01*
X033311Y010347D02*
X034127Y010347D01*
X034127Y010269D02*
X033312Y010269D01*
X033312Y010190D02*
X034127Y010190D01*
X034127Y010112D02*
X033312Y010112D01*
X033312Y010033D02*
X034127Y010033D01*
X034127Y009955D02*
X033312Y009955D01*
X033312Y009876D02*
X034127Y009876D01*
X034127Y009798D02*
X033313Y009798D01*
X033313Y009719D02*
X034127Y009719D01*
X034127Y009641D02*
X033313Y009641D01*
X033313Y009562D02*
X034127Y009562D01*
X034127Y009484D02*
X033313Y009484D01*
X033313Y009405D02*
X034127Y009405D01*
X034127Y009327D02*
X033314Y009327D01*
X033314Y009248D02*
X034127Y009248D01*
X034127Y009170D02*
X033314Y009170D01*
X033314Y009091D02*
X034127Y009091D01*
X034127Y009013D02*
X033314Y009013D01*
X033314Y008934D02*
X034127Y008934D01*
X034127Y008856D02*
X033315Y008856D01*
X033315Y008777D02*
X034127Y008777D01*
X034127Y008699D02*
X033315Y008699D01*
X033315Y008620D02*
X034127Y008620D01*
X034127Y008542D02*
X033315Y008542D01*
X033315Y008463D02*
X034127Y008463D01*
X034127Y008385D02*
X033316Y008385D01*
X033316Y008306D02*
X034127Y008306D01*
X034127Y008228D02*
X033316Y008228D01*
X033316Y008149D02*
X034127Y008149D01*
X034127Y008071D02*
X033316Y008071D01*
X033316Y007992D02*
X034127Y007992D01*
X034127Y007914D02*
X033317Y007914D01*
X033317Y007835D02*
X034127Y007835D01*
X034127Y007757D02*
X033317Y007757D01*
X033317Y007678D02*
X034127Y007678D01*
X034127Y007600D02*
X033317Y007600D01*
X033317Y007521D02*
X034127Y007521D01*
X034127Y007443D02*
X033318Y007443D01*
X033318Y007364D02*
X034127Y007364D01*
X034127Y007286D02*
X033318Y007286D01*
X033318Y007207D02*
X034127Y007207D01*
X034127Y007129D02*
X033318Y007129D01*
X033318Y007050D02*
X034127Y007050D01*
X034127Y006972D02*
X033319Y006972D01*
X033319Y006893D02*
X034127Y006893D01*
X034127Y006815D02*
X033319Y006815D01*
X033319Y006736D02*
X034127Y006736D01*
X034127Y006658D02*
X033319Y006658D01*
X033319Y006579D02*
X034127Y006579D01*
X034127Y006501D02*
X033320Y006501D01*
X033320Y006422D02*
X034127Y006422D01*
X034127Y006344D02*
X033320Y006344D01*
X033320Y006265D02*
X034127Y006265D01*
X034127Y006187D02*
X033320Y006187D01*
X033320Y006108D02*
X034127Y006108D01*
X034127Y006030D02*
X033321Y006030D01*
X033321Y005951D02*
X034127Y005951D01*
X034127Y005873D02*
X033321Y005873D01*
X033321Y005794D02*
X034127Y005794D01*
X034127Y005716D02*
X033298Y005716D01*
X033273Y005637D02*
X034127Y005637D01*
X034127Y005559D02*
X033247Y005559D01*
X033222Y005480D02*
X034127Y005480D01*
X034127Y005402D02*
X033165Y005402D01*
X033108Y005323D02*
X034127Y005323D01*
X034127Y005245D02*
X033051Y005245D01*
X033034Y005221D02*
X033034Y005221D01*
X033034Y005221D01*
X032958Y005166D02*
X034127Y005166D01*
X034127Y005088D02*
X032850Y005088D01*
X032775Y005033D02*
X032775Y005033D01*
X032702Y005009D02*
X034127Y005009D01*
X034127Y004931D02*
X032157Y004931D01*
X032157Y004852D02*
X034127Y004852D01*
X034127Y004774D02*
X032157Y004774D01*
X032157Y004695D02*
X034127Y004695D01*
X034127Y004617D02*
X032157Y004617D01*
X032157Y004538D02*
X034127Y004538D01*
X034127Y004460D02*
X032157Y004460D01*
X032157Y004381D02*
X034127Y004381D01*
X034127Y004303D02*
X032157Y004303D01*
X032157Y004224D02*
X034127Y004224D01*
X034127Y004146D02*
X032157Y004146D01*
X032157Y004067D02*
X034127Y004067D01*
X034127Y003989D02*
X032157Y003989D01*
X032157Y003910D02*
X034127Y003910D01*
X034127Y003832D02*
X032157Y003832D01*
X032157Y003753D02*
X033026Y003753D01*
X033113Y003789D02*
X032807Y003663D01*
X032574Y003429D01*
X032447Y003124D01*
X032447Y002794D01*
X032574Y002488D01*
X032807Y002255D01*
X033113Y002128D01*
X033443Y002128D01*
X033748Y002255D01*
X033982Y002488D01*
X034108Y002794D01*
X034108Y003124D01*
X033982Y003429D01*
X033748Y003663D01*
X033443Y003789D01*
X033113Y003789D01*
X032836Y003675D02*
X032157Y003675D01*
X032157Y003596D02*
X032741Y003596D01*
X032662Y003518D02*
X032157Y003518D01*
X032157Y003439D02*
X032584Y003439D01*
X032545Y003361D02*
X032157Y003361D01*
X032157Y003282D02*
X032513Y003282D01*
X032480Y003204D02*
X032157Y003204D01*
X032157Y003125D02*
X032448Y003125D01*
X032447Y003047D02*
X032157Y003047D01*
X032157Y002968D02*
X032447Y002968D01*
X032447Y002890D02*
X032157Y002890D01*
X032157Y002811D02*
X032447Y002811D01*
X032472Y002733D02*
X032157Y002733D01*
X032157Y002654D02*
X032505Y002654D01*
X032537Y002576D02*
X032157Y002576D01*
X032157Y002497D02*
X032570Y002497D01*
X032643Y002419D02*
X032143Y002419D01*
X032110Y002340D02*
X032722Y002340D01*
X032800Y002262D02*
X032077Y002262D01*
X032079Y002264D02*
X032079Y002264D01*
X031998Y002183D02*
X032980Y002183D01*
X033576Y002183D02*
X034127Y002183D01*
X034127Y002105D02*
X031900Y002105D01*
X031934Y002119D02*
X031934Y002119D01*
X033755Y002262D02*
X034127Y002262D01*
X034127Y002340D02*
X033834Y002340D01*
X033912Y002419D02*
X034127Y002419D01*
X034127Y002497D02*
X033986Y002497D01*
X034018Y002576D02*
X034127Y002576D01*
X034127Y002654D02*
X034051Y002654D01*
X034083Y002733D02*
X034127Y002733D01*
X034127Y002811D02*
X034108Y002811D01*
X034108Y002890D02*
X034127Y002890D01*
X034127Y002968D02*
X034108Y002968D01*
X034108Y003047D02*
X034127Y003047D01*
X034127Y003125D02*
X034108Y003125D01*
X034127Y003204D02*
X034075Y003204D01*
X034043Y003282D02*
X034127Y003282D01*
X034127Y003361D02*
X034010Y003361D01*
X033972Y003439D02*
X034127Y003439D01*
X034127Y003518D02*
X033893Y003518D01*
X033815Y003596D02*
X034127Y003596D01*
X034127Y003675D02*
X033720Y003675D01*
X033530Y003753D02*
X034127Y003753D01*
X034127Y002026D02*
X001192Y002026D01*
X001192Y001948D02*
X034127Y001948D01*
X034127Y001869D02*
X001192Y001869D01*
X001192Y001791D02*
X034127Y001791D01*
X034127Y001712D02*
X001192Y001712D01*
X001196Y001634D02*
X034123Y001634D01*
X034105Y001555D02*
X001213Y001555D01*
X001239Y001477D02*
X034079Y001477D01*
X034029Y001398D02*
X001288Y001398D01*
X001354Y001320D02*
X033962Y001320D01*
X033847Y001241D02*
X001469Y001241D01*
X002329Y002183D02*
X003311Y002183D01*
X003242Y002262D02*
X002508Y002262D01*
X002587Y002340D02*
X003204Y002340D01*
X003169Y002412D02*
X003169Y002412D01*
X003168Y002419D02*
X002665Y002419D01*
X002738Y002497D02*
X003162Y002497D01*
X003162Y002576D02*
X002771Y002576D01*
X002803Y002654D02*
X003162Y002654D01*
X003162Y002733D02*
X002836Y002733D01*
X002861Y002811D02*
X003162Y002811D01*
X003162Y002890D02*
X002861Y002890D01*
X002861Y002968D02*
X003162Y002968D01*
X003162Y003047D02*
X002861Y003047D01*
X002861Y003125D02*
X003162Y003125D01*
X003162Y003204D02*
X002828Y003204D01*
X002796Y003282D02*
X003162Y003282D01*
X003162Y003361D02*
X002763Y003361D01*
X002725Y003439D02*
X003162Y003439D01*
X003162Y003518D02*
X002646Y003518D01*
X002568Y003596D02*
X003162Y003596D01*
X003162Y003675D02*
X002472Y003675D01*
X002283Y003753D02*
X003162Y003753D01*
X018738Y003753D02*
X025445Y003753D01*
X025445Y003675D02*
X018822Y003675D01*
X018874Y003596D02*
X025445Y003596D01*
X025445Y003518D02*
X018904Y003518D01*
X018915Y003439D02*
X025437Y003439D01*
X025374Y003361D02*
X018915Y003361D01*
X018767Y004460D02*
X020454Y004460D01*
X020605Y004460D02*
X020685Y004460D01*
X020685Y004538D02*
X020605Y004538D01*
X020605Y004617D02*
X020685Y004617D01*
X021040Y004852D02*
X023177Y004852D01*
X023113Y004931D02*
X021023Y004931D01*
X020987Y005009D02*
X023080Y005009D01*
X023054Y005088D02*
X020925Y005088D01*
X020816Y005166D02*
X023054Y005166D01*
X023054Y005245D02*
X020841Y005245D01*
X020907Y005323D02*
X023082Y005323D01*
X023115Y005402D02*
X020940Y005402D01*
X020945Y005480D02*
X023182Y005480D01*
X023268Y005559D02*
X021011Y005559D01*
X021045Y005637D02*
X023179Y005637D01*
X018887Y004613D02*
X018877Y004596D01*
X018871Y004578D01*
X018871Y004563D01*
X018863Y004555D01*
X018859Y004545D01*
X018846Y004538D01*
X029165Y007762D02*
X029172Y007762D01*
X029282Y007807D01*
X029366Y007892D01*
X029412Y008002D01*
X029412Y008111D01*
X029476Y008266D01*
X029476Y008437D01*
X029411Y008595D01*
X029290Y008716D01*
X029132Y008782D01*
X028974Y008782D01*
X029076Y008924D01*
X029115Y008957D01*
X030777Y008957D01*
X030771Y008900D01*
X030771Y008900D01*
X030865Y008691D01*
X030907Y008662D01*
X030841Y008596D01*
X030841Y007969D01*
X030792Y007898D01*
X030786Y007825D01*
X030781Y007814D01*
X030781Y007772D01*
X030778Y007731D01*
X030781Y007720D01*
X030781Y007147D01*
X030780Y007140D01*
X030774Y007126D01*
X030762Y007116D01*
X030747Y007113D01*
X030732Y007116D01*
X030720Y007126D01*
X030713Y007140D01*
X030712Y007147D01*
X030712Y007379D01*
X030593Y007585D01*
X030593Y007585D01*
X030387Y007705D01*
X030117Y007705D01*
X030110Y007707D01*
X030064Y007705D01*
X030018Y007705D01*
X030012Y007702D01*
X030004Y007701D01*
X029963Y007682D01*
X029945Y007674D01*
X029838Y007633D01*
X029585Y007604D01*
X029337Y007658D01*
X029165Y007762D01*
X029173Y007757D02*
X030780Y007757D01*
X030781Y007678D02*
X030432Y007678D01*
X030568Y007600D02*
X030781Y007600D01*
X030781Y007521D02*
X030630Y007521D01*
X030675Y007443D02*
X030781Y007443D01*
X030781Y007364D02*
X030712Y007364D01*
X030712Y007286D02*
X030781Y007286D01*
X030781Y007207D02*
X030712Y007207D01*
X030718Y007129D02*
X030775Y007129D01*
X029955Y007678D02*
X029303Y007678D01*
X029310Y007835D02*
X030787Y007835D01*
X030792Y007898D02*
X030792Y007898D01*
X030803Y007914D02*
X029376Y007914D01*
X029408Y007992D02*
X029895Y007992D01*
X029862Y008006D02*
X029933Y007977D01*
X030006Y007962D01*
X030006Y008312D01*
X029657Y008312D01*
X029671Y008238D01*
X029701Y008167D01*
X029743Y008103D01*
X029798Y008049D01*
X029862Y008006D01*
X029776Y008071D02*
X029412Y008071D01*
X029428Y008149D02*
X029713Y008149D01*
X029676Y008228D02*
X029460Y008228D01*
X029476Y008306D02*
X029658Y008306D01*
X029657Y008392D02*
X030006Y008392D01*
X030006Y008312D01*
X030086Y008312D01*
X030086Y007962D01*
X030160Y007977D01*
X030231Y008006D01*
X030295Y008049D01*
X030349Y008103D01*
X030392Y008167D01*
X030421Y008238D01*
X030436Y008312D01*
X030086Y008312D01*
X030086Y008392D01*
X030006Y008392D01*
X030006Y008741D01*
X029933Y008727D01*
X029862Y008697D01*
X029798Y008655D01*
X029743Y008600D01*
X029701Y008537D01*
X029671Y008466D01*
X029657Y008392D01*
X029671Y008463D02*
X029466Y008463D01*
X029476Y008385D02*
X030006Y008385D01*
X030006Y008463D02*
X030086Y008463D01*
X030086Y008392D02*
X030086Y008741D01*
X030160Y008727D01*
X030231Y008697D01*
X030295Y008655D01*
X030349Y008600D01*
X030392Y008537D01*
X030421Y008466D01*
X030436Y008392D01*
X030086Y008392D01*
X030086Y008385D02*
X030841Y008385D01*
X030841Y008463D02*
X030422Y008463D01*
X030388Y008542D02*
X030841Y008542D01*
X030866Y008620D02*
X030329Y008620D01*
X030227Y008699D02*
X030862Y008699D01*
X030865Y008691D02*
X030865Y008691D01*
X030826Y008777D02*
X029142Y008777D01*
X029027Y008856D02*
X030791Y008856D01*
X030775Y008934D02*
X029088Y008934D01*
X029307Y008699D02*
X029865Y008699D01*
X029763Y008620D02*
X029386Y008620D01*
X029433Y008542D02*
X029704Y008542D01*
X030006Y008542D02*
X030086Y008542D01*
X030086Y008620D02*
X030006Y008620D01*
X030006Y008699D02*
X030086Y008699D01*
X030086Y008306D02*
X030006Y008306D01*
X030006Y008228D02*
X030086Y008228D01*
X030086Y008149D02*
X030006Y008149D01*
X030006Y008071D02*
X030086Y008071D01*
X030086Y007992D02*
X030006Y007992D01*
X030198Y007992D02*
X030841Y007992D01*
X030841Y008071D02*
X030317Y008071D01*
X030380Y008149D02*
X030841Y008149D01*
X030841Y008228D02*
X030417Y008228D01*
X030435Y008306D02*
X030841Y008306D01*
X020015Y014554D02*
X020015Y014554D01*
D21*
X019016Y013635D03*
X019016Y013365D03*
X018716Y013365D03*
X018716Y013635D03*
X018716Y013095D03*
X018716Y012825D03*
X019016Y012825D03*
X019016Y013095D03*
X017846Y013538D03*
X016455Y014327D03*
X014739Y014462D03*
X014439Y014462D03*
X014139Y014462D03*
X013839Y014462D03*
X013539Y014462D03*
X012442Y014412D03*
X012442Y014762D03*
X012442Y015062D03*
X011842Y015062D03*
X011842Y014762D03*
X011842Y014462D03*
X009142Y014612D03*
X009142Y014312D03*
X009142Y014012D03*
X009142Y014912D03*
X012677Y012254D03*
X009822Y011782D03*
X009822Y011482D03*
X009822Y011182D03*
X009822Y010882D03*
X006977Y011877D03*
X006963Y008672D03*
X007263Y008672D03*
X007563Y008672D03*
X007863Y008672D03*
X012763Y007622D03*
X013063Y007622D03*
X013363Y007622D03*
X013663Y007622D03*
X014614Y007775D03*
X014614Y007450D03*
X014614Y007125D03*
X014263Y006222D03*
X013963Y006222D03*
X013663Y006222D03*
X013363Y006222D03*
X016627Y004677D03*
X016977Y004677D03*
X016977Y003927D03*
X016627Y003827D03*
X014313Y003522D03*
X014013Y003522D03*
X013713Y003522D03*
X013413Y003522D03*
X019513Y004672D03*
X019513Y004972D03*
X019513Y005272D03*
X019513Y005572D03*
X020645Y005473D03*
X022063Y005572D03*
X022363Y005572D03*
X022663Y005572D03*
X022963Y005572D03*
X024377Y003527D03*
X024677Y003527D03*
X024963Y003522D03*
X025263Y003522D03*
X030103Y007724D03*
X029112Y008062D03*
X029175Y008932D03*
X032177Y008677D03*
X032177Y008348D03*
X029690Y010962D03*
X029690Y011262D03*
X029690Y011562D03*
X029690Y011862D03*
X032290Y013812D03*
X025586Y013862D03*
X025586Y013562D03*
X025586Y013262D03*
X025586Y014162D03*
X021592Y014112D03*
X021592Y013812D03*
X021592Y013512D03*
X021592Y013212D03*
X020189Y011777D03*
X019139Y010812D03*
X018839Y010812D03*
X018539Y010812D03*
X018239Y010812D03*
X019565Y010627D03*
X021305Y010377D03*
X022836Y010962D03*
X023136Y010962D03*
X023436Y010962D03*
X023736Y010962D03*
X022613Y008072D03*
X022313Y008072D03*
X022013Y008072D03*
X021713Y008072D03*
X017635Y012047D03*
D22*
X017663Y012049D01*
X017690Y012054D01*
X017716Y012063D01*
X017740Y012075D01*
X017763Y012091D01*
X017784Y012109D01*
X017802Y012130D01*
X017818Y012152D01*
X017830Y012177D01*
X017839Y012203D01*
X017844Y012230D01*
X017846Y012258D01*
X017846Y013538D01*
X016455Y014327D02*
X019905Y014327D01*
X019938Y014324D01*
X019970Y014318D01*
X020001Y014308D01*
X020031Y014295D01*
X020059Y014278D01*
X020085Y014258D01*
X020109Y014236D01*
X020130Y014211D01*
X020148Y014184D01*
X020163Y014154D01*
X020175Y014124D01*
X020183Y014092D01*
X020188Y014060D01*
X020189Y014027D01*
X020189Y011777D01*
X019565Y010627D02*
X019565Y010615D01*
X019527Y010577D01*
X009860Y010577D01*
X009568Y010377D02*
X021305Y010377D01*
X030006Y010377D01*
X029856Y010577D02*
X021508Y010577D01*
X021405Y010677D01*
X021205Y010677D01*
X021105Y010577D01*
X019615Y010577D01*
X019565Y010627D01*
X012677Y012254D02*
X011601Y012254D01*
X011570Y012256D01*
X011540Y012261D01*
X011511Y012271D01*
X011482Y012283D01*
X011456Y012299D01*
X011432Y012318D01*
X011410Y012340D01*
X011391Y012364D01*
X011375Y012390D01*
X011363Y012419D01*
X011353Y012448D01*
X011348Y012478D01*
X011346Y012509D01*
X011346Y013327D01*
X010346Y013327D02*
X010346Y012546D01*
X010344Y012517D01*
X010339Y012489D01*
X010329Y012462D01*
X010317Y012436D01*
X010301Y012413D01*
X010282Y012391D01*
X010260Y012372D01*
X010236Y012356D01*
X010211Y012344D01*
X010184Y012334D01*
X010156Y012329D01*
X010127Y012327D01*
X007177Y012327D01*
X007151Y012325D01*
X007125Y012320D01*
X007100Y012312D01*
X007077Y012300D01*
X007055Y012286D01*
X007036Y012268D01*
X007018Y012249D01*
X007004Y012227D01*
X006992Y012204D01*
X006984Y012179D01*
X006979Y012153D01*
X006977Y012127D01*
X006977Y011877D01*
X006977Y011977D01*
X008677Y013302D02*
X008727Y013352D01*
X008677Y013327D02*
X008677Y013302D01*
X008677Y013327D02*
X009346Y013327D01*
X008906Y011039D02*
X008908Y010990D01*
X008913Y010940D01*
X008923Y010892D01*
X008935Y010844D01*
X008952Y010797D01*
X008972Y010752D01*
X008995Y010708D01*
X009021Y010666D01*
X009050Y010626D01*
X009083Y010589D01*
X009118Y010554D01*
X009155Y010521D01*
X009195Y010492D01*
X009237Y010466D01*
X009281Y010443D01*
X009326Y010423D01*
X009373Y010406D01*
X009421Y010394D01*
X009469Y010384D01*
X009519Y010379D01*
X009568Y010377D01*
X009860Y010577D02*
X009820Y010579D01*
X009780Y010584D01*
X009740Y010593D01*
X009702Y010605D01*
X009665Y010620D01*
X009629Y010639D01*
X009595Y010661D01*
X009563Y010685D01*
X009533Y010712D01*
X009506Y010742D01*
X009482Y010774D01*
X009460Y010808D01*
X009441Y010844D01*
X009426Y010881D01*
X009414Y010919D01*
X009405Y010959D01*
X009400Y010999D01*
X009398Y011039D01*
X020645Y005809D02*
X020645Y005473D01*
X023509Y005164D02*
X032310Y005164D01*
X032310Y005364D02*
X024096Y005364D01*
X023509Y005951D01*
X024083Y004951D02*
X023509Y004377D01*
X024083Y004951D02*
X032297Y004951D01*
X032357Y004953D01*
X032417Y004958D01*
X032476Y004967D01*
X032535Y004980D01*
X032593Y004996D01*
X032649Y005016D01*
X032705Y005039D01*
X032759Y005065D01*
X032811Y005094D01*
X032862Y005127D01*
X032910Y005163D01*
X032956Y005201D01*
X033000Y005242D01*
X033041Y005286D01*
X033079Y005332D01*
X033115Y005380D01*
X033148Y005431D01*
X033177Y005483D01*
X033203Y005537D01*
X033226Y005593D01*
X033246Y005649D01*
X033262Y005707D01*
X033275Y005766D01*
X033284Y005825D01*
X033289Y005885D01*
X033291Y005945D01*
X033277Y012242D01*
X033077Y012242D02*
X033091Y005945D01*
X032891Y005945D02*
X032877Y012242D01*
X032677Y012229D02*
X032677Y008477D01*
X032477Y008648D02*
X032477Y012242D01*
X032277Y012242D02*
X032277Y008777D01*
X032275Y008760D01*
X032271Y008743D01*
X032264Y008727D01*
X032254Y008713D01*
X032241Y008700D01*
X032227Y008690D01*
X032211Y008683D01*
X032194Y008679D01*
X032177Y008677D01*
X032477Y008648D02*
X032475Y008614D01*
X032469Y008581D01*
X032460Y008549D01*
X032447Y008518D01*
X032431Y008488D01*
X032412Y008461D01*
X032389Y008436D01*
X032364Y008413D01*
X032337Y008394D01*
X032307Y008378D01*
X032276Y008365D01*
X032244Y008356D01*
X032211Y008350D01*
X032177Y008348D01*
X032277Y008077D02*
X032316Y008079D01*
X032355Y008085D01*
X032393Y008094D01*
X032430Y008107D01*
X032466Y008124D01*
X032499Y008144D01*
X032531Y008168D01*
X032560Y008194D01*
X032586Y008223D01*
X032610Y008255D01*
X032630Y008288D01*
X032647Y008324D01*
X032660Y008361D01*
X032669Y008399D01*
X032675Y008438D01*
X032677Y008477D01*
X032277Y008077D02*
X032052Y008077D01*
X031777Y008352D01*
X030046Y008352D01*
X029112Y008286D02*
X029112Y008062D01*
X029112Y008286D02*
X029046Y008352D01*
X030006Y010377D02*
X030040Y010379D01*
X030073Y010385D01*
X030105Y010394D01*
X030136Y010407D01*
X030166Y010423D01*
X030193Y010442D01*
X030218Y010465D01*
X030241Y010490D01*
X030260Y010517D01*
X030276Y010547D01*
X030289Y010578D01*
X030298Y010610D01*
X030304Y010643D01*
X030306Y010677D01*
X030306Y012427D01*
X030106Y012477D02*
X030108Y012514D01*
X030114Y012550D01*
X030123Y012585D01*
X030136Y012619D01*
X030153Y012652D01*
X030173Y012683D01*
X030196Y012711D01*
X030222Y012737D01*
X030250Y012760D01*
X030281Y012780D01*
X030314Y012797D01*
X030348Y012810D01*
X030383Y012819D01*
X030419Y012825D01*
X030456Y012827D01*
X031892Y012827D01*
X031892Y013014D02*
X029063Y013014D01*
X029259Y013227D02*
X028319Y014167D01*
X029106Y014167D02*
X029846Y013427D01*
X031892Y013427D01*
X031892Y013227D02*
X029259Y013227D01*
X029900Y013777D02*
X029900Y014161D01*
X029894Y014167D01*
X029900Y013777D02*
X030050Y013627D01*
X031892Y013627D01*
X032290Y013627D01*
X032290Y013812D01*
X031892Y012627D02*
X030506Y012627D01*
X030480Y012625D01*
X030454Y012620D01*
X030429Y012612D01*
X030406Y012600D01*
X030384Y012586D01*
X030365Y012568D01*
X030347Y012549D01*
X030333Y012527D01*
X030321Y012504D01*
X030313Y012479D01*
X030308Y012453D01*
X030306Y012427D01*
X030106Y012477D02*
X030106Y010827D01*
X030104Y010797D01*
X030099Y010767D01*
X030090Y010738D01*
X030077Y010711D01*
X030062Y010685D01*
X030043Y010661D01*
X030022Y010640D01*
X029998Y010621D01*
X029972Y010606D01*
X029945Y010593D01*
X029916Y010584D01*
X029886Y010579D01*
X029856Y010577D01*
X031892Y013014D02*
X031946Y013012D01*
X031999Y013007D01*
X032052Y012998D01*
X032104Y012985D01*
X032155Y012969D01*
X032205Y012949D01*
X032253Y012926D01*
X032300Y012900D01*
X032345Y012870D01*
X032387Y012838D01*
X032428Y012803D01*
X032466Y012765D01*
X032501Y012724D01*
X032533Y012682D01*
X032563Y012637D01*
X032589Y012590D01*
X032612Y012542D01*
X032632Y012492D01*
X032648Y012441D01*
X032661Y012389D01*
X032670Y012336D01*
X032675Y012283D01*
X032677Y012229D01*
X032877Y012242D02*
X032875Y012304D01*
X032869Y012365D01*
X032860Y012427D01*
X032846Y012487D01*
X032829Y012546D01*
X032808Y012605D01*
X032783Y012661D01*
X032755Y012717D01*
X032724Y012770D01*
X032689Y012821D01*
X032651Y012870D01*
X032610Y012916D01*
X032566Y012960D01*
X032520Y013001D01*
X032471Y013039D01*
X032420Y013074D01*
X032367Y013105D01*
X032311Y013133D01*
X032255Y013158D01*
X032196Y013179D01*
X032137Y013196D01*
X032077Y013210D01*
X032015Y013219D01*
X031954Y013225D01*
X031892Y013227D01*
X031892Y013427D02*
X031958Y013425D01*
X032025Y013420D01*
X032090Y013410D01*
X032156Y013397D01*
X032220Y013381D01*
X032283Y013361D01*
X032345Y013337D01*
X032406Y013310D01*
X032465Y013279D01*
X032522Y013245D01*
X032578Y013208D01*
X032631Y013168D01*
X032682Y013126D01*
X032730Y013080D01*
X032776Y013032D01*
X032818Y012981D01*
X032858Y012928D01*
X032895Y012872D01*
X032929Y012815D01*
X032960Y012756D01*
X032987Y012695D01*
X033011Y012633D01*
X033031Y012570D01*
X033047Y012506D01*
X033060Y012440D01*
X033070Y012375D01*
X033075Y012308D01*
X033077Y012242D01*
X032277Y012242D02*
X032275Y012280D01*
X032270Y012317D01*
X032260Y012354D01*
X032248Y012389D01*
X032232Y012423D01*
X032212Y012456D01*
X032190Y012486D01*
X032164Y012514D01*
X032136Y012540D01*
X032106Y012562D01*
X032073Y012582D01*
X032039Y012598D01*
X032004Y012610D01*
X031967Y012620D01*
X031930Y012625D01*
X031892Y012627D01*
X031892Y012827D02*
X031938Y012825D01*
X031984Y012820D01*
X032029Y012811D01*
X032073Y012798D01*
X032116Y012782D01*
X032158Y012763D01*
X032198Y012741D01*
X032236Y012715D01*
X032272Y012687D01*
X032306Y012656D01*
X032337Y012622D01*
X032365Y012586D01*
X032391Y012548D01*
X032413Y012508D01*
X032432Y012466D01*
X032448Y012423D01*
X032461Y012379D01*
X032470Y012334D01*
X032475Y012288D01*
X032477Y012242D01*
X033277Y012242D02*
X033275Y012314D01*
X033269Y012387D01*
X033260Y012459D01*
X033247Y012530D01*
X033230Y012600D01*
X033209Y012670D01*
X033185Y012738D01*
X033157Y012805D01*
X033126Y012871D01*
X033091Y012935D01*
X033054Y012996D01*
X033012Y013056D01*
X032968Y013114D01*
X032921Y013169D01*
X032871Y013221D01*
X032819Y013271D01*
X032764Y013318D01*
X032706Y013362D01*
X032646Y013404D01*
X032585Y013441D01*
X032521Y013476D01*
X032455Y013507D01*
X032388Y013535D01*
X032320Y013559D01*
X032250Y013580D01*
X032180Y013597D01*
X032109Y013610D01*
X032037Y013619D01*
X031964Y013625D01*
X031892Y013627D01*
X032891Y005945D02*
X032889Y005899D01*
X032884Y005854D01*
X032875Y005809D01*
X032863Y005765D01*
X032847Y005723D01*
X032828Y005681D01*
X032805Y005641D01*
X032780Y005603D01*
X032752Y005568D01*
X032721Y005534D01*
X032687Y005503D01*
X032652Y005475D01*
X032614Y005450D01*
X032574Y005427D01*
X032532Y005408D01*
X032490Y005392D01*
X032446Y005380D01*
X032401Y005371D01*
X032356Y005366D01*
X032310Y005364D01*
X032310Y005164D02*
X032366Y005166D01*
X032421Y005172D01*
X032476Y005182D01*
X032530Y005196D01*
X032583Y005213D01*
X032634Y005235D01*
X032684Y005260D01*
X032732Y005288D01*
X032778Y005320D01*
X032821Y005355D01*
X032862Y005393D01*
X032900Y005434D01*
X032935Y005477D01*
X032967Y005523D01*
X032995Y005571D01*
X033020Y005621D01*
X033042Y005672D01*
X033059Y005725D01*
X033073Y005779D01*
X033083Y005834D01*
X033089Y005889D01*
X033091Y005945D01*
X016977Y004677D02*
X016977Y003927D01*
X016627Y003827D02*
X016627Y004677D01*
D23*
X012577Y004437D02*
X012577Y005707D01*
D24*
X012477Y008177D02*
X018947Y008177D01*
X018973Y008175D01*
X018998Y008170D01*
X019022Y008161D01*
X019044Y008148D01*
X019065Y008133D01*
X019083Y008115D01*
X019098Y008094D01*
X019111Y008072D01*
X019120Y008048D01*
X019125Y008023D01*
X019127Y007997D01*
X019128Y007997D02*
X019128Y007752D01*
X006627Y004423D02*
X006181Y004423D01*
X005677Y004927D01*
X006181Y003931D02*
X005677Y003427D01*
X006181Y003931D02*
X006627Y003931D01*
D25*
X012877Y007077D03*
X013177Y007077D03*
X012477Y008177D03*
X020877Y007477D03*
X021177Y007477D03*
X026142Y014242D03*
X026442Y014242D03*
D26*
X026142Y014242D01*
X021177Y007477D02*
X020877Y007477D01*
X013177Y007077D02*
X012877Y007077D01*
D27*
X012927Y007027D01*
X012927Y003627D01*
X012925Y003597D01*
X012920Y003567D01*
X012911Y003538D01*
X012898Y003511D01*
X012883Y003485D01*
X012864Y003461D01*
X012843Y003440D01*
X012819Y003421D01*
X012793Y003406D01*
X012766Y003393D01*
X012737Y003384D01*
X012707Y003379D01*
X012677Y003377D01*
X008127Y003377D01*
X007573Y003931D01*
X006627Y003931D01*
X009985Y007044D02*
X009985Y008485D01*
X009987Y008523D01*
X009993Y008561D01*
X010002Y008599D01*
X010015Y008635D01*
X010031Y008670D01*
X010051Y008703D01*
X010074Y008734D01*
X010100Y008762D01*
X010128Y008788D01*
X010159Y008811D01*
X010192Y008831D01*
X010227Y008847D01*
X010263Y008860D01*
X010301Y008869D01*
X010339Y008875D01*
X010377Y008877D01*
X024277Y008877D01*
X023927Y008527D02*
X012327Y008527D01*
X012293Y008525D01*
X012260Y008519D01*
X012228Y008510D01*
X012197Y008497D01*
X012167Y008481D01*
X012140Y008462D01*
X012115Y008439D01*
X012092Y008414D01*
X012073Y008387D01*
X012057Y008357D01*
X012044Y008326D01*
X012035Y008294D01*
X012029Y008261D01*
X012027Y008227D01*
X012027Y005868D01*
X012033Y005863D01*
X023927Y008527D02*
X023964Y008525D01*
X024000Y008519D01*
X024035Y008510D01*
X024069Y008497D01*
X024102Y008480D01*
X024133Y008460D01*
X024161Y008437D01*
X024187Y008411D01*
X024210Y008383D01*
X024230Y008352D01*
X024247Y008319D01*
X024260Y008285D01*
X024269Y008250D01*
X024275Y008214D01*
X024277Y008177D01*
X024277Y006946D01*
X024297Y007126D01*
X024789Y007126D02*
X024801Y007109D01*
X024811Y007091D01*
X024818Y007071D01*
X024821Y007051D01*
X024822Y007030D01*
X024819Y007009D01*
X024813Y006989D01*
X024803Y006970D01*
X024791Y006953D01*
X024777Y006938D01*
X024777Y008377D01*
X024775Y008421D01*
X024769Y008464D01*
X024760Y008506D01*
X024747Y008548D01*
X024730Y008588D01*
X024710Y008627D01*
X024687Y008664D01*
X024660Y008698D01*
X024631Y008731D01*
X024598Y008760D01*
X024564Y008787D01*
X024527Y008810D01*
X024488Y008830D01*
X024448Y008847D01*
X024406Y008860D01*
X024364Y008869D01*
X024321Y008875D01*
X024277Y008877D01*
D28*
X028319Y014167D02*
X028319Y015409D01*
X028317Y015445D01*
X028312Y015481D01*
X028303Y015516D01*
X028291Y015550D01*
X028275Y015583D01*
X028257Y015614D01*
X028235Y015643D01*
X028211Y015670D01*
X028184Y015694D01*
X028155Y015716D01*
X028124Y015734D01*
X028091Y015750D01*
X028057Y015762D01*
X028022Y015771D01*
X027986Y015776D01*
X027950Y015778D01*
X027950Y015777D02*
X009202Y015777D01*
X009277Y015377D02*
X025977Y015377D01*
X026011Y015375D01*
X026044Y015369D01*
X026076Y015360D01*
X026107Y015347D01*
X026137Y015331D01*
X026164Y015312D01*
X026189Y015289D01*
X026212Y015264D01*
X026231Y015237D01*
X026247Y015207D01*
X026260Y015176D01*
X026269Y015144D01*
X026275Y015111D01*
X026277Y015077D01*
X026277Y014377D01*
X026278Y014377D02*
X026276Y014356D01*
X026271Y014335D01*
X026263Y014315D01*
X026252Y014297D01*
X026238Y014281D01*
X026222Y014267D01*
X026204Y014256D01*
X026184Y014248D01*
X026163Y014243D01*
X026142Y014241D01*
X009277Y015378D02*
X009232Y015376D01*
X009187Y015371D01*
X009142Y015361D01*
X009099Y015349D01*
X009057Y015332D01*
X009016Y015312D01*
X008977Y015289D01*
X008940Y015263D01*
X008905Y015234D01*
X008873Y015202D01*
X008843Y015168D01*
X008817Y015131D01*
X008793Y015093D01*
X008773Y015052D01*
X008756Y015010D01*
X008742Y014967D01*
X008733Y014922D01*
X008727Y014878D01*
X008727Y014877D02*
X008727Y013352D01*
X008302Y013352D02*
X008302Y014827D01*
X008303Y014885D01*
X008306Y014943D01*
X008314Y015001D01*
X008325Y015058D01*
X008340Y015114D01*
X008358Y015169D01*
X008380Y015223D01*
X008405Y015276D01*
X008433Y015326D01*
X008464Y015375D01*
X008499Y015422D01*
X008536Y015467D01*
X008576Y015509D01*
X008618Y015549D01*
X008663Y015585D01*
X008710Y015619D01*
X008760Y015650D01*
X008811Y015678D01*
X008863Y015703D01*
X008917Y015724D01*
X008973Y015741D01*
X009029Y015756D01*
X009086Y015766D01*
X009144Y015773D01*
X009202Y015777D01*
X008727Y013352D02*
X008725Y013300D01*
X008720Y013249D01*
X008710Y013198D01*
X008698Y013148D01*
X008681Y013099D01*
X008661Y013051D01*
X008638Y013005D01*
X008612Y012960D01*
X008582Y012918D01*
X008550Y012877D01*
X008515Y012839D01*
X008477Y012804D01*
X008436Y012772D01*
X008394Y012742D01*
X008349Y012716D01*
X008303Y012693D01*
X008255Y012673D01*
X008206Y012656D01*
X008156Y012644D01*
X008105Y012634D01*
X008054Y012629D01*
X008002Y012627D01*
X006827Y012627D01*
X006797Y012625D01*
X006767Y012620D01*
X006738Y012611D01*
X006711Y012598D01*
X006685Y012583D01*
X006661Y012564D01*
X006640Y012543D01*
X006621Y012519D01*
X006606Y012493D01*
X006593Y012466D01*
X006584Y012437D01*
X006579Y012407D01*
X006577Y012377D01*
X006577Y011051D01*
X006590Y011039D01*
X006097Y011039D02*
X006097Y012377D01*
X006099Y012426D01*
X006104Y012474D01*
X006113Y012522D01*
X006126Y012569D01*
X006142Y012614D01*
X006161Y012659D01*
X006184Y012702D01*
X006210Y012743D01*
X006239Y012782D01*
X006271Y012819D01*
X006305Y012853D01*
X006342Y012885D01*
X006381Y012914D01*
X006422Y012940D01*
X006465Y012963D01*
X006510Y012982D01*
X006555Y012998D01*
X006602Y013011D01*
X006650Y013020D01*
X006698Y013025D01*
X006747Y013027D01*
X007977Y013027D01*
X008011Y013029D01*
X008045Y013034D01*
X008077Y013043D01*
X008109Y013055D01*
X008139Y013071D01*
X008168Y013089D01*
X008194Y013110D01*
X008219Y013135D01*
X008240Y013161D01*
X008258Y013189D01*
X008274Y013220D01*
X008286Y013252D01*
X008295Y013284D01*
X008300Y013318D01*
X008302Y013352D01*
D29*
X020877Y007477D02*
X021027Y007477D01*
X021027Y007427D01*
X021029Y007352D01*
X021035Y007278D01*
X021044Y007203D01*
X021057Y007130D01*
X021074Y007057D01*
X021095Y006985D01*
X021119Y006914D01*
X021147Y006845D01*
X021178Y006777D01*
X021212Y006711D01*
X021250Y006646D01*
X021292Y006584D01*
X021336Y006524D01*
X021383Y006466D01*
X021433Y006410D01*
X021486Y006357D01*
X021542Y006307D01*
X021600Y006260D01*
X021660Y006216D01*
X021722Y006174D01*
X021787Y006136D01*
X021853Y006102D01*
X021921Y006071D01*
X021990Y006043D01*
X022061Y006019D01*
X022133Y005998D01*
X022206Y005981D01*
X022279Y005968D01*
X022354Y005959D01*
X022428Y005953D01*
X022503Y005951D01*
X023509Y005951D01*
D30*
X019128Y007752D03*
M02*
