G75*
G70*
%OFA0B0*%
%FSLAX24Y24*%
%IPPOS*%
%LPD*%
%AMOC8*
5,1,8,0,0,1.08239X$1,22.5*
%
%ADD10C,0.0050*%
%ADD11C,0.0080*%
%ADD12C,0.0000*%
%ADD13C,0.0060*%
%ADD14C,0.0120*%
%ADD15C,0.0070*%
%ADD16C,0.0100*%
%ADD17C,0.0020*%
%ADD18C,0.0030*%
%ADD19C,0.0040*%
D10*
X001677Y000927D02*
X033631Y000927D01*
X033630Y000927D02*
X033684Y000929D01*
X033738Y000934D01*
X033791Y000943D01*
X033844Y000956D01*
X033895Y000973D01*
X033945Y000993D01*
X033993Y001017D01*
X034040Y001044D01*
X034085Y001075D01*
X034127Y001108D01*
X034167Y001145D01*
X034204Y001184D01*
X034238Y001226D01*
X034269Y001270D01*
X034297Y001316D01*
X034321Y001364D01*
X034342Y001414D01*
X034360Y001465D01*
X034374Y001517D01*
X034384Y001570D01*
X034390Y001624D01*
X034392Y001677D01*
X034392Y017896D01*
X034392Y017895D02*
X034390Y017949D01*
X034383Y018003D01*
X034373Y018056D01*
X034360Y018108D01*
X034342Y018159D01*
X034321Y018209D01*
X034297Y018257D01*
X034269Y018303D01*
X034237Y018347D01*
X034203Y018388D01*
X034166Y018427D01*
X034126Y018464D01*
X034084Y018497D01*
X034040Y018528D01*
X033993Y018555D01*
X033945Y018578D01*
X033895Y018599D01*
X033843Y018615D01*
X033791Y018628D01*
X033738Y018637D01*
X033684Y018643D01*
X033631Y018644D01*
X001677Y018644D01*
X001624Y018642D01*
X001570Y018637D01*
X001518Y018627D01*
X001466Y018614D01*
X001415Y018597D01*
X001366Y018577D01*
X001318Y018553D01*
X001272Y018526D01*
X001228Y018495D01*
X001186Y018462D01*
X001147Y018425D01*
X001111Y018386D01*
X001077Y018345D01*
X001046Y018301D01*
X001019Y018255D01*
X000995Y018207D01*
X000975Y018158D01*
X000958Y018107D01*
X000944Y018055D01*
X000935Y018003D01*
X000929Y017949D01*
X000927Y017896D01*
X000927Y001677D01*
X000929Y001623D01*
X000935Y001570D01*
X000944Y001518D01*
X000957Y001466D01*
X000974Y001415D01*
X000995Y001365D01*
X001019Y001318D01*
X001046Y001272D01*
X001077Y001228D01*
X001110Y001186D01*
X001147Y001147D01*
X001186Y001110D01*
X001228Y001077D01*
X001272Y001046D01*
X001318Y001019D01*
X001365Y000995D01*
X001415Y000974D01*
X001466Y000957D01*
X001518Y000944D01*
X001570Y000935D01*
X001623Y000929D01*
X001677Y000927D01*
X003677Y002305D02*
X031642Y002305D01*
X031672Y002307D01*
X031702Y002312D01*
X031731Y002321D01*
X031758Y002334D01*
X031784Y002349D01*
X031808Y002368D01*
X031829Y002389D01*
X031848Y002413D01*
X031863Y002439D01*
X031876Y002466D01*
X031885Y002495D01*
X031890Y002525D01*
X031892Y002555D01*
X031892Y004570D01*
X025710Y004570D01*
X025710Y003477D01*
X025708Y003438D01*
X025702Y003399D01*
X025693Y003361D01*
X025680Y003324D01*
X025663Y003288D01*
X025643Y003255D01*
X025619Y003223D01*
X025593Y003194D01*
X025564Y003168D01*
X025532Y003144D01*
X025499Y003124D01*
X025463Y003107D01*
X025426Y003094D01*
X025388Y003085D01*
X025349Y003079D01*
X025310Y003077D01*
X018928Y003077D01*
X018928Y003078D02*
X018923Y003039D01*
X018914Y003001D01*
X018901Y002964D01*
X018885Y002929D01*
X018865Y002895D01*
X018842Y002863D01*
X018816Y002834D01*
X018787Y002808D01*
X018756Y002785D01*
X018722Y002764D01*
X018687Y002748D01*
X018650Y002734D01*
X018613Y002725D01*
X018574Y002719D01*
X018535Y002717D01*
X018496Y002719D01*
X018457Y002725D01*
X018420Y002734D01*
X018383Y002748D01*
X018348Y002764D01*
X018314Y002785D01*
X018283Y002808D01*
X018254Y002834D01*
X018228Y002863D01*
X018205Y002895D01*
X018185Y002929D01*
X018169Y002964D01*
X018156Y003001D01*
X018147Y003039D01*
X018142Y003078D01*
X018141Y003077D02*
X015298Y003077D01*
X015298Y003078D02*
X015293Y003039D01*
X015284Y003001D01*
X015271Y002964D01*
X015255Y002929D01*
X015235Y002895D01*
X015212Y002863D01*
X015186Y002834D01*
X015157Y002808D01*
X015126Y002785D01*
X015092Y002764D01*
X015057Y002748D01*
X015020Y002734D01*
X014983Y002725D01*
X014944Y002719D01*
X014905Y002717D01*
X014866Y002719D01*
X014827Y002725D01*
X014790Y002734D01*
X014753Y002748D01*
X014718Y002764D01*
X014684Y002785D01*
X014653Y002808D01*
X014624Y002834D01*
X014598Y002863D01*
X014575Y002895D01*
X014555Y002929D01*
X014539Y002964D01*
X014526Y003001D01*
X014517Y003039D01*
X014512Y003078D01*
X014511Y003077D02*
X005110Y003077D01*
X005085Y003082D01*
X005062Y003091D01*
X005039Y003103D01*
X005019Y003118D01*
X005001Y003136D01*
X004986Y003156D01*
X004974Y003178D01*
X004965Y003202D01*
X004960Y003227D01*
X004958Y003252D01*
X004960Y003277D01*
X004960Y003683D01*
X003427Y003683D01*
X003427Y002527D01*
X003431Y002499D01*
X003438Y002471D01*
X003448Y002444D01*
X003461Y002419D01*
X003477Y002396D01*
X003496Y002374D01*
X003517Y002355D01*
X003541Y002339D01*
X003566Y002326D01*
X003593Y002316D01*
X003620Y002309D01*
X003648Y002305D01*
X003677Y002305D01*
X005564Y003931D02*
X005616Y003880D01*
X005771Y003880D01*
X005771Y003776D02*
X005771Y004087D01*
X005616Y004087D01*
X005564Y004035D01*
X005564Y003931D01*
X005439Y003931D02*
X005233Y003931D01*
X005336Y004320D02*
X005336Y004527D01*
X005439Y004424D02*
X005233Y004424D01*
X005564Y004424D02*
X005564Y004527D01*
X005616Y004579D01*
X005771Y004579D01*
X005771Y004268D01*
X005771Y004372D02*
X005616Y004372D01*
X005564Y004424D01*
X005896Y004372D02*
X005896Y004320D01*
X005947Y004268D01*
X006051Y004268D01*
X006102Y004320D01*
X006051Y004424D02*
X005947Y004424D01*
X005896Y004372D01*
X005896Y004527D02*
X005947Y004579D01*
X006051Y004579D01*
X006102Y004527D01*
X006102Y004475D01*
X006051Y004424D01*
X006051Y004087D02*
X005947Y004087D01*
X005896Y004035D01*
X005947Y003931D02*
X005896Y003880D01*
X005896Y003828D01*
X005947Y003776D01*
X006051Y003776D01*
X006102Y003828D01*
X006051Y003931D02*
X005947Y003931D01*
X006051Y003931D02*
X006102Y003983D01*
X006102Y004035D01*
X006051Y004087D01*
X004960Y004671D02*
X003427Y004671D01*
X003427Y011245D01*
X004994Y011245D01*
X004994Y010564D01*
X004996Y010525D01*
X005002Y010486D01*
X005011Y010448D01*
X005024Y010411D01*
X005041Y010375D01*
X005061Y010342D01*
X005085Y010310D01*
X005111Y010281D01*
X005140Y010255D01*
X005172Y010231D01*
X005205Y010211D01*
X005241Y010194D01*
X005278Y010181D01*
X005316Y010172D01*
X005355Y010166D01*
X005394Y010164D01*
X030138Y010164D01*
X030177Y010166D01*
X030216Y010172D01*
X030254Y010181D01*
X030291Y010194D01*
X030327Y010211D01*
X030360Y010231D01*
X030392Y010255D01*
X030421Y010281D01*
X030447Y010310D01*
X030471Y010342D01*
X030491Y010375D01*
X030508Y010411D01*
X030521Y010448D01*
X030530Y010486D01*
X030536Y010525D01*
X030538Y010564D01*
X030538Y012220D01*
X031892Y012220D01*
X031892Y008810D01*
X031192Y008810D01*
X031169Y008814D01*
X031147Y008821D01*
X031126Y008831D01*
X031107Y008844D01*
X031090Y008860D01*
X031076Y008878D01*
X031064Y008898D01*
X031055Y008919D01*
X031049Y008941D01*
X031046Y008964D01*
X031047Y008987D01*
X031046Y008988D02*
X031046Y009050D01*
X031046Y009073D01*
X031042Y009096D01*
X031036Y009118D01*
X031026Y009139D01*
X031014Y009158D01*
X030999Y009175D01*
X030981Y009190D01*
X030962Y009203D01*
X030941Y009212D01*
X030919Y009218D01*
X030896Y009222D01*
X029019Y009222D01*
X028969Y009184D01*
X028921Y009143D01*
X028876Y009099D01*
X028834Y009053D01*
X028794Y009004D01*
X028758Y008952D01*
X028725Y008899D01*
X028695Y008844D01*
X028668Y008787D01*
X028645Y008728D01*
X028626Y008668D01*
X028610Y008607D01*
X028598Y008546D01*
X028589Y008483D01*
X028585Y008420D01*
X028584Y008358D01*
X028587Y008295D01*
X028594Y008232D01*
X028605Y008170D01*
X028619Y008109D01*
X028637Y008049D01*
X028659Y007990D01*
X028684Y007932D01*
X028713Y007876D01*
X028745Y007822D01*
X028780Y007770D01*
X028818Y007720D01*
X028859Y007672D01*
X028904Y007627D01*
X028950Y007585D01*
X028999Y007546D01*
X029051Y007510D01*
X029104Y007477D01*
X029160Y007447D01*
X029217Y007421D01*
X029275Y007398D01*
X029335Y007379D01*
X029396Y007363D01*
X029458Y007351D01*
X029520Y007343D01*
X029583Y007339D01*
X029646Y007338D01*
X029709Y007342D01*
X029771Y007349D01*
X029833Y007360D01*
X029895Y007374D01*
X029955Y007392D01*
X030014Y007414D01*
X030071Y007440D01*
X030267Y007440D01*
X030293Y007438D01*
X030318Y007433D01*
X030342Y007424D01*
X030364Y007411D01*
X030385Y007396D01*
X030403Y007378D01*
X030418Y007357D01*
X030431Y007335D01*
X030440Y007311D01*
X030445Y007286D01*
X030447Y007260D01*
X030447Y007147D01*
X030448Y007147D02*
X030450Y007114D01*
X030455Y007080D01*
X030465Y007048D01*
X030478Y007017D01*
X030494Y006988D01*
X030513Y006961D01*
X030536Y006936D01*
X030561Y006913D01*
X030588Y006894D01*
X030617Y006878D01*
X030648Y006865D01*
X030680Y006855D01*
X030714Y006850D01*
X030747Y006848D01*
X030780Y006850D01*
X030814Y006855D01*
X030846Y006865D01*
X030877Y006878D01*
X030906Y006894D01*
X030933Y006913D01*
X030958Y006936D01*
X030981Y006961D01*
X031000Y006988D01*
X031016Y007017D01*
X031029Y007048D01*
X031039Y007080D01*
X031044Y007114D01*
X031046Y007147D01*
X031046Y007761D01*
X031047Y007761D02*
X031050Y007784D01*
X031057Y007806D01*
X031067Y007827D01*
X031080Y007847D01*
X031095Y007864D01*
X031113Y007879D01*
X031133Y007891D01*
X031154Y007901D01*
X031177Y007907D01*
X031200Y007910D01*
X031223Y007909D01*
X031223Y007910D02*
X031892Y007910D01*
X031892Y006158D01*
X025710Y006158D01*
X025710Y008677D01*
X025708Y008716D01*
X025702Y008755D01*
X025693Y008793D01*
X025680Y008830D01*
X025663Y008866D01*
X025643Y008899D01*
X025619Y008931D01*
X025593Y008960D01*
X025564Y008986D01*
X025532Y009010D01*
X025499Y009030D01*
X025463Y009047D01*
X025426Y009060D01*
X025388Y009069D01*
X025349Y009075D01*
X025310Y009077D01*
X006960Y009077D01*
X006921Y009075D01*
X006882Y009069D01*
X006844Y009060D01*
X006807Y009047D01*
X006771Y009030D01*
X006738Y009010D01*
X006706Y008986D01*
X006677Y008960D01*
X006651Y008931D01*
X006627Y008899D01*
X006607Y008866D01*
X006590Y008830D01*
X006577Y008793D01*
X006568Y008755D01*
X006562Y008716D01*
X006560Y008677D01*
X006538Y011564D02*
X006435Y011668D01*
X006538Y011771D01*
X006745Y011771D01*
X006745Y011896D02*
X006745Y011999D01*
X006745Y011947D02*
X006435Y011947D01*
X006435Y011896D02*
X006435Y011999D01*
X006435Y012117D02*
X006745Y012117D01*
X006435Y012324D01*
X006745Y012324D01*
X006927Y012279D02*
X006927Y012382D01*
X006978Y012434D01*
X007237Y012434D01*
X007237Y012559D02*
X007237Y012766D01*
X007237Y012662D02*
X006927Y012662D01*
X006927Y012279D02*
X006978Y012227D01*
X007237Y012227D01*
X007185Y012103D02*
X006978Y012103D01*
X006927Y012051D01*
X006927Y011947D01*
X006978Y011896D01*
X007185Y011896D01*
X007237Y011947D01*
X007237Y012051D01*
X007185Y012103D01*
X007419Y012103D02*
X007729Y011896D01*
X007419Y011896D01*
X007471Y011771D02*
X007574Y011771D01*
X007574Y011668D01*
X007677Y011771D02*
X007729Y011719D01*
X007729Y011616D01*
X007677Y011564D01*
X007471Y011564D01*
X007419Y011616D01*
X007419Y011719D01*
X007471Y011771D01*
X007237Y011771D02*
X007030Y011771D01*
X006927Y011668D01*
X007030Y011564D01*
X007237Y011564D01*
X006745Y011564D02*
X006538Y011564D01*
X006253Y011616D02*
X006201Y011564D01*
X005994Y011564D01*
X005942Y011616D01*
X005942Y011719D01*
X005994Y011771D01*
X006098Y011771D01*
X006098Y011668D01*
X006201Y011771D02*
X006253Y011719D01*
X006253Y011616D01*
X006253Y011896D02*
X005942Y011896D01*
X005942Y012051D01*
X005994Y012103D01*
X006046Y012103D01*
X006098Y012051D01*
X006098Y011896D01*
X006253Y011896D02*
X006253Y012051D01*
X006201Y012103D01*
X006149Y012103D01*
X006098Y012051D01*
X006098Y012227D02*
X006149Y012331D01*
X006149Y012382D01*
X006098Y012434D01*
X005994Y012434D01*
X005942Y012382D01*
X005942Y012279D01*
X005994Y012227D01*
X006098Y012227D02*
X006253Y012227D01*
X006253Y012434D01*
X006253Y012559D02*
X006046Y012559D01*
X005942Y012662D01*
X006046Y012766D01*
X006253Y012766D01*
X005761Y012655D02*
X005450Y012655D01*
X005761Y012448D01*
X005450Y012448D01*
X005450Y012331D02*
X005450Y012227D01*
X005450Y012279D02*
X005761Y012279D01*
X005761Y012227D02*
X005761Y012331D01*
X005761Y012103D02*
X005554Y012103D01*
X005450Y011999D01*
X005554Y011896D01*
X005761Y011896D01*
X005761Y011771D02*
X005761Y011564D01*
X005450Y011564D01*
X005450Y011771D01*
X005605Y011668D02*
X005605Y011564D01*
X004994Y012233D02*
X003427Y012233D01*
X003427Y016586D01*
X003429Y016616D01*
X003434Y016646D01*
X003443Y016675D01*
X003456Y016702D01*
X003471Y016728D01*
X003490Y016752D01*
X003511Y016773D01*
X003535Y016792D01*
X003561Y016807D01*
X003588Y016820D01*
X003617Y016829D01*
X003647Y016834D01*
X003677Y016836D01*
X031642Y016836D01*
X031672Y016834D01*
X031702Y016829D01*
X031731Y016820D01*
X031758Y016807D01*
X031784Y016792D01*
X031808Y016773D01*
X031829Y016752D01*
X031848Y016728D01*
X031863Y016702D01*
X031876Y016675D01*
X031885Y016646D01*
X031890Y016616D01*
X031892Y016586D01*
X031892Y014008D01*
X030538Y014008D01*
X030538Y015914D01*
X030536Y015937D01*
X030531Y015960D01*
X030522Y015982D01*
X030509Y016002D01*
X030494Y016020D01*
X030476Y016035D01*
X030456Y016048D01*
X030434Y016057D01*
X030411Y016062D01*
X030388Y016064D01*
X008410Y016064D01*
X008371Y016062D01*
X008332Y016056D01*
X008294Y016047D01*
X008257Y016034D01*
X008221Y016017D01*
X008188Y015997D01*
X008156Y015973D01*
X008127Y015947D01*
X008101Y015918D01*
X008077Y015886D01*
X008057Y015853D01*
X008040Y015817D01*
X008027Y015780D01*
X008018Y015742D01*
X008012Y015703D01*
X008010Y015664D01*
X008010Y013714D01*
X008008Y013675D01*
X008002Y013636D01*
X007993Y013598D01*
X007980Y013561D01*
X007963Y013525D01*
X007943Y013492D01*
X007919Y013460D01*
X007893Y013431D01*
X007864Y013405D01*
X007832Y013381D01*
X007799Y013361D01*
X007763Y013344D01*
X007726Y013331D01*
X007688Y013322D01*
X007649Y013316D01*
X007610Y013314D01*
X005394Y013314D01*
X005355Y013312D01*
X005316Y013306D01*
X005278Y013297D01*
X005241Y013284D01*
X005205Y013267D01*
X005172Y013247D01*
X005140Y013223D01*
X005111Y013197D01*
X005085Y013168D01*
X005061Y013136D01*
X005041Y013103D01*
X005024Y013067D01*
X005011Y013030D01*
X005002Y012992D01*
X004996Y012953D01*
X004994Y012914D01*
X004994Y012233D01*
X007419Y012227D02*
X007419Y012382D01*
X007471Y012434D01*
X007677Y012434D01*
X007729Y012382D01*
X007729Y012227D01*
X007419Y012227D01*
X007419Y012103D02*
X007729Y012103D01*
X008751Y012051D02*
X008803Y012103D01*
X009010Y012103D01*
X009062Y012051D01*
X009062Y011947D01*
X009010Y011896D01*
X008803Y011896D01*
X008751Y011947D01*
X008751Y012051D01*
X008751Y012227D02*
X009062Y012227D01*
X008751Y012434D01*
X009062Y012434D01*
X009062Y012559D02*
X008751Y012559D01*
X008751Y012766D01*
X008907Y012662D02*
X008907Y012559D01*
X009062Y012559D02*
X009062Y012766D01*
X009244Y012714D02*
X009295Y012766D01*
X009399Y012766D01*
X009399Y012662D01*
X009502Y012559D02*
X009295Y012559D01*
X009244Y012610D01*
X009244Y012714D01*
X009502Y012766D02*
X009554Y012714D01*
X009554Y012610D01*
X009502Y012559D01*
X009502Y012434D02*
X009399Y012434D01*
X009347Y012382D01*
X009347Y012227D01*
X009244Y012227D02*
X009554Y012227D01*
X009554Y012382D01*
X009502Y012434D01*
X009347Y012331D02*
X009244Y012434D01*
X009244Y012103D02*
X009554Y012103D01*
X009399Y012103D02*
X009399Y011896D01*
X009244Y011896D02*
X009554Y011896D01*
X009502Y011771D02*
X009554Y011719D01*
X009554Y011616D01*
X009502Y011564D01*
X009295Y011564D01*
X009244Y011616D01*
X009244Y011719D01*
X009295Y011771D01*
X009062Y011719D02*
X009062Y011564D01*
X008751Y011564D01*
X008751Y011719D01*
X008803Y011771D01*
X009010Y011771D01*
X009062Y011719D01*
X006560Y008677D02*
X006534Y008413D01*
X006496Y008151D01*
X006446Y007891D01*
X006384Y007633D01*
X006310Y007379D01*
X006224Y007129D01*
X006126Y006882D01*
X006017Y006641D01*
X005897Y006404D01*
X005767Y006174D01*
X005625Y005950D01*
X005473Y005733D01*
X005312Y005523D01*
X005141Y005321D01*
X004960Y005127D01*
X004960Y004671D01*
X015832Y005985D02*
X015837Y006057D01*
X015880Y006107D01*
X015902Y006122D01*
X015965Y006122D01*
X016017Y006087D01*
X016040Y006042D01*
X016040Y005982D01*
X016020Y005945D01*
X015997Y005917D01*
X015965Y005902D01*
X015930Y005895D02*
X015865Y005922D01*
X015832Y005985D01*
X024142Y007651D02*
X024142Y007858D01*
X024142Y007983D02*
X024142Y008189D01*
X024142Y008314D02*
X024452Y008314D01*
X024452Y008521D01*
X024452Y008646D02*
X024452Y008852D01*
X024452Y008749D02*
X024142Y008749D01*
X024297Y008417D02*
X024297Y008314D01*
X024452Y008189D02*
X024452Y007983D01*
X024142Y007983D01*
X024297Y007983D02*
X024297Y008086D01*
X024634Y008034D02*
X024686Y007983D01*
X024893Y007983D01*
X024944Y008034D01*
X024944Y008138D01*
X024893Y008189D01*
X024789Y008189D02*
X024789Y008086D01*
X024789Y008189D02*
X024686Y008189D01*
X024634Y008138D01*
X024634Y008034D01*
X024634Y007858D02*
X024738Y007755D01*
X024738Y007806D02*
X024738Y007651D01*
X024634Y007651D02*
X024944Y007651D01*
X024944Y007806D01*
X024893Y007858D01*
X024789Y007858D01*
X024738Y007806D01*
X024452Y007651D02*
X024142Y007651D01*
X024634Y008314D02*
X024944Y008314D01*
X024789Y008314D02*
X024789Y008521D01*
X024944Y008521D02*
X024634Y008521D01*
X024634Y008749D02*
X024944Y008749D01*
X024944Y008646D02*
X024944Y008852D01*
X032917Y008890D02*
X032917Y009190D01*
X032992Y009350D02*
X032917Y009425D01*
X032917Y009575D01*
X032992Y009651D01*
X032992Y009811D02*
X032917Y009886D01*
X032917Y009961D01*
X032992Y010036D01*
X033367Y010036D01*
X033367Y009961D02*
X033367Y010111D01*
X033367Y010271D02*
X032917Y010271D01*
X032917Y010571D01*
X032992Y010731D02*
X032917Y010807D01*
X032917Y010957D01*
X032992Y011032D01*
X032992Y011192D02*
X032917Y011267D01*
X032917Y011342D01*
X032992Y011417D01*
X033367Y011417D01*
X033367Y011342D02*
X033367Y011492D01*
X033367Y011652D02*
X032917Y011652D01*
X032917Y011952D01*
X032992Y012113D02*
X032917Y012188D01*
X032917Y012338D01*
X032992Y012413D01*
X033292Y012413D02*
X033367Y012338D01*
X033367Y012188D01*
X033292Y012113D01*
X032992Y012113D01*
X033292Y011032D02*
X033367Y010957D01*
X033367Y010807D01*
X033292Y010731D01*
X032992Y010731D01*
X033292Y009651D02*
X033367Y009575D01*
X033367Y009425D01*
X033292Y009350D01*
X032992Y009350D01*
X032917Y008890D02*
X033367Y008890D01*
X033367Y008730D02*
X033367Y008580D01*
X033367Y008655D02*
X032992Y008655D01*
X032917Y008580D01*
X032917Y008505D01*
X032992Y008429D01*
X032992Y008269D02*
X032917Y008194D01*
X032917Y008044D01*
X032992Y007969D01*
X033292Y007969D01*
X033367Y008044D01*
X033367Y008194D01*
X033292Y008269D01*
X032917Y007809D02*
X032917Y007509D01*
X033367Y007509D01*
X033367Y007349D02*
X033367Y007198D01*
X033367Y007274D02*
X032992Y007274D01*
X032917Y007198D01*
X032917Y007123D01*
X032992Y007048D01*
D11*
X030666Y007152D02*
X030668Y007169D01*
X030673Y007186D01*
X030682Y007200D01*
X030694Y007213D01*
X030709Y007223D01*
X030725Y007229D01*
X030742Y007232D01*
X030759Y007231D01*
X030776Y007226D01*
X030791Y007218D01*
X030804Y007207D01*
X030815Y007193D01*
X030822Y007178D01*
X030826Y007161D01*
X030826Y007143D01*
X030822Y007126D01*
X030815Y007111D01*
X030804Y007097D01*
X030791Y007086D01*
X030776Y007078D01*
X030759Y007073D01*
X030742Y007072D01*
X030725Y007075D01*
X030709Y007081D01*
X030694Y007091D01*
X030682Y007104D01*
X030673Y007118D01*
X030668Y007135D01*
X030666Y007152D01*
X030746Y007152D02*
X030746Y007552D01*
X030746Y008152D02*
X030746Y008352D01*
X030396Y008352D01*
X030121Y016990D02*
X021871Y016990D01*
X021871Y018490D01*
X030121Y018490D01*
X030121Y016990D01*
X020765Y017691D02*
X020765Y017791D01*
X020365Y017791D01*
X020365Y017741D01*
X020365Y017691D01*
X020765Y017691D01*
X020765Y017741D02*
X020365Y017741D01*
X020365Y017691D02*
X020365Y017541D01*
X019865Y017741D01*
X020365Y017941D01*
X020365Y017791D01*
X020265Y017791D02*
X020165Y017791D01*
X020265Y017791D02*
X020265Y017691D01*
X020065Y017791D01*
X020315Y017891D01*
X020315Y017641D01*
X020015Y017741D01*
X018745Y017740D02*
X018465Y017740D01*
X018465Y017950D02*
X018465Y017530D01*
X018745Y017530D02*
X018745Y017950D01*
X018284Y017950D02*
X018004Y017950D01*
X018144Y017950D02*
X018144Y017530D01*
X017684Y017530D02*
X017684Y017950D01*
X017824Y017950D02*
X017544Y017950D01*
X017364Y017950D02*
X017154Y017950D01*
X017083Y017880D01*
X017083Y017740D01*
X017154Y017670D01*
X017364Y017670D01*
X017364Y017530D02*
X017364Y017950D01*
X016903Y017880D02*
X016903Y017810D01*
X016833Y017740D01*
X016693Y017740D01*
X016623Y017670D01*
X016623Y017600D01*
X016693Y017530D01*
X016833Y017530D01*
X016903Y017600D01*
X016443Y017600D02*
X016443Y017530D01*
X016373Y017530D01*
X016373Y017600D01*
X016443Y017600D01*
X016443Y017740D02*
X016443Y017810D01*
X016373Y017810D01*
X016373Y017740D01*
X016443Y017740D01*
X016623Y017880D02*
X016693Y017950D01*
X016833Y017950D01*
X016903Y017880D01*
X016213Y017530D02*
X015932Y017950D01*
X015752Y017530D02*
X015472Y017950D01*
X015292Y017880D02*
X015292Y017810D01*
X015222Y017740D01*
X015082Y017740D01*
X015012Y017670D01*
X015012Y017600D01*
X015082Y017530D01*
X015222Y017530D01*
X015292Y017600D01*
X014832Y017530D02*
X014832Y017950D01*
X015012Y017880D02*
X015082Y017950D01*
X015222Y017950D01*
X015292Y017880D01*
X014832Y017740D02*
X014551Y017740D01*
X014551Y017950D02*
X014551Y017530D01*
X014371Y017600D02*
X014301Y017530D01*
X014161Y017530D01*
X014091Y017600D01*
X014091Y017880D01*
X014161Y017950D01*
X014301Y017950D01*
X014371Y017880D01*
X014371Y017600D01*
X013911Y017530D02*
X013911Y017950D01*
X013701Y017950D01*
X013631Y017880D01*
X013631Y017740D01*
X013701Y017670D01*
X013911Y017670D01*
X013450Y017600D02*
X013380Y017600D01*
X013380Y017530D01*
X013450Y017530D01*
X013450Y017600D01*
X013220Y017600D02*
X013150Y017530D01*
X013010Y017530D01*
X012940Y017600D01*
X012940Y017740D01*
X013080Y017740D01*
X013220Y017880D02*
X013220Y017600D01*
X012760Y017530D02*
X012620Y017530D01*
X012690Y017530D02*
X012690Y017950D01*
X012760Y017950D02*
X012620Y017950D01*
X012453Y017950D02*
X012453Y017530D01*
X012173Y017530D01*
X011852Y017530D02*
X011852Y017950D01*
X011992Y017950D02*
X011712Y017950D01*
X011532Y017950D02*
X011532Y017530D01*
X011252Y017530D01*
X011072Y017600D02*
X011002Y017530D01*
X010861Y017530D01*
X010791Y017600D01*
X010791Y017670D01*
X010861Y017740D01*
X011002Y017740D01*
X011072Y017810D01*
X011072Y017880D01*
X011002Y017950D01*
X010861Y017950D01*
X010791Y017880D01*
X010611Y017810D02*
X010471Y017950D01*
X010331Y017810D01*
X010331Y017530D01*
X010151Y017530D02*
X010081Y017530D01*
X010081Y017600D01*
X010151Y017600D01*
X010151Y017530D01*
X009921Y017600D02*
X009851Y017530D01*
X009711Y017530D01*
X009640Y017600D01*
X009460Y017600D02*
X009390Y017530D01*
X009250Y017530D01*
X009180Y017600D01*
X009180Y017880D01*
X009250Y017950D01*
X009390Y017950D01*
X009460Y017880D01*
X009460Y017600D01*
X009000Y017530D02*
X009000Y017950D01*
X008860Y017810D01*
X008720Y017950D01*
X008720Y017530D01*
X008540Y017530D02*
X008259Y017950D01*
X008079Y017880D02*
X008009Y017950D01*
X007869Y017950D01*
X007799Y017880D01*
X007799Y017810D01*
X007939Y017670D01*
X007939Y017600D02*
X007939Y017530D01*
X007619Y017530D02*
X007619Y017950D01*
X007409Y017950D01*
X007338Y017880D01*
X007338Y017740D01*
X007409Y017670D01*
X007619Y017670D01*
X007158Y017670D02*
X006878Y017670D01*
X006878Y017810D02*
X007158Y017810D01*
X006698Y017810D02*
X006558Y017950D01*
X006558Y017530D01*
X006698Y017530D02*
X006418Y017530D01*
X006238Y017600D02*
X006167Y017530D01*
X006027Y017530D01*
X005957Y017600D01*
X005957Y017670D01*
X006027Y017740D01*
X006097Y017740D01*
X006027Y017740D02*
X005957Y017810D01*
X005957Y017880D01*
X006027Y017950D01*
X006167Y017950D01*
X006238Y017880D01*
X005777Y017880D02*
X005777Y017810D01*
X005707Y017740D01*
X005497Y017740D01*
X005497Y017600D02*
X005497Y017880D01*
X005567Y017950D01*
X005707Y017950D01*
X005777Y017880D01*
X005317Y017740D02*
X005107Y017740D01*
X005037Y017670D01*
X005037Y017600D01*
X005107Y017530D01*
X005247Y017530D01*
X005317Y017600D01*
X005317Y017740D01*
X005177Y017880D01*
X005037Y017950D01*
X005497Y017600D02*
X005567Y017530D01*
X005707Y017530D01*
X005777Y017600D01*
X009640Y017880D02*
X009711Y017950D01*
X009851Y017950D01*
X009921Y017880D01*
X009921Y017600D01*
X010331Y017740D02*
X010611Y017740D01*
X010611Y017810D02*
X010611Y017530D01*
X011252Y017950D02*
X011532Y017950D01*
X011532Y017740D02*
X011392Y017740D01*
X012940Y017880D02*
X013010Y017950D01*
X013150Y017950D01*
X013220Y017880D01*
X003138Y010448D02*
X003068Y010448D01*
X002928Y010308D01*
X002717Y010308D01*
X002928Y010308D02*
X003068Y010167D01*
X003138Y010167D01*
X003068Y009987D02*
X002998Y009987D01*
X002928Y009917D01*
X002928Y009707D01*
X003138Y009707D02*
X003138Y009917D01*
X003068Y009987D01*
X002928Y009917D02*
X002858Y009987D01*
X002787Y009987D01*
X002717Y009917D01*
X002717Y009707D01*
X003138Y009707D01*
X003068Y009148D02*
X003138Y009078D01*
X003138Y008937D01*
X003068Y008867D01*
X002787Y008867D01*
X002717Y008937D01*
X002717Y009078D01*
X002787Y009148D01*
X002717Y008687D02*
X003138Y008687D01*
X003138Y008407D02*
X002717Y008687D01*
X002717Y008407D02*
X003138Y008407D01*
X002998Y007848D02*
X002717Y007848D01*
X002928Y007848D02*
X002928Y007567D01*
X002998Y007567D02*
X003138Y007708D01*
X002998Y007848D01*
X002998Y007567D02*
X002717Y007567D01*
X002787Y007387D02*
X002717Y007317D01*
X002717Y007177D01*
X002787Y007107D01*
X002928Y007177D02*
X002928Y007317D01*
X002858Y007387D01*
X002787Y007387D01*
X002928Y007177D02*
X002998Y007107D01*
X003068Y007107D01*
X003138Y007177D01*
X003138Y007317D01*
X003068Y007387D01*
D12*
X007182Y005080D02*
X007184Y005120D01*
X007190Y005159D01*
X007200Y005198D01*
X007213Y005235D01*
X007231Y005271D01*
X007252Y005305D01*
X007276Y005337D01*
X007303Y005366D01*
X007333Y005393D01*
X007365Y005416D01*
X007400Y005436D01*
X007436Y005452D01*
X007474Y005465D01*
X007513Y005474D01*
X007552Y005479D01*
X007592Y005480D01*
X007632Y005477D01*
X007671Y005470D01*
X007709Y005459D01*
X007747Y005445D01*
X007782Y005426D01*
X007815Y005405D01*
X007847Y005380D01*
X007875Y005352D01*
X007901Y005322D01*
X007923Y005289D01*
X007942Y005254D01*
X007958Y005217D01*
X007970Y005179D01*
X007978Y005140D01*
X007982Y005100D01*
X007982Y005060D01*
X007978Y005020D01*
X007970Y004981D01*
X007958Y004943D01*
X007942Y004906D01*
X007923Y004871D01*
X007901Y004838D01*
X007875Y004808D01*
X007847Y004780D01*
X007815Y004755D01*
X007782Y004734D01*
X007747Y004715D01*
X007709Y004701D01*
X007671Y004690D01*
X007632Y004683D01*
X007592Y004680D01*
X007552Y004681D01*
X007513Y004686D01*
X007474Y004695D01*
X007436Y004708D01*
X007400Y004724D01*
X007365Y004744D01*
X007333Y004767D01*
X007303Y004794D01*
X007276Y004823D01*
X007252Y004855D01*
X007231Y004889D01*
X007213Y004925D01*
X007200Y004962D01*
X007190Y005001D01*
X007184Y005040D01*
X007182Y005080D01*
X009001Y004288D02*
X009003Y004318D01*
X009009Y004348D01*
X009018Y004377D01*
X009031Y004404D01*
X009048Y004429D01*
X009067Y004452D01*
X009090Y004473D01*
X009115Y004490D01*
X009141Y004504D01*
X009170Y004514D01*
X009199Y004521D01*
X009229Y004524D01*
X009260Y004523D01*
X009290Y004518D01*
X009319Y004509D01*
X009346Y004497D01*
X009372Y004482D01*
X009396Y004463D01*
X009417Y004441D01*
X009435Y004417D01*
X009450Y004390D01*
X009461Y004362D01*
X009469Y004333D01*
X009473Y004303D01*
X009473Y004273D01*
X009469Y004243D01*
X009461Y004214D01*
X009450Y004186D01*
X009435Y004159D01*
X009417Y004135D01*
X009396Y004113D01*
X009372Y004094D01*
X009346Y004079D01*
X009319Y004067D01*
X009290Y004058D01*
X009260Y004053D01*
X009229Y004052D01*
X009199Y004055D01*
X009170Y004062D01*
X009141Y004072D01*
X009115Y004086D01*
X009090Y004103D01*
X009067Y004124D01*
X009048Y004147D01*
X009031Y004172D01*
X009018Y004199D01*
X009009Y004228D01*
X009003Y004258D01*
X009001Y004288D01*
X011560Y004288D02*
X011562Y004318D01*
X011568Y004348D01*
X011577Y004377D01*
X011590Y004404D01*
X011607Y004429D01*
X011626Y004452D01*
X011649Y004473D01*
X011674Y004490D01*
X011700Y004504D01*
X011729Y004514D01*
X011758Y004521D01*
X011788Y004524D01*
X011819Y004523D01*
X011849Y004518D01*
X011878Y004509D01*
X011905Y004497D01*
X011931Y004482D01*
X011955Y004463D01*
X011976Y004441D01*
X011994Y004417D01*
X012009Y004390D01*
X012020Y004362D01*
X012028Y004333D01*
X012032Y004303D01*
X012032Y004273D01*
X012028Y004243D01*
X012020Y004214D01*
X012009Y004186D01*
X011994Y004159D01*
X011976Y004135D01*
X011955Y004113D01*
X011931Y004094D01*
X011905Y004079D01*
X011878Y004067D01*
X011849Y004058D01*
X011819Y004053D01*
X011788Y004052D01*
X011758Y004055D01*
X011729Y004062D01*
X011700Y004072D01*
X011674Y004086D01*
X011649Y004103D01*
X011626Y004124D01*
X011607Y004147D01*
X011590Y004172D01*
X011577Y004199D01*
X011568Y004228D01*
X011562Y004258D01*
X011560Y004288D01*
X013487Y005080D02*
X013489Y005120D01*
X013495Y005159D01*
X013505Y005198D01*
X013518Y005235D01*
X013536Y005271D01*
X013557Y005305D01*
X013581Y005337D01*
X013608Y005366D01*
X013638Y005393D01*
X013670Y005416D01*
X013705Y005436D01*
X013741Y005452D01*
X013779Y005465D01*
X013818Y005474D01*
X013857Y005479D01*
X013897Y005480D01*
X013937Y005477D01*
X013976Y005470D01*
X014014Y005459D01*
X014052Y005445D01*
X014087Y005426D01*
X014120Y005405D01*
X014152Y005380D01*
X014180Y005352D01*
X014206Y005322D01*
X014228Y005289D01*
X014247Y005254D01*
X014263Y005217D01*
X014275Y005179D01*
X014283Y005140D01*
X014287Y005100D01*
X014287Y005060D01*
X014283Y005020D01*
X014275Y004981D01*
X014263Y004943D01*
X014247Y004906D01*
X014228Y004871D01*
X014206Y004838D01*
X014180Y004808D01*
X014152Y004780D01*
X014120Y004755D01*
X014087Y004734D01*
X014052Y004715D01*
X014014Y004701D01*
X013976Y004690D01*
X013937Y004683D01*
X013897Y004680D01*
X013857Y004681D01*
X013818Y004686D01*
X013779Y004695D01*
X013741Y004708D01*
X013705Y004724D01*
X013670Y004744D01*
X013638Y004767D01*
X013608Y004794D01*
X013581Y004823D01*
X013557Y004855D01*
X013536Y004889D01*
X013518Y004925D01*
X013505Y004962D01*
X013495Y005001D01*
X013489Y005040D01*
X013487Y005080D01*
X015196Y004757D02*
X015198Y004782D01*
X015204Y004807D01*
X015213Y004830D01*
X015226Y004852D01*
X015242Y004871D01*
X015261Y004888D01*
X015282Y004902D01*
X015305Y004912D01*
X015330Y004919D01*
X015355Y004922D01*
X015380Y004921D01*
X015405Y004916D01*
X015428Y004908D01*
X015451Y004895D01*
X015471Y004880D01*
X015488Y004862D01*
X015503Y004841D01*
X015514Y004819D01*
X015522Y004795D01*
X015526Y004770D01*
X015526Y004744D01*
X015522Y004719D01*
X015514Y004695D01*
X015503Y004673D01*
X015488Y004652D01*
X015471Y004634D01*
X015451Y004619D01*
X015428Y004606D01*
X015405Y004598D01*
X015380Y004593D01*
X015355Y004592D01*
X015330Y004595D01*
X015305Y004602D01*
X015282Y004612D01*
X015261Y004626D01*
X015242Y004643D01*
X015226Y004662D01*
X015213Y004684D01*
X015204Y004707D01*
X015198Y004732D01*
X015196Y004757D01*
X017913Y004757D02*
X017915Y004782D01*
X017921Y004807D01*
X017930Y004830D01*
X017943Y004852D01*
X017959Y004871D01*
X017978Y004888D01*
X017999Y004902D01*
X018022Y004912D01*
X018047Y004919D01*
X018072Y004922D01*
X018097Y004921D01*
X018122Y004916D01*
X018145Y004908D01*
X018168Y004895D01*
X018188Y004880D01*
X018205Y004862D01*
X018220Y004841D01*
X018231Y004819D01*
X018239Y004795D01*
X018243Y004770D01*
X018243Y004744D01*
X018239Y004719D01*
X018231Y004695D01*
X018220Y004673D01*
X018205Y004652D01*
X018188Y004634D01*
X018168Y004619D01*
X018145Y004606D01*
X018122Y004598D01*
X018097Y004593D01*
X018072Y004592D01*
X018047Y004595D01*
X018022Y004602D01*
X017999Y004612D01*
X017978Y004626D01*
X017959Y004643D01*
X017943Y004662D01*
X017930Y004684D01*
X017921Y004707D01*
X017915Y004732D01*
X017913Y004757D01*
X032687Y002959D02*
X032689Y003007D01*
X032695Y003055D01*
X032705Y003102D01*
X032718Y003148D01*
X032736Y003193D01*
X032756Y003237D01*
X032781Y003279D01*
X032809Y003318D01*
X032839Y003355D01*
X032873Y003389D01*
X032910Y003421D01*
X032948Y003450D01*
X032989Y003475D01*
X033032Y003497D01*
X033077Y003515D01*
X033123Y003529D01*
X033170Y003540D01*
X033218Y003547D01*
X033266Y003550D01*
X033314Y003549D01*
X033362Y003544D01*
X033410Y003535D01*
X033456Y003523D01*
X033501Y003506D01*
X033545Y003486D01*
X033587Y003463D01*
X033627Y003436D01*
X033665Y003406D01*
X033700Y003373D01*
X033732Y003337D01*
X033762Y003299D01*
X033788Y003258D01*
X033810Y003215D01*
X033830Y003171D01*
X033845Y003126D01*
X033857Y003079D01*
X033865Y003031D01*
X033869Y002983D01*
X033869Y002935D01*
X033865Y002887D01*
X033857Y002839D01*
X033845Y002792D01*
X033830Y002747D01*
X033810Y002703D01*
X033788Y002660D01*
X033762Y002619D01*
X033732Y002581D01*
X033700Y002545D01*
X033665Y002512D01*
X033627Y002482D01*
X033587Y002455D01*
X033545Y002432D01*
X033501Y002412D01*
X033456Y002395D01*
X033410Y002383D01*
X033362Y002374D01*
X033314Y002369D01*
X033266Y002368D01*
X033218Y002371D01*
X033170Y002378D01*
X033123Y002389D01*
X033077Y002403D01*
X033032Y002421D01*
X032989Y002443D01*
X032948Y002468D01*
X032910Y002497D01*
X032873Y002529D01*
X032839Y002563D01*
X032809Y002600D01*
X032781Y002639D01*
X032756Y002681D01*
X032736Y002725D01*
X032718Y002770D01*
X032705Y002816D01*
X032695Y002863D01*
X032689Y002911D01*
X032687Y002959D01*
X032687Y015215D02*
X032689Y015263D01*
X032695Y015311D01*
X032705Y015358D01*
X032718Y015404D01*
X032736Y015449D01*
X032756Y015493D01*
X032781Y015535D01*
X032809Y015574D01*
X032839Y015611D01*
X032873Y015645D01*
X032910Y015677D01*
X032948Y015706D01*
X032989Y015731D01*
X033032Y015753D01*
X033077Y015771D01*
X033123Y015785D01*
X033170Y015796D01*
X033218Y015803D01*
X033266Y015806D01*
X033314Y015805D01*
X033362Y015800D01*
X033410Y015791D01*
X033456Y015779D01*
X033501Y015762D01*
X033545Y015742D01*
X033587Y015719D01*
X033627Y015692D01*
X033665Y015662D01*
X033700Y015629D01*
X033732Y015593D01*
X033762Y015555D01*
X033788Y015514D01*
X033810Y015471D01*
X033830Y015427D01*
X033845Y015382D01*
X033857Y015335D01*
X033865Y015287D01*
X033869Y015239D01*
X033869Y015191D01*
X033865Y015143D01*
X033857Y015095D01*
X033845Y015048D01*
X033830Y015003D01*
X033810Y014959D01*
X033788Y014916D01*
X033762Y014875D01*
X033732Y014837D01*
X033700Y014801D01*
X033665Y014768D01*
X033627Y014738D01*
X033587Y014711D01*
X033545Y014688D01*
X033501Y014668D01*
X033456Y014651D01*
X033410Y014639D01*
X033362Y014630D01*
X033314Y014625D01*
X033266Y014624D01*
X033218Y014627D01*
X033170Y014634D01*
X033123Y014645D01*
X033077Y014659D01*
X033032Y014677D01*
X032989Y014699D01*
X032948Y014724D01*
X032910Y014753D01*
X032873Y014785D01*
X032839Y014819D01*
X032809Y014856D01*
X032781Y014895D01*
X032756Y014937D01*
X032736Y014981D01*
X032718Y015026D01*
X032705Y015072D01*
X032695Y015119D01*
X032689Y015167D01*
X032687Y015215D01*
X001440Y015215D02*
X001442Y015263D01*
X001448Y015311D01*
X001458Y015358D01*
X001471Y015404D01*
X001489Y015449D01*
X001509Y015493D01*
X001534Y015535D01*
X001562Y015574D01*
X001592Y015611D01*
X001626Y015645D01*
X001663Y015677D01*
X001701Y015706D01*
X001742Y015731D01*
X001785Y015753D01*
X001830Y015771D01*
X001876Y015785D01*
X001923Y015796D01*
X001971Y015803D01*
X002019Y015806D01*
X002067Y015805D01*
X002115Y015800D01*
X002163Y015791D01*
X002209Y015779D01*
X002254Y015762D01*
X002298Y015742D01*
X002340Y015719D01*
X002380Y015692D01*
X002418Y015662D01*
X002453Y015629D01*
X002485Y015593D01*
X002515Y015555D01*
X002541Y015514D01*
X002563Y015471D01*
X002583Y015427D01*
X002598Y015382D01*
X002610Y015335D01*
X002618Y015287D01*
X002622Y015239D01*
X002622Y015191D01*
X002618Y015143D01*
X002610Y015095D01*
X002598Y015048D01*
X002583Y015003D01*
X002563Y014959D01*
X002541Y014916D01*
X002515Y014875D01*
X002485Y014837D01*
X002453Y014801D01*
X002418Y014768D01*
X002380Y014738D01*
X002340Y014711D01*
X002298Y014688D01*
X002254Y014668D01*
X002209Y014651D01*
X002163Y014639D01*
X002115Y014630D01*
X002067Y014625D01*
X002019Y014624D01*
X001971Y014627D01*
X001923Y014634D01*
X001876Y014645D01*
X001830Y014659D01*
X001785Y014677D01*
X001742Y014699D01*
X001701Y014724D01*
X001663Y014753D01*
X001626Y014785D01*
X001592Y014819D01*
X001562Y014856D01*
X001534Y014895D01*
X001509Y014937D01*
X001489Y014981D01*
X001471Y015026D01*
X001458Y015072D01*
X001448Y015119D01*
X001442Y015167D01*
X001440Y015215D01*
X001440Y002959D02*
X001442Y003007D01*
X001448Y003055D01*
X001458Y003102D01*
X001471Y003148D01*
X001489Y003193D01*
X001509Y003237D01*
X001534Y003279D01*
X001562Y003318D01*
X001592Y003355D01*
X001626Y003389D01*
X001663Y003421D01*
X001701Y003450D01*
X001742Y003475D01*
X001785Y003497D01*
X001830Y003515D01*
X001876Y003529D01*
X001923Y003540D01*
X001971Y003547D01*
X002019Y003550D01*
X002067Y003549D01*
X002115Y003544D01*
X002163Y003535D01*
X002209Y003523D01*
X002254Y003506D01*
X002298Y003486D01*
X002340Y003463D01*
X002380Y003436D01*
X002418Y003406D01*
X002453Y003373D01*
X002485Y003337D01*
X002515Y003299D01*
X002541Y003258D01*
X002563Y003215D01*
X002583Y003171D01*
X002598Y003126D01*
X002610Y003079D01*
X002618Y003031D01*
X002622Y002983D01*
X002622Y002935D01*
X002618Y002887D01*
X002610Y002839D01*
X002598Y002792D01*
X002583Y002747D01*
X002563Y002703D01*
X002541Y002660D01*
X002515Y002619D01*
X002485Y002581D01*
X002453Y002545D01*
X002418Y002512D01*
X002380Y002482D01*
X002340Y002455D01*
X002298Y002432D01*
X002254Y002412D01*
X002209Y002395D01*
X002163Y002383D01*
X002115Y002374D01*
X002067Y002369D01*
X002019Y002368D01*
X001971Y002371D01*
X001923Y002378D01*
X001876Y002389D01*
X001830Y002403D01*
X001785Y002421D01*
X001742Y002443D01*
X001701Y002468D01*
X001663Y002497D01*
X001626Y002529D01*
X001592Y002563D01*
X001562Y002600D01*
X001534Y002639D01*
X001509Y002681D01*
X001489Y002725D01*
X001471Y002770D01*
X001458Y002816D01*
X001448Y002863D01*
X001442Y002911D01*
X001440Y002959D01*
D13*
X016247Y006807D02*
X016237Y006887D01*
X016257Y006947D01*
X016307Y006987D01*
X016377Y006987D01*
X016437Y006947D01*
X016477Y006887D01*
X016507Y006807D01*
X016507Y006727D01*
X016487Y006677D01*
X016447Y006647D01*
X016367Y006637D01*
X016347Y006657D02*
X016317Y006677D01*
X016277Y006727D01*
X016247Y006807D01*
X022162Y017307D02*
X022162Y017627D01*
X022376Y017627D02*
X022162Y017307D01*
X022376Y017307D02*
X022376Y017627D01*
X022512Y017574D02*
X022566Y017627D01*
X022672Y017627D01*
X022726Y017574D01*
X022726Y017361D01*
X022672Y017307D01*
X022566Y017307D01*
X022512Y017361D01*
X022512Y017574D01*
X022852Y017627D02*
X022959Y017627D01*
X022906Y017627D02*
X022906Y017307D01*
X022959Y017307D02*
X022852Y017307D01*
X023202Y017307D02*
X023202Y017627D01*
X023309Y017627D02*
X023095Y017627D01*
X023329Y017857D02*
X023435Y017964D01*
X023382Y017964D02*
X023542Y017964D01*
X023542Y017857D02*
X023542Y018177D01*
X023382Y018177D01*
X023329Y018124D01*
X023329Y018017D01*
X023382Y017964D01*
X023679Y017911D02*
X023679Y018124D01*
X023732Y018177D01*
X023839Y018177D01*
X023892Y018124D01*
X023892Y017911D01*
X023839Y017857D01*
X023732Y017857D01*
X023679Y017911D01*
X023552Y017627D02*
X023445Y017521D01*
X023445Y017307D01*
X023445Y017467D02*
X023659Y017467D01*
X023659Y017521D02*
X023552Y017627D01*
X023659Y017521D02*
X023659Y017307D01*
X023795Y017307D02*
X024009Y017307D01*
X024009Y017627D01*
X024242Y017857D02*
X024242Y018177D01*
X024028Y018177D01*
X024135Y018017D02*
X024242Y018017D01*
X024359Y017627D02*
X024359Y017307D01*
X024145Y017307D01*
X024495Y017307D02*
X024495Y017521D01*
X024602Y017627D01*
X024709Y017521D01*
X024709Y017307D01*
X024709Y017467D02*
X024495Y017467D01*
X024845Y017627D02*
X025058Y017627D01*
X024952Y017627D02*
X024952Y017307D01*
X025195Y017361D02*
X025248Y017307D01*
X025355Y017307D01*
X025408Y017361D01*
X025355Y017467D02*
X025248Y017467D01*
X025195Y017414D01*
X025195Y017361D01*
X025355Y017467D02*
X025408Y017521D01*
X025408Y017574D01*
X025355Y017627D01*
X025248Y017627D01*
X025195Y017574D01*
X025545Y017627D02*
X025545Y017307D01*
X025758Y017627D01*
X025758Y017307D01*
X025885Y017307D02*
X025991Y017307D01*
X025938Y017307D02*
X025938Y017627D01*
X025991Y017627D02*
X025885Y017627D01*
X025821Y017857D02*
X025715Y017857D01*
X025661Y017911D01*
X025661Y018177D01*
X025525Y018177D02*
X025418Y018177D01*
X025472Y018177D02*
X025472Y017857D01*
X025525Y017857D02*
X025418Y017857D01*
X025292Y017857D02*
X025132Y017857D01*
X025078Y017911D01*
X025078Y018124D01*
X025132Y018177D01*
X025292Y018177D01*
X025292Y017857D01*
X024942Y017857D02*
X024942Y018177D01*
X024728Y018177D01*
X024835Y018017D02*
X024942Y018017D01*
X024942Y017857D02*
X024728Y017857D01*
X025821Y017857D02*
X025875Y017911D01*
X025875Y018177D01*
X026011Y018124D02*
X026065Y018177D01*
X026171Y018177D01*
X026225Y018124D01*
X026225Y017911D01*
X026171Y017857D01*
X026065Y017857D01*
X026011Y017911D01*
X026011Y018017D01*
X026118Y018017D01*
X026711Y017857D02*
X026925Y017857D01*
X026925Y018177D01*
X026711Y018177D01*
X026818Y018017D02*
X026925Y018017D01*
X027061Y018017D02*
X027274Y018017D01*
X027274Y017857D02*
X027274Y018177D01*
X027411Y018177D02*
X027624Y018177D01*
X027518Y018177D02*
X027518Y017857D01*
X027581Y017627D02*
X027688Y017627D01*
X027741Y017574D01*
X027741Y017521D01*
X027688Y017467D01*
X027581Y017467D01*
X027527Y017414D01*
X027527Y017361D01*
X027581Y017307D01*
X027688Y017307D01*
X027741Y017361D01*
X027877Y017361D02*
X027931Y017307D01*
X028037Y017307D01*
X028091Y017361D01*
X028037Y017467D02*
X027931Y017467D01*
X027877Y017414D01*
X027877Y017361D01*
X028037Y017467D02*
X028091Y017521D01*
X028091Y017574D01*
X028037Y017627D01*
X027931Y017627D01*
X027877Y017574D01*
X027581Y017627D02*
X027527Y017574D01*
X027391Y017627D02*
X027178Y017627D01*
X027041Y017627D02*
X027041Y017361D01*
X026988Y017307D01*
X026881Y017307D01*
X026828Y017361D01*
X026828Y017627D01*
X026691Y017627D02*
X026691Y017307D01*
X026478Y017307D01*
X027061Y017857D02*
X027061Y018177D01*
X027391Y017627D02*
X027391Y017307D01*
X027391Y017467D02*
X027284Y017467D01*
X028111Y017911D02*
X028111Y018124D01*
X028164Y018177D01*
X028324Y018177D01*
X028324Y017857D01*
X028164Y017857D01*
X028111Y017911D01*
X028227Y017627D02*
X028441Y017627D01*
X028441Y017307D01*
X028227Y017307D01*
X028334Y017467D02*
X028441Y017467D01*
X028577Y017361D02*
X028631Y017307D01*
X028737Y017307D01*
X028791Y017361D01*
X028791Y017574D01*
X028737Y017627D01*
X028631Y017627D01*
X028577Y017574D01*
X028927Y017574D02*
X028980Y017627D01*
X029087Y017627D01*
X029141Y017574D01*
X029141Y017361D01*
X029087Y017307D01*
X028980Y017307D01*
X028927Y017361D01*
X029277Y017361D02*
X029277Y017627D01*
X029490Y017627D02*
X029490Y017361D01*
X029437Y017307D01*
X029330Y017307D01*
X029277Y017361D01*
X029627Y017361D02*
X029680Y017307D01*
X029787Y017307D01*
X029840Y017361D01*
X029787Y017467D02*
X029680Y017467D01*
X029627Y017414D01*
X029627Y017361D01*
X029787Y017467D02*
X029840Y017521D01*
X029840Y017574D01*
X029787Y017627D01*
X029680Y017627D01*
X029627Y017574D01*
X029374Y017857D02*
X029374Y018177D01*
X029214Y018177D01*
X029160Y018124D01*
X029160Y018017D01*
X029214Y017964D01*
X029374Y017964D01*
X029267Y017964D02*
X029160Y017857D01*
X029024Y017857D02*
X028810Y017857D01*
X028674Y017857D02*
X028674Y018071D01*
X028567Y018177D01*
X028461Y018071D01*
X028461Y017857D01*
X028461Y018017D02*
X028674Y018017D01*
X028810Y018177D02*
X029024Y018177D01*
X029024Y017857D01*
X029024Y018017D02*
X028917Y018017D01*
X022842Y018017D02*
X022629Y018017D01*
X022629Y018071D02*
X022629Y017857D01*
X022842Y017857D02*
X022842Y018071D01*
X022736Y018177D01*
X022629Y018071D01*
D14*
X029446Y008602D02*
X029446Y008352D01*
X029646Y008352D01*
X029446Y008352D02*
X029446Y008102D01*
X002127Y011177D02*
X002149Y011197D01*
X002168Y011220D01*
X002184Y011245D01*
X002197Y011272D01*
X002206Y011300D01*
X002212Y011330D01*
X002214Y011359D01*
X002212Y011389D01*
X002207Y011418D01*
X002198Y011447D01*
X002185Y011474D01*
X002169Y011499D01*
X002150Y011522D01*
X002128Y011542D01*
X002104Y011560D01*
X002078Y011574D01*
X002050Y011585D01*
X002021Y011593D01*
X001992Y011597D01*
X001962Y011597D01*
X001933Y011593D01*
X001904Y011585D01*
X001876Y011574D01*
X001850Y011560D01*
X001826Y011542D01*
X001804Y011522D01*
X001785Y011499D01*
X001769Y011474D01*
X001756Y011447D01*
X001747Y011418D01*
X001742Y011389D01*
X001740Y011359D01*
X001742Y011330D01*
X001748Y011300D01*
X001757Y011272D01*
X001770Y011245D01*
X001786Y011220D01*
X001805Y011197D01*
X001827Y011177D01*
X001827Y011777D02*
X001805Y011797D01*
X001786Y011820D01*
X001770Y011845D01*
X001757Y011872D01*
X001748Y011900D01*
X001742Y011930D01*
X001740Y011959D01*
X001742Y011989D01*
X001747Y012018D01*
X001756Y012047D01*
X001769Y012074D01*
X001785Y012099D01*
X001804Y012122D01*
X001826Y012142D01*
X001850Y012160D01*
X001876Y012174D01*
X001904Y012185D01*
X001933Y012193D01*
X001962Y012197D01*
X001992Y012197D01*
X002021Y012193D01*
X002050Y012185D01*
X002078Y012174D01*
X002104Y012160D01*
X002128Y012142D01*
X002150Y012122D01*
X002169Y012099D01*
X002185Y012074D01*
X002198Y012047D01*
X002207Y012018D01*
X002212Y011989D01*
X002214Y011959D01*
X002212Y011930D01*
X002206Y011900D01*
X002197Y011872D01*
X002184Y011845D01*
X002168Y011820D01*
X002149Y011797D01*
X002127Y011777D01*
D15*
X030647Y007962D02*
X030647Y007742D01*
X030702Y007687D01*
X030812Y007687D01*
X030867Y007742D01*
X030867Y007852D02*
X030757Y007852D01*
X030867Y007852D02*
X030867Y007962D01*
X030812Y008017D01*
X030702Y008017D01*
X030647Y007962D01*
D16*
X003327Y006977D02*
X003327Y012527D01*
X003325Y012550D01*
X003320Y012573D01*
X003311Y012595D01*
X003298Y012615D01*
X003283Y012633D01*
X003265Y012648D01*
X003245Y012661D01*
X003223Y012670D01*
X003200Y012675D01*
X003177Y012677D01*
X001177Y012677D01*
X001154Y012675D01*
X001131Y012670D01*
X001109Y012661D01*
X001089Y012648D01*
X001071Y012633D01*
X001056Y012615D01*
X001043Y012595D01*
X001034Y012573D01*
X001029Y012550D01*
X001027Y012527D01*
X001027Y006977D01*
X001029Y006954D01*
X001034Y006931D01*
X001043Y006909D01*
X001056Y006889D01*
X001071Y006871D01*
X001089Y006856D01*
X001109Y006843D01*
X001131Y006834D01*
X001154Y006829D01*
X001177Y006827D01*
X003177Y006827D01*
X003200Y006829D01*
X003223Y006834D01*
X003245Y006843D01*
X003265Y006856D01*
X003283Y006871D01*
X003298Y006889D01*
X003311Y006909D01*
X003320Y006931D01*
X003325Y006954D01*
X003327Y006977D01*
X002527Y006827D02*
X002527Y010877D01*
X002127Y010187D02*
X001857Y010187D01*
X001857Y010257D01*
X001697Y010257D01*
X001697Y010047D01*
X001857Y010047D01*
X001857Y010117D01*
X002127Y010117D01*
X002127Y010187D01*
X001797Y010207D02*
X001797Y010137D01*
X001747Y010137D01*
X001236Y010177D02*
X001238Y010223D01*
X001244Y010268D01*
X001253Y010313D01*
X001267Y010357D01*
X001284Y010400D01*
X001305Y010441D01*
X001329Y010480D01*
X001356Y010517D01*
X001386Y010551D01*
X001420Y010583D01*
X001455Y010612D01*
X001493Y010638D01*
X001533Y010660D01*
X001575Y010679D01*
X001619Y010694D01*
X001663Y010706D01*
X001708Y010714D01*
X001754Y010718D01*
X001800Y010718D01*
X001846Y010714D01*
X001891Y010706D01*
X001935Y010694D01*
X001979Y010679D01*
X002021Y010660D01*
X002061Y010638D01*
X002099Y010612D01*
X002134Y010583D01*
X002168Y010551D01*
X002198Y010517D01*
X002225Y010480D01*
X002249Y010441D01*
X002270Y010400D01*
X002287Y010357D01*
X002301Y010313D01*
X002310Y010268D01*
X002316Y010223D01*
X002318Y010177D01*
X002316Y010131D01*
X002310Y010086D01*
X002301Y010041D01*
X002287Y009997D01*
X002270Y009954D01*
X002249Y009913D01*
X002225Y009874D01*
X002198Y009837D01*
X002168Y009803D01*
X002134Y009771D01*
X002099Y009742D01*
X002061Y009716D01*
X002021Y009694D01*
X001979Y009675D01*
X001935Y009660D01*
X001891Y009648D01*
X001846Y009640D01*
X001800Y009636D01*
X001754Y009636D01*
X001708Y009640D01*
X001663Y009648D01*
X001619Y009660D01*
X001575Y009675D01*
X001533Y009694D01*
X001493Y009716D01*
X001455Y009742D01*
X001420Y009771D01*
X001386Y009803D01*
X001356Y009837D01*
X001329Y009874D01*
X001305Y009913D01*
X001284Y009954D01*
X001267Y009997D01*
X001253Y010041D01*
X001244Y010086D01*
X001238Y010131D01*
X001236Y010177D01*
X001447Y010157D02*
X001449Y010170D01*
X001454Y010183D01*
X001463Y010194D01*
X001474Y010201D01*
X001487Y010206D01*
X001500Y010207D01*
X001514Y010204D01*
X001526Y010198D01*
X001536Y010189D01*
X001543Y010177D01*
X001547Y010164D01*
X001547Y010150D01*
X001543Y010137D01*
X001536Y010125D01*
X001526Y010116D01*
X001514Y010110D01*
X001500Y010107D01*
X001487Y010108D01*
X001474Y010113D01*
X001463Y010120D01*
X001454Y010131D01*
X001449Y010144D01*
X001447Y010157D01*
X001727Y010207D02*
X001797Y010207D01*
X001727Y010217D02*
X001727Y010207D01*
X001567Y009357D02*
X002007Y008397D01*
X001767Y007937D02*
X001887Y007817D01*
X001747Y007737D01*
X001767Y007937D01*
X001236Y007577D02*
X001238Y007623D01*
X001244Y007668D01*
X001253Y007713D01*
X001267Y007757D01*
X001284Y007800D01*
X001305Y007841D01*
X001329Y007880D01*
X001356Y007917D01*
X001386Y007951D01*
X001420Y007983D01*
X001455Y008012D01*
X001493Y008038D01*
X001533Y008060D01*
X001575Y008079D01*
X001619Y008094D01*
X001663Y008106D01*
X001708Y008114D01*
X001754Y008118D01*
X001800Y008118D01*
X001846Y008114D01*
X001891Y008106D01*
X001935Y008094D01*
X001979Y008079D01*
X002021Y008060D01*
X002061Y008038D01*
X002099Y008012D01*
X002134Y007983D01*
X002168Y007951D01*
X002198Y007917D01*
X002225Y007880D01*
X002249Y007841D01*
X002270Y007800D01*
X002287Y007757D01*
X002301Y007713D01*
X002310Y007668D01*
X002316Y007623D01*
X002318Y007577D01*
X002316Y007531D01*
X002310Y007486D01*
X002301Y007441D01*
X002287Y007397D01*
X002270Y007354D01*
X002249Y007313D01*
X002225Y007274D01*
X002198Y007237D01*
X002168Y007203D01*
X002134Y007171D01*
X002099Y007142D01*
X002061Y007116D01*
X002021Y007094D01*
X001979Y007075D01*
X001935Y007060D01*
X001891Y007048D01*
X001846Y007040D01*
X001800Y007036D01*
X001754Y007036D01*
X001708Y007040D01*
X001663Y007048D01*
X001619Y007060D01*
X001575Y007075D01*
X001533Y007094D01*
X001493Y007116D01*
X001455Y007142D01*
X001420Y007171D01*
X001386Y007203D01*
X001356Y007237D01*
X001329Y007274D01*
X001305Y007313D01*
X001284Y007354D01*
X001267Y007397D01*
X001253Y007441D01*
X001244Y007486D01*
X001238Y007531D01*
X001236Y007577D01*
X001767Y007857D02*
X001733Y007852D01*
X001699Y007843D01*
X001667Y007831D01*
X001636Y007815D01*
X001607Y007796D01*
X001580Y007773D01*
X001556Y007748D01*
X001535Y007720D01*
X001517Y007690D01*
X001503Y007659D01*
X001492Y007626D01*
X001485Y007592D01*
X001482Y007557D01*
X001483Y007522D01*
X001488Y007488D01*
X001496Y007454D01*
X001508Y007421D01*
X001524Y007390D01*
X001543Y007361D01*
X001565Y007334D01*
X001590Y007310D01*
X001617Y007289D01*
X001647Y007271D01*
X001679Y007256D01*
X001712Y007245D01*
X001746Y007238D01*
X001780Y007234D01*
X001815Y007235D01*
X001850Y007239D01*
X001884Y007247D01*
X001916Y007259D01*
X001947Y007274D01*
X001977Y007293D01*
X002004Y007315D01*
X002028Y007340D01*
X002050Y007367D01*
X002068Y007397D01*
X002083Y007428D01*
X002094Y007461D01*
X002102Y007495D01*
X002106Y007530D01*
X002105Y007564D01*
X002101Y007599D01*
X002094Y007633D01*
X002082Y007666D01*
X002067Y007697D01*
X002047Y008877D02*
X002127Y008877D01*
X002027Y008817D02*
X002015Y008801D01*
X002000Y008786D01*
X001983Y008775D01*
X001964Y008766D01*
X001944Y008761D01*
X001923Y008759D01*
X001902Y008761D01*
X001882Y008766D01*
X001863Y008775D01*
X001846Y008786D01*
X001831Y008801D01*
X001819Y008818D01*
X001810Y008836D01*
X001804Y008856D01*
X001801Y008877D01*
X001802Y008897D01*
X001807Y008918D01*
X001236Y008877D02*
X001238Y008923D01*
X001244Y008968D01*
X001253Y009013D01*
X001267Y009057D01*
X001284Y009100D01*
X001305Y009141D01*
X001329Y009180D01*
X001356Y009217D01*
X001386Y009251D01*
X001420Y009283D01*
X001455Y009312D01*
X001493Y009338D01*
X001533Y009360D01*
X001575Y009379D01*
X001619Y009394D01*
X001663Y009406D01*
X001708Y009414D01*
X001754Y009418D01*
X001800Y009418D01*
X001846Y009414D01*
X001891Y009406D01*
X001935Y009394D01*
X001979Y009379D01*
X002021Y009360D01*
X002061Y009338D01*
X002099Y009312D01*
X002134Y009283D01*
X002168Y009251D01*
X002198Y009217D01*
X002225Y009180D01*
X002249Y009141D01*
X002270Y009100D01*
X002287Y009057D01*
X002301Y009013D01*
X002310Y008968D01*
X002316Y008923D01*
X002318Y008877D01*
X002316Y008831D01*
X002310Y008786D01*
X002301Y008741D01*
X002287Y008697D01*
X002270Y008654D01*
X002249Y008613D01*
X002225Y008574D01*
X002198Y008537D01*
X002168Y008503D01*
X002134Y008471D01*
X002099Y008442D01*
X002061Y008416D01*
X002021Y008394D01*
X001979Y008375D01*
X001935Y008360D01*
X001891Y008348D01*
X001846Y008340D01*
X001800Y008336D01*
X001754Y008336D01*
X001708Y008340D01*
X001663Y008348D01*
X001619Y008360D01*
X001575Y008375D01*
X001533Y008394D01*
X001493Y008416D01*
X001455Y008442D01*
X001420Y008471D01*
X001386Y008503D01*
X001356Y008537D01*
X001329Y008574D01*
X001305Y008613D01*
X001284Y008654D01*
X001267Y008697D01*
X001253Y008741D01*
X001244Y008786D01*
X001238Y008831D01*
X001236Y008877D01*
X001487Y008877D02*
X001567Y008877D01*
X001627Y008777D02*
X001614Y008793D01*
X001603Y008811D01*
X001596Y008830D01*
X001592Y008851D01*
X001593Y008871D01*
X001596Y008892D01*
X001604Y008911D01*
X001615Y008929D01*
X001629Y008944D01*
X001645Y008957D01*
X001663Y008966D01*
X001683Y008972D01*
X001704Y008975D01*
X001724Y008974D01*
X001744Y008969D01*
X001763Y008960D01*
X001780Y008949D01*
X001795Y008934D01*
X001807Y008917D01*
X001988Y008998D02*
X002005Y008983D01*
X002020Y008966D01*
X002031Y008947D01*
X002040Y008926D01*
X002045Y008904D01*
X002046Y008882D01*
X002043Y008860D01*
X002037Y008838D01*
X002028Y008818D01*
X002528Y010877D02*
X002579Y010909D01*
X002628Y010944D01*
X002675Y010982D01*
X002719Y011024D01*
X002761Y011068D01*
X002799Y011115D01*
X002834Y011164D01*
X002866Y011215D01*
X002895Y011268D01*
X002920Y011323D01*
X002941Y011380D01*
X002959Y011438D01*
X002972Y011497D01*
X002982Y011556D01*
X002988Y011617D01*
X002990Y011677D01*
X002988Y011737D01*
X002982Y011798D01*
X002972Y011857D01*
X002959Y011916D01*
X002941Y011974D01*
X002920Y012031D01*
X002895Y012086D01*
X002866Y012139D01*
X002834Y012190D01*
X002799Y012239D01*
X002761Y012286D01*
X002719Y012330D01*
X002675Y012372D01*
X002628Y012410D01*
X002579Y012445D01*
X002528Y012477D01*
X002527Y012477D02*
X002527Y012677D01*
X001270Y011677D02*
X001272Y011730D01*
X001278Y011782D01*
X001288Y011834D01*
X001301Y011885D01*
X001319Y011935D01*
X001340Y011984D01*
X001365Y012031D01*
X001393Y012075D01*
X001424Y012118D01*
X001459Y012158D01*
X001496Y012195D01*
X001536Y012230D01*
X001579Y012261D01*
X001624Y012289D01*
X001670Y012314D01*
X001719Y012335D01*
X001769Y012353D01*
X001820Y012366D01*
X001872Y012376D01*
X001924Y012382D01*
X001977Y012384D01*
X002030Y012382D01*
X002082Y012376D01*
X002134Y012366D01*
X002185Y012353D01*
X002235Y012335D01*
X002284Y012314D01*
X002331Y012289D01*
X002375Y012261D01*
X002418Y012230D01*
X002458Y012195D01*
X002495Y012158D01*
X002530Y012118D01*
X002561Y012075D01*
X002589Y012030D01*
X002614Y011984D01*
X002635Y011935D01*
X002653Y011885D01*
X002666Y011834D01*
X002676Y011782D01*
X002682Y011730D01*
X002684Y011677D01*
X002682Y011624D01*
X002676Y011572D01*
X002666Y011520D01*
X002653Y011469D01*
X002635Y011419D01*
X002614Y011370D01*
X002589Y011323D01*
X002561Y011279D01*
X002530Y011236D01*
X002495Y011196D01*
X002458Y011159D01*
X002418Y011124D01*
X002375Y011093D01*
X002330Y011065D01*
X002284Y011040D01*
X002235Y011019D01*
X002185Y011001D01*
X002134Y010988D01*
X002082Y010978D01*
X002030Y010972D01*
X001977Y010970D01*
X001924Y010972D01*
X001872Y010978D01*
X001820Y010988D01*
X001769Y011001D01*
X001719Y011019D01*
X001670Y011040D01*
X001623Y011065D01*
X001579Y011093D01*
X001536Y011124D01*
X001496Y011159D01*
X001459Y011196D01*
X001424Y011236D01*
X001393Y011279D01*
X001365Y011324D01*
X001340Y011370D01*
X001319Y011419D01*
X001301Y011469D01*
X001288Y011520D01*
X001278Y011572D01*
X001272Y011624D01*
X001270Y011677D01*
D17*
X015390Y006077D02*
X015385Y006062D01*
X015382Y006040D01*
X015382Y005885D01*
X015427Y005885D01*
X015427Y006057D01*
X015435Y006075D01*
X015445Y006090D01*
X015460Y006095D01*
X015470Y006100D01*
X015510Y006100D01*
X015527Y006085D01*
X015537Y006070D01*
X015540Y006065D01*
X015540Y005885D01*
X015585Y005885D01*
X015585Y006065D01*
X015597Y006082D01*
X015610Y006092D01*
X015630Y006102D01*
X015660Y006102D01*
X015677Y006095D01*
X015687Y006085D01*
X015695Y006072D01*
X015702Y006057D01*
X015702Y005882D01*
X015745Y005882D01*
X015745Y006055D01*
X015735Y006090D01*
X015720Y006115D01*
X015697Y006132D01*
X015665Y006145D01*
X015625Y006145D01*
X015605Y006137D01*
X015580Y006122D01*
X015570Y006112D01*
X015560Y006112D01*
X015547Y006120D01*
X015532Y006132D01*
X015515Y006142D01*
X015502Y006145D01*
X015467Y006145D01*
X015450Y006140D01*
X015430Y006130D01*
X015412Y006115D01*
X015400Y006100D01*
X015390Y006077D01*
X015810Y006040D02*
X015817Y006067D01*
X015827Y006087D01*
X015865Y006125D01*
X015892Y006140D01*
X015920Y006145D01*
X015962Y006145D01*
X015990Y006135D01*
X016017Y006117D01*
X016040Y006095D01*
X016055Y006072D01*
X016065Y006035D01*
X016065Y005987D01*
X016060Y005970D01*
X016052Y005950D01*
X016042Y005932D01*
X016025Y005915D01*
X016005Y005897D01*
X015985Y005887D01*
X015960Y005880D01*
X015950Y005880D01*
X015947Y005880D02*
X015915Y005880D01*
X015892Y005885D01*
X015867Y005895D01*
X015845Y005915D01*
X015827Y005940D01*
X015815Y005957D01*
X015810Y005982D01*
X015810Y006040D01*
X015857Y006037D02*
X015865Y006057D01*
X015877Y006077D01*
X015892Y006092D01*
X015907Y006100D01*
X015915Y006102D01*
X015955Y006102D01*
X015972Y006097D01*
X015992Y006085D01*
X016002Y006072D01*
X016015Y006052D01*
X016020Y006037D01*
X016020Y005987D01*
X016010Y005965D01*
X015997Y005945D01*
X015980Y005930D01*
X015962Y005920D01*
X015922Y005920D01*
X015930Y005917D02*
X015910Y005922D01*
X015890Y005932D01*
X015877Y005945D01*
X015865Y005962D01*
X015860Y005975D01*
X015857Y005985D01*
X015857Y006037D01*
X016117Y006097D02*
X016117Y006140D01*
X016167Y006140D01*
X016190Y006137D01*
X016212Y006130D01*
X016237Y006115D01*
X016255Y006097D01*
X016267Y006082D01*
X016277Y006062D01*
X016285Y006042D01*
X016290Y006025D01*
X016290Y005995D01*
X016285Y005970D01*
X016272Y005945D01*
X016260Y005930D01*
X016245Y005915D01*
X016225Y005900D01*
X016207Y005892D01*
X016187Y005887D01*
X016160Y005882D01*
X016117Y005882D01*
X016117Y005925D01*
X016167Y005925D01*
X016185Y005930D01*
X016207Y005940D01*
X016225Y005957D01*
X016237Y005975D01*
X016242Y005987D01*
X016245Y005992D01*
X016245Y006032D01*
X016235Y006047D01*
X016222Y006070D01*
X016200Y006085D01*
X016185Y006092D01*
X016160Y006097D01*
X016117Y006097D01*
X016132Y006112D02*
X016187Y006110D01*
X016232Y006077D01*
X016257Y006042D01*
X016255Y005977D01*
X016225Y005935D01*
X016187Y005915D01*
X016132Y005910D01*
X016127Y005895D02*
X016195Y005900D01*
X016245Y005932D01*
X016272Y005980D01*
X016272Y006047D01*
X016235Y006097D01*
X016187Y006125D01*
X016132Y006127D01*
X016132Y006112D01*
X016162Y005882D02*
X016160Y005882D01*
X016367Y005897D02*
X016367Y005915D01*
X016372Y005925D01*
X016385Y005937D01*
X016407Y005937D01*
X016417Y005930D01*
X016425Y005920D01*
X016425Y005900D01*
X016422Y005892D01*
X016412Y005882D01*
X016402Y005880D01*
X016385Y005897D01*
X016382Y005915D01*
X016395Y005925D01*
X016407Y005915D01*
X016405Y005900D01*
X016397Y005907D01*
X016397Y005880D02*
X016387Y005880D01*
X016380Y005882D01*
X016370Y005890D01*
X016367Y005897D01*
X016512Y005885D02*
X016512Y006025D01*
X016517Y006050D01*
X016525Y006070D01*
X016540Y006097D01*
X016560Y006117D01*
X016590Y006135D01*
X016610Y006142D01*
X016625Y006145D01*
X016665Y006145D01*
X016690Y006137D01*
X016712Y006127D01*
X016735Y006107D01*
X016752Y006085D01*
X016762Y006062D01*
X016770Y006037D01*
X016770Y005987D01*
X016757Y005950D01*
X016737Y005920D01*
X016720Y005902D01*
X016697Y005892D01*
X016667Y005880D01*
X016625Y005880D01*
X016577Y005895D01*
X016572Y005897D01*
X016565Y005897D01*
X016555Y005885D01*
X016547Y005885D01*
X016542Y005885D02*
X016512Y005885D01*
X016525Y005892D02*
X016530Y006030D01*
X016552Y006090D01*
X016582Y006112D01*
X016627Y006127D01*
X016672Y006127D01*
X016712Y006110D01*
X016747Y006062D01*
X016755Y006030D01*
X016752Y005977D01*
X016712Y005915D01*
X016665Y005892D01*
X016622Y005897D01*
X016580Y005915D01*
X016560Y005907D01*
X016545Y005897D01*
X016545Y005907D01*
X016575Y005925D01*
X016540Y005915D01*
X016550Y005937D01*
X016540Y005937D01*
X016547Y006037D01*
X016575Y006095D01*
X016632Y006115D01*
X016690Y006107D01*
X016730Y006070D01*
X016740Y005995D01*
X016725Y005952D01*
X016695Y005917D01*
X016622Y005902D01*
X016617Y005917D02*
X016597Y005925D01*
X016580Y005937D01*
X016577Y005940D01*
X016570Y005932D01*
X016562Y005937D02*
X016560Y005940D01*
X016557Y005945D01*
X016560Y006040D01*
X016565Y006052D01*
X016575Y006072D01*
X016592Y006090D01*
X016612Y006100D01*
X016620Y006102D01*
X016662Y006102D01*
X016685Y006095D01*
X016702Y006082D01*
X016715Y006065D01*
X016725Y006047D01*
X016725Y005977D01*
X016715Y005962D01*
X016697Y005937D01*
X016677Y005922D01*
X016660Y005917D01*
X016617Y005917D01*
X016827Y005927D02*
X016827Y005970D01*
X016835Y005990D01*
X016852Y006005D01*
X016960Y006052D01*
X016970Y006062D01*
X016972Y006067D01*
X016972Y006085D01*
X016967Y006095D01*
X016965Y006097D01*
X016957Y006100D01*
X016840Y006100D01*
X016840Y006140D01*
X016952Y006140D01*
X016975Y006135D01*
X016990Y006127D01*
X017005Y006112D01*
X017015Y006097D01*
X017017Y006080D01*
X017017Y006065D01*
X017010Y006047D01*
X016997Y006030D01*
X016960Y006005D01*
X016882Y005972D01*
X016872Y005960D01*
X016867Y005947D01*
X016877Y005935D01*
X016890Y005925D01*
X017017Y005925D01*
X017017Y005885D01*
X016902Y005885D01*
X016862Y005892D01*
X016842Y005905D01*
X016827Y005927D01*
X016842Y005930D02*
X016850Y005980D01*
X016872Y006002D01*
X016977Y006047D01*
X016990Y006067D01*
X016980Y006097D01*
X016965Y006112D01*
X016855Y006115D01*
X016852Y006125D01*
X016965Y006122D01*
X016995Y006107D01*
X017000Y006060D01*
X016975Y006030D01*
X016870Y005982D01*
X016860Y005952D01*
X016855Y005932D01*
X016880Y005915D01*
X016890Y005910D02*
X017005Y005910D01*
X017010Y005907D01*
X016982Y005905D01*
X017007Y005897D02*
X016880Y005900D01*
X016890Y005910D01*
X016872Y005900D02*
X016842Y005930D01*
X017015Y005887D02*
X017017Y005885D01*
X017095Y005930D02*
X017112Y005910D01*
X017130Y005897D01*
X017150Y005887D01*
X017172Y005880D01*
X017222Y005880D01*
X017242Y005885D01*
X017267Y005895D01*
X017287Y005910D01*
X017305Y005930D01*
X017322Y005960D01*
X017330Y005985D01*
X017332Y006010D01*
X017327Y006040D01*
X017320Y006067D01*
X017295Y006105D01*
X017270Y006125D01*
X017242Y006140D01*
X017225Y006145D01*
X017177Y006145D01*
X017150Y006137D01*
X017127Y006125D01*
X017110Y006110D01*
X017092Y006090D01*
X017077Y006067D01*
X017247Y005972D01*
X017245Y005972D02*
X017265Y006002D01*
X017150Y006070D01*
X017152Y006082D01*
X017160Y006095D01*
X017172Y006102D01*
X017225Y006102D01*
X017247Y006090D01*
X017267Y006070D01*
X017275Y006057D01*
X017282Y006047D01*
X017285Y006017D01*
X017285Y005995D01*
X017275Y005970D01*
X017262Y005945D01*
X017242Y005932D01*
X017227Y005925D01*
X017220Y005920D01*
X017180Y005920D01*
X017165Y005927D01*
X017147Y005940D01*
X017132Y005955D01*
X017122Y005972D01*
X017115Y006002D01*
X017070Y005995D01*
X017080Y005962D01*
X017095Y005930D01*
X017112Y005930D02*
X017087Y005987D01*
X017105Y005985D02*
X017120Y005942D01*
X017167Y005912D01*
X017182Y005905D01*
X017225Y005905D01*
X017272Y005930D01*
X017300Y005992D01*
X017295Y006052D01*
X017275Y006087D01*
X017232Y006112D01*
X017180Y006115D01*
X017152Y006102D01*
X017140Y006085D01*
X017135Y006067D01*
X017247Y006002D01*
X017245Y005987D01*
X017097Y006072D01*
X017132Y006112D01*
X017120Y006072D01*
X017132Y006095D02*
X017172Y006132D01*
X017190Y006132D01*
X017227Y006132D02*
X017290Y006095D01*
X017307Y006052D01*
X017315Y005985D01*
X017285Y005922D01*
X017225Y005892D01*
X017170Y005892D01*
X017112Y005930D01*
X017140Y006117D02*
X017227Y006130D01*
X017380Y006142D02*
X017460Y006142D01*
X017457Y006150D01*
X017457Y006210D01*
X017505Y006210D01*
X017505Y005962D01*
X017492Y005927D01*
X017477Y005905D01*
X017455Y005892D01*
X017432Y005887D01*
X017412Y005882D01*
X017395Y005895D01*
X017432Y005902D01*
X017465Y005912D01*
X017480Y005940D01*
X017492Y005970D01*
X017492Y006195D01*
X017472Y006197D01*
X017475Y005967D01*
X017452Y005922D01*
X017392Y005905D01*
X017382Y005922D02*
X017417Y005922D01*
X017432Y005930D01*
X017442Y005937D01*
X017450Y005945D01*
X017457Y005960D01*
X017457Y006097D01*
X017450Y006100D01*
X017380Y006100D01*
X017380Y006142D01*
X017392Y006127D02*
X017462Y006127D01*
X017465Y006112D02*
X017392Y006110D01*
X017392Y006127D01*
X017382Y005922D02*
X017382Y005882D01*
X017407Y005882D01*
X017580Y005885D02*
X017625Y005885D01*
X017625Y005887D02*
X017625Y006257D01*
X017580Y006257D01*
X017580Y005885D01*
X017592Y005895D02*
X017592Y006245D01*
X017612Y006245D01*
X017610Y005895D01*
X017707Y005885D02*
X017707Y006140D01*
X017752Y006140D01*
X017752Y005885D01*
X017707Y005885D01*
X017720Y005897D02*
X017725Y006127D01*
X017740Y006127D02*
X017735Y005897D01*
X017720Y005897D01*
X017827Y005872D02*
X017827Y006030D01*
X017832Y006050D01*
X017840Y006072D01*
X017855Y006095D01*
X017875Y006117D01*
X017895Y006130D01*
X017922Y006142D01*
X017937Y006145D01*
X017980Y006145D01*
X018012Y006135D01*
X018035Y006122D01*
X018052Y006105D01*
X018067Y006085D01*
X018077Y006067D01*
X018085Y006035D01*
X018085Y005990D01*
X018080Y005970D01*
X018070Y005945D01*
X018055Y005922D01*
X018032Y005900D01*
X017982Y005880D01*
X017940Y005880D01*
X017892Y005895D01*
X017875Y005900D01*
X017875Y005855D01*
X017890Y005837D01*
X017910Y005820D01*
X017930Y005810D01*
X017950Y005805D01*
X017980Y005805D01*
X018030Y005817D01*
X018040Y005777D01*
X017977Y005760D01*
X017947Y005760D01*
X017912Y005765D01*
X017890Y005777D01*
X017865Y005795D01*
X017845Y005820D01*
X017835Y005845D01*
X017827Y005872D01*
X017845Y005860D02*
X017845Y006040D01*
X017862Y006042D01*
X017860Y005847D01*
X017907Y005797D01*
X017965Y005790D01*
X018020Y005802D01*
X018032Y005792D02*
X017965Y005775D01*
X017905Y005782D01*
X017862Y005822D01*
X017845Y005860D01*
X017875Y005910D02*
X017955Y005887D01*
X018022Y005907D01*
X018055Y005952D01*
X018067Y005985D01*
X018065Y006060D01*
X018022Y006110D01*
X017970Y006130D01*
X017925Y006125D01*
X017882Y006105D01*
X017847Y006050D01*
X017862Y006050D02*
X017887Y006097D01*
X017927Y006110D01*
X017980Y006115D01*
X018015Y006100D01*
X018045Y006065D01*
X018052Y005997D01*
X018037Y005945D01*
X017997Y005910D01*
X017940Y005902D01*
X017875Y005932D01*
X017875Y005910D01*
X017897Y005935D02*
X017930Y005922D01*
X017937Y005920D01*
X017980Y005920D01*
X018002Y005930D01*
X018020Y005950D01*
X018037Y005982D01*
X018040Y006047D01*
X018037Y006045D02*
X018030Y006060D01*
X018017Y006075D01*
X018005Y006087D01*
X017987Y006100D01*
X017970Y006102D01*
X017932Y006102D01*
X017912Y006092D01*
X017892Y006077D01*
X017880Y006057D01*
X017875Y006042D01*
X017875Y005950D01*
X017870Y005952D02*
X017897Y005935D01*
X017740Y006187D02*
X017730Y006187D01*
X017720Y006217D01*
X017730Y006227D01*
X017740Y006220D01*
X017737Y006202D01*
X017750Y006197D02*
X017740Y006187D01*
X017730Y006190D02*
X017722Y006187D01*
X017712Y006192D01*
X017707Y006200D01*
X017702Y006210D01*
X017702Y006217D01*
X017705Y006227D01*
X017715Y006237D01*
X017722Y006242D01*
X017737Y006242D01*
X017747Y006235D01*
X017755Y006222D01*
X017755Y006207D01*
X017750Y006197D01*
X017097Y006617D02*
X017037Y006617D01*
X017017Y006787D01*
X016987Y006997D01*
X017007Y006997D01*
X017057Y006627D01*
X017077Y006627D01*
X017027Y006997D01*
X017037Y007007D02*
X016917Y007007D01*
X016887Y006997D01*
X016847Y006957D01*
X016837Y006937D01*
X016837Y006867D01*
X016857Y006837D01*
X016877Y006817D01*
X016907Y006797D01*
X016937Y006787D01*
X017017Y006787D01*
X016997Y006797D02*
X016997Y006837D01*
X016927Y006837D01*
X016897Y006857D01*
X016887Y006897D01*
X016887Y006927D01*
X016907Y006957D01*
X016977Y006967D01*
X016977Y006987D01*
X016897Y006967D01*
X016867Y006927D01*
X016867Y006897D01*
X016887Y006837D01*
X016907Y006837D01*
X016907Y006827D01*
X016987Y006827D01*
X016987Y006807D01*
X016927Y006817D01*
X016917Y006807D02*
X016947Y006797D01*
X016997Y006797D01*
X016997Y006847D02*
X016927Y006847D01*
X016907Y006867D01*
X016897Y006887D01*
X016897Y006907D01*
X016907Y006937D01*
X016917Y006947D01*
X016987Y006947D01*
X016997Y006847D01*
X016917Y006807D02*
X016877Y006827D01*
X016857Y006867D01*
X016847Y006927D01*
X016867Y006957D01*
X016907Y006987D01*
X016977Y006997D01*
X017037Y007007D02*
X017097Y006617D01*
X016827Y006617D02*
X016767Y006617D01*
X016747Y006787D01*
X016717Y006997D01*
X016737Y006997D01*
X016787Y006627D01*
X016807Y006627D01*
X016757Y006997D01*
X016767Y007007D02*
X016647Y007007D01*
X016617Y006997D01*
X016577Y006957D01*
X016567Y006937D01*
X016567Y006867D01*
X016587Y006837D01*
X016607Y006817D01*
X016637Y006797D01*
X016667Y006787D01*
X016587Y006627D01*
X016607Y006627D01*
X016677Y006777D01*
X016697Y006777D01*
X016617Y006627D01*
X016627Y006627D01*
X016707Y006777D01*
X016727Y006787D02*
X016637Y006617D01*
X016567Y006617D01*
X016657Y006787D01*
X016667Y006787D01*
X016727Y006787D01*
X016747Y006787D01*
X016727Y006797D02*
X016727Y006837D01*
X016657Y006837D01*
X016627Y006857D01*
X016617Y006897D01*
X016617Y006927D01*
X016637Y006957D01*
X016707Y006967D01*
X016707Y006987D01*
X016627Y006967D01*
X016597Y006927D01*
X016597Y006897D01*
X016617Y006837D01*
X016637Y006837D01*
X016637Y006827D01*
X016717Y006827D01*
X016717Y006807D01*
X016657Y006817D01*
X016647Y006807D02*
X016677Y006797D01*
X016727Y006797D01*
X016727Y006847D02*
X016657Y006847D01*
X016637Y006867D01*
X016627Y006887D01*
X016627Y006907D01*
X016637Y006937D01*
X016647Y006947D01*
X016717Y006947D01*
X016727Y006847D01*
X016647Y006807D02*
X016607Y006827D01*
X016587Y006867D01*
X016577Y006927D01*
X016597Y006957D01*
X016637Y006987D01*
X016707Y006997D01*
X016767Y007007D02*
X016827Y006617D01*
X016537Y006717D02*
X016517Y006667D01*
X016487Y006637D01*
X016447Y006617D01*
X016407Y006607D01*
X016377Y006607D01*
X016347Y006617D01*
X016327Y006627D01*
X016297Y006647D01*
X016267Y006687D01*
X016247Y006717D01*
X016217Y006807D01*
X016217Y006907D01*
X016227Y006947D01*
X016247Y006977D01*
X016277Y006997D01*
X016317Y007017D01*
X016367Y007017D01*
X016407Y007007D01*
X016437Y006987D01*
X016477Y006947D01*
X016507Y006897D01*
X016527Y006827D01*
X016537Y006787D01*
X016537Y006717D01*
X016477Y006707D02*
X016437Y006667D01*
X016387Y006667D01*
X016357Y006677D01*
X016327Y006707D01*
X016297Y006747D01*
X016277Y006807D01*
X016267Y006847D01*
X016267Y006907D01*
X016287Y006937D01*
X016307Y006957D01*
X016367Y006957D01*
X016397Y006947D01*
X016427Y006917D01*
X016447Y006887D01*
X016467Y006837D01*
X016477Y006807D01*
X016477Y006707D01*
X017037Y007157D02*
X017127Y007327D01*
X017137Y007327D01*
X017057Y007167D01*
X017077Y007167D01*
X017147Y007317D01*
X017167Y007317D01*
X017087Y007167D01*
X017097Y007167D01*
X017177Y007317D01*
X017197Y007327D02*
X017107Y007157D01*
X017037Y007157D01*
X017107Y007337D02*
X017137Y007327D01*
X017197Y007327D01*
X017217Y007327D01*
X017187Y007537D01*
X017207Y007537D01*
X017257Y007167D01*
X017277Y007167D01*
X017227Y007537D01*
X017237Y007547D02*
X017117Y007547D01*
X017087Y007537D01*
X017047Y007497D01*
X017037Y007477D01*
X017037Y007407D01*
X017057Y007377D01*
X017077Y007357D01*
X017107Y007337D01*
X017117Y007347D02*
X017147Y007337D01*
X017197Y007337D01*
X017197Y007377D01*
X017127Y007377D01*
X017097Y007397D01*
X017087Y007437D01*
X017087Y007467D01*
X017107Y007497D01*
X017177Y007507D01*
X017177Y007527D01*
X017097Y007507D01*
X017067Y007467D01*
X017067Y007437D01*
X017087Y007377D01*
X017107Y007377D01*
X017107Y007367D01*
X017187Y007367D01*
X017187Y007347D01*
X017127Y007357D01*
X017117Y007347D02*
X017077Y007367D01*
X017057Y007407D01*
X017047Y007467D01*
X017067Y007497D01*
X017107Y007527D01*
X017177Y007537D01*
X017187Y007487D02*
X017117Y007487D01*
X017107Y007477D01*
X017097Y007447D01*
X017097Y007427D01*
X017107Y007407D01*
X017127Y007387D01*
X017197Y007387D01*
X017187Y007487D01*
X017237Y007547D02*
X017297Y007157D01*
X017237Y007157D01*
X017217Y007327D01*
D18*
X017407Y007277D02*
X017527Y007287D01*
X017427Y007307D01*
X017427Y007317D01*
X017527Y007317D01*
X017517Y007297D02*
X017457Y007447D01*
X017447Y007467D02*
X017407Y007267D01*
X017417Y007267D02*
X017527Y007267D01*
X017587Y007157D01*
X017637Y007157D01*
X017457Y007547D01*
X017417Y007547D01*
X017347Y007167D01*
X017397Y007167D01*
X017417Y007267D01*
X017417Y007287D02*
X017437Y007407D01*
X017427Y007417D02*
X017467Y007417D01*
X017437Y007527D02*
X017377Y007177D01*
X017607Y007167D02*
X017437Y007527D01*
X017637Y007547D02*
X017697Y007167D01*
X017747Y007167D01*
X017687Y007547D01*
X017667Y007537D01*
X017717Y007187D01*
X017737Y007337D02*
X017897Y007337D01*
X017897Y007367D02*
X017727Y007367D01*
X017727Y007387D02*
X017887Y007387D01*
X017907Y007537D02*
X017947Y007167D01*
X017977Y007157D01*
X017927Y007157D01*
X017877Y007547D01*
X017927Y007547D01*
X017977Y007157D01*
X018037Y007177D02*
X018037Y007227D01*
X018117Y007207D01*
X018167Y007207D01*
X018207Y007217D01*
X018237Y007237D01*
X018267Y007287D01*
X018267Y007347D01*
X018247Y007417D01*
X018207Y007467D01*
X018137Y007497D01*
X018057Y007507D01*
X017997Y007507D01*
X017997Y007547D01*
X018057Y007557D01*
X018157Y007537D01*
X018217Y007507D01*
X018267Y007467D01*
X018307Y007387D01*
X018307Y007267D01*
X018267Y007207D01*
X018227Y007177D01*
X018187Y007167D01*
X018117Y007167D01*
X018037Y007177D01*
X018047Y007207D02*
X018077Y007197D01*
X018157Y007187D01*
X018227Y007197D01*
X018267Y007237D01*
X018287Y007287D01*
X018287Y007377D01*
X018237Y007467D01*
X018147Y007517D01*
X018057Y007527D01*
X018017Y007527D01*
X017687Y007547D02*
X017637Y007547D01*
X017420Y007827D02*
X017460Y007887D01*
X017460Y008007D01*
X017420Y008087D01*
X017370Y008127D01*
X017310Y008157D01*
X017210Y008177D01*
X017150Y008167D01*
X017150Y008127D01*
X017210Y008127D01*
X017290Y008117D01*
X017360Y008087D01*
X017400Y008037D01*
X017420Y007967D01*
X017420Y007907D01*
X017390Y007857D01*
X017360Y007837D01*
X017320Y007827D01*
X017290Y007827D01*
X017240Y007847D01*
X017230Y007917D01*
X017290Y007917D01*
X017280Y007967D01*
X017260Y007937D01*
X017210Y007947D01*
X017210Y007927D01*
X017220Y007877D01*
X017210Y007867D01*
X017190Y007857D02*
X017180Y007967D01*
X017280Y007967D01*
X017250Y007837D02*
X017190Y007857D01*
X017190Y007847D02*
X017200Y007827D01*
X017230Y007817D01*
X017310Y007807D01*
X017380Y007817D01*
X017420Y007857D01*
X017440Y007907D01*
X017440Y007997D01*
X017390Y008087D01*
X017300Y008137D01*
X017210Y008147D01*
X017170Y008147D01*
X017080Y008177D02*
X017140Y007787D01*
X016990Y007787D01*
X016950Y007807D01*
X016920Y007837D01*
X016900Y007877D01*
X016900Y007927D01*
X016940Y008007D01*
X016920Y008037D01*
X016910Y008077D01*
X016920Y008127D01*
X016960Y008167D01*
X016990Y008177D01*
X017070Y008177D01*
X017060Y008157D02*
X017120Y007807D01*
X017100Y007807D02*
X017060Y008157D01*
X017040Y008167D02*
X017080Y007807D01*
X017100Y007807D01*
X017090Y007837D02*
X016980Y007837D01*
X016950Y007867D01*
X016940Y007897D01*
X016950Y007937D01*
X016980Y007967D01*
X017010Y007977D01*
X017040Y007977D01*
X017030Y007997D02*
X016960Y007987D01*
X016940Y007967D01*
X016940Y007957D01*
X016930Y007937D01*
X016910Y007927D01*
X016920Y007917D01*
X016920Y007867D01*
X016930Y007847D01*
X016940Y007837D01*
X016970Y007817D01*
X016990Y007807D01*
X017050Y007807D01*
X017060Y007817D01*
X017190Y007847D02*
X017270Y007827D01*
X017290Y007827D01*
X017270Y007787D02*
X017340Y007787D01*
X017380Y007797D01*
X017420Y007827D01*
X017270Y007787D02*
X017200Y007827D01*
X017030Y007997D02*
X017010Y007997D01*
X016960Y008017D01*
X016970Y007997D01*
X016950Y008017D01*
X016950Y008037D01*
X016940Y008067D01*
X016930Y008087D01*
X016940Y008107D01*
X016940Y008127D01*
X017020Y008167D01*
X017020Y008137D01*
X016980Y008127D01*
X016960Y008097D01*
X016960Y008067D01*
X016970Y008037D01*
X017000Y008017D01*
X017040Y008017D01*
X016675Y007897D02*
X016635Y008177D01*
X016585Y008177D01*
X016625Y007887D01*
X016615Y007857D01*
X016595Y007837D01*
X016555Y007827D01*
X016505Y007837D01*
X016475Y007867D01*
X016425Y008177D01*
X016375Y008177D01*
X016415Y007877D01*
X016435Y007837D01*
X016465Y007807D01*
X016505Y007787D01*
X016565Y007787D01*
X016615Y007797D01*
X016645Y007817D01*
X016665Y007857D01*
X016675Y007897D01*
X016655Y007897D02*
X016635Y007857D01*
X016635Y007837D01*
X016615Y007817D01*
X016565Y007807D01*
X016535Y007807D01*
X016505Y007817D01*
X016485Y007817D01*
X016465Y007837D01*
X016445Y007867D01*
X016415Y008157D01*
X016395Y008167D01*
X016425Y007937D01*
X016355Y007857D02*
X016315Y007817D01*
X016335Y007817D01*
X016265Y007807D01*
X016235Y007807D01*
X016205Y007827D01*
X016185Y007847D01*
X016155Y007867D01*
X016145Y007887D01*
X016145Y007947D01*
X016265Y008007D01*
X016165Y007967D01*
X016285Y008037D01*
X016295Y008087D01*
X016285Y008107D01*
X016255Y008137D01*
X016235Y008147D01*
X016175Y008147D01*
X016155Y008157D01*
X016155Y008147D01*
X016135Y008117D02*
X016225Y008127D01*
X016255Y008107D01*
X016275Y008087D01*
X016265Y008057D01*
X016255Y008037D01*
X016175Y007997D01*
X016145Y007977D01*
X016125Y007917D01*
X016125Y007887D01*
X016145Y007847D01*
X016175Y007817D01*
X016205Y007797D01*
X016225Y007787D01*
X016295Y007787D01*
X016355Y007807D01*
X016355Y007857D01*
X016295Y007837D01*
X016225Y007837D01*
X016195Y007857D01*
X016175Y007887D01*
X016175Y007937D01*
X016195Y007957D01*
X016235Y007977D01*
X016285Y007997D01*
X016315Y008047D01*
X016315Y008097D01*
X016295Y008137D01*
X016255Y008167D01*
X016215Y008177D01*
X016135Y008177D01*
X016135Y008117D01*
X016025Y008177D02*
X016085Y007787D01*
X015935Y007787D01*
X015895Y007807D01*
X015865Y007837D01*
X015845Y007877D01*
X015845Y007927D01*
X015885Y008007D01*
X015865Y008037D01*
X015855Y008077D01*
X015865Y008127D01*
X015905Y008167D01*
X015935Y008177D01*
X016015Y008177D01*
X016005Y008157D02*
X016065Y007807D01*
X016045Y007807D02*
X016005Y008157D01*
X015985Y008167D02*
X016025Y007807D01*
X016045Y007807D01*
X016035Y007837D02*
X015925Y007837D01*
X015895Y007867D01*
X015885Y007897D01*
X015895Y007937D01*
X015925Y007967D01*
X015955Y007977D01*
X015985Y007977D01*
X015975Y007997D02*
X015905Y007987D01*
X015885Y007967D01*
X015885Y007957D01*
X015875Y007937D01*
X015855Y007927D01*
X015865Y007917D01*
X015865Y007867D01*
X015875Y007847D01*
X015885Y007837D01*
X015915Y007817D01*
X015935Y007807D01*
X015995Y007807D01*
X016005Y007817D01*
X015975Y007997D02*
X015955Y007997D01*
X015905Y008017D01*
X015915Y007997D01*
X015895Y008017D01*
X015895Y008037D01*
X015885Y008067D01*
X015875Y008087D01*
X015885Y008107D01*
X015885Y008127D01*
X015965Y008167D01*
X015965Y008137D01*
X015925Y008127D01*
X015905Y008097D01*
X015905Y008067D01*
X015915Y008037D01*
X015945Y008017D01*
X015985Y008017D01*
X015927Y007557D02*
X015867Y007547D01*
X015867Y007507D01*
X015927Y007507D01*
X016007Y007497D01*
X016077Y007467D01*
X016117Y007417D01*
X016137Y007347D01*
X016137Y007287D01*
X016107Y007237D01*
X016077Y007217D01*
X016037Y007207D01*
X016007Y007207D01*
X015957Y007227D01*
X015947Y007297D01*
X016007Y007297D01*
X015997Y007347D01*
X015977Y007317D01*
X015927Y007327D01*
X015927Y007307D01*
X015937Y007257D01*
X015927Y007247D01*
X015907Y007237D02*
X015897Y007347D01*
X015997Y007347D01*
X015967Y007217D02*
X015907Y007237D01*
X015907Y007227D02*
X015917Y007207D01*
X015947Y007197D01*
X016027Y007187D01*
X016097Y007197D01*
X016137Y007237D01*
X016157Y007287D01*
X016157Y007377D01*
X016107Y007467D01*
X016017Y007517D01*
X015927Y007527D01*
X015887Y007527D01*
X015927Y007557D02*
X016027Y007537D01*
X016087Y007507D01*
X016137Y007467D01*
X016177Y007387D01*
X016177Y007267D01*
X016137Y007207D01*
X016097Y007177D01*
X016057Y007167D01*
X015987Y007167D01*
X015917Y007207D01*
X015907Y007227D02*
X015987Y007207D01*
X016007Y007207D01*
X016267Y007167D02*
X016217Y007547D01*
X016267Y007547D01*
X016307Y007257D01*
X016447Y007547D01*
X016497Y007547D01*
X016547Y007167D01*
X016507Y007167D01*
X016467Y007447D01*
X016437Y007417D01*
X016317Y007167D01*
X016267Y007167D01*
X016277Y007187D02*
X016317Y007247D01*
X016297Y007187D02*
X016247Y007527D01*
X016437Y007487D02*
X016297Y007187D01*
X016277Y007187D02*
X016257Y007317D01*
X016417Y007427D02*
X016467Y007487D01*
X016477Y007467D01*
X016467Y007477D01*
X016477Y007507D01*
X016437Y007487D01*
X016467Y007487D02*
X016447Y007527D01*
X016487Y007527D01*
X016527Y007187D01*
X016617Y007167D02*
X016667Y007167D01*
X016617Y007547D01*
X016597Y007547D01*
X016637Y007177D01*
X016617Y007167D02*
X016567Y007547D01*
X016597Y007547D01*
X016587Y007537D02*
X016617Y007547D01*
X016677Y007547D02*
X016677Y007507D01*
X016737Y007507D01*
X016817Y007497D01*
X016887Y007467D01*
X016927Y007417D01*
X016947Y007347D01*
X016947Y007287D01*
X016917Y007237D01*
X016887Y007217D01*
X016847Y007207D01*
X016817Y007207D01*
X016767Y007227D01*
X016757Y007297D01*
X016817Y007297D01*
X016807Y007347D01*
X016787Y007317D01*
X016737Y007327D01*
X016737Y007307D01*
X016747Y007257D01*
X016737Y007247D01*
X016717Y007237D02*
X016707Y007347D01*
X016807Y007347D01*
X016777Y007217D02*
X016717Y007237D01*
X016717Y007227D02*
X016727Y007207D01*
X016757Y007197D01*
X016837Y007187D01*
X016907Y007197D01*
X016947Y007237D01*
X016967Y007287D01*
X016967Y007377D01*
X016917Y007467D01*
X016827Y007517D01*
X016737Y007527D01*
X016697Y007527D01*
X016677Y007547D02*
X016737Y007557D01*
X016837Y007537D01*
X016897Y007507D01*
X016947Y007467D01*
X016987Y007387D01*
X016987Y007267D01*
X016947Y007207D01*
X016907Y007177D01*
X016867Y007167D01*
X016797Y007167D01*
X016727Y007207D01*
X016717Y007227D02*
X016797Y007207D01*
X016817Y007207D01*
X015697Y007157D02*
X015657Y007157D01*
X015597Y007547D01*
X015647Y007547D01*
X015697Y007157D01*
X015667Y007177D02*
X015627Y007507D01*
X015617Y007537D01*
X015487Y007547D02*
X015627Y007367D01*
X015597Y007317D01*
X015517Y007167D01*
X015487Y007167D01*
X015597Y007367D01*
X015467Y007527D01*
X015487Y007547D02*
X015427Y007547D01*
X015567Y007357D01*
X015457Y007157D01*
X015517Y007157D01*
X015407Y007167D02*
X015357Y007167D01*
X015297Y007547D01*
X015317Y007547D01*
X015377Y007187D01*
X015407Y007167D02*
X015347Y007547D01*
X015337Y007547D02*
X015317Y007547D01*
X015247Y007507D02*
X015237Y007547D01*
X014997Y007547D01*
X015007Y007507D01*
X015247Y007507D01*
X015217Y007527D02*
X015017Y007527D01*
X015097Y007497D02*
X015117Y007497D01*
X015167Y007187D01*
X015147Y007167D02*
X015097Y007497D01*
X015147Y007487D02*
X015197Y007167D01*
X015147Y007167D01*
X015217Y007537D02*
X015237Y007547D01*
X016635Y007857D02*
X016635Y007907D01*
X016655Y007897D02*
X016605Y008167D01*
D19*
X015690Y006110D02*
X015652Y006125D01*
X015600Y006110D01*
X015567Y006085D01*
X015562Y005897D01*
X015402Y005905D02*
X015405Y006060D01*
X015432Y006105D01*
X015482Y006120D01*
X015520Y006117D01*
X015552Y006090D01*
X015690Y006110D02*
X015725Y006055D01*
X015722Y005905D01*
M02*
